G04 EasyPC Gerber Version 21.0.3 Build 4286 *
%FSLAX35Y35*%
%MOIN*%
%ADD119O,0.09843X0.15748*%
%ADD127R,0.02992X0.03228*%
%ADD125R,0.05500X0.06000*%
%ADD19C,0.00001*%
%ADD71C,0.01000*%
%ADD16C,0.01500*%
%ADD106C,0.02000*%
%ADD86C,0.03200*%
%ADD13C,0.06000*%
%ADD114C,0.07300*%
%ADD20C,0.10000*%
%ADD115C,0.11500*%
%ADD108C,0.15748*%
%ADD84C,0.17500*%
%ADD107C,0.17717*%
%ADD77C,0.23622*%
%ADD126R,0.04134X0.02362*%
%ADD124R,0.06004X0.02559*%
%ADD110R,0.04291X0.03937*%
X0Y0D02*
D02*
D13*
X42750Y281800D03*
Y292600D03*
Y303400D03*
Y314200D03*
X52750Y276400D03*
Y287200D03*
Y298000D03*
Y308800D03*
Y319600D03*
X137750Y374000D03*
Y384000D03*
X147750Y374000D03*
Y384000D03*
X157750Y374000D03*
Y384000D03*
X167750Y374000D03*
Y384000D03*
X177750Y374000D03*
Y384000D03*
X187750Y374000D03*
Y384000D03*
X197750Y374000D03*
Y384000D03*
X207750Y374000D03*
Y384000D03*
X217750Y374000D03*
Y384000D03*
X227750Y374000D03*
Y384000D03*
X281750Y20000D03*
Y30000D03*
X289750Y272000D03*
Y328500D03*
X291750Y20000D03*
Y30000D03*
X299750Y272000D03*
Y328500D03*
X301750Y20000D03*
Y30000D03*
X311750Y20000D03*
Y30000D03*
X321750Y20000D03*
Y30000D03*
X373750Y60000D03*
Y70000D03*
Y80000D03*
Y90000D03*
Y100000D03*
Y120000D03*
Y130000D03*
Y140000D03*
Y150000D03*
Y160000D03*
Y180000D03*
Y190000D03*
Y200000D03*
Y210000D03*
Y220000D03*
Y250000D03*
Y260000D03*
Y270000D03*
Y280000D03*
Y310000D03*
Y320000D03*
Y330000D03*
Y340000D03*
X383750Y60000D03*
Y70000D03*
Y80000D03*
Y90000D03*
Y100000D03*
Y120000D03*
Y130000D03*
Y140000D03*
Y150000D03*
Y160000D03*
Y180000D03*
Y190000D03*
Y200000D03*
Y210000D03*
Y220000D03*
Y250000D03*
Y260000D03*
Y270000D03*
Y280000D03*
Y310000D03*
Y320000D03*
Y330000D03*
Y340000D03*
D02*
D16*
X42750Y292600D02*
X58350D01*
X70750Y305000*
Y332000*
X71490Y332740*
X75081*
X52750Y287200D02*
X56950D01*
X75081Y305331*
Y325260*
X86990*
X87750Y324500*
X75081Y332740D02*
X86990D01*
X87750Y333500*
Y324500D02*
X95750D01*
X96750Y325500*
X103073*
X87750Y333500D02*
X95250D01*
X98250Y330500*
X103073*
Y335500D02*
X108250D01*
X110750Y338000*
Y344500*
X110250Y345000*
X132750Y77339D02*
X142998D01*
X143021Y77315*
X144021*
X150336Y71000*
X281750*
X286750Y66000*
Y65000*
X157750Y320500D02*
X124427D01*
X164250Y335500D02*
X124427D01*
X171750Y359500D02*
Y368000D01*
X177750Y374000*
X172250Y195500D02*
X267750D01*
X270250Y193000*
Y118000*
X273250Y115000*
X292250*
X172250Y202500D02*
X274250D01*
X276750Y200000*
Y126500*
X284750Y118500*
X289250*
X186250Y218500D02*
X192750D01*
X223750Y249500*
Y329500*
X207750Y345500*
Y345000*
X222750Y77339D02*
X232293D01*
X232317Y77315*
X230750Y217500D02*
X257750D01*
X232317Y77315D02*
X288435D01*
X291750Y74000*
X299750Y272000D02*
X304750D01*
X313750Y281000*
X302250Y182500D02*
X306750Y187000D01*
X311750*
D02*
D19*
X48250Y59500D02*
G75*
G03X59750Y48000I11500D01*
G01*
X71250*
X72250Y49000*
Y56000*
X73250Y57000*
X197923*
G75*
G02X200577I1327J-2000*
G01*
X238750*
X239750Y58000*
Y68000*
X238750Y69000*
X109624*
G75*
G02X105876I-1874J1500*
G01*
X72250*
X69250Y72000*
X59250*
G75*
G03X48250Y61000J-11000*
G01*
Y59500*
X130455Y67075D02*
X135045D01*
Y62248*
X130455*
Y67075*
X143021Y68185D02*
G75*
G02X147671Y63535J-4650D01*
G01*
G75*
G02X143021Y58885I-4650*
G01*
G75*
G02X138371Y63535J4650*
G01*
G75*
G02X143021Y68185I4650*
G01*
X220455Y67075D02*
X225045D01*
Y62248*
X220455*
Y67075*
X232317Y68185D02*
G75*
G02X236967Y63535J-4650D01*
G01*
G75*
G02X232317Y58885I-4650*
G01*
G75*
G02X227667Y63535J4650*
G01*
G75*
G02X232317Y68185I4650*
G01*
X50514Y60000D02*
G75*
G02X70230I9858D01*
G01*
G75*
G02X50514I-9858*
G01*
X239750Y64661D02*
G36*
X236829D01*
G75*
G02X236967Y63536I-4512J-1125*
G01*
Y63535*
Y63535*
G75*
G02X232317Y58885I-4650*
G01*
G75*
G02X227667Y63535J4650*
G01*
Y63535*
Y63536*
G75*
G02X227805Y64661I4650J0*
G01*
X225045*
Y62248*
X220455*
Y64661*
X147533*
G75*
G02X147671Y63536I-4512J-1125*
G01*
Y63535*
Y63535*
G75*
G02X143021Y58885I-4650*
G01*
G75*
G02X138371Y63535J4650*
G01*
Y63535*
Y63536*
G75*
G02X138509Y64661I4650J0*
G01*
X135045*
Y62248*
X130455*
Y64661*
X69059*
G75*
G02X70230Y60000I-8687J-4661*
G01*
G75*
G02X50514I-9858*
G01*
G75*
G02X51685Y64661I9858*
G01*
X48877*
G75*
G03X48250Y61000I10373J-3661*
G01*
Y59500*
Y59499*
G75*
G03X59749Y48000I11499*
G01*
X59750*
X71250*
X72250Y49000*
Y56000*
X73250Y57000*
X197923*
G75*
G02X200577I1327J-2000*
G01*
X238750*
X239750Y58000*
Y64661*
G37*
X69250Y72000D02*
G36*
X59250D01*
G75*
G03X48877Y64661J-11000*
G01*
X51685*
G75*
G02X69059I8687J-4661*
G01*
X130455*
Y67075*
X135045*
Y64661*
X138509*
G75*
G02X143021Y68185I4511J-1126*
G01*
G75*
G02X147533Y64661I0J-4650*
G01*
X220455*
Y67075*
X225045*
Y64661*
X227805*
G75*
G02X232317Y68185I4511J-1126*
G01*
G75*
G02X236829Y64661I0J-4650*
G01*
X239750*
Y68000*
X238750Y69000*
X109624*
G75*
G02X105876I-1874J1500*
G01*
X72250*
X69250Y72000*
G37*
X113750Y324500D02*
Y292500D01*
X114750Y291500*
X119750*
X120750Y292500*
Y315000*
X119250Y316500*
Y323000*
X120250Y324000*
X128250*
Y327500*
X116750*
X113750Y324500*
G36*
Y292500*
X114750Y291500*
X119750*
X120750Y292500*
Y315000*
X119250Y316500*
Y323000*
X120250Y324000*
X128250*
Y327500*
X116750*
X113750Y324500*
G37*
X133750Y184500D02*
Y180000D01*
X134750Y179000*
X149250*
X150250Y180000*
Y250000*
X153750Y253500*
X218750*
X219250Y254000*
Y257000*
X218750Y257500*
X154250*
X146750Y250000*
Y187000*
X145750Y186000*
X135250*
X133750Y184500*
G36*
Y180000*
X134750Y179000*
X149250*
X150250Y180000*
Y250000*
X153750Y253500*
X218750*
X219250Y254000*
Y257000*
X218750Y257500*
X154250*
X146750Y250000*
Y187000*
X145750Y186000*
X135250*
X133750Y184500*
G37*
X238250Y121500D02*
X237250Y122500D01*
X82250*
X81250Y123500*
Y158000*
X82750Y159500*
X114250*
X122250Y151500*
X220250*
X221250Y152500*
Y156000*
X220250Y157000*
X121750*
X115250Y163500*
X92250*
X90250Y165500*
Y185000*
X89250Y186000*
X84750*
X76750Y178000*
Y119500*
X78750Y117500*
X237250*
X238250Y118500*
Y121500*
G36*
X237250Y122500*
X82250*
X81250Y123500*
Y158000*
X82750Y159500*
X114250*
X122250Y151500*
X220250*
X221250Y152500*
Y156000*
X220250Y157000*
X121750*
X115250Y163500*
X92250*
X90250Y165500*
Y185000*
X89250Y186000*
X84750*
X76750Y178000*
Y119500*
X78750Y117500*
X237250*
X238250Y118500*
Y121500*
G37*
X340250Y292000D02*
X339250Y293000D01*
X284250*
X281250Y296000*
Y339000*
X285750Y343500*
X337750*
X338750Y344500*
Y354000*
X337750Y355000*
X136750*
X119750Y372000*
X34750*
X23750Y361000*
Y150000*
X30750Y143000*
X51750*
X53750Y141000*
Y138000*
X55750Y136000*
X65750*
X66750Y137000*
Y147000*
X64750Y149000*
X34750*
X30750Y153000*
Y359000*
X37750Y366000*
X116750*
X133750Y349000*
X272250*
X275750Y345500*
Y216000*
X283250Y208500*
Y132500*
X283750Y132000*
X286750*
X287750Y133000*
Y210500*
X279750Y218500*
Y282000*
X283750Y286000*
X339250*
X340250Y287000*
Y292000*
G36*
X339250Y293000*
X284250*
X281250Y296000*
Y339000*
X285750Y343500*
X337750*
X338750Y344500*
Y354000*
X337750Y355000*
X136750*
X119750Y372000*
X34750*
X23750Y361000*
Y150000*
X30750Y143000*
X51750*
X53750Y141000*
Y138000*
X55750Y136000*
X65750*
X66750Y137000*
Y147000*
X64750Y149000*
X34750*
X30750Y153000*
Y359000*
X37750Y366000*
X116750*
X133750Y349000*
X272250*
X275750Y345500*
Y216000*
X283250Y208500*
Y132500*
X283750Y132000*
X286750*
X287750Y133000*
Y210500*
X279750Y218500*
Y282000*
X283750Y286000*
X339250*
X340250Y287000*
Y292000*
G37*
X399150Y380421D02*
G75*
G02X374210Y383071I-12330J2650D01*
G01*
G75*
G02X384171Y395400I12611*
G01*
X23329*
G75*
G02X33290Y383071I-2650J-12330*
G01*
G75*
G02X8350Y380421I-12611*
G01*
Y19579*
G75*
G02X33290Y16929I12330J-2650*
G01*
G75*
G02X23329Y4600I-12611*
G01*
X384171*
G75*
G02X374210Y16929I2650J12330*
G01*
G75*
G02X399150Y19579I12611*
G01*
Y380421*
X379750Y60000D02*
G75*
G02X387750I4000D01*
G01*
G75*
G02X379750I-4000*
G01*
Y120000D02*
G75*
G02X387750I4000D01*
G01*
G75*
G02X379750I-4000*
G01*
X379950Y70000D02*
G75*
G02X387550I3800D01*
G01*
G75*
G02X379950I-3800*
G01*
Y80000D02*
G75*
G02X387550I3800D01*
G01*
G75*
G02X379950I-3800*
G01*
Y90000D02*
G75*
G02X387550I3800D01*
G01*
G75*
G02X379950I-3800*
G01*
Y100000D02*
G75*
G02X387550I3800D01*
G01*
G75*
G02X379950I-3800*
G01*
X379750Y180000D02*
G75*
G02X387750I4000D01*
G01*
G75*
G02X379750I-4000*
G01*
X379950Y130000D02*
G75*
G02X387550I3800D01*
G01*
G75*
G02X379950I-3800*
G01*
Y140000D02*
G75*
G02X387550I3800D01*
G01*
G75*
G02X379950I-3800*
G01*
Y150000D02*
G75*
G02X387550I3800D01*
G01*
G75*
G02X379950I-3800*
G01*
Y160000D02*
G75*
G02X387550I3800D01*
G01*
G75*
G02X379950I-3800*
G01*
X379750Y250000D02*
G75*
G02X387750I4000D01*
G01*
G75*
G02X379750I-4000*
G01*
X379950Y190000D02*
G75*
G02X387550I3800D01*
G01*
G75*
G02X379950I-3800*
G01*
Y200000D02*
G75*
G02X387550I3800D01*
G01*
G75*
G02X379950I-3800*
G01*
Y210000D02*
G75*
G02X387550I3800D01*
G01*
G75*
G02X379950I-3800*
G01*
Y220000D02*
G75*
G02X387550I3800D01*
G01*
G75*
G02X379950I-3800*
G01*
X379750Y260000D02*
G75*
G02X387750I4000D01*
G01*
G75*
G02X379750I-4000*
G01*
Y270000D02*
G75*
G02X387750I4000D01*
G01*
G75*
G02X379750I-4000*
G01*
Y280000D02*
G75*
G02X387750I4000D01*
G01*
G75*
G02X379750I-4000*
G01*
Y310000D02*
G75*
G02X387750I4000D01*
G01*
G75*
G02X379750I-4000*
G01*
Y320000D02*
G75*
G02X387750I4000D01*
G01*
G75*
G02X379750I-4000*
G01*
Y330000D02*
G75*
G02X387750I4000D01*
G01*
G75*
G02X379750I-4000*
G01*
Y340000D02*
G75*
G02X387750I4000D01*
G01*
G75*
G02X379750I-4000*
G01*
X133950Y374000D02*
G75*
G02X141550I3800D01*
G01*
G75*
G02X133950I-3800*
G01*
Y384000D02*
G75*
G02X141550I3800D01*
G01*
G75*
G02X133950I-3800*
G01*
X143750D02*
G75*
G02X151750I4000D01*
G01*
G75*
G02X143750I-4000*
G01*
X143950Y374000D02*
G75*
G02X151550I3800D01*
G01*
G75*
G02X143950I-3800*
G01*
X153750Y384000D02*
G75*
G02X161750I4000D01*
G01*
G75*
G02X153750I-4000*
G01*
X153950Y374000D02*
G75*
G02X161550I3800D01*
G01*
G75*
G02X153950I-3800*
G01*
X163750Y384000D02*
G75*
G02X171750I4000D01*
G01*
G75*
G02X163750I-4000*
G01*
X163950Y374000D02*
G75*
G02X171550I3800D01*
G01*
G75*
G02X163950I-3800*
G01*
X173950D02*
G75*
G02X181550I3800D01*
G01*
G75*
G02X176393Y370451I-3800J0*
G01*
X173300Y367358*
Y361332*
G75*
G02X174150Y359500I-1550J-1832*
G01*
G75*
G02X169350I-2400*
G01*
G75*
G02X170200Y361332I2400*
G01*
Y368000*
G75*
G02X170654Y369096I1550*
G01*
X174201Y372643*
G75*
G02X173950Y374000I3550J1358*
G01*
X173750Y384000D02*
G75*
G02X181750I4000D01*
G01*
G75*
G02X173750I-4000*
G01*
X183750D02*
G75*
G02X191750I4000D01*
G01*
G75*
G02X183750I-4000*
G01*
X183950Y374000D02*
G75*
G02X191550I3800D01*
G01*
G75*
G02X183950I-3800*
G01*
X193750Y384000D02*
G75*
G02X201750I4000D01*
G01*
G75*
G02X193750I-4000*
G01*
X193950Y374000D02*
G75*
G02X201550I3800D01*
G01*
G75*
G02X193950I-3800*
G01*
X203750Y384000D02*
G75*
G02X211750I4000D01*
G01*
G75*
G02X203750I-4000*
G01*
X203950Y374000D02*
G75*
G02X211550I3800D01*
G01*
G75*
G02X203950I-3800*
G01*
X213750Y384000D02*
G75*
G02X221750I4000D01*
G01*
G75*
G02X213750I-4000*
G01*
X213950Y374000D02*
G75*
G02X221550I3800D01*
G01*
G75*
G02X213950I-3800*
G01*
X223750Y384000D02*
G75*
G02X231750I4000D01*
G01*
G75*
G02X223750I-4000*
G01*
X223950Y374000D02*
G75*
G02X231550I3800D01*
G01*
G75*
G02X223950I-3800*
G01*
X369950Y340000D02*
G75*
G02X377550I3800D01*
G01*
G75*
G02X369950I-3800*
G01*
X340815Y292567D02*
G75*
G02X341050Y292000I-565J-567D01*
G01*
Y287000*
G75*
G02X340815Y286433I-800*
G01*
X339817Y285435*
G75*
G02X339250Y285200I-567J565*
G01*
X284081*
X280550Y281669*
Y218831*
X288315Y211067*
G75*
G02X288550Y210500I-565J-567*
G01*
Y133000*
G75*
G02X288315Y132433I-800*
G01*
X287317Y131435*
G75*
G02X286750Y131200I-567J565*
G01*
X283750*
G75*
G02X283183Y131435J800*
G01*
X282685Y131933*
G75*
G02X282450Y132500I565J567*
G01*
Y208169*
X275185Y215433*
G75*
G02X274950Y216000I565J567*
G01*
Y345169*
X271919Y348200*
X133750*
G75*
G02X133183Y348435J800*
G01*
X116419Y365200*
X38081*
X31550Y358669*
Y153331*
X35081Y149800*
X64750*
G75*
G02X65317Y149565J-800*
G01*
X67315Y147567*
G75*
G02X67550Y147000I-565J-567*
G01*
Y137000*
G75*
G02X67315Y136433I-800*
G01*
X66317Y135435*
G75*
G02X65750Y135200I-567J565*
G01*
X55750*
G75*
G02X55183Y135435J800*
G01*
X53185Y137433*
G75*
G02X52950Y138000I565J567*
G01*
Y140669*
X51419Y142200*
X30750*
G75*
G02X30183Y142435J800*
G01*
X23185Y149433*
G75*
G02X22950Y150000I565J567*
G01*
Y361000*
G75*
G02X23185Y361567I800*
G01*
X34183Y372565*
G75*
G02X34750Y372800I567J-565*
G01*
X119750*
G75*
G02X120317Y372565J-800*
G01*
X137081Y355800*
X337750*
G75*
G02X338317Y355565J-800*
G01*
X339315Y354567*
G75*
G02X339550Y354000I-565J-567*
G01*
Y344500*
G75*
G02X339315Y343933I-800*
G01*
X338317Y342935*
G75*
G02X337750Y342700I-567J565*
G01*
X286081*
X282050Y338669*
Y296331*
X284581Y293800*
X339250*
G75*
G02X339817Y293565J-800*
G01*
X340815Y292567*
X295950Y328500D02*
G75*
G02X303550I3800D01*
G01*
G75*
G02X295950I-3800*
G01*
X370179Y331300D02*
G75*
G02X377550Y330000I3571J-1300D01*
G01*
G75*
G02X370179Y328700I-3800*
G01*
X369289*
X368669Y328081*
G75*
G02X367748Y327700I-919J920*
G01*
X341267*
G75*
G02X336850Y329000I-2017J1300*
G01*
G75*
G02X341267Y330300I2400*
G01*
X367211*
X367831Y330919*
G75*
G02X368752Y331300I919J-920*
G01*
X370179*
X369950Y280000D02*
G75*
G02X377550I3800D01*
G01*
G75*
G02X369950I-3800*
G01*
Y310000D02*
G75*
G02X377550I3800D01*
G01*
G75*
G02X369950I-3800*
G01*
Y320000D02*
G75*
G02X377550I3800D01*
G01*
G75*
G02X369950I-3800*
G01*
X285950Y328500D02*
G75*
G02X293550I3800D01*
G01*
G75*
G02X285950I-3800*
G01*
Y272000D02*
G75*
G02X293550I3800D01*
G01*
G75*
G02X285950I-3800*
G01*
X311350Y281000D02*
G75*
G02X316150I2400D01*
G01*
G75*
G02X313550Y278608I-2400*
G01*
X305846Y270904*
G75*
G02X304749Y270450I-1096J1096*
G01*
X303220*
G75*
G02X295950Y272000I-3470J1550*
G01*
G75*
G02X303220Y273550I3800*
G01*
X304108*
X311358Y280800*
G75*
G02X311350Y281000I2392J199*
G01*
X297950Y20000D02*
G75*
G02X305550I3800D01*
G01*
G75*
G02X297950I-3800*
G01*
Y30000D02*
G75*
G02X305550I3800D01*
G01*
G75*
G02X297950I-3800*
G01*
X309918Y188550D02*
G75*
G02X314150Y187000I1832J-1550D01*
G01*
G75*
G02X309918Y185450I-2400*
G01*
X307392*
X304642Y182700*
G75*
G02X304650Y182500I-2392J-199*
G01*
G75*
G02X299850I-2400*
G01*
G75*
G02X302450Y184892I2400*
G01*
X305654Y188096*
G75*
G02X306751Y188550I1096J-1096*
G01*
X309918*
X307950Y20000D02*
G75*
G02X315550I3800D01*
G01*
G75*
G02X307950I-3800*
G01*
Y30000D02*
G75*
G02X315550I3800D01*
G01*
G75*
G02X307950I-3800*
G01*
X317950Y20000D02*
G75*
G02X325550I3800D01*
G01*
G75*
G02X317950I-3800*
G01*
Y30000D02*
G75*
G02X325550I3800D01*
G01*
G75*
G02X317950I-3800*
G01*
X370404Y271800D02*
G75*
G02X377550Y270000I3346J-1800D01*
G01*
G75*
G02X370035Y269200I-3800*
G01*
X369789*
X368669Y268081*
G75*
G02X367748Y267700I-919J920*
G01*
X340767*
G75*
G02X336350Y269000I-2017J1300*
G01*
G75*
G02X340767Y270300I2400*
G01*
X367211*
X368331Y271419*
G75*
G02X369252Y271800I919J-920*
G01*
X370404*
X369950Y190000D02*
G75*
G02X377550I3800D01*
G01*
G75*
G02X369950I-3800*
G01*
Y200000D02*
G75*
G02X377550I3800D01*
G01*
G75*
G02X369950I-3800*
G01*
Y210000D02*
G75*
G02X377550I3800D01*
G01*
G75*
G02X369950I-3800*
G01*
Y220000D02*
G75*
G02X377550I3800D01*
G01*
G75*
G02X369950I-3800*
G01*
Y250000D02*
G75*
G02X377550I3800D01*
G01*
G75*
G02X369950I-3800*
G01*
Y260000D02*
G75*
G02X377550I3800D01*
G01*
G75*
G02X369950I-3800*
G01*
X369750Y60000D02*
G75*
G02X377750I4000D01*
G01*
G75*
G02X369750I-4000*
G01*
Y120000D02*
G75*
G02X377750I4000D01*
G01*
G75*
G02X369750I-4000*
G01*
X369950Y70000D02*
G75*
G02X377550I3800D01*
G01*
G75*
G02X369950I-3800*
G01*
Y80000D02*
G75*
G02X377550I3800D01*
G01*
G75*
G02X369950I-3800*
G01*
Y90000D02*
G75*
G02X377550I3800D01*
G01*
G75*
G02X369950I-3800*
G01*
Y100000D02*
G75*
G02X377550I3800D01*
G01*
G75*
G02X369950I-3800*
G01*
X369750Y180000D02*
G75*
G02X377750I4000D01*
G01*
G75*
G02X369750I-4000*
G01*
X369950Y130000D02*
G75*
G02X377550I3800D01*
G01*
G75*
G02X369950I-3800*
G01*
Y140000D02*
G75*
G02X377550I3800D01*
G01*
G75*
G02X369950I-3800*
G01*
Y150000D02*
G75*
G02X377550I3800D01*
G01*
G75*
G02X369950I-3800*
G01*
Y160000D02*
G75*
G02X377550I3800D01*
G01*
G75*
G02X369950I-3800*
G01*
X224846Y330596D02*
G75*
G02X225300Y329500I-1096J-1096D01*
G01*
Y249500*
G75*
G02X224846Y248404I-1550*
G01*
X193846Y217404*
G75*
G02X192749Y216950I-1096J1096*
G01*
X188082*
G75*
G02X183850Y218500I-1832J1550*
G01*
G75*
G02X188082Y220050I2400*
G01*
X192108*
X222200Y250142*
Y328858*
X208375Y342683*
G75*
G02X205350Y345000I-625J2317*
G01*
G75*
G02X210130Y345313I2400*
G01*
X224846Y330596*
X255918Y219050D02*
G75*
G02X260150Y217500I1832J-1550D01*
G01*
G75*
G02X255918Y215950I-2400*
G01*
X232582*
G75*
G02X228350Y217500I-1832J1550*
G01*
G75*
G02X232582Y219050I2400*
G01*
X255918*
X120624Y332579D02*
X128230D01*
Y328421*
X120624*
Y332579*
X162418Y337050D02*
G75*
G02X166650Y335500I1832J-1550D01*
G01*
G75*
G02X162418Y333950I-2400*
G01*
X128230*
Y333421*
X120624*
Y337579*
X128230*
Y337050*
X162418*
X47750Y258350D02*
G75*
G02X57300Y248800J-9550D01*
G01*
G75*
G02X47750Y239250I-9550*
G01*
G75*
G02X38200Y248800J9550*
G01*
G75*
G02X47750Y258350I9550*
G01*
Y356750D02*
G75*
G02Y337650J-9550D01*
G01*
G75*
G02X38200Y347200J9550*
G01*
G75*
G02X47750Y356750I9550*
G01*
X99270Y332579D02*
X106876D01*
Y328421*
X99270*
Y328950*
X98251*
G75*
G02X97154Y329404I-1J1550*
G01*
X94608Y331950*
X91301*
Y329701*
X84199*
Y331190*
X77947*
Y330760*
X72300*
Y327240*
X77947*
Y326810*
X84199*
Y328299*
X91301*
Y326050*
X95108*
X95654Y326596*
G75*
G02X96751Y327050I1096J-1096*
G01*
X99270*
Y327579*
X106876*
Y323421*
X99270*
Y323950*
X97392*
X96846Y323404*
G75*
G02X95749Y322950I-1096J1096*
G01*
X91301*
Y320701*
X84199*
Y323710*
X77947*
Y323280*
X76631*
Y305331*
G75*
G02X76177Y304235I-1550*
G01*
X58046Y286104*
G75*
G02X56949Y285650I-1096J1096*
G01*
X56220*
G75*
G02X48950Y287200I-3470J1550*
G01*
G75*
G02X56220Y288750I3800J0*
G01*
X56308*
X58634Y291076*
G75*
G02X58349Y291050I-285J1525*
G01*
X46220*
G75*
G02X38950Y292600I-3470J1550*
G01*
G75*
G02X46220Y294150I3800J0*
G01*
X51665*
G75*
G02X52750Y302000I1085J3850*
G01*
G75*
G02X53835Y294150J-4000*
G01*
X57708*
X69200Y305642*
Y327020*
X63553*
Y330980*
X69200*
Y332000*
G75*
G02X69654Y333096I1550*
G01*
X70394Y333836*
G75*
G02X71491Y334290I1096J-1096*
G01*
X72215*
Y334720*
X77947*
Y334290*
X84199*
Y337299*
X91301*
Y335050*
X95249*
G75*
G02X96346Y334596I1J-1550*
G01*
X98892Y332050*
X99270*
Y332579*
Y322579D02*
X106876D01*
Y318421*
X99270*
Y322579*
X238815Y122067D02*
G75*
G02X239050Y121500I-565J-567D01*
G01*
Y118500*
G75*
G02X238815Y117933I-800*
G01*
X237817Y116935*
G75*
G02X237250Y116700I-567J565*
G01*
X78750*
G75*
G02X78183Y116935J800*
G01*
X76185Y118933*
G75*
G02X75950Y119500I565J567*
G01*
Y178000*
G75*
G02X76185Y178567I800*
G01*
X84183Y186565*
G75*
G02X84750Y186800I567J-565*
G01*
X89250*
G75*
G02X89817Y186565J-800*
G01*
X90815Y185567*
G75*
G02X91050Y185000I-565J-567*
G01*
Y165831*
X92581Y164300*
X115250*
G75*
G02X115817Y164065J-800*
G01*
X122081Y157800*
X220250*
G75*
G02X220817Y157565J-800*
G01*
X221815Y156567*
G75*
G02X222050Y156000I-565J-567*
G01*
Y152500*
G75*
G02X221815Y151933I-800*
G01*
X220817Y150935*
G75*
G02X220250Y150700I-567J565*
G01*
X122250*
G75*
G02X121683Y150935J800*
G01*
X120839Y151780*
G75*
G02X119530Y153089I911J2220*
G01*
X113919Y158700*
X83081*
X82050Y157669*
Y123831*
X82581Y123300*
X237250*
G75*
G02X237817Y123065J-800*
G01*
X238815Y122067*
X130226Y96070D02*
G75*
G02X136776Y89520J-6550D01*
G01*
G75*
G02X130226Y82970I-6550*
G01*
G75*
G02X123676Y89520J6550*
G01*
G75*
G02X130226Y96070I6550*
G01*
X287768Y67174D02*
G75*
G02X289151Y65000I-1018J-2174D01*
G01*
G75*
G02X284349I-2401*
G01*
G75*
G02X284565Y65994I2401J0*
G01*
X281108Y69450*
X239431*
X240315Y68567*
G75*
G02X240550Y68000I-565J-567*
G01*
Y58000*
G75*
G02X240315Y57433I-800*
G01*
X239317Y56435*
G75*
G02X238750Y56200I-567J565*
G01*
X200583*
G75*
G02X200135Y56333I-6J800*
G01*
G75*
G03X198365I-885J-1334*
G01*
G75*
G02X197923Y56200I-443J667*
G01*
X73581*
X73050Y55669*
Y49000*
G75*
G02X72815Y48433I-800*
G01*
X71817Y47435*
G75*
G02X71250Y47200I-567J565*
G01*
X59750*
G75*
G02X55996Y47787I0J12300*
G01*
G75*
G02X49545Y32819I-6451J-6094*
G01*
G75*
G02X40671Y41693J8874*
G01*
G75*
G02X51542Y50339I8874J0*
G01*
G75*
G02X47450Y59499I8208J9161*
G01*
Y61000*
G75*
G02X48123Y64928I11802J0*
G01*
G75*
G02X48124Y64930I814J-231*
G01*
G75*
G02X59250Y72800I11126J-3931*
G01*
X69250*
G75*
G02X69817Y72565J-800*
G01*
X72581Y69800*
X105876*
G75*
G02X106501Y69500J-800*
G01*
G75*
G03X108998Y69499I1249J1001*
G01*
G75*
G02X109022Y69527I630J-508*
G01*
G75*
G02X109629Y69800I602J-527*
G01*
X149355*
G75*
G02X149240Y69904I981J1200*
G01*
X145515Y73629*
G75*
G02X138902Y75631I-2494J3686*
G01*
X135045*
Y74925*
X130455*
Y79752*
X135045*
Y79046*
X138922*
G75*
G02X147329Y76199I4100J-1731*
G01*
X150978Y72550*
X281749*
G75*
G02X282846Y72096I1J-1550*
G01*
X287768Y67174*
X287950Y20000D02*
G75*
G02X295550I3800D01*
G01*
G75*
G02X287950I-3800*
G01*
Y30000D02*
G75*
G02X295550I3800D01*
G01*
G75*
G02X287950I-3800*
G01*
X277750Y20000D02*
G75*
G02X285750I4000D01*
G01*
G75*
G02X277750I-4000*
G01*
Y30000D02*
G75*
G02X285750I4000D01*
G01*
G75*
G02X277750I-4000*
G01*
X223065Y55556D02*
G75*
G02X228865Y49756J-5800D01*
G01*
G75*
G02X223065Y43956I-5800*
G01*
G75*
G02X217265Y49756J5800*
G01*
G75*
G02X223065Y55556I5800*
G01*
X218030Y22953D02*
G75*
G02X229470I5720D01*
G01*
Y17047*
G75*
G02X218030I-5720*
G01*
Y22953*
X238030D02*
G75*
G02X249470I5720D01*
G01*
Y17047*
G75*
G02X238030I-5720*
G01*
Y22953*
X198030D02*
G75*
G02X209470I5720D01*
G01*
Y17047*
G75*
G02X198030I-5720*
G01*
Y22953*
X96368Y55556D02*
G75*
G02X102168Y49756J-5800D01*
G01*
G75*
G02X96368Y43956I-5800*
G01*
G75*
G02X90568Y49756J5800*
G01*
G75*
G02X96368Y55556I5800*
G01*
X108030Y22953D02*
G75*
G02X119470I5720D01*
G01*
Y17047*
G75*
G02X108030I-5720*
G01*
Y22953*
X133769Y55556D02*
G75*
G02X139569Y49756J-5800D01*
G01*
G75*
G02X133769Y43956I-5800*
G01*
G75*
G02X127969Y49756J5800*
G01*
G75*
G02X133769Y55556I5800*
G01*
X128030Y22961D02*
G75*
G02X139470I5720D01*
G01*
Y17055*
G75*
G02X128030I-5720*
G01*
Y22961*
X148030Y22953D02*
G75*
G02X159470I5720D01*
G01*
Y17047*
G75*
G02X148030I-5720*
G01*
Y22953*
X185663Y55556D02*
G75*
G02X191463Y49756J-5800D01*
G01*
G75*
G02X185663Y43956I-5800*
G01*
G75*
G02X179863Y49756J5800*
G01*
G75*
G02X185663Y55556I5800*
G01*
X219522Y96070D02*
G75*
G02X226072Y89520J-6550D01*
G01*
G75*
G02X219522Y82970I-6550*
G01*
G75*
G02X212972Y89520J6550*
G01*
G75*
G02X219522Y96070I6550*
G01*
X291550Y76392D02*
G75*
G02X294150Y74000I200J-2392D01*
G01*
G75*
G02X289350I-2400*
G01*
G75*
G02X289358Y74200I2400J0*
G01*
X287793Y75765*
X236488*
G75*
G02X228198Y75631I-4171J1550*
G01*
X225045*
Y74925*
X220455*
Y79752*
X225045*
Y79046*
X228217*
G75*
G02X236488Y78865I4100J-1731*
G01*
X288434*
G75*
G02X289531Y78411I1J-1550*
G01*
X291550Y76392*
X48950Y276400D02*
G75*
G02X56550I3800D01*
G01*
G75*
G02X48950I-3800*
G01*
Y308800D02*
G75*
G02X56550I3800D01*
G01*
G75*
G02X48950I-3800*
G01*
Y319600D02*
G75*
G02X56550I3800D01*
G01*
G75*
G02X48950I-3800*
G01*
X38950Y281800D02*
G75*
G02X46550I3800D01*
G01*
G75*
G02X38950I-3800*
G01*
Y303400D02*
G75*
G02X46550I3800D01*
G01*
G75*
G02X38950I-3800*
G01*
Y314200D02*
G75*
G02X46550I3800D01*
G01*
G75*
G02X38950I-3800*
G01*
X107305Y347768D02*
X113195D01*
Y342232*
X112300*
Y338000*
G75*
G02X111846Y336904I-1550*
G01*
X109346Y334404*
G75*
G02X108249Y333950I-1096J1096*
G01*
X106876*
Y333421*
X99270*
Y337579*
X106876*
Y337050*
X107608*
X109200Y338642*
Y342232*
X107305*
Y347768*
X128250Y328300D02*
G75*
G02X129050Y327500J-800D01*
G01*
Y324000*
G75*
G02X128250Y323200I-800*
G01*
X120581*
X120050Y322669*
Y316831*
X121315Y315567*
G75*
G02X121550Y315000I-565J-567*
G01*
Y292500*
G75*
G02X121315Y291933I-800*
G01*
X120317Y290935*
G75*
G02X119750Y290700I-567J565*
G01*
X114750*
G75*
G02X114183Y290935J800*
G01*
X113185Y291933*
G75*
G02X112950Y292500I565J567*
G01*
Y309232*
X107305*
Y314768*
X112950*
Y324500*
G75*
G02X113185Y325067I800*
G01*
X116183Y328065*
G75*
G02X116750Y328300I567J-565*
G01*
X128250*
X155918Y322050D02*
G75*
G02X160150Y320500I1832J-1550D01*
G01*
G75*
G02X155918Y318950I-2400*
G01*
X128230*
Y318421*
X120624*
Y322579*
X128230*
Y322050*
X155918*
X219815Y257567D02*
G75*
G02X220050Y257000I-565J-567D01*
G01*
Y254000*
G75*
G02X219815Y253433I-800*
G01*
X219317Y252935*
G75*
G02X218750Y252700I-567J565*
G01*
X154081*
X151050Y249669*
Y180000*
G75*
G02X150815Y179433I-800*
G01*
X149817Y178435*
G75*
G02X149250Y178200I-567J565*
G01*
X134750*
G75*
G02X134183Y178435J800*
G01*
X133185Y179433*
G75*
G02X132950Y180000I565J567*
G01*
Y184500*
G75*
G02X133185Y185067I800*
G01*
X134683Y186565*
G75*
G02X135250Y186800I567J-565*
G01*
X145419*
X145950Y187331*
Y250000*
G75*
G02X146185Y250567I800*
G01*
X153683Y258065*
G75*
G02X154250Y258300I567J-565*
G01*
X218750*
G75*
G02X219317Y258065J-800*
G01*
X219815Y257567*
X291258Y117185D02*
G75*
G02X294650Y115000I992J-2185D01*
G01*
G75*
G02X290418Y113450I-2400*
G01*
X273251*
G75*
G02X272154Y113904I-1J1550*
G01*
X269154Y116904*
G75*
G02X268700Y118000I1096J1096*
G01*
Y192358*
X267108Y193950*
X174082*
G75*
G02X169850Y195500I-1832J1550*
G01*
G75*
G02X174082Y197050I2400*
G01*
X267749*
G75*
G02X268846Y196596I1J-1550*
G01*
X271346Y194096*
G75*
G02X271800Y193000I-1096J-1096*
G01*
Y118642*
X273892Y116550*
X287851*
G75*
G02X287418Y116950I1399J1949*
G01*
X284751*
G75*
G02X283654Y117404I-1J1550*
G01*
X275654Y125404*
G75*
G02X275200Y126500I1096J1096*
G01*
Y199358*
X273608Y200950*
X174082*
G75*
G02X169850Y202500I-1832J1550*
G01*
G75*
G02X174082Y204050I2400*
G01*
X274249*
G75*
G02X275346Y203596I1J-1550*
G01*
X277846Y201096*
G75*
G02X278300Y200000I-1096J-1096*
G01*
Y127142*
X285392Y120050*
X287418*
G75*
G02X291258Y117185I1832J-1550*
G01*
X114305Y347768D02*
X120195D01*
Y342232*
X114305*
Y347768*
X36750Y68874D02*
G75*
G02X45624Y60000J-8874D01*
G01*
G75*
G02X36750Y51126I-8874*
G01*
G75*
G02X27876Y60000J8874*
G01*
G75*
G02X36750Y68874I8874*
G01*
X8448Y20000D02*
G36*
X8350D01*
Y19579*
G75*
G02X8448Y20000I12331J-2648*
G01*
G37*
X384171Y4600D02*
G36*
G75*
G02X374210Y16929I2649J12329D01*
G01*
Y16929*
G75*
G02X374589Y20000I12611J0*
G01*
X325550*
G75*
G02X317950I-3800*
G01*
X315550*
G75*
G02X307950I-3800*
G01*
X305550*
G75*
G02X297950I-3800*
G01*
X295550*
G75*
G02X287950I-3800*
G01*
X285750*
G75*
G02X277750I-4000*
G01*
X249470*
Y17047*
G75*
G02X238030I-5720*
G01*
Y20000*
X229470*
Y17047*
G75*
G02X218030I-5720*
G01*
Y20000*
X209470*
Y17047*
G75*
G02X198030I-5720*
G01*
Y20000*
X159470*
Y17047*
G75*
G02X148030I-5720*
G01*
Y20000*
X139470*
Y17055*
G75*
G02X128030I-5720*
G01*
Y20000*
X119470*
Y17047*
G75*
G02X108030I-5720*
G01*
Y20000*
X32911*
G75*
G02X33290Y16929I-12232J-3070*
G01*
G75*
G02X23329Y4600I-12612J0*
G01*
X384171*
G37*
X399150Y20000D02*
G36*
X399052D01*
G75*
G02X399150Y19579I-12233J-3069*
G01*
Y20000*
G37*
Y30000D02*
G36*
X325550D01*
G75*
G02X317950I-3800*
G01*
X315550*
G75*
G02X307950I-3800*
G01*
X305550*
G75*
G02X297950I-3800*
G01*
X295550*
G75*
G02X287950I-3800*
G01*
X285750*
G75*
G02X277750I-4000*
G01*
X8350*
Y20000*
X8448*
G75*
G02X32911I12231J-3071*
G01*
X108030*
Y22953*
G75*
G02X119470I5720*
G01*
Y20000*
X128030*
Y22961*
G75*
G02X139470I5720*
G01*
Y20000*
X148030*
Y22953*
G75*
G02X159470I5720*
G01*
Y20000*
X198030*
Y22953*
G75*
G02X209470I5720*
G01*
Y20000*
X218030*
Y22953*
G75*
G02X229470I5720*
G01*
Y20000*
X238030*
Y22953*
G75*
G02X249470I5720*
G01*
Y20000*
X277750*
G75*
G02X285750I4000*
G01*
X287950*
G75*
G02X295550I3800*
G01*
X297950*
G75*
G02X305550I3800*
G01*
X307950*
G75*
G02X315550I3800*
G01*
X317950*
G75*
G02X325550I3800*
G01*
X374589*
G75*
G02X399052I12231J-3071*
G01*
X399150*
Y30000*
G37*
Y49756D02*
G36*
X228865D01*
G75*
G02X223065Y43956I-5800*
G01*
G75*
G02X217265Y49756J5800*
G01*
X191463*
G75*
G02X185663Y43956I-5800*
G01*
G75*
G02X179863Y49756J5800*
G01*
X139569*
G75*
G02X133769Y43956I-5800*
G01*
G75*
G02X127969Y49756J5800*
G01*
X102168*
G75*
G02X96368Y43956I-5800*
G01*
G75*
G02X90568Y49756J5800*
G01*
X73050*
Y49000*
Y49000*
G75*
G02X72815Y48433I-800*
G01*
X71817Y47435*
G75*
G02X71250Y47200I-566J565*
G01*
X59750*
G75*
G02X55996Y47787I0J12300*
G01*
G75*
G02X58420Y41693I-6450J-6094*
G01*
G75*
G02X49545Y32819I-8874*
G01*
G75*
G02X40671Y41693J8874*
G01*
G75*
G02X45839Y49756I8874J0*
G01*
X8350*
Y30000*
X277750*
G75*
G02X285750I4000*
G01*
X287950*
G75*
G02X295550I3800*
G01*
X297950*
G75*
G02X305550I3800*
G01*
X307950*
G75*
G02X315550I3800*
G01*
X317950*
G75*
G02X325550I3800*
G01*
X399150*
Y49756*
G37*
X47450Y60000D02*
G36*
X45624D01*
G75*
G02X36750Y51126I-8874*
G01*
G75*
G02X27876Y60000J8874*
G01*
X8350*
Y49756*
X45839*
G75*
G02X51542Y50339I3706J-8063*
G01*
G75*
G02X47450Y59499I8207J9161*
G01*
Y60000*
G37*
X399150D02*
G36*
X387750D01*
G75*
G02X379750I-4000*
G01*
X377750*
G75*
G02X369750I-4000*
G01*
X240550*
Y58000*
Y58000*
G75*
G02X240315Y57433I-800*
G01*
X239317Y56435*
G75*
G02X238750Y56200I-566J565*
G01*
X200583*
G75*
G02X200135Y56333I-7J796*
G01*
G75*
G03X198365I-885J-1335*
G01*
G75*
G02X197923Y56200I-444J670*
G01*
X73581*
X73050Y55669*
Y49756*
X90568*
G75*
G02X96368Y55556I5800*
G01*
G75*
G02X102168Y49756J-5800*
G01*
X127969*
G75*
G02X133769Y55556I5800*
G01*
G75*
G02X139569Y49756J-5800*
G01*
X179863*
G75*
G02X185663Y55556I5800*
G01*
G75*
G02X191463Y49756J-5800*
G01*
X217265*
G75*
G02X223065Y55556I5800*
G01*
G75*
G02X228865Y49756J-5800*
G01*
X399150*
Y60000*
G37*
X47450D02*
G36*
Y61000D01*
G75*
G02Y61001I13534J1*
G01*
G75*
G02X48123Y64928I11793*
G01*
G75*
G02X48124Y64930I19J-4*
G01*
G75*
G02X51618Y70000I11126J-3930*
G01*
X8350*
Y60000*
X27876*
G75*
G02X36750Y68874I8874*
G01*
G75*
G02X45624Y60000J-8874*
G01*
X47450*
G37*
X149144Y70000D02*
G36*
X72381D01*
X72581Y69800*
X105876*
G75*
G02X106501Y69500I-1J-802*
G01*
G75*
G03X108998Y69499I1249J1001*
G01*
G75*
G02X109022Y69527I1019J-837*
G01*
G75*
G02X109629Y69800I602J-528*
G01*
X149355*
G75*
G02X149240Y69904I969J1187*
G01*
X149144Y70000*
G37*
X399150D02*
G36*
X387550D01*
G75*
G02X379950I-3800*
G01*
X377550*
G75*
G02X369950I-3800*
G01*
X284942*
X287768Y67174*
G75*
G02X289151Y65000I-1018J-2175*
G01*
G75*
G02X284349I-2401*
G01*
G75*
G02Y65001I2148J0*
G01*
G75*
G02X284565Y65994I2396*
G01*
X281108Y69450*
X239431*
X240315Y68567*
G75*
G02X240550Y68000I-565J-566*
G01*
Y68000*
Y60000*
X369750*
G75*
G02X377750I4000*
G01*
X379750*
G75*
G02X387750I4000*
G01*
X399150*
Y70000*
G37*
X149144D02*
G36*
X145515Y73629D01*
G75*
G02X138902Y75631I-2494J3685*
G01*
X135045*
Y74925*
X130455*
Y79752*
X135045*
Y79046*
X138922*
G75*
G02X139472Y80000I4100J-1731*
G01*
X8350*
Y70000*
X51618*
G75*
G02X59250Y72800I7631J-9000*
G01*
X69250*
G75*
G02X69817Y72565I0J-800*
G01*
X72381Y70000*
X149144*
G37*
X399150Y80000D02*
G36*
X387550D01*
G75*
G02X379950I-3800*
G01*
X377550*
G75*
G02X369950I-3800*
G01*
X235865*
G75*
G02X236488Y78865I-3548J-2686*
G01*
X288434*
G75*
G02X289531Y78411I1J-1550*
G01*
X291550Y76392*
G75*
G02X294150Y74000I199J-2392*
G01*
G75*
G02X289350I-2400*
G01*
G75*
G02Y74005I2275J2*
G01*
G75*
G02X289358Y74200I2299*
G01*
X287793Y75765*
X236488*
G75*
G02X228198Y75631I-4171J1550*
G01*
X225045*
Y74925*
X220455*
Y79752*
X225045*
Y79046*
X228217*
G75*
G02X228768Y80000I4100J-1731*
G01*
X146570*
G75*
G02X147471Y77315I-3549J-2685*
G01*
G75*
G02X147329Y76199I-4450*
G01*
X150978Y72550*
X281749*
G75*
G02X282846Y72096I1J-1550*
G01*
X284942Y70000*
X369950*
G75*
G02X377550I3800*
G01*
X379950*
G75*
G02X387550I3800*
G01*
X399150*
Y80000*
G37*
Y90000D02*
G36*
X387550D01*
G75*
G02X379950I-3800*
G01*
X377550*
G75*
G02X369950I-3800*
G01*
X226054*
G75*
G02X226072Y89520I-6533J-481*
G01*
G75*
G02X219522Y82970I-6550*
G01*
G75*
G02X212972Y89520J6550*
G01*
G75*
G02X212989Y90000I6550J-1*
G01*
X136758*
G75*
G02X136776Y89520I-6533J-481*
G01*
G75*
G02X130226Y82970I-6550*
G01*
G75*
G02X123676Y89520J6550*
G01*
G75*
G02X123694Y90000I6550J-1*
G01*
X8350*
Y80000*
X139472*
G75*
G02X146570I3549J-2685*
G01*
X228768*
G75*
G02X235865I3549J-2685*
G01*
X369950*
G75*
G02X377550I3800*
G01*
X379950*
G75*
G02X387550I3800*
G01*
X399150*
Y90000*
G37*
Y100000D02*
G36*
X387550D01*
G75*
G02X379950I-3800*
G01*
X377550*
G75*
G02X369950I-3800*
G01*
X8350*
Y90000*
X123694*
G75*
G02X130226Y96070I6533J-480*
G01*
G75*
G02X136758Y90000I0J-6550*
G01*
X212989*
G75*
G02X219522Y96070I6533J-480*
G01*
G75*
G02X226054Y90000I0J-6550*
G01*
X369950*
G75*
G02X377550I3800*
G01*
X379950*
G75*
G02X387550I3800*
G01*
X399150*
Y100000*
G37*
Y120000D02*
G36*
X387750D01*
G75*
G02X379750I-4000*
G01*
X377750*
G75*
G02X369750I-4000*
G01*
X291123*
G75*
G02X291650Y118500I-1873J-1500*
G01*
G75*
G02X291258Y117185I-2400*
G01*
G75*
G02X294650Y115000I992J-2185*
G01*
Y115000*
G75*
G02X290418Y113450I-2400*
G01*
X273251*
G75*
G02X272154Y113904I-1J1550*
G01*
X269154Y116904*
G75*
G02X268700Y118000I1097J1096*
G01*
Y120000*
X239050*
Y118500*
Y118500*
G75*
G02X238815Y117933I-800*
G01*
X237817Y116935*
G75*
G02X237250Y116700I-566J565*
G01*
X78750*
G75*
G02X78183Y116935I0J800*
G01*
X76185Y118933*
G75*
G02X75950Y119500I565J566*
G01*
Y119500*
Y120000*
X8350*
Y100000*
X369950*
G75*
G02X377550I3800*
G01*
X379950*
G75*
G02X387550I3800*
G01*
X399150*
Y120000*
G37*
X281058D02*
G36*
X271800D01*
Y118642*
X273892Y116550*
X287851*
G75*
G02X287418Y116950I1405J1955*
G01*
X284751*
G75*
G02X283654Y117404I-1J1550*
G01*
X281058Y120000*
G37*
X75950D02*
G36*
Y130000D01*
X8350*
Y120000*
X75950*
G37*
X268700Y130000D02*
G36*
X82050D01*
Y123831*
X82581Y123300*
X237250*
G75*
G02X237817Y123065I0J-800*
G01*
X238815Y122067*
G75*
G02X239050Y121500I-565J-566*
G01*
Y121500*
Y120000*
X268700*
Y130000*
G37*
X281058Y120000D02*
G36*
X275654Y125404D01*
G75*
G02X275200Y126500I1097J1096*
G01*
Y130000*
X271800*
Y120000*
X281058*
G37*
X399150Y130000D02*
G36*
X387550D01*
G75*
G02X379950I-3800*
G01*
X377550*
G75*
G02X369950I-3800*
G01*
X278300*
Y127142*
X285392Y120050*
X287418*
G75*
G02X291123Y120000I1832J-1550*
G01*
X369750*
G75*
G02X377750I4000*
G01*
X379750*
G75*
G02X387750I4000*
G01*
X399150*
Y130000*
G37*
X75950Y140000D02*
G36*
X67550D01*
Y137000*
Y137000*
G75*
G02X67315Y136433I-800*
G01*
X66317Y135435*
G75*
G02X65750Y135200I-566J565*
G01*
X55750*
G75*
G02X55183Y135435I0J800*
G01*
X53185Y137433*
G75*
G02X52950Y138000I565J566*
G01*
Y138000*
Y140000*
X8350*
Y130000*
X75950*
Y140000*
G37*
X268700D02*
G36*
X82050D01*
Y130000*
X268700*
Y140000*
G37*
X275200D02*
G36*
X271800D01*
Y130000*
X275200*
Y140000*
G37*
X399150D02*
G36*
X387550D01*
G75*
G02X379950I-3800*
G01*
X377550*
G75*
G02X369950I-3800*
G01*
X288550*
Y133000*
Y133000*
G75*
G02X288315Y132433I-800*
G01*
X287317Y131435*
G75*
G02X286750Y131200I-566J565*
G01*
X283750*
G75*
G02X283183Y131435I0J800*
G01*
X282685Y131933*
G75*
G02X282450Y132500I565J566*
G01*
Y132500*
Y140000*
X278300*
Y130000*
X369950*
G75*
G02X377550I3800*
G01*
X379950*
G75*
G02X387550I3800*
G01*
X399150*
Y140000*
G37*
X52950D02*
G36*
Y140669D01*
X51419Y142200*
X30750*
G75*
G02X30183Y142435I0J800*
G01*
X23185Y149433*
G75*
G02X22950Y150000I565J566*
G01*
Y150000*
X8350*
Y140000*
X52950*
G37*
X75950Y150000D02*
G36*
X34881D01*
X35081Y149800*
X64750*
G75*
G02X65317Y149565I0J-800*
G01*
X67315Y147567*
G75*
G02X67550Y147000I-565J-566*
G01*
Y147000*
Y140000*
X75950*
Y150000*
G37*
X268700D02*
G36*
X82050D01*
Y140000*
X268700*
Y150000*
G37*
X275200D02*
G36*
X271800D01*
Y140000*
X275200*
Y150000*
G37*
X282450D02*
G36*
X278300D01*
Y140000*
X282450*
Y150000*
G37*
X399150D02*
G36*
X387550D01*
G75*
G02X379950I-3800*
G01*
X377550*
G75*
G02X369950I-3800*
G01*
X288550*
Y140000*
X369950*
G75*
G02X377550I3800*
G01*
X379950*
G75*
G02X387550I3800*
G01*
X399150*
Y150000*
G37*
X22950D02*
G36*
Y160000D01*
X8350*
Y150000*
X22950*
G37*
X75950Y160000D02*
G36*
X31550D01*
Y153331*
X34881Y150000*
X75950*
Y160000*
G37*
X268700D02*
G36*
X119881D01*
X122081Y157800*
X220250*
G75*
G02X220817Y157565I0J-800*
G01*
X221815Y156567*
G75*
G02X222050Y156000I-565J-566*
G01*
Y156000*
Y152500*
Y152500*
G75*
G02X221815Y151933I-800*
G01*
X220817Y150935*
G75*
G02X220250Y150700I-566J565*
G01*
X122250*
G75*
G02X121683Y150935I0J800*
G01*
X120839Y151780*
G75*
G02X119530Y153089I909J2219*
G01*
X113919Y158700*
X83081*
X82050Y157669*
Y150000*
X268700*
Y160000*
G37*
X275200D02*
G36*
X271800D01*
Y150000*
X275200*
Y160000*
G37*
X282450D02*
G36*
X278300D01*
Y150000*
X282450*
Y160000*
G37*
X399150D02*
G36*
X387550D01*
G75*
G02X379950I-3800*
G01*
X377550*
G75*
G02X369950I-3800*
G01*
X288550*
Y150000*
X369950*
G75*
G02X377550I3800*
G01*
X379950*
G75*
G02X387550I3800*
G01*
X399150*
Y160000*
G37*
X22950Y180000D02*
G36*
X8350D01*
Y160000*
X22950*
Y180000*
G37*
X75950Y160000D02*
G36*
Y178000D01*
Y178000*
G75*
G02X76185Y178567I800*
G01*
X77619Y180000*
X31550*
Y160000*
X75950*
G37*
X268700Y180000D02*
G36*
X151050D01*
Y180000*
G75*
G02X150815Y179433I-800*
G01*
X149817Y178435*
G75*
G02X149250Y178200I-566J565*
G01*
X134750*
G75*
G02X134183Y178435I0J800*
G01*
X133185Y179433*
G75*
G02X132950Y180000I565J566*
G01*
Y180000*
X91050*
Y165831*
X92581Y164300*
X115250*
G75*
G02X115817Y164065I0J-800*
G01*
X119881Y160000*
X268700*
Y180000*
G37*
X275200D02*
G36*
X271800D01*
Y160000*
X275200*
Y180000*
G37*
X282450D02*
G36*
X278300D01*
Y160000*
X282450*
Y180000*
G37*
X399150D02*
G36*
X387750D01*
G75*
G02X379750I-4000*
G01*
X377750*
G75*
G02X369750I-4000*
G01*
X288550*
Y160000*
X369950*
G75*
G02X377550I3800*
G01*
X379950*
G75*
G02X387550I3800*
G01*
X399150*
Y180000*
G37*
X22950Y184750D02*
G36*
X8350D01*
Y180000*
X22950*
Y184750*
G37*
X82369D02*
G36*
X31550D01*
Y180000*
X77619*
X82369Y184750*
G37*
X132990D02*
G36*
X91050D01*
Y180000*
X132950*
Y184500*
Y184500*
G75*
G02X132990Y184750I800J0*
G01*
G37*
X268700D02*
G36*
X151050D01*
Y180000*
X268700*
Y184750*
G37*
X275200D02*
G36*
X271800D01*
Y180000*
X275200*
Y184750*
G37*
X282450D02*
G36*
X278300D01*
Y180000*
X282450*
Y184750*
G37*
X399150D02*
G36*
X312585D01*
G75*
G02X310915I-835J2250*
G01*
X306692*
X304642Y182700*
G75*
G02X304650Y182505I-2291J-195*
G01*
G75*
G02Y182500I-2275J-2*
G01*
G75*
G02X299850I-2400*
G01*
G75*
G02X301415Y184750I2400J0*
G01*
X288550*
Y180000*
X369750*
G75*
G02X377750I4000*
G01*
X379750*
G75*
G02X387750I4000*
G01*
X399150*
Y184750*
G37*
X22950Y190000D02*
G36*
X8350D01*
Y184750*
X22950*
Y190000*
G37*
X145950D02*
G36*
X31550D01*
Y184750*
X82369*
X84183Y186565*
G75*
G02X84750Y186800I566J-565*
G01*
X89250*
G75*
G02X89817Y186565I0J-800*
G01*
X90815Y185567*
G75*
G02X91050Y185000I-565J-566*
G01*
Y185000*
Y184750*
X132990*
G75*
G02X133185Y185067I759J-249*
G01*
X134683Y186565*
G75*
G02X135250Y186800I566J-565*
G01*
X145419*
X145950Y187331*
Y190000*
G37*
X268700D02*
G36*
X151050D01*
Y184750*
X268700*
Y190000*
G37*
X275200D02*
G36*
X271800D01*
Y184750*
X275200*
Y190000*
G37*
X282450D02*
G36*
X278300D01*
Y184750*
X282450*
Y190000*
G37*
X310915Y184750D02*
G36*
G75*
G02X309918Y185450I835J2250D01*
G01*
X307392*
X306692Y184750*
X310915*
G37*
X399150Y190000D02*
G36*
X387550D01*
G75*
G02X379950I-3800*
G01*
X377550*
G75*
G02X369950I-3800*
G01*
X288550*
Y184750*
X301415*
G75*
G02X302450Y184892I835J-2251*
G01*
X305654Y188096*
G75*
G02X306751Y188550I1096J-1096*
G01*
X309918*
G75*
G02X314150Y187000I1832J-1550*
G01*
G75*
G02X312585Y184750I-2400J0*
G01*
X399150*
Y190000*
G37*
X22950Y200000D02*
G36*
X8350D01*
Y190000*
X22950*
Y200000*
G37*
X145950D02*
G36*
X31550D01*
Y190000*
X145950*
Y200000*
G37*
X274558D02*
G36*
X151050D01*
Y190000*
X268700*
Y192358*
X267108Y193950*
X174082*
G75*
G02X169850Y195500I-1832J1550*
G01*
G75*
G02X174082Y197050I2400*
G01*
X267749*
G75*
G02X268846Y196596I1J-1550*
G01*
X271346Y194096*
G75*
G02X271800Y193000I-1097J-1096*
G01*
Y190000*
X275200*
Y199358*
X274558Y200000*
G37*
X282450D02*
G36*
X278300D01*
Y190000*
X282450*
Y200000*
G37*
X399150D02*
G36*
X387550D01*
G75*
G02X379950I-3800*
G01*
X377550*
G75*
G02X369950I-3800*
G01*
X288550*
Y190000*
X369950*
G75*
G02X377550I3800*
G01*
X379950*
G75*
G02X387550I3800*
G01*
X399150*
Y200000*
G37*
X22950Y210000D02*
G36*
X8350D01*
Y200000*
X22950*
Y210000*
G37*
X145950D02*
G36*
X31550D01*
Y200000*
X145950*
Y210000*
G37*
X280619D02*
G36*
X151050D01*
Y200000*
X274558*
X273608Y200950*
X174082*
G75*
G02X169850Y202500I-1832J1550*
G01*
G75*
G02X174082Y204050I2400*
G01*
X274249*
G75*
G02X275346Y203596I1J-1550*
G01*
X277846Y201096*
G75*
G02X278300Y200000I-1097J-1096*
G01*
X282450*
Y208169*
X280619Y210000*
G37*
X399150D02*
G36*
X387550D01*
G75*
G02X379950I-3800*
G01*
X377550*
G75*
G02X369950I-3800*
G01*
X288550*
Y200000*
X369950*
G75*
G02X377550I3800*
G01*
X379950*
G75*
G02X387550I3800*
G01*
X399150*
Y210000*
G37*
X22950Y217500D02*
G36*
X8350D01*
Y210000*
X22950*
Y217500*
G37*
X145950D02*
G36*
X31550D01*
Y210000*
X145950*
Y217500*
G37*
X280619Y210000D02*
G36*
X275185Y215433D01*
G75*
G02X274950Y216000I565J566*
G01*
Y216000*
Y217500*
X260150*
G75*
G02X255918Y215950I-2400*
G01*
X232582*
G75*
G02X228350Y217500I-1832J1550*
G01*
X193942*
X193846Y217404*
G75*
G02X192749Y216950I-1096J1096*
G01*
X188082*
G75*
G02X184069Y217500I-1832J1550*
G01*
X151050*
Y210000*
X280619*
G37*
X399150Y217500D02*
G36*
X386612D01*
G75*
G02X380888I-2862J2500*
G01*
X376612*
G75*
G02X370888I-2862J2500*
G01*
X281881*
X288315Y211067*
G75*
G02X288550Y210500I-565J-566*
G01*
Y210500*
Y210000*
X369950*
G75*
G02X377550I3800*
G01*
X379950*
G75*
G02X387550I3800*
G01*
X399150*
Y217500*
G37*
X22950Y220000D02*
G36*
X8350D01*
Y217500*
X22950*
Y220000*
G37*
X145950D02*
G36*
X31550D01*
Y217500*
X145950*
Y220000*
G37*
X184377D02*
G36*
X151050D01*
Y217500*
X184069*
G75*
G02X183850Y218500I2181J1000*
G01*
G75*
G02X184377Y220000I2400J0*
G01*
G37*
X274950Y217500D02*
G36*
Y220000D01*
X196442*
X193942Y217500*
X228350*
G75*
G02X232582Y219050I2400*
G01*
X255918*
G75*
G02X260150Y217500I1832J-1550*
G01*
X274950*
G37*
X369950Y220000D02*
G36*
X280550D01*
Y218831*
X281881Y217500*
X370888*
G75*
G02X369950Y220000I2862J2500*
G01*
G37*
X379950D02*
G36*
X377550D01*
G75*
G02X376612Y217500I-3800*
G01*
X380888*
G75*
G02X379950Y220000I2862J2500*
G01*
G37*
X399150D02*
G36*
X387550D01*
G75*
G02X386612Y217500I-3800*
G01*
X399150*
Y220000*
G37*
X22950Y250000D02*
G36*
X8350D01*
Y220000*
X22950*
Y250000*
G37*
X145950D02*
G36*
X57224D01*
G75*
G02X57300Y248800I-9475J-1199*
G01*
G75*
G02X47750Y239250I-9550*
G01*
G75*
G02X38200Y248800J9550*
G01*
G75*
G02X38276Y250000I9551J1*
G01*
X31550*
Y220000*
X145950*
Y250000*
G37*
X222058D02*
G36*
X151381D01*
X151050Y249669*
Y220000*
X184377*
G75*
G02X188082Y220050I1873J-1500*
G01*
X192108*
X222058Y250000*
G37*
X274950D02*
G36*
X225300D01*
Y249500*
G75*
G02X224846Y248404I-1551J0*
G01*
X196442Y220000*
X274950*
Y250000*
G37*
X399150D02*
G36*
X387750D01*
G75*
G02X379750I-4000*
G01*
X377550*
G75*
G02X369950I-3800*
G01*
X280550*
Y220000*
X369950*
G75*
G02X377550I3800*
G01*
X379950*
G75*
G02X387550I3800*
G01*
X399150*
Y250000*
G37*
X22950Y260000D02*
G36*
X8350D01*
Y250000*
X22950*
Y260000*
G37*
X222200D02*
G36*
X31550D01*
Y250000*
X38276*
G75*
G02X47750Y258350I9475J-1200*
G01*
G75*
G02X57224Y250000I0J-9550*
G01*
X145950*
Y250000*
G75*
G02X146185Y250567I800*
G01*
X153683Y258065*
G75*
G02X154250Y258300I566J-565*
G01*
X218750*
G75*
G02X219317Y258065I0J-800*
G01*
X219815Y257567*
G75*
G02X220050Y257000I-565J-566*
G01*
Y257000*
Y254000*
Y254000*
G75*
G02X219815Y253433I-800*
G01*
X219317Y252935*
G75*
G02X218750Y252700I-566J565*
G01*
X154081*
X151381Y250000*
X222058*
X222200Y250142*
Y260000*
G37*
X274950D02*
G36*
X225300D01*
Y250000*
X274950*
Y260000*
G37*
X399150D02*
G36*
X387750D01*
G75*
G02X379750I-4000*
G01*
X377550*
G75*
G02X369950I-3800*
G01*
X280550*
Y250000*
X369950*
G75*
G02X377550I3800*
G01*
X379750*
G75*
G02X387750I4000*
G01*
X399150*
Y260000*
G37*
X22950Y270000D02*
G36*
X8350D01*
Y260000*
X22950*
Y270000*
G37*
X222200D02*
G36*
X31550D01*
Y260000*
X222200*
Y270000*
G37*
X274950D02*
G36*
X225300D01*
Y260000*
X274950*
Y270000*
G37*
X399150D02*
G36*
X387750D01*
G75*
G02X379750I-4000*
G01*
X377550*
G75*
G02X370035Y269200I-3800*
G01*
X369789*
X368669Y268081*
G75*
G02X367748Y267700I-919J919*
G01*
X340767*
G75*
G02X336350Y269000I-2017J1300*
G01*
G75*
G02X336568Y270000I2400J0*
G01*
X302981*
G75*
G02X296519I-3231J2000*
G01*
X292981*
G75*
G02X286519I-3231J2000*
G01*
X280550*
Y260000*
X369950*
G75*
G02X377550I3800*
G01*
X379750*
G75*
G02X387750I4000*
G01*
X399150*
Y270000*
G37*
X22950Y280000D02*
G36*
X8350D01*
Y270000*
X22950*
Y280000*
G37*
X222200D02*
G36*
X53967D01*
G75*
G02X56550Y276400I-1217J-3600*
G01*
G75*
G02X48950I-3800*
G01*
G75*
G02X51533Y280000I3800*
G01*
X46096*
G75*
G02X39404I-3346J1800*
G01*
X31550*
Y270000*
X222200*
Y280000*
G37*
X274950D02*
G36*
X225300D01*
Y270000*
X274950*
Y280000*
G37*
X310558D02*
G36*
X280550D01*
Y270000*
X286519*
G75*
G02X285950Y272000I3231J2000*
G01*
G75*
G02X293550I3800*
G01*
G75*
G02X292981Y270000I-3800*
G01*
X296519*
G75*
G02X295950Y272000I3231J2000*
G01*
G75*
G02X303220Y273550I3800*
G01*
X304108*
X310558Y280000*
G37*
X399150D02*
G36*
X387750D01*
G75*
G02X379750I-4000*
G01*
X377550*
G75*
G02X369950I-3800*
G01*
X315931*
G75*
G02X313550Y278608I-2182J1000*
G01*
X305846Y270904*
G75*
G02X304749Y270450I-1096J1096*
G01*
X303220*
G75*
G02X302981Y270000I-3470J1551*
G01*
X336568*
G75*
G02X340767Y270300I2182J-1000*
G01*
X367211*
X368331Y271419*
G75*
G02X369252Y271800I919J-919*
G01*
X370404*
G75*
G02X377550Y270000I3346J-1800*
G01*
X379750*
G75*
G02X387750I4000*
G01*
X399150*
Y280000*
G37*
X22950Y303400D02*
G36*
X8350D01*
Y280000*
X22950*
Y303400*
G37*
X222200D02*
G36*
X121550D01*
Y292500*
Y292500*
G75*
G02X121315Y291933I-800*
G01*
X120317Y290935*
G75*
G02X119750Y290700I-566J565*
G01*
X114750*
G75*
G02X114183Y290935I0J800*
G01*
X113185Y291933*
G75*
G02X112950Y292500I565J566*
G01*
Y292500*
Y303400*
X75342*
X58046Y286104*
G75*
G02X56949Y285650I-1096J1096*
G01*
X56220*
G75*
G02X48950Y287200I-3470J1550*
G01*
G75*
G02X56220Y288750I3800J0*
G01*
X56308*
X58634Y291076*
G75*
G02X58349Y291050I-287J1552*
G01*
X46220*
G75*
G02X38950Y292600I-3470J1550*
G01*
G75*
G02X46220Y294150I3800J0*
G01*
X51665*
G75*
G02X48750Y298000I1085J3850*
G01*
G75*
G02X52750Y302000I4000*
G01*
G75*
G02X56750Y298000J-4000*
G01*
G75*
G02X53835Y294150I-4000*
G01*
X57708*
X66958Y303400*
X46550*
G75*
G02X38950I-3800*
G01*
X31550*
Y280000*
X39404*
G75*
G02X38950Y281800I3346J1800*
G01*
G75*
G02X46550I3800*
G01*
G75*
G02X46096Y280000I-3800J0*
G01*
X51533*
G75*
G02X53967I1217J-3600*
G01*
X222200*
Y303400*
G37*
X274950D02*
G36*
X225300D01*
Y280000*
X274950*
Y303400*
G37*
X399150D02*
G36*
X282050D01*
Y296331*
X284581Y293800*
X339250*
G75*
G02X339817Y293565I0J-800*
G01*
X340815Y292567*
G75*
G02X341050Y292000I-565J-566*
G01*
Y292000*
Y287000*
Y287000*
G75*
G02X340815Y286433I-800*
G01*
X339817Y285435*
G75*
G02X339250Y285200I-566J565*
G01*
X284081*
X280550Y281669*
Y280000*
X310558*
X311358Y280800*
G75*
G02X311350Y280995I2291J195*
G01*
G75*
G02Y281000I2275J2*
G01*
G75*
G02X316150I2400*
G01*
G75*
G02X315931Y280000I-2400J1*
G01*
X369950*
G75*
G02X377550I3800*
G01*
X379750*
G75*
G02X387750I4000*
G01*
X399150*
Y303400*
G37*
X22950Y310000D02*
G36*
X8350D01*
Y303400*
X22950*
Y310000*
G37*
X69200D02*
G36*
X56356D01*
G75*
G02X56550Y308800I-3606J-1200*
G01*
G75*
G02X48950I-3800*
G01*
G75*
G02X49144Y310000I3800*
G01*
X31550*
Y303400*
X38950*
G75*
G02X46550I3800*
G01*
X66958*
X69200Y305642*
Y310000*
G37*
X107305D02*
G36*
X76631D01*
Y305331*
G75*
G02X76177Y304235I-1551J0*
G01*
X75342Y303400*
X112950*
Y309232*
X107305*
Y310000*
G37*
X222200D02*
G36*
X121550D01*
Y303400*
X222200*
Y310000*
G37*
X274950D02*
G36*
X225300D01*
Y303400*
X274950*
Y310000*
G37*
X399150D02*
G36*
X387750D01*
G75*
G02X379750I-4000*
G01*
X377550*
G75*
G02X369950I-3800*
G01*
X282050*
Y303400*
X399150*
Y310000*
G37*
X22950Y314200D02*
G36*
X8350D01*
Y310000*
X22950*
Y314200*
G37*
X69200D02*
G36*
X46550D01*
G75*
G02X38950I-3800*
G01*
X31550*
Y310000*
X49144*
G75*
G02X56356I3606J-1200*
G01*
X69200*
Y314200*
G37*
X107305D02*
G36*
X76631D01*
Y310000*
X107305*
Y314200*
G37*
X222200D02*
G36*
X121550D01*
Y310000*
X222200*
Y314200*
G37*
X274950D02*
G36*
X225300D01*
Y310000*
X274950*
Y314200*
G37*
X399150D02*
G36*
X282050D01*
Y310000*
X369950*
G75*
G02X377550I3800*
G01*
X379750*
G75*
G02X387750I4000*
G01*
X399150*
Y314200*
G37*
X22950Y320000D02*
G36*
X8350D01*
Y314200*
X22950*
Y320000*
G37*
X69200D02*
G36*
X56529D01*
G75*
G02X56550Y319600I-3779J-402*
G01*
G75*
G02X48950I-3800*
G01*
G75*
G02X48971Y320000I3800J-2*
G01*
X31550*
Y314200*
X38950*
G75*
G02X46550I3800*
G01*
X69200*
Y320000*
G37*
X107305Y314200D02*
G36*
Y314768D01*
X112950*
Y320000*
X106876*
Y318421*
X99270*
Y320000*
X76631*
Y314200*
X107305*
G37*
X222200Y320000D02*
G36*
X160097D01*
G75*
G02X155918Y318950I-2347J500*
G01*
X128230*
Y318421*
X120624*
Y320000*
X120050*
Y316831*
X121315Y315567*
G75*
G02X121550Y315000I-565J-566*
G01*
Y315000*
Y314200*
X222200*
Y320000*
G37*
X274950D02*
G36*
X225300D01*
Y314200*
X274950*
Y320000*
G37*
X399150D02*
G36*
X387750D01*
G75*
G02X379750I-4000*
G01*
X377550*
G75*
G02X369950I-3800*
G01*
X282050*
Y314200*
X399150*
Y320000*
G37*
X22950Y330000D02*
G36*
X8350D01*
Y320000*
X22950*
Y330000*
G37*
X69200Y320000D02*
G36*
Y327020D01*
X63553*
Y330000*
X31550*
Y320000*
X48971*
G75*
G02X56529I3779J-400*
G01*
X69200*
G37*
X222200D02*
G36*
Y328858D01*
X221058Y330000*
X128230*
Y328421*
X120624*
Y330000*
X106876*
Y328421*
X99270*
Y328950*
X98251*
G75*
G02X97154Y329404I-1J1550*
G01*
X96558Y330000*
X91301*
Y329701*
X84199*
Y330000*
X72300*
Y327240*
X77947*
Y326810*
X84199*
Y328299*
X91301*
Y326050*
X95108*
X95654Y326596*
G75*
G02X96751Y327050I1096J-1096*
G01*
X99270*
Y327579*
X106876*
Y323421*
X99270*
Y323950*
X97392*
X96846Y323404*
G75*
G02X95749Y322950I-1096J1096*
G01*
X91301*
Y320701*
X84199*
Y323710*
X77947*
Y323280*
X76631*
Y320000*
X99270*
Y322579*
X106876*
Y320000*
X112950*
Y324500*
Y324500*
G75*
G02X113185Y325067I800*
G01*
X116183Y328065*
G75*
G02X116750Y328300I566J-565*
G01*
X128250*
G75*
G02X129050Y327500J-800*
G01*
Y327500*
Y324000*
Y324000*
G75*
G02X128250Y323200I-800*
G01*
X120581*
X120050Y322669*
Y320000*
X120624*
Y322579*
X128230*
Y322050*
X155918*
G75*
G02X160150Y320500I1832J-1550*
G01*
G75*
G02X160097Y320000I-2400J0*
G01*
X222200*
G37*
X274950Y330000D02*
G36*
X225217D01*
G75*
G02X225300Y329500I-1468J-501*
G01*
Y320000*
X274950*
Y330000*
G37*
X399150D02*
G36*
X387750D01*
G75*
G02X379750I-4000*
G01*
X377550*
G75*
G02X370179Y328700I-3800J0*
G01*
X369289*
X368669Y328081*
G75*
G02X367748Y327700I-919J919*
G01*
X341267*
G75*
G02X336850Y329000I-2017J1300*
G01*
G75*
G02X337068Y330000I2400J0*
G01*
X303241*
G75*
G02X303550Y328500I-3491J-1500*
G01*
G75*
G02X295950I-3800*
G01*
G75*
G02X296259Y330000I3800J0*
G01*
X293241*
G75*
G02X293550Y328500I-3491J-1500*
G01*
G75*
G02X285950I-3800*
G01*
G75*
G02X286259Y330000I3800J0*
G01*
X282050*
Y320000*
X369950*
G75*
G02X377550I3800*
G01*
X379750*
G75*
G02X387750I4000*
G01*
X399150*
Y330000*
G37*
X22950Y335500D02*
G36*
X8350D01*
Y330000*
X22950*
Y335500*
G37*
X84199Y330000D02*
G36*
Y331190D01*
X77947*
Y330760*
X72300*
Y330000*
X84199*
G37*
Y335500D02*
G36*
X31550D01*
Y330000*
X63553*
Y330980*
X69200*
Y332000*
G75*
G02X69654Y333096I1551J0*
G01*
X70394Y333836*
G75*
G02X71491Y334290I1096J-1096*
G01*
X72215*
Y334720*
X77947*
Y334290*
X84199*
Y335500*
G37*
X96558Y330000D02*
G36*
X94608Y331950D01*
X91301*
Y330000*
X96558*
G37*
X221058D02*
G36*
X215558Y335500D01*
X166650*
G75*
G02X162418Y333950I-2400*
G01*
X128230*
Y333421*
X120624*
Y335500*
X110442*
X109346Y334404*
G75*
G02X108249Y333950I-1096J1096*
G01*
X106876*
Y333421*
X99270*
Y335500*
X91301*
Y335050*
X95249*
G75*
G02X96346Y334596I1J-1550*
G01*
X98892Y332050*
X99270*
Y332579*
X106876*
Y330000*
X120624*
Y332579*
X128230*
Y330000*
X221058*
G37*
X274950Y335500D02*
G36*
X219942D01*
X224846Y330596*
G75*
G02X225217Y330000I-1097J-1096*
G01*
X274950*
Y335500*
G37*
X399150D02*
G36*
X282050D01*
Y330000*
X286259*
G75*
G02X293241I3491J-1500*
G01*
X296259*
G75*
G02X303241I3491J-1500*
G01*
X337068*
G75*
G02X341267Y330300I2182J-1000*
G01*
X367211*
X367831Y330919*
G75*
G02X368752Y331300I919J-919*
G01*
X370179*
G75*
G02X377550Y330000I3571J-1300*
G01*
X379750*
G75*
G02X387750I4000*
G01*
X399150*
Y335500*
G37*
X22950Y340000D02*
G36*
X8350D01*
Y335500*
X22950*
Y340000*
G37*
X109200D02*
G36*
X54024D01*
G75*
G02X47750Y337650I-6274J7200*
G01*
G75*
G02X41476Y340000I0J9550*
G01*
X31550*
Y335500*
X84199*
Y337299*
X91301*
Y335500*
X99270*
Y337579*
X106876*
Y337050*
X107608*
X109200Y338642*
Y340000*
G37*
X215558Y335500D02*
G36*
X211058Y340000D01*
X112300*
Y338000*
G75*
G02X111846Y336904I-1551J0*
G01*
X110442Y335500*
X120624*
Y337579*
X128230*
Y337050*
X162418*
G75*
G02X166650Y335500I1832J-1550*
G01*
X215558*
G37*
X274950Y340000D02*
G36*
X215442D01*
X219942Y335500*
X274950*
Y340000*
G37*
X399150D02*
G36*
X387750D01*
G75*
G02X379750I-4000*
G01*
X377550*
G75*
G02X369950I-3800*
G01*
X283381*
X282050Y338669*
Y335500*
X399150*
Y340000*
G37*
X22950Y345000D02*
G36*
X8350D01*
Y340000*
X22950*
Y345000*
G37*
X38457D02*
G36*
X31550D01*
Y340000*
X41476*
G75*
G02X38457Y345000I6274J7200*
G01*
G37*
X107305D02*
G36*
X57043D01*
G75*
G02X54024Y340000I-9293J2200*
G01*
X109200*
Y342232*
X107305*
Y345000*
G37*
X211058Y340000D02*
G36*
X208375Y342683D01*
G75*
G02X205350Y345000I-625J2317*
G01*
Y345000*
X120195*
Y342232*
X114305*
Y345000*
X113195*
Y342232*
X112300*
Y340000*
X211058*
G37*
X274950Y345000D02*
G36*
X210442D01*
X215442Y340000*
X274950*
Y345000*
G37*
X399150D02*
G36*
X339550D01*
Y344500*
Y344500*
G75*
G02X339315Y343933I-800*
G01*
X338317Y342935*
G75*
G02X337750Y342700I-566J565*
G01*
X286081*
X283381Y340000*
X369950*
G75*
G02X377550I3800*
G01*
X379750*
G75*
G02X387750I4000*
G01*
X399150*
Y345000*
G37*
X378059Y374000D02*
G36*
X231550D01*
G75*
G02X223950I-3800*
G01*
X221550*
G75*
G02X213950I-3800*
G01*
X211550*
G75*
G02X203950I-3800*
G01*
X201550*
G75*
G02X193950I-3800*
G01*
X191550*
G75*
G02X183950I-3800*
G01*
X181550*
G75*
G02X176393Y370451I-3800*
G01*
X173300Y367358*
Y361332*
G75*
G02X174150Y359500I-1550J-1832*
G01*
G75*
G02X169350I-2400*
G01*
G75*
G02X170200Y361332I2400*
G01*
Y368000*
G75*
G02X170654Y369096I1551J0*
G01*
X174201Y372643*
G75*
G02X173950Y374000I3559J1359*
G01*
X171550*
G75*
G02X163950I-3800*
G01*
X161550*
G75*
G02X153950I-3800*
G01*
X151550*
G75*
G02X143950I-3800*
G01*
X141550*
G75*
G02X133950I-3800*
G01*
X29441*
G75*
G02X11918I-8761J9071*
G01*
X8350*
Y345000*
X22950*
Y361000*
Y361000*
G75*
G02X23185Y361567I800*
G01*
X34183Y372565*
G75*
G02X34750Y372800I566J-565*
G01*
X119750*
G75*
G02X120317Y372565I0J-800*
G01*
X137081Y355800*
X337750*
G75*
G02X338317Y355565I0J-800*
G01*
X339315Y354567*
G75*
G02X339550Y354000I-565J-566*
G01*
Y354000*
Y345000*
X399150*
Y374000*
X395582*
G75*
G02X378059I-8761J9071*
G01*
G37*
X274950Y345000D02*
G36*
Y345169D01*
X271919Y348200*
X133750*
G75*
G02X133183Y348435I0J800*
G01*
X116419Y365200*
X38081*
X31550Y358669*
Y345000*
X38457*
G75*
G02X38200Y347200I9293J2201*
G01*
G75*
G02X47750Y356750I9550*
G01*
G75*
G02X57300Y347200J-9550*
G01*
G75*
G02X57043Y345000I-9550J-1*
G01*
X107305*
Y347768*
X113195*
Y345000*
X114305*
Y347768*
X120195*
Y345000*
X205350*
G75*
G02X210130Y345313I2400*
G01*
X210442Y345000*
X274950*
G37*
X11918Y374000D02*
G36*
G75*
G02X8350Y380421I8761J9071D01*
G01*
Y374000*
X11918*
G37*
X374244Y384000D02*
G36*
X231750D01*
G75*
G02X223750I-4000*
G01*
X221750*
G75*
G02X213750I-4000*
G01*
X211750*
G75*
G02X203750I-4000*
G01*
X201750*
G75*
G02X193750I-4000*
G01*
X191750*
G75*
G02X183750I-4000*
G01*
X181750*
G75*
G02X173750I-4000*
G01*
X171750*
G75*
G02X163750I-4000*
G01*
X161750*
G75*
G02X153750I-4000*
G01*
X151750*
G75*
G02X143750I-4000*
G01*
X141550*
G75*
G02X133950I-3800*
G01*
X33256*
G75*
G02X33290Y383071I-12575J-929*
G01*
Y383071*
G75*
G02X29441Y374000I-12611J0*
G01*
X133950*
G75*
G02X141550I3800*
G01*
X143950*
G75*
G02X151550I3800*
G01*
X153950*
G75*
G02X161550I3800*
G01*
X163950*
G75*
G02X171550I3800*
G01*
X173950*
G75*
G02X181550I3800*
G01*
X183950*
G75*
G02X191550I3800*
G01*
X193950*
G75*
G02X201550I3800*
G01*
X203950*
G75*
G02X211550I3800*
G01*
X213950*
G75*
G02X221550I3800*
G01*
X223950*
G75*
G02X231550I3800*
G01*
X378059*
G75*
G02X374210Y383071I8761J9070*
G01*
G75*
G02X374244Y384000I12611J0*
G01*
G37*
X399150Y380421D02*
G36*
G75*
G02X395582Y374000I-12330J2650D01*
G01*
X399150*
Y380421*
G37*
X384171Y395400D02*
G36*
X23329D01*
G75*
G02X33256Y384000I-2649J-12330*
G01*
X133950*
G75*
G02X141550I3800*
G01*
X143750*
G75*
G02X151750I4000*
G01*
X153750*
G75*
G02X161750I4000*
G01*
X163750*
G75*
G02X171750I4000*
G01*
X173750*
G75*
G02X181750I4000*
G01*
X183750*
G75*
G02X191750I4000*
G01*
X193750*
G75*
G02X201750I4000*
G01*
X203750*
G75*
G02X211750I4000*
G01*
X213750*
G75*
G02X221750I4000*
G01*
X223750*
G75*
G02X231750I4000*
G01*
X374244*
G75*
G02X384171Y395400I12578J-930*
G01*
G37*
D02*
D71*
X64852Y329000D02*
X63053D01*
X66419Y328319D02*
Y326520D01*
Y329681D02*
Y331480D01*
X108604Y312000D02*
X106805D01*
X110250Y310531D02*
Y308732D01*
Y313469D02*
Y315268D01*
X115604Y345000D02*
X113805D01*
X117250Y343531D02*
Y341732D01*
Y346469D02*
Y348268D01*
X118896Y345000D02*
X120695D01*
X121925Y330500D02*
X120124D01*
X126929D02*
X128730D01*
X131754Y64661D02*
X129955D01*
X132750Y63547D02*
Y61748D01*
Y65776D02*
Y67575D01*
X133746Y64661D02*
X135545D01*
X221754D02*
X219955D01*
X222750Y63547D02*
Y61748D01*
Y65776D02*
Y67575D01*
X223746Y64661D02*
X225545D01*
X339250Y329000D02*
X367750D01*
X368750Y330000*
X373750*
Y270000D02*
Y270500D01*
X369250*
X367750Y269000*
X338750*
D02*
D20*
X96368Y49756D03*
X133769D03*
X185663D03*
X223065D03*
D02*
D77*
X20679Y16929D03*
Y383071D03*
X386821Y16929D03*
Y383071D03*
D02*
D84*
X47750Y248800D03*
Y347200D03*
D02*
D86*
X13750Y35000D03*
Y100000D03*
Y115000D03*
Y130000D03*
Y150000D03*
Y175000D03*
Y200000D03*
Y240000D03*
Y270000D03*
Y310000D03*
Y350000D03*
X18750Y92000D03*
X23750Y100000D03*
Y130000D03*
X24250Y55500D03*
X25750Y67000D03*
X30250Y49000D03*
X33750Y100000D03*
Y130000D03*
X34250Y73000D03*
X36250Y192000D03*
X36750Y153000D03*
Y173000D03*
X37750Y46000D03*
X38750Y10000D03*
Y34500D03*
Y362500D03*
X44250Y70500D03*
X47750Y192000D03*
X48250Y28500D03*
Y173000D03*
X48750Y153000D03*
X53750Y220500D03*
Y390000D03*
X57250Y139500D03*
Y145500D03*
X59750Y33500D03*
X60750Y300500D03*
X61250Y282500D03*
X61750Y153000D03*
Y173000D03*
Y192000D03*
Y212500D03*
X63250Y139500D03*
Y145500D03*
X64250Y92500D03*
X66250Y320000D03*
Y338500D03*
X68750Y75000D03*
X69750Y131500D03*
X70250Y44500D03*
X70750Y237500D03*
X73250Y148500D03*
Y168500D03*
X75250Y92500D03*
X75750Y114000D03*
X78250Y184500D03*
X78750Y229500D03*
X80250Y308500D03*
Y320500D03*
Y329000D03*
Y339500D03*
X80750Y163500D03*
Y169500D03*
Y175500D03*
X82750Y10000D03*
Y30000D03*
Y54000D03*
X84250Y251000D03*
X86750Y175500D03*
X92250Y243000D03*
X94250Y320500D03*
Y329000D03*
Y339500D03*
X95750Y92500D03*
Y174500D03*
X98750Y189500D03*
X100250Y137000D03*
X101250Y268000D03*
X102750Y312000D03*
X103750Y375000D03*
Y390000D03*
X106750Y84000D03*
X107750Y70500D03*
X108750Y157000D03*
X109250Y112000D03*
Y126000D03*
Y167000D03*
Y260000D03*
X110250Y54500D03*
Y277500D03*
Y291000D03*
Y304000D03*
X110750Y321500D03*
X113750Y360000D03*
X114750Y152000D03*
X115750Y93500D03*
X116750Y335000D03*
X117250Y297000D03*
Y303750D03*
X118750Y166500D03*
Y175000D03*
Y189500D03*
X121750Y42000D03*
Y54500D03*
Y154000D03*
X122250Y146000D03*
X123750Y315000D03*
X124250Y75000D03*
Y273000D03*
Y290500D03*
Y304000D03*
X124750Y347000D03*
X125750Y136500D03*
X126750Y154000D03*
X131250Y102000D03*
X132750Y315500D03*
Y324500D03*
Y331500D03*
X133750Y189500D03*
Y209500D03*
Y229500D03*
Y245500D03*
Y265500D03*
Y290500D03*
X137604Y120126D03*
X137750Y182500D03*
X138250Y136500D03*
Y144000D03*
X140750Y102000D03*
X141250Y265500D03*
Y290500D03*
X141750Y229500D03*
Y245500D03*
Y315500D03*
Y324500D03*
Y331500D03*
X142250Y189500D03*
Y209500D03*
Y344500D03*
Y359000D03*
X143250Y159500D03*
Y166500D03*
Y175000D03*
X143750Y182500D03*
X145750Y34000D03*
X147750Y256500D03*
X148250Y105000D03*
X148750Y54500D03*
X150250Y78000D03*
Y136500D03*
Y144000D03*
X152250Y127500D03*
X153250Y366000D03*
X153750Y209500D03*
Y229500D03*
Y275000D03*
Y295500D03*
Y315000D03*
X154250Y189500D03*
Y249500D03*
X154750Y339000D03*
X157750Y320500D03*
Y331000D03*
X161250Y240500D03*
Y275000D03*
Y295500D03*
Y315000D03*
X162250Y125000D03*
Y136500D03*
Y144000D03*
Y219000D03*
Y228500D03*
Y359500D03*
X163750Y159500D03*
Y166500D03*
Y175000D03*
X164250Y335500D03*
X165250Y199500D03*
X168250Y250000D03*
Y285000D03*
Y305000D03*
Y325000D03*
X168750Y265000D03*
X169250Y114000D03*
X169750Y131000D03*
X170250Y232500D03*
X171250Y10000D03*
Y30000D03*
Y54500D03*
Y74500D03*
X171750Y359500D03*
X172250Y195500D03*
Y202500D03*
X173750Y99500D03*
X174750Y275000D03*
Y295000D03*
X175250Y242000D03*
Y315000D03*
Y335000D03*
X175750Y144000D03*
X178750Y219500D03*
X182250Y139500D03*
X182750Y175000D03*
X183250Y262000D03*
X183750Y74500D03*
Y99500D03*
Y255500D03*
Y285000D03*
Y305000D03*
Y325000D03*
Y345000D03*
Y359000D03*
X186250Y131500D03*
Y218500D03*
X187250Y159500D03*
Y168000D03*
Y225000D03*
X189750Y146000D03*
X192250Y74500D03*
X192750Y139000D03*
X194250Y215500D03*
Y225000D03*
X194750Y84000D03*
Y262000D03*
Y333500D03*
X194764Y255500D03*
X198250Y100000D03*
Y112000D03*
Y126000D03*
X199250Y55000D03*
X199750Y184000D03*
X200750Y160000D03*
X201750Y340000D03*
Y359000D03*
X202750Y234000D03*
X203750Y191500D03*
Y199000D03*
Y206500D03*
Y214000D03*
Y221000D03*
X207750Y345000D03*
X208250Y228000D03*
X211750Y43500D03*
X212250Y54500D03*
Y154000D03*
X213750Y359000D03*
X214250Y345000D03*
X214750Y77000D03*
X215750Y246000D03*
Y268500D03*
Y277500D03*
X216250Y255500D03*
X217750Y154000D03*
X218750Y303500D03*
Y324500D03*
X219250Y101500D03*
Y164500D03*
X223250Y191000D03*
Y199000D03*
Y206500D03*
Y221000D03*
Y228500D03*
X228750Y120000D03*
X229250Y245000D03*
Y252000D03*
Y268500D03*
Y278000D03*
Y303500D03*
Y324500D03*
X230750Y217500D03*
X232750Y345000D03*
X233250Y101500D03*
X233750Y360000D03*
X235750Y34000D03*
X238250Y105500D03*
X240250Y81000D03*
Y191000D03*
Y199000D03*
Y206500D03*
X240750Y148500D03*
Y174000D03*
Y221000D03*
Y228500D03*
X241750Y127000D03*
X249250Y128000D03*
Y148500D03*
Y174000D03*
Y191000D03*
Y199000D03*
Y206500D03*
X249750Y221000D03*
X251250Y245000D03*
Y252000D03*
Y268500D03*
Y278000D03*
X253750Y120000D03*
Y345000D03*
Y360000D03*
Y390000D03*
X257750Y217500D03*
X258750Y12500D03*
Y32000D03*
Y50000D03*
Y66000D03*
Y74000D03*
Y81500D03*
Y96500D03*
Y128000D03*
Y148500D03*
Y174000D03*
Y191000D03*
Y199000D03*
X259250Y110000D03*
X266250Y136000D03*
Y159500D03*
Y189000D03*
X267750Y101500D03*
X270750Y345000D03*
X271250Y74000D03*
Y81500D03*
X272250Y227500D03*
Y245000D03*
Y252000D03*
Y268500D03*
Y278000D03*
Y299000D03*
Y320000D03*
X272750Y199000D03*
X273750Y150000D03*
Y173500D03*
X275750Y360000D03*
X278250Y207000D03*
X278750Y12500D03*
X280250Y136000D03*
Y162000D03*
Y188000D03*
X282250Y91000D03*
X282750Y252500D03*
Y264000D03*
X284750Y281500D03*
X285250Y219500D03*
Y297000D03*
Y319000D03*
X285750Y73500D03*
Y135500D03*
Y173500D03*
Y180000D03*
Y339000D03*
X286750Y65000D03*
X288250Y245500D03*
X289250Y118500D03*
X289750Y111000D03*
X290250Y186500D03*
X290750Y156500D03*
X291750Y74000D03*
X292250Y115000D03*
Y253500D03*
X293750Y310000D03*
X294250Y296000D03*
X295750Y149000D03*
X296250Y135500D03*
X296750Y360000D03*
X297250Y117500D03*
X298250Y352500D03*
X298750Y55000D03*
Y73500D03*
X299250Y320500D03*
X300250Y188000D03*
X300750Y168000D03*
X302250Y111000D03*
Y182500D03*
Y263500D03*
X303250Y210500D03*
Y232000D03*
X303750Y12500D03*
Y255000D03*
Y390000D03*
X305250Y338000D03*
X305750Y296000D03*
X306250Y281000D03*
X307250Y135500D03*
Y145000D03*
X307750Y161500D03*
X309250Y192500D03*
Y203000D03*
Y270500D03*
Y332500D03*
X310750Y307500D03*
X311750Y187000D03*
X313750Y168000D03*
Y248500D03*
Y281000D03*
X314250Y227000D03*
X319750Y265500D03*
Y299500D03*
Y326000D03*
X320250Y55000D03*
Y73500D03*
X320750Y126500D03*
Y135500D03*
Y145000D03*
X321250Y214000D03*
X322250Y239000D03*
Y248500D03*
X323250Y103000D03*
X323750Y310000D03*
X324750Y317500D03*
X325750Y257000D03*
X328750Y12500D03*
X332250Y256500D03*
Y267000D03*
Y299500D03*
Y326000D03*
Y340500D03*
X332750Y93500D03*
Y145500D03*
Y280000D03*
Y289500D03*
X333250Y310000D03*
Y317500D03*
X333750Y225000D03*
X334250Y126500D03*
Y248000D03*
X334750Y346500D03*
Y352500D03*
X337250Y289500D03*
X337750Y152000D03*
X338250Y180000D03*
X338750Y269000D03*
X339250Y239000D03*
Y329000D03*
X342750Y83500D03*
X343750Y263000D03*
X344250Y246000D03*
X344750Y300000D03*
Y307000D03*
X347750Y126500D03*
X348750Y324000D03*
X349250Y225000D03*
X351250Y138500D03*
Y266000D03*
X352250Y74000D03*
Y304000D03*
X352750Y345000D03*
X353750Y12500D03*
Y49500D03*
Y390000D03*
X356750Y118500D03*
Y249000D03*
X357250Y310000D03*
X357750Y164500D03*
Y284500D03*
X362750Y63000D03*
X363750Y225000D03*
Y241500D03*
X364250Y124000D03*
Y180500D03*
Y272500D03*
X364750Y265000D03*
X365250Y257000D03*
Y317000D03*
Y324000D03*
Y336000D03*
X378750Y300000D03*
X391250Y50000D03*
Y100000D03*
Y150000D03*
Y200000D03*
Y250000D03*
Y300000D03*
Y350000D03*
D02*
D106*
X29876Y60000D02*
X26876D01*
X36750Y53126D02*
Y50126D01*
Y66874D02*
Y69874D01*
X42671Y41693D02*
X39671D01*
X49545Y34819D02*
Y31819D01*
X50750Y298000D02*
X47750D01*
X52514Y60000D02*
X49514D01*
X52750Y300000D02*
Y303000D01*
X54750Y298000D02*
X57750D01*
X54815Y54443D02*
X52694Y52322D01*
X54815Y65557D02*
X52694Y67678D01*
X56419Y41693D02*
X59419D01*
X60372Y52142D02*
Y49142D01*
Y67858D02*
Y70858D01*
X65929Y54443D02*
X68050Y52322D01*
X65929Y65557D02*
X68050Y67678D01*
X68230Y60000D02*
X71230D01*
X140371Y63535D02*
X137371D01*
X141147Y61661D02*
X139026Y59540D01*
X141147Y65409D02*
X139026Y67531D01*
X144895Y61661D02*
X147017Y59540D01*
X144895Y65409D02*
X147017Y67531D01*
X145671Y63535D02*
X148671D01*
X145750Y384000D02*
X142750D01*
X147750Y382000D02*
Y379000D01*
Y386000D02*
Y389000D01*
X149750Y384000D02*
X152750D01*
X155750D02*
X152750D01*
X157750Y382000D02*
Y379000D01*
Y386000D02*
Y389000D01*
X159750Y384000D02*
X162750D01*
X165750D02*
X162750D01*
X167750Y382000D02*
Y379000D01*
Y386000D02*
Y389000D01*
X169750Y384000D02*
X172750D01*
X175750D02*
X172750D01*
X177750Y382000D02*
Y379000D01*
Y386000D02*
Y389000D01*
X179750Y384000D02*
X182750D01*
X185750D02*
X182750D01*
X187750Y382000D02*
Y379000D01*
Y386000D02*
Y389000D01*
X189750Y384000D02*
X192750D01*
X195750D02*
X192750D01*
X197750Y382000D02*
Y379000D01*
Y386000D02*
Y389000D01*
X199750Y384000D02*
X202750D01*
X205750D02*
X202750D01*
X207750Y382000D02*
Y379000D01*
Y386000D02*
Y389000D01*
X209750Y384000D02*
X212750D01*
X215750D02*
X212750D01*
X217750Y382000D02*
Y379000D01*
Y386000D02*
Y389000D01*
X219750Y384000D02*
X222750D01*
X225750D02*
X222750D01*
X227750Y382000D02*
Y379000D01*
Y386000D02*
Y389000D01*
X229667Y63535D02*
X226667D01*
X229750Y384000D02*
X232750D01*
X230443Y61661D02*
X228322Y59540D01*
X230443Y65409D02*
X228322Y67531D01*
X234191Y61661D02*
X236312Y59540D01*
X234191Y65409D02*
X236312Y67531D01*
X234967Y63535D02*
X237967D01*
X279750Y20000D02*
X276750D01*
X279750Y30000D02*
X276750D01*
X281750Y18000D02*
Y15000D01*
Y22000D02*
Y25000D01*
Y28000D02*
Y25000D01*
Y32000D02*
Y35000D01*
X283750Y20000D02*
X286750D01*
X283750Y30000D02*
X286750D01*
X371750Y60000D02*
X368750D01*
X371750Y120000D02*
X368750D01*
X371750Y180000D02*
X368750D01*
X373750Y58000D02*
Y55000D01*
Y62000D02*
Y65000D01*
Y118000D02*
Y115000D01*
Y122000D02*
Y125000D01*
Y178000D02*
Y175000D01*
Y182000D02*
Y185000D01*
X375750Y60000D02*
X378750D01*
X375750Y120000D02*
X378750D01*
X375750Y180000D02*
X378750D01*
X381750Y60000D02*
X378750D01*
X381750Y120000D02*
X378750D01*
X381750Y180000D02*
X378750D01*
X381750Y250000D02*
X378750D01*
X381750Y260000D02*
X378750D01*
X381750Y270000D02*
X378750D01*
X381750Y280000D02*
X378750D01*
X381750Y310000D02*
X378750D01*
X381750Y320000D02*
X378750D01*
X381750Y330000D02*
X378750D01*
X381750Y340000D02*
X378750D01*
X383750Y58000D02*
Y55000D01*
Y62000D02*
Y65000D01*
Y118000D02*
Y115000D01*
Y122000D02*
Y125000D01*
Y178000D02*
Y175000D01*
Y182000D02*
Y185000D01*
Y248000D02*
Y245000D01*
Y252000D02*
Y255000D01*
Y258000D02*
Y255000D01*
Y262000D02*
Y265000D01*
Y268000D02*
Y265000D01*
Y272000D02*
Y275000D01*
Y278000D02*
Y275000D01*
Y282000D02*
Y285000D01*
Y308000D02*
Y305000D01*
Y312000D02*
Y315000D01*
Y318000D02*
Y315000D01*
Y322000D02*
Y325000D01*
Y328000D02*
Y325000D01*
Y332000D02*
Y335000D01*
Y338000D02*
Y335000D01*
Y342000D02*
Y345000D01*
X385750Y60000D02*
X388750D01*
X385750Y120000D02*
X388750D01*
X385750Y180000D02*
X388750D01*
X385750Y250000D02*
X388750D01*
X385750Y260000D02*
X388750D01*
X385750Y270000D02*
X388750D01*
X385750Y280000D02*
X388750D01*
X385750Y310000D02*
X388750D01*
X385750Y320000D02*
X388750D01*
X385750Y330000D02*
X388750D01*
X385750Y340000D02*
X388750D01*
D02*
D107*
X60372Y60000D03*
D02*
D108*
X36750D03*
X49545Y41693D03*
D02*
D110*
X110250Y312000D03*
Y345000D03*
X117250Y312000D03*
Y345000D03*
D02*
D114*
X143021Y63535D03*
Y77315D03*
X232317Y63535D03*
Y77315D03*
D02*
D115*
X130226Y89520D03*
X219522D03*
D02*
D119*
X113750Y20000D03*
X133750Y20008D03*
X153750Y20000D03*
X203750D03*
X223750D03*
X243750D03*
D02*
D124*
X103073Y320500D03*
Y325500D03*
Y330500D03*
Y335500D03*
X124427Y320500D03*
Y325500D03*
Y330500D03*
Y335500D03*
D02*
D125*
X87750Y324500D03*
Y333500D03*
D02*
D126*
X66419Y329000D03*
X75081Y325260D03*
Y332740D03*
D02*
D127*
X132750Y64661D03*
Y77339D03*
X222750Y64661D03*
Y77339D03*
X0Y0D02*
M02*
