G04 EasyPC Gerber Version 21.0.3 Build 4286 *
%FSLAX35Y35*%
%MOIN*%
%ADD141O,0.10443X0.16348*%
%ADD148R,0.03592X0.03828*%
%ADD146R,0.06100X0.06600*%
%ADD97C,0.03800*%
%ADD88C,0.06600*%
%ADD135C,0.07900*%
%ADD136C,0.10600*%
%ADD137C,0.12100*%
%ADD129C,0.16348*%
%ADD95C,0.18100*%
%ADD128C,0.18317*%
%ADD147R,0.04734X0.02962*%
%ADD145R,0.06604X0.03159*%
%ADD131R,0.04891X0.04537*%
%ADD87C,0.24222*%
X0Y0D02*
D02*
D87*
X20679Y16929D03*
Y383071D03*
X386821Y16929D03*
Y383071D03*
D02*
D88*
X42750Y281800D03*
Y292600D03*
Y303400D03*
Y314200D03*
X52750Y276400D03*
Y287200D03*
Y298000D03*
Y308800D03*
Y319600D03*
X137750Y374000D03*
Y384000D03*
X147750Y374000D03*
Y384000D03*
X157750Y374000D03*
Y384000D03*
X167750Y374000D03*
Y384000D03*
X177750Y374000D03*
Y384000D03*
X187750Y374000D03*
Y384000D03*
X197750Y374000D03*
Y384000D03*
X207750Y374000D03*
Y384000D03*
X217750Y374000D03*
Y384000D03*
X227750Y374000D03*
Y384000D03*
X281750Y20000D03*
Y30000D03*
X289750Y272000D03*
Y328500D03*
X291750Y20000D03*
Y30000D03*
X299750Y272000D03*
Y328500D03*
X301750Y20000D03*
Y30000D03*
X311750Y20000D03*
Y30000D03*
X321750Y20000D03*
Y30000D03*
X373750Y60000D03*
Y70000D03*
Y80000D03*
Y90000D03*
Y100000D03*
Y120000D03*
Y130000D03*
Y140000D03*
Y150000D03*
Y160000D03*
Y180000D03*
Y190000D03*
Y200000D03*
Y210000D03*
Y220000D03*
Y250000D03*
Y260000D03*
Y270000D03*
Y280000D03*
Y310000D03*
Y320000D03*
Y330000D03*
Y340000D03*
X383750Y60000D03*
Y70000D03*
Y80000D03*
Y90000D03*
Y100000D03*
Y120000D03*
Y130000D03*
Y140000D03*
Y150000D03*
Y160000D03*
Y180000D03*
Y190000D03*
Y200000D03*
Y210000D03*
Y220000D03*
Y250000D03*
Y260000D03*
Y270000D03*
Y280000D03*
Y310000D03*
Y320000D03*
Y330000D03*
Y340000D03*
D02*
D95*
X47750Y248800D03*
Y347200D03*
D02*
D97*
X13750Y35000D03*
Y100000D03*
Y115000D03*
Y130000D03*
Y150000D03*
Y175000D03*
Y200000D03*
Y240000D03*
Y270000D03*
Y310000D03*
Y350000D03*
X18750Y92000D03*
X23750Y100000D03*
Y130000D03*
X24250Y55500D03*
X25750Y67000D03*
X30250Y49000D03*
X33750Y100000D03*
Y130000D03*
X34250Y73000D03*
X36250Y192000D03*
X36750Y153000D03*
Y173000D03*
X37750Y46000D03*
X38750Y10000D03*
Y34500D03*
Y362500D03*
X44250Y70500D03*
X47750Y192000D03*
X48250Y28500D03*
Y173000D03*
X48750Y153000D03*
X53750Y220500D03*
Y390000D03*
X57250Y139500D03*
Y145500D03*
X59750Y33500D03*
X60750Y300500D03*
X61250Y282500D03*
X61750Y153000D03*
Y173000D03*
Y192000D03*
Y212500D03*
X63250Y139500D03*
Y145500D03*
X64250Y92500D03*
X66250Y320000D03*
Y338500D03*
X68750Y75000D03*
X69750Y131500D03*
X70250Y44500D03*
X70750Y237500D03*
X73250Y148500D03*
Y168500D03*
X75250Y92500D03*
X75750Y114000D03*
X78250Y184500D03*
X78750Y229500D03*
X80250Y308500D03*
Y320500D03*
Y329000D03*
Y339500D03*
X80750Y163500D03*
Y169500D03*
Y175500D03*
X82750Y10000D03*
Y30000D03*
Y54000D03*
X84250Y251000D03*
X86750Y175500D03*
X92250Y243000D03*
X94250Y320500D03*
Y329000D03*
Y339500D03*
X95750Y92500D03*
Y174500D03*
X98750Y189500D03*
X100250Y137000D03*
X101250Y268000D03*
X102750Y312000D03*
X103750Y375000D03*
Y390000D03*
X106750Y84000D03*
X107750Y70500D03*
X108750Y157000D03*
X109250Y112000D03*
Y126000D03*
Y167000D03*
Y260000D03*
X110250Y54500D03*
Y277500D03*
Y291000D03*
Y304000D03*
X110750Y321500D03*
X113750Y360000D03*
X114750Y152000D03*
X115750Y93500D03*
X116750Y335000D03*
X117250Y297000D03*
Y303750D03*
X118750Y166500D03*
Y175000D03*
Y189500D03*
X121750Y42000D03*
Y54500D03*
Y154000D03*
X122250Y146000D03*
X123750Y315000D03*
X124250Y75000D03*
Y273000D03*
Y290500D03*
Y304000D03*
X124750Y347000D03*
X125750Y136500D03*
X126750Y154000D03*
X131250Y102000D03*
X132750Y315500D03*
Y324500D03*
Y331500D03*
X133750Y189500D03*
Y209500D03*
Y229500D03*
Y245500D03*
Y265500D03*
Y290500D03*
X137604Y120126D03*
X137750Y182500D03*
X138250Y136500D03*
Y144000D03*
X140750Y102000D03*
X141250Y265500D03*
Y290500D03*
X141750Y229500D03*
Y245500D03*
Y315500D03*
Y324500D03*
Y331500D03*
X142250Y189500D03*
Y209500D03*
Y344500D03*
Y359000D03*
X143250Y159500D03*
Y166500D03*
Y175000D03*
X143750Y182500D03*
X145750Y34000D03*
X147750Y256500D03*
X148250Y105000D03*
X148750Y54500D03*
X150250Y78000D03*
Y136500D03*
Y144000D03*
X152250Y127500D03*
X153250Y366000D03*
X153750Y209500D03*
Y229500D03*
Y275000D03*
Y295500D03*
Y315000D03*
X154250Y189500D03*
Y249500D03*
X154750Y339000D03*
X157750Y320500D03*
Y331000D03*
X161250Y240500D03*
Y275000D03*
Y295500D03*
Y315000D03*
X162250Y125000D03*
Y136500D03*
Y144000D03*
Y219000D03*
Y228500D03*
Y359500D03*
X163750Y159500D03*
Y166500D03*
Y175000D03*
X164250Y335500D03*
X165250Y199500D03*
X168250Y250000D03*
Y285000D03*
Y305000D03*
Y325000D03*
X168750Y265000D03*
X169250Y114000D03*
X169750Y131000D03*
X170250Y232500D03*
X171250Y10000D03*
Y30000D03*
Y54500D03*
Y74500D03*
X171750Y359500D03*
X172250Y195500D03*
Y202500D03*
X173750Y99500D03*
X174750Y275000D03*
Y295000D03*
X175250Y242000D03*
Y315000D03*
Y335000D03*
X175750Y144000D03*
X178750Y219500D03*
X182250Y139500D03*
X182750Y175000D03*
X183250Y262000D03*
X183750Y74500D03*
Y99500D03*
Y255500D03*
Y285000D03*
Y305000D03*
Y325000D03*
Y345000D03*
Y359000D03*
X186250Y131500D03*
Y218500D03*
X187250Y159500D03*
Y168000D03*
Y225000D03*
X189750Y146000D03*
X192250Y74500D03*
X192750Y139000D03*
X194250Y215500D03*
Y225000D03*
X194750Y84000D03*
Y262000D03*
Y333500D03*
X194764Y255500D03*
X198250Y100000D03*
Y112000D03*
Y126000D03*
X199250Y55000D03*
X199750Y184000D03*
X200750Y160000D03*
X201750Y340000D03*
Y359000D03*
X202750Y234000D03*
X203750Y191500D03*
Y199000D03*
Y206500D03*
Y214000D03*
Y221000D03*
X207750Y345000D03*
X208250Y228000D03*
X211750Y43500D03*
X212250Y54500D03*
Y154000D03*
X213750Y359000D03*
X214250Y345000D03*
X214750Y77000D03*
X215750Y246000D03*
Y268500D03*
Y277500D03*
X216250Y255500D03*
X217750Y154000D03*
X218750Y303500D03*
Y324500D03*
X219250Y101500D03*
Y164500D03*
X223250Y191000D03*
Y199000D03*
Y206500D03*
Y221000D03*
Y228500D03*
X228750Y120000D03*
X229250Y245000D03*
Y252000D03*
Y268500D03*
Y278000D03*
Y303500D03*
Y324500D03*
X230750Y217500D03*
X232750Y345000D03*
X233250Y101500D03*
X233750Y360000D03*
X235750Y34000D03*
X238250Y105500D03*
X240250Y81000D03*
Y191000D03*
Y199000D03*
Y206500D03*
X240750Y148500D03*
Y174000D03*
Y221000D03*
Y228500D03*
X241750Y127000D03*
X249250Y128000D03*
Y148500D03*
Y174000D03*
Y191000D03*
Y199000D03*
Y206500D03*
X249750Y221000D03*
X251250Y245000D03*
Y252000D03*
Y268500D03*
Y278000D03*
X253750Y120000D03*
Y345000D03*
Y360000D03*
Y390000D03*
X257750Y217500D03*
X258750Y12500D03*
Y32000D03*
Y50000D03*
Y66000D03*
Y74000D03*
Y81500D03*
Y96500D03*
Y128000D03*
Y148500D03*
Y174000D03*
Y191000D03*
Y199000D03*
X259250Y110000D03*
X266250Y136000D03*
Y159500D03*
Y189000D03*
X267750Y101500D03*
X270750Y345000D03*
X271250Y74000D03*
Y81500D03*
X272250Y227500D03*
Y245000D03*
Y252000D03*
Y268500D03*
Y278000D03*
Y299000D03*
Y320000D03*
X272750Y199000D03*
X273750Y150000D03*
Y173500D03*
X275750Y360000D03*
X278250Y207000D03*
X278750Y12500D03*
X280250Y136000D03*
Y162000D03*
Y188000D03*
X282250Y91000D03*
X282750Y252500D03*
Y264000D03*
X284750Y281500D03*
X285250Y219500D03*
Y297000D03*
Y319000D03*
X285750Y73500D03*
Y135500D03*
Y173500D03*
Y180000D03*
Y339000D03*
X286750Y65000D03*
X288250Y245500D03*
X289250Y118500D03*
X289750Y111000D03*
X290250Y186500D03*
X290750Y156500D03*
X291750Y74000D03*
X292250Y115000D03*
Y253500D03*
X293750Y310000D03*
X294250Y296000D03*
X295750Y149000D03*
X296250Y135500D03*
X296750Y360000D03*
X297250Y117500D03*
X298250Y352500D03*
X298750Y55000D03*
Y73500D03*
X299250Y320500D03*
X300250Y188000D03*
X300750Y168000D03*
X302250Y111000D03*
Y182500D03*
Y263500D03*
X303250Y210500D03*
Y232000D03*
X303750Y12500D03*
Y255000D03*
Y390000D03*
X305250Y338000D03*
X305750Y296000D03*
X306250Y281000D03*
X307250Y135500D03*
Y145000D03*
X307750Y161500D03*
X309250Y192500D03*
Y203000D03*
Y270500D03*
Y332500D03*
X310750Y307500D03*
X311750Y187000D03*
X313750Y168000D03*
Y248500D03*
Y281000D03*
X314250Y227000D03*
X319750Y265500D03*
Y299500D03*
Y326000D03*
X320250Y55000D03*
Y73500D03*
X320750Y126500D03*
Y135500D03*
Y145000D03*
X321250Y214000D03*
X322250Y239000D03*
Y248500D03*
X323250Y103000D03*
X323750Y310000D03*
X324750Y317500D03*
X325750Y257000D03*
X328750Y12500D03*
X332250Y256500D03*
Y267000D03*
Y299500D03*
Y326000D03*
Y340500D03*
X332750Y93500D03*
Y145500D03*
Y280000D03*
Y289500D03*
X333250Y310000D03*
Y317500D03*
X333750Y225000D03*
X334250Y126500D03*
Y248000D03*
X334750Y346500D03*
Y352500D03*
X337250Y289500D03*
X337750Y152000D03*
X338250Y180000D03*
X338750Y269000D03*
X339250Y239000D03*
Y329000D03*
X342750Y83500D03*
X343750Y263000D03*
X344250Y246000D03*
X344750Y300000D03*
Y307000D03*
X347750Y126500D03*
X348750Y324000D03*
X349250Y225000D03*
X351250Y138500D03*
Y266000D03*
X352250Y74000D03*
Y304000D03*
X352750Y345000D03*
X353750Y12500D03*
Y49500D03*
Y390000D03*
X356750Y118500D03*
Y249000D03*
X357250Y310000D03*
X357750Y164500D03*
Y284500D03*
X362750Y63000D03*
X363750Y225000D03*
Y241500D03*
X364250Y124000D03*
Y180500D03*
Y272500D03*
X364750Y265000D03*
X365250Y257000D03*
Y317000D03*
Y324000D03*
Y336000D03*
X378750Y300000D03*
X391250Y50000D03*
Y100000D03*
Y150000D03*
Y200000D03*
Y250000D03*
Y300000D03*
Y350000D03*
D02*
D128*
X60372Y60000D03*
D02*
D129*
X36750D03*
X49545Y41693D03*
D02*
D131*
X110250Y312000D03*
Y345000D03*
X117250Y312000D03*
Y345000D03*
D02*
D135*
X143021Y63535D03*
Y77315D03*
X232317Y63535D03*
Y77315D03*
D02*
D136*
X96368Y49756D03*
X133769D03*
X185663D03*
X223065D03*
D02*
D137*
X130226Y89520D03*
X219522D03*
D02*
D141*
X113750Y20000D03*
X133750Y20008D03*
X153750Y20000D03*
X203750D03*
X223750D03*
X243750D03*
D02*
D145*
X103073Y320500D03*
Y325500D03*
Y330500D03*
Y335500D03*
X124427Y320500D03*
Y325500D03*
Y330500D03*
Y335500D03*
D02*
D146*
X87750Y324500D03*
Y333500D03*
D02*
D147*
X66419Y329000D03*
X75081Y325260D03*
Y332740D03*
D02*
D148*
X132750Y64661D03*
Y77339D03*
X222750Y64661D03*
Y77339D03*
X0Y0D02*
M02*
