G04 EasyPC Gerber Version 21.0.3 Build 4286 *
%FSLAX35Y35*%
%MOIN*%
%ADD119O,0.09843X0.15748*%
%ADD113R,0.01181X0.03346*%
%ADD99R,0.01181X0.05512*%
%ADD111R,0.01575X0.03346*%
%ADD122R,0.01575X0.05512*%
%ADD117R,0.01772X0.05807*%
%ADD79R,0.02362X0.04724*%
%ADD118R,0.02559X0.07677*%
%ADD109R,0.03937X0.04291*%
%ADD19C,0.00001*%
%ADD71C,0.01000*%
%ADD105C,0.01200*%
%ADD16C,0.01500*%
%ADD106C,0.02000*%
%ADD104C,0.02500*%
%ADD123C,0.03150*%
%ADD86C,0.03200*%
%ADD13C,0.06000*%
%ADD114C,0.07300*%
%ADD20C,0.10000*%
%ADD115C,0.11500*%
%ADD108C,0.15748*%
%ADD84C,0.17500*%
%ADD107C,0.17717*%
%ADD77C,0.23622*%
%ADD112R,0.03346X0.01181*%
%ADD116R,0.03937X0.01772*%
%ADD110R,0.04291X0.03937*%
%ADD120R,0.08268X0.03937*%
%ADD121R,0.23031X0.19291*%
X0Y0D02*
D02*
D13*
X42750Y281800D03*
Y292600D03*
Y303400D03*
Y314200D03*
X52750Y276400D03*
Y287200D03*
Y298000D03*
Y308800D03*
Y319600D03*
X137750Y374000D03*
Y384000D03*
X147750Y374000D03*
Y384000D03*
X157750Y374000D03*
Y384000D03*
X167750Y374000D03*
Y384000D03*
X177750Y374000D03*
Y384000D03*
X187750Y374000D03*
Y384000D03*
X197750Y374000D03*
Y384000D03*
X207750Y374000D03*
Y384000D03*
X217750Y374000D03*
Y384000D03*
X227750Y374000D03*
Y384000D03*
X281750Y20000D03*
Y30000D03*
X289750Y272000D03*
Y328500D03*
X291750Y20000D03*
Y30000D03*
X299750Y272000D03*
Y328500D03*
X301750Y20000D03*
Y30000D03*
X311750Y20000D03*
Y30000D03*
X321750Y20000D03*
Y30000D03*
X373750Y60000D03*
Y70000D03*
Y80000D03*
Y90000D03*
Y100000D03*
Y120000D03*
Y130000D03*
Y140000D03*
Y150000D03*
Y160000D03*
Y180000D03*
Y190000D03*
Y200000D03*
Y210000D03*
Y220000D03*
Y250000D03*
Y260000D03*
Y270000D03*
Y280000D03*
Y310000D03*
Y320000D03*
Y330000D03*
Y340000D03*
X383750Y60000D03*
Y70000D03*
Y80000D03*
Y90000D03*
Y100000D03*
Y120000D03*
Y130000D03*
Y140000D03*
Y150000D03*
Y160000D03*
Y180000D03*
Y190000D03*
Y200000D03*
Y210000D03*
Y220000D03*
Y250000D03*
Y260000D03*
Y270000D03*
Y280000D03*
Y310000D03*
Y320000D03*
Y330000D03*
Y340000D03*
D02*
D16*
X94750Y105000D02*
Y112000D01*
Y119000D02*
Y112000D01*
X101750Y119000D02*
Y126000D01*
Y132000*
X106750Y137000*
X109510*
X106250*
X104250Y139000*
Y167500*
X107750Y171000*
X185250*
X188530Y174280*
Y208933*
X116750Y105000D02*
Y112000D01*
Y119000*
X116990Y137000D02*
X120250D01*
X123250Y140000*
X177250*
X191089Y153839*
Y208933*
X123750Y105000D02*
Y95996D01*
X130226Y89520*
X123750Y119000D02*
Y126000D01*
X133769Y49756D02*
X101750Y81775D01*
Y105000*
X157250Y344500D02*
X163750D01*
X165750Y346500*
Y356000*
X169250Y359500*
X171750*
X167750Y374000D02*
X157250Y363500D01*
Y354000*
X174531Y182000D02*
X172031D01*
X175734Y232067D02*
Y236500D01*
X171750Y240484*
Y359500*
X175750Y189000D02*
Y193500D01*
X183411Y201161*
Y208933*
X176969Y182000D02*
X179469D01*
X178293Y208933D02*
Y204043D01*
X176750Y202500*
X172250*
X178293Y232067D02*
Y363500D01*
X167750Y374043*
Y374000*
X180852Y208933D02*
Y202602D01*
X177250Y199000*
X175750*
X172250Y195500*
X180852Y232067D02*
Y227602D01*
X179750Y226500*
X169750*
X164750Y231500*
Y335500*
X164250*
X182531Y189000D02*
X180031D01*
X183411Y208933D02*
Y215661D01*
X186250Y218500*
X183411Y232067D02*
Y225161D01*
X181750Y223500*
X161750*
X157750Y227500*
Y320500*
X183750Y105000D02*
Y112000D01*
Y119000*
Y190396D02*
Y192896D01*
X185970Y206780D02*
Y204280D01*
Y211087D02*
Y213587D01*
X190750Y105000D02*
Y82071D01*
X223065Y49756*
X190750Y119000D02*
Y126000D01*
X193648Y208933D02*
Y145000D01*
X183648Y135000*
X167250*
X155297Y123047*
X193648Y232067D02*
Y237898D01*
X196750Y241000*
X200750*
X205750Y246000*
Y265000*
X212750Y272000*
X289750*
X194764Y255500D02*
X200587D01*
X200630Y255543*
X196207Y208933D02*
Y176543D01*
X196250Y176500*
Y140000*
X197750Y138500*
X201750*
X196207Y232067D02*
Y236457D01*
X197750Y238000*
X202750*
X210250Y245500*
Y249000*
X198766Y232067D02*
Y228016D01*
X198750Y228000*
X202250Y224500*
X242750*
X245297Y221953*
Y120500*
X200630Y248543D02*
Y245880D01*
X198750Y244000*
X195750*
X191089Y239339*
Y232067*
X201750Y138500D02*
X201510D01*
X201750D02*
X197750D01*
X190750Y131500*
Y126000*
X205250Y105000D02*
Y112000D01*
Y119000*
X207750Y345000D02*
Y374000D01*
X208990Y138500D02*
X213250D01*
X223250Y148500*
Y166000*
X198766Y190484*
Y208933*
X208990Y138500D02*
X212250D01*
X215250Y135500*
Y133000*
X212250Y130000*
Y126000*
Y119000D02*
Y126000D01*
X216250Y255500D02*
X210250D01*
Y256000*
X219522Y89520D02*
Y89500D01*
X212250Y96772*
Y105000*
X230750Y217500D02*
X197089D01*
X191089Y223500*
Y232067*
X257750Y217500D02*
X263250Y212000D01*
Y98500*
X264750Y97000*
X285675*
X287175Y98500*
Y102795*
X286750Y46398D02*
Y25000D01*
X291750Y20000*
X286750Y65000D02*
Y46398D01*
X289250Y118500D02*
X289734Y118984D01*
Y127205*
X289750Y328500D02*
Y272000D01*
X291750Y46398D02*
Y30000D01*
Y74000D02*
Y46398D01*
X292293Y127205D02*
Y122000D01*
X292250Y121957*
Y115000*
X294852Y102795D02*
Y98602D01*
X286750Y90500*
Y83602*
X296750Y46398D02*
Y25000D01*
X301750Y20000*
X297411Y102795D02*
Y97161D01*
X291750Y91500*
Y83602*
X298250Y352500D02*
X305750D01*
X299750Y272000D02*
Y282000D01*
Y339000D02*
Y328500D01*
X299970Y102795D02*
Y96000D01*
X296750Y92780*
Y83602*
X301750Y46398D02*
Y30000D01*
X302530Y102795D02*
Y94559D01*
X301750Y93780*
Y83602*
X305089Y102795D02*
Y95500D01*
X306750Y93839*
Y83602*
X305750Y352500D02*
X314250D01*
X306750Y46398D02*
Y25000D01*
X311750Y20000*
X307648Y102795D02*
Y96500D01*
X311750Y92398*
Y83602*
X310207Y102795D02*
Y97500D01*
X316750Y90957*
Y83602*
X311750Y46398D02*
Y30000D01*
X312352Y177205D02*
Y186398D01*
X311750Y187000*
X312766Y102795D02*
Y98500D01*
X321750Y89516*
Y83602*
X316750Y46398D02*
Y25000D01*
X321750Y20000*
Y46398D02*
Y30000D01*
X337573Y276067D02*
Y270177D01*
X338750Y269000*
X340132Y270382*
Y276067*
D02*
D19*
X16250Y128500D02*
Y97500D01*
X47950*
Y112000*
G75*
G02X48185Y112567I800*
G01*
X48250Y112631*
Y114369*
X48185Y114433*
G75*
G02X47950Y115000I565J567*
G01*
Y127000*
G75*
G02X48185Y127567I800*
G01*
X48250Y127631*
Y128500*
X16250*
X20589Y124646D02*
X45620D01*
Y103354*
X20589*
Y124646*
X48250Y114000D02*
G36*
X45620D01*
Y103354*
X20589*
Y114000*
X16250*
Y97500*
X47950*
Y112000*
Y112000*
G75*
G02X48185Y112567I800*
G01*
X48250Y112631*
Y114000*
G37*
Y128500D02*
G36*
X16250D01*
Y114000*
X20589*
Y124646*
X45620*
Y114000*
X48250*
Y114369*
X48185Y114433*
G75*
G02X47950Y115000I565J566*
G01*
Y115000*
Y127000*
Y127000*
G75*
G02X48185Y127567I800*
G01*
X48250Y127631*
Y128500*
G37*
X53750Y215500D02*
Y146000D01*
X66750*
Y147000*
X64750Y149000*
X59250*
X57750Y150500*
Y214500*
X119750Y276500*
Y308000*
X118750Y309000*
X115750*
X114750Y308000*
Y276500*
X53750Y215500*
G36*
Y146000*
X66750*
Y147000*
X64750Y149000*
X59250*
X57750Y150500*
Y214500*
X119750Y276500*
Y308000*
X118750Y309000*
X115750*
X114750Y308000*
Y276500*
X53750Y215500*
G37*
X72250Y69000D02*
X69250Y72000D01*
X61250*
X59750Y73500*
Y97000*
X69750*
X71750Y99000*
Y112000*
X70750Y113000*
X49750*
X48750Y112000*
Y59000*
G75*
G03X59750Y48000I11000*
G01*
X71250*
X72250Y49000*
Y69000*
X54742Y107992D02*
X65010D01*
Y102055*
X54742*
Y107992*
X49104Y94969D02*
X55396D01*
Y89031*
X49104*
Y94969*
X59750Y92000D02*
G36*
X55396D01*
Y89031*
X49104*
Y92000*
X48750*
Y59000*
G75*
G03X59750Y48000I11000*
G01*
X71250*
X72250Y49000*
Y69000*
X69250Y72000*
X61250*
X59750Y73500*
Y92000*
G37*
X71750Y105024D02*
G36*
X65010D01*
Y102055*
X54742*
Y105024*
X48750*
Y92000*
X49104*
Y94969*
X55396*
Y92000*
X59750*
Y97000*
X69750*
X71750Y99000*
Y105024*
G37*
X70750Y113000D02*
G36*
X49750D01*
X48750Y112000*
Y105024*
X54742*
Y107992*
X65010*
Y105024*
X71750*
Y112000*
X70750Y113000*
G37*
X76750Y178000D02*
Y162500D01*
X82750Y156500*
X85829*
Y162283*
X90191*
Y156500*
X90250*
Y165031*
X84604*
Y170969*
X90250*
Y173500*
X95750Y179000*
X147750*
Y186000*
X84750*
X76750Y178000*
G36*
Y162500*
X82750Y156500*
X85829*
Y162283*
X90191*
Y156500*
X90250*
Y165031*
X84604*
Y170969*
X90250*
Y173500*
X95750Y179000*
X147750*
Y186000*
X84750*
X76750Y178000*
G37*
X87750Y57000D02*
Y6000D01*
X89150Y4600*
X122350*
X122750Y5000*
Y37000*
X100750Y59000*
X89750*
X87750Y57000*
X107829Y22953D02*
G75*
G02X119671I5921D01*
G01*
Y17047*
G75*
G02X107829I-5921*
G01*
Y22953*
X96368Y55756D02*
G75*
G02X102368Y49756J-6000D01*
G01*
G75*
G02X96368Y43756I-6000*
G01*
G75*
G02X90368Y49756J6000*
G01*
G75*
G02X96368Y55756I6000*
G01*
X122750Y20000D02*
G36*
X119671D01*
Y17047*
G75*
G02X107829I-5921*
G01*
Y20000*
X87750*
Y6000*
X89150Y4600*
X122350*
X122750Y5000*
Y20000*
G37*
X109994Y49756D02*
G36*
X102368D01*
G75*
G02X96368Y43756I-6000*
G01*
G75*
G02X90368Y49756J6000*
G01*
X87750*
Y20000*
X107829*
Y22953*
G75*
G02X119671I5921*
G01*
Y20000*
X122750*
Y37000*
X109994Y49756*
G37*
X100750Y59000D02*
G36*
X89750D01*
X87750Y57000*
Y49756*
X90368*
G75*
G02X96368Y55756I6000*
G01*
G75*
G02X102368Y49756J-6000*
G01*
X109994*
X100750Y59000*
G37*
X96750Y152441D02*
Y155000D01*
X96250Y155500*
X83250*
X82750Y155000*
Y146000*
X81250Y144500*
X69250*
X64750Y149000*
X55750*
X53750Y147000*
Y138000*
X55750Y136000*
Y129000*
X54750Y128000*
X49750*
X48750Y127000*
Y115000*
X49750Y114000*
X70750*
X71750Y115000*
Y127000*
X70750Y128000*
X66750*
X65750Y129000*
Y134000*
X66750Y135000*
X87750*
X89250Y136500*
Y137031*
X83604*
Y142969*
X89250*
Y145717*
X85829*
Y152441*
X89691*
X89750Y152500*
X93750*
X93809Y152441*
X96750*
X56104Y135969D02*
X62396D01*
Y130031*
X56104*
Y135969*
X54742Y125945D02*
X65010D01*
Y120008*
X54742*
Y125945*
X71750Y122976D02*
G36*
X65010D01*
Y120008*
X54742*
Y122976*
X48750*
Y115000*
X49750Y114000*
X70750*
X71750Y115000*
Y122976*
G37*
X65750Y133000D02*
G36*
X62396D01*
Y130031*
X56104*
Y133000*
X55750*
Y129000*
X54750Y128000*
X49750*
X48750Y127000*
Y122976*
X54742*
Y125945*
X65010*
Y122976*
X71750*
Y127000*
X70750Y128000*
X66750*
X65750Y129000*
Y133000*
G37*
X96750Y152441D02*
G36*
Y155000D01*
X96250Y155500*
X83250*
X82750Y155000*
Y146000*
X81250Y144500*
X69250*
X64750Y149000*
X55750*
X53750Y147000*
Y138000*
X55750Y136000*
Y133000*
X56104*
Y135969*
X62396*
Y133000*
X65750*
Y134000*
X66750Y135000*
X87750*
X89250Y136500*
Y137031*
X83604*
Y142969*
X89250*
Y145717*
X85829*
Y152441*
X89691*
X89750Y152500*
X93750*
X93809Y152441*
X96750*
G37*
X105800Y143732D02*
Y139642D01*
X106742Y138700*
Y141244*
X111450*
Y155500*
G75*
G02X111685Y156067I800*
G01*
X113183Y157565*
G75*
G02X113750Y157800I567J-565*
G01*
X129250*
G75*
G02X129817Y157565J-800*
G01*
X130315Y157067*
G75*
G02X130550Y156500I-565J-567*
G01*
Y152000*
G75*
G02X130314Y151433I-800*
G01*
X126817Y147935*
G75*
G02X126250Y147700I-567J565*
G01*
X120050*
Y141244*
G75*
G02X119758Y140626I-800*
G01*
Y138700*
X122154Y141096*
G75*
G02X123251Y141550I1096J-1096*
G01*
X176608*
X189539Y154481*
Y173096*
X186346Y169904*
G75*
G02X185249Y169450I-1096J1096*
G01*
X108392*
X105800Y166858*
Y149268*
X111195*
Y143732*
X105800*
G36*
Y139642*
X106742Y138700*
Y141244*
X111450*
Y155500*
G75*
G02X111685Y156067I800*
G01*
X113183Y157565*
G75*
G02X113750Y157800I567J-565*
G01*
X129250*
G75*
G02X129817Y157565J-800*
G01*
X130315Y157067*
G75*
G02X130550Y156500I-565J-567*
G01*
Y152000*
G75*
G02X130314Y151433I-800*
G01*
X126817Y147935*
G75*
G02X126250Y147700I-567J565*
G01*
X120050*
Y141244*
G75*
G02X119758Y140626I-800*
G01*
Y138700*
X122154Y141096*
G75*
G02X123251Y141550I1096J-1096*
G01*
X176608*
X189539Y154481*
Y173096*
X186346Y169904*
G75*
G02X185249Y169450I-1096J1096*
G01*
X108392*
X105800Y166858*
Y149268*
X111195*
Y143732*
X105800*
G37*
X112278Y138500D02*
X114222D01*
Y141244*
X119250*
Y148500*
X126250*
X129750Y152000*
Y156500*
X129250Y157000*
X113750*
X112250Y155500*
Y141244*
X112278*
Y138500*
X112305Y149268D02*
X118195D01*
Y143732*
X112305*
Y149268*
X112350Y152000D02*
G75*
G02X117150I2400D01*
G01*
G75*
G02X112350I-2400*
G01*
X119250Y146500D02*
G36*
X118195D01*
Y143732*
X112305*
Y146500*
X112250*
Y141244*
X112278*
Y138500*
X114222*
Y141244*
X119250*
Y146500*
G37*
X129750Y152000D02*
G36*
X117150D01*
G75*
G02X112350I-2400*
G01*
X112250*
Y146500*
X112305*
Y149268*
X118195*
Y146500*
X119250*
Y148500*
X126250*
X129750Y152000*
G37*
G36*
Y156500*
X129250Y157000*
X113750*
X112250Y155500*
Y152000*
X112350*
G75*
G02X117150I2400*
G01*
X129750*
G37*
X113150D02*
G75*
G03X116350I1600D01*
G01*
G75*
G03X113150I-1600*
G01*
G36*
G75*
G03X116350I1600*
G01*
G75*
G03X113150I-1600*
G01*
G37*
X120750Y96412D02*
Y85000D01*
X125750Y80000*
X134750*
X138750Y84000*
X150750*
X157771Y91021*
Y101984*
X153907*
Y106929*
X157771*
Y108145*
X155014*
Y107988*
X152206*
Y101500*
X149706Y99000*
X123338*
X120750Y96412*
X123476Y89520D02*
G75*
G02X136976I6750D01*
G01*
G75*
G02X123476I-6750*
G01*
X156270D02*
G36*
X136976D01*
G75*
G02X123476I-6750*
G01*
X120750*
Y85000*
X125750Y80000*
X134750*
X138750Y84000*
X150750*
X156270Y89520*
G37*
X157771Y91021D02*
G36*
Y101984D01*
X153907*
Y106929*
X157771*
Y108145*
X155014*
Y107988*
X152206*
Y101500*
X149706Y99000*
X123338*
X120750Y96412*
Y89520*
X123476*
G75*
G02X136976I6750*
G01*
X156270*
X157771Y91021*
G37*
X124750Y53000D02*
Y5000D01*
X125150Y4600*
X142350*
X142750Y5000*
Y53000*
X136750Y59000*
X130750*
X124750Y53000*
X133769Y55756D02*
G75*
G02X139769Y49756J-6000D01*
G01*
G75*
G02X133769Y43756I-6000*
G01*
G75*
G02X127769Y49756J6000*
G01*
G75*
G02X133769Y55756I6000*
G01*
X127829Y22961D02*
G75*
G02X139671I5921D01*
G01*
Y17055*
G75*
G02X127829I-5921*
G01*
Y22961*
X142750Y20008D02*
G36*
X139671D01*
Y17055*
G75*
G02X127829I-5921*
G01*
Y20008*
X124750*
Y5000*
X125150Y4600*
X142350*
X142750Y5000*
Y20008*
G37*
Y49756D02*
G36*
X139769D01*
G75*
G02X133769Y43756I-6000*
G01*
G75*
G02X127769Y49756J6000*
G01*
X124750*
Y20008*
X127829*
Y22961*
G75*
G02X139671I5921*
G01*
Y20008*
X142750*
Y49756*
G37*
G36*
Y53000*
X136750Y59000*
X130750*
X124750Y53000*
Y49756*
X127769*
G75*
G02X133769Y55756I6000*
G01*
G75*
G02X139769Y49756J-6000*
G01*
X142750*
G37*
X150069Y110017D02*
X148587D01*
X148088Y110516*
Y122500*
X135108*
Y117769*
X144108Y108769*
X152031*
G75*
G02X152206Y108788I175J-781*
G01*
X154203*
Y109957*
X150069*
Y110017*
G36*
X148587*
X148088Y110516*
Y122500*
X135108*
Y117769*
X144108Y108769*
X152031*
G75*
G02X152206Y108788I175J-781*
G01*
X154203*
Y109957*
X150069*
Y110017*
G37*
X161486Y108145D02*
X158571D01*
Y106929*
X162593*
Y101984*
X158571*
Y90321*
X154750Y86500*
Y38500*
X149461Y33211*
Y33000*
X144750Y28289*
Y5000*
X145150Y4600*
X163912*
X164312Y5000*
Y107988*
X161486*
Y108145*
X147829Y22953D02*
G75*
G02X159671I5921D01*
G01*
Y17047*
G75*
G02X147829I-5921*
G01*
Y22953*
X164312Y20000D02*
G36*
X159671D01*
Y17047*
G75*
G02X147829I-5921*
G01*
Y20000*
X144750*
Y5000*
X145150Y4600*
X163912*
X164312Y5000*
Y20000*
G37*
X161486Y108145D02*
G36*
X158571D01*
Y106929*
X162593*
Y101984*
X158571*
Y90321*
X154750Y86500*
Y38500*
X149461Y33211*
Y33000*
X144750Y28289*
Y20000*
X147829*
Y22953*
G75*
G02X159671I5921*
G01*
Y20000*
X164312*
Y107988*
X161486*
Y108145*
G37*
X177750Y57000D02*
Y6000D01*
X179150Y4600*
X212350*
X212750Y5000*
Y37000*
X190750Y59000*
X179750*
X177750Y57000*
X197829Y22953D02*
G75*
G02X209671I5921D01*
G01*
Y17047*
G75*
G02X197829I-5921*
G01*
Y22953*
X185663Y55756D02*
G75*
G02X191663Y49756J-6000D01*
G01*
G75*
G02X185663Y43756I-6000*
G01*
G75*
G02X179663Y49756J6000*
G01*
G75*
G02X185663Y55756I6000*
G01*
X212750Y20000D02*
G36*
X209671D01*
Y17047*
G75*
G02X197829I-5921*
G01*
Y20000*
X177750*
Y6000*
X179150Y4600*
X212350*
X212750Y5000*
Y20000*
G37*
X199994Y49756D02*
G36*
X191663D01*
G75*
G02X185663Y43756I-6000*
G01*
G75*
G02X179663Y49756J6000*
G01*
X177750*
Y20000*
X197829*
Y22953*
G75*
G02X209671I5921*
G01*
Y20000*
X212750*
Y37000*
X199994Y49756*
G37*
X190750Y59000D02*
G36*
X179750D01*
X177750Y57000*
Y49756*
X179663*
G75*
G02X185663Y55756I6000*
G01*
G75*
G02X191663Y49756J-6000*
G01*
X199994*
X190750Y59000*
G37*
X186750Y235970D02*
Y246031D01*
X181104*
Y251969*
X186750*
Y257000*
X186250Y257500*
X180750*
X180037Y256787*
Y239937*
X184085Y235890*
Y235970*
X186750*
G36*
Y246031*
X181104*
Y251969*
X186750*
Y257000*
X186250Y257500*
X180750*
X180037Y256787*
Y239937*
X184085Y235890*
Y235970*
X186750*
G37*
X186980Y186000D02*
Y205030D01*
X184961*
Y201161*
G75*
G02X184507Y200065I-1550*
G01*
X177750Y193308*
Y191945*
X178518*
Y186055*
X177305*
X177250Y186000*
X134750*
X133750Y185000*
Y180500*
X135250Y179000*
X172781*
Y185146*
X178719*
Y179000*
X179750*
X180750Y180000*
Y186000*
X180781*
Y192146*
X186719*
Y186000*
X186980*
G36*
Y205030*
X184961*
Y201161*
G75*
G02X184507Y200065I-1550*
G01*
X177750Y193308*
Y191945*
X178518*
Y186055*
X177305*
X177250Y186000*
X134750*
X133750Y185000*
Y180500*
X135250Y179000*
X172781*
Y185146*
X178719*
Y179000*
X179750*
X180750Y180000*
Y186000*
X180781*
Y192146*
X186719*
Y186000*
X186980*
G37*
X187750Y212837D02*
Y214500D01*
X184961*
Y212837*
X187750*
G36*
Y214500*
X184961*
Y212837*
X187750*
G37*
X210750Y96412D02*
Y85000D01*
X215750Y80000*
X224750*
X228750Y84000*
X240750*
X247822Y91072*
Y101984*
X243907*
Y106929*
X247822*
Y108145*
X245014*
Y107988*
X242206*
Y101500*
X239706Y99000*
X213338*
X210750Y96412*
X212772Y89520D02*
G75*
G02X226272I6750D01*
G01*
G75*
G02X212772I-6750*
G01*
X246270D02*
G36*
X226272D01*
G75*
G02X212772I-6750*
G01*
X210750*
Y85000*
X215750Y80000*
X224750*
X228750Y84000*
X240750*
X246270Y89520*
G37*
X247822Y91072D02*
G36*
Y101984D01*
X243907*
Y106929*
X247822*
Y108145*
X245014*
Y107988*
X242206*
Y101500*
X239706Y99000*
X213338*
X210750Y96412*
Y89520*
X212772*
G75*
G02X226272I6750*
G01*
X246270*
X247822Y91072*
G37*
X211758Y140500D02*
X212750D01*
Y143500*
X221250Y152000*
Y156000*
X220250Y157000*
X207750*
X206250Y155500*
Y150268*
X211695*
Y144732*
X206250*
Y142744*
X211758*
Y140500*
G36*
X212750*
Y143500*
X221250Y152000*
Y156000*
X220250Y157000*
X207750*
X206250Y155500*
Y150268*
X211695*
Y144732*
X206250*
Y142744*
X211758*
Y140500*
G37*
X214750Y53000D02*
Y5000D01*
X215150Y4600*
X232350*
X232750Y5000*
Y53000*
X226750Y59000*
X220750*
X214750Y53000*
X223065Y55756D02*
G75*
G02X229065Y49756J-6000D01*
G01*
G75*
G02X223065Y43756I-6000*
G01*
G75*
G02X217065Y49756J6000*
G01*
G75*
G02X223065Y55756I6000*
G01*
X217829Y22953D02*
G75*
G02X229671I5921D01*
G01*
Y17047*
G75*
G02X217829I-5921*
G01*
Y22953*
X232750Y20000D02*
G36*
X229671D01*
Y17047*
G75*
G02X217829I-5921*
G01*
Y20000*
X214750*
Y5000*
X215150Y4600*
X232350*
X232750Y5000*
Y20000*
G37*
Y49756D02*
G36*
X229065D01*
G75*
G02X223065Y43756I-6000*
G01*
G75*
G02X217065Y49756J6000*
G01*
X214750*
Y20000*
X217829*
Y22953*
G75*
G02X229671I5921*
G01*
Y20000*
X232750*
Y49756*
G37*
G36*
Y53000*
X226750Y59000*
X220750*
X214750Y53000*
Y49756*
X217065*
G75*
G02X223065Y55756I6000*
G01*
G75*
G02X229065Y49756J-6000*
G01*
X232750*
G37*
X240069Y110017D02*
X238729D01*
X238230Y110516*
Y122500*
X225250*
Y117769*
X234250Y108769*
X242031*
G75*
G02X242206Y108788I175J-781*
G01*
X244345*
Y109957*
X240069*
Y110017*
G36*
X238729*
X238230Y110516*
Y122500*
X225250*
Y117769*
X234250Y108769*
X242031*
G75*
G02X242206Y108788I175J-781*
G01*
X244345*
Y109957*
X240069*
Y110017*
G37*
X251486Y108145D02*
X248622D01*
Y106929*
X252593*
Y101984*
X248622*
Y91072*
G75*
G02X248571Y90791I-800*
G01*
Y90321*
X244750Y86500*
Y38500*
X239461Y33211*
Y33000*
X234750Y28289*
Y5000*
X235150Y4600*
X253912*
X254312Y5000*
Y107988*
X251486*
Y108145*
X237829Y22953D02*
G75*
G02X249671I5921D01*
G01*
Y17047*
G75*
G02X237829I-5921*
G01*
Y22953*
X254312Y20000D02*
G36*
X249671D01*
Y17047*
G75*
G02X237829I-5921*
G01*
Y20000*
X234750*
Y5000*
X235150Y4600*
X253912*
X254312Y5000*
Y20000*
G37*
X251486Y108145D02*
G36*
X248622D01*
Y106929*
X252593*
Y101984*
X248622*
Y91072*
G75*
G02X248571Y90791I-807J1*
G01*
Y90321*
X244750Y86500*
Y38500*
X239461Y33211*
Y33000*
X234750Y28289*
Y20000*
X237829*
Y22953*
G75*
G02X249671I5921*
G01*
Y20000*
X254312*
Y107988*
X251486*
Y108145*
G37*
X275750Y125500D02*
Y115000D01*
X285250*
Y119500*
X287750Y122000*
Y123650*
X285589*
Y130760*
X287750*
Y138500*
X287250Y139000*
X283750*
X283250Y138500*
Y133000*
X275750Y125500*
X278482Y121445D02*
X284018D01*
Y115555*
X278482*
Y121445*
X285250Y118500D02*
G36*
X284018D01*
Y115555*
X278482*
Y118500*
X275750*
Y115000*
X285250*
Y118500*
G37*
X287250Y139000D02*
G36*
X283750D01*
X283250Y138500*
Y133000*
X275750Y125500*
Y118500*
X278482*
Y121445*
X284018*
Y118500*
X285250*
Y119500*
X287750Y122000*
Y123650*
X285589*
Y130760*
X287750*
Y138500*
X287250Y139000*
G37*
X283250Y182000D02*
Y171500D01*
X284250Y170500*
X304250*
X305750Y172000*
Y173650*
X303089*
Y180760*
X305750*
Y183000*
X303750Y185000*
X294250*
X292250Y183000*
X284250*
X283250Y182000*
X291982Y176945D02*
X297518D01*
Y171055*
X291982*
Y176945*
X303089Y174000D02*
G36*
X297518D01*
Y171055*
X291982*
Y174000*
X283250*
Y171500*
X284250Y170500*
X304250*
X305750Y172000*
Y173650*
X303089*
Y174000*
G37*
X305750Y180760D02*
G36*
Y183000D01*
X303750Y185000*
X294250*
X292250Y183000*
X284250*
X283250Y182000*
Y174000*
X291982*
Y176945*
X297518*
Y174000*
X303089*
Y180760*
X305750*
G37*
X329550Y341169D02*
Y331500D01*
G75*
G02X329315Y330933I-800*
G01*
X328317Y329935*
G75*
G02X327750Y329700I-567J565*
G01*
X322077*
G75*
G02X321380Y330106J800*
G01*
X320207*
Y329000*
G75*
G02X319781Y327969I-1457*
G01*
X316111Y324300*
X337152*
X339462Y326609*
G75*
G02X336920Y329576I-212J2391*
G01*
G75*
G02X336773Y330177I1153J601*
G01*
Y332862*
X336388*
Y340272*
X342847*
X340419Y342700*
X331081*
X329550Y341169*
G36*
Y331500*
G75*
G02X329315Y330933I-800*
G01*
X328317Y329935*
G75*
G02X327750Y329700I-567J565*
G01*
X322077*
G75*
G02X321380Y330106J800*
G01*
X320207*
Y329000*
G75*
G02X319781Y327969I-1457*
G01*
X316111Y324300*
X337152*
X339462Y326609*
G75*
G02X336920Y329576I-212J2391*
G01*
G75*
G02X336773Y330177I1153J601*
G01*
Y332862*
X336388*
Y340272*
X342847*
X340419Y342700*
X331081*
X329550Y341169*
G37*
X330050Y280169D02*
Y268000D01*
G75*
G02X329815Y267433I-800*
G01*
X328817Y266435*
G75*
G02X328250Y266200I-567J565*
G01*
X321628*
G75*
G02X321011Y266485I-5J800*
G01*
G75*
G02X320999Y266500I597J503*
G01*
G75*
G03X320221Y267029I-1249J-1001*
G01*
G75*
G02X320208Y267033I215J732*
G01*
G75*
G02X319891Y267228I249J761*
G01*
X319715Y267404*
X316111Y263800*
X335652*
X338469Y266617*
G75*
G02X336359Y269213I281J2383*
G01*
G75*
G02X336023Y270177I1214J965*
G01*
Y272362*
X335888*
Y279772*
X341847*
X338919Y282700*
X332581*
X330050Y280169*
G36*
Y268000*
G75*
G02X329815Y267433I-800*
G01*
X328817Y266435*
G75*
G02X328250Y266200I-567J565*
G01*
X321628*
G75*
G02X321011Y266485I-5J800*
G01*
G75*
G02X320999Y266500I597J503*
G01*
G75*
G03X320221Y267029I-1249J-1001*
G01*
G75*
G02X320208Y267033I215J732*
G01*
G75*
G02X319891Y267228I249J761*
G01*
X319715Y267404*
X316111Y263800*
X335652*
X338469Y266617*
G75*
G02X336359Y269213I281J2383*
G01*
G75*
G02X336023Y270177I1214J965*
G01*
Y272362*
X335888*
Y279772*
X341847*
X338919Y282700*
X332581*
X330050Y280169*
G37*
X343610Y248081D02*
X339830Y244300D01*
X345211*
X346509Y245598*
Y249228*
X343991*
Y249000*
G75*
G02X343610Y248081I-1300*
G01*
G36*
X339830Y244300*
X345211*
X346509Y245598*
Y249228*
X343991*
Y249000*
G75*
G02X343610Y248081I-1300*
G01*
G37*
X344491Y309728D02*
Y309500D01*
G75*
G02X344110Y308581I-1300*
G01*
X340830Y305300*
X346211*
X347009Y306098*
Y309728*
X344491*
G36*
Y309500*
G75*
G02X344110Y308581I-1300*
G01*
X340830Y305300*
X346211*
X347009Y306098*
Y309728*
X344491*
G37*
X347022Y279772D02*
X349250Y282000D01*
Y286500*
X348250Y287500*
X347518*
Y282055*
X341982*
Y287500*
X341250*
X340250Y288500*
Y292000*
X339250Y293000*
X330750*
X329750Y292000*
Y286000*
X328750Y285000*
X327518*
Y279555*
X321982*
Y285000*
X320676*
Y276717*
X322577*
Y269606*
X320519*
Y268969*
G75*
G02X320250Y268177I-1300*
G01*
Y268000*
X320456Y267794*
G75*
G02X321624Y267000I-706J-2294*
G01*
X328250*
X329250Y268000*
Y280500*
X332250Y283500*
X339250*
X342978Y279772*
X347022*
G36*
X349250Y282000*
Y286500*
X348250Y287500*
X347518*
Y282055*
X341982*
Y287500*
X341250*
X340250Y288500*
Y292000*
X339250Y293000*
X330750*
X329750Y292000*
Y286000*
X328750Y285000*
X327518*
Y279555*
X321982*
Y285000*
X320676*
Y276717*
X322577*
Y269606*
X320519*
Y268969*
G75*
G02X320250Y268177I-1300*
G01*
Y268000*
X320456Y267794*
G75*
G02X321624Y267000I-706J-2294*
G01*
X328250*
X329250Y268000*
Y280500*
X332250Y283500*
X339250*
X342978Y279772*
X347022*
G37*
X347522Y340272D02*
X349750Y342500D01*
Y347500*
X349250Y348000*
X348018*
Y342555*
X342482*
Y348000*
X339250*
X338750Y348500*
Y354000*
X337750Y355000*
X332250*
X331250Y354000*
Y349000*
X330250Y348000*
X327018*
Y342555*
X321482*
Y348000*
X320250*
X319750Y347500*
Y338823*
G75*
G02X320019Y338031I-1032J-791*
G01*
Y337217*
X322077*
Y330500*
X327750*
X328750Y331500*
Y341500*
X330750Y343500*
X340750*
X343978Y340272*
X347522*
G36*
X349750Y342500*
Y347500*
X349250Y348000*
X348018*
Y342555*
X342482*
Y348000*
X339250*
X338750Y348500*
Y354000*
X337750Y355000*
X332250*
X331250Y354000*
Y349000*
X330250Y348000*
X327018*
Y342555*
X321482*
Y348000*
X320250*
X319750Y347500*
Y338823*
G75*
G02X320019Y338031I-1032J-791*
G01*
Y337217*
X322077*
Y330500*
X327750*
X328750Y331500*
Y341500*
X330750Y343500*
X340750*
X343978Y340272*
X347522*
G37*
X399150Y380421D02*
G75*
G02X374210Y383071I-12330J2650D01*
G01*
G75*
G02X384171Y395400I12611*
G01*
X23329*
G75*
G02X33290Y383071I-2650J-12330*
G01*
G75*
G02X8350Y380421I-12611*
G01*
Y19579*
G75*
G02X33290Y16929I12330J-2650*
G01*
G75*
G02X23329Y4600I-12611*
G01*
X88019*
X87185Y5433*
G75*
G02X86950Y6000I565J567*
G01*
Y57000*
G75*
G02X87185Y57567I800*
G01*
X89183Y59565*
G75*
G02X89750Y59800I567J-565*
G01*
X100750*
G75*
G02X101317Y59565J-800*
G01*
X110559Y50322*
G75*
G02X110561Y50321I-672J-674*
G01*
X123315Y37567*
G75*
G02X123550Y37000I-565J-567*
G01*
Y5000*
G75*
G02X123443Y4600I-800*
G01*
X124057*
G75*
G02X123950Y5000I693J400*
G01*
Y53000*
G75*
G02X124185Y53567I800*
G01*
X125976Y55357*
X100654Y80679*
G75*
G02X100200Y81775I1096J1096*
G01*
Y102232*
X98805*
Y107768*
X104695*
Y102232*
X103300*
Y82417*
X128168Y57549*
X130183Y59565*
G75*
G02X130750Y59800I567J-565*
G01*
X136750*
G75*
G02X137317Y59565J-800*
G01*
X143315Y53567*
G75*
G02X143550Y53000I-565J-567*
G01*
Y5000*
G75*
G02X143443Y4600I-800*
G01*
X144057*
G75*
G02X143950Y5000I693J400*
G01*
Y28289*
G75*
G02X144185Y28856I800*
G01*
X148672Y33342*
G75*
G02X148896Y33777I790J-131*
G01*
X153950Y38831*
Y86069*
X151317Y83435*
G75*
G02X150750Y83200I-567J565*
G01*
X139081*
X135317Y79435*
G75*
G02X134750Y79200I-567J565*
G01*
X125750*
G75*
G02X125183Y79435J800*
G01*
X120185Y84433*
G75*
G02X119950Y85000I565J567*
G01*
Y96412*
G75*
G02X120185Y96978I800*
G01*
X122200Y98993*
Y102232*
X120805*
Y107768*
X126695*
Y102232*
X125300*
Y99800*
X149375*
X151406Y101831*
Y107969*
X144108*
G75*
G02X143542Y108204J800*
G01*
X134543Y117202*
G75*
G02X134308Y117769I565J567*
G01*
Y122500*
G75*
G02X135108Y123300I800*
G01*
X148088*
G75*
G02X148888Y122500J-800*
G01*
Y110848*
X148919Y110817*
X150069*
Y112736*
X155014*
Y108945*
X157771*
G75*
G02X158171Y108838J-800*
G01*
G75*
G02X158571Y108945I400J-693*
G01*
X161486*
Y112736*
X166431*
Y107988*
X165112*
Y5000*
G75*
G02X165005Y4600I-800*
G01*
X178019*
X177185Y5433*
G75*
G02X176950Y6000I565J567*
G01*
Y57000*
G75*
G02X177185Y57567I800*
G01*
X179183Y59565*
G75*
G02X179750Y59800I567J-565*
G01*
X190750*
G75*
G02X191317Y59565J-800*
G01*
X200559Y50322*
G75*
G02X200561Y50321I-672J-674*
G01*
X213315Y37567*
G75*
G02X213550Y37000I-565J-567*
G01*
Y5000*
G75*
G02X213443Y4600I-800*
G01*
X214057*
G75*
G02X213950Y5000I693J400*
G01*
Y53000*
G75*
G02X214185Y53567I800*
G01*
X215624Y55005*
X189654Y80975*
G75*
G02X189200Y82071I1096J1096*
G01*
Y102232*
X187805*
Y107768*
X193695*
Y102232*
X192300*
Y82713*
X217816Y57197*
X220183Y59565*
G75*
G02X220750Y59800I567J-565*
G01*
X226750*
G75*
G02X227317Y59565J-800*
G01*
X233315Y53567*
G75*
G02X233550Y53000I-565J-567*
G01*
Y5000*
G75*
G02X233443Y4600I-800*
G01*
X234057*
G75*
G02X233950Y5000I693J400*
G01*
Y28289*
G75*
G02X234185Y28856I800*
G01*
X238672Y33342*
G75*
G02X238896Y33777I790J-131*
G01*
X243950Y38831*
Y86069*
X241317Y83435*
G75*
G02X240750Y83200I-567J565*
G01*
X229081*
X225317Y79435*
G75*
G02X224750Y79200I-567J565*
G01*
X215750*
G75*
G02X215183Y79435J800*
G01*
X210185Y84433*
G75*
G02X209950Y85000I565J567*
G01*
Y96412*
G75*
G02X210185Y96978I800*
G01*
X210543Y97336*
Y102232*
X209305*
Y107768*
X215195*
Y102232*
X213957*
Y99800*
X239375*
X241406Y101831*
Y107969*
X234250*
G75*
G02X233683Y108204J800*
G01*
X224685Y117202*
G75*
G02X224450Y117769I565J567*
G01*
Y122500*
G75*
G02X225250Y123300I800*
G01*
X238230*
G75*
G02X239030Y122500J-800*
G01*
Y110848*
X239060Y110817*
X240069*
Y112736*
X245014*
Y110396*
G75*
G02X245145Y109957I-669J-439*
G01*
Y108945*
X247822*
G75*
G02X248222Y108838J-800*
G01*
G75*
G02X248622Y108945I400J-693*
G01*
X251486*
Y112736*
X256431*
Y107988*
X255112*
Y5000*
G75*
G02X255005Y4600I-800*
G01*
X384171*
G75*
G02X374210Y16929I2650J12330*
G01*
G75*
G02X399150Y19579I12611*
G01*
Y380421*
X379750Y250000D02*
G75*
G02X387750I4000D01*
G01*
G75*
G02X379750I-4000*
G01*
X379950Y220000D02*
G75*
G02X387550I3800D01*
G01*
G75*
G02X382144Y216556I-3800*
G01*
X379669Y214081*
G75*
G02X378748Y213700I-919J920*
G01*
X374616*
G75*
G02Y206300I-866J-3700*
G01*
X378211*
X380306Y208394*
G75*
G02X383750Y213800I3444J1606*
G01*
G75*
G02Y206200J-3800*
G01*
G75*
G02X382144Y206556J3800*
G01*
X379669Y204081*
G75*
G02X378748Y203700I-919J920*
G01*
X374616*
G75*
G02Y196300I-866J-3700*
G01*
X378211*
X380306Y198394*
G75*
G02X383750Y203800I3444J1606*
G01*
G75*
G02Y196200J-3800*
G01*
G75*
G02X382144Y196556J3800*
G01*
X379669Y194081*
G75*
G02X378748Y193700I-919J920*
G01*
X374616*
G75*
G02Y186300I-866J-3700*
G01*
X378211*
X380306Y188394*
G75*
G02X383750Y193800I3444J1606*
G01*
G75*
G02Y186200J-3800*
G01*
G75*
G02X382144Y186556J3800*
G01*
X379669Y184081*
G75*
G02X378748Y183700I-919J920*
G01*
X375270*
G75*
G02X373750Y176000I-1520J-3700*
G01*
G75*
G02X372230Y183700J4000*
G01*
X334289*
X334125Y183536*
Y180760*
X334411*
Y173650*
X311207*
Y168000*
G75*
G02X310780Y166969I-1457J0*
G01*
X293751Y149897*
Y130760*
X316911*
Y123677*
X317289Y123300*
X347248*
G75*
G02X348169Y122919I2J-1300*
G01*
X369789Y101300*
X370179*
G75*
G02X377550Y100000I3571J-1300*
G01*
G75*
G02X374616Y96300I-3800*
G01*
X378211*
X380306Y98394*
G75*
G02X383750Y103800I3444J1606*
G01*
G75*
G02Y96200J-3800*
G01*
G75*
G02X382144Y96556J3800*
G01*
X379669Y94081*
G75*
G02X378748Y93700I-919J920*
G01*
X374616*
G75*
G02Y86300I-866J-3700*
G01*
X378211*
X380306Y88394*
G75*
G02X383750Y93800I3444J1606*
G01*
G75*
G02Y86200J-3800*
G01*
G75*
G02X382144Y86556J3800*
G01*
X379669Y84081*
G75*
G02X378748Y83700I-919J920*
G01*
X374616*
G75*
G02Y76300I-866J-3700*
G01*
X378211*
X380306Y78394*
G75*
G02X383750Y83800I3444J1606*
G01*
G75*
G02Y76200J-3800*
G01*
G75*
G02X382144Y76556J3800*
G01*
X379669Y74081*
G75*
G02X378748Y73700I-919J920*
G01*
X374616*
G75*
G02Y66300I-866J-3700*
G01*
X378211*
X380306Y68394*
G75*
G02X383750Y73800I3444J1606*
G01*
G75*
G02Y66200J-3800*
G01*
G75*
G02X382144Y66556J3800*
G01*
X379669Y64081*
G75*
G02X378748Y63700I-919J920*
G01*
X375270*
G75*
G02X373750Y56000I-1520J-3700*
G01*
G75*
G02X372230Y63700J4000*
G01*
X369252*
G75*
G02X368331Y64081I-2J1300*
G01*
X325711Y106700*
X311414*
G75*
G02X310492Y107081I-2J1300*
G01*
X296492Y121081*
G75*
G02X296111Y122000I919J919*
G01*
Y123650*
X294001*
Y116642*
G75*
G02X294650Y115000I-1751J-1642*
G01*
G75*
G02X289850I-2400*
G01*
G75*
G02X290242Y116315I2400*
G01*
G75*
G02X288184Y120650I-992J2185*
G01*
Y121303*
X286050Y119169*
Y115000*
G75*
G02X285250Y114200I-800*
G01*
X284018*
Y108555*
X278482*
Y114200*
X275750*
G75*
G02X274950Y115000J800*
G01*
Y125500*
G75*
G02X275185Y126067I800*
G01*
X282450Y133331*
Y138500*
G75*
G02X282685Y139067I800*
G01*
X283183Y139565*
G75*
G02X283750Y139800I567J-565*
G01*
X287250*
G75*
G02X287817Y139565J-800*
G01*
X288315Y139067*
G75*
G02X288434Y138915I-565J-567*
G01*
Y150500*
G75*
G02X288815Y151419I1300*
G01*
X305950Y168554*
Y171069*
X304817Y169935*
G75*
G02X304250Y169700I-567J565*
G01*
X297518*
Y164055*
X291982*
Y169700*
X284250*
G75*
G02X283683Y169935J800*
G01*
X282685Y170933*
G75*
G02X282450Y171500I565J567*
G01*
Y182000*
G75*
G02X282685Y182567I800*
G01*
X283683Y183565*
G75*
G02X284250Y183800I567J-565*
G01*
X291919*
X293683Y185565*
G75*
G02X294250Y185800I567J-565*
G01*
X303111*
X302831Y186081*
G75*
G02X302450Y187000I919J919*
G01*
Y205500*
G75*
G02X302831Y206419I1300*
G01*
X305950Y209539*
Y259500*
G75*
G02X306026Y259937I1300J0*
G01*
X294169Y248081*
G75*
G02X293248Y247700I-919J920*
G01*
X213018*
Y246055*
X211800*
Y245500*
G75*
G02X211346Y244404I-1550*
G01*
X203846Y236904*
G75*
G02X202749Y236450I-1096J1096*
G01*
X198392*
X197757Y235815*
Y235772*
X200451*
Y232343*
G75*
G02X200473Y232067I-1685J-276*
G01*
Y228719*
X202962Y226207*
X242750*
G75*
G02X243959Y225706J-1707*
G01*
X246503Y223161*
G75*
G02X247005Y221953I-1206J-1209*
G01*
Y120500*
G75*
G02X246597Y119393I-1707*
G01*
Y118150*
X252593*
Y113205*
X243907*
Y118150*
X243997*
Y119393*
G75*
G02X243590Y120500I1300J1107*
G01*
Y221246*
X242043Y222793*
X202250*
G75*
G02X201036Y223299J1707*
G01*
X197554Y226813*
G75*
G02X197058Y228016I1212J1203*
G01*
Y228362*
X192639*
Y224142*
X197731Y219050*
X228918*
G75*
G02X233150Y217500I1832J-1550*
G01*
G75*
G02X228918Y215950I-2400*
G01*
X197090*
G75*
G02X195993Y216404I-1J1550*
G01*
X189993Y222404*
G75*
G02X189539Y223500I1096J1096*
G01*
Y228362*
X184961*
Y225161*
G75*
G02X184507Y224065I-1550*
G01*
X182846Y222404*
G75*
G02X181749Y221950I-1096J1096*
G01*
X161751*
G75*
G02X160654Y222404I-1J1550*
G01*
X156654Y226404*
G75*
G02X156200Y227500I1096J1096*
G01*
Y318668*
G75*
G02X155350Y320500I1550J1832*
G01*
G75*
G02X160150I2400*
G01*
G75*
G02X159300Y318668I-2400*
G01*
Y228142*
X162392Y225050*
X169202*
G75*
G02X168654Y225404I548J1450*
G01*
X163654Y230404*
G75*
G02X163200Y231500I1096J1096*
G01*
Y333342*
G75*
G02X161850Y335500I1050J2158*
G01*
G75*
G02X166650I2400*
G01*
G75*
G02X166300Y334252I-2400*
G01*
Y232142*
X170392Y228050*
X179108*
X179302Y228244*
Y228362*
X174049*
Y235772*
X174184*
Y235858*
X170654Y239388*
G75*
G02X170200Y240484I1096J1096*
G01*
Y357668*
G75*
G02X169918Y357950I1550J1832*
G01*
X169892*
X167300Y355358*
Y346500*
G75*
G02X166846Y345404I-1550*
G01*
X164846Y343404*
G75*
G02X163749Y342950I-1096J1096*
G01*
X160195*
Y341732*
X154305*
Y347268*
X160195*
Y346050*
X163108*
X164200Y347142*
Y356000*
G75*
G02X164654Y357096I1550*
G01*
X168154Y360596*
G75*
G02X169251Y361050I1096J-1096*
G01*
X169918*
G75*
G02X174150Y359500I1832J-1550*
G01*
G75*
G02X173300Y357668I-2400*
G01*
Y241126*
X176586Y237841*
Y362793*
X168976Y370403*
G75*
G02X166393Y370451I-1226J3598*
G01*
X158800Y362858*
Y356768*
X160195*
Y351232*
X154305*
Y356768*
X155700*
Y363500*
G75*
G02X156154Y364596I1550*
G01*
X164201Y372643*
G75*
G02X167750Y377800I3549J1357*
G01*
G75*
G02X171369Y372840J-3800*
G01*
X179499Y364709*
G75*
G02X180001Y363500I-1206J-1209*
G01*
Y257882*
X180183Y258065*
G75*
G02X180750Y258300I567J-565*
G01*
X186250*
G75*
G02X186817Y258065J-800*
G01*
X187315Y257567*
G75*
G02X187550Y257000I-565J-567*
G01*
Y251969*
G75*
G02X187195Y251304I-800*
G01*
Y246696*
G75*
G02X187550Y246031I-445J-665*
G01*
Y235970*
G75*
G02X187525Y235772I-800J0*
G01*
X189539*
Y239339*
G75*
G02X189993Y240435I1550*
G01*
X194654Y245096*
G75*
G02X195751Y245550I1096J-1096*
G01*
X198108*
X198156Y245598*
X197860*
Y251488*
X203400*
Y245842*
X204200Y246642*
Y265000*
G75*
G02X204654Y266096I1550*
G01*
X211654Y273096*
G75*
G02X212751Y273550I1096J-1096*
G01*
X286280*
G75*
G02X288200Y275470I3470J-1550*
G01*
Y325030*
G75*
G02X285950Y328500I1550J3470*
G01*
G75*
G02X293550I3800*
G01*
G75*
G02X291300Y325030I-3800*
G01*
Y275470*
G75*
G02X293550Y272000I-1550J-3470*
G01*
G75*
G02X286280Y270450I-3800*
G01*
X213392*
X207300Y264358*
Y246000*
G75*
G02X206846Y244904I-1550*
G01*
X201846Y239904*
G75*
G02X201298Y239550I-1096J1096*
G01*
X202108*
X208613Y246055*
X207482*
Y251945*
X213018*
Y250300*
X292711*
X312013Y269602*
Y269606*
X311923*
Y276051*
X309831Y278144*
G75*
G02X309450Y279063I919J919*
G01*
Y296461*
X302331Y303581*
G75*
G02X301950Y304500I919J919*
G01*
Y324500*
G75*
G02X302331Y325419I1300*
G01*
X306831Y329919*
G75*
G02X307752Y330300I919J-920*
G01*
X311211*
X311423Y330512*
Y337200*
X310289*
X303194Y330106*
G75*
G02X303550Y328500I-3444J-1606*
G01*
G75*
G02X295950I-3800*
G01*
G75*
G02X298200Y331970I3800*
G01*
Y336232*
X296805*
Y341768*
X302695*
Y336232*
X301300*
Y331970*
G75*
G02X301356Y331944I-1563J-3462*
G01*
X308611Y339200*
X307252*
G75*
G02X306331Y339581I-2J1300*
G01*
X304831Y341081*
G75*
G02X304450Y342000I919J919*
G01*
Y342555*
X302982*
Y348445*
X308518*
Y342555*
X307050*
Y342539*
X307789Y341800*
X313155*
G75*
G02X312950Y342500I1095J700*
G01*
Y342555*
X311482*
Y348445*
X317018*
Y342555*
X316033*
X318950Y339639*
Y347500*
G75*
G02X319185Y348067I800*
G01*
X319683Y348565*
G75*
G02X320250Y348800I567J-565*
G01*
X321482*
G75*
G02X322147Y348445J-800*
G01*
X326353*
G75*
G02X327018Y348800I665J-445*
G01*
X329919*
X330450Y349331*
Y354000*
G75*
G02X330685Y354567I800*
G01*
X331683Y355565*
G75*
G02X332250Y355800I567J-565*
G01*
X337750*
G75*
G02X338317Y355565J-800*
G01*
X339315Y354567*
G75*
G02X339550Y354000I-565J-567*
G01*
Y348831*
X339581Y348800*
X342482*
G75*
G02X343147Y348445J-800*
G01*
X347353*
G75*
G02X348018Y348800I665J-445*
G01*
X349250*
G75*
G02X349817Y348565J-800*
G01*
X350315Y348067*
G75*
G02X350550Y347500I-565J-567*
G01*
Y342500*
G75*
G02X350315Y341933I-800*
G01*
X348653Y340272*
X349568*
Y340618*
G75*
G02X349951Y341539I1300J0*
G01*
X350329Y341917*
G75*
G02X351250Y342300I922J-917*
G01*
X352711*
X353831Y343419*
G75*
G02X354752Y343800I919J-920*
G01*
X366248*
G75*
G02X367169Y343419I2J-1300*
G01*
X369289Y341300*
X370179*
G75*
G02X377550Y340000I3571J-1300*
G01*
G75*
G02X370179Y338700I-3800*
G01*
X368752*
G75*
G02X367831Y339081I-2J1300*
G01*
X365711Y341200*
X355289*
X354727Y340639*
Y340272*
X355112*
Y332862*
X349609*
Y330559*
G75*
G02X349228Y329640I-1300*
G01*
X339669Y320081*
G75*
G02X338748Y319700I-919J920*
G01*
X322077*
Y312783*
X320019*
Y307570*
X320289Y307300*
X339152*
X339552Y307700*
X338750*
G75*
G02X337829Y308083I0J1300*
G01*
X337156Y308756*
G75*
G02X336773Y309677I917J922*
G01*
Y309728*
X336388*
Y317138*
X339332*
Y317500*
G75*
G02X339713Y318419I1300*
G01*
X342213Y320919*
G75*
G02X343134Y321300I919J-920*
G01*
X370179*
G75*
G02X377550Y320000I3571J-1300*
G01*
G75*
G02X370179Y318700I-3800*
G01*
X343670*
X342108Y317138*
X355112*
Y309728*
X354727*
Y309539*
X355966Y308300*
X370211*
X370306Y308394*
G75*
G02X373750Y313800I3444J1606*
G01*
G75*
G02Y306200J-3800*
G01*
G75*
G02X372144Y306556J3800*
G01*
X371669Y306081*
G75*
G02X370748Y305700I-919J920*
G01*
X355430*
G75*
G02X354508Y306081I-2J1300*
G01*
X352882Y307707*
G75*
G02X352750Y307700I-132J1293*
G01*
X351250*
G75*
G02X350329Y308083I0J1300*
G01*
X349951Y308461*
G75*
G02X349609Y309058I917J922*
G01*
Y305559*
G75*
G02X349226Y304638I-1300J0*
G01*
X347671Y303083*
G75*
G02X346750Y302700I-922J917*
G01*
X318752*
G75*
G02X317831Y303081I-2J1300*
G01*
X315831Y305081*
G75*
G02X315450Y306000I919J919*
G01*
Y312783*
X311423*
Y319894*
X311513*
Y321000*
G75*
G02X311894Y321919I1300*
G01*
X313517Y323543*
X310354*
X308707Y321896*
Y306572*
X320249Y295031*
G75*
G02X320676Y294000I-1031J-1031*
G01*
Y285800*
X321982*
G75*
G02X322647Y285445J-800*
G01*
X326853*
G75*
G02X327518Y285800I665J-445*
G01*
X328419*
X328950Y286331*
Y292000*
G75*
G02X329185Y292567I800*
G01*
X330183Y293565*
G75*
G02X330750Y293800I567J-565*
G01*
X339250*
G75*
G02X339817Y293565J-800*
G01*
X340815Y292567*
G75*
G02X341050Y292000I-565J-567*
G01*
Y288831*
X341581Y288300*
X341982*
G75*
G02X342647Y287945J-800*
G01*
X346853*
G75*
G02X347518Y288300I665J-445*
G01*
X348250*
G75*
G02X348817Y288065J-800*
G01*
X349815Y287067*
G75*
G02X350050Y286500I-565J-567*
G01*
Y282000*
G75*
G02X349815Y281433I-800*
G01*
X348153Y279772*
X349068*
Y280118*
G75*
G02X349451Y281039I1300J0*
G01*
X349829Y281417*
G75*
G02X350750Y281800I922J-917*
G01*
X355748*
G75*
G02X356669Y281419I2J-1300*
G01*
X356789Y281300*
X370179*
G75*
G02X377550Y280000I3571J-1300*
G01*
G75*
G02X370179Y278700I-3800*
G01*
X356252*
G75*
G02X355331Y279081I-2J1300*
G01*
X355211Y279200*
X354612*
Y272362*
X349109*
Y271000*
G75*
G02X348728Y270081I-1300*
G01*
X338228Y259581*
G75*
G02X337307Y259200I-919J920*
G01*
X322577*
Y252283*
X320519*
Y246570*
X320789Y246300*
X338152*
X339601Y247748*
G75*
G02X339248Y247700I-350J1253*
G01*
X338250*
G75*
G02X337329Y248083I0J1300*
G01*
X336656Y248756*
G75*
G02X336353Y249228I917J922*
G01*
X335888*
Y256638*
X336311*
G75*
G02X336654Y257242I1261J-315*
G01*
X340331Y260919*
G75*
G02X341252Y261300I919J-920*
G01*
X370179*
G75*
G02X377550Y260000I3571J-1300*
G01*
G75*
G02X370179Y258700I-3800*
G01*
X341789*
X339726Y256638*
X354612*
Y249228*
X354227*
Y246861*
X354289Y246800*
X368711*
X370306Y248394*
G75*
G02X373750Y253800I3444J1606*
G01*
G75*
G02Y246200J-3800*
G01*
G75*
G02X372144Y246556J3800*
G01*
X370169Y244581*
G75*
G02X369248Y244200I-919J920*
G01*
X353750*
G75*
G02X352829Y244583I0J1300*
G01*
X352010Y245402*
G75*
G02X351786Y245700I917J921*
G01*
X351252*
G75*
G02X350331Y246081I-2J1300*
G01*
X349449Y246963*
G75*
G02X349109Y247558I920J919*
G01*
Y245059*
G75*
G02X348728Y244140I-1300*
G01*
X346669Y242081*
G75*
G02X345748Y241700I-919J920*
G01*
X319252*
G75*
G02X318331Y242081I-2J1300*
G01*
X316331Y244081*
G75*
G02X315950Y245000I919J919*
G01*
Y252283*
X311923*
Y259394*
X312013*
Y259702*
X311207Y258896*
Y208500*
G75*
G02X310781Y207469I-1457*
G01*
X307207Y203896*
Y188604*
X309430Y186381*
G75*
G02X313611Y188516I2320J619*
G01*
Y201161*
G75*
G02X313992Y202081I1300*
G01*
X332831Y220919*
G75*
G02X333752Y221300I919J-920*
G01*
X370179*
G75*
G02X377550Y220000I3571J-1300*
G01*
G75*
G02X374616Y216300I-3800*
G01*
X378211*
X380306Y218394*
G75*
G02X379950Y220000I3444J1606*
G01*
X379750Y180000D02*
G75*
G02X387750I4000D01*
G01*
G75*
G02X379750I-4000*
G01*
X379950Y160000D02*
G75*
G02X387550I3800D01*
G01*
G75*
G02X381817Y156728I-3800*
G01*
X379169Y154081*
G75*
G02X378248Y153700I-919J920*
G01*
X374616*
G75*
G02Y146300I-866J-3700*
G01*
X378211*
X380306Y148394*
G75*
G02X383750Y153800I3444J1606*
G01*
G75*
G02Y146200J-3800*
G01*
G75*
G02X382144Y146556J3800*
G01*
X379669Y144081*
G75*
G02X378748Y143700I-919J920*
G01*
X374616*
G75*
G02Y136300I-866J-3700*
G01*
X378211*
X380306Y138394*
G75*
G02X383750Y143800I3444J1606*
G01*
G75*
G02Y136200J-3800*
G01*
G75*
G02X382144Y136556J3800*
G01*
X379669Y134081*
G75*
G02X378748Y133700I-919J920*
G01*
X374616*
G75*
G02X375799Y126800I-866J-3700*
G01*
X378711*
X380306Y128394*
G75*
G02X383750Y133800I3444J1606*
G01*
G75*
G02Y126200J-3800*
G01*
G75*
G02X382144Y126556J3800*
G01*
X380169Y124581*
G75*
G02X379248Y124200I-919J920*
G01*
X369752*
G75*
G02X368831Y124581I-2J1300*
G01*
X337211Y156200*
X334411*
Y149240*
X303089*
Y156350*
X311052*
Y159602*
G75*
G02X311433Y160522I1300*
G01*
X323331Y172419*
G75*
G02X324252Y172800I919J-920*
G01*
X344748*
G75*
G02X345669Y172419I2J-1300*
G01*
X356789Y161300*
X370179*
G75*
G02X377550Y160000I3571J-1300*
G01*
G75*
G02X374616Y156300I-3800*
G01*
X377711*
X380161Y158750*
G75*
G02X379950Y160000I3589J1250*
G01*
X379750Y120000D02*
G75*
G02X387750I4000D01*
G01*
G75*
G02X379750I-4000*
G01*
X369750D02*
G75*
G02X377750I4000D01*
G01*
G75*
G02X369750I-4000*
G01*
X379750Y60000D02*
G75*
G02X387750I4000D01*
G01*
G75*
G02X379750I-4000*
G01*
X323300Y88240D02*
X323829D01*
Y78965*
X319671*
Y88240*
X320200*
Y88874*
X318300Y90774*
Y88240*
X318829*
Y78965*
X314671*
Y88240*
X315200*
Y90315*
X313300Y92215*
Y88240*
X313829*
Y78965*
X309671*
Y88240*
X310200*
Y91756*
X308300Y93656*
Y88240*
X308829*
Y78965*
X304671*
Y88240*
X305200*
Y93196*
X304063Y94333*
G75*
G02X303626Y93463I-1533J226*
G01*
X303300Y93137*
Y88240*
X303829*
Y78965*
X299671*
Y88240*
X300200*
Y93780*
G75*
G02X300226Y94064I1550J0*
G01*
X298300Y92137*
Y88240*
X298829*
Y78965*
X294671*
Y88240*
X295200*
Y92758*
X293300Y90858*
Y88240*
X293829*
Y78965*
X289671*
Y88240*
X290200*
Y91500*
G75*
G02X290226Y91784I1550J0*
G01*
X288300Y89858*
Y88240*
X288829*
Y78965*
X284671*
Y88240*
X285200*
Y90500*
G75*
G02X285654Y91596I1550*
G01*
X293298Y99240*
X288725*
Y98500*
G75*
G02X288271Y97404I-1550*
G01*
X286771Y95904*
G75*
G02X285674Y95450I-1096J1096*
G01*
X264751*
G75*
G02X263654Y95904I-1J1550*
G01*
X262154Y97404*
G75*
G02X261700Y98500I1096J1096*
G01*
Y211358*
X257950Y215108*
G75*
G02X255350Y217500I-200J2392*
G01*
G75*
G02X260150I2400*
G01*
G75*
G02X260142Y217300I-2400J0*
G01*
X264346Y213096*
G75*
G02X264800Y212000I-1096J-1096*
G01*
Y99142*
X265392Y98550*
X285033*
X285625Y99142*
Y99240*
X285589*
Y106350*
X316911*
Y99240*
X314316*
Y99142*
X322846Y90612*
G75*
G02X323300Y89516I-1096J-1096*
G01*
Y88240*
Y33470D02*
G75*
G02X325550Y30000I-1550J-3470D01*
G01*
G75*
G02X318300Y28407I-3800*
G01*
Y25642*
X320393Y23549*
G75*
G02X325550Y20000I1357J-3549*
G01*
G75*
G02X317950I-3800*
G01*
G75*
G02X318201Y21357I3801J0*
G01*
X315654Y23904*
G75*
G02X315200Y25000I1096J1096*
G01*
Y28407*
G75*
G02X308300I-3450J1593*
G01*
Y25642*
X310393Y23549*
G75*
G02X315550Y20000I1357J-3549*
G01*
G75*
G02X307950I-3800*
G01*
G75*
G02X308201Y21357I3801J0*
G01*
X305654Y23904*
G75*
G02X305200Y25000I1096J1096*
G01*
Y28407*
G75*
G02X298300I-3450J1593*
G01*
Y25642*
X300393Y23549*
G75*
G02X305550Y20000I1357J-3549*
G01*
G75*
G02X297950I-3800*
G01*
G75*
G02X298201Y21357I3801J0*
G01*
X295654Y23904*
G75*
G02X295200Y25000I1096J1096*
G01*
Y28407*
G75*
G02X288300I-3450J1593*
G01*
Y25642*
X290393Y23549*
G75*
G02X295550Y20000I1357J-3549*
G01*
G75*
G02X287950I-3800*
G01*
G75*
G02X288201Y21357I3801J0*
G01*
X285654Y23904*
G75*
G02X285200Y25000I1096J1096*
G01*
Y27976*
G75*
G02X277750Y30000I-3450J2024*
G01*
G75*
G02X285200Y32024I4000*
G01*
Y41760*
X284671*
Y51035*
X285200*
Y63168*
G75*
G02X284350Y65000I1550J1832*
G01*
G75*
G02X289150I2400*
G01*
G75*
G02X288300Y63168I-2400*
G01*
Y51035*
X288829*
Y41760*
X288300*
Y31593*
G75*
G02X290200Y33470I3450J-1593*
G01*
Y41760*
X289671*
Y51035*
X290200*
Y72168*
G75*
G02X289350Y74000I1550J1832*
G01*
G75*
G02X294150I2400*
G01*
G75*
G02X293300Y72168I-2400*
G01*
Y51035*
X293829*
Y41760*
X293300*
Y33470*
G75*
G02X295200Y31593I-1550J-3470*
G01*
Y41760*
X294671*
Y51035*
X298829*
Y41760*
X298300*
Y31593*
G75*
G02X300200Y33470I3450J-1593*
G01*
Y41760*
X299671*
Y51035*
X303829*
Y41760*
X303300*
Y33470*
G75*
G02X305200Y31593I-1550J-3470*
G01*
Y41760*
X304671*
Y51035*
X308829*
Y41760*
X308300*
Y31593*
G75*
G02X310200Y33470I3450J-1593*
G01*
Y41760*
X309671*
Y51035*
X313829*
Y41760*
X313300*
Y33470*
G75*
G02X315200Y31593I-1550J-3470*
G01*
Y41760*
X314671*
Y51035*
X318829*
Y41760*
X318300*
Y31593*
G75*
G02X320200Y33470I3450J-1593*
G01*
Y41760*
X319671*
Y51035*
X323829*
Y41760*
X323300*
Y33470*
X277750Y20000D02*
G75*
G02X285750I4000D01*
G01*
G75*
G02X277750I-4000*
G01*
X279671Y51035D02*
X283829D01*
Y41760*
X279671*
Y51035*
Y88240D02*
X283829D01*
Y78965*
X279671*
Y88240*
X231982Y129945D02*
X237518D01*
Y124055*
X231982*
Y129945*
X224346Y167096D02*
G75*
G02X224800Y166000I-1096J-1096D01*
G01*
Y148500*
G75*
G02X224346Y147404I-1550*
G01*
X214942Y138000*
X216346Y136596*
G75*
G02X216800Y135500I-1096J-1096*
G01*
Y133000*
G75*
G02X216346Y131904I-1550*
G01*
X213800Y129358*
Y128768*
X215195*
Y123232*
X213800*
Y121768*
X215195*
Y116232*
X209305*
Y121768*
X210700*
Y123232*
X209305*
Y128768*
X210700*
Y130000*
G75*
G02X211154Y131096I1550*
G01*
X213700Y133642*
Y134858*
X211758Y136800*
Y134256*
X206222*
Y141944*
G75*
G02X205450Y142744I28J800*
G01*
Y144732*
G75*
G02X205805Y145397I800*
G01*
Y149603*
G75*
G02X205450Y150268I445J665*
G01*
Y155500*
G75*
G02X205685Y156067I800*
G01*
X207183Y157565*
G75*
G02X207750Y157800I567J-565*
G01*
X220250*
G75*
G02X220817Y157565J-800*
G01*
X221700Y156681*
Y165358*
X197914Y189144*
Y140722*
X198443Y140207*
X198742*
Y142744*
X204278*
Y134256*
X198742*
Y136793*
X198277*
X192330Y130846*
Y128768*
X193695*
Y123232*
X192300*
Y121768*
X193695*
Y116232*
X187805*
Y121768*
X189200*
Y123232*
X187805*
Y128768*
X189170*
Y131500*
G75*
G02X189633Y132617I1580J0*
G01*
X195409Y138394*
X195017Y138776*
G75*
G02X194499Y140000I1190J1224*
G01*
Y143659*
X184744Y133904*
G75*
G02X183646Y133450I-1096J1096*
G01*
X167892*
X156597Y122155*
Y118150*
X162593*
Y113205*
X153907*
Y118150*
X153997*
Y122203*
G75*
G02X154201Y124143I1300J844*
G01*
X166154Y136096*
G75*
G02X167251Y136550I1096J-1096*
G01*
X183006*
X192098Y145642*
Y152656*
X178346Y138904*
G75*
G02X177249Y138450I-1096J1096*
G01*
X123892*
X122515Y137073*
X125169Y134419*
G75*
G02X125550Y133500I-919J-919*
G01*
Y128768*
X126695*
Y123232*
X125300*
Y121768*
X126695*
Y116232*
X120805*
Y121768*
X122200*
Y123232*
X120805*
Y128768*
X122950*
Y132961*
X120449Y135463*
G75*
G02X120249Y135450I-197J1539*
G01*
X119758*
Y132756*
X114222*
Y137700*
X112278*
Y132756*
X106742*
Y134800*
X103300Y131358*
Y128768*
X104695*
Y123232*
X103300*
Y121768*
X104695*
Y116232*
X98805*
Y121768*
X100200*
Y123232*
X98805*
Y128768*
X100200*
Y132000*
G75*
G02X100654Y133096I1550*
G01*
X104308Y136750*
X103154Y137904*
G75*
G02X102700Y139000I1096J1096*
G01*
Y167500*
G75*
G02X103154Y168596I1550*
G01*
X106654Y172096*
G75*
G02X107751Y172550I1096J-1096*
G01*
X184608*
X186980Y174922*
Y185200*
X186719*
G75*
G02X185919Y186000J800*
G01*
Y186055*
X181581*
Y186000*
G75*
G02X181550Y185778I-801*
G01*
Y184945*
X186518*
Y179055*
X180982*
Y179101*
X180317Y178435*
G75*
G02X179750Y178200I-567J565*
G01*
X178719*
G75*
G02X177919Y179000J800*
G01*
Y179055*
X173581*
Y179000*
G75*
G02X172781Y178200I-800*
G01*
X96081*
X91050Y173169*
Y170969*
G75*
G02X90695Y170304I-800*
G01*
Y165696*
G75*
G02X91050Y165031I-445J-665*
G01*
Y156500*
G75*
G02X91024Y156300I-800J1*
G01*
X93510*
Y162083*
X97470*
Y155760*
X97122*
X97315Y155567*
G75*
G02X97550Y155000I-565J-567*
G01*
Y152441*
G75*
G02X97470Y152093I-800*
G01*
Y145917*
X90024*
G75*
G02X90050Y145717I-774J-201*
G01*
Y142969*
G75*
G02X89695Y142304I-800*
G01*
Y137696*
G75*
G02X90050Y137031I-445J-665*
G01*
Y136500*
G75*
G02X89815Y135933I-800*
G01*
X88317Y134435*
G75*
G02X87750Y134200I-567J565*
G01*
X67081*
X66550Y133669*
Y129331*
X67081Y128800*
X70750*
G75*
G02X71317Y128565J-800*
G01*
X72315Y127567*
G75*
G02X72550Y127000I-565J-567*
G01*
Y115000*
G75*
G02X72315Y114433I-800*
G01*
X71381Y113500*
X72315Y112567*
G75*
G02X72550Y112000I-565J-567*
G01*
Y99000*
G75*
G02X72315Y98433I-800*
G01*
X70317Y96435*
G75*
G02X69750Y96200I-567J565*
G01*
X60550*
Y73831*
X61581Y72800*
X69250*
G75*
G02X69817Y72565J-800*
G01*
X72815Y69567*
G75*
G02X73050Y69000I-565J-567*
G01*
Y49000*
G75*
G02X72815Y48433I-800*
G01*
X71817Y47435*
G75*
G02X71250Y47200I-567J565*
G01*
X59750*
G75*
G02X55959Y47826I1J11800*
G01*
G75*
G02X49545Y32819I-6414J-6133*
G01*
G75*
G02X40671Y41693J8874*
G01*
G75*
G02X51807Y50274I8874*
G01*
G75*
G02X47950Y59000I7944J8726*
G01*
Y89232*
X42305*
Y89625*
X38195*
Y89232*
X32305*
Y94768*
X38195*
Y94375*
X42305*
Y94768*
X47950*
Y97500*
X16250*
Y128500*
X48250*
Y127631*
X49183Y128565*
G75*
G02X49750Y128800I567J-565*
G01*
X54419*
X54950Y129331*
Y130232*
X49305*
Y135768*
X54851*
X53185Y137433*
G75*
G02X52950Y138000I565J567*
G01*
Y215500*
G75*
G02X53185Y216067I800*
G01*
X113950Y276831*
Y308000*
G75*
G02X114185Y308567I800*
G01*
X115183Y309565*
G75*
G02X115750Y309800I567J-565*
G01*
X118750*
G75*
G02X119317Y309565J-800*
G01*
X120315Y308567*
G75*
G02X120550Y308000I-565J-567*
G01*
Y276500*
G75*
G02X120315Y275933I-800*
G01*
X58550Y214169*
Y150831*
X59581Y149800*
X64750*
G75*
G02X65317Y149565J-800*
G01*
X67315Y147567*
G75*
G02X67317Y147565I-672J-674*
G01*
X69581Y145300*
X80919*
X81950Y146331*
Y155000*
G75*
G02X82185Y155567I800*
G01*
X82400Y155781*
G75*
G02X82183Y155935I351J720*
G01*
X76185Y161933*
G75*
G02X75950Y162500I565J567*
G01*
Y178000*
G75*
G02X76185Y178567I800*
G01*
X84183Y186565*
G75*
G02X84750Y186800I567J-565*
G01*
X135700*
Y370800*
G75*
G02Y377200I2050J3200*
G01*
Y380800*
G75*
G02X137750Y387800I2050J3200*
G01*
G75*
G02X139800Y380800J-3800*
G01*
Y377200*
G75*
G02X141462Y373187I-2051J-3200*
G01*
X151700Y362950*
G75*
G02X152300Y361500I-1450J-1450*
G01*
G75*
G02Y361499I-673J0*
G01*
G75*
G02Y361496I-789J-1*
G01*
Y356768*
X153195*
Y351232*
X152300*
Y347268*
X153195*
Y341732*
X147305*
Y347268*
X148200*
Y351232*
X147305*
Y356768*
X148200*
Y360651*
X139800Y369051*
Y186800*
X172982*
Y191945*
X174200*
Y193500*
G75*
G02X174654Y194596I1550*
G01*
X177534Y197476*
G75*
G02X177249Y197450I-285J1525*
G01*
X176392*
X174642Y195700*
G75*
G02X174650Y195500I-2392J-199*
G01*
G75*
G02X169850I-2400*
G01*
G75*
G02X172450Y197892I2400*
G01*
X174654Y200096*
G75*
G02X175751Y200550I1096J-1096*
G01*
X176608*
X177034Y200976*
G75*
G02X176749Y200950I-285J1525*
G01*
X174082*
G75*
G02X169850Y202500I-1832J1550*
G01*
G75*
G02X174082Y204050I2400*
G01*
X176108*
X176743Y204685*
Y205228*
X174049*
Y212638*
X181861*
Y215661*
G75*
G02X182315Y216757I1550*
G01*
X183858Y218300*
G75*
G02X183850Y218500I2392J199*
G01*
G75*
G02X188650I2400*
G01*
G75*
G02X186050Y216108I-2400*
G01*
X185242Y215300*
X187750*
G75*
G02X188550Y214500J-800*
G01*
Y212837*
G75*
G02X188525Y212638I-800J0*
G01*
X200451*
Y205228*
X200316*
Y191126*
X224346Y167096*
X209305Y114768D02*
X215195D01*
Y109232*
X209305*
Y114768*
X198805Y150268D02*
X204695D01*
Y144732*
X198805*
Y150268*
X202305Y121768D02*
X208195D01*
Y116232*
X206800*
Y114768*
X208195*
Y109232*
X206800*
Y107768*
X208195*
Y102232*
X202305*
Y107768*
X203700*
Y109232*
X202305*
Y114768*
X203700*
Y116232*
X202305*
Y121768*
Y128768D02*
X208195D01*
Y123232*
X202305*
Y128768*
X187805Y114768D02*
X193695D01*
Y109232*
X187805*
Y114768*
X180805Y121768D02*
X186695D01*
Y116232*
X185300*
Y114768*
X186695*
Y109232*
X185300*
Y107768*
X186695*
Y102232*
X180805*
Y107768*
X182200*
Y109232*
X180805*
Y114768*
X182200*
Y116232*
X180805*
Y121768*
Y128768D02*
X186695D01*
Y123232*
X180805*
Y128768*
X141201Y130197D02*
X146738D01*
Y124303*
X141201*
Y130197*
X120805Y114768D02*
X126695D01*
Y109232*
X120805*
Y114768*
X113805Y121768D02*
X119695D01*
Y116232*
X118300*
Y114768*
X119695*
Y109232*
X118300*
Y107768*
X119695*
Y102232*
X113805*
Y107768*
X115200*
Y109232*
X113805*
Y114768*
X115200*
Y116232*
X113805*
Y121768*
Y128768D02*
X119695D01*
Y123232*
X113805*
Y128768*
X98805Y114768D02*
X104695D01*
Y109232*
X98805*
Y114768*
X91805Y170768D02*
X97695D01*
Y165232*
X91805*
Y170768*
X90805Y142768D02*
X96695D01*
Y137232*
X90805*
Y142768*
X91805Y121768D02*
X97695D01*
Y116232*
X96300*
Y114768*
X97695*
Y109232*
X96300*
Y107768*
X97695*
Y102232*
X91805*
Y107768*
X93200*
Y109232*
X91805*
Y114768*
X93200*
Y116232*
X91805*
Y121768*
Y128768D02*
X97695D01*
Y123232*
X91805*
Y128768*
X25305Y94768D02*
X31195D01*
Y89232*
X25305*
Y94768*
X36750Y68874D02*
G75*
G02X45624Y60000J-8874D01*
G01*
G75*
G02X36750Y51126I-8874*
G01*
G75*
G02X27876Y60000J8874*
G01*
G75*
G02X36750Y68874I8874*
G01*
X214418Y257050D02*
G75*
G02X218650Y255500I1832J-1550D01*
G01*
G75*
G02X214418Y253950I-2400*
G01*
X213018*
Y253055*
X207482*
Y258945*
X213018*
Y257050*
X214418*
X301300Y275470D02*
G75*
G02X303550Y272000I-1550J-3470D01*
G01*
G75*
G02X295950I-3800*
G01*
G75*
G02X298200Y275470I3800*
G01*
Y279055*
X296982*
Y284945*
X302518*
Y279055*
X301300*
Y275470*
X296982Y291945D02*
X302518D01*
Y286055*
X296982*
Y291945*
X369950Y330000D02*
G75*
G02X377550I3800D01*
G01*
G75*
G02X369950I-3800*
G01*
X321982Y292445D02*
X327518D01*
Y286555*
X321982*
Y292445*
X341982Y294945D02*
X347518D01*
Y289055*
X341982*
Y294945*
X369950Y270000D02*
G75*
G02X377550I3800D01*
G01*
G75*
G02X369950I-3800*
G01*
X379750Y260000D02*
G75*
G02X387750I4000D01*
G01*
G75*
G02X379750I-4000*
G01*
Y270000D02*
G75*
G02X387750I4000D01*
G01*
G75*
G02X379750I-4000*
G01*
Y280000D02*
G75*
G02X387750I4000D01*
G01*
G75*
G02X379750I-4000*
G01*
Y310000D02*
G75*
G02X387750I4000D01*
G01*
G75*
G02X379750I-4000*
G01*
Y320000D02*
G75*
G02X387750I4000D01*
G01*
G75*
G02X379750I-4000*
G01*
Y330000D02*
G75*
G02X387750I4000D01*
G01*
G75*
G02X379750I-4000*
G01*
Y340000D02*
G75*
G02X387750I4000D01*
G01*
G75*
G02X379750I-4000*
G01*
X47750Y258350D02*
G75*
G02X57300Y248800J-9550D01*
G01*
G75*
G02X47750Y239250I-9550*
G01*
G75*
G02X38200Y248800J9550*
G01*
G75*
G02X47750Y258350I9550*
G01*
Y356750D02*
G75*
G02Y337650J-9550D01*
G01*
G75*
G02X38200Y347200J9550*
G01*
G75*
G02X47750Y356750I9550*
G01*
X48750Y298000D02*
G75*
G02X56750I4000D01*
G01*
G75*
G02X48750I-4000*
G01*
X48950Y276400D02*
G75*
G02X56550I3800D01*
G01*
G75*
G02X48950I-3800*
G01*
Y287200D02*
G75*
G02X56550I3800D01*
G01*
G75*
G02X48950I-3800*
G01*
Y308800D02*
G75*
G02X56550I3800D01*
G01*
G75*
G02X48950I-3800*
G01*
Y319600D02*
G75*
G02X56550I3800D01*
G01*
G75*
G02X48950I-3800*
G01*
X38950Y281800D02*
G75*
G02X46550I3800D01*
G01*
G75*
G02X38950I-3800*
G01*
Y292600D02*
G75*
G02X46550I3800D01*
G01*
G75*
G02X38950I-3800*
G01*
Y303400D02*
G75*
G02X46550I3800D01*
G01*
G75*
G02X38950I-3800*
G01*
Y314200D02*
G75*
G02X46550I3800D01*
G01*
G75*
G02X38950I-3800*
G01*
X143750Y384000D02*
G75*
G02X151750I4000D01*
G01*
G75*
G02X143750I-4000*
G01*
X143950Y374000D02*
G75*
G02X151550I3800D01*
G01*
G75*
G02X143950I-3800*
G01*
X153750Y384000D02*
G75*
G02X161750I4000D01*
G01*
G75*
G02X153750I-4000*
G01*
X153950Y374000D02*
G75*
G02X161550I3800D01*
G01*
G75*
G02X153950I-3800*
G01*
X163750Y384000D02*
G75*
G02X171750I4000D01*
G01*
G75*
G02X163750I-4000*
G01*
X173750D02*
G75*
G02X181750I4000D01*
G01*
G75*
G02X173750I-4000*
G01*
X173950Y374000D02*
G75*
G02X181550I3800D01*
G01*
G75*
G02X173950I-3800*
G01*
X183750Y384000D02*
G75*
G02X191750I4000D01*
G01*
G75*
G02X183750I-4000*
G01*
X183950Y374000D02*
G75*
G02X191550I3800D01*
G01*
G75*
G02X183950I-3800*
G01*
X188305Y251768D02*
X194195D01*
Y246232*
X188305*
Y251768*
X197860Y258488D02*
X203400D01*
Y252598*
X197860*
Y253793*
X196451*
G75*
G02X192364Y255500I-1687J1707*
G01*
G75*
G02X196451Y257207I2400*
G01*
X197860*
Y258488*
X193750Y384000D02*
G75*
G02X201750I4000D01*
G01*
G75*
G02X193750I-4000*
G01*
X193950Y374000D02*
G75*
G02X201550I3800D01*
G01*
G75*
G02X193950I-3800*
G01*
X203750Y384000D02*
G75*
G02X211750I4000D01*
G01*
G75*
G02X203750I-4000*
G01*
X203950Y374000D02*
G75*
G02X211550I3800D01*
G01*
G75*
G02X209300Y370530I-3800*
G01*
Y346832*
G75*
G02X210150Y345000I-1550J-1832*
G01*
G75*
G02X205350I-2400*
G01*
G75*
G02X206200Y346832I2400*
G01*
Y370530*
G75*
G02X203950Y374000I1550J3470*
G01*
X213750Y384000D02*
G75*
G02X221750I4000D01*
G01*
G75*
G02X213750I-4000*
G01*
X213950Y374000D02*
G75*
G02X221550I3800D01*
G01*
G75*
G02X213950I-3800*
G01*
X223750Y384000D02*
G75*
G02X231750I4000D01*
G01*
G75*
G02X223750I-4000*
G01*
X223950Y374000D02*
G75*
G02X231550I3800D01*
G01*
G75*
G02X223950I-3800*
G01*
X289805Y341768D02*
X295695D01*
Y336232*
X289805*
Y341768*
X311482Y355445D02*
X317018D01*
Y349555*
X311482*
Y350950*
X308518*
Y349555*
X302982*
Y350950*
X300082*
G75*
G02X295850Y352500I-1832J1550*
G01*
G75*
G02X300082Y354050I2400*
G01*
X302982*
Y355445*
X308518*
Y354050*
X311482*
Y355445*
X321482D02*
X327018D01*
Y349555*
X321482*
Y355445*
X342482D02*
X348018D01*
Y349555*
X342482*
Y355445*
X143021Y67985D02*
G75*
G02X147471Y63535J-4450D01*
G01*
G75*
G02X143021Y59085I-4450*
G01*
G75*
G02X138571Y63535J4450*
G01*
G75*
G02X143021Y67985I4450*
G01*
Y81765D02*
G75*
G02X147471Y77315J-4450D01*
G01*
G75*
G02X143021Y72865I-4450*
G01*
G75*
G02X138571Y77315J4450*
G01*
G75*
G02X143021Y81765I4450*
G01*
X232317Y67985D02*
G75*
G02X236767Y63535J-4450D01*
G01*
G75*
G02X232317Y59085I-4450*
G01*
G75*
G02X227867Y63535J4450*
G01*
G75*
G02X232317Y67985I4450*
G01*
Y81765D02*
G75*
G02X236767Y77315J-4450D01*
G01*
G75*
G02X232317Y72865I-4450*
G01*
G75*
G02X227867Y77315J4450*
G01*
G75*
G02X232317Y81765I4450*
G01*
X8448Y20000D02*
G36*
X8350D01*
Y19579*
G75*
G02X8448Y20000I12331J-2648*
G01*
G37*
X86950D02*
G36*
X32911D01*
G75*
G02X33290Y16929I-12232J-3070*
G01*
G75*
G02X23329Y4600I-12612J0*
G01*
X88019*
X87185Y5433*
G75*
G02X86950Y6000I565J566*
G01*
Y6000*
Y20000*
G37*
X123950D02*
G36*
X123550D01*
Y5000*
G75*
G02Y4999I-728J0*
G01*
G75*
G02X123443Y4600I-796*
G01*
X124057*
G75*
G02X123950Y4999I689J400*
G01*
G75*
G02Y5000I728J0*
G01*
Y20000*
G37*
X143950D02*
G36*
X143550D01*
Y5000*
G75*
G02Y4999I-728J0*
G01*
G75*
G02X143443Y4600I-796*
G01*
X144057*
G75*
G02X143950Y4999I689J400*
G01*
G75*
G02Y5000I728J0*
G01*
Y20000*
G37*
X176950D02*
G36*
X165112D01*
Y5000*
G75*
G02Y4999I-728J0*
G01*
G75*
G02X165005Y4600I-796*
G01*
X178019*
X177185Y5433*
G75*
G02X176950Y6000I565J566*
G01*
Y6000*
Y20000*
G37*
X213950D02*
G36*
X213550D01*
Y5000*
G75*
G02Y4999I-728J0*
G01*
G75*
G02X213443Y4600I-796*
G01*
X214057*
G75*
G02X213950Y4999I689J400*
G01*
G75*
G02Y5000I728J0*
G01*
Y20000*
G37*
X233950D02*
G36*
X233550D01*
Y5000*
G75*
G02Y4999I-728J0*
G01*
G75*
G02X233443Y4600I-796*
G01*
X234057*
G75*
G02X233950Y4999I689J400*
G01*
G75*
G02Y5000I728J0*
G01*
Y20000*
G37*
X384171Y4600D02*
G36*
G75*
G02X374210Y16929I2649J12329D01*
G01*
Y16929*
G75*
G02X374589Y20000I12611J0*
G01*
X325550*
G75*
G02X317950I-3800*
G01*
X315550*
G75*
G02X307950I-3800*
G01*
X305550*
G75*
G02X297950I-3800*
G01*
X295550*
G75*
G02X287950I-3800*
G01*
X285750*
G75*
G02X277750I-4000*
G01*
X255112*
Y5000*
G75*
G02Y4999I-728J0*
G01*
G75*
G02X255005Y4600I-796*
G01*
X384171*
G37*
X399150Y20000D02*
G36*
X399052D01*
G75*
G02X399150Y19579I-12233J-3069*
G01*
Y20000*
G37*
X86950D02*
G36*
Y46398D01*
X57070*
G75*
G02X58419Y41693I-7525J-4705*
G01*
G75*
G02X49545Y32819I-8874*
G01*
G75*
G02X40671Y41693J8874*
G01*
G75*
G02X42021Y46398I8874J0*
G01*
X8350*
Y20000*
X8448*
G75*
G02X32911I12231J-3071*
G01*
X86950*
G37*
X123950Y46398D02*
G36*
X114484D01*
X123315Y37567*
G75*
G02X123550Y37000I-565J-566*
G01*
Y37000*
Y20000*
X123950*
Y46398*
G37*
X153950D02*
G36*
X143550D01*
Y20000*
X143950*
Y28289*
Y28290*
G75*
G02X144185Y28856I800*
G01*
X148672Y33342*
G75*
G02X148896Y33777I790J-131*
G01*
X153950Y38831*
Y46398*
G37*
X176950Y20000D02*
G36*
Y46398D01*
X165112*
Y20000*
X176950*
G37*
X213950Y46398D02*
G36*
X204484D01*
X213315Y37567*
G75*
G02X213550Y37000I-565J-566*
G01*
Y37000*
Y20000*
X213950*
Y46398*
G37*
X243950D02*
G36*
X233550D01*
Y20000*
X233950*
Y28289*
Y28290*
G75*
G02X234185Y28856I800*
G01*
X238672Y33342*
G75*
G02X238896Y33777I790J-131*
G01*
X243950Y38831*
Y46398*
G37*
X289671D02*
G36*
X288829D01*
Y41760*
X288300*
Y31593*
G75*
G02X290200Y33470I3450J-1593*
G01*
Y41760*
X289671*
Y46398*
G37*
X287950Y20000D02*
G36*
G75*
G02X288201Y21357I3809J-2D01*
G01*
X285654Y23904*
G75*
G02X285200Y25000I1097J1096*
G01*
Y27976*
G75*
G02X277750Y30000I-3450J2024*
G01*
G75*
G02X285200Y32024I4000*
G01*
Y41760*
X284671*
Y46398*
X283829*
Y41760*
X279671*
Y46398*
X255112*
Y20000*
X277750*
G75*
G02X285750I4000*
G01*
X287950*
G37*
X294671Y46398D02*
G36*
X293829D01*
Y41760*
X293300*
Y33470*
G75*
G02X295200Y31593I-1553J-3472*
G01*
Y41760*
X294671*
Y46398*
G37*
X299671D02*
G36*
X298829D01*
Y41760*
X298300*
Y31593*
G75*
G02X300200Y33470I3450J-1593*
G01*
Y41760*
X299671*
Y46398*
G37*
X297950Y20000D02*
G36*
G75*
G02X298201Y21357I3809J-2D01*
G01*
X295654Y23904*
G75*
G02X295200Y25000I1097J1096*
G01*
Y28407*
G75*
G02X288300I-3450J1593*
G01*
Y25642*
X290393Y23549*
G75*
G02X295550Y20000I1357J-3549*
G01*
X297950*
G37*
X304671Y46398D02*
G36*
X303829D01*
Y41760*
X303300*
Y33470*
G75*
G02X305200Y31593I-1553J-3472*
G01*
Y41760*
X304671*
Y46398*
G37*
X309671D02*
G36*
X308829D01*
Y41760*
X308300*
Y31593*
G75*
G02X310200Y33470I3450J-1593*
G01*
Y41760*
X309671*
Y46398*
G37*
X307950Y20000D02*
G36*
G75*
G02X308201Y21357I3809J-2D01*
G01*
X305654Y23904*
G75*
G02X305200Y25000I1097J1096*
G01*
Y28407*
G75*
G02X298300I-3450J1593*
G01*
Y25642*
X300393Y23549*
G75*
G02X305550Y20000I1357J-3549*
G01*
X307950*
G37*
X314671Y46398D02*
G36*
X313829D01*
Y41760*
X313300*
Y33470*
G75*
G02X315200Y31593I-1553J-3472*
G01*
Y41760*
X314671*
Y46398*
G37*
X319671D02*
G36*
X318829D01*
Y41760*
X318300*
Y31593*
G75*
G02X320200Y33470I3450J-1593*
G01*
Y41760*
X319671*
Y46398*
G37*
X317950Y20000D02*
G36*
G75*
G02X318201Y21357I3809J-2D01*
G01*
X315654Y23904*
G75*
G02X315200Y25000I1097J1096*
G01*
Y28407*
G75*
G02X308300I-3450J1593*
G01*
Y25642*
X310393Y23549*
G75*
G02X315550Y20000I1357J-3549*
G01*
X317950*
G37*
X399150Y46398D02*
G36*
X323829D01*
Y41760*
X323300*
Y33470*
G75*
G02X325550Y30000I-1550J-3470*
G01*
G75*
G02X318300Y28407I-3800*
G01*
Y25642*
X320393Y23549*
G75*
G02X325550Y20000I1357J-3549*
G01*
X374589*
G75*
G02X399052I12231J-3071*
G01*
X399150*
Y46398*
G37*
X47950Y60000D02*
G36*
X45624D01*
G75*
G02X36750Y51126I-8874*
G01*
G75*
G02X27876Y60000J8874*
G01*
X8350*
Y46398*
X42021*
G75*
G02X51807Y50274I7524J-4705*
G01*
G75*
G02X47950Y59000I7943J8726*
G01*
Y60000*
G37*
X123950Y46398D02*
G36*
Y53000D01*
Y53000*
G75*
G02X124185Y53567I800*
G01*
X125976Y55357*
X121333Y60000*
X73050*
Y49000*
Y49000*
G75*
G02X72815Y48433I-800*
G01*
X71817Y47435*
G75*
G02X71250Y47200I-566J565*
G01*
X59750*
G75*
G02X55959Y47826I0J11800*
G01*
G75*
G02X57070Y46398I-6415J-6133*
G01*
X86950*
Y57000*
Y57000*
G75*
G02X87185Y57567I800*
G01*
X89183Y59565*
G75*
G02X89750Y59800I566J-565*
G01*
X100750*
G75*
G02X101317Y59565I0J-800*
G01*
X110559Y50322*
X110561Y50321*
X114484Y46398*
X123950*
G37*
X153950Y60000D02*
G36*
X145723D01*
G75*
G02X143021Y59085I-2703J3536*
G01*
G75*
G02X140319Y60000I1J4450*
G01*
X125717*
X128168Y57549*
X130183Y59565*
G75*
G02X130750Y59800I566J-565*
G01*
X136750*
G75*
G02X137317Y59565I0J-800*
G01*
X143315Y53567*
G75*
G02X143550Y53000I-565J-566*
G01*
Y53000*
Y46398*
X153950*
Y60000*
G37*
X213950Y46398D02*
G36*
Y53000D01*
Y53000*
G75*
G02X214185Y53567I800*
G01*
X215624Y55005*
X210629Y60000*
X165112*
Y46398*
X176950*
Y57000*
Y57000*
G75*
G02X177185Y57567I800*
G01*
X179183Y59565*
G75*
G02X179750Y59800I566J-565*
G01*
X190750*
G75*
G02X191317Y59565I0J-800*
G01*
X200559Y50322*
X200561Y50321*
X204484Y46398*
X213950*
G37*
X243950Y60000D02*
G36*
X235019D01*
G75*
G02X232317Y59085I-2703J3536*
G01*
G75*
G02X229615Y60000I1J4450*
G01*
X215013*
X217816Y57197*
X220183Y59565*
G75*
G02X220750Y59800I566J-565*
G01*
X226750*
G75*
G02X227317Y59565I0J-800*
G01*
X233315Y53567*
G75*
G02X233550Y53000I-565J-566*
G01*
Y53000*
Y46398*
X243950*
Y60000*
G37*
X284671Y46398D02*
G36*
Y51035D01*
X285200*
Y60000*
X255112*
Y46398*
X279671*
Y51035*
X283829*
Y46398*
X284671*
G37*
X289671D02*
G36*
Y51035D01*
X290200*
Y60000*
X288300*
Y51035*
X288829*
Y46398*
X289671*
G37*
X399150Y60000D02*
G36*
X387750D01*
G75*
G02X379750I-4000*
G01*
X377750*
G75*
G02X373750Y56000I-4000*
G01*
G75*
G02X369750Y60000J4000*
G01*
X293300*
Y51035*
X293829*
Y46398*
X294671*
Y51035*
X298829*
Y46398*
X299671*
Y51035*
X303829*
Y46398*
X304671*
Y51035*
X308829*
Y46398*
X309671*
Y51035*
X313829*
Y46398*
X314671*
Y51035*
X318829*
Y46398*
X319671*
Y51035*
X323829*
Y46398*
X399150*
Y60000*
G37*
X47950D02*
G36*
Y77315D01*
X8350*
Y60000*
X27876*
G75*
G02X36750Y68874I8874*
G01*
G75*
G02X45624Y60000J-8874*
G01*
X47950*
G37*
X121333D02*
G36*
X104018Y77315D01*
X60550*
Y73831*
X61581Y72800*
X69250*
G75*
G02X69817Y72565I0J-800*
G01*
X72815Y69567*
G75*
G02X73050Y69000I-565J-566*
G01*
Y69000*
Y60000*
X121333*
G37*
X153950Y77315D02*
G36*
X147471D01*
G75*
G02X143021Y72865I-4450*
G01*
G75*
G02X138571Y77315J4450*
G01*
X108402*
X125717Y60000*
X140319*
G75*
G02X138571Y63535I2703J3536*
G01*
G75*
G02X143021Y67985I4450*
G01*
G75*
G02X147471Y63535J-4450*
G01*
G75*
G02X145723Y60000I-4451J1*
G01*
X153950*
Y77315*
G37*
X210629Y60000D02*
G36*
X193314Y77315D01*
X165112*
Y60000*
X210629*
G37*
X243950Y77315D02*
G36*
X236767D01*
G75*
G02X232317Y72865I-4450*
G01*
G75*
G02X227867Y77315J4450*
G01*
X197698*
X215013Y60000*
X229615*
G75*
G02X227867Y63535I2703J3536*
G01*
G75*
G02X232317Y67985I4450*
G01*
G75*
G02X236767Y63535J-4450*
G01*
G75*
G02X235019Y60000I-4451J1*
G01*
X243950*
Y77315*
G37*
X369750Y60000D02*
G36*
G75*
G02X372230Y63700I4000D01*
G01*
X369252*
G75*
G02X368331Y64081I-3J1299*
G01*
X355096Y77315*
X255112*
Y60000*
X285200*
Y63168*
G75*
G02X284350Y65000I1550J1832*
G01*
G75*
G02X289150I2400*
G01*
G75*
G02X288300Y63168I-2400*
G01*
Y60000*
X290200*
Y72168*
G75*
G02X289350Y74000I1550J1832*
G01*
G75*
G02X294150I2400*
G01*
G75*
G02X293300Y72168I-2400*
G01*
Y60000*
X369750*
G37*
X379226Y77315D02*
G36*
X376439D01*
G75*
G02X374616Y76300I-2689J2685*
G01*
X378211*
X379226Y77315*
G37*
X399150D02*
G36*
X386439D01*
G75*
G02X383750Y76200I-2689J2685*
G01*
G75*
G02X382144Y76556I2J3806*
G01*
X379669Y74081*
G75*
G02X378748Y73700I-919J919*
G01*
X374616*
G75*
G02X377550Y70000I-866J-3700*
G01*
G75*
G02X374616Y66300I-3800*
G01*
X378211*
X380306Y68394*
G75*
G02X379950Y70000I3444J1606*
G01*
G75*
G02X383750Y73800I3800*
G01*
G75*
G02X387550Y70000J-3800*
G01*
G75*
G02X383750Y66200I-3800*
G01*
G75*
G02X382144Y66556I2J3806*
G01*
X379669Y64081*
G75*
G02X378748Y63700I-919J919*
G01*
X375270*
G75*
G02X377750Y60000I-1520J-3700*
G01*
X379750*
G75*
G02X387750I4000*
G01*
X399150*
Y77315*
G37*
X47950Y83602D02*
G36*
X8350D01*
Y77315*
X47950*
Y83602*
G37*
X104018Y77315D02*
G36*
X100654Y80679D01*
G75*
G02X100200Y81775I1097J1096*
G01*
Y83602*
X60550*
Y77315*
X104018*
G37*
X153950Y83602D02*
G36*
X151484D01*
X151317Y83435*
G75*
G02X150750Y83200I-566J565*
G01*
X139081*
X135317Y79435*
G75*
G02X134750Y79200I-566J565*
G01*
X125750*
G75*
G02X125183Y79435I0J800*
G01*
X121016Y83602*
X103300*
Y82417*
X108402Y77315*
X138571*
G75*
G02X143021Y81765I4450*
G01*
G75*
G02X147471Y77315J-4450*
G01*
X153950*
Y83602*
G37*
X193314Y77315D02*
G36*
X189654Y80975D01*
G75*
G02X189200Y82071I1097J1096*
G01*
Y83602*
X165112*
Y77315*
X193314*
G37*
X243950Y83602D02*
G36*
X241484D01*
X241317Y83435*
G75*
G02X240750Y83200I-566J565*
G01*
X229081*
X225317Y79435*
G75*
G02X224750Y79200I-566J565*
G01*
X215750*
G75*
G02X215183Y79435I0J800*
G01*
X211016Y83602*
X192300*
Y82713*
X197698Y77315*
X227867*
G75*
G02X232317Y81765I4450*
G01*
G75*
G02X236767Y77315J-4450*
G01*
X243950*
Y83602*
G37*
X355096Y77315D02*
G36*
X348809Y83602D01*
X323829*
Y78965*
X319671*
Y83602*
X318829*
Y78965*
X314671*
Y83602*
X313829*
Y78965*
X309671*
Y83602*
X308829*
Y78965*
X304671*
Y83602*
X303829*
Y78965*
X299671*
Y83602*
X298829*
Y78965*
X294671*
Y83602*
X293829*
Y78965*
X289671*
Y83602*
X288829*
Y78965*
X284671*
Y83602*
X283829*
Y78965*
X279671*
Y83602*
X255112*
Y77315*
X355096*
G37*
X379226D02*
G36*
X380306Y78394D01*
G75*
G02X379950Y80000I3444J1606*
G01*
G75*
G02X382540Y83602I3800*
G01*
X374959*
G75*
G02X377550Y80000I-1209J-3602*
G01*
G75*
G02X376439Y77315I-3800*
G01*
X379226*
G37*
X399150Y83602D02*
G36*
X384959D01*
G75*
G02X387550Y80000I-1209J-3602*
G01*
G75*
G02X386439Y77315I-3800*
G01*
X399150*
Y83602*
G37*
X32305Y92000D02*
G36*
X31195D01*
Y89232*
X25305*
Y92000*
X8350*
Y83602*
X47950*
Y89232*
X42305*
Y89625*
X38195*
Y89232*
X32305*
Y92000*
G37*
X100200D02*
G36*
X60550D01*
Y83602*
X100200*
Y92000*
G37*
X153950Y83602D02*
G36*
Y86069D01*
X151484Y83602*
X153950*
G37*
X119950Y92000D02*
G36*
X103300D01*
Y83602*
X121016*
X120185Y84433*
G75*
G02X119950Y85000I565J566*
G01*
Y85000*
Y92000*
G37*
X189200D02*
G36*
X165112D01*
Y83602*
X189200*
Y92000*
G37*
X243950Y83602D02*
G36*
Y86069D01*
X241484Y83602*
X243950*
G37*
X209950Y92000D02*
G36*
X192300D01*
Y83602*
X211016*
X210185Y84433*
G75*
G02X209950Y85000I565J566*
G01*
Y85000*
Y92000*
G37*
X289671Y83602D02*
G36*
Y88240D01*
X290200*
Y91500*
G75*
G02X290226Y91784I1561J-2*
G01*
X288300Y89858*
Y88240*
X288829*
Y83602*
X289671*
G37*
X286058Y92000D02*
G36*
X255112D01*
Y83602*
X279671*
Y88240*
X283829*
Y83602*
X284671*
Y88240*
X285200*
Y90500*
G75*
G02X285654Y91596I1551J0*
G01*
X286058Y92000*
G37*
X294671Y83602D02*
G36*
Y88240D01*
X295200*
Y92000*
X294442*
X293300Y90858*
Y88240*
X293829*
Y83602*
X294671*
G37*
X299671D02*
G36*
Y88240D01*
X300200*
Y92000*
X298300*
Y88240*
X298829*
Y83602*
X299671*
G37*
X304671D02*
G36*
Y88240D01*
X305200*
Y92000*
X303300*
Y88240*
X303829*
Y83602*
X304671*
G37*
X309671D02*
G36*
Y88240D01*
X310200*
Y91756*
X309956Y92000*
X308300*
Y88240*
X308829*
Y83602*
X309671*
G37*
X313515Y92000D02*
G36*
X313300D01*
Y88240*
X313829*
Y83602*
X314671*
Y88240*
X315200*
Y90315*
X313515Y92000*
G37*
X319671Y83602D02*
G36*
Y88240D01*
X320200*
Y88874*
X318300Y90774*
Y88240*
X318829*
Y83602*
X319671*
G37*
X340411Y92000D02*
G36*
X321458D01*
X322846Y90612*
G75*
G02X323300Y89516I-1097J-1096*
G01*
Y88240*
X323829*
Y83602*
X348809*
X340411Y92000*
G37*
X380519D02*
G36*
X376981D01*
G75*
G02X377550Y90000I-3231J-2000*
G01*
G75*
G02X374616Y86300I-3800*
G01*
X378211*
X380306Y88394*
G75*
G02X379950Y90000I3444J1606*
G01*
G75*
G02X380519Y92000I3800*
G01*
G37*
X399150D02*
G36*
X386981D01*
G75*
G02X387550Y90000I-3231J-2000*
G01*
G75*
G02X383750Y86200I-3800*
G01*
G75*
G02X382144Y86556I2J3806*
G01*
X379669Y84081*
G75*
G02X378748Y83700I-919J919*
G01*
X374616*
G75*
G02X374959Y83602I-867J-3699*
G01*
X382540*
G75*
G02X383750Y83800I1209J-3603*
G01*
G75*
G02X384959Y83602J-3800*
G01*
X399150*
Y92000*
G37*
X16250Y112000D02*
G36*
X8350D01*
Y92000*
X25305*
Y94768*
X31195*
Y92000*
X32305*
Y94768*
X38195*
Y94375*
X42305*
Y94768*
X47950*
Y97500*
X16250*
Y112000*
G37*
X150069D02*
G36*
X148888D01*
Y110848*
X148919Y110817*
X150069*
Y112000*
G37*
X119950Y92000D02*
G36*
Y96412D01*
Y96412*
G75*
G02X120185Y96978I800*
G01*
X122200Y98993*
Y102232*
X120805*
Y107768*
X126695*
Y102232*
X125300*
Y99800*
X149375*
X151406Y101831*
Y107969*
X144108*
G75*
G02X143542Y108204I0J800*
G01*
X139746Y112000*
X126695*
Y109232*
X120805*
Y112000*
X119695*
Y109232*
X118300*
Y107768*
X119695*
Y102232*
X113805*
Y107768*
X115200*
Y109232*
X113805*
Y112000*
X104695*
Y109232*
X98805*
Y112000*
X97695*
Y109232*
X96300*
Y107768*
X97695*
Y102232*
X91805*
Y107768*
X93200*
Y109232*
X91805*
Y112000*
X72550*
Y99000*
Y99000*
G75*
G02X72315Y98433I-800*
G01*
X70317Y96435*
G75*
G02X69750Y96200I-566J565*
G01*
X60550*
Y92000*
X100200*
Y102232*
X98805*
Y107768*
X104695*
Y102232*
X103300*
Y92000*
X119950*
G37*
X161486Y112000D02*
G36*
X155014D01*
Y108945*
X157771*
G75*
G02X158171Y108838I1J-798*
G01*
G75*
G02X158571Y108945I399J-691*
G01*
X161486*
Y112000*
G37*
X240069D02*
G36*
X239030D01*
Y110848*
X239060Y110817*
X240069*
Y112000*
G37*
X209950Y92000D02*
G36*
Y96412D01*
Y96412*
G75*
G02X210185Y96978I800*
G01*
X210543Y97336*
Y102232*
X209305*
Y107768*
X215195*
Y102232*
X213957*
Y99800*
X239375*
X241406Y101831*
Y107969*
X234250*
G75*
G02X233683Y108204I0J800*
G01*
X229887Y112000*
X215195*
Y109232*
X209305*
Y112000*
X208195*
Y109232*
X206800*
Y107768*
X208195*
Y102232*
X202305*
Y107768*
X203700*
Y109232*
X202305*
Y112000*
X193695*
Y109232*
X187805*
Y112000*
X186695*
Y109232*
X185300*
Y107768*
X186695*
Y102232*
X180805*
Y107768*
X182200*
Y109232*
X180805*
Y112000*
X166431*
Y107988*
X165112*
Y92000*
X189200*
Y102232*
X187805*
Y107768*
X193695*
Y102232*
X192300*
Y92000*
X209950*
G37*
X251486Y112000D02*
G36*
X245014D01*
Y110396*
G75*
G02X245145Y109957I-669J-439*
G01*
Y109957*
Y108945*
X247822*
G75*
G02X248222Y108838I1J-798*
G01*
G75*
G02X248622Y108945I399J-691*
G01*
X251486*
Y112000*
G37*
X286058Y92000D02*
G36*
X293298Y99240D01*
X288725*
Y98500*
G75*
G02X288271Y97404I-1551J0*
G01*
X286771Y95904*
G75*
G02X285674Y95450I-1096J1096*
G01*
X264751*
G75*
G02X263654Y95904I-1J1550*
G01*
X262154Y97404*
G75*
G02X261700Y98500I1097J1096*
G01*
Y112000*
X256431*
Y107988*
X255112*
Y92000*
X286058*
G37*
X295200D02*
G36*
Y92758D01*
X294442Y92000*
X295200*
G37*
X300200D02*
G36*
Y93780D01*
G75*
G02X300226Y94064I1561J-2*
G01*
X298300Y92137*
Y92000*
X300200*
G37*
X305200D02*
G36*
Y93196D01*
X304063Y94333*
G75*
G02X303626Y93463I-1532J225*
G01*
X303300Y93137*
Y92000*
X305200*
G37*
X309956D02*
G36*
X308300Y93656D01*
Y92000*
X309956*
G37*
X313515D02*
G36*
X313300Y92215D01*
Y92000*
X313515*
G37*
X340411D02*
G36*
X325711Y106700D01*
X311414*
G75*
G02X310492Y107081I-3J1299*
G01*
X305573Y112000*
X284018*
Y108555*
X278482*
Y112000*
X264800*
Y99142*
X265392Y98550*
X285033*
X285625Y99142*
Y99240*
X285589*
Y106350*
X316911*
Y99240*
X314316*
Y99142*
X321458Y92000*
X340411*
G37*
X399150Y112000D02*
G36*
X359089D01*
X369789Y101300*
X370179*
G75*
G02X377550Y100000I3571J-1300*
G01*
G75*
G02X374616Y96300I-3800*
G01*
X378211*
X380306Y98394*
G75*
G02X379950Y100000I3444J1606*
G01*
G75*
G02X383750Y103800I3800*
G01*
G75*
G02X387550Y100000J-3800*
G01*
G75*
G02X383750Y96200I-3800*
G01*
G75*
G02X382144Y96556I2J3806*
G01*
X379669Y94081*
G75*
G02X378748Y93700I-919J919*
G01*
X374616*
G75*
G02X376981Y92000I-866J-3700*
G01*
X380519*
G75*
G02X383750Y93800I3231J-2000*
G01*
G75*
G02X386981Y92000J-3800*
G01*
X399150*
Y112000*
G37*
X16250Y120000D02*
G36*
X8350D01*
Y112000*
X16250*
Y120000*
G37*
X91805D02*
G36*
X72550D01*
Y115000*
Y115000*
G75*
G02X72315Y114433I-800*
G01*
X71381Y113500*
X72315Y112567*
G75*
G02X72550Y112000I-565J-566*
G01*
Y112000*
X91805*
Y114768*
X93200*
Y116232*
X91805*
Y120000*
G37*
X113805D02*
G36*
X104695D01*
Y116232*
X98805*
Y120000*
X97695*
Y116232*
X96300*
Y114768*
X97695*
Y112000*
X98805*
Y114768*
X104695*
Y112000*
X113805*
Y114768*
X115200*
Y116232*
X113805*
Y120000*
G37*
X134308D02*
G36*
X126695D01*
Y116232*
X120805*
Y120000*
X119695*
Y116232*
X118300*
Y114768*
X119695*
Y112000*
X120805*
Y114768*
X126695*
Y112000*
X139746*
X134543Y117202*
G75*
G02X134308Y117769I565J566*
G01*
Y117769*
Y120000*
G37*
X180805D02*
G36*
X156597D01*
Y118150*
X162593*
Y113205*
X153907*
Y118150*
X153997*
Y120000*
X148888*
Y112000*
X150069*
Y112736*
X155014*
Y112000*
X161486*
Y112736*
X166431*
Y112000*
X180805*
Y114768*
X182200*
Y116232*
X180805*
Y120000*
G37*
X202305D02*
G36*
X193695D01*
Y116232*
X187805*
Y120000*
X186695*
Y116232*
X185300*
Y114768*
X186695*
Y112000*
X187805*
Y114768*
X193695*
Y112000*
X202305*
Y114768*
X203700*
Y116232*
X202305*
Y120000*
G37*
X224450D02*
G36*
X215195D01*
Y116232*
X209305*
Y120000*
X208195*
Y116232*
X206800*
Y114768*
X208195*
Y112000*
X209305*
Y114768*
X215195*
Y112000*
X229887*
X224685Y117202*
G75*
G02X224450Y117769I565J566*
G01*
Y117769*
Y120000*
G37*
X261700D02*
G36*
X246930D01*
G75*
G02X246597Y119393I-1633J500*
G01*
Y118150*
X252593*
Y113205*
X243907*
Y118150*
X243997*
Y119393*
G75*
G02X243665Y120000I1301J1107*
G01*
X239030*
Y112000*
X240069*
Y112736*
X245014*
Y112000*
X251486*
Y112736*
X256431*
Y112000*
X261700*
Y120000*
G37*
X274950D02*
G36*
X264800D01*
Y112000*
X278482*
Y114200*
X275750*
G75*
G02X274950Y115000J800*
G01*
Y115000*
Y120000*
G37*
X305573Y112000D02*
G36*
X297573Y120000D01*
X294001*
Y116642*
G75*
G02X294650Y115000I-1750J-1641*
G01*
Y115000*
G75*
G02X289850I-2400*
G01*
G75*
G02Y115001I3007J0*
G01*
G75*
G02X290242Y116315I2397*
G01*
G75*
G02X286850Y118500I-992J2185*
G01*
G75*
G02X287376Y120000I2400*
G01*
X286881*
X286050Y119169*
Y115000*
Y115000*
G75*
G02X285250Y114200I-800*
G01*
X284018*
Y112000*
X305573*
G37*
X399150Y120000D02*
G36*
X387750D01*
G75*
G02X379750I-4000*
G01*
X377750*
G75*
G02X369750I-4000*
G01*
X351089*
X359089Y112000*
X399150*
Y120000*
G37*
X16250Y127000D02*
G36*
X8350D01*
Y120000*
X16250*
Y127000*
G37*
X98805D02*
G36*
X97695D01*
Y123232*
X91805*
Y127000*
X72550*
Y120000*
X91805*
Y121768*
X97695*
Y120000*
X98805*
Y121768*
X100200*
Y123232*
X98805*
Y127000*
G37*
X120805D02*
G36*
X119695D01*
Y123232*
X113805*
Y127000*
X104695*
Y123232*
X103300*
Y121768*
X104695*
Y120000*
X113805*
Y121768*
X119695*
Y120000*
X120805*
Y121768*
X122200*
Y123232*
X120805*
Y127000*
G37*
X157058D02*
G36*
X146738D01*
Y124303*
X141201*
Y127000*
X126695*
Y123232*
X125300*
Y121768*
X126695*
Y120000*
X134308*
Y122500*
Y122500*
G75*
G02X135108Y123300I800*
G01*
X148088*
G75*
G02X148888Y122500J-800*
G01*
Y122500*
Y120000*
X153997*
Y122203*
G75*
G02X153747Y123047I1301J844*
G01*
G75*
G02X154201Y124143I1551J0*
G01*
X157058Y127000*
G37*
X187805D02*
G36*
X186695D01*
Y123232*
X180805*
Y127000*
X161442*
X156597Y122155*
Y120000*
X180805*
Y121768*
X186695*
Y120000*
X187805*
Y121768*
X189200*
Y123232*
X187805*
Y127000*
G37*
X209305D02*
G36*
X208195D01*
Y123232*
X202305*
Y127000*
X193695*
Y123232*
X192300*
Y121768*
X193695*
Y120000*
X202305*
Y121768*
X208195*
Y120000*
X209305*
Y121768*
X210700*
Y123232*
X209305*
Y127000*
G37*
X243590D02*
G36*
X237518D01*
Y124055*
X231982*
Y127000*
X215195*
Y123232*
X213800*
Y121768*
X215195*
Y120000*
X224450*
Y122500*
Y122500*
G75*
G02X225250Y123300I800*
G01*
X238230*
G75*
G02X239030Y122500J-800*
G01*
Y122500*
Y120000*
X243665*
G75*
G02X243590Y120500I1633J500*
G01*
Y127000*
G37*
X261700D02*
G36*
X247005D01*
Y120500*
G75*
G02X246930Y120000I-1708*
G01*
X261700*
Y127000*
G37*
X287376Y120000D02*
G36*
G75*
G02X288184Y120650I1874J-1500D01*
G01*
Y121303*
X286881Y120000*
X287376*
G37*
X276119Y127000D02*
G36*
X264800D01*
Y120000*
X274950*
Y125500*
Y125500*
G75*
G02X275185Y126067I800*
G01*
X276119Y127000*
G37*
X297573Y120000D02*
G36*
X296492Y121081D01*
G75*
G02X296111Y121999I918J919*
G01*
G75*
G02Y122000I1253J0*
G01*
Y123650*
X294001*
Y120000*
X297573*
G37*
X399150Y127000D02*
G36*
X386082D01*
G75*
G02X383750Y126200I-2332J3000*
G01*
G75*
G02X382144Y126556I2J3806*
G01*
X380169Y124581*
G75*
G02X379248Y124200I-919J919*
G01*
X369752*
G75*
G02X368831Y124581I-3J1299*
G01*
X366411Y127000*
X316911*
Y123677*
X317289Y123300*
X347248*
G75*
G02X348169Y122919I3J-1299*
G01*
X351089Y120000*
X369750*
G75*
G02X377750I4000*
G01*
X379750*
G75*
G02X387750I4000*
G01*
X399150*
Y127000*
G37*
X378911D02*
G36*
X376082D01*
G75*
G02X375799Y126800I-2333J3001*
G01*
X378711*
X378911Y127000*
G37*
X52950Y140000D02*
G36*
X8350D01*
Y127000*
X16250*
Y128500*
X48250*
Y127631*
X49183Y128565*
G75*
G02X49750Y128800I566J-565*
G01*
X54419*
X54950Y129331*
Y130232*
X49305*
Y135768*
X54851*
X53185Y137433*
G75*
G02X52950Y138000I565J566*
G01*
Y138000*
Y140000*
G37*
X120805Y127000D02*
G36*
Y128768D01*
X122950*
Y132961*
X120449Y135463*
G75*
G02X120249Y135450I-200J1574*
G01*
X119758*
Y132756*
X114222*
Y137700*
X112278*
Y132756*
X106742*
Y134800*
X103300Y131358*
Y128768*
X104695*
Y127000*
X113805*
Y128768*
X119695*
Y127000*
X120805*
G37*
X102700Y140000D02*
G36*
X96695D01*
Y137232*
X90805*
Y140000*
X89695*
Y137696*
G75*
G02X90050Y137031I-446J-666*
G01*
Y136500*
Y136500*
G75*
G02X89815Y135933I-800*
G01*
X88317Y134435*
G75*
G02X87750Y134200I-566J565*
G01*
X67081*
X66550Y133669*
Y129331*
X67081Y128800*
X70750*
G75*
G02X71317Y128565I0J-800*
G01*
X72315Y127567*
G75*
G02X72550Y127000I-565J-566*
G01*
Y127000*
X91805*
Y128768*
X97695*
Y127000*
X98805*
Y128768*
X100200*
Y132000*
G75*
G02X100654Y133096I1551J0*
G01*
X104308Y136750*
X103154Y137904*
G75*
G02X102700Y139000I1097J1096*
G01*
Y140000*
G37*
X179442D02*
G36*
X178346Y138904D01*
G75*
G02X177249Y138450I-1096J1096*
G01*
X123892*
X122515Y137073*
X125169Y134419*
G75*
G02X125550Y133501I-918J-919*
G01*
G75*
G02Y133500I-1253J0*
G01*
Y128768*
X126695*
Y127000*
X141201*
Y130197*
X146738*
Y127000*
X157058*
X166154Y136096*
G75*
G02X167251Y136550I1096J-1096*
G01*
X183006*
X186456Y140000*
X179442*
G37*
X194499D02*
G36*
X190840D01*
X184744Y133904*
G75*
G02X183646Y133450I-1096J1096*
G01*
X167892*
X161442Y127000*
X180805*
Y128768*
X186695*
Y127000*
X187805*
Y128768*
X189170*
Y131500*
G75*
G02Y131501I1556J0*
G01*
G75*
G02X189633Y132617I1579*
G01*
X195409Y138394*
X195017Y138776*
G75*
G02X194499Y140000I1191J1224*
G01*
G37*
X206222D02*
G36*
X204278D01*
Y134256*
X198742*
Y136793*
X198277*
X192330Y130846*
Y128768*
X193695*
Y127000*
X202305*
Y128768*
X208195*
Y127000*
X209305*
Y128768*
X210700*
Y130000*
G75*
G02X211154Y131096I1551J0*
G01*
X213700Y133642*
Y134858*
X211758Y136800*
Y134256*
X206222*
Y140000*
G37*
X243590D02*
G36*
X216942D01*
X214942Y138000*
X216346Y136596*
G75*
G02X216800Y135500I-1097J-1096*
G01*
Y133000*
G75*
G02X216346Y131904I-1551J0*
G01*
X213800Y129358*
Y128768*
X215195*
Y127000*
X231982*
Y129945*
X237518*
Y127000*
X243590*
Y140000*
G37*
X261700D02*
G36*
X247005D01*
Y127000*
X261700*
Y140000*
G37*
X276119Y127000D02*
G36*
X282450Y133331D01*
Y138500*
Y138500*
G75*
G02X282685Y139067I800*
G01*
X283183Y139565*
G75*
G02X283750Y139800I566J-565*
G01*
X287250*
G75*
G02X287817Y139565I0J-800*
G01*
X288315Y139067*
G75*
G02X288434Y138915I-576J-575*
G01*
Y140000*
X264800*
Y127000*
X276119*
G37*
X353411Y140000D02*
G36*
X293751D01*
Y130760*
X316911*
Y127000*
X366411*
X353411Y140000*
G37*
X379950D02*
G36*
X377550D01*
G75*
G02X374616Y136300I-3800*
G01*
X378211*
X380306Y138394*
G75*
G02X379950Y140000I3444J1606*
G01*
G37*
X399150D02*
G36*
X387550D01*
G75*
G02X383750Y136200I-3800*
G01*
G75*
G02X382144Y136556I2J3806*
G01*
X379669Y134081*
G75*
G02X378748Y133700I-919J919*
G01*
X374616*
G75*
G02X377550Y130000I-866J-3700*
G01*
G75*
G02X376082Y127000I-3800*
G01*
X378911*
X380306Y128394*
G75*
G02X379950Y130000I3444J1606*
G01*
G75*
G02X383750Y133800I3800*
G01*
G75*
G02X387550Y130000J-3800*
G01*
G75*
G02X386082Y127000I-3800*
G01*
X399150*
Y140000*
G37*
X52950D02*
G36*
Y148500D01*
X8350*
Y140000*
X52950*
G37*
X81950Y148500D02*
G36*
X66381D01*
X67315Y147567*
X67317Y147565*
X69581Y145300*
X80919*
X81950Y146331*
Y148500*
G37*
X102700D02*
G36*
X97470D01*
Y145917*
X90024*
G75*
G02X90050Y145719I-760J-199*
G01*
G75*
G02Y145717I-835J-1*
G01*
Y142969*
G75*
G02X89695Y142304I-802J1*
G01*
Y140000*
X90805*
Y142768*
X96695*
Y140000*
X102700*
Y148500*
G37*
X192098D02*
G36*
X187942D01*
X179442Y140000*
X186456*
X192098Y145642*
Y148500*
G37*
X194499Y140000D02*
G36*
Y143659D01*
X190840Y140000*
X194499*
G37*
X205805Y148500D02*
G36*
X204695D01*
Y144732*
X198805*
Y148500*
X197914*
Y140722*
X198443Y140207*
X198742*
Y142744*
X204278*
Y140000*
X206222*
Y141944*
G75*
G02X205450Y142744I28J800*
G01*
Y144732*
G75*
G02X205805Y145397I802J-1*
G01*
Y148500*
G37*
X243590D02*
G36*
X224800D01*
G75*
G02X224346Y147404I-1551J0*
G01*
X216942Y140000*
X243590*
Y148500*
G37*
X261700D02*
G36*
X247005D01*
Y140000*
X261700*
Y148500*
G37*
X288434D02*
G36*
X264800D01*
Y140000*
X288434*
Y148500*
G37*
X353411Y140000D02*
G36*
X344911Y148500D01*
X293751*
Y140000*
X353411*
G37*
X380259Y148500D02*
G36*
X377241D01*
G75*
G02X374616Y146300I-3491J1500*
G01*
X378211*
X380306Y148394*
G75*
G02X380259Y148500I3444J1606*
G01*
G37*
X399150D02*
G36*
X387241D01*
G75*
G02X383750Y146200I-3491J1500*
G01*
G75*
G02X382144Y146556I2J3806*
G01*
X379669Y144081*
G75*
G02X378748Y143700I-919J919*
G01*
X374616*
G75*
G02X377550Y140000I-866J-3700*
G01*
X379950*
G75*
G02X383750Y143800I3800*
G01*
G75*
G02X387550Y140000J-3800*
G01*
X399150*
Y148500*
G37*
X52950D02*
G36*
Y168000D01*
X8350*
Y148500*
X52950*
G37*
X81950D02*
G36*
Y155000D01*
Y155000*
G75*
G02X82185Y155567I800*
G01*
X82400Y155781*
G75*
G02X82183Y155935I348J717*
G01*
X76185Y161933*
G75*
G02X75950Y162500I565J566*
G01*
Y162500*
Y168000*
X58550*
Y150831*
X59581Y149800*
X64750*
G75*
G02X65317Y149565I0J-800*
G01*
X66381Y148500*
X81950*
G37*
X192098D02*
G36*
Y152656D01*
X187942Y148500*
X192098*
G37*
X102783Y168000D02*
G36*
X97695D01*
Y165232*
X91805*
Y168000*
X90695*
Y165696*
G75*
G02X91050Y165031I-446J-666*
G01*
Y156500*
G75*
G02Y156498I-835J-1*
G01*
G75*
G02X91024Y156300I-780*
G01*
X93510*
Y162083*
X97470*
Y155760*
X97122*
X97315Y155567*
G75*
G02X97550Y155000I-565J-566*
G01*
Y155000*
Y152441*
Y152441*
G75*
G02X97470Y152093I-798*
G01*
Y148500*
X102700*
Y167500*
G75*
G02X102783Y168000I1551J-1*
G01*
G37*
X205805Y148500D02*
G36*
Y149603D01*
G75*
G02X205450Y150268I446J666*
G01*
Y155500*
Y155500*
G75*
G02X205685Y156067I800*
G01*
X207183Y157565*
G75*
G02X207750Y157800I566J-565*
G01*
X220250*
G75*
G02X220817Y157565I0J-800*
G01*
X221700Y156681*
Y165358*
X219058Y168000*
X197914*
Y148500*
X198805*
Y150268*
X204695*
Y148500*
X205805*
G37*
X243590Y168000D02*
G36*
X223442D01*
X224346Y167096*
G75*
G02X224800Y166000I-1097J-1096*
G01*
Y148500*
X243590*
Y168000*
G37*
X261700D02*
G36*
X247005D01*
Y148500*
X261700*
Y168000*
G37*
X305396D02*
G36*
X297518D01*
Y164055*
X291982*
Y168000*
X264800*
Y148500*
X288434*
Y150500*
G75*
G02Y150501I1253J0*
G01*
G75*
G02X288815Y151419I1298*
G01*
X305396Y168000*
G37*
X344911Y148500D02*
G36*
X337211Y156200D01*
X334411*
Y149240*
X303089*
Y156350*
X311052*
Y159602*
G75*
G02Y159603I1253J0*
G01*
G75*
G02X311433Y160522I1298*
G01*
X318911Y168000*
X311207*
G75*
G02X310780Y166969I-1457*
G01*
X293751Y149897*
Y148500*
X344911*
G37*
X399150Y168000D02*
G36*
X350089D01*
X356789Y161300*
X370179*
G75*
G02X377550Y160000I3571J-1300*
G01*
G75*
G02X374616Y156300I-3800*
G01*
X377711*
X380161Y158750*
G75*
G02X379950Y159999I3585J1249*
G01*
G75*
G02Y160000I3470J0*
G01*
G75*
G02X387550I3800*
G01*
G75*
G02X381817Y156728I-3800*
G01*
X379169Y154081*
G75*
G02X378248Y153700I-919J919*
G01*
X374616*
G75*
G02X377550Y150000I-866J-3700*
G01*
G75*
G02X377241Y148500I-3800J0*
G01*
X380259*
G75*
G02X379950Y150000I3491J1500*
G01*
G75*
G02X383750Y153800I3800*
G01*
G75*
G02X387550Y150000J-3800*
G01*
G75*
G02X387241Y148500I-3800J0*
G01*
X399150*
Y168000*
G37*
X52950Y180000D02*
G36*
X8350D01*
Y168000*
X52950*
Y180000*
G37*
X77619D02*
G36*
X58550D01*
Y168000*
X75950*
Y178000*
Y178000*
G75*
G02X76185Y178567I800*
G01*
X77619Y180000*
G37*
X186980D02*
G36*
X186518D01*
Y179055*
X180982*
Y179101*
X180317Y178435*
G75*
G02X179750Y178200I-566J565*
G01*
X178719*
G75*
G02X177919Y179000J800*
G01*
Y179000*
Y179055*
X173581*
Y179000*
Y179000*
G75*
G02X172781Y178200I-800*
G01*
X96081*
X91050Y173169*
Y170969*
G75*
G02X90695Y170304I-802J1*
G01*
Y168000*
X91805*
Y170768*
X97695*
Y168000*
X102783*
G75*
G02X103154Y168596I1468J-500*
G01*
X106654Y172096*
G75*
G02X107751Y172550I1096J-1096*
G01*
X184608*
X186980Y174922*
Y180000*
G37*
X219058Y168000D02*
G36*
X207058Y180000D01*
X197914*
Y168000*
X219058*
G37*
X243590Y180000D02*
G36*
X211442D01*
X223442Y168000*
X243590*
Y180000*
G37*
X261700D02*
G36*
X247005D01*
Y168000*
X261700*
Y180000*
G37*
X305396Y168000D02*
G36*
X305950Y168554D01*
Y171069*
X304817Y169935*
G75*
G02X304250Y169700I-566J565*
G01*
X297518*
Y168000*
X305396*
G37*
X282450Y180000D02*
G36*
X264800D01*
Y168000*
X291982*
Y169700*
X284250*
G75*
G02X283683Y169935I0J800*
G01*
X282685Y170933*
G75*
G02X282450Y171500I565J566*
G01*
Y171500*
Y180000*
G37*
X399150D02*
G36*
X387750D01*
G75*
G02X379750I-4000*
G01*
X377750*
G75*
G02X373750Y176000I-4000*
G01*
G75*
G02X369750Y180000J4000*
G01*
X334411*
Y173650*
X311207*
Y168000*
X318911*
X323331Y172419*
G75*
G02X324252Y172800I919J-919*
G01*
X344748*
G75*
G02X345669Y172419I3J-1299*
G01*
X350089Y168000*
X399150*
Y180000*
G37*
X87119Y250000D02*
G36*
X57224D01*
G75*
G02X57300Y248800I-9475J-1199*
G01*
G75*
G02X47750Y239250I-9550*
G01*
G75*
G02X38200Y248800J9550*
G01*
G75*
G02X38276Y250000I9551J1*
G01*
X8350*
Y180000*
X52950*
Y215500*
Y215500*
G75*
G02X53185Y216067I800*
G01*
X87119Y250000*
G37*
X163200D02*
G36*
X159300D01*
Y228142*
X162392Y225050*
X169202*
G75*
G02X168654Y225404I546J1449*
G01*
X163654Y230404*
G75*
G02X163200Y231500I1097J1096*
G01*
Y250000*
G37*
X170200D02*
G36*
X166300D01*
Y232142*
X170392Y228050*
X179108*
X179302Y228244*
Y228362*
X174049*
Y235772*
X174184*
Y235858*
X170654Y239388*
G75*
G02X170200Y240484I1097J1096*
G01*
Y250000*
G37*
X77619Y180000D02*
G36*
X84183Y186565D01*
G75*
G02X84750Y186800I566J-565*
G01*
X135700*
Y250000*
X94381*
X58550Y214169*
Y180000*
X77619*
G37*
X176586Y250000D02*
G36*
X173300D01*
Y241126*
X176586Y237841*
Y250000*
G37*
X186980Y180000D02*
G36*
Y185200D01*
X186719*
G75*
G02X185919Y186000J800*
G01*
Y186000*
Y186055*
X181581*
Y186000*
Y186000*
G75*
G02X181550Y185778I-799*
G01*
Y184945*
X186518*
Y180000*
X186980*
G37*
X197860Y250000D02*
G36*
X194195D01*
Y246232*
X188305*
Y250000*
X187195*
Y246696*
G75*
G02X187550Y246031I-446J-666*
G01*
Y235970*
G75*
G02X187525Y235772I-797*
G01*
X189539*
Y239339*
G75*
G02X189993Y240435I1551J0*
G01*
X194654Y245096*
G75*
G02X195751Y245550I1096J-1096*
G01*
X198108*
X198156Y245598*
X197860*
Y250000*
G37*
X204200D02*
G36*
X203400D01*
Y245842*
X204200Y246642*
Y250000*
G37*
X207058Y180000D02*
G36*
X197914Y189144D01*
Y180000*
X207058*
G37*
X243590D02*
G36*
Y221246D01*
X242043Y222793*
X202250*
G75*
G02X201036Y223299I1J1709*
G01*
X197554Y226813*
G75*
G02X197058Y228016I1211J1203*
G01*
Y228362*
X192639*
Y224142*
X197731Y219050*
X228918*
G75*
G02X233150Y217500I1832J-1550*
G01*
G75*
G02X228918Y215950I-2400*
G01*
X197090*
G75*
G02X195993Y216404I-1J1550*
G01*
X189993Y222404*
G75*
G02X189539Y223500I1097J1096*
G01*
Y228362*
X184961*
Y225161*
G75*
G02X184507Y224065I-1551J0*
G01*
X182846Y222404*
G75*
G02X181749Y221950I-1096J1096*
G01*
X161751*
G75*
G02X160654Y222404I-1J1550*
G01*
X156654Y226404*
G75*
G02X156200Y227500I1097J1096*
G01*
Y250000*
X139800*
Y186800*
X172982*
Y191945*
X174200*
Y193500*
G75*
G02X174654Y194596I1551J0*
G01*
X177534Y197476*
G75*
G02X177249Y197450I-287J1552*
G01*
X176392*
X174642Y195700*
G75*
G02X174650Y195505I-2291J-195*
G01*
G75*
G02Y195500I-2275J-2*
G01*
G75*
G02X169850I-2400*
G01*
G75*
G02X172450Y197892I2400J0*
G01*
X174654Y200096*
G75*
G02X175751Y200550I1096J-1096*
G01*
X176608*
X177034Y200976*
G75*
G02X176749Y200950I-287J1552*
G01*
X174082*
G75*
G02X169850Y202500I-1832J1550*
G01*
G75*
G02X174082Y204050I2400*
G01*
X176108*
X176743Y204685*
Y205228*
X174049*
Y212638*
X181861*
Y215661*
G75*
G02X182315Y216757I1551J0*
G01*
X183858Y218300*
G75*
G02X183850Y218495I2291J195*
G01*
G75*
G02Y218500I2275J2*
G01*
G75*
G02X188650I2400*
G01*
G75*
G02X186050Y216108I-2400J0*
G01*
X185242Y215300*
X187750*
G75*
G02X188550Y214500J-800*
G01*
Y214500*
Y212837*
G75*
G02X188525Y212638I-797*
G01*
X200451*
Y205228*
X200316*
Y191126*
X211442Y180000*
X243590*
G37*
X207482Y250000D02*
G36*
X207300D01*
Y246000*
G75*
G02X206846Y244904I-1551J0*
G01*
X201846Y239904*
G75*
G02X201298Y239550I-1095J1095*
G01*
X202108*
X208613Y246055*
X207482*
Y250000*
G37*
X282450Y180000D02*
G36*
Y182000D01*
Y182000*
G75*
G02X282685Y182567I800*
G01*
X283683Y183565*
G75*
G02X284250Y183800I566J-565*
G01*
X291919*
X293683Y185565*
G75*
G02X294250Y185800I566J-565*
G01*
X303111*
X302831Y186081*
G75*
G02X302450Y186999I918J919*
G01*
G75*
G02Y187000I1253J0*
G01*
Y205500*
G75*
G02Y205501I1253J0*
G01*
G75*
G02X302831Y206419I1298*
G01*
X305950Y209539*
Y250000*
X296089*
X294169Y248081*
G75*
G02X293248Y247700I-919J919*
G01*
X213018*
Y246055*
X211800*
Y245500*
G75*
G02X211346Y244404I-1551J0*
G01*
X203846Y236904*
G75*
G02X202749Y236450I-1096J1096*
G01*
X198392*
X197757Y235815*
Y235772*
X200451*
Y232343*
G75*
G02X200473Y232070I-1652J-273*
G01*
G75*
G02Y232067I-1628J-1*
G01*
Y228719*
X202962Y226207*
X242750*
G75*
G02X243959Y225706I0J-1706*
G01*
X246503Y223161*
G75*
G02X247005Y221953I-1205J-1208*
G01*
Y221953*
Y180000*
X261700*
Y211358*
X257950Y215108*
G75*
G02X255350Y217500I-199J2392*
G01*
G75*
G02X260150I2400*
G01*
G75*
G02Y217495I-2275J-2*
G01*
G75*
G02X260142Y217300I-2299*
G01*
X264346Y213096*
G75*
G02X264800Y212000I-1097J-1096*
G01*
Y180000*
X282450*
G37*
X335888Y250000D02*
G36*
X320519D01*
Y246570*
X320789Y246300*
X338152*
X339601Y247748*
G75*
G02X339248Y247700I-349J1246*
G01*
X338250*
G75*
G02X337329Y248083J1300*
G01*
X336656Y248756*
G75*
G02X336353Y249228I912J919*
G01*
X335888*
Y250000*
G37*
X399150D02*
G36*
X387750D01*
G75*
G02X379750I-4000*
G01*
X377550*
G75*
G02X373750Y246200I-3800*
G01*
G75*
G02X372144Y246556I2J3806*
G01*
X370169Y244581*
G75*
G02X369248Y244200I-919J919*
G01*
X353750*
G75*
G02X352829Y244583J1300*
G01*
X352010Y245402*
G75*
G02X351786Y245700I904J912*
G01*
X351252*
G75*
G02X350331Y246081I-3J1299*
G01*
X349449Y246963*
G75*
G02X349109Y247558I922J920*
G01*
Y245059*
G75*
G02Y245058I-1253J0*
G01*
G75*
G02X348728Y244140I-1298*
G01*
X346669Y242081*
G75*
G02X345748Y241700I-919J919*
G01*
X319252*
G75*
G02X318331Y242081I-3J1299*
G01*
X316331Y244081*
G75*
G02X315950Y244999I918J919*
G01*
G75*
G02Y245000I1253J0*
G01*
Y250000*
X311207*
Y208500*
G75*
G02X310781Y207469I-1459J0*
G01*
X307207Y203896*
Y188604*
X309430Y186381*
G75*
G02X309349Y187000I2319J619*
G01*
G75*
G02X313611Y188516I2401*
G01*
Y201161*
G75*
G02Y201162I1253J0*
G01*
G75*
G02X313992Y202081I1298*
G01*
X332831Y220919*
G75*
G02X333752Y221300I919J-919*
G01*
X370179*
G75*
G02X377550Y220000I3571J-1300*
G01*
G75*
G02X374616Y216300I-3800*
G01*
X378211*
X380306Y218394*
G75*
G02X379950Y220000I3450J1607*
G01*
G75*
G02X387550I3800*
G01*
G75*
G02X382144Y216556I-3800*
G01*
X379669Y214081*
G75*
G02X378748Y213700I-919J919*
G01*
X374616*
G75*
G02X377550Y210000I-866J-3700*
G01*
G75*
G02X374616Y206300I-3800*
G01*
X378211*
X380306Y208394*
G75*
G02X379950Y210000I3444J1606*
G01*
G75*
G02X383750Y213800I3800*
G01*
G75*
G02X387550Y210000J-3800*
G01*
G75*
G02X383750Y206200I-3800*
G01*
G75*
G02X382144Y206556I2J3806*
G01*
X379669Y204081*
G75*
G02X378748Y203700I-919J919*
G01*
X374616*
G75*
G02X377550Y200000I-866J-3700*
G01*
G75*
G02X374616Y196300I-3800*
G01*
X378211*
X380306Y198394*
G75*
G02X379950Y200000I3444J1606*
G01*
G75*
G02X383750Y203800I3800*
G01*
G75*
G02X387550Y200000J-3800*
G01*
G75*
G02X383750Y196200I-3800*
G01*
G75*
G02X382144Y196556I2J3806*
G01*
X379669Y194081*
G75*
G02X378748Y193700I-919J919*
G01*
X374616*
G75*
G02X377550Y190000I-866J-3700*
G01*
G75*
G02X374616Y186300I-3800*
G01*
X378211*
X380306Y188394*
G75*
G02X379950Y190000I3444J1606*
G01*
G75*
G02X383750Y193800I3800*
G01*
G75*
G02X387550Y190000J-3800*
G01*
G75*
G02X383750Y186200I-3800*
G01*
G75*
G02X382144Y186556I2J3806*
G01*
X379669Y184081*
G75*
G02X378748Y183700I-919J919*
G01*
X375270*
G75*
G02X377750Y180000I-1520J-3700*
G01*
X379750*
G75*
G02X387750I4000*
G01*
X399150*
Y250000*
G37*
X369950D02*
G36*
X354612D01*
Y249228*
X354227*
Y246861*
X354289Y246800*
X368711*
X370306Y248394*
G75*
G02X369950Y250000I3444J1606*
G01*
G37*
X369750Y180000D02*
G36*
G75*
G02X372230Y183700I4000D01*
G01*
X334289*
X334125Y183536*
Y180760*
X334411*
Y180000*
X369750*
G37*
X38276Y250000D02*
G36*
G75*
G02X41476Y256000I9475J-1201D01*
G01*
X8350*
Y250000*
X38276*
G37*
X93119Y256000D02*
G36*
X54024D01*
G75*
G02X57224Y250000I-6274J-7201*
G01*
X87119*
X93119Y256000*
G37*
X135700D02*
G36*
X100381D01*
X94381Y250000*
X135700*
Y256000*
G37*
X156200D02*
G36*
X139800D01*
Y250000*
X156200*
Y256000*
G37*
X163200D02*
G36*
X159300D01*
Y250000*
X163200*
Y256000*
G37*
X170200D02*
G36*
X166300D01*
Y250000*
X170200*
Y256000*
G37*
X176586D02*
G36*
X173300D01*
Y250000*
X176586*
Y256000*
G37*
X204200D02*
G36*
X203400D01*
Y252598*
X197860*
Y253793*
X196451*
G75*
G02X192364Y255500I-1687J1707*
G01*
G75*
G02X192417Y256000I2400J0*
G01*
X187550*
Y251969*
G75*
G02X187195Y251304I-802J1*
G01*
Y250000*
X188305*
Y251768*
X194195*
Y250000*
X197860*
Y251488*
X203400*
Y250000*
X204200*
Y256000*
G37*
X298411D02*
G36*
X218597D01*
G75*
G02X218650Y255500I-2347J-500*
G01*
G75*
G02X214418Y253950I-2400*
G01*
X213018*
Y253055*
X207482*
Y256000*
X207300*
Y250000*
X207482*
Y251945*
X213018*
Y250300*
X292711*
X298411Y256000*
G37*
X305950D02*
G36*
X302088D01*
X296089Y250000*
X305950*
Y256000*
G37*
X311923D02*
G36*
X311207D01*
Y250000*
X315950*
Y252283*
X311923*
Y256000*
G37*
X335888D02*
G36*
X322577D01*
Y252283*
X320519*
Y250000*
X335888*
Y256000*
G37*
X399150D02*
G36*
X383750D01*
X354612*
Y250000*
X369950*
G75*
G02X373750Y253800I3800*
G01*
G75*
G02X377550Y250000J-3800*
G01*
X379750*
G75*
G02X387750I4000*
G01*
X399150*
Y256000*
G37*
X107119Y270000D02*
G36*
X8350D01*
Y256000*
X41476*
G75*
G02X47750Y258350I6274J-7200*
G01*
G75*
G02X54024Y256000I0J-9550*
G01*
X93119*
X107119Y270000*
G37*
X135700D02*
G36*
X114381D01*
X100381Y256000*
X135700*
Y270000*
G37*
X156200D02*
G36*
X139800D01*
Y256000*
X156200*
Y270000*
G37*
X163200D02*
G36*
X159300D01*
Y256000*
X163200*
Y270000*
G37*
X170200D02*
G36*
X166300D01*
Y256000*
X170200*
Y270000*
G37*
X176586Y256000D02*
G36*
Y270000D01*
X173300*
Y256000*
X176586*
G37*
X208558Y270000D02*
G36*
X180001D01*
Y257882*
X180183Y258065*
G75*
G02X180750Y258300I566J-565*
G01*
X186250*
G75*
G02X186817Y258065I0J-800*
G01*
X187315Y257567*
G75*
G02X187550Y257000I-565J-566*
G01*
Y257000*
Y256000*
X192417*
G75*
G02X196451Y257207I2347J-500*
G01*
X197860*
Y258488*
X203400*
Y256000*
X204200*
Y265000*
G75*
G02X204654Y266096I1551J0*
G01*
X208558Y270000*
G37*
X305950Y256000D02*
G36*
Y259500D01*
G75*
G02Y259502I1428J1*
G01*
G75*
G02X306026Y259937I1293*
G01*
X302088Y256000*
X305950*
G37*
X311923D02*
G36*
Y259394D01*
X312013*
Y259702*
X311207Y258896*
Y256000*
X311923*
G37*
Y270000D02*
G36*
X302981D01*
G75*
G02X296519I-3231J2000*
G01*
X292981*
G75*
G02X286519I-3231J2000*
G01*
X212942*
X207300Y264358*
Y256000*
X207482*
Y258945*
X213018*
Y257050*
X214418*
G75*
G02X218597Y256000I1832J-1550*
G01*
X298411*
X312013Y269602*
Y269606*
X311923*
Y270000*
G37*
X113691Y276572D02*
G36*
X56546D01*
G75*
G02X56550Y276400I-3797J-173*
G01*
G75*
G02X48950I-3800*
G01*
G75*
G02X48954Y276572I3801J0*
G01*
X8350*
Y270000*
X107119*
X113691Y276572*
G37*
X135700D02*
G36*
X120550D01*
Y276500*
Y276500*
G75*
G02X120315Y275933I-800*
G01*
X114381Y270000*
X135700*
Y276572*
G37*
X156200D02*
G36*
X139800D01*
Y270000*
X156200*
Y276572*
G37*
X163200D02*
G36*
X159300D01*
Y270000*
X163200*
Y276572*
G37*
X170200D02*
G36*
X166300D01*
Y270000*
X170200*
Y276572*
G37*
X176586D02*
G36*
X173300D01*
Y270000*
X176586*
Y276572*
G37*
X288200D02*
G36*
X180001D01*
Y270000*
X208558*
X211654Y273096*
G75*
G02X212751Y273550I1096J-1096*
G01*
X286280*
G75*
G02X288200Y275470I3471J-1552*
G01*
Y276572*
G37*
X286519Y270000D02*
G36*
G75*
G02X286280Y270450I3231J2002D01*
G01*
X213392*
X212942Y270000*
X286519*
G37*
X296519D02*
G36*
G75*
G02X295950Y272000I3231J2000D01*
G01*
G75*
G02X298200Y275470I3800*
G01*
Y276572*
X291300*
Y275470*
G75*
G02X293550Y272000I-1550J-3470*
G01*
G75*
G02X292981Y270000I-3800*
G01*
X296519*
G37*
X311402Y276572D02*
G36*
X301300D01*
Y275470*
G75*
G02X303550Y272000I-1550J-3470*
G01*
G75*
G02X302981Y270000I-3800*
G01*
X311923*
Y276051*
X311402Y276572*
G37*
X399150D02*
G36*
X385812D01*
G75*
G02X381688I-2062J3427*
G01*
X375390*
G75*
G02X372109I-1640J3428*
G01*
X354612*
Y272362*
X349109*
Y271000*
G75*
G02Y270999I-1253J0*
G01*
G75*
G02X348728Y270081I-1298*
G01*
X348648Y270000*
X369950*
G75*
G02X377550I3800*
G01*
X379750*
G75*
G02X387750I4000*
G01*
X399150*
Y276572*
G37*
X113950Y281800D02*
G36*
X46550D01*
G75*
G02X38950I-3800*
G01*
X8350*
Y276572*
X48954*
G75*
G02X56546I3796J-172*
G01*
X113691*
X113950Y276831*
Y281800*
G37*
X135700D02*
G36*
X120550D01*
Y276572*
X135700*
Y281800*
G37*
X156200D02*
G36*
X139800D01*
Y276572*
X156200*
Y281800*
G37*
X163200D02*
G36*
X159300D01*
Y276572*
X163200*
Y281800*
G37*
X170200D02*
G36*
X166300D01*
Y276572*
X170200*
Y281800*
G37*
X176586D02*
G36*
X173300D01*
Y276572*
X176586*
Y281800*
G37*
X288200D02*
G36*
X180001D01*
Y276572*
X288200*
Y281800*
G37*
X296982D02*
G36*
X291300D01*
Y276572*
X298200*
Y279055*
X296982*
Y281800*
G37*
X311402Y276572D02*
G36*
X309831Y278144D01*
G75*
G02X309450Y279062I918J919*
G01*
G75*
G02Y279063I1253J0*
G01*
Y281800*
X302518*
Y279055*
X301300*
Y276572*
X311402*
G37*
X350750Y281800D02*
G36*
X350025D01*
G75*
G02X349815Y281433I-774J200*
G01*
X348153Y279772*
X349068*
Y280118*
G75*
G02X349451Y281039I1300*
G01*
X349829Y281417*
G75*
G02X350750Y281800I921J-917*
G01*
G37*
X372109Y276572D02*
G36*
G75*
G02X370179Y278700I1641J3428D01*
G01*
X356252*
G75*
G02X355331Y279081I-3J1299*
G01*
X355211Y279200*
X354612*
Y276572*
X372109*
G37*
X370403Y281800D02*
G36*
X355753D01*
G75*
G02X356669Y281419I-3J-1299*
G01*
X356789Y281300*
X370179*
G75*
G02X370403Y281800I3571J-1300*
G01*
G37*
X380178D02*
G36*
X377096D01*
G75*
G02X377550Y280000I-3346J-1800*
G01*
G75*
G02X375390Y276572I-3800J0*
G01*
X381688*
G75*
G02X379750Y280000I2062J3428*
G01*
G75*
G02X380178Y281800I4000*
G01*
G37*
X399150D02*
G36*
X387322D01*
G75*
G02X387750Y280000I-3572J-1800*
G01*
G75*
G02X385812Y276572I-4000*
G01*
X399150*
Y281800*
G37*
X113950Y289000D02*
G36*
X56096D01*
G75*
G02X56550Y287200I-3346J-1800*
G01*
G75*
G02X48950I-3800*
G01*
G75*
G02X49404Y289000I3800J0*
G01*
X43967*
G75*
G02X41533I-1217J3600*
G01*
X8350*
Y281800*
X38950*
G75*
G02X46550I3800*
G01*
X113950*
Y289000*
G37*
X135700D02*
G36*
X120550D01*
Y281800*
X135700*
Y289000*
G37*
X156200D02*
G36*
X139800D01*
Y281800*
X156200*
Y289000*
G37*
X163200D02*
G36*
X159300D01*
Y281800*
X163200*
Y289000*
G37*
X170200D02*
G36*
X166300D01*
Y281800*
X170200*
Y289000*
G37*
X176586D02*
G36*
X173300D01*
Y281800*
X176586*
Y289000*
G37*
X288200D02*
G36*
X180001D01*
Y281800*
X288200*
Y289000*
G37*
X328950D02*
G36*
X327518D01*
Y286555*
X321982*
Y289000*
X320676*
Y285800*
X321982*
G75*
G02X322647Y285445I-1J-802*
G01*
X326853*
G75*
G02X327518Y285800I666J-446*
G01*
X328419*
X328950Y286331*
Y289000*
G37*
X309450Y281800D02*
G36*
Y289000D01*
X302518*
Y286055*
X296982*
Y289000*
X291300*
Y281800*
X296982*
Y284945*
X302518*
Y281800*
X309450*
G37*
X399150Y289000D02*
G36*
X341050D01*
Y288831*
X341581Y288300*
X341982*
G75*
G02X342647Y287945I-1J-802*
G01*
X346853*
G75*
G02X347518Y288300I666J-446*
G01*
X348250*
G75*
G02X348817Y288065I0J-800*
G01*
X349815Y287067*
G75*
G02X350050Y286500I-565J-566*
G01*
Y286500*
Y282000*
Y282000*
G75*
G02X350025Y281800I-799J0*
G01*
X350750*
X355748*
G75*
G02X355753I3J-1310*
G01*
X370403*
G75*
G02X377096I3347J-1800*
G01*
X380178*
G75*
G02X387322I3572J-1800*
G01*
X399150*
Y289000*
G37*
X38998Y292000D02*
G36*
X8350D01*
Y289000*
X41533*
G75*
G02X38998Y292000I1217J3600*
G01*
G37*
X113950D02*
G36*
X46502D01*
G75*
G02X43967Y289000I-3752J600*
G01*
X49404*
G75*
G02X56096I3346J-1800*
G01*
X113950*
Y292000*
G37*
X135700D02*
G36*
X120550D01*
Y289000*
X135700*
Y292000*
G37*
X156200D02*
G36*
X139800D01*
Y289000*
X156200*
Y292000*
G37*
X163200D02*
G36*
X159300D01*
Y289000*
X163200*
Y292000*
G37*
X170200D02*
G36*
X166300D01*
Y289000*
X170200*
Y292000*
G37*
X176586D02*
G36*
X173300D01*
Y289000*
X176586*
Y292000*
G37*
X288200D02*
G36*
X180001D01*
Y289000*
X288200*
Y292000*
G37*
X309450D02*
G36*
X291300D01*
Y289000*
X296982*
Y291945*
X302518*
Y289000*
X309450*
Y292000*
G37*
X321982D02*
G36*
X320676D01*
Y289000*
X321982*
Y292000*
G37*
X328950D02*
G36*
X327518D01*
Y289000*
X328950*
Y292000*
G37*
X399150D02*
G36*
X347518D01*
Y289055*
X341982*
Y292000*
X341050*
Y289000*
X399150*
Y292000*
G37*
X113950Y298000D02*
G36*
X56750D01*
G75*
G02X48750I-4000*
G01*
X8350*
Y292000*
X38998*
G75*
G02X38950Y292600I3753J600*
G01*
G75*
G02X46550I3800*
G01*
G75*
G02X46502Y292000I-3800*
G01*
X113950*
Y298000*
G37*
X135700D02*
G36*
X120550D01*
Y292000*
X135700*
Y298000*
G37*
X156200D02*
G36*
X139800D01*
Y292000*
X156200*
Y298000*
G37*
X163200D02*
G36*
X159300D01*
Y292000*
X163200*
Y298000*
G37*
X170200D02*
G36*
X166300D01*
Y292000*
X170200*
Y298000*
G37*
X176586D02*
G36*
X173300D01*
Y292000*
X176586*
Y298000*
G37*
X288200D02*
G36*
X180001D01*
Y292000*
X288200*
Y298000*
G37*
X309450Y292000D02*
G36*
Y296461D01*
X307911Y298000*
X291300*
Y292000*
X309450*
G37*
X399150Y298000D02*
G36*
X317280D01*
X320249Y295031*
G75*
G02X320676Y294000I-1032J-1031*
G01*
Y292000*
X321982*
Y292445*
X327518*
Y292000*
X328950*
Y292000*
G75*
G02X329185Y292567I800*
G01*
X330183Y293565*
G75*
G02X330750Y293800I566J-565*
G01*
X339250*
G75*
G02X339817Y293565I0J-800*
G01*
X340815Y292567*
G75*
G02X341050Y292000I-565J-566*
G01*
Y292000*
X341982*
Y294945*
X347518*
Y292000*
X399150*
Y298000*
G37*
X113950Y303400D02*
G36*
X46550D01*
G75*
G02X38950I-3800*
G01*
X8350*
Y298000*
X48750*
G75*
G02X56750I4000*
G01*
X113950*
Y303400*
G37*
X135700D02*
G36*
X120550D01*
Y298000*
X135700*
Y303400*
G37*
X156200D02*
G36*
X139800D01*
Y298000*
X156200*
Y303400*
G37*
X163200D02*
G36*
X159300D01*
Y298000*
X163200*
Y303400*
G37*
X170200D02*
G36*
X166300D01*
Y298000*
X170200*
Y303400*
G37*
X176586D02*
G36*
X173300D01*
Y298000*
X176586*
Y303400*
G37*
X288200D02*
G36*
X180001D01*
Y298000*
X288200*
Y303400*
G37*
X307911Y298000D02*
G36*
X302511Y303400D01*
X291300*
Y298000*
X307911*
G37*
X399150Y303400D02*
G36*
X347988D01*
X347671Y303083*
G75*
G02X346750Y302700I-921J917*
G01*
X318752*
G75*
G02X317831Y303081I-3J1299*
G01*
X317511Y303400*
X311880*
X317280Y298000*
X399150*
Y303400*
G37*
X135700Y310000D02*
G36*
X56356D01*
G75*
G02X56550Y308800I-3606J-1200*
G01*
G75*
G02X48950I-3800*
G01*
G75*
G02X49144Y310000I3800*
G01*
X8350*
Y303400*
X38950*
G75*
G02X46550I3800*
G01*
X113950*
Y308000*
Y308000*
G75*
G02X114185Y308567I800*
G01*
X115183Y309565*
G75*
G02X115750Y309800I566J-565*
G01*
X118750*
G75*
G02X119317Y309565I0J-800*
G01*
X120315Y308567*
G75*
G02X120550Y308000I-565J-566*
G01*
Y308000*
Y303400*
X135700*
Y310000*
G37*
X156200D02*
G36*
X139800D01*
Y303400*
X156200*
Y310000*
G37*
X163200D02*
G36*
X159300D01*
Y303400*
X163200*
Y310000*
G37*
X170200D02*
G36*
X166300D01*
Y303400*
X170200*
Y310000*
G37*
X176586D02*
G36*
X173300D01*
Y303400*
X176586*
Y310000*
G37*
X288200D02*
G36*
X180001D01*
Y303400*
X288200*
Y310000*
G37*
X302511Y303400D02*
G36*
X302331Y303581D01*
G75*
G02X301950Y304499I918J919*
G01*
G75*
G02Y304500I1253J0*
G01*
Y310000*
X291300*
Y303400*
X302511*
G37*
X317511D02*
G36*
X315831Y305081D01*
G75*
G02X315450Y305999I918J919*
G01*
G75*
G02Y306000I1253J0*
G01*
Y310000*
X308707*
Y306572*
X311880Y303400*
X317511*
G37*
X336388Y310000D02*
G36*
X320019D01*
Y307570*
X320289Y307300*
X339152*
X339552Y307700*
X338750*
G75*
G02X337829Y308083J1300*
G01*
X337156Y308756*
G75*
G02X336773Y309677I917J921*
G01*
Y309728*
X336388*
Y310000*
G37*
X399150D02*
G36*
X387750D01*
G75*
G02X379750I-4000*
G01*
X377550*
G75*
G02X373750Y306200I-3800*
G01*
G75*
G02X372144Y306556I2J3806*
G01*
X371669Y306081*
G75*
G02X370748Y305700I-919J919*
G01*
X355430*
G75*
G02X354508Y306081I-3J1299*
G01*
X352882Y307707*
G75*
G02X352750Y307700I-128J1219*
G01*
X351250*
G75*
G02X350329Y308083J1300*
G01*
X349951Y308461*
G75*
G02X349609Y309058I914J920*
G01*
Y305559*
G75*
G02X349226Y304638I-1300*
G01*
X347988Y303400*
X399150*
Y310000*
G37*
X369950D02*
G36*
X355112D01*
Y309728*
X354727*
Y309539*
X355966Y308300*
X370211*
X370306Y308394*
G75*
G02X369950Y310000I3444J1606*
G01*
G37*
X135700Y314200D02*
G36*
X46550D01*
G75*
G02X38950I-3800*
G01*
X8350*
Y310000*
X49144*
G75*
G02X56356I3606J-1200*
G01*
X135700*
Y314200*
G37*
X156200D02*
G36*
X139800D01*
Y310000*
X156200*
Y314200*
G37*
X163200D02*
G36*
X159300D01*
Y310000*
X163200*
Y314200*
G37*
X170200D02*
G36*
X166300D01*
Y310000*
X170200*
Y314200*
G37*
X176586D02*
G36*
X173300D01*
Y310000*
X176586*
Y314200*
G37*
X288200D02*
G36*
X180001D01*
Y310000*
X288200*
Y314200*
G37*
X301950D02*
G36*
X291300D01*
Y310000*
X301950*
Y314200*
G37*
X311423D02*
G36*
X308707D01*
Y310000*
X315450*
Y312783*
X311423*
Y314200*
G37*
X336388D02*
G36*
X322077D01*
Y312783*
X320019*
Y310000*
X336388*
Y314200*
G37*
X399150D02*
G36*
X355112D01*
Y310000*
X369950*
G75*
G02X373750Y313800I3800*
G01*
G75*
G02X377550Y310000J-3800*
G01*
X379750*
G75*
G02X387750I4000*
G01*
X399150*
Y314200*
G37*
X135700Y320000D02*
G36*
X56529D01*
G75*
G02X56550Y319600I-3779J-402*
G01*
G75*
G02X48950I-3800*
G01*
G75*
G02X48971Y320000I3800J-2*
G01*
X8350*
Y314200*
X38950*
G75*
G02X46550I3800*
G01*
X135700*
Y320000*
G37*
X155403D02*
G36*
X139800D01*
Y314200*
X156200*
Y318668*
G75*
G02X155403Y320000I1550J1832*
G01*
G37*
X163200D02*
G36*
X160097D01*
G75*
G02X159300Y318668I-2347J500*
G01*
Y314200*
X163200*
Y320000*
G37*
X170200D02*
G36*
X166300D01*
Y314200*
X170200*
Y320000*
G37*
X176586D02*
G36*
X173300D01*
Y314200*
X176586*
Y320000*
G37*
X288200D02*
G36*
X180001D01*
Y314200*
X288200*
Y320000*
G37*
X301950D02*
G36*
X291300D01*
Y314200*
X301950*
Y320000*
G37*
X311513D02*
G36*
X308707D01*
Y314200*
X311423*
Y319894*
X311513*
Y320000*
G37*
X341293D02*
G36*
X339581D01*
G75*
G02X338748Y319700I-830J999*
G01*
X322077*
Y314200*
X336388*
Y317138*
X339332*
Y317500*
G75*
G02Y317501I1253J0*
G01*
G75*
G02X339713Y318419I1298*
G01*
X341293Y320000*
G37*
X399150D02*
G36*
X387750D01*
G75*
G02X379750I-4000*
G01*
X377550*
G75*
G02X370179Y318700I-3800J0*
G01*
X343670*
X342108Y317138*
X355112*
Y314200*
X399150*
Y320000*
G37*
X135700Y330000D02*
G36*
X8350D01*
Y320000*
X48971*
G75*
G02X56529I3779J-400*
G01*
X135700*
Y330000*
G37*
X163200D02*
G36*
X139800D01*
Y320000*
X155403*
G75*
G02X155350Y320500I2347J500*
G01*
G75*
G02X160150I2400*
G01*
G75*
G02X160097Y320000I-2400J0*
G01*
X163200*
Y330000*
G37*
X170200D02*
G36*
X166300D01*
Y320000*
X170200*
Y330000*
G37*
X176586D02*
G36*
X173300D01*
Y320000*
X176586*
Y330000*
G37*
X286259D02*
G36*
X180001D01*
Y320000*
X288200*
Y325030*
G75*
G02X285950Y328500I1550J3470*
G01*
G75*
G02X286259Y330000I3800J0*
G01*
G37*
X311513Y320000D02*
G36*
Y321000D01*
G75*
G02Y321001I1253J0*
G01*
G75*
G02X311894Y321919I1298*
G01*
X313517Y323543*
X310354*
X308707Y321896*
Y320000*
X311513*
G37*
X306919Y330000D02*
G36*
X303241D01*
G75*
G02X303550Y328500I-3497J-1501*
G01*
G75*
G02X295950I-3800*
G01*
G75*
G02X296259Y330000I3801J0*
G01*
X293241*
G75*
G02X293550Y328500I-3491J-1500*
G01*
G75*
G02X291300Y325030I-3800*
G01*
Y320000*
X301950*
Y324500*
G75*
G02Y324501I1253J0*
G01*
G75*
G02X302331Y325419I1298*
G01*
X306831Y329919*
G75*
G02X306919Y330000I919J-920*
G01*
G37*
X399150D02*
G36*
X387750D01*
G75*
G02X379750I-4000*
G01*
X377550*
G75*
G02X369950I-3800*
G01*
X349483*
G75*
G02X349228Y329640I-1172J559*
G01*
X339669Y320081*
G75*
G02X339581Y320000I-919J920*
G01*
X341293*
X342213Y320919*
G75*
G02X343134Y321300I919J-919*
G01*
X370179*
G75*
G02X377550Y320000I3571J-1300*
G01*
X379750*
G75*
G02X387750I4000*
G01*
X399150*
Y330000*
G37*
X135700Y340000D02*
G36*
X54024D01*
G75*
G02X47750Y337650I-6274J7200*
G01*
G75*
G02X41476Y340000I0J9550*
G01*
X8350*
Y330000*
X135700*
Y340000*
G37*
X170200D02*
G36*
X139800D01*
Y330000*
X163200*
Y333342*
G75*
G02X161850Y335500I1050J2159*
G01*
G75*
G02X166650I2400*
G01*
G75*
G02Y335499I-2506J0*
G01*
G75*
G02X166300Y334252I-2396*
G01*
Y330000*
X170200*
Y340000*
G37*
X176586D02*
G36*
X173300D01*
Y330000*
X176586*
Y340000*
G37*
X296259Y330000D02*
G36*
G75*
G02X298200Y331970I3492J-1500D01*
G01*
Y336232*
X296805*
Y340000*
X295695*
Y336232*
X289805*
Y340000*
X180001*
Y330000*
X286259*
G75*
G02X293241I3491J-1500*
G01*
X296259*
G37*
X305911Y340000D02*
G36*
X302695D01*
Y336232*
X301300*
Y331970*
G75*
G02X301356Y331944I-721J-1637*
G01*
X308611Y339200*
X307252*
G75*
G02X306331Y339581I-3J1299*
G01*
X305911Y340000*
G37*
X306919Y330000D02*
G36*
G75*
G02X307752Y330300I830J-999D01*
G01*
X311211*
X311423Y330512*
Y337200*
X310289*
X303194Y330106*
G75*
G02X303241Y330000I-3450J-1608*
G01*
X306919*
G37*
X318950Y340000D02*
G36*
X318589D01*
X318950Y339639*
Y340000*
G37*
X399150D02*
G36*
X387750D01*
G75*
G02X379750I-4000*
G01*
X377550*
G75*
G02X370179Y338700I-3800J0*
G01*
X368752*
G75*
G02X367831Y339081I-3J1299*
G01*
X366911Y340000*
X355112*
Y332862*
X349609*
Y330559*
G75*
G02Y330558I-1253J0*
G01*
G75*
G02X349483Y330000I-1298J0*
G01*
X369950*
G75*
G02X377550I3800*
G01*
X379750*
G75*
G02X387750I4000*
G01*
X399150*
Y340000*
G37*
X39806Y352500D02*
G36*
X8350D01*
Y340000*
X41476*
G75*
G02X38200Y347200I6274J7200*
G01*
G75*
G02X39806Y352500I9551J0*
G01*
G37*
X135700D02*
G36*
X55694D01*
G75*
G02X57300Y347200I-7944J-5300*
G01*
G75*
G02X54024Y340000I-9550*
G01*
X135700*
Y352500*
G37*
X170200D02*
G36*
X167300D01*
Y346500*
G75*
G02X166846Y345404I-1551J0*
G01*
X164846Y343404*
G75*
G02X163749Y342950I-1096J1096*
G01*
X160195*
Y341732*
X154305*
Y347268*
X160195*
Y346050*
X163108*
X164200Y347142*
Y352500*
X160195*
Y351232*
X154305*
Y352500*
X153195*
Y351232*
X152300*
Y347268*
X153195*
Y341732*
X147305*
Y347268*
X148200*
Y351232*
X147305*
Y352500*
X139800*
Y340000*
X170200*
Y352500*
G37*
X176586D02*
G36*
X173300D01*
Y340000*
X176586*
Y352500*
G37*
X318950Y340000D02*
G36*
Y347500D01*
Y347500*
G75*
G02X319185Y348067I800*
G01*
X319683Y348565*
G75*
G02X320250Y348800I566J-565*
G01*
X321482*
G75*
G02X322147Y348445I-1J-802*
G01*
X326353*
G75*
G02X327018Y348800I666J-446*
G01*
X329919*
X330450Y349331*
Y352500*
X327018*
Y349555*
X321482*
Y352500*
X317018*
Y349555*
X311482*
Y350950*
X308518*
Y349555*
X302982*
Y350950*
X300082*
G75*
G02X295850Y352500I-1832J1550*
G01*
X209300*
Y346832*
G75*
G02X210150Y345000I-1550J-1832*
G01*
G75*
G02X205350I-2400*
G01*
G75*
G02X206200Y346832I2400*
G01*
Y352500*
X180001*
Y340000*
X289805*
Y341768*
X295695*
Y340000*
X296805*
Y341768*
X302695*
Y340000*
X305911*
X304831Y341081*
G75*
G02X304450Y341999I918J919*
G01*
G75*
G02Y342000I1253J0*
G01*
Y342555*
X302982*
Y348445*
X308518*
Y342555*
X307050*
Y342539*
X307789Y341800*
X313155*
G75*
G02X312950Y342500I1098J701*
G01*
Y342555*
X311482*
Y348445*
X317018*
Y342555*
X316033*
X318589Y340000*
X318950*
G37*
X399150Y352500D02*
G36*
X348018D01*
Y349555*
X342482*
Y352500*
X339550*
Y348831*
X339581Y348800*
X342482*
G75*
G02X343147Y348445I-1J-802*
G01*
X347353*
G75*
G02X348018Y348800I666J-446*
G01*
X349250*
G75*
G02X349817Y348565I0J-800*
G01*
X350315Y348067*
G75*
G02X350550Y347500I-565J-566*
G01*
Y347500*
Y342500*
Y342500*
G75*
G02X350315Y341933I-800*
G01*
X348653Y340272*
X349568*
Y340618*
G75*
G02X349951Y341539I1300*
G01*
X350329Y341917*
G75*
G02X351250Y342300I921J-917*
G01*
X352711*
X353831Y343419*
G75*
G02X354752Y343800I919J-919*
G01*
X366248*
G75*
G02X367169Y343419I3J-1299*
G01*
X369289Y341300*
X370179*
G75*
G02X377550Y340000I3571J-1300*
G01*
X379750*
G75*
G02X387750I4000*
G01*
X399150*
Y352500*
G37*
X366911Y340000D02*
G36*
X365711Y341200D01*
X355289*
X354727Y340639*
Y340272*
X355112*
Y340000*
X366911*
G37*
X133950Y374000D02*
G36*
X29441D01*
G75*
G02X11918I-8761J9071*
G01*
X8350*
Y352500*
X39806*
G75*
G02X47750Y356750I7944J-5300*
G01*
G75*
G02X55694Y352500J-9550*
G01*
X135700*
Y370800*
G75*
G02X133950Y374000I2050J3200*
G01*
G37*
X147305Y352500D02*
G36*
Y356768D01*
X148200*
Y360651*
X139800Y369051*
Y352500*
X147305*
G37*
X163950Y374000D02*
G36*
X161550D01*
G75*
G02X153950I-3800*
G01*
X151550*
G75*
G02X143950I-3800*
G01*
X141550*
G75*
G02Y373999I-4101J0*
G01*
G75*
G02X141462Y373187I-3802*
G01*
X151700Y362950*
G75*
G02X152300Y361501I-1448J-1449*
G01*
G75*
G02Y361500I-1880J0*
G01*
Y361499*
Y361496*
Y356768*
X153195*
Y352500*
X154305*
Y356768*
X155700*
Y363500*
G75*
G02X156154Y364596I1551J0*
G01*
X164201Y372643*
G75*
G02X163950Y374000I3549J1357*
G01*
G37*
X170200Y352500D02*
G36*
Y357668D01*
G75*
G02X169918Y357950I1601J1883*
G01*
X169892*
X167300Y355358*
Y352500*
X170200*
G37*
X176586D02*
G36*
Y362793D01*
X168976Y370403*
G75*
G02X166393Y370451I-1226J3598*
G01*
X158800Y362858*
Y356768*
X160195*
Y352500*
X164200*
Y356000*
G75*
G02X164654Y357096I1551J0*
G01*
X168154Y360596*
G75*
G02X169251Y361050I1096J-1096*
G01*
X169918*
G75*
G02X174150Y359500I1832J-1550*
G01*
G75*
G02X173300Y357668I-2400*
G01*
Y352500*
X176586*
G37*
X203950Y374000D02*
G36*
X201550D01*
G75*
G02X193950I-3800*
G01*
X191550*
G75*
G02X183950I-3800*
G01*
X181550*
G75*
G02X173950I-3800*
G01*
X171550*
G75*
G02X171369Y372840I-3800*
G01*
X179499Y364709*
G75*
G02X180001Y363500I-1205J-1208*
G01*
Y363500*
Y352500*
X206200*
Y370530*
G75*
G02X203950Y374000I1550J3470*
G01*
G37*
X378059D02*
G36*
X231550D01*
G75*
G02X223950I-3800*
G01*
X221550*
G75*
G02X213950I-3800*
G01*
X211550*
G75*
G02X209300Y370530I-3800*
G01*
Y352500*
X295850*
G75*
G02X300082Y354050I2400*
G01*
X302982*
Y355445*
X308518*
Y354050*
X311482*
Y355445*
X317018*
Y352500*
X321482*
Y355445*
X327018*
Y352500*
X330450*
Y354000*
Y354000*
G75*
G02X330685Y354567I800*
G01*
X331683Y355565*
G75*
G02X332250Y355800I566J-565*
G01*
X337750*
G75*
G02X338317Y355565I0J-800*
G01*
X339315Y354567*
G75*
G02X339550Y354000I-565J-566*
G01*
Y354000*
Y352500*
X342482*
Y355445*
X348018*
Y352500*
X399150*
Y374000*
X395582*
G75*
G02X378059I-8761J9071*
G01*
G37*
X11918D02*
G36*
G75*
G02X8350Y380421I8761J9071D01*
G01*
Y374000*
X11918*
G37*
X133950Y384000D02*
G36*
X33256D01*
G75*
G02X33290Y383071I-12575J-929*
G01*
Y383071*
G75*
G02X29441Y374000I-12611J0*
G01*
X133950*
G75*
G02X135700Y377200I3800*
G01*
Y380800*
G75*
G02X133950Y384000I2050J3200*
G01*
G37*
X374244D02*
G36*
X231750D01*
G75*
G02X223750I-4000*
G01*
X221750*
G75*
G02X213750I-4000*
G01*
X211750*
G75*
G02X203750I-4000*
G01*
X201750*
G75*
G02X193750I-4000*
G01*
X191750*
G75*
G02X183750I-4000*
G01*
X181750*
G75*
G02X173750I-4000*
G01*
X171750*
G75*
G02X163750I-4000*
G01*
X161750*
G75*
G02X153750I-4000*
G01*
X151750*
G75*
G02X143750I-4000*
G01*
X141550*
G75*
G02X139800Y380800I-3800*
G01*
Y377200*
G75*
G02X141550Y374000I-2052J-3200*
G01*
X143950*
G75*
G02X151550I3800*
G01*
X153950*
G75*
G02X161550I3800*
G01*
X163950*
G75*
G02X167750Y377800I3800*
G01*
G75*
G02X171550Y374000J-3800*
G01*
Y374000*
X173950*
G75*
G02X181550I3800*
G01*
X183950*
G75*
G02X191550I3800*
G01*
X193950*
G75*
G02X201550I3800*
G01*
X203950*
G75*
G02X211550I3800*
G01*
X213950*
G75*
G02X221550I3800*
G01*
X223950*
G75*
G02X231550I3800*
G01*
X378059*
G75*
G02X374210Y383071I8761J9070*
G01*
G75*
G02X374244Y384000I12611J0*
G01*
G37*
X399150Y380421D02*
G36*
G75*
G02X395582Y374000I-12330J2650D01*
G01*
X399150*
Y380421*
G37*
X384171Y395400D02*
G36*
X23329D01*
G75*
G02X33256Y384000I-2649J-12330*
G01*
X133950*
G75*
G02X137750Y387800I3800*
G01*
G75*
G02X141550Y384000J-3800*
G01*
X143750*
G75*
G02X151750I4000*
G01*
X153750*
G75*
G02X161750I4000*
G01*
X163750*
G75*
G02X171750I4000*
G01*
X173750*
G75*
G02X181750I4000*
G01*
X183750*
G75*
G02X191750I4000*
G01*
X193750*
G75*
G02X201750I4000*
G01*
X203750*
G75*
G02X211750I4000*
G01*
X213750*
G75*
G02X221750I4000*
G01*
X223750*
G75*
G02X231750I4000*
G01*
X374244*
G75*
G02X384171Y395400I12578J-930*
G01*
G37*
X339411Y260000D02*
G36*
X338648D01*
X338228Y259581*
G75*
G02X337307Y259200I-919J919*
G01*
X322577*
Y256000*
X335888*
Y256638*
X336311*
G75*
G02X336654Y257242I1259J-313*
G01*
X339411Y260000*
G37*
X399150D02*
G36*
X387750D01*
G75*
G02X383750Y256000I-4000*
G01*
G75*
G02X379750Y260000J4000*
G01*
X377550*
G75*
G02X370179Y258700I-3800J0*
G01*
X341789*
X339726Y256638*
X354612*
Y256000*
X383750*
X399150*
Y260000*
G37*
G36*
Y270000*
X387750*
G75*
G02X379750I-4000*
G01*
X377550*
G75*
G02X369950I-3800*
G01*
X348648*
X338648Y260000*
X339411*
X340331Y260919*
G75*
G02X341252Y261300I919J-919*
G01*
X370179*
G75*
G02X377550Y260000I3571J-1300*
G01*
X379750*
G75*
G02X387750I4000*
G01*
X399150*
G37*
D02*
D71*
X26604Y92000D02*
X24805D01*
X28250Y90531D02*
Y88732D01*
Y93469D02*
Y95268D01*
X29896Y92000D02*
X31695D01*
X50604Y133000D02*
X48805D01*
X52250Y131531D02*
Y129732D01*
Y134469D02*
Y136268D01*
X91750Y147217D02*
Y145417D01*
X92104Y140000D02*
X90305D01*
X93104Y126000D02*
X91305D01*
X93104Y168000D02*
X91305D01*
X93750Y138531D02*
Y136732D01*
Y141469D02*
Y143268D01*
X94750Y124531D02*
Y122732D01*
Y127469D02*
Y129268D01*
Y166531D02*
Y164732D01*
Y169469D02*
Y171268D01*
X94809Y158921D02*
X93010D01*
X95396Y140000D02*
X97195D01*
X95490Y160783D02*
Y162583D01*
X96171Y158921D02*
X97970D01*
X96396Y126000D02*
X98195D01*
X96396Y168000D02*
X98195D01*
X100104Y112000D02*
X98305D01*
X101750Y110531D02*
Y108732D01*
Y113469D02*
Y115268D01*
X103396Y112000D02*
X105195D01*
X108250Y145031D02*
Y143232D01*
Y147969D02*
Y149768D01*
X115104Y126000D02*
X113305D01*
X115250Y145031D02*
Y143232D01*
X115522Y134441D02*
X113722D01*
X115522Y139559D02*
X113722D01*
X116750Y124531D02*
Y122732D01*
Y127469D02*
Y129268D01*
X116896Y146500D02*
X118695D01*
X116990Y134055D02*
Y132256D01*
Y139945D02*
Y141744D01*
X118396Y126000D02*
X120195D01*
X118459Y134441D02*
X120258D01*
X122104Y112000D02*
X120305D01*
X123750Y110531D02*
Y108732D01*
Y113469D02*
Y115268D01*
Y126000D02*
X124250D01*
Y133500*
X120750Y137000*
X116990*
X125396Y112000D02*
X127195D01*
X142501Y127250D02*
X140701D01*
X143969Y125604D02*
Y123803D01*
Y128896D02*
Y130697D01*
X145438Y127250D02*
X147238D01*
X151368Y111346D02*
X149569D01*
X152541Y111437D02*
Y113236D01*
X153715Y111346D02*
X155514D01*
X155297Y123047D02*
Y115677D01*
X157266Y114504D02*
Y112705D01*
Y116850D02*
Y118650D01*
X159234Y114504D02*
Y112705D01*
Y116850D02*
Y118650D01*
X159431Y103283D02*
Y101484D01*
Y105630D02*
Y107429D01*
X161006Y103283D02*
Y101484D01*
Y105630D02*
Y107429D01*
X161293Y104457D02*
X163093D01*
X162785Y111346D02*
X160986D01*
X163959Y111437D02*
Y113236D01*
X165132Y109378D02*
X166931D01*
X165132Y111346D02*
X166931D01*
X175348Y208933D02*
X173549D01*
X175734Y206530D02*
Y204728D01*
Y211337D02*
Y213138D01*
X182104Y126000D02*
X180305D01*
X183750Y124531D02*
Y122732D01*
Y127469D02*
Y129268D01*
Y180354D02*
Y178555D01*
Y183646D02*
Y185445D01*
X185396Y126000D02*
X187195D01*
X188530Y229663D02*
Y227862D01*
Y234470D02*
Y236272D01*
X189104Y112000D02*
X187305D01*
X189604Y249000D02*
X187805D01*
X190750Y110531D02*
Y108732D01*
Y113469D02*
Y115268D01*
X191250Y247531D02*
Y245732D01*
Y250469D02*
Y252268D01*
X192396Y112000D02*
X194195D01*
X192896Y249000D02*
X194695D01*
X201750Y146031D02*
Y144232D01*
Y148969D02*
Y150768D01*
X203396Y147500D02*
X205195D01*
X203604Y126000D02*
X201805D01*
X205250Y124531D02*
Y122732D01*
Y127469D02*
Y129268D01*
X206896Y126000D02*
X208695D01*
X207522Y135941D02*
X205722D01*
X208750Y146031D02*
Y144232D01*
Y148969D02*
Y150768D01*
X208990Y135555D02*
Y133756D01*
Y141445D02*
Y143244D01*
X210396Y147500D02*
X212195D01*
X210604Y112000D02*
X208805D01*
X212250Y110531D02*
Y108732D01*
Y113469D02*
Y115268D01*
X213896Y112000D02*
X215695D01*
X233281Y127000D02*
X231482D01*
X234750Y128646D02*
Y130445D01*
X236219Y127000D02*
X238018D01*
X241368Y111346D02*
X239569D01*
X242541Y111437D02*
Y113236D01*
X243715Y111346D02*
X245514D01*
X245297Y120500D02*
Y115677D01*
X247266Y114504D02*
Y112705D01*
Y116850D02*
Y118650D01*
X249234Y114504D02*
Y112705D01*
Y116850D02*
Y118650D01*
X249431Y103283D02*
Y101484D01*
Y105630D02*
Y107429D01*
X251006Y103283D02*
Y101484D01*
Y105630D02*
Y107429D01*
X251293Y104457D02*
X253093D01*
X252785Y111346D02*
X250986D01*
X253959Y111437D02*
Y113236D01*
X255132Y109378D02*
X256931D01*
X255132Y111346D02*
X256931D01*
X279781Y111500D02*
X277982D01*
X279781Y118500D02*
X277982D01*
X280970Y83602D02*
X279171D01*
X281250Y109854D02*
Y108055D01*
Y120146D02*
Y121945D01*
X281750Y80264D02*
Y78465D01*
Y86941D02*
Y88740D01*
X282719Y111500D02*
X284518D01*
X282719Y118500D02*
X284518D01*
X286888Y127205D02*
X285089D01*
X287175Y124949D02*
Y123150D01*
Y129461D02*
Y131260D01*
X289734Y100539D02*
Y98740D01*
Y105051D02*
Y106850D01*
Y127205D02*
Y150500D01*
X307250Y168016*
Y183500*
X303750Y187000*
Y205500*
X307250Y209000*
Y259500*
X317250Y269500*
Y273161*
X291104Y339000D02*
X289305D01*
X292293Y105051D02*
Y106850D01*
Y127205D02*
X292250D01*
Y150500*
X309750Y168000*
Y184000*
X305750Y188000*
Y204500*
X309750Y208500*
Y259500*
X319219Y268969*
Y273161*
X292750Y337531D02*
Y335732D01*
Y340469D02*
Y342268D01*
X293281Y167000D02*
X291482D01*
X293281Y174000D02*
X291482D01*
X294396Y339000D02*
X296195D01*
X294750Y165354D02*
Y163555D01*
Y175646D02*
Y177445D01*
X294852Y124949D02*
Y123150D01*
Y129461D02*
Y131260D01*
X296219Y167000D02*
X298018D01*
X296219Y174000D02*
X298018D01*
X298281Y289000D02*
X296482D01*
X299750Y287354D02*
Y285555D01*
Y290646D02*
Y292445D01*
X301219Y289000D02*
X303018D01*
X304388Y177205D02*
X302589D01*
X304675Y174949D02*
Y173150D01*
Y179461D02*
Y181260D01*
X305750Y345500D02*
Y342000D01*
X307250Y340500*
X313750*
X316750Y337500*
Y333661*
X307234Y150539D02*
Y148740D01*
Y155051D02*
Y156850D01*
X309793Y150539D02*
Y148740D01*
Y155051D02*
Y156850D01*
X312352Y152795D02*
Y159602D01*
X324250Y171500*
X344750*
X356250Y160000*
X373750*
X312813Y316339D02*
Y321000D01*
X314813Y323000*
X337691*
X343191Y328500*
Y336567*
X313313Y255839D02*
Y260063D01*
X315750Y262500*
X336191*
X342691Y269000*
Y276067*
X313313Y273161D02*
Y269063D01*
X293250Y249000*
X210250*
X313313Y273161D02*
Y276500D01*
X310750Y279063*
Y297000*
X303250Y304500*
Y324500*
X307750Y329000*
X311750*
X312813Y330063*
Y333661*
X313750Y281000D02*
X315281Y279469D01*
Y273161*
X314250Y345500D02*
Y342500D01*
X318719Y338031*
Y333661*
X314781Y316339D02*
Y320000D01*
X315781Y321000*
X338750*
X348309Y330559*
Y336567*
X314781Y333661D02*
Y336969D01*
X313250Y338500*
X309750*
X299750Y328500*
X314911Y152795D02*
Y159161D01*
X325250Y169500*
X343750*
X358250Y155000*
X378250*
X383250Y160000*
X383750*
X314911Y177205D02*
Y201161D01*
X333750Y220000*
X373750*
X315281Y255839D02*
Y259500D01*
X316281Y260500*
X337309*
X347809Y271000*
Y276067*
X315325Y127205D02*
Y123425D01*
X316750Y122000*
X347250*
X369250Y100000*
X373750*
X315612Y102795D02*
X317411D01*
X316750Y316339D02*
Y306000D01*
X318750Y304000*
X346750*
X348309Y305559*
Y313433*
X317250Y255839D02*
Y245000D01*
X319250Y243000*
X345750*
X347809Y245059*
Y252933*
X317250Y273161D02*
Y293000D01*
X305250Y305000*
Y323500*
X308750Y327000*
X314250*
X316750Y329500*
Y333661*
X317470Y152795D02*
Y158720D01*
X326250Y167500*
X342750*
X360250Y150000*
X373750*
X317470Y177205D02*
Y198720D01*
X333750Y215000*
X378750*
X383750Y220000*
X319219Y255839D02*
Y246031D01*
X320250Y245000*
X338691*
X342691Y249000*
Y252933*
X319219Y273161D02*
Y294000D01*
X307250Y305969*
Y322500*
X309750Y325000*
X314750*
X318750Y329000*
Y333630*
X318719Y333661*
X320030Y152795D02*
Y158280D01*
X327250Y165500*
X341750*
X362250Y145000*
X378750*
X383750Y150000*
X320030Y177205D02*
Y196280D01*
X333750Y210000*
X373750*
X320687Y314083D02*
Y312283D01*
Y335917D02*
Y337717D01*
X320778Y316339D02*
X322577D01*
X320778Y333661D02*
X322577D01*
X321187Y253583D02*
Y251783D01*
Y270906D02*
Y269106D01*
Y275417D02*
Y277217D01*
X321278Y255839D02*
X323077D01*
X321278Y273161D02*
X323077D01*
X322589Y152795D02*
Y157839D01*
X328250Y163500*
X340750*
X365250Y139000*
X373750*
Y140000*
X322589Y177205D02*
Y193839D01*
X333750Y205000*
X378750*
X383750Y210000*
X322781Y345500D02*
X320982D01*
X322781Y352500D02*
X320982D01*
X323281Y282500D02*
X321482D01*
X323281Y289500D02*
X321482D01*
X324250Y343854D02*
Y342055D01*
Y350854D02*
Y349055D01*
Y354146D02*
Y355945D01*
X324750Y280854D02*
Y279055D01*
Y287854D02*
Y286055D01*
Y291146D02*
Y292945D01*
X325148Y152795D02*
Y157398D01*
X329250Y161500*
X339750*
X366250Y135000*
X378750*
X383750Y140000*
X325148Y177205D02*
Y191398D01*
X333750Y200000*
X373750*
X325719Y345500D02*
X327518D01*
X325719Y352500D02*
X327518D01*
X326219Y282500D02*
X328018D01*
X326219Y289500D02*
X328018D01*
X327707Y177205D02*
Y188957D01*
X333750Y195000*
X378750*
X383750Y200000*
X330266Y152795D02*
Y156516D01*
X331250Y157500*
X337750*
X369750Y125500*
X379250*
X383750Y130000*
X330266Y177205D02*
Y186516D01*
X333750Y190000*
X373750*
X332825Y150539D02*
Y148740D01*
Y177205D02*
Y184075D01*
X333750Y185000*
X378750*
X383750Y190000*
X333112Y152795D02*
X334911D01*
X338073Y313433D02*
Y309677D01*
X338750Y309000*
X339750*
X340632Y309882*
Y313433*
X338073Y336567D02*
Y330177D01*
X339250Y329000*
X340132Y252933D02*
Y249882D01*
X339250Y249000*
X338250*
X337573Y249677*
Y252933*
X340632Y313433D02*
Y317500D01*
X343132Y320000*
X373750*
X340632Y336567D02*
Y330382D01*
X339250Y329000*
X343191Y313433D02*
Y309500D01*
X339691Y306000*
X319750*
X318719Y307031*
Y316339*
X343281Y285000D02*
X341482D01*
X343781Y345500D02*
X341982D01*
X343781Y352500D02*
X341982D01*
X344750Y283354D02*
Y281555D01*
Y290354D02*
Y288555D01*
Y293646D02*
Y295445D01*
X345250Y250530D02*
Y248728D01*
Y255337D02*
Y257138D01*
Y278470D02*
Y280272D01*
Y343854D02*
Y342055D01*
Y350854D02*
Y349055D01*
Y354146D02*
Y355945D01*
X345750Y311030D02*
Y309228D01*
Y315837D02*
Y317638D01*
Y338970D02*
Y340772D01*
X346219Y285000D02*
X348018D01*
X346219Y292000D02*
X348018D01*
X346719Y345500D02*
X348518D01*
X346719Y352500D02*
X348518D01*
X350368Y252933D02*
Y247882D01*
X351250Y247000*
X352427*
X352927Y246500*
X350368Y276067D02*
Y280118D01*
X350750Y280500*
X352250*
X350868Y313433D02*
Y309382D01*
X351250Y309000*
X352750*
X353427Y309677*
Y313433*
X350868Y336567D02*
Y340618D01*
X351250Y341000*
X353250*
X353427Y341177*
X352250Y280500D02*
X352927Y279823D01*
Y276067*
Y246500D02*
Y246323D01*
X353750Y245500*
X369250*
X373750Y250000*
X352927Y252933D02*
Y246500D01*
X353427Y313433D02*
Y309000D01*
X355427Y307000*
X370750*
X373750Y310000*
X353427Y341177D02*
Y336567D01*
X373750Y70000D02*
X369250D01*
X329250Y110000*
X312250*
X299970Y122280*
Y127205*
X373750Y80000D02*
X369250D01*
X335250Y114000*
X313250*
X305089Y122161*
Y127205*
X373750Y90000D02*
X369250D01*
X341250Y118000*
X315250*
X310207Y123043*
Y127205*
X373750Y130000D02*
Y129500D01*
X368750*
X338750Y159500*
X330250*
X327707Y156957*
Y152795*
X373750Y260000D02*
X341250D01*
X337573Y256323*
Y252933*
X373750Y280000D02*
X356250D01*
X355750Y280500*
X352250*
X373750Y340000D02*
X368750D01*
X366250Y342500*
X354750*
X353427Y341177*
X383750Y70000D02*
X378750Y65000D01*
X369250*
X326250Y108000*
X311411*
X297411Y122000*
Y127205*
X383750Y80000D02*
X378750Y75000D01*
X369250*
X332250Y112000*
X312750*
X302530Y122220*
Y127205*
X383750Y90000D02*
X378750Y85000D01*
X369250*
X338250Y116000*
X314250*
X307648Y122602*
Y127205*
X383750Y100000D02*
X378750Y95000D01*
X369250*
X344250Y120000*
X315750*
X312766Y122984*
Y127205*
D02*
D20*
X96368Y49756D03*
X133769D03*
X185663D03*
X223065D03*
D02*
D77*
X20679Y16929D03*
Y383071D03*
X386821Y16929D03*
Y383071D03*
D02*
D79*
X88010Y149079D03*
Y158921D03*
X91750Y149079D03*
X95490D03*
Y158921D03*
D02*
D84*
X47750Y248800D03*
Y347200D03*
D02*
D86*
X13750Y35000D03*
Y100000D03*
Y115000D03*
Y130000D03*
Y150000D03*
Y175000D03*
Y200000D03*
Y240000D03*
Y270000D03*
Y310000D03*
Y350000D03*
X18750Y92000D03*
X23750Y100000D03*
Y130000D03*
X24250Y55500D03*
X25750Y67000D03*
X30250Y49000D03*
X33750Y100000D03*
Y130000D03*
X34250Y73000D03*
X36250Y192000D03*
X36750Y153000D03*
Y173000D03*
X37750Y46000D03*
X38750Y10000D03*
Y34500D03*
Y362500D03*
X44250Y70500D03*
X47750Y192000D03*
X48250Y28500D03*
Y173000D03*
X48750Y153000D03*
X53750Y220500D03*
Y390000D03*
X57250Y139500D03*
Y145500D03*
X59750Y33500D03*
X60750Y300500D03*
X61250Y282500D03*
X61750Y153000D03*
Y173000D03*
Y192000D03*
Y212500D03*
X63250Y139500D03*
Y145500D03*
X64250Y92500D03*
X66250Y320000D03*
Y338500D03*
X68750Y75000D03*
X69750Y131500D03*
X70250Y44500D03*
X70750Y237500D03*
X73250Y148500D03*
Y168500D03*
X75250Y92500D03*
X75750Y114000D03*
X78250Y184500D03*
X78750Y229500D03*
X80250Y308500D03*
Y320500D03*
Y329000D03*
Y339500D03*
X80750Y163500D03*
Y169500D03*
Y175500D03*
X82750Y10000D03*
Y30000D03*
Y54000D03*
X84250Y251000D03*
X86750Y175500D03*
X92250Y243000D03*
X94250Y320500D03*
Y329000D03*
Y339500D03*
X95750Y92500D03*
Y174500D03*
X98750Y189500D03*
X100250Y137000D03*
X101250Y268000D03*
X102750Y312000D03*
X103750Y375000D03*
Y390000D03*
X106750Y84000D03*
X107750Y70500D03*
X108750Y157000D03*
X109250Y112000D03*
Y126000D03*
Y167000D03*
Y260000D03*
X110250Y54500D03*
Y277500D03*
Y291000D03*
Y304000D03*
X110750Y321500D03*
X113750Y360000D03*
X114750Y152000D03*
X115750Y93500D03*
X116750Y335000D03*
X117250Y297000D03*
Y303750D03*
X118750Y166500D03*
Y175000D03*
Y189500D03*
X121750Y42000D03*
Y54500D03*
Y154000D03*
X122250Y146000D03*
X123750Y315000D03*
X124250Y75000D03*
Y273000D03*
Y290500D03*
Y304000D03*
X124750Y347000D03*
X125750Y136500D03*
X126750Y154000D03*
X131250Y102000D03*
X132750Y315500D03*
Y324500D03*
Y331500D03*
X133750Y189500D03*
Y209500D03*
Y229500D03*
Y245500D03*
Y265500D03*
Y290500D03*
X137604Y120126D03*
X137750Y182500D03*
X138250Y136500D03*
Y144000D03*
X140750Y102000D03*
X141250Y265500D03*
Y290500D03*
X141750Y229500D03*
Y245500D03*
Y315500D03*
Y324500D03*
Y331500D03*
X142250Y189500D03*
Y209500D03*
Y344500D03*
Y359000D03*
X143250Y159500D03*
Y166500D03*
Y175000D03*
X143750Y182500D03*
X145750Y34000D03*
X147750Y256500D03*
X148250Y105000D03*
X148750Y54500D03*
X150250Y78000D03*
Y136500D03*
Y144000D03*
X152250Y127500D03*
X153250Y366000D03*
X153750Y209500D03*
Y229500D03*
Y275000D03*
Y295500D03*
Y315000D03*
X154250Y189500D03*
Y249500D03*
X154750Y339000D03*
X157750Y320500D03*
Y331000D03*
X161250Y240500D03*
Y275000D03*
Y295500D03*
Y315000D03*
X162250Y125000D03*
Y136500D03*
Y144000D03*
Y219000D03*
Y228500D03*
Y359500D03*
X163750Y159500D03*
Y166500D03*
Y175000D03*
X164250Y335500D03*
X165250Y199500D03*
X168250Y250000D03*
Y285000D03*
Y305000D03*
Y325000D03*
X168750Y265000D03*
X169250Y114000D03*
X169750Y131000D03*
X170250Y232500D03*
X171250Y10000D03*
Y30000D03*
Y54500D03*
Y74500D03*
X171750Y359500D03*
X172250Y195500D03*
Y202500D03*
X173750Y99500D03*
X174750Y275000D03*
Y295000D03*
X175250Y242000D03*
Y315000D03*
Y335000D03*
X175750Y144000D03*
X178750Y219500D03*
X182250Y139500D03*
X182750Y175000D03*
X183250Y262000D03*
X183750Y74500D03*
Y99500D03*
Y255500D03*
Y285000D03*
Y305000D03*
Y325000D03*
Y345000D03*
Y359000D03*
X186250Y131500D03*
Y218500D03*
X187250Y159500D03*
Y168000D03*
Y225000D03*
X189750Y146000D03*
X192250Y74500D03*
X192750Y139000D03*
X194250Y215500D03*
Y225000D03*
X194750Y84000D03*
Y262000D03*
Y333500D03*
X194764Y255500D03*
X198250Y100000D03*
Y112000D03*
Y126000D03*
X199250Y55000D03*
X199750Y184000D03*
X200750Y160000D03*
X201750Y340000D03*
Y359000D03*
X202750Y234000D03*
X203750Y191500D03*
Y199000D03*
Y206500D03*
Y214000D03*
Y221000D03*
X207750Y345000D03*
X208250Y228000D03*
X211750Y43500D03*
X212250Y54500D03*
Y154000D03*
X213750Y359000D03*
X214250Y345000D03*
X214750Y77000D03*
X215750Y246000D03*
Y268500D03*
Y277500D03*
X216250Y255500D03*
X217750Y154000D03*
X218750Y303500D03*
Y324500D03*
X219250Y101500D03*
Y164500D03*
X223250Y191000D03*
Y199000D03*
Y206500D03*
Y221000D03*
Y228500D03*
X228750Y120000D03*
X229250Y245000D03*
Y252000D03*
Y268500D03*
Y278000D03*
Y303500D03*
Y324500D03*
X230750Y217500D03*
X232750Y345000D03*
X233250Y101500D03*
X233750Y360000D03*
X235750Y34000D03*
X238250Y105500D03*
X240250Y81000D03*
Y191000D03*
Y199000D03*
Y206500D03*
X240750Y148500D03*
Y174000D03*
Y221000D03*
Y228500D03*
X241750Y127000D03*
X249250Y128000D03*
Y148500D03*
Y174000D03*
Y191000D03*
Y199000D03*
Y206500D03*
X249750Y221000D03*
X251250Y245000D03*
Y252000D03*
Y268500D03*
Y278000D03*
X253750Y120000D03*
Y345000D03*
Y360000D03*
Y390000D03*
X257750Y217500D03*
X258750Y12500D03*
Y32000D03*
Y50000D03*
Y66000D03*
Y74000D03*
Y81500D03*
Y96500D03*
Y128000D03*
Y148500D03*
Y174000D03*
Y191000D03*
Y199000D03*
X259250Y110000D03*
X266250Y136000D03*
Y159500D03*
Y189000D03*
X267750Y101500D03*
X270750Y345000D03*
X271250Y74000D03*
Y81500D03*
X272250Y227500D03*
Y245000D03*
Y252000D03*
Y268500D03*
Y278000D03*
Y299000D03*
Y320000D03*
X272750Y199000D03*
X273750Y150000D03*
Y173500D03*
X275750Y360000D03*
X278250Y207000D03*
X278750Y12500D03*
X280250Y136000D03*
Y162000D03*
Y188000D03*
X282250Y91000D03*
X282750Y252500D03*
Y264000D03*
X284750Y281500D03*
X285250Y219500D03*
Y297000D03*
Y319000D03*
X285750Y73500D03*
Y135500D03*
Y173500D03*
Y180000D03*
Y339000D03*
X286750Y65000D03*
X288250Y245500D03*
X289250Y118500D03*
X289750Y111000D03*
X290250Y186500D03*
X290750Y156500D03*
X291750Y74000D03*
X292250Y115000D03*
Y253500D03*
X293750Y310000D03*
X294250Y296000D03*
X295750Y149000D03*
X296250Y135500D03*
X296750Y360000D03*
X297250Y117500D03*
X298250Y352500D03*
X298750Y55000D03*
Y73500D03*
X299250Y320500D03*
X300250Y188000D03*
X300750Y168000D03*
X302250Y111000D03*
Y182500D03*
Y263500D03*
X303250Y210500D03*
Y232000D03*
X303750Y12500D03*
Y255000D03*
Y390000D03*
X305250Y338000D03*
X305750Y296000D03*
X306250Y281000D03*
X307250Y135500D03*
Y145000D03*
X307750Y161500D03*
X309250Y192500D03*
Y203000D03*
Y270500D03*
Y332500D03*
X310750Y307500D03*
X311750Y187000D03*
X313750Y168000D03*
Y248500D03*
Y281000D03*
X314250Y227000D03*
X319750Y265500D03*
Y299500D03*
Y326000D03*
X320250Y55000D03*
Y73500D03*
X320750Y126500D03*
Y135500D03*
Y145000D03*
X321250Y214000D03*
X322250Y239000D03*
Y248500D03*
X323250Y103000D03*
X323750Y310000D03*
X324750Y317500D03*
X325750Y257000D03*
X328750Y12500D03*
X332250Y256500D03*
Y267000D03*
Y299500D03*
Y326000D03*
Y340500D03*
X332750Y93500D03*
Y145500D03*
Y280000D03*
Y289500D03*
X333250Y310000D03*
Y317500D03*
X333750Y225000D03*
X334250Y126500D03*
Y248000D03*
X334750Y346500D03*
Y352500D03*
X337250Y289500D03*
X337750Y152000D03*
X338250Y180000D03*
X338750Y269000D03*
X339250Y239000D03*
Y329000D03*
X342750Y83500D03*
X343750Y263000D03*
X344250Y246000D03*
X344750Y300000D03*
Y307000D03*
X347750Y126500D03*
X348750Y324000D03*
X349250Y225000D03*
X351250Y138500D03*
Y266000D03*
X352250Y74000D03*
Y304000D03*
X352750Y345000D03*
X353750Y12500D03*
Y49500D03*
Y390000D03*
X356750Y118500D03*
Y249000D03*
X357250Y310000D03*
X357750Y164500D03*
Y284500D03*
X362750Y63000D03*
X363750Y225000D03*
Y241500D03*
X364250Y124000D03*
Y180500D03*
Y272500D03*
X364750Y265000D03*
X365250Y257000D03*
Y317000D03*
Y324000D03*
Y336000D03*
X378750Y300000D03*
X391250Y50000D03*
Y100000D03*
Y150000D03*
Y200000D03*
Y250000D03*
Y300000D03*
Y350000D03*
D02*
D99*
X312813Y316339D03*
Y333661D03*
X313313Y255839D03*
Y273161D03*
X314781Y316339D03*
Y333661D03*
X315281Y255839D03*
Y273161D03*
X316750Y316339D03*
Y333661D03*
X317250Y255839D03*
Y273161D03*
X318719Y316339D03*
Y333661D03*
X319219Y255839D03*
Y273161D03*
X320687Y316339D03*
Y333661D03*
X321187Y255839D03*
Y273161D03*
D02*
D104*
X92618Y49756D02*
X89118D01*
X96368Y46006D02*
Y42506D01*
Y53506D02*
Y57006D01*
X100118Y49756D02*
X103618D01*
X110079Y20000D02*
X106579D01*
X113750Y13376D02*
Y9876D01*
Y26624D02*
Y30124D01*
X117421Y20000D02*
X120921D01*
X125726Y89520D02*
X122226D01*
X130019Y49756D02*
X126519D01*
X130079Y20008D02*
X126579D01*
X130226Y85020D02*
Y81520D01*
Y94020D02*
Y97520D01*
X133750Y13384D02*
Y9884D01*
Y26632D02*
Y30132D01*
X133769Y46006D02*
Y42506D01*
Y53506D02*
Y57006D01*
X134726Y89520D02*
X138226D01*
X137421Y20008D02*
X140921D01*
X137519Y49756D02*
X141019D01*
X137750Y182500D02*
Y374000D01*
Y384000D02*
Y374000D01*
X150079Y20000D02*
X146579D01*
X150250Y344500D02*
Y354000D01*
Y361500*
X137750Y374000*
X153750Y13376D02*
Y9876D01*
Y26624D02*
Y30124D01*
X157421Y20000D02*
X160921D01*
X185663Y46006D02*
Y42506D01*
Y53506D02*
Y57006D01*
X189413Y49756D02*
X192913D01*
X200079Y20000D02*
X196579D01*
X203750Y13376D02*
Y9876D01*
Y26624D02*
Y30124D01*
X207421Y20000D02*
X210921D01*
X219522Y85020D02*
Y81520D01*
Y94020D02*
Y97520D01*
X220079Y20000D02*
X216579D01*
X223065Y46006D02*
Y42506D01*
Y53506D02*
Y57006D01*
X223750Y13376D02*
Y9876D01*
Y26624D02*
Y30124D01*
X224022Y89520D02*
X227522D01*
X226815Y49756D02*
X230315D01*
X227421Y20000D02*
X230921D01*
X240079D02*
X236579D01*
X243750Y13376D02*
Y9876D01*
Y26624D02*
Y30124D01*
X247421Y20000D02*
X250921D01*
D02*
D105*
X155307Y104457D02*
X153305D01*
X155494Y103383D02*
Y101382D01*
Y105530D02*
Y107531D01*
X157069Y103383D02*
Y101382D01*
Y105530D02*
Y107531D01*
X184250Y247631D02*
Y245433D01*
Y250369D02*
Y252567D01*
X185970Y234370D02*
Y236571D01*
X245307Y104457D02*
X243305D01*
X245494Y103383D02*
Y101382D01*
Y105530D02*
Y107531D01*
X247069Y103383D02*
Y101382D01*
Y105530D02*
Y107531D01*
D02*
D106*
X22398Y106221D02*
X19589Y104180D01*
X22398Y121779D02*
X19589Y123820D01*
X22540Y110567D02*
X19589Y109609D01*
X22540Y117433D02*
X19589Y118391D01*
X22589Y114000D02*
X19589D01*
X26684Y105163D02*
X24643Y102354D01*
X26684Y122837D02*
X24643Y125646D01*
X29876Y60000D02*
X26876D01*
X30280Y105306D02*
X29320Y102354D01*
X30280Y122694D02*
X29320Y125646D01*
X31889Y55139D02*
X29768Y53018D01*
X31889Y64861D02*
X29768Y66982D01*
X33104Y105354D02*
Y102354D01*
Y122646D02*
Y125646D01*
X35929Y105306D02*
X36888Y102354D01*
X35929Y122694D02*
X36888Y125646D01*
X36750Y53126D02*
Y50126D01*
Y66874D02*
Y69874D01*
X39524Y105163D02*
X41565Y102354D01*
X39524Y122837D02*
X41565Y125646D01*
X41611Y55139D02*
X43732Y53018D01*
X41611Y64861D02*
X43732Y66982D01*
X42671Y41693D02*
X39671D01*
X43620Y114000D02*
X46620D01*
X43624Y60000D02*
X46624D01*
X43669Y110567D02*
X46620Y109609D01*
X43669Y117433D02*
X46620Y118391D01*
X43811Y106221D02*
X46620Y104180D01*
X43811Y121779D02*
X46620Y123820D01*
X44685Y36832D02*
X42563Y34711D01*
X44685Y46554D02*
X42563Y48675D01*
X49545Y34819D02*
Y31819D01*
X50750Y298000D02*
X47750D01*
X51336Y296586D02*
X49215Y294465D01*
X51336Y299414D02*
X49215Y301535D01*
X52250Y91031D02*
Y88031D01*
Y92969D02*
Y95969D01*
X52750Y296000D02*
Y293000D01*
Y300000D02*
Y303000D01*
X53396Y92000D02*
X56396D01*
X54164Y296586D02*
X56285Y294465D01*
X54164Y299414D02*
X56285Y301535D01*
X54406Y36832D02*
X56527Y34711D01*
X54750Y298000D02*
X57750D01*
X56419Y41693D02*
X59419D01*
X56742Y105024D02*
X53742D01*
X56742Y122976D02*
X53742D01*
X59250Y132031D02*
Y129031D01*
Y133969D02*
Y136969D01*
X59876Y104055D02*
Y101055D01*
Y105992D02*
Y108992D01*
Y122008D02*
Y119008D01*
Y123945D02*
Y126945D01*
X60396Y133000D02*
X63396D01*
X63010Y105024D02*
X66010D01*
X63010Y122976D02*
X66010D01*
X85604Y140000D02*
X82604D01*
X86604Y168000D02*
X83604D01*
X86750Y139031D02*
Y136031D01*
Y140969D02*
Y143969D01*
X87750Y167031D02*
Y164031D01*
Y168969D02*
Y171969D01*
X87829Y149079D02*
X84829D01*
X87829Y158921D02*
X84829D01*
X88010Y147717D02*
Y144717D01*
Y150441D02*
Y153441D01*
Y160283D02*
Y163283D01*
X95490Y150441D02*
Y153441D01*
X145750Y384000D02*
X142750D01*
X146336Y382586D02*
X144215Y380465D01*
X146336Y385414D02*
X144215Y387535D01*
X147750Y382000D02*
Y379000D01*
Y386000D02*
Y389000D01*
X149164Y382586D02*
X151285Y380465D01*
X149164Y385414D02*
X151285Y387535D01*
X149750Y384000D02*
X152750D01*
X155750D02*
X152750D01*
X156336Y382586D02*
X154215Y380465D01*
X156336Y385414D02*
X154215Y387535D01*
X157750Y382000D02*
Y379000D01*
Y386000D02*
Y389000D01*
X159164Y382586D02*
X161285Y380465D01*
X159164Y385414D02*
X161285Y387535D01*
X159750Y384000D02*
X162750D01*
X165750D02*
X162750D01*
X166336Y382586D02*
X164215Y380465D01*
X166336Y385414D02*
X164215Y387535D01*
X167750Y382000D02*
Y379000D01*
Y386000D02*
Y389000D01*
X169164Y382586D02*
X171285Y380465D01*
X169164Y385414D02*
X171285Y387535D01*
X169750Y384000D02*
X172750D01*
X175750D02*
X172750D01*
X176336Y382586D02*
X174215Y380465D01*
X176336Y385414D02*
X174215Y387535D01*
X177750Y382000D02*
Y379000D01*
Y386000D02*
Y389000D01*
X179164Y382586D02*
X181285Y380465D01*
X179164Y385414D02*
X181285Y387535D01*
X179750Y384000D02*
X182750D01*
X185750D02*
X182750D01*
X186336Y382586D02*
X184215Y380465D01*
X186336Y385414D02*
X184215Y387535D01*
X187750Y382000D02*
Y379000D01*
Y386000D02*
Y389000D01*
X189164Y382586D02*
X191285Y380465D01*
X189164Y385414D02*
X191285Y387535D01*
X189750Y384000D02*
X192750D01*
X195750D02*
X192750D01*
X196336Y382586D02*
X194215Y380465D01*
X196336Y385414D02*
X194215Y387535D01*
X197750Y382000D02*
Y379000D01*
Y386000D02*
Y389000D01*
X199164Y382586D02*
X201285Y380465D01*
X199164Y385414D02*
X201285Y387535D01*
X199750Y384000D02*
X202750D01*
X205750D02*
X202750D01*
X206336Y382586D02*
X204215Y380465D01*
X206336Y385414D02*
X204215Y387535D01*
X207750Y382000D02*
Y379000D01*
Y386000D02*
Y389000D01*
X209164Y382586D02*
X211285Y380465D01*
X209164Y385414D02*
X211285Y387535D01*
X209750Y384000D02*
X212750D01*
X215750D02*
X212750D01*
X216336Y382586D02*
X214215Y380465D01*
X216336Y385414D02*
X214215Y387535D01*
X217750Y382000D02*
Y379000D01*
Y386000D02*
Y389000D01*
X219164Y382586D02*
X221285Y380465D01*
X219164Y385414D02*
X221285Y387535D01*
X219750Y384000D02*
X222750D01*
X225750D02*
X222750D01*
X226336Y382586D02*
X224215Y380465D01*
X226336Y385414D02*
X224215Y387535D01*
X227750Y382000D02*
Y379000D01*
Y386000D02*
Y389000D01*
X229164Y382586D02*
X231285Y380465D01*
X229164Y385414D02*
X231285Y387535D01*
X229750Y384000D02*
X232750D01*
X279750Y20000D02*
X276750D01*
X279750Y30000D02*
X276750D01*
X280336Y18586D02*
X278215Y16465D01*
X280336Y21414D02*
X278215Y23535D01*
X280336Y28586D02*
X278215Y26465D01*
X280336Y31414D02*
X278215Y33535D01*
X281750Y18000D02*
Y15000D01*
Y22000D02*
Y25000D01*
Y28000D02*
Y25000D01*
Y32000D02*
Y35000D01*
X283164Y18586D02*
X285285Y16465D01*
X283750Y20000D02*
X286750D01*
X371750Y60000D02*
X368750D01*
X371750Y120000D02*
X368750D01*
X371750Y180000D02*
X368750D01*
X372336Y58586D02*
X370215Y56465D01*
X372336Y118586D02*
X370215Y116465D01*
X372336Y178586D02*
X370215Y176465D01*
X373750Y58000D02*
Y55000D01*
Y118000D02*
Y115000D01*
Y178000D02*
Y175000D01*
X375164Y58586D02*
X377285Y56465D01*
X375164Y118586D02*
X377285Y116465D01*
X375164Y178586D02*
X377285Y176465D01*
X375750Y60000D02*
X378750D01*
X375750Y120000D02*
X378750D01*
X375750Y180000D02*
X378750D01*
X381750Y60000D02*
X378750D01*
X381750Y120000D02*
X378750D01*
X381750Y180000D02*
X378750D01*
X381750Y250000D02*
X378750D01*
X381750Y260000D02*
X378750D01*
X381750Y270000D02*
X378750D01*
X381750Y280000D02*
X378750D01*
X381750Y310000D02*
X378750D01*
X381750Y320000D02*
X378750D01*
X381750Y330000D02*
X378750D01*
X381750Y340000D02*
X378750D01*
X382336Y58586D02*
X380215Y56465D01*
X382336Y118586D02*
X380215Y116465D01*
X382336Y178586D02*
X380215Y176465D01*
X382336Y248586D02*
X380215Y246465D01*
X382336Y251414D02*
X380215Y253535D01*
X382336Y258586D02*
X380215Y256465D01*
X382336Y261414D02*
X380215Y263535D01*
X382336Y268586D02*
X380215Y266465D01*
X382336Y271414D02*
X380215Y273535D01*
X382336Y278586D02*
X380215Y276465D01*
X382336Y281414D02*
X380215Y283535D01*
X382336Y308586D02*
X380215Y306465D01*
X382336Y311414D02*
X380215Y313535D01*
X382336Y318586D02*
X380215Y316465D01*
X382336Y321414D02*
X380215Y323535D01*
X382336Y328586D02*
X380215Y326465D01*
X382336Y331414D02*
X380215Y333535D01*
X382336Y338586D02*
X380215Y336465D01*
X382336Y341414D02*
X380215Y343535D01*
X383750Y58000D02*
Y55000D01*
Y62000D02*
Y65000D01*
Y118000D02*
Y115000D01*
Y122000D02*
Y125000D01*
Y178000D02*
Y175000D01*
Y182000D02*
Y185000D01*
Y248000D02*
Y245000D01*
Y252000D02*
Y255000D01*
Y258000D02*
Y255000D01*
Y262000D02*
Y265000D01*
Y268000D02*
Y265000D01*
Y272000D02*
Y275000D01*
Y278000D02*
Y275000D01*
Y282000D02*
Y285000D01*
Y308000D02*
Y305000D01*
Y312000D02*
Y315000D01*
Y318000D02*
Y315000D01*
Y322000D02*
Y325000D01*
Y328000D02*
Y325000D01*
Y332000D02*
Y335000D01*
Y338000D02*
Y335000D01*
Y342000D02*
Y345000D01*
X385164Y58586D02*
X387285Y56465D01*
X385164Y61414D02*
X387285Y63535D01*
X385164Y118586D02*
X387285Y116465D01*
X385164Y121414D02*
X387285Y123535D01*
X385164Y178586D02*
X387285Y176465D01*
X385164Y181414D02*
X387285Y183535D01*
X385164Y248586D02*
X387285Y246465D01*
X385164Y251414D02*
X387285Y253535D01*
X385164Y258586D02*
X387285Y256465D01*
X385164Y261414D02*
X387285Y263535D01*
X385164Y268586D02*
X387285Y266465D01*
X385164Y271414D02*
X387285Y273535D01*
X385164Y278586D02*
X387285Y276465D01*
X385164Y281414D02*
X387285Y283535D01*
X385164Y308586D02*
X387285Y306465D01*
X385164Y311414D02*
X387285Y313535D01*
X385164Y318586D02*
X387285Y316465D01*
X385164Y321414D02*
X387285Y323535D01*
X385164Y328586D02*
X387285Y326465D01*
X385164Y331414D02*
X387285Y333535D01*
X385164Y338586D02*
X387285Y336465D01*
X385164Y341414D02*
X387285Y343535D01*
X385750Y60000D02*
X388750D01*
X385750Y120000D02*
X388750D01*
X385750Y180000D02*
X388750D01*
X385750Y250000D02*
X388750D01*
X385750Y260000D02*
X388750D01*
X385750Y270000D02*
X388750D01*
X385750Y280000D02*
X388750D01*
X385750Y310000D02*
X388750D01*
X385750Y320000D02*
X388750D01*
X385750Y330000D02*
X388750D01*
X385750Y340000D02*
X388750D01*
D02*
D107*
X60372Y60000D03*
D02*
D108*
X36750D03*
X49545Y41693D03*
D02*
D109*
X143969Y120250D03*
Y127250D03*
X175750Y182000D03*
Y189000D03*
X183750Y182000D03*
Y189000D03*
X200630Y248543D03*
Y255543D03*
X210250Y249000D03*
Y256000D03*
X234750Y120000D03*
Y127000D03*
X281250Y111500D03*
Y118500D03*
X294750Y167000D03*
Y174000D03*
X299750Y282000D03*
Y289000D03*
X305750Y345500D03*
Y352500D03*
X314250Y345500D03*
Y352500D03*
X324250Y345500D03*
Y352500D03*
X324750Y282500D03*
Y289500D03*
X344750Y285000D03*
Y292000D03*
X345250Y345500D03*
Y352500D03*
D02*
D110*
X28250Y92000D03*
X35250D03*
X45250D03*
X52250D03*
Y133000D03*
X59250D03*
X86750Y140000D03*
X87750Y168000D03*
X93750Y140000D03*
X94750Y105000D03*
Y112000D03*
Y119000D03*
Y126000D03*
Y168000D03*
X101750Y105000D03*
Y112000D03*
Y119000D03*
Y126000D03*
X108250Y146500D03*
X115250D03*
X116750Y105000D03*
Y112000D03*
Y119000D03*
Y126000D03*
X123750Y105000D03*
Y112000D03*
Y119000D03*
Y126000D03*
X150250Y344500D03*
Y354000D03*
X157250Y344500D03*
Y354000D03*
X183750Y105000D03*
Y112000D03*
Y119000D03*
Y126000D03*
X184250Y249000D03*
X190750Y105000D03*
Y112000D03*
Y119000D03*
Y126000D03*
X191250Y249000D03*
X201750Y147500D03*
X205250Y105000D03*
Y112000D03*
Y119000D03*
Y126000D03*
X208750Y147500D03*
X212250Y105000D03*
Y112000D03*
Y119000D03*
Y126000D03*
X292750Y339000D03*
X299750D03*
D02*
D111*
X155494Y104457D03*
X157069D03*
X159431D03*
X161006D03*
X245494D03*
X247069D03*
X249431D03*
X251006D03*
D02*
D112*
X152541Y109378D03*
Y111346D03*
X163959Y109378D03*
Y111346D03*
X242541Y109378D03*
Y111346D03*
X253959Y109378D03*
Y111346D03*
D02*
D113*
X155297Y115677D03*
X157266D03*
X159234D03*
X161203D03*
X245297D03*
X247266D03*
X249234D03*
X251203D03*
D02*
D114*
X143021Y63535D03*
Y77315D03*
X232317Y63535D03*
Y77315D03*
D02*
D115*
X130226Y89520D03*
X219522D03*
D02*
D116*
X109510Y134441D03*
Y137000D03*
Y139559D03*
X116990Y134441D03*
Y137000D03*
Y139559D03*
X201510Y135941D03*
Y138500D03*
Y141059D03*
X208990Y135941D03*
Y138500D03*
Y141059D03*
D02*
D117*
X175734Y208933D03*
Y232067D03*
X178293Y208933D03*
Y232067D03*
X180852Y208933D03*
Y232067D03*
X183411Y208933D03*
Y232067D03*
X185970Y208933D03*
Y232067D03*
X188530Y208933D03*
Y232067D03*
X191089Y208933D03*
Y232067D03*
X193648Y208933D03*
Y232067D03*
X196207Y208933D03*
Y232067D03*
X198766Y208933D03*
Y232067D03*
X337573Y252933D03*
Y276067D03*
X338073Y313433D03*
Y336567D03*
X340132Y252933D03*
Y276067D03*
X340632Y313433D03*
Y336567D03*
X342691Y252933D03*
Y276067D03*
X343191Y313433D03*
Y336567D03*
X345250Y252933D03*
Y276067D03*
X345750Y313433D03*
Y336567D03*
X347809Y252933D03*
Y276067D03*
X348309Y313433D03*
Y336567D03*
X350368Y252933D03*
Y276067D03*
X350868Y313433D03*
Y336567D03*
X352927Y252933D03*
Y276067D03*
X353427Y313433D03*
Y336567D03*
D02*
D118*
X281750Y46398D03*
Y83602D03*
X286750Y46398D03*
Y83602D03*
X291750Y46398D03*
Y83602D03*
X296750Y46398D03*
Y83602D03*
X301750Y46398D03*
Y83602D03*
X306750Y46398D03*
Y83602D03*
X311750Y46398D03*
Y83602D03*
X316750Y46398D03*
Y83602D03*
X321750Y46398D03*
Y83602D03*
D02*
D119*
X113750Y20000D03*
X133750Y20008D03*
X153750Y20000D03*
X203750D03*
X223750D03*
X243750D03*
D02*
D120*
X59876Y105024D03*
Y122976D03*
D02*
D121*
X33104Y114000D03*
D02*
D122*
X287175Y102795D03*
Y127205D03*
X289734Y102795D03*
Y127205D03*
X292293Y102795D03*
Y127205D03*
X294852Y102795D03*
Y127205D03*
X297411Y102795D03*
Y127205D03*
X299970Y102795D03*
Y127205D03*
X302530Y102795D03*
Y127205D03*
X304675Y152795D03*
Y177205D03*
X305089Y102795D03*
Y127205D03*
X307234Y152795D03*
Y177205D03*
X307648Y102795D03*
Y127205D03*
X309793Y152795D03*
Y177205D03*
X310207Y102795D03*
Y127205D03*
X312352Y152795D03*
Y177205D03*
X312766Y102795D03*
Y127205D03*
X314911Y152795D03*
Y177205D03*
X315325Y102795D03*
Y127205D03*
X317470Y152795D03*
Y177205D03*
X320030Y152795D03*
Y177205D03*
X322589Y152795D03*
Y177205D03*
X325148Y152795D03*
Y177205D03*
X327707Y152795D03*
Y177205D03*
X330266Y152795D03*
Y177205D03*
X332825Y152795D03*
Y177205D03*
D02*
D123*
X35250Y92000D02*
X45250D01*
X0Y0D02*
M02*
