G04 EasyPC Gerber Version 21.0.3 Build 4286 *
%FSLAX35Y35*%
%MOIN*%
%ADD72C,0.00500*%
%ADD75C,0.00787*%
%ADD74C,0.00800*%
%ADD76C,0.00984*%
%ADD11C,0.01000*%
X0Y0D02*
D02*
D11*
X6750Y260557D02*
X2750D01*
X6750Y326557D02*
X2750D01*
X57750Y349157D02*
Y237957D01*
G75*
G02X52750Y232957I-5000*
G01*
X6750*
Y354157*
X52750*
G75*
G02X57750Y349157J-5000*
G01*
D02*
D72*
X14762Y132038D02*
X16012D01*
X15387D02*
Y135788D01*
X14762D02*
X16012D01*
X21950Y132663D02*
X21637Y132350D01*
X21012Y132038*
X20075*
X19450Y132350*
X19137Y132663*
X18825Y133288*
Y134538*
X19137Y135163*
X19450Y135476*
X20075Y135788*
X21012*
X21637Y135476*
X21950Y135163*
X24450Y132038D02*
X25700D01*
X25075D02*
Y135788D01*
X24450Y135163*
X17450Y69913D02*
X17137Y69600D01*
X16512Y69288*
X15575*
X14950Y69600*
X14637Y69913*
X14325Y70538*
Y71788*
X14637Y72413*
X14950Y72726*
X15575Y73038*
X16512*
X17137Y72726*
X17450Y72413*
X19325Y69288D02*
Y73038D01*
X22450Y69288*
Y73038*
X26825Y69288D02*
X24325D01*
X26512Y71476*
X26825Y72100*
X26512Y72726*
X25887Y73038*
X24950*
X24325Y72726*
X22450Y96163D02*
X22137Y95850D01*
X21512Y95538*
X20575*
X19950Y95850*
X19637Y96163*
X19325Y96788*
Y98038*
X19637Y98663*
X19950Y98976*
X20575Y99288*
X21512*
X22137Y98976*
X22450Y98663*
X24950Y95538D02*
X26200D01*
X25575D02*
Y99288D01*
X24950Y98663*
X25175Y150250D02*
X30475D01*
Y137950*
X25175*
Y150250*
X28175Y94450D02*
Y99750D01*
X40475*
Y94450*
X28175*
X28762Y154726D02*
X29075Y154413D01*
X29387Y153788*
Y152850*
X29075Y152226*
X28762Y151913*
X28137Y151600*
X26887*
X26262Y151913*
X25950Y152226*
X25637Y152850*
Y153788*
X25950Y154413*
X26262Y154726*
X29387Y158163D02*
X25637D01*
X28137Y156600*
Y159100*
X42175Y94450D02*
Y99750D01*
X54475*
Y94450*
X42175*
X41887Y151538D02*
Y152788D01*
Y152163D02*
X38137D01*
Y151538D02*
Y152788D01*
X41262Y158726D02*
X41575Y158413D01*
X41887Y157788*
Y156850*
X41575Y156226*
X41262Y155913*
X40637Y155600*
X39387*
X38762Y155913*
X38450Y156226*
X38137Y156850*
Y157788*
X38450Y158413*
X38762Y158726*
X41575Y160913D02*
X41887Y161538D01*
Y162163*
X41575Y162788*
X40950Y163100*
X40325Y162788*
X40012Y162163*
Y161538*
Y162163D02*
X39700Y162788D01*
X39075Y163100*
X38450Y162788*
X38137Y162163*
Y161538*
X38450Y160913*
X51175Y147750D02*
X56475D01*
Y135450*
X51175*
Y147750*
X59450Y96163D02*
X59137Y95850D01*
X58512Y95538*
X57575*
X56950Y95850*
X56637Y96163*
X56325Y96788*
Y98038*
X56637Y98663*
X56950Y98976*
X57575Y99288*
X58512*
X59137Y98976*
X59450Y98663*
X61637Y95850D02*
X62262Y95538D01*
X62887*
X63512Y95850*
X63825Y96476*
X63512Y97100*
X62887Y97413*
X62262*
X62887D02*
X63512Y97726D01*
X63825Y98350*
X63512Y98976*
X62887Y99288*
X62262*
X61637Y98976*
X60762Y144226D02*
X61075Y143913D01*
X61387Y143288*
Y142350*
X61075Y141726*
X60762Y141413*
X60137Y141100*
X58887*
X58262Y141413*
X57950Y141726*
X57637Y142350*
Y143288*
X57950Y143913*
X58262Y144226*
X61387Y148600D02*
Y146100D01*
X59200Y148288*
X58575Y148600*
X57950Y148288*
X57637Y147663*
Y146726*
X57950Y146100*
X62762Y340726D02*
X63075Y340413D01*
X63387Y339788*
Y338850*
X63075Y338226*
X62762Y337913*
X62137Y337600*
X60887*
X60262Y337913*
X59950Y338226*
X59637Y338850*
Y339788*
X59950Y340413*
X60262Y340726*
X63387Y342600D02*
X59637D01*
X63387Y345726*
X59637*
X63387Y348226D02*
Y349476D01*
Y348850D02*
X59637D01*
X60262Y348226*
X63887Y319600D02*
X60137D01*
Y321788*
X60450Y322413*
X61075Y322726*
X61700Y322413*
X62012Y321788*
Y319600*
Y321788D02*
X63887Y322726D01*
Y325226D02*
Y326476D01*
Y325850D02*
X60137D01*
X60762Y325226*
X63887Y330226D02*
Y331476D01*
Y330850D02*
X60137D01*
X60762Y330226*
X65475Y305950D02*
X60175D01*
Y318250*
X65475*
Y305950*
X66404Y296947D02*
X82404D01*
Y303947*
X66404*
Y296947*
X66975Y115450D02*
X61675D01*
Y127750*
X66975*
Y115450*
X71175Y137750D02*
X76475D01*
Y125450*
X71175*
Y137750*
X70262Y110226D02*
X70575Y109913D01*
X70887Y109288*
Y108350*
X70575Y107726*
X70262Y107413*
X69637Y107100*
X68387*
X67762Y107413*
X67450Y107726*
X67137Y108350*
Y109288*
X67450Y109913*
X67762Y110226*
X70575Y112100D02*
X70887Y112726D01*
Y113663*
X70575Y114288*
X69950Y114600*
X69637*
X69012Y114288*
X68700Y113663*
Y112100*
X67137*
Y114600*
X71762Y251726D02*
X72075Y251413D01*
X72387Y250788*
Y249850*
X72075Y249226*
X71762Y248913*
X71137Y248600*
X69887*
X69262Y248913*
X68950Y249226*
X68637Y249850*
Y250788*
X68950Y251413*
X69262Y251726*
X71450Y253600D02*
X70825Y253913D01*
X70512Y254538*
Y255163*
X70825Y255788*
X71450Y256100*
X72075Y255788*
X72387Y255163*
Y254538*
X72075Y253913*
X71450Y253600*
X70512*
X69575Y253913*
X68950Y254538*
X68637Y255163*
X73975Y17950D02*
X68675D01*
Y30250*
X73975*
Y17950*
X73387Y178100D02*
X69637D01*
Y180288*
X69950Y180913*
X70575Y181226*
X71200Y180913*
X71512Y180288*
Y178100*
Y180288D02*
X73387Y181226D01*
Y183726D02*
Y184976D01*
Y184350D02*
X69637D01*
X70262Y183726*
X73075Y188413D02*
X73387Y189038D01*
Y189663*
X73075Y190288*
X72450Y190600*
X71825Y190288*
X71512Y189663*
Y189038*
Y189663D02*
X71200Y190288D01*
X70575Y190600*
X69950Y190288*
X69637Y189663*
Y189038*
X69950Y188413*
X74475Y163950D02*
X69175D01*
Y176250*
X74475*
Y163950*
X74637Y58663D02*
X70887D01*
Y57100D02*
Y60226D01*
X74325Y62413D02*
X74637Y63038D01*
Y63663*
X74325Y64288*
X73700Y64600*
X73075Y64288*
X72762Y63663*
Y63038*
Y63663D02*
X72450Y64288D01*
X71825Y64600*
X71200Y64288*
X70887Y63663*
Y63038*
X71200Y62413*
X76887Y110600D02*
X73137D01*
Y112788*
X73450Y113413*
X74075Y113726*
X74700Y113413*
X75012Y112788*
Y110600*
Y112788D02*
X76887Y113726D01*
Y116226D02*
Y117476D01*
Y116850D02*
X73137D01*
X73762Y116226*
X76887Y121538D02*
X76575Y122163D01*
X75950Y122788*
X75012Y123100*
X74075*
X73450Y122788*
X73137Y122163*
Y121538*
X73450Y120913*
X74075Y120600*
X74700Y120913*
X75012Y121538*
Y122163*
X74700Y122788*
X74075Y123100*
X78175Y137750D02*
X83475D01*
Y125450*
X78175*
Y137750*
X79475Y249700D02*
X74175D01*
Y262000*
X79475*
Y249700*
X79012Y21476D02*
X79325Y21163D01*
X79637Y20538*
Y19600*
X79325Y18976*
X79012Y18663*
X78387Y18350*
X77137*
X76512Y18663*
X76200Y18976*
X75887Y19600*
Y20538*
X76200Y21163*
X76512Y21476*
X77762Y24288D02*
Y24913D01*
X77450Y25538*
X76825Y25850*
X76200Y25538*
X75887Y24913*
Y24288*
X76200Y23663*
X76825Y23350*
X77450Y23663*
X77762Y24288*
X78075Y23663*
X78700Y23350*
X79325Y23663*
X79637Y24288*
Y24913*
X79325Y25538*
X78700Y25850*
X78075Y25538*
X77762Y24913*
X84246Y298431D02*
Y302181D01*
X86433*
X87059Y301869*
X87371Y301244*
X87059Y300619*
X86433Y300307*
X84246*
X86433D02*
X87371Y298431D01*
X89871D02*
X91121D01*
X90496D02*
Y302181D01*
X89871Y301557*
X96746Y298431D02*
X94246D01*
X96433Y300619*
X96746Y301244*
X96433Y301869*
X95809Y302181*
X94871*
X94246Y301869*
X83387Y110600D02*
X79637D01*
Y112788*
X79950Y113413*
X80575Y113726*
X81200Y113413*
X81512Y112788*
Y110600*
Y112788D02*
X83387Y113726D01*
Y118100D02*
Y115600D01*
X81200Y117788*
X80575Y118100*
X79950Y117788*
X79637Y117163*
Y116226*
X79950Y115600*
X83387Y121226D02*
Y122476D01*
Y121850D02*
X79637D01*
X80262Y121226*
X82137Y313600D02*
Y316726D01*
X85887Y313600*
Y316726*
Y319226D02*
Y320476D01*
Y319850D02*
X82137D01*
X82762Y319226*
X90175Y211250D02*
X95475D01*
Y198950*
X90175*
Y211250*
X89012Y216476D02*
X89325Y216163D01*
X89637Y215538*
Y214600*
X89325Y213976*
X89012Y213663*
X88387Y213350*
X87137*
X86512Y213663*
X86200Y213976*
X85887Y214600*
Y215538*
X86200Y216163*
X86512Y216476*
X89637Y218976D02*
Y220226D01*
Y219600D02*
X85887D01*
X86512Y218976*
X89637Y225850D02*
Y223350D01*
X87450Y225538*
X86825Y225850*
X86200Y225538*
X85887Y224913*
Y223976*
X86200Y223350*
X89887Y272398D02*
Y273648D01*
Y273023D02*
X86137D01*
Y272398D02*
Y273648D01*
X89262Y279586D02*
X89575Y279273D01*
X89887Y278648*
Y277711*
X89575Y277086*
X89262Y276773*
X88637Y276461*
X87387*
X86762Y276773*
X86450Y277086*
X86137Y277711*
Y278648*
X86450Y279273*
X86762Y279586*
X89887Y283023D02*
X86137D01*
X88637Y281461*
Y283961*
X91512Y137226D02*
X91825Y136913D01*
X92137Y136288*
Y135350*
X91825Y134726*
X91512Y134413*
X90887Y134100*
X89637*
X89012Y134413*
X88700Y134726*
X88387Y135350*
Y136288*
X88700Y136913*
X89012Y137226*
X92137Y139726D02*
Y140976D01*
Y140350D02*
X88387D01*
X89012Y139726*
X91825Y144413D02*
X92137Y145038D01*
Y145663*
X91825Y146288*
X91200Y146600*
X90575Y146288*
X90262Y145663*
Y145038*
Y145663D02*
X89950Y146288D01*
X89325Y146600*
X88700Y146288*
X88387Y145663*
Y145038*
X88700Y144413*
X93225Y148450D02*
X87925D01*
Y160750*
X93225*
Y148450*
X110387Y173538D02*
Y174788D01*
Y174163D02*
X106637D01*
Y173538D02*
Y174788D01*
X109762Y180726D02*
X110075Y180413D01*
X110387Y179788*
Y178850*
X110075Y178226*
X109762Y177913*
X109137Y177600*
X107887*
X107262Y177913*
X106950Y178226*
X106637Y178850*
Y179788*
X106950Y180413*
X107262Y180726*
X110387Y185100D02*
Y182600D01*
X108200Y184788*
X107575Y185100*
X106950Y184788*
X106637Y184163*
Y183226*
X106950Y182600*
X124950Y186163D02*
X124637Y185850D01*
X124012Y185538*
X123075*
X122450Y185850*
X122137Y186163*
X121825Y186788*
Y188038*
X122137Y188663*
X122450Y188976*
X123075Y189288*
X124012*
X124637Y188976*
X124950Y188663*
X129325Y185538D02*
X126825D01*
X129012Y187726*
X129325Y188350*
X129012Y188976*
X128387Y189288*
X127450*
X126825Y188976*
X132137Y185850D02*
X132762Y185538D01*
X133387*
X134012Y185850*
X134325Y186476*
X134012Y187100*
X133387Y187413*
X132762*
X133387D02*
X134012Y187726D01*
X134325Y188350*
X134012Y188976*
X133387Y189288*
X132762*
X132137Y188976*
X125450Y248663D02*
X125137Y248350D01*
X124512Y248038*
X123575*
X122950Y248350*
X122637Y248663*
X122325Y249288*
Y250538*
X122637Y251163*
X122950Y251476*
X123575Y251788*
X124512*
X125137Y251476*
X125450Y251163*
X127950Y248038D02*
X129200D01*
X128575D02*
Y251788D01*
X127950Y251163*
X133262Y249913D02*
X133887D01*
X134512Y250226*
X134825Y250850*
X134512Y251476*
X133887Y251788*
X133262*
X132637Y251476*
X132325Y250850*
X132637Y250226*
X133262Y249913*
X132637Y249600*
X132325Y248976*
X132637Y248350*
X133262Y248038*
X133887*
X134512Y248350*
X134825Y248976*
X134512Y249600*
X133887Y249913*
X125450Y318163D02*
X125137Y317850D01*
X124512Y317538*
X123575*
X122950Y317850*
X122637Y318163*
X122325Y318788*
Y320038*
X122637Y320663*
X122950Y320976*
X123575Y321288*
X124512*
X125137Y320976*
X125450Y320663*
X127950Y317538D02*
X129200D01*
X128575D02*
Y321288D01*
X127950Y320663*
X133262Y317538D02*
X133887Y317850D01*
X134512Y318476*
X134825Y319413*
Y320350*
X134512Y320976*
X133887Y321288*
X133262*
X132637Y320976*
X132325Y320350*
X132637Y319726*
X133262Y319413*
X133887*
X134512Y319726*
X134825Y320350*
X123387Y105538D02*
Y106788D01*
Y106163D02*
X119637D01*
Y105538D02*
Y106788D01*
X122762Y112726D02*
X123075Y112413D01*
X123387Y111788*
Y110850*
X123075Y110226*
X122762Y109913*
X122137Y109600*
X120887*
X120262Y109913*
X119950Y110226*
X119637Y110850*
Y111788*
X119950Y112413*
X120262Y112726*
X123075Y114600D02*
X123387Y115226D01*
Y116163*
X123075Y116788*
X122450Y117100*
X122137*
X121512Y116788*
X121200Y116163*
Y114600*
X119637*
Y117100*
X136175Y184950D02*
Y190250D01*
X148475*
Y184950*
X136175*
X136325Y78538D02*
Y82288D01*
X138512*
X139137Y81976*
X139450Y81350*
X139137Y80726*
X138512Y80413*
X136325*
X138512D02*
X139450Y78538D01*
X141325Y82288D02*
Y78538D01*
X144450*
X146950D02*
X148200D01*
X147575D02*
Y82288D01*
X146950Y81663*
X151637Y78850D02*
X152262Y78538D01*
X152887*
X153512Y78850*
X153825Y79476*
X153512Y80100*
X152887Y80413*
X152262*
X152887D02*
X153512Y80726D01*
X153825Y81350*
X153512Y81976*
X152887Y82288*
X152262*
X151637Y81976*
X136675Y247450D02*
Y252750D01*
X148975*
Y247450*
X136675*
Y316950D02*
Y322250D01*
X148975*
Y316950*
X136675*
X152300Y148313D02*
X151987Y148000D01*
X151362Y147688*
X150425*
X149800Y148000*
X149487Y148313*
X149175Y148938*
Y150188*
X149487Y150813*
X149800Y151126*
X150425Y151438*
X151362*
X151987Y151126*
X152300Y150813*
X155112Y147688D02*
X155737Y148000D01*
X156362Y148626*
X156675Y149563*
Y150500*
X156362Y151126*
X155737Y151438*
X155112*
X154487Y151126*
X154175Y150500*
X154487Y149876*
X155112Y149563*
X155737*
X156362Y149876*
X156675Y150500*
X150762Y210038D02*
X152012D01*
X151387D02*
Y213788D01*
X150762D02*
X152012D01*
X157950Y210663D02*
X157637Y210350D01*
X157012Y210038*
X156075*
X155450Y210350*
X155137Y210663*
X154825Y211288*
Y212538*
X155137Y213163*
X155450Y213476*
X156075Y213788*
X157012*
X157637Y213476*
X157950Y213163*
X160450Y210038D02*
X161700D01*
X161075D02*
Y213788D01*
X160450Y213163*
X167325Y210038D02*
X164825D01*
X167012Y212226*
X167325Y212850*
X167012Y213476*
X166387Y213788*
X165450*
X164825Y213476*
X151175Y142250D02*
X156475D01*
Y129950*
X151175*
Y142250*
X153262Y335038D02*
X154512D01*
X153887D02*
Y338788D01*
X153262D02*
X154512D01*
X160450Y335663D02*
X160137Y335350D01*
X159512Y335038*
X158575*
X157950Y335350*
X157637Y335663*
X157325Y336288*
Y337538*
X157637Y338163*
X157950Y338476*
X158575Y338788*
X159512*
X160137Y338476*
X160450Y338163*
X163262Y336913D02*
X163887D01*
X164512Y337226*
X164825Y337850*
X164512Y338476*
X163887Y338788*
X163262*
X162637Y338476*
X162325Y337850*
X162637Y337226*
X163262Y336913*
X162637Y336600*
X162325Y335976*
X162637Y335350*
X163262Y335038*
X163887*
X164512Y335350*
X164825Y335976*
X164512Y336600*
X163887Y336913*
X153762Y272538D02*
X155012D01*
X154387D02*
Y276288D01*
X153762D02*
X155012D01*
X160950Y273163D02*
X160637Y272850D01*
X160012Y272538*
X159075*
X158450Y272850*
X158137Y273163*
X157825Y273788*
Y275038*
X158137Y275663*
X158450Y275976*
X159075Y276288*
X160012*
X160637Y275976*
X160950Y275663*
X163762Y272538D02*
X164387Y272850D01*
X165012Y273476*
X165325Y274413*
Y275350*
X165012Y275976*
X164387Y276288*
X163762*
X163137Y275976*
X162825Y275350*
X163137Y274726*
X163762Y274413*
X164387*
X165012Y274726*
X165325Y275350*
X164325Y155288D02*
Y159038D01*
X166512*
X167137Y158726*
X167450Y158100*
X167137Y157476*
X166512Y157163*
X164325*
X166512D02*
X167450Y155288D01*
X169637Y155600D02*
X170262Y155288D01*
X170887*
X171512Y155600*
X171825Y156226*
X171512Y156850*
X170887Y157163*
X170262*
X170887D02*
X171512Y157476D01*
X171825Y158100*
X171512Y158726*
X170887Y159038*
X170262*
X169637Y158726*
X166325Y78538D02*
Y82288D01*
X168512*
X169137Y81976*
X169450Y81350*
X169137Y80726*
X168512Y80413*
X166325*
X168512D02*
X169450Y78538D01*
X171325Y82288D02*
Y78538D01*
X174450*
X176950D02*
X178200D01*
X177575D02*
Y82288D01*
X176950Y81663*
X183825Y78538D02*
X181325D01*
X183512Y80726*
X183825Y81350*
X183512Y81976*
X182887Y82288*
X181950*
X181325Y81976*
X170387Y129100D02*
X166637D01*
Y131288*
X166950Y131913*
X167575Y132226*
X168200Y131913*
X168512Y131288*
Y129100*
Y131288D02*
X170387Y132226D01*
Y136600D02*
Y134100D01*
X168200Y136288*
X167575Y136600*
X166950Y136288*
X166637Y135663*
Y134726*
X166950Y134100*
X172075Y145100D02*
Y129100D01*
X179075*
Y145100*
X172075*
X180475Y153500D02*
Y148200D01*
X168175*
Y153500*
X180475*
X185325Y125288D02*
Y126538D01*
X185637Y127163*
X185950Y127476*
X186575Y127788*
X187200*
X187825Y127476*
X188137Y127163*
X188450Y126538*
Y125288*
X188137Y124663*
X187825Y124350*
X187200Y124038*
X186575*
X185950Y124350*
X185637Y124663*
X185325Y125288*
X187512Y124976D02*
X188450Y124038D01*
X190950D02*
X192200D01*
X191575D02*
Y127788D01*
X190950Y127163*
X183762Y361226D02*
X184075Y360913D01*
X184387Y360288*
Y359350*
X184075Y358726*
X183762Y358413*
X183137Y358100*
X181887*
X181262Y358413*
X180950Y358726*
X180637Y359350*
Y360288*
X180950Y360913*
X181262Y361226*
X184387Y363100D02*
X180637D01*
X184387Y366226*
X180637*
X184075Y368413D02*
X184387Y369038D01*
Y369663*
X184075Y370288*
X183450Y370600*
X182825Y370288*
X182512Y369663*
Y369038*
Y369663D02*
X182200Y370288D01*
X181575Y370600*
X180950Y370288*
X180637Y369663*
Y369038*
X180950Y368413*
X187475Y147950D02*
X182175D01*
Y160250*
X187475*
Y147950*
X186887Y161100D02*
X183137D01*
Y163288*
X183450Y163913*
X184075Y164226*
X184700Y163913*
X185012Y163288*
Y161100*
Y163288D02*
X186887Y164226D01*
X186575Y166100D02*
X186887Y166726D01*
Y167663*
X186575Y168288*
X185950Y168600*
X185637*
X185012Y168288*
X184700Y167663*
Y166100*
X183137*
Y168600*
X193565Y146852D02*
G75*
G03X191636I-965D01*
G01*
G75*
G03X193565I965*
G01*
G36*
G75*
G03X191636I-965*
G01*
G75*
G03X193565I965*
G01*
G37*
X194815Y129226D02*
X182315D01*
Y144974*
X194815*
Y129226*
X194975Y147950D02*
X189675D01*
Y160250*
X194975*
Y147950*
X194387Y161100D02*
X190637D01*
Y163288*
X190950Y163913*
X191575Y164226*
X192200Y163913*
X192512Y163288*
Y161100*
Y163288D02*
X194387Y164226D01*
X193450Y166100D02*
X192825Y166413D01*
X192512Y167038*
Y167663*
X192825Y168288*
X193450Y168600*
X194075Y168288*
X194387Y167663*
Y167038*
X194075Y166413*
X193450Y166100*
X192512*
X191575Y166413*
X190950Y167038*
X190637Y167663*
X195825Y78538D02*
Y82288D01*
X198012*
X198637Y81976*
X198950Y81350*
X198637Y80726*
X198012Y80413*
X195825*
X198012D02*
X198950Y78538D01*
X200825Y82288D02*
Y78538D01*
X203950*
X206450D02*
X207700D01*
X207075D02*
Y82288D01*
X206450Y81663*
X211450Y78538D02*
X212700D01*
X212075D02*
Y82288D01*
X211450Y81663*
X194887Y191038D02*
Y192288D01*
Y191663D02*
X191137D01*
Y191038D02*
Y192288D01*
X194262Y198226D02*
X194575Y197913D01*
X194887Y197288*
Y196350*
X194575Y195726*
X194262Y195413*
X193637Y195100*
X192387*
X191762Y195413*
X191450Y195726*
X191137Y196350*
Y197288*
X191450Y197913*
X191762Y198226*
X193950Y200100D02*
X193325Y200413D01*
X193012Y201038*
Y201663*
X193325Y202288*
X193950Y202600*
X194575Y202288*
X194887Y201663*
Y201038*
X194575Y200413*
X193950Y200100*
X193012*
X192075Y200413*
X191450Y201038*
X191137Y201663*
X194887Y251538D02*
Y252788D01*
Y252163D02*
X191137D01*
Y251538D02*
Y252788D01*
X194262Y258726D02*
X194575Y258413D01*
X194887Y257788*
Y256850*
X194575Y256226*
X194262Y255913*
X193637Y255600*
X192387*
X191762Y255913*
X191450Y256226*
X191137Y256850*
Y257788*
X191450Y258413*
X191762Y258726*
X194887Y261226D02*
Y262476D01*
Y261850D02*
X191137D01*
X191762Y261226*
X194887Y266226D02*
Y267476D01*
Y266850D02*
X191137D01*
X191762Y266226*
X194887Y314538D02*
Y315788D01*
Y315163D02*
X191137D01*
Y314538D02*
Y315788D01*
X194262Y321726D02*
X194575Y321413D01*
X194887Y320788*
Y319850*
X194575Y319226*
X194262Y318913*
X193637Y318600*
X192387*
X191762Y318913*
X191450Y319226*
X191137Y319850*
Y320788*
X191450Y321413*
X191762Y321726*
X194887Y324226D02*
Y325476D01*
Y324850D02*
X191137D01*
X191762Y324226*
X194575Y328913D02*
X194887Y329538D01*
Y330163*
X194575Y330788*
X193950Y331100*
X192075*
X191450Y330788*
X191137Y330163*
Y329538*
X191450Y328913*
X192075Y328600*
X193950*
X194575Y328913*
X191450Y330788*
X196925Y148200D02*
Y153500D01*
X209225*
Y148200*
X196925*
X198825Y145100D02*
Y129100D01*
X205825*
Y145100*
X198825*
X210825Y148538D02*
Y152288D01*
X213012*
X213637Y151976*
X213950Y151350*
X213637Y150726*
X213012Y150413*
X210825*
X213012D02*
X213950Y148538D01*
X217387D02*
Y152288D01*
X215825Y149788*
X218325*
X211387Y129100D02*
X207637D01*
Y131288*
X207950Y131913*
X208575Y132226*
X209200Y131913*
X209512Y131288*
Y129100*
Y131288D02*
X211387Y132226D01*
Y134726D02*
Y135976D01*
Y135350D02*
X207637D01*
X208262Y134726*
X257137Y132100D02*
X253387D01*
Y134288*
X253700Y134913*
X254325Y135226*
X254950Y134913*
X255262Y134288*
Y132100*
Y134288D02*
X257137Y135226D01*
X253387Y137100D02*
X257137D01*
Y140226*
X255262Y143038D02*
Y143663D01*
X254950Y144288*
X254325Y144600*
X253700Y144288*
X253387Y143663*
Y143038*
X253700Y142413*
X254325Y142100*
X254950Y142413*
X255262Y143038*
X255575Y142413*
X256200Y142100*
X256825Y142413*
X257137Y143038*
Y143663*
X256825Y144288*
X256200Y144600*
X255575Y144288*
X255262Y143663*
X257137Y162100D02*
X253387D01*
Y164288*
X253700Y164913*
X254325Y165226*
X254950Y164913*
X255262Y164288*
Y162100*
Y164288D02*
X257137Y165226D01*
X253387Y167100D02*
X257137D01*
Y170226*
Y172100D02*
X253387Y174600D01*
Y172100*
X257137Y197100D02*
X253387D01*
Y199288*
X253700Y199913*
X254325Y200226*
X254950Y199913*
X255262Y199288*
Y197100*
Y199288D02*
X257137Y200226D01*
X253387Y202100D02*
X257137D01*
Y205226*
X256200Y207100D02*
X255575Y207413D01*
X255262Y208038*
Y208663*
X255575Y209288*
X256200Y209600*
X256825Y209288*
X257137Y208663*
Y208038*
X256825Y207413*
X256200Y207100*
X255262*
X254325Y207413*
X253700Y208038*
X253387Y208663*
X257137Y222100D02*
X253387D01*
Y224288*
X253700Y224913*
X254325Y225226*
X254950Y224913*
X255262Y224288*
Y222100*
Y224288D02*
X257137Y225226D01*
X253387Y227100D02*
X257137D01*
Y230226*
X256825Y232100D02*
X257137Y232726D01*
Y233663*
X256825Y234288*
X256200Y234600*
X255887*
X255262Y234288*
X254950Y233663*
Y232100*
X253387*
Y234600*
X257137Y252100D02*
X253387D01*
Y254288*
X253700Y254913*
X254325Y255226*
X254950Y254913*
X255262Y254288*
Y252100*
Y254288D02*
X257137Y255226D01*
X253387Y257100D02*
X257137D01*
Y260226*
Y263663D02*
X253387D01*
X255887Y262100*
Y264600*
X257137Y282100D02*
X253387D01*
Y284288*
X253700Y284913*
X254325Y285226*
X254950Y284913*
X255262Y284288*
Y282100*
Y284288D02*
X257137Y285226D01*
X253387Y287100D02*
X257137D01*
Y290226*
X256825Y292413D02*
X257137Y293038D01*
Y293663*
X256825Y294288*
X256200Y294600*
X255575Y294288*
X255262Y293663*
Y293038*
Y293663D02*
X254950Y294288D01*
X254325Y294600*
X253700Y294288*
X253387Y293663*
Y293038*
X253700Y292413*
X257137Y314600D02*
X253387D01*
Y316788*
X253700Y317413*
X254325Y317726*
X254950Y317413*
X255262Y316788*
Y314600*
Y316788D02*
X257137Y317726D01*
X253387Y319600D02*
X257137D01*
Y322726*
Y327100D02*
Y324600D01*
X254950Y326788*
X254325Y327100*
X253700Y326788*
X253387Y326163*
Y325226*
X253700Y324600*
X257137Y344600D02*
X253387D01*
Y346788*
X253700Y347413*
X254325Y347726*
X254950Y347413*
X255262Y346788*
Y344600*
Y346788D02*
X257137Y347726D01*
X253387Y349600D02*
X257137D01*
Y352726*
Y355226D02*
Y356476D01*
Y355850D02*
X253387D01*
X254012Y355226*
X276244Y54846D02*
X278213D01*
Y37130*
X276244*
X279887Y76538D02*
Y80288D01*
X278325D02*
X281450D01*
X285825Y76538D02*
X283325D01*
X285512Y78726*
X285825Y79350*
X285512Y79976*
X284887Y80288*
X283950*
X283325Y79976*
X290811Y63114D02*
X298291D01*
Y30043*
X306559Y21776*
X291992Y23350D02*
X286874D01*
X311677D02*
X306559D01*
X319175Y113250D02*
X324475D01*
Y100950*
X319175*
Y113250*
X324669Y70594D02*
Y13114D01*
X260890*
Y70594*
X324669*
X329262Y104226D02*
X329575Y103913D01*
X329887Y103288*
Y102350*
X329575Y101726*
X329262Y101413*
X328637Y101100*
X327387*
X326762Y101413*
X326450Y101726*
X326137Y102350*
Y103288*
X326450Y103913*
X326762Y104226*
X329887Y106100D02*
X326137Y108600D01*
Y106100*
X350781Y351037D02*
G75*
G03X351569Y350250I394J-394D01*
G01*
G75*
G03X350781Y351037I-394J394*
G01*
X378700Y73663D02*
X378387Y73350D01*
X377762Y73038*
X376825*
X376200Y73350*
X375887Y73663*
X375575Y74288*
Y75538*
X375887Y76163*
X376200Y76476*
X376825Y76788*
X377762*
X378387Y76476*
X378700Y76163*
X380575Y73038D02*
Y76788D01*
X383700Y73038*
Y76788*
X387137Y73038D02*
Y76788D01*
X385575Y74288*
X388075*
X376372Y363242D02*
Y166392D01*
X388183*
X443301*
Y363242*
X376372*
D02*
D74*
X49925Y358500D02*
X178695D01*
Y391923*
X49925*
Y358500*
X60624Y30634D02*
X64561D01*
Y36539*
Y58193D02*
Y66067D01*
X7474*
Y30634*
X38970*
X66530Y38508D02*
X70467D01*
X68498Y40476D02*
Y36539D01*
X69325Y355100D02*
G75*
G03Y354100J-500D01*
G01*
G75*
G03Y355100J500*
G01*
G36*
G75*
G03Y354100J-500*
G01*
G75*
G03Y355100J500*
G01*
G37*
X106200Y75726D02*
Y80226D01*
X104325Y77226*
X107325*
X110325D02*
X113325D01*
X117450Y77976D02*
X118200D01*
X118950Y78350*
X119325Y79100*
X118950Y79850*
X118200Y80226*
X117450*
X116700Y79850*
X116325Y79100*
X116700Y78350*
X117450Y77976*
X116700Y77600*
X116325Y76850*
X116700Y76100*
X117450Y75726*
X118200*
X118950Y76100*
X119325Y76850*
X118950Y77600*
X118200Y77976*
X104325Y362100D02*
X124325D01*
Y358500*
X104325*
Y362100*
X129325Y27100D02*
X159325D01*
Y77100*
X129325*
Y27100*
X132119Y128674D02*
X127121D01*
X139325Y32100D02*
X149325D01*
X139325Y72100D02*
X141825D01*
X144325Y32100D02*
Y67100D01*
X141825Y74600*
X146825Y72100D02*
X149325D01*
X148321Y126963D02*
Y97238D01*
X135329*
Y126963*
X148321*
X148200Y199600D02*
X143700D01*
Y201850*
X144075Y202600*
X144450Y202976*
X145200Y203350*
X146700*
X147450Y202976*
X147825Y202600*
X148200Y201850*
Y199600*
Y205600D02*
X143700Y207476D01*
X148200Y209350*
X146325Y206350D02*
Y208600D01*
X147450Y215350D02*
X147825Y214976D01*
X148200Y214226*
Y213100*
X147825Y212350*
X147450Y211976*
X146700Y211600*
X145200*
X144450Y211976*
X144075Y212350*
X143700Y213100*
Y214226*
X144075Y214976*
X144450Y215350*
X147825Y217976D02*
X148200Y218726D01*
Y219476*
X147825Y220226*
X147075Y220600*
X146325Y220226*
X145950Y219476*
Y218726*
Y219476D02*
X145575Y220226D01*
X144825Y220600*
X144075Y220226*
X143700Y219476*
Y218726*
X144075Y217976*
X148200Y262100D02*
X143700D01*
Y264350*
X144075Y265100*
X144450Y265476*
X145200Y265850*
X146700*
X147450Y265476*
X147825Y265100*
X148200Y264350*
Y262100*
Y268100D02*
X143700Y269976D01*
X148200Y271850*
X146325Y268850D02*
Y271100D01*
X147450Y277850D02*
X147825Y277476D01*
X148200Y276726*
Y275600*
X147825Y274850*
X147450Y274476*
X146700Y274100*
X145200*
X144450Y274476*
X144075Y274850*
X143700Y275600*
Y276726*
X144075Y277476*
X144450Y277850*
X148200Y283100D02*
Y280100D01*
X145575Y282726*
X144825Y283100*
X144075Y282726*
X143700Y281976*
Y280850*
X144075Y280100*
X148200Y329600D02*
X143700D01*
Y331850*
X144075Y332600*
X144450Y332976*
X145200Y333350*
X146700*
X147450Y332976*
X147825Y332600*
X148200Y331850*
Y329600*
Y335600D02*
X143700Y337476D01*
X148200Y339350*
X146325Y336350D02*
Y338600D01*
X147450Y345350D02*
X147825Y344976D01*
X148200Y344226*
Y343100*
X147825Y342350*
X147450Y341976*
X146700Y341600*
X145200*
X144450Y341976*
X144075Y342350*
X143700Y343100*
Y344226*
X144075Y344976*
X144450Y345350*
X148200Y348350D02*
Y349850D01*
Y349100D02*
X143700D01*
X144450Y348350*
X159325Y27100D02*
X189325D01*
Y77100*
X159325*
Y27100*
X169325Y32100D02*
X179325D01*
X169325Y72100D02*
X171825D01*
X174325Y32100D02*
Y67100D01*
X171825Y74600*
X176825Y72100D02*
X179325D01*
X189325Y27100D02*
X219325D01*
Y77100*
X189325*
Y27100*
X199325Y32100D02*
X209325D01*
X199325Y72100D02*
X201825D01*
X204325Y32100D02*
Y67100D01*
X201825Y74600*
X206825Y72100D02*
X209325D01*
Y85726D02*
X211200Y90226D01*
X213075Y85726*
X210075Y87600D02*
X212325D01*
X245700Y147100D02*
X241200D01*
Y149350*
X241575Y150100*
X241950Y150476*
X242700Y150850*
X244200*
X244950Y150476*
X245325Y150100*
X245700Y149350*
Y147100*
X244950Y180850D02*
X245325Y180476D01*
X245700Y179726*
Y178600*
X245325Y177850*
X244950Y177476*
X244200Y177100*
X242700*
X241950Y177476*
X241575Y177850*
X241200Y178600*
Y179726*
X241575Y180476*
X241950Y180850*
X243450Y209726D02*
X243825Y210476D01*
X244575Y210850*
X245325Y210476*
X245700Y209726*
Y207100*
X241200*
Y209726*
X241575Y210476*
X242325Y210850*
X243075Y210476*
X243450Y209726*
Y207100*
X245700Y237100D02*
X241200Y238976D01*
X245700Y240850*
X243825Y237850D02*
Y240100D01*
X245700Y269600D02*
X241200D01*
Y271850*
X241575Y272600*
X241950Y272976*
X242700Y273350*
X244200*
X244950Y272976*
X245325Y272600*
X245700Y271850*
Y269600*
X244950Y300850D02*
X245325Y300476D01*
X245700Y299726*
Y298600*
X245325Y297850*
X244950Y297476*
X244200Y297100*
X242700*
X241950Y297476*
X241575Y297850*
X241200Y298600*
Y299726*
X241575Y300476*
X241950Y300850*
X243450Y329726D02*
X243825Y330476D01*
X244575Y330850*
X245325Y330476*
X245700Y329726*
Y327100*
X241200*
Y329726*
X241575Y330476*
X242325Y330850*
X243075Y330476*
X243450Y329726*
Y327100*
X245700Y357100D02*
X241200Y358976D01*
X245700Y360850*
X243825Y357850D02*
Y360100D01*
X264325Y142100D02*
Y144600D01*
Y149600D02*
Y152100D01*
Y172100D02*
Y174600D01*
Y179600D02*
Y182100D01*
Y202100D02*
Y204600D01*
Y209600D02*
Y212100D01*
Y232100D02*
Y234600D01*
Y239600D02*
Y242100D01*
Y262100D02*
Y264600D01*
Y269600D02*
Y272100D01*
Y292100D02*
Y294600D01*
Y299600D02*
Y302100D01*
Y322100D02*
Y324600D01*
Y329600D02*
Y332100D01*
Y352100D02*
Y354600D01*
Y359600D02*
Y362100D01*
X265700Y98226D02*
X265325Y98976D01*
X264575Y99726*
X263450Y100100*
X262325*
X261575Y99726*
X261200Y98976*
Y98226*
X261575Y97476*
X262325Y97100*
X263075Y97476*
X263450Y98226*
Y98976*
X263075Y99726*
X262325Y100100*
X264200Y103100D02*
Y106100D01*
X265700Y109850D02*
Y111350D01*
Y110600D02*
X261200D01*
X261950Y109850*
X265325Y115100D02*
X265700Y115850D01*
Y116976*
X265325Y117726*
X264575Y118100*
X264200*
X263450Y117726*
X263075Y116976*
Y115100*
X261200*
Y118100*
X304325Y142100D02*
Y152100D01*
Y147100D02*
X269325D01*
X261825Y144600*
X304325Y172100D02*
Y182100D01*
Y177100D02*
X269325D01*
X261825Y174600*
X304325Y202100D02*
Y212100D01*
Y207100D02*
X269325D01*
X261825Y204600*
X304325Y232100D02*
Y242100D01*
Y237100D02*
X269325D01*
X261825Y234600*
X304325Y262100D02*
Y272100D01*
Y267100D02*
X269325D01*
X261825Y264600*
X304325Y292100D02*
Y302100D01*
Y297100D02*
X269325D01*
X261825Y294600*
X304325Y322100D02*
Y332100D01*
Y327100D02*
X269325D01*
X261825Y324600*
X304325Y352100D02*
Y362100D01*
Y357100D02*
X269325D01*
X261825Y354600*
X309325Y132100D02*
Y162100D01*
X259325*
Y132100*
X309325*
Y162100D02*
Y192100D01*
X259325*
Y162100*
X309325*
Y192100D02*
Y222100D01*
X259325*
Y192100*
X309325*
Y222100D02*
Y252100D01*
X259325*
Y222100*
X309325*
Y252100D02*
Y282100D01*
X259325*
Y252100*
X309325*
Y282100D02*
Y312100D01*
X259325*
Y282100*
X309325*
Y312100D02*
Y342100D01*
X259325*
Y312100*
X309325*
Y342100D02*
Y372100D01*
X259325*
Y342100*
X309325*
X340329Y61224D02*
Y65161D01*
X342297Y63193D02*
X338360D01*
X344266Y43508D02*
Y35634D01*
X401352*
Y71067*
X369856*
X348203D02*
X344266D01*
Y65161*
D02*
D75*
X40171Y129896D02*
X48439D01*
Y104305*
X40171*
X41506Y137392D02*
X39144D01*
Y148809*
X41506*
Y137392*
X47608Y137195D02*
X42884D01*
X64148Y264669D02*
Y270673D01*
X64758Y272051D02*
Y284650D01*
X84049*
Y272051*
X64758*
X68498Y310703D02*
Y314837D01*
X68695Y316215D02*
Y317986D01*
X80112*
Y316215*
X68695*
X78045Y165132D02*
Y170939D01*
X79030Y172317D02*
Y186884D01*
X104620*
Y172317*
X79030*
X121982Y73291D02*
Y65614D01*
X122061Y64236D02*
Y37465D01*
X76589*
Y64236*
X122061*
X153419Y185683D02*
Y191195D01*
Y192573D02*
Y201628D01*
X165230*
Y192573*
X153419*
Y248183D02*
Y253695D01*
Y255073D02*
Y264128D01*
X165230*
Y255073*
X153419*
Y310683D02*
Y316195D01*
Y317573D02*
Y326628D01*
X165230*
Y317573*
X153419*
X169384Y182632D02*
Y188439D01*
Y245132D02*
Y250939D01*
Y307632D02*
Y313439D01*
X169482Y189817D02*
Y204384D01*
X189167*
Y189817*
X169482*
Y252317D02*
Y266884D01*
X189167*
Y252317*
X169482*
Y314817D02*
Y329384D01*
X189167*
Y314817*
X169482*
X269384Y127258D02*
X277061D01*
X278439Y127337D02*
X305211D01*
Y81864*
X278439*
Y127337*
D02*
D76*
X56608Y104108D02*
G75*
G02X57593I492D01*
G01*
X56608D02*
G75*
G02X57593I492D01*
G01*
G75*
G02X56608I-492*
G01*
X0Y0D02*
M02*
