G04 EasyPC Gerber Version 21.0.3 Build 4286 *
%FSLAX35Y35*%
%MOIN*%
%ADD81R,0.01181X0.05512*%
%ADD19R,0.01772X0.05807*%
%ADD23R,0.02362X0.04134*%
%ADD82R,0.02559X0.07677*%
%ADD83R,0.02756X0.03543*%
%ADD20R,0.02756X0.06004*%
%ADD18R,0.03937X0.04291*%
%ADD84R,0.05500X0.06000*%
%ADD10C,0.00004*%
%ADD11C,0.01000*%
%ADD25C,0.01500*%
%ADD26C,0.02500*%
%ADD24C,0.03200*%
%ADD27C,0.05000*%
%ADD70C,0.06000*%
%ADD80C,0.06400*%
%ADD85C,0.07300*%
%ADD79C,0.08000*%
%ADD29C,0.10000*%
%ADD86C,0.11500*%
%ADD14C,0.15748*%
%ADD21C,0.17500*%
%ADD13C,0.17717*%
%ADD12C,0.23622*%
%ADD78R,0.05512X0.01575*%
%ADD71R,0.04724X0.02362*%
%ADD77R,0.07677X0.02559*%
%ADD17R,0.04291X0.03937*%
%ADD15R,0.08268X0.03937*%
%ADD22R,0.06000X0.05500*%
%ADD16R,0.23031X0.19291*%
X0Y0D02*
D02*
D10*
X14325Y335600D02*
Y179100D01*
X21325*
X24325Y182100*
X19325*
X18325Y183100*
Y333600*
X51325Y366600*
X66989*
G75*
G02X69325Y373402I2335J3000*
G01*
G75*
G02X71660Y366600J-3802*
G01*
X73325*
X74325Y367600*
Y386100*
X73325Y387100*
X65325*
X64325Y386100*
Y374600*
X60325Y370600*
X49325*
X14325Y335600*
X65523Y379600D02*
G75*
G02X73127I3802D01*
G01*
G75*
G02X65523I-3802*
G01*
X74323Y367598D02*
G36*
Y379600D01*
X73127*
G75*
G02X65523I-3802*
G01*
X64325*
Y374600*
X60325Y370600*
X49325*
X14327Y335602*
Y179102*
X21327*
X24325Y182100*
X19325*
X18325Y183100*
Y333600*
X51325Y366600*
X66989*
G75*
G02X65523Y369600I2335J3000*
G01*
G75*
G02X69325Y373402I3802*
G01*
G75*
G02X73127Y369600J-3802*
G01*
G75*
G02X71660Y366600I-3802*
G01*
X73325*
X74323Y367598*
G37*
Y386102D02*
G36*
X73327Y387098D01*
X65323*
X64325Y386100*
Y379600*
X65523*
G75*
G02X73127I3802*
G01*
X74323*
Y386102*
G37*
X39825Y142100D02*
X38825Y143100D01*
X30596*
Y137652*
X25053*
Y143100*
X15325*
X14325Y142100*
Y133850*
X14825Y133350*
X38575*
X39825Y134600*
Y142100*
X32238Y141344D02*
X38569D01*
Y137376*
X32238*
Y141344*
X39823Y134598D02*
G36*
Y139360D01*
X38569*
Y137376*
X32238*
Y139360*
X30596*
Y137652*
X25053*
Y139360*
X14327*
Y133848*
X14823Y133352*
X38577*
X39823Y134598*
G37*
X25053Y143098D02*
G36*
X15323D01*
X14327Y142102*
Y139360*
X25053*
Y143098*
G37*
X30596D02*
G36*
Y139360D01*
X32238*
Y141344*
X38569*
Y139360*
X39823*
Y142102*
X38827Y143098*
X30596*
G37*
X60521Y36100D02*
X59825D01*
G75*
G02X55079Y37177I0J11000*
G01*
G75*
G02X49797Y21167I-5281J-7133*
G01*
G75*
G02Y38919J8876*
G01*
G75*
G02X53462Y38128J-8876*
G01*
G75*
G02X49097Y44669I6363J8973*
G01*
G75*
G02X48521Y48350I11478J3681*
G01*
Y48350*
Y48350*
Y63350*
G75*
G02X48757Y63920I804J0*
G01*
X48825Y63987*
Y66100*
X19825*
Y36100*
X41825Y14100*
X58825*
X60825Y16100*
Y26963*
X60757Y27031*
G75*
G02X60591Y27272I567J570*
G01*
G75*
G02X60521Y27600I734J328*
G01*
Y36100*
X53923Y17100D02*
G75*
G02X58727I2402D01*
G01*
G75*
G02X53923I-2402*
G01*
X40923D02*
G75*
G02X45727I2402D01*
G01*
G75*
G02X40923I-2402*
G01*
X25423Y58600D02*
G75*
G02X30227I2402D01*
G01*
G75*
G02X25423I-2402*
G01*
X28126Y48350D02*
G75*
G02X45878I8876D01*
G01*
G75*
G02X28126I-8876*
G01*
X33923Y34600D02*
G75*
G02X38727I2402D01*
G01*
G75*
G02X33923I-2402*
G01*
X43423Y58600D02*
G75*
G02X48227I2402D01*
G01*
G75*
G02X43423I-2402*
G01*
X60823Y16098D02*
G36*
Y17100D01*
X58727*
G75*
G02X53923I-2402*
G01*
X45727*
G75*
G02X40923I-2402*
G01*
X38825*
X41823Y14102*
X58827*
X60823Y16098*
G37*
X60521Y34600D02*
G36*
X57414D01*
G75*
G02X58673Y30043I-7617J-4557*
G01*
G75*
G02X49797Y21167I-8876*
G01*
G75*
G02X40921Y30043J8876*
G01*
G75*
G02X42180Y34600I8876*
G01*
X38727*
G75*
G02X33923I-2402*
G01*
X21325*
X38825Y17100*
X40923*
G75*
G02X45727I2402*
G01*
X53923*
G75*
G02X58727I2402*
G01*
X60823*
Y26965*
X60757Y27031*
G75*
G02X60591Y27272I565J569*
G01*
G75*
G02X60521Y27600I736J329*
G01*
Y34600*
G37*
X48521Y48350D02*
G36*
X45878D01*
G75*
G02X28126I-8876*
G01*
X19827*
Y36098*
X21325Y34600*
X33923*
G75*
G02X38727I2402*
G01*
X42180*
G75*
G02X49797Y38919I7617J-4557*
G01*
G75*
G02X53462Y38128I2J-8870*
G01*
G75*
G02X49097Y44669I6361J8972*
G01*
G75*
G02X48521Y48350I11476J3681*
G01*
Y48350*
Y48350*
G37*
X60521Y34600D02*
G36*
Y36100D01*
X59825*
G75*
G02X55079Y37177I0J10999*
G01*
G75*
G02X57414Y34600I-5281J-7133*
G01*
X60521*
G37*
X48521Y58600D02*
G36*
X48227D01*
G75*
G02X43423I-2402*
G01*
X30227*
G75*
G02X25423I-2402*
G01*
X19827*
Y48350*
X28126*
G75*
G02X45878I8876*
G01*
X48521*
Y58600*
G37*
X48825Y66098D02*
G36*
X19827D01*
Y58600*
X25423*
G75*
G02X30227I2402*
G01*
X43423*
G75*
G02X48227I2402*
G01*
X48521*
Y63350*
Y63351*
G75*
G02X48757Y63920I802*
G01*
X48825Y63987*
Y66098*
G37*
X61325Y38716D02*
Y27600D01*
X65825Y23100*
X68553*
Y23549*
X74096*
Y23100*
X81325*
X82325Y24100*
Y27608*
X82242*
Y36888*
X82325*
Y42100*
X81825Y42600*
X79825*
X75325Y47100*
X70203*
G75*
G02X61325Y38716I-9579J1250*
G01*
X77242Y36888D02*
X81407D01*
Y27608*
X77242*
Y36888*
X68553Y30549D02*
X74096D01*
Y24652*
X68553*
Y30549*
X82323Y24098D02*
G36*
Y27600D01*
X74096*
Y24652*
X68553*
Y27600*
X61327*
Y27598*
X65823Y23102*
X68553*
Y23549*
X74096*
Y23102*
X81327*
X82323Y24098*
G37*
X82242Y32248D02*
G36*
X81407D01*
Y27608*
X77242*
Y32248*
X61327*
Y27600*
X68553*
Y30549*
X74096*
Y27600*
X82323*
Y27608*
X82242*
Y32248*
G37*
X82323Y42102D02*
G36*
X81825Y42600D01*
X79825*
X75327Y47098*
X70203*
G75*
G02X61327Y38716I-9579J1252*
G01*
Y32248*
X77242*
Y36888*
X81407*
Y32248*
X82242*
Y36888*
X82323*
Y42102*
G37*
X71825Y60850D02*
X64325Y68350D01*
Y93850*
X62325Y95850*
X59325*
X57825Y97350*
Y98600*
X62325Y103100*
Y112100*
X60825Y113600*
X48325*
X46825Y111850*
Y102600*
X48325Y100850*
X50825*
Y99872*
X54774*
Y94329*
X50825*
Y93600*
X54325Y90100*
Y68350*
X49325Y63350*
Y48350*
G75*
G03X60575Y37100I11250*
G01*
X61825*
G75*
G03X71825Y47100J10000*
G01*
Y60850*
X49014Y110896D02*
X58888D01*
Y105352*
X49014*
Y110896*
X50764Y48350D02*
G75*
G02X70484I9860D01*
G01*
G75*
G02X50764I-9860*
G01*
X71823Y46902D02*
G36*
Y48350D01*
X70484*
G75*
G02X50764I-9860*
G01*
X49325*
Y48350*
G75*
G03X60364Y37102I11250*
G01*
X62023*
G75*
G03X71823Y46902I-198J9998*
G01*
G37*
X62325Y108124D02*
G36*
X58888D01*
Y105352*
X49014*
Y108124*
X46827*
Y102598*
X48325Y100850*
X50825*
Y99872*
X54774*
Y94329*
X50825*
Y93600*
X54325Y90100*
Y68350*
X49325Y63350*
Y48350*
X50764*
G75*
G02X70484I9860*
G01*
X71823*
Y60852*
X64325Y68350*
Y93850*
X62325Y95850*
X59325*
X57825Y97350*
Y98600*
X62325Y103100*
Y108124*
G37*
X60827Y113598D02*
G36*
X48323D01*
X46827Y111853*
Y108124*
X49014*
Y110896*
X58888*
Y108124*
X62325*
Y112100*
X60827Y113598*
G37*
X84825Y128100D02*
X84325Y128600D01*
X83596*
Y125152*
X78053*
Y128600*
X76596*
Y125152*
X71053*
Y128600*
X69825*
X69325Y129100*
Y140100*
X68825Y140600*
X56596*
Y135152*
X51053*
Y140600*
X48411*
Y137376*
X42081*
Y148100*
X41325*
X40825Y147600*
Y134600*
X42075Y133350*
X56325*
X56825Y132850*
Y132600*
X56325Y132100*
X46325*
X45825Y131600*
Y121600*
X46325Y121100*
X83825*
X84825Y122100*
Y128100*
X61553Y128049D02*
X67096D01*
Y122152*
X61553*
Y128049*
X49014Y128848D02*
X58888D01*
Y123305*
X49014*
Y128848*
X84823Y122098D02*
G36*
Y125100D01*
X67096*
Y122152*
X61553*
Y125100*
X58888*
Y123305*
X49014*
Y125100*
X45825*
Y121600*
X46323Y121102*
X83827*
X84823Y122098*
G37*
X42081Y148098D02*
G36*
X41323D01*
X40827Y147602*
Y134598*
X42075Y133350*
X56325*
X56825Y132850*
Y132600*
X56325Y132100*
X46325*
X45825Y131600*
Y125100*
X49014*
Y128848*
X58888*
Y125100*
X61553*
Y128049*
X67096*
Y125100*
X84823*
Y128102*
X84325Y128600*
X83596*
Y125152*
X78053*
Y128600*
X76596*
Y125152*
X71053*
Y128600*
X69825*
X69325Y129100*
Y140100*
X68825Y140600*
X56596*
Y135152*
X51053*
Y140600*
X48411*
Y137376*
X42081*
Y148098*
G37*
X91325Y187463D02*
X89825D01*
Y183600*
X88325Y182100*
X17325*
X14325Y179100*
Y141100*
X18325*
Y177100*
X19325Y178100*
X86656*
G75*
G02X89825Y174555I1330J-2000*
G01*
Y171738*
X91963*
X92825Y172600*
Y183600*
X91325Y185100*
Y187463*
G36*
X89825*
Y183600*
X88325Y182100*
X17325*
X14325Y179100*
Y141100*
X18325*
Y177100*
X19325Y178100*
X86656*
G75*
G02X89825Y174555I1330J-2000*
G01*
Y171738*
X91963*
X92825Y172600*
Y183600*
X91325Y185100*
Y187463*
G37*
X128825Y356600D02*
X128325Y357100D01*
X75825*
X74325Y358600*
Y368100*
X72819*
G75*
G02X65831I-3494J1500*
G01*
X60325*
Y366600*
X64325Y362600*
Y355600*
X66825Y353100*
X128325*
X128825Y353600*
Y356600*
G36*
X128325Y357100*
X75825*
X74325Y358600*
Y368100*
X72819*
G75*
G02X65831I-3494J1500*
G01*
X60325*
Y366600*
X64325Y362600*
Y355600*
X66825Y353100*
X128325*
X128825Y353600*
Y356600*
G37*
X148629Y244267D02*
Y235714D01*
X156054Y243140*
Y244693*
X155894Y244533*
G75*
G02X155325Y244296I-570J567*
G01*
X148658*
X148629Y244267*
G36*
Y235714*
X156054Y243140*
Y244693*
X155894Y244533*
G75*
G02X155325Y244296I-570J567*
G01*
X148658*
X148629Y244267*
G37*
Y310767D02*
Y300714D01*
X154211Y306296*
X153325*
G75*
G02X152756Y306533I0J804*
G01*
X152257Y307031*
G75*
G02X152021Y307600I567J570*
G01*
Y310767*
X151492Y311296*
X149158*
X148629Y310767*
G36*
Y300714*
X154211Y306296*
X153325*
G75*
G02X152756Y306533I0J804*
G01*
X152257Y307031*
G75*
G02X152021Y307600I567J570*
G01*
Y310767*
X151492Y311296*
X149158*
X148629Y310767*
G37*
X149129Y181767D02*
Y137433D01*
X149658Y136904*
X151053*
Y142549*
X156596*
Y136904*
X159325*
G75*
G02X159894Y136668I0J-804*
G01*
X160392Y136170*
G75*
G02X160423Y136137I-564J-575*
G01*
G75*
G02X163780Y138304I2402J-37*
G01*
X152406Y149678*
G75*
G02X152023Y150600I920J922*
G01*
Y179569*
G75*
G02X152406Y180491I1302*
G01*
X153711Y181796*
X149158*
X149129Y181767*
G36*
Y137433*
X149658Y136904*
X151053*
Y142549*
X156596*
Y136904*
X159325*
G75*
G02X159894Y136668I0J-804*
G01*
X160392Y136170*
G75*
G02X160423Y136137I-564J-575*
G01*
G75*
G02X163780Y138304I2402J-37*
G01*
X152406Y149678*
G75*
G02X152023Y150600I920J922*
G01*
Y179569*
G75*
G02X152406Y180491I1302*
G01*
X153711Y181796*
X149158*
X149129Y181767*
G37*
X149991Y191600D02*
X144325D01*
X143325Y190600*
Y190372*
X148774*
Y184829*
X143325*
Y125600*
X144007Y124918*
X150470*
Y127766*
X157589*
Y124918*
X159143*
X159825Y125600*
Y135600*
X159325Y136100*
X149325*
X148325Y137100*
Y182100*
X148825Y182600*
X154515*
X156054Y184140*
Y184880*
X153994*
Y191298*
X150825*
G75*
G02X149991Y191600J1302*
G01*
X151053Y135549D02*
X156596D01*
Y129652*
X151053*
Y135549*
X159823Y125598D02*
G36*
Y132600D01*
X156596*
Y129652*
X151053*
Y132600*
X143327*
Y125598*
X144005Y124920*
X150470*
Y127766*
X157589*
Y124920*
X159144*
X159823Y125598*
G37*
Y135602D02*
G36*
X159325Y136100D01*
X149325*
X148325Y137100*
Y182100*
X148825Y182600*
X154515*
X156054Y184140*
Y184880*
X153994*
Y191298*
X150825*
G75*
G02X149993Y191598I1J1305*
G01*
X144323*
X143327Y190602*
Y190372*
X148774*
Y184829*
X143327*
Y132600*
X151053*
Y135549*
X156596*
Y132600*
X159823*
Y135602*
G37*
X152825Y311100D02*
Y307600D01*
X153325Y307100*
X154325*
X156054Y308830*
Y309880*
X153994*
Y316998*
X156325*
Y317600*
X150325Y323600*
X144325*
X143325Y322600*
Y236600*
X143825Y236100*
X147325*
X147825Y236600*
Y247329*
X143376*
Y252872*
X147825*
Y311100*
X148825Y312100*
X151825*
X152825Y311100*
X143376Y322372D02*
X149274D01*
Y316829*
X143376*
Y322372*
X149274Y319600D02*
G36*
Y316829D01*
X143376*
Y319600*
X143327*
Y236598*
X143823Y236102*
X147327*
X147825Y236600*
Y247329*
X143376*
Y252872*
X147825*
Y311100*
X148825Y312100*
X151825*
X152825Y311100*
Y307600*
X153325Y307100*
X154325*
X156054Y308830*
Y309880*
X153994*
Y316998*
X156323*
Y317602*
X154325Y319600*
X149274*
G37*
X154325D02*
G36*
X150327Y323598D01*
X144323*
X143327Y322602*
Y319600*
X143376*
Y322372*
X149274*
Y319600*
X154325*
G37*
X156054Y245830D02*
Y247380D01*
X153994*
Y254100*
X144325*
X143325Y253100*
Y190372*
X147825*
Y244600*
X148325Y245100*
X155325*
X156054Y245830*
X143376Y252872D02*
X149274D01*
Y247329*
X143376*
Y252872*
X153994Y250100D02*
G36*
X149274D01*
Y247329*
X143376*
Y250100*
X143327*
Y190374*
X147825*
Y244600*
X148325Y245100*
X155325*
X156052Y245828*
Y247380*
X153994*
Y250100*
G37*
Y254098D02*
G36*
X144323D01*
X143327Y253102*
Y250100*
X143376*
Y252872*
X149274*
Y250100*
X153994*
Y254098*
G37*
X177685Y203619D02*
X173968Y199902D01*
X179785*
X180582Y200699*
Y204963*
X178068*
Y204541*
G75*
G02X177685Y203619I-1302*
G01*
G36*
X173968Y199902*
X179785*
X180582Y200699*
Y204963*
X178068*
Y204541*
G75*
G02X177685Y203619I-1302*
G01*
G37*
Y266119D02*
X174968Y263402D01*
X179785*
X180582Y264199*
Y267463*
X178068*
Y267041*
G75*
G02X177685Y266119I-1302*
G01*
G36*
X174968Y263402*
X179785*
X180582Y264199*
Y267463*
X178068*
Y267041*
G75*
G02X177685Y266119I-1302*
G01*
G37*
X177855Y328567D02*
X174348Y325060D01*
X179220*
X180365Y326205*
Y329963*
X178284*
Y329600*
G75*
G02X177855Y328567I-1459*
G01*
G36*
X174348Y325060*
X179220*
X180365Y326205*
Y329963*
X178284*
Y329600*
G75*
G02X177855Y328567I-1459*
G01*
G37*
X299627Y166107D02*
Y158094D01*
G75*
G02X308869Y158652I4698J-994*
G01*
X320854*
G75*
G02X324890Y160860I3471J-1552*
G01*
X339773Y175743*
Y201542*
G75*
G02X339422Y201003I-1448J559*
G01*
X327543Y189124*
G75*
G02X324325Y183298I-3219J-2024*
G01*
G75*
G02X320854Y185548J3802*
G01*
X308869*
G75*
G02X299627Y186107I-4544J1552*
G01*
Y168094*
G75*
G02X309127Y167100I4698J-994*
G01*
G75*
G02X299627Y166107I-4802*
G01*
G36*
Y158094*
G75*
G02X308869Y158652I4698J-994*
G01*
X320854*
G75*
G02X324890Y160860I3471J-1552*
G01*
X339773Y175743*
Y201542*
G75*
G02X339422Y201003I-1448J559*
G01*
X327543Y189124*
G75*
G02X324325Y183298I-3219J-2024*
G01*
G75*
G02X320854Y185548J3802*
G01*
X308869*
G75*
G02X299627Y186107I-4544J1552*
G01*
Y168094*
G75*
G02X309127Y167100I4698J-994*
G01*
G75*
G02X299627Y166107I-4802*
G01*
G37*
Y196107D02*
Y188094D01*
G75*
G02X308869Y188652I4698J-994*
G01*
X320854*
G75*
G02X324890Y190860I3471J-1552*
G01*
X336773Y202743*
Y228542*
G75*
G02X336420Y228001I-1449J558*
G01*
X327543Y219124*
G75*
G02X324325Y213298I-3219J-2024*
G01*
G75*
G02X320854Y215548J3802*
G01*
X308869*
G75*
G02X299627Y216107I-4544J1552*
G01*
Y198094*
G75*
G02X309127Y197100I4698J-994*
G01*
G75*
G02X299627Y196107I-4802*
G01*
G36*
Y188094*
G75*
G02X308869Y188652I4698J-994*
G01*
X320854*
G75*
G02X324890Y190860I3471J-1552*
G01*
X336773Y202743*
Y228542*
G75*
G02X336420Y228001I-1449J558*
G01*
X327543Y219124*
G75*
G02X324325Y213298I-3219J-2024*
G01*
G75*
G02X320854Y215548J3802*
G01*
X308869*
G75*
G02X299627Y216107I-4544J1552*
G01*
Y198094*
G75*
G02X309127Y197100I4698J-994*
G01*
G75*
G02X299627Y196107I-4802*
G01*
G37*
Y226107D02*
Y218094D01*
G75*
G02X308869Y218652I4698J-994*
G01*
X320854*
G75*
G02X324890Y220860I3471J-1552*
G01*
X333773Y229743*
Y255292*
G75*
G02X333470Y254803I-1448J559*
G01*
X327812Y248615*
G75*
G02X320854Y245548I-3487J-1514*
G01*
X308869*
G75*
G02X299627Y246107I-4544J1552*
G01*
Y228094*
G75*
G02X309127Y227100I4698J-994*
G01*
G75*
G02X299627Y226107I-4802*
G01*
G36*
Y218094*
G75*
G02X308869Y218652I4698J-994*
G01*
X320854*
G75*
G02X324890Y220860I3471J-1552*
G01*
X333773Y229743*
Y255292*
G75*
G02X333470Y254803I-1448J559*
G01*
X327812Y248615*
G75*
G02X320854Y245548I-3487J-1514*
G01*
X308869*
G75*
G02X299627Y246107I-4544J1552*
G01*
Y228094*
G75*
G02X309127Y227100I4698J-994*
G01*
G75*
G02X299627Y226107I-4802*
G01*
G37*
Y256107D02*
Y248094D01*
G75*
G02X308869Y248652I4698J-994*
G01*
X320854*
G75*
G02X325521Y250709I3470J-1552*
G01*
X330773Y256453*
Y281542*
G75*
G02X330422Y281003I-1448J559*
G01*
X327876Y278457*
G75*
G02X320854Y275548I-3552J-1357*
G01*
X308869*
G75*
G02X299627Y276107I-4544J1552*
G01*
Y258094*
G75*
G02X309127Y257100I4698J-994*
G01*
G75*
G02X299627Y256107I-4802*
G01*
G36*
Y248094*
G75*
G02X308869Y248652I4698J-994*
G01*
X320854*
G75*
G02X325521Y250709I3470J-1552*
G01*
X330773Y256453*
Y281542*
G75*
G02X330422Y281003I-1448J559*
G01*
X327876Y278457*
G75*
G02X320854Y275548I-3552J-1357*
G01*
X308869*
G75*
G02X299627Y276107I-4544J1552*
G01*
Y258094*
G75*
G02X309127Y257100I4698J-994*
G01*
G75*
G02X299627Y256107I-4802*
G01*
G37*
X325825Y106600D02*
X317825D01*
Y97100*
X315325Y94600*
Y89100*
X315069Y88844*
Y87518*
X305785*
Y88100*
X301325*
X300825Y87600*
Y80600*
X316825*
X325825Y89600*
Y106600*
X319053Y106549D02*
X324596D01*
Y100652*
X319053*
Y106549*
X305785Y86683D02*
X315069D01*
Y82518*
X305785*
Y86683*
X320825Y84600D02*
G36*
X315069D01*
Y82518*
X305785*
Y84600*
X300827*
Y80602*
X316827*
X320825Y84600*
G37*
X325823Y89598D02*
G36*
Y103600D01*
X324596*
Y100652*
X319053*
Y103600*
X317825*
Y97100*
X315325Y94600*
Y89100*
X315069Y88844*
Y87518*
X305785*
Y88100*
X301325*
X300827Y87602*
Y84600*
X305785*
Y86683*
X315069*
Y84600*
X320825*
X325823Y89598*
G37*
X317825Y106598D02*
G36*
Y103600D01*
X319053*
Y106549*
X324596*
Y103600*
X325823*
Y106598*
X317825*
G37*
X359825Y55600D02*
Y42344D01*
X364508*
G75*
G02X367142I1317J-2244*
G01*
X376149*
X381523Y47718*
Y68372*
X367794Y82100*
X348325*
X345825Y79600*
Y69600*
X359825Y55600*
X350154Y71657D02*
G75*
G02X367906I8876D01*
G01*
G75*
G02X350154I-8876*
G01*
X362949Y53350D02*
G75*
G02X380701I8876D01*
G01*
G75*
G02X362949I-8876*
G01*
X381521Y47716D02*
G36*
Y53350D01*
X380701*
G75*
G02X362949I-8876*
G01*
X359825*
Y42346*
X364511*
G75*
G02X367138I1313J-2246*
G01*
X376151*
X381521Y47716*
G37*
Y68374D02*
G36*
X378237Y71657D01*
X367906*
G75*
G02X350154I-8876*
G01*
X345827*
Y69598*
X359825Y55600*
Y53350*
X362949*
G75*
G02X380701I8876*
G01*
X381521*
Y68374*
G37*
X378237Y71657D02*
G36*
X367796Y82098D01*
X348323*
X345827Y79602*
Y71657*
X350154*
G75*
G02X367906I8876*
G01*
X378237*
G37*
X399723Y377503D02*
G75*
G02X374783Y380171I-12328J2668D01*
G01*
G75*
G02X384728Y392499I12613*
G01*
X23922*
G75*
G02X33867Y380171I-2668J-12328*
G01*
G75*
G02X8926Y377503I-12613*
G01*
Y16698*
G75*
G02X33867Y14030I12328J-2668*
G01*
G75*
G02X23922Y1702I-12613*
G01*
X384728*
G75*
G02X374783Y14030I2668J12328*
G01*
G75*
G02X399723Y16698I12613*
G01*
Y377503*
X380281Y185289D02*
G75*
G02X396085I7902D01*
G01*
G75*
G02X380281I-7902*
G01*
X380523Y122100D02*
G75*
G02X388127I3802D01*
G01*
G75*
G02X380523I-3802*
G01*
Y147100D02*
G75*
G02X388127I3802D01*
G01*
G75*
G02X380523I-3802*
G01*
X380281Y344344D02*
G75*
G02X396085I7902D01*
G01*
G75*
G02X380281I-7902*
G01*
X75523Y369600D02*
G75*
G02X83127I3802D01*
G01*
G75*
G02X75523I-3802*
G01*
Y379600D02*
G75*
G02X83127I3802D01*
G01*
G75*
G02X75523I-3802*
G01*
X85523Y369600D02*
G75*
G02X93127I3802D01*
G01*
G75*
G02X85523I-3802*
G01*
Y379600D02*
G75*
G02X93127I3802D01*
G01*
G75*
G02X85523I-3802*
G01*
X95523Y369600D02*
G75*
G02X103127I3802D01*
G01*
G75*
G02X95523I-3802*
G01*
Y379600D02*
G75*
G02X103127I3802D01*
G01*
G75*
G02X95523I-3802*
G01*
X105523Y369600D02*
G75*
G02X113127I3802D01*
G01*
G75*
G02X105523I-3802*
G01*
Y379600D02*
G75*
G02X113127I3802D01*
G01*
G75*
G02X105523I-3802*
G01*
X115523Y369600D02*
G75*
G02X123127I3802D01*
G01*
G75*
G02X115523I-3802*
G01*
Y379600D02*
G75*
G02X123127I3802D01*
G01*
G75*
G02X115523I-3802*
G01*
X125523Y369600D02*
G75*
G02X133127I3802D01*
G01*
G75*
G02X125523I-3802*
G01*
X268581Y126683D02*
X277864D01*
Y122518*
X268581*
Y123298*
X267276*
X258997Y115020*
G75*
G02X258414Y114682I-922J920*
G01*
X258785*
X264623Y120520*
G75*
G02X265545Y120902I922J-920*
G01*
X268581*
Y121683*
X277864*
Y117518*
X268581*
Y118298*
X266085*
X260247Y112461*
G75*
G02X259664Y112123I-922J920*
G01*
X260035*
X263432Y115520*
G75*
G02X264354Y115902I922J-920*
G01*
X268581*
Y116683*
X277864*
Y112518*
X268581*
Y113298*
X264894*
X261497Y109902*
G75*
G02X260914Y109564I-922J920*
G01*
X264285*
X265241Y110520*
G75*
G02X266163Y110902I922J-920*
G01*
X268581*
Y111683*
X277864*
Y107518*
X268581*
Y108298*
X266703*
X265747Y107343*
G75*
G02X264825Y106960I-922J920*
G01*
X262914*
G75*
G02X263497Y106622I-339J-1257*
G01*
X264217Y105902*
X268581*
Y106683*
X277864*
Y102518*
X268581*
Y103298*
X263677*
G75*
G02X262755Y103681J1302*
G01*
X262035Y104401*
X261664*
G75*
G02X262247Y104063I-339J-1257*
G01*
X265407Y100902*
X268581*
Y101683*
X277864*
Y97518*
X268581*
Y98298*
X264868*
G75*
G02X263946Y98681J1302*
G01*
X260785Y101842*
X260414*
G75*
G02X260997Y101504I-339J-1257*
G01*
X266598Y95902*
X268581*
Y96683*
X277864*
Y92518*
X268581*
Y93298*
X266059*
G75*
G02X265137Y93681J1302*
G01*
X259535Y99283*
X259164*
G75*
G02X259747Y98945I-339J-1257*
G01*
X267789Y90902*
X268581*
Y91683*
X277864*
Y87518*
X268581*
Y88298*
X267250*
G75*
G02X266328Y88681J1302*
G01*
X258285Y96724*
X157589*
Y96435*
X150470*
Y119755*
X140868*
G75*
G02X139946Y120138J1302*
G01*
X133179Y126905*
Y96435*
X126061*
Y99283*
X125848*
X120627Y94061*
Y74093*
X121407*
Y64813*
X117242*
Y74093*
X118023*
Y94000*
X115627Y91604*
Y74093*
X116407*
Y64813*
X112242*
Y74093*
X113023*
Y91559*
X110627Y89163*
Y74093*
X111407*
Y64813*
X107242*
Y74093*
X108023*
Y89119*
X105627Y86722*
Y74093*
X106407*
Y64813*
X102242*
Y74093*
X103023*
Y87262*
G75*
G02X103406Y88184I1302*
G01*
X124403Y109181*
G75*
G02X125325Y109564I922J-920*
G01*
X126061*
Y127766*
X132318*
X126285Y133798*
X83596*
Y132152*
X78053*
Y138049*
X79273*
Y152350*
G75*
G02X79730Y153450I1552*
G01*
X81328Y155048*
X77468*
X75377Y152957*
Y143433*
G75*
G02Y139767I-1552J-1833*
G01*
Y138049*
X76596*
Y132152*
X71053*
Y138049*
X72273*
Y139767*
G75*
G02Y143433I1552J1833*
G01*
Y153600*
G75*
G02X72730Y154700I1552*
G01*
X75725Y157696*
G75*
G02X76825Y158152I1100J-1096*
G01*
X80725*
X81316Y158743*
Y161397*
X79924Y160005*
G75*
G02X78825Y159548I-1100J1096*
G01*
X73258*
G75*
G02X72158Y160005J1552*
G01*
X70730Y161434*
G75*
G02X70273Y162533I1096J1100*
G01*
Y163652*
X69053*
Y169549*
X74596*
Y163652*
X73377*
Y163176*
X73901Y162652*
X78182*
X78757Y163228*
Y164329*
X78620*
Y171738*
X86434*
Y174267*
G75*
G02X85903Y177296I1552J1833*
G01*
X19658*
X19129Y176767*
Y143904*
X25053*
G75*
G02X25720Y143549J-804*
G01*
X29930*
G75*
G02X30596Y143904I667J-449*
G01*
X38825*
G75*
G02X39394Y143668I0J-804*
G01*
X40021Y143041*
Y147600*
G75*
G02X40257Y148170I804J0*
G01*
X40756Y148668*
G75*
G02X41325Y148904I570J-567*
G01*
X42081*
G75*
G02X42430Y148825J-804*
G01*
X48411*
Y141404*
X51053*
G75*
G02X51720Y141049J-804*
G01*
X55930*
G75*
G02X56596Y141404I667J-449*
G01*
X68825*
G75*
G02X69394Y141168I0J-804*
G01*
X69892Y140670*
G75*
G02X70129Y140100I-567J-570*
G01*
Y129433*
X70158Y129404*
X71053*
Y131049*
X76596*
Y129404*
X78053*
Y131049*
X83596*
Y129404*
X84325*
G75*
G02X84894Y129168I0J-804*
G01*
X85392Y128670*
G75*
G02X85629Y128100I-567J-570*
G01*
Y122100*
G75*
G02X85392Y121531I-804J0*
G01*
X84394Y120533*
G75*
G02X83825Y120296I-570J567*
G01*
X67096*
Y115152*
X61553*
Y120296*
X46325*
G75*
G02X45756Y120533I0J804*
G01*
X45257Y121031*
G75*
G02X45021Y121600I567J570*
G01*
Y131600*
G75*
G02X45257Y132170I804J0*
G01*
X45634Y132546*
X42075*
G75*
G02X41506Y132783I0J804*
G01*
X40325Y133963*
X39144Y132783*
G75*
G02X38575Y132546I-570J567*
G01*
X14825*
G75*
G02X14256Y132783I0J804*
G01*
X13757Y133281*
G75*
G02X13521Y133850I567J570*
G01*
Y335600*
G75*
G02X13757Y336170I804J0*
G01*
X48756Y371168*
G75*
G02X49325Y371404I570J-567*
G01*
X59992*
X63521Y374933*
Y386100*
G75*
G02X63757Y386670I804J0*
G01*
X64756Y387668*
G75*
G02X65325Y387904I570J-567*
G01*
X73325*
G75*
G02X73894Y387668I0J-804*
G01*
X74892Y386670*
G75*
G02X75129Y386100I-567J-570*
G01*
Y358933*
X76158Y357904*
X128325*
G75*
G02X128894Y357668I0J-804*
G01*
X129392Y357170*
G75*
G02X129629Y356600I-567J-570*
G01*
Y353600*
G75*
G02X129392Y353031I-804J0*
G01*
X128894Y352533*
G75*
G02X128325Y352296I-570J567*
G01*
X66825*
G75*
G02X66256Y352533I0J804*
G01*
X63757Y355031*
G75*
G02X63521Y355600I567J570*
G01*
Y362267*
X59992Y365796*
X51658*
X19129Y333267*
Y183433*
X19658Y182904*
X87992*
X89021Y183933*
Y187463*
X78620*
Y194872*
X78757*
Y196473*
X78524Y196707*
G75*
G02X75923Y199100I-199J2394*
G01*
G75*
G02X78824Y201450I2402*
G01*
X75524Y204750*
G75*
G02X72923Y207144I-199J2394*
G01*
G75*
G02X75844Y209489I2402*
G01*
X65808Y219524*
G75*
G02X65352Y220624I1096J1100*
G01*
Y263868*
X64722*
Y271478*
X69085*
Y263868*
X68456*
Y221267*
X86277Y203446*
Y255231*
X84213Y257295*
G75*
G02X84377Y256600I-1387J-694*
G01*
G75*
G02Y256597I-591J-2*
G01*
Y255433*
G75*
G02X85227Y253600I-1552J-1833*
G01*
G75*
G02X80423I-2402*
G01*
G75*
G02X81273Y255433I2402*
G01*
Y255957*
X79596Y257634*
Y256404*
X74053*
Y262297*
X74694*
Y267673*
G75*
G02X74722Y268026I2209*
G01*
Y271478*
X79085*
Y268026*
G75*
G02X79113Y267673I-2181J-353*
G01*
Y262297*
X79596*
Y260902*
X80072*
G75*
G02X80769Y260738I3J-1552*
G01*
X80616Y260892*
G75*
G02X80115Y262100I1209J1209*
G01*
Y263868*
X79722*
Y271478*
X84085*
Y263868*
X83534*
Y262809*
X89195Y257148*
G75*
G02X89696Y255939I-1209J-1209*
G01*
Y197666*
X90681Y198652*
X90053*
Y204549*
X95596*
Y198652*
X94377*
Y198600*
G75*
G02X93920Y197501I-1552*
G01*
X92097Y195678*
Y194872*
X96920*
Y204100*
G75*
G02X97303Y205022I1302*
G01*
X131523Y239242*
Y296082*
G75*
G02X130423Y298100I1302J2019*
G01*
G75*
G02X135227I2402*
G01*
G75*
G02X134127Y296082I-2402*
G01*
Y238703*
G75*
G02X133744Y237781I-1302*
G01*
X99524Y203561*
Y196896*
G75*
G02X99862Y197479I1257J-339*
G01*
X134977Y232594*
G75*
G02X134923Y233100I2348J506*
G01*
G75*
G02X139727I2402*
G01*
G75*
G02X136818Y230752I-2402*
G01*
X102083Y196018*
Y194872*
X105030*
Y187463*
X104643*
Y180124*
X110864Y173902*
X137306*
G75*
G02X141727Y172600I2019J-1302*
G01*
G75*
G02X137306Y171298I-2402*
G01*
X110325*
G75*
G02X109403Y171681J1302*
G01*
X102421Y178663*
G75*
G02X102039Y179585I920J922*
G01*
Y187463*
X92129*
Y185433*
X93392Y184170*
G75*
G02X93629Y183600I-567J-570*
G01*
Y172600*
G75*
G02X93392Y172031I-804J0*
G01*
X93100Y171738*
X105030*
Y164329*
X104784*
Y159008*
G75*
G02X105727Y157100I-1459J-1908*
G01*
G75*
G02X100923I-2402*
G01*
G75*
G02X101865Y159008I2402*
G01*
Y159333*
G75*
G02X97423Y160600I-2041J1267*
G01*
G75*
G02X99480Y162978I2402*
G01*
Y164329*
X92255*
Y161049*
X93344*
Y155152*
X87805*
Y161049*
X88836*
Y164329*
X86979*
Y156953*
G75*
G02X86522Y155853I-1552*
G01*
X82377Y151707*
Y138049*
X83596*
Y136402*
X126825*
G75*
G02X126936Y136398I1J-1300*
G01*
X123035Y140298*
X88343*
G75*
G02X83923Y141600I-2019J1302*
G01*
G75*
G02X88343Y142902I2402*
G01*
X123575*
G75*
G02X124497Y142520J-1302*
G01*
X142098Y124918*
X142870*
X142757Y125031*
G75*
G02X142521Y125600I567J570*
G01*
Y184829*
G75*
G02X142876Y185496I804*
G01*
Y189705*
G75*
G02X142521Y190372I449J667*
G01*
Y322600*
G75*
G02X142757Y323170I804J0*
G01*
X143756Y324168*
G75*
G02X144325Y324404I570J-567*
G01*
X150325*
G75*
G02X150894Y324168I0J-804*
G01*
X154892Y320170*
G75*
G02X154893Y320169I-469J-705*
G01*
G75*
G02X154894Y320168I-704J-470*
G01*
X156892Y318170*
G75*
G02X157129Y317600I-567J-570*
G01*
Y316998*
X164656*
Y309880*
X162753*
Y306532*
G75*
G02X163727Y304600I-1428J-1931*
G01*
G75*
G02X158934Y304369I-2402*
G01*
X152627Y298061*
Y259640*
X152864Y259402*
X156825*
G75*
G02X157747Y259020J-1302*
G01*
X160244Y256522*
G75*
G02X160627Y255600I-920J-922*
G01*
Y254498*
X164656*
Y247380*
X162753*
Y235032*
G75*
G02X163727Y233100I-1428J-1931*
G01*
G75*
G02X158923I-2402*
G01*
G75*
G02X159834Y234983I2402*
G01*
Y240268*
X152627Y233061*
Y195902*
X157325*
G75*
G02X158247Y195520J-1302*
G01*
X160244Y193522*
G75*
G02X160627Y192600I-920J-922*
G01*
Y191998*
X164656*
Y184880*
X162753*
Y180532*
G75*
G02X163727Y178600I-1428J-1931*
G01*
G75*
G02X158923I-2402*
G01*
G75*
G02X159834Y180483I2402*
G01*
Y180768*
X157127Y178061*
Y153640*
X162318Y148448*
G75*
G02X165227Y146100I507J-2348*
G01*
G75*
G02X161870Y143896I-2402*
G01*
X167244Y138522*
G75*
G02X167627Y137600I-920J-922*
G01*
Y123807*
G75*
G02X167244Y122885I-1302*
G01*
X164497Y120138*
G75*
G02X163575Y119755I-922J920*
G01*
X157589*
Y117241*
X175125*
G75*
G02X174023Y121433I450J2359*
G01*
Y128797*
X172022*
Y136404*
X179128*
Y128797*
X177127*
Y121433*
G75*
G02X176025Y117241I-1552J-1833*
G01*
X201176*
G75*
G02X200773Y121183I1148J2109*
G01*
Y128797*
X198774*
Y136404*
X205876*
Y128797*
X203877*
Y121183*
G75*
G02X203474Y117241I-1552J-1833*
G01*
X257535*
X265814Y125520*
G75*
G02X266736Y125902I922J-920*
G01*
X268581*
Y126683*
X135876Y190372D02*
X141774D01*
Y184829*
X135876*
Y190372*
X87805Y154049D02*
X93344D01*
Y148152*
X87805*
Y154049*
X259781Y248652D02*
G75*
G02X269127Y247100I4544J-1552D01*
G01*
G75*
G02X259781Y245548I-4802*
G01*
X235825*
G75*
G02X234725Y246005J1552*
G01*
X230730Y250001*
G75*
G02X230273Y251100I1096J1100*
G01*
Y269457*
X216182Y283548*
X178968*
X175759Y280339*
Y274872*
X185450*
Y275778*
G75*
G02X185907Y276877I1552*
G01*
X186725Y277696*
G75*
G02X187825Y278152I1100J-1096*
G01*
X213325*
G75*
G02X214424Y277696J-1552*
G01*
X225920Y266200*
G75*
G02X226377Y265100I-1096J-1100*
G01*
Y221743*
X229468Y218652*
X259781*
G75*
G02X269127Y217100I4544J-1552*
G01*
G75*
G02X259781Y215548I-4802*
G01*
X228825*
G75*
G02X227725Y216005J1552*
G01*
X223730Y220001*
G75*
G02X223273Y221100I1096J1100*
G01*
Y264457*
X212682Y275048*
X188554*
Y274872*
X188691*
Y267463*
X188554*
Y267278*
G75*
G02X188097Y266178I-1552*
G01*
X187424Y265505*
G75*
G02X186325Y265048I-1100J1096*
G01*
X184825*
G75*
G02X183725Y265505J1552*
G01*
X183348Y265883*
G75*
G02X183186Y266072I1096J1100*
G01*
Y263659*
G75*
G02X182803Y262737I-1302*
G01*
X181274Y261209*
G75*
G02X181357Y261132I-951J-1107*
G01*
X182857Y259632*
G75*
G02X183284Y258600I-1032J-1032*
G01*
G75*
G02Y258598I-482J-2*
G01*
Y253251*
G75*
G02X183348Y253318I1159J-1034*
G01*
X183725Y253696*
G75*
G02X184825Y254152I1100J-1096*
G01*
X186325*
G75*
G02X187424Y253696J-1552*
G01*
X188097Y253023*
G75*
G02X188554Y251923I-1096J-1100*
G01*
Y251738*
X188691*
Y244329*
X188554*
Y244066*
X189468Y243152*
X209825*
G75*
G02X210924Y242696J-1552*
G01*
X218920Y234700*
G75*
G02X219377Y233600I-1096J-1100*
G01*
Y205243*
X235468Y189152*
X259983*
G75*
G02X269127Y187100I4341J-2052*
G01*
G75*
G02X259639Y186048I-4802*
G01*
X234828*
G75*
G02X233728Y186503I-3J1552*
G01*
X216728Y203503*
G75*
G02X216273Y204600I1097J1098*
G01*
G75*
G02Y204601I586J0*
G01*
G75*
G02Y204604I591J1*
G01*
Y232957*
X209182Y240048*
X188825*
G75*
G02X187725Y240505J1552*
G01*
X185907Y242324*
G75*
G02X185450Y243423I1096J1100*
G01*
Y244329*
X175759*
Y238861*
X178468Y236152*
X205207*
G75*
G02X206306Y235696J-1552*
G01*
X211920Y230082*
G75*
G02X212377Y228982I-1096J-1100*
G01*
Y200243*
X231420Y181200*
G75*
G02X231877Y180100I-1096J-1100*
G01*
Y160743*
X233968Y158652*
X259781*
G75*
G02X269127Y157100I4544J-1552*
G01*
G75*
G02X259781Y155548I-4802*
G01*
X233325*
G75*
G02X232225Y156005J1552*
G01*
X229230Y159001*
G75*
G02X228773Y160100I1096J1100*
G01*
Y179457*
X209730Y198501*
G75*
G02X209273Y199600I1096J1100*
G01*
Y228339*
X204564Y233048*
X177828*
G75*
G02X176728Y233503I-3J1552*
G01*
X173109Y237121*
G75*
G02X172655Y238219I1097J1098*
G01*
G75*
G02Y238222I591J2*
G01*
Y244329*
X169959*
Y251738*
X170128*
G75*
G02X170552Y252523I1520J-315*
G01*
X171225Y253196*
G75*
G02X172325Y253652I1100J-1096*
G01*
X173175*
X170216Y256641*
X161356*
G75*
G02X160322Y257070J1459*
G01*
X156326Y261067*
G75*
G02X155897Y262100I1030J1034*
G01*
Y264703*
X153994*
Y271821*
X164656*
Y265611*
X164864Y265402*
X171338*
G75*
G02X171225Y265505I987J1199*
G01*
X170552Y266178*
G75*
G02X170096Y267278I1096J1100*
G01*
Y267463*
X169959*
Y274872*
X172655*
Y280979*
G75*
G02Y280981I596J1*
G01*
G75*
G02Y280982I610J0*
G01*
G75*
G02X173109Y282080I1552J0*
G01*
X177228Y286198*
G75*
G02X178328Y286652I1098J-1097*
G01*
X216825*
G75*
G02X217924Y286196J-1552*
G01*
X232920Y271200*
G75*
G02X233377Y270100I-1096J-1100*
G01*
Y251743*
X236468Y248652*
X259781*
Y228652D02*
G75*
G02X269127Y227100I4544J-1552D01*
G01*
G75*
G02X259781Y225548I-4802*
G01*
X247796*
G75*
G02X240523Y227100I-3471J1552*
G01*
G75*
G02X247796Y228652I3802*
G01*
X259781*
Y198652D02*
G75*
G02X269127Y197100I4544J-1552D01*
G01*
G75*
G02X259781Y195548I-4802*
G01*
X247796*
G75*
G02X240523Y197100I-3471J1552*
G01*
G75*
G02X247796Y198652I3802*
G01*
X259781*
Y168652D02*
G75*
G02X269127Y167100I4544J-1552D01*
G01*
G75*
G02X259781Y165548I-4802*
G01*
X247796*
G75*
G02X240523Y167100I-3471J1552*
G01*
G75*
G02X247796Y168652I3802*
G01*
X259781*
Y138652D02*
G75*
G02X269127Y137100I4544J-1552D01*
G01*
G75*
G02X259781Y135548I-4802*
G01*
X247796*
G75*
G02X240523Y137100I-3471J1552*
G01*
G75*
G02X247796Y138652I3802*
G01*
X259781*
X215877Y121933D02*
G75*
G02X216727Y120100I-1552J-1833D01*
G01*
G75*
G02X211923I-2402*
G01*
G75*
G02X212773Y121933I2402*
G01*
Y183957*
X202230Y194501*
G75*
G02X201773Y195600I1096J1100*
G01*
Y223457*
X199182Y226048*
X177468*
X175759Y224339*
Y212372*
X185450*
Y214778*
G75*
G02X185907Y215877I1552*
G01*
X188225Y218196*
G75*
G02X189325Y218652I1100J-1096*
G01*
X192825*
G75*
G02X193924Y218196J-1552*
G01*
X196420Y215700*
G75*
G02X196877Y214600I-1096J-1100*
G01*
Y193243*
X202920Y187200*
G75*
G02X203377Y186100I-1096J-1100*
G01*
Y175571*
G75*
G02X201825Y168298I-1552J-3471*
G01*
G75*
G02X200273Y175571J3802*
G01*
Y185457*
X194230Y191501*
G75*
G02X193773Y192600I1096J1100*
G01*
Y213957*
X192182Y215548*
X189968*
X188554Y214135*
Y212372*
X188691*
Y204963*
X188554*
Y204778*
G75*
G02X188097Y203678I-1552*
G01*
X187424Y203005*
G75*
G02X186325Y202548I-1100J1096*
G01*
X184825*
G75*
G02X183725Y203005J1552*
G01*
X183348Y203383*
G75*
G02X183186Y203572I1096J1100*
G01*
Y200159*
G75*
G02X182803Y199237I-1302*
G01*
X181274Y197709*
G75*
G02X181357Y197632I-951J-1107*
G01*
X182857Y196132*
G75*
G02X183284Y195100I-1032J-1032*
G01*
G75*
G02Y195098I-482J-2*
G01*
Y190751*
G75*
G02X183348Y190818I1159J-1034*
G01*
X183725Y191196*
G75*
G02X184825Y191652I1100J-1096*
G01*
X186325*
G75*
G02X187424Y191196J-1552*
G01*
X188097Y190523*
G75*
G02X188554Y189423I-1096J-1100*
G01*
Y189238*
X188691*
Y181829*
X188554*
Y179600*
G75*
G02X188377Y178880I-1552*
G01*
Y175571*
G75*
G02X186825Y168298I-1552J-3471*
G01*
G75*
G02X185273Y175571J3802*
G01*
Y179423*
G75*
G02X185450Y180143I1552*
G01*
Y181829*
X173200*
Y180143*
G75*
G02X173377Y179423I-1375J-720*
G01*
Y175571*
G75*
G02X171825Y168298I-1552J-3471*
G01*
G75*
G02X170273Y175571J3802*
G01*
Y178880*
G75*
G02X170096Y179600I1375J720*
G01*
Y181829*
X169959*
Y189238*
X170096*
Y189423*
G75*
G02X170552Y190523I1552*
G01*
X171225Y191196*
G75*
G02X172325Y191652I1100J-1096*
G01*
X173325*
G75*
G02X173435Y191648I0J-1551*
G01*
X171785Y193298*
X162325*
G75*
G02X161403Y193681J1302*
G01*
X156437Y198647*
G75*
G02X156054Y199569I920J922*
G01*
Y202203*
X153994*
Y209321*
X164656*
Y203048*
X165801Y201902*
X172285*
X173431Y203048*
X171648*
G75*
G02X170096Y204600J1552*
G01*
Y204963*
X169959*
Y212372*
X172655*
Y224982*
G75*
G02X173111Y226082I1552*
G01*
X175725Y228696*
G75*
G02X176825Y229152I1100J-1096*
G01*
X199825*
G75*
G02X200924Y228696J-1552*
G01*
X204420Y225200*
G75*
G02X204877Y224100I-1096J-1100*
G01*
Y196243*
X215420Y185700*
G75*
G02X215877Y184600I-1096J-1100*
G01*
Y121933*
X203628Y153620D02*
X209522D01*
Y148081*
X203628*
Y153620*
X193627Y160549D02*
X195096D01*
Y154652*
X189553*
Y160549*
X191023*
Y160561*
X190285Y161298*
X181364*
X181173Y161107*
G75*
G02X179793Y158402I-2348J-507*
G01*
X182053*
Y160549*
X187596*
Y154652*
X182053*
Y155798*
X177343*
G75*
G02X172923Y157100I-2019J1302*
G01*
G75*
G02X177343Y158402I2402*
G01*
X177856*
G75*
G02X179331Y162948I969J2198*
G01*
X179903Y163520*
G75*
G02X180825Y163902I922J-920*
G01*
X190825*
G75*
G02X191747Y163520J-1302*
G01*
X193244Y162022*
G75*
G02X193627Y161100I-920J-922*
G01*
Y160549*
X196628Y153620D02*
X202522D01*
Y148081*
X196628*
Y149298*
X196419*
G75*
G02X195575Y149048I-844J1302*
G01*
X195096*
Y147652*
X194034*
Y143809*
X194494*
Y138659*
X182656*
Y143809*
X183115*
Y147652*
X182053*
Y149048*
X180774*
Y148081*
X174876*
Y153620*
X180774*
Y152152*
X182053*
Y153549*
X187596*
Y147652*
X186534*
Y143809*
X190615*
Y147652*
X189553*
Y153549*
X195096*
Y152327*
G75*
G02X195575Y152402I478J-1476*
G01*
X196628*
Y153620*
X198774Y145404D02*
X205876D01*
Y137797*
X198774*
Y140048*
X198468*
X198377Y139957*
Y134600*
G75*
G02X197920Y133501I-1552*
G01*
X196291Y131871*
G75*
G02X195191Y131415I-1100J1096*
G01*
X194494*
Y130392*
X182656*
Y131415*
X182459*
G75*
G02X181359Y131871J1552*
G01*
X179730Y133501*
G75*
G02X179273Y134600I1096J1100*
G01*
Y140048*
X179128*
Y137797*
X172022*
Y145404*
X179128*
Y143152*
X180075*
G75*
G02X181174Y142696J-1552*
G01*
X181920Y141950*
G75*
G02X182377Y140850I-1096J-1100*
G01*
Y135243*
X182656Y134965*
Y135541*
X194494*
Y134519*
X194548*
X195273Y135243*
Y140597*
G75*
G02Y140600I596J1*
G01*
G75*
G02X195728Y141698I1552J0*
G01*
X196728Y142698*
G75*
G02X197828Y143152I1098J-1097*
G01*
X198774*
Y145404*
X167876Y153620D02*
X173774D01*
Y148081*
X167876*
Y153620*
X268581Y86683D02*
X277864D01*
Y82518*
X268581*
Y86683*
X159523Y62100D02*
G75*
G02X169127I4802D01*
G01*
G75*
G02X159523I-4802*
G01*
X165877Y76644D02*
G75*
G02X169127Y72100I-1552J-4544D01*
G01*
G75*
G02X159523I-4802*
G01*
G75*
G02X162773Y76644I4802*
G01*
Y84880*
G75*
G02X164325Y92152I1552J3471*
G01*
G75*
G02X165877Y84880J-3802*
G01*
Y76644*
X267212Y38839D02*
G75*
G02X275775Y37130I4111J-1709D01*
G01*
G75*
G02X267212Y35420I-4452*
G01*
X250033*
X245533Y30921*
Y30921*
X233036Y18394*
G75*
G02X231825Y17891I-1211J1207*
G01*
X178577*
G75*
G02X177366Y18392I-2J1709*
G01*
X175616Y20142*
G75*
G02X175115Y21350I1209J1209*
G01*
Y35142*
X172367Y37891*
X121034*
Y36888*
X121407*
Y27608*
X117242*
Y36888*
X117615*
Y38600*
G75*
G02X117808Y39389I1710J0*
G01*
X115877Y37457*
Y36888*
X116407*
Y27608*
X112242*
Y36888*
X112773*
Y38097*
G75*
G02Y38100I596J1*
G01*
G75*
G02X113228Y39198I1552J0*
G01*
X117728Y43698*
G75*
G02X118267Y44048I1098J-1097*
G01*
X117968*
X110877Y36957*
Y36888*
X111407*
Y27608*
X107242*
Y36888*
X107773*
Y37600*
G75*
G02X108230Y38700I1552*
G01*
X116225Y46696*
G75*
G02X116767Y47048I1100J-1096*
G01*
X116468*
X106307Y36888*
X106407*
Y27608*
X102242*
Y36888*
X102773*
Y37100*
G75*
G02X103230Y38200I1552*
G01*
X114725Y49696*
G75*
G02X115825Y50152I1100J-1096*
G01*
X140182*
X150014Y59985*
G75*
G02X149523Y62100I4311J2116*
G01*
G75*
G02X159127I4802*
G01*
G75*
G02X152209Y57790I-4802*
G01*
X141922Y47503*
G75*
G02X141383Y47152I-1098J1097*
G01*
X167182*
X180014Y59985*
G75*
G02X179523Y62100I4311J2116*
G01*
G75*
G02X189127I4802*
G01*
G75*
G02X182209Y57790I-4802*
G01*
X168924Y44505*
G75*
G02X168383Y44152I-1100J1096*
G01*
X194182*
X210014Y59985*
G75*
G02X209523Y62100I4311J2116*
G01*
G75*
G02X219127I4802*
G01*
G75*
G02X212209Y57790I-4802*
G01*
X195924Y41505*
G75*
G02X194825Y41048I-1100J1096*
G01*
X173983*
G75*
G02X174283Y40809I-909J-1447*
G01*
X178033Y37059*
G75*
G02X178534Y35850I-1209J-1209*
G01*
Y22059*
X179283Y21310*
X231115*
X243113Y33335*
G75*
G02X243116Y33339I622J-619*
G01*
X248116Y38339*
G75*
G02X249327Y38839I1209J-1209*
G01*
X267212*
X350636Y339991D02*
G75*
G02X358327Y338439I3689J-1552D01*
G01*
G75*
G02X350636Y336887I-4002*
G01*
X347468*
X346586Y336005*
G75*
G02X345486Y335548I-1100J1096*
G01*
X327796*
G75*
G02X320854I-3471J1552*
G01*
X308869*
G75*
G02X299627Y336107I-4544J1552*
G01*
Y318094*
G75*
G02X309127Y317100I4698J-994*
G01*
G75*
G02X299627Y316107I-4802*
G01*
Y308094*
G75*
G02X308869Y308652I4698J-994*
G01*
X320854*
G75*
G02X325681Y310652I3471J-1552*
G01*
X345902Y330873*
G75*
G02X347002Y331330I1100J-1096*
G01*
X350636*
G75*
G02X358327Y329778I3689J-1552*
G01*
G75*
G02X350636Y328226I-4002*
G01*
X347645*
X327876Y308457*
G75*
G02X320854Y305548I-3552J-1357*
G01*
X308869*
G75*
G02X299627Y306107I-4544J1552*
G01*
Y288094*
G75*
G02X309127Y287100I4698J-994*
G01*
G75*
G02X299627Y286107I-4802*
G01*
Y278094*
G75*
G02X308869Y278652I4698J-994*
G01*
X320854*
G75*
G02X325681Y280652I3471J-1552*
G01*
X327773Y282743*
Y301116*
G75*
G02X328230Y302216I1552*
G01*
X348225Y322211*
G75*
G02X349325Y322668I1100J-1096*
G01*
X350636*
G75*
G02X358327Y321116I3689J-1552*
G01*
G75*
G02X350636Y319564I-4002*
G01*
X349968*
X330877Y300473*
Y296763*
G75*
G02X331228Y297302I1448J-559*
G01*
X347478Y313552*
G75*
G02X348578Y314007I1098J-1097*
G01*
X350636*
G75*
G02X358327Y312455I3689J-1552*
G01*
G75*
G02X350636Y310903I-4002*
G01*
X349218*
X333877Y295562*
Y292352*
G75*
G02X334230Y292893I1449J-558*
G01*
X346225Y304889*
G75*
G02X347325Y305345I1100J-1096*
G01*
X350636*
G75*
G02X358327Y303793I3689J-1552*
G01*
G75*
G02X350636Y302241I-4002*
G01*
X347968*
X336877Y291150*
Y286940*
G75*
G02X337230Y287481I1449J-558*
G01*
X345975Y296227*
G75*
G02X347075Y296684I1100J-1096*
G01*
X350636*
G75*
G02X358327Y295132I3689J-1552*
G01*
G75*
G02X350636Y293580I-4002*
G01*
X347718*
X339877Y285739*
Y282029*
G75*
G02X340228Y282568I1448J-559*
G01*
X345228Y287568*
G75*
G02X346328Y288022I1098J-1097*
G01*
X350636*
G75*
G02X358327Y286470I3689J-1552*
G01*
G75*
G02X350636Y284919I-4002*
G01*
X346968*
X342877Y280828*
Y238722*
G75*
G02X343228Y239261I1448J-559*
G01*
X348228Y244261*
G75*
G02X349328Y244715I1098J-1097*
G01*
X350636*
G75*
G02X358327Y243163I3689J-1552*
G01*
G75*
G02X350636Y241611I-4002*
G01*
X349968*
X345877Y237520*
Y97100*
G75*
G02X345420Y96001I-1552*
G01*
X321924Y72505*
G75*
G02X320825Y72048I-1100J1096*
G01*
X246218*
X215877Y41707*
Y36644*
G75*
G02X218869Y33652I-1552J-4544*
G01*
X230854*
G75*
G02X238127Y32100I3471J-1552*
G01*
G75*
G02X230854Y30548I-3802*
G01*
X218869*
G75*
G02X209523Y32100I-4544J1552*
G01*
G75*
G02X212773Y36644I4802*
G01*
Y42350*
G75*
G02X213230Y43450I1552*
G01*
X244475Y74696*
G75*
G02X245575Y75152I1100J-1096*
G01*
X320182*
X342773Y97743*
Y174542*
G75*
G02X342422Y174003I-1448J559*
G01*
X327543Y159124*
G75*
G02X324325Y153298I-3219J-2024*
G01*
G75*
G02X320854Y155548J3802*
G01*
X308869*
G75*
G02X299627Y156107I-4544J1552*
G01*
Y138094*
G75*
G02X309127Y137100I4698J-994*
G01*
G75*
G02X299627Y136107I-4802*
G01*
Y128640*
X302364Y125902*
X305785*
Y126683*
X315069*
Y122518*
X305785*
Y123298*
X301825*
G75*
G02X300903Y123681J1302*
G01*
X297627Y126957*
Y125640*
X302364Y120902*
X305785*
Y121683*
X315069*
Y117518*
X305785*
Y118298*
X301825*
G75*
G02X300903Y118681J1302*
G01*
X295627Y123957*
Y122640*
X302364Y115902*
X305785*
Y116683*
X315069*
Y112518*
X305785*
Y113298*
X301825*
G75*
G02X300903Y113681J1302*
G01*
X293627Y120957*
Y120140*
X302864Y110902*
X305785*
Y111683*
X315069*
Y107518*
X305785*
Y108298*
X302325*
G75*
G02X301403Y108681J1302*
G01*
X291627Y118457*
Y116640*
X302364Y105902*
X305785*
Y106683*
X315069*
Y102518*
X305785*
Y103298*
X301825*
G75*
G02X300903Y103681J1302*
G01*
X289627Y114957*
Y113640*
X302364Y100902*
X305785*
Y101683*
X315069*
Y97518*
X305785*
Y98298*
X301825*
G75*
G02X300903Y98681J1302*
G01*
X287627Y111957*
Y110640*
X302364Y95902*
X305785*
Y96683*
X315069*
Y95481*
X317021Y97433*
Y106600*
G75*
G02X317825Y107404I804*
G01*
X325825*
G75*
G02X326629Y106600J-804*
G01*
Y89600*
G75*
G02X326392Y89031I-804J0*
G01*
X321394Y84033*
G75*
G02X321393Y84032I-705J469*
G01*
G75*
G02X321392Y84031I-470J704*
G01*
X317394Y80033*
G75*
G02X316825Y79796I-570J567*
G01*
X300825*
G75*
G02X300021Y80600J804*
G01*
Y87600*
G75*
G02X300257Y88170I804J0*
G01*
X300756Y88668*
G75*
G02X300841Y88743I570J-567*
G01*
X283406Y106178*
G75*
G02X283023Y107100I920J922*
G01*
Y146561*
X276672Y152911*
G75*
G02X269523Y157100I-2348J4189*
G01*
G75*
G02X279127I4802*
G01*
G75*
G02X278514Y154753I-4802*
G01*
X285023Y148244*
Y174561*
X276672Y182911*
G75*
G02X269523Y187100I-2348J4189*
G01*
G75*
G02X279127I4802*
G01*
G75*
G02X278514Y184753I-4802*
G01*
X287023Y176244*
Y202561*
X276672Y212911*
G75*
G02X269523Y217100I-2348J4189*
G01*
G75*
G02X279127I4802*
G01*
G75*
G02X278514Y214753I-4802*
G01*
X289023Y204244*
Y230561*
X276672Y242911*
G75*
G02X269523Y247100I-2348J4189*
G01*
G75*
G02X279127I4802*
G01*
G75*
G02X278514Y244753I-4802*
G01*
X291023Y232244*
Y258561*
X276672Y272911*
G75*
G02X269523Y277100I-2348J4189*
G01*
G75*
G02X279127I4802*
G01*
G75*
G02X278514Y274753I-4802*
G01*
X293023Y260244*
Y286561*
X276672Y302911*
G75*
G02X269523Y307100I-2348J4189*
G01*
G75*
G02X279127I4802*
G01*
G75*
G02X278514Y304753I-4802*
G01*
X295023Y288244*
Y314561*
X276672Y332911*
G75*
G02X269523Y337100I-2348J4189*
G01*
G75*
G02X279127I4802*
G01*
G75*
G02X278514Y334753I-4802*
G01*
X297023Y316244*
Y361561*
X292785Y365798*
X278947*
G75*
G02X269523Y367100I-4622J1302*
G01*
G75*
G02X278947Y368402I4802*
G01*
X293325*
G75*
G02X294247Y368020J-1302*
G01*
X299244Y363022*
G75*
G02X299627Y362100I-920J-922*
G01*
Y348094*
G75*
G02X309127Y347100I4698J-994*
G01*
G75*
G02X299627Y346107I-4802*
G01*
Y338094*
G75*
G02X308869Y338652I4698J-994*
G01*
X320854*
G75*
G02X327796I3471J-1552*
G01*
X344843*
X345725Y339534*
G75*
G02X346825Y339991I1100J-1096*
G01*
X350636*
X319053Y113549D02*
X324596D01*
Y107652*
X319053*
Y113549*
X350323Y251825D02*
G75*
G02X358327I4002D01*
G01*
G75*
G02X350323I-4002*
G01*
Y260486D02*
G75*
G02X358327I4002D01*
G01*
G75*
G02X350323I-4002*
G01*
Y269148D02*
G75*
G02X358327I4002D01*
G01*
G75*
G02X350323I-4002*
G01*
Y277809D02*
G75*
G02X358327I4002D01*
G01*
G75*
G02X350323I-4002*
G01*
X394080Y89770D02*
G75*
G02Y89769I-586J0D01*
G01*
G75*
G02Y89767I-591J-1*
G01*
Y42844*
G75*
G02X393623Y41744I-1552*
G01*
X362384Y10505*
G75*
G02X361285Y10048I-1100J1096*
G01*
X139325*
G75*
G02X138225Y10505J1552*
G01*
X136192Y12539*
G75*
G02X130523Y15850I-1867J3312*
G01*
G75*
G02X132773Y19321I3802*
G01*
Y27556*
G75*
G02X129523Y32100I1552J4544*
G01*
G75*
G02X139127I4802*
G01*
G75*
G02X135877Y27556I-4802*
G01*
Y19321*
G75*
G02X138046Y15074I-1552J-3470*
G01*
X139968Y13152*
X166267*
G75*
G02X165725Y13505I558J1449*
G01*
X165681Y13549*
G75*
G02X162773Y20571I-1357J3552*
G01*
Y27556*
G75*
G02X159523Y32100I1552J4544*
G01*
G75*
G02X169127I4802*
G01*
G75*
G02X165877Y27556I-4802*
G01*
Y20571*
G75*
G02X168007Y16152I-1552J-3471*
G01*
X359149*
X373504Y30507*
G75*
G02X371825Y30048I-1679J2843*
G01*
X291943*
X286283Y24389*
G75*
G02X274984Y21798I-5708J-1039*
G01*
X270575*
G75*
G02X269475Y22255J1552*
G01*
X268682Y23048*
X257796*
G75*
G02X250523Y24600I-3471J1552*
G01*
G75*
G02X257796Y26152I3802*
G01*
X269325*
G75*
G02X270424Y25696J-1552*
G01*
X271218Y24902*
X274984*
G75*
G02X281613Y29059I5591J-1552*
G01*
X288240Y35685*
G75*
G02X290579Y36652I2335J-2335*
G01*
X370457*
X376149Y42344*
X359825*
Y55600*
X345825Y69600*
Y79600*
X348325Y82100*
X367794*
X381523Y68372*
Y85233*
X351993Y114763*
G75*
G02X351023Y117100I2332J2338*
G01*
Y180272*
G75*
G02X350323Y182533I3302J2261*
G01*
G75*
G02X358327I4002*
G01*
G75*
G02X357627Y180272I-4002*
G01*
Y118468*
X358684Y117411*
G75*
G02X358652Y117726I1520J315*
G01*
Y219819*
X356177Y222293*
G75*
G02X350323Y225841I-1852J3547*
G01*
G75*
G02X358327I4002*
G01*
G75*
G02X358161Y224700I-4002*
G01*
X361299Y221561*
G75*
G02X361756Y220461I-1096J-1100*
G01*
Y118369*
X370585Y109539*
G75*
G02X370273Y110473I1240J934*
G01*
G75*
G02Y110474I586J0*
G01*
G75*
G02Y110476I591J1*
G01*
Y219509*
X367647Y222135*
G75*
G02X362134Y225841I-1511J3706*
G01*
G75*
G02X370138I4002*
G01*
G75*
G02X369842Y224330I-4002J0*
G01*
X372920Y221251*
G75*
G02X373377Y220152I-1096J-1100*
G01*
Y111116*
X393625Y90867*
G75*
G02X394080Y89770I-1097J-1098*
G01*
X312174Y23350D02*
G75*
G02X323778I5802D01*
G01*
G75*
G02X312174I-5802*
G01*
X350323Y191195D02*
G75*
G02X358327I4002D01*
G01*
G75*
G02X350323I-4002*
G01*
Y199856D02*
G75*
G02X358327I4002D01*
G01*
G75*
G02X350323I-4002*
G01*
Y208518D02*
G75*
G02X358327I4002D01*
G01*
G75*
G02X350323I-4002*
G01*
Y217179D02*
G75*
G02X358327I4002D01*
G01*
G75*
G02X350323I-4002*
G01*
Y234502D02*
G75*
G02X358327I4002D01*
G01*
G75*
G02X350323I-4002*
G01*
X344118Y62105D02*
G75*
G02X357863Y53350I4085J-8754D01*
G01*
G75*
G02X338543I-9660*
G01*
G75*
G02X339448Y57435I9661J0*
G01*
X337071Y59812*
X289777*
G75*
G02X285670Y56749I-5659J3302*
G01*
Y49394*
G75*
G02X285213Y48294I-1552*
G01*
X280424Y43505*
G75*
G02X279325Y43048I-1100J1096*
G01*
X257796*
G75*
G02X250523Y44600I-3471J1552*
G01*
G75*
G02X257796Y46152I3802*
G01*
X278682*
X282566Y50037*
Y56749*
G75*
G02X284118Y69666I1552J6365*
G01*
G75*
G02X289777Y66416J-6552*
G01*
X338439*
G75*
G02X340777Y65446J-3302*
G01*
X344118Y62105*
X266871Y54846D02*
G75*
G02X275775I4452D01*
G01*
G75*
G02X266871I-4452*
G01*
X179523Y32100D02*
G75*
G02X189127I4802D01*
G01*
G75*
G02X179523I-4802*
G01*
X189523D02*
G75*
G02X199127I4802D01*
G01*
G75*
G02X189523I-4802*
G01*
X149523D02*
G75*
G02X159127I4802D01*
G01*
G75*
G02X149523I-4802*
G01*
X179523Y72100D02*
G75*
G02X189127I4802D01*
G01*
G75*
G02X179523I-4802*
G01*
X189523Y62100D02*
G75*
G02X199127I4802D01*
G01*
G75*
G02X189523I-4802*
G01*
X195877Y76644D02*
G75*
G02X199127Y72100I-1552J-4544D01*
G01*
G75*
G02X189523I-4802*
G01*
G75*
G02X192773Y76644I4802*
G01*
Y84880*
G75*
G02X194325Y92152I1552J3471*
G01*
G75*
G02X195877Y84880J-3802*
G01*
Y76644*
X209523Y72100D02*
G75*
G02X219127I4802D01*
G01*
G75*
G02X209523I-4802*
G01*
X149523D02*
G75*
G02X159127I4802D01*
G01*
G75*
G02X149523I-4802*
G01*
X129523Y62100D02*
G75*
G02X139127I4802D01*
G01*
G75*
G02X129523I-4802*
G01*
X135877Y76644D02*
G75*
G02X139127Y72100I-1552J-4544D01*
G01*
G75*
G02X129523I-4802*
G01*
G75*
G02X132773Y76644I4802*
G01*
Y84880*
G75*
G02X134325Y92152I1552J3471*
G01*
G75*
G02X135877Y84880J-3802*
G01*
Y76644*
X87242Y36888D02*
X91407D01*
Y27608*
X87242*
Y36888*
Y74093D02*
X91407D01*
Y64813*
X87242*
Y74093*
X92242Y36888D02*
X96407D01*
Y27608*
X92242*
Y36888*
Y74093D02*
X96407D01*
Y64813*
X92242*
Y74093*
X97242Y36888D02*
X101407D01*
Y27608*
X97242*
Y36888*
Y74093D02*
X101407D01*
Y64813*
X97242*
Y74093*
X25053Y150549D02*
X30596D01*
Y144652*
X25053*
Y150549*
X32238Y148825D02*
X38569D01*
Y144856*
X32238*
Y148825*
X51053Y148049D02*
X56596D01*
Y142152*
X51053*
Y148049*
X69053Y176549D02*
X74596D01*
Y170652*
X69053*
Y176549*
X77242Y74093D02*
X81407D01*
Y64813*
X77242*
Y74093*
X82242D02*
X86407D01*
Y64813*
X82242*
Y74093*
X83129Y36888D02*
X86407D01*
Y27608*
X83129*
Y24100*
G75*
G02X82892Y23531I-804J0*
G01*
X81894Y22533*
G75*
G02X81325Y22296I-570J567*
G01*
X74096*
Y17652*
X68553*
Y22296*
X65825*
G75*
G02X65256Y22533I0J804*
G01*
X60825Y26963*
Y16100*
X58825Y14100*
X41825*
X19825Y36100*
Y66100*
X48825*
Y63987*
X53521Y68683*
Y89767*
X50257Y93031*
G75*
G02X50021Y93600I567J570*
G01*
Y94329*
X48876*
Y99872*
X50021*
Y100046*
X48326*
G75*
G02X47715Y100327I-1J804*
G01*
X46215Y102077*
G75*
G02X46021Y102600I610J524*
G01*
Y111850*
G75*
G02X46215Y112374I804J0*
G01*
X47715Y114124*
G75*
G02X48326Y114404I610J-523*
G01*
X60825*
G75*
G02X61394Y114168I0J-804*
G01*
X62892Y112670*
G75*
G02X63129Y112100I-567J-570*
G01*
Y103100*
G75*
G02X62892Y102531I-804J0*
G01*
X58629Y98267*
Y97683*
X59658Y96654*
X62325*
G75*
G02X62894Y96418I0J-804*
G01*
X64892Y94420*
G75*
G02X65129Y93850I-567J-570*
G01*
Y68683*
X72392Y61420*
G75*
G02X72629Y60850I-567J-570*
G01*
Y47904*
X75325*
G75*
G02X75894Y47668I0J-804*
G01*
X80158Y43404*
X81825*
G75*
G02X82394Y43168I0J-804*
G01*
X82892Y42670*
G75*
G02X83129Y42100I-567J-570*
G01*
Y36888*
X14860Y127549D02*
X39498D01*
Y106652*
X14860*
Y127549*
X27876Y99872D02*
X33774D01*
Y94329*
X27876*
Y99872*
X41876D02*
X47774D01*
Y94329*
X41876*
Y95048*
X40774*
Y94329*
X34876*
Y99872*
X40774*
Y99152*
X41876*
Y99872*
X90053Y211549D02*
X95596D01*
Y205652*
X90053*
Y211549*
X80456Y303998D02*
X82707D01*
Y296896*
X80534*
Y295600*
G75*
G02X80033Y294392I-1709*
G01*
X78613Y292971*
Y292833*
X79085*
Y285222*
X74722*
Y292833*
X75194*
Y293679*
G75*
G02X75695Y294888I1709*
G01*
X77115Y296309*
Y296896*
X75100*
Y303998*
X77352*
Y304879*
X77046Y305184*
G75*
G02X76592Y306281I1097J1098*
G01*
G75*
G02Y306282I586J0*
G01*
G75*
G02Y306285I591J1*
G01*
Y309900*
X76159*
Y315640*
X76842*
Y327242*
X74785Y329298*
X69191*
X71605Y326884*
G75*
G02X72034Y325850I-1030J-1034*
G01*
Y315640*
X72648*
Y309900*
X72215*
Y305863*
G75*
G02Y305861I-596J-1*
G01*
G75*
G02Y305860I-610J0*
G01*
G75*
G02X71761Y304763I-1552J0*
G01*
X71456Y304457*
Y303998*
X73707*
Y296896*
X71534*
Y296309*
X73112Y294730*
G75*
G02X73613Y293522I-1209J-1209*
G01*
Y292833*
X74085*
Y285222*
X69722*
Y292833*
X70175*
X68616Y294392*
G75*
G02X68115Y295600I1209J1209*
G01*
Y296896*
X66100*
Y303998*
X68352*
Y305097*
G75*
G02Y305100I596J1*
G01*
G75*
G02X68806Y306198I1552J0*
G01*
X69111Y306503*
Y309900*
X68679*
Y315640*
X69115*
Y325246*
X67470Y326891*
X43679*
X39284Y322496*
Y311320*
G75*
G02X46552Y309757I3466J-1563*
G01*
G75*
G02X39284Y308194I-3802*
G01*
Y304335*
X41154Y302408*
G75*
G02X46552Y298957I1596J-3451*
G01*
G75*
G02X38948I-3802*
G01*
G75*
G02X39176Y300254I3802J0*
G01*
X37127Y302367*
Y274496*
X38364Y273259*
X49178*
G75*
G02X56552Y271957I3572J-1302*
G01*
G75*
G02X49178Y270655I-3802*
G01*
X37825*
G75*
G02X36903Y271038J1302*
G01*
X34906Y273035*
G75*
G02X34523Y273957I920J922*
G01*
Y324100*
G75*
G02X34906Y325022I1302*
G01*
X41403Y331520*
G75*
G02X42325Y331902I922J-920*
G01*
X75325*
G75*
G02X76247Y331520J-1302*
G01*
X79063Y328704*
G75*
G02X79446Y327781I-920J-922*
G01*
Y315640*
X80128*
Y309900*
X79696*
Y306924*
X80001Y306619*
G75*
G02X80456Y305522I-1097J-1098*
G01*
G75*
G02Y305521I-586J0*
G01*
G75*
G02Y305519I-591J-1*
G01*
Y303998*
X79722Y292833D02*
X84085D01*
Y285222*
X79722*
Y292833*
X72419Y324301D02*
X76388D01*
Y318561*
X72419*
Y324301*
X69722Y271478D02*
X74085D01*
Y263868*
X69722*
Y271478*
X74053Y255297D02*
X79596D01*
Y249404*
X74053*
Y255297*
X48948Y282757D02*
G75*
G02X56552I3802D01*
G01*
G75*
G02X48948I-3802*
G01*
Y293557D02*
G75*
G02X56552I3802D01*
G01*
G75*
G02X48948I-3802*
G01*
Y304357D02*
G75*
G02X56552I3802D01*
G01*
G75*
G02X48948I-3802*
G01*
Y315157D02*
G75*
G02X56552I3802D01*
G01*
G75*
G02X48948I-3802*
G01*
X68456Y292833D02*
X69085D01*
Y285222*
X64722*
Y292833*
X64898*
X61728Y296003*
G75*
G02X61273Y297100I1097J1098*
G01*
G75*
G02Y297101I586J0*
G01*
G75*
G02Y297104I591J1*
G01*
Y305652*
X60053*
Y311549*
X65596*
Y305652*
X64377*
Y297743*
X68001Y294119*
G75*
G02X68456Y293022I-1097J-1098*
G01*
G75*
G02Y293021I-586J0*
G01*
G75*
G02Y293019I-591J-1*
G01*
Y292833*
X60053Y318549D02*
X65596D01*
Y312652*
X60053*
Y318549*
X38948Y277357D02*
G75*
G02X46552I3802D01*
G01*
G75*
G02X38948I-3802*
G01*
Y288157D02*
G75*
G02X46552I3802D01*
G01*
G75*
G02X38948I-3802*
G01*
X38198Y244357D02*
G75*
G02X57302I9552D01*
G01*
G75*
G02X38198I-9552*
G01*
Y342757D02*
G75*
G02X57302I9552D01*
G01*
G75*
G02X38198I-9552*
G01*
X125523Y379600D02*
G75*
G02X133127I3802D01*
G01*
G75*
G02X125523I-3802*
G01*
X135523Y369600D02*
G75*
G02X143127I3802D01*
G01*
G75*
G02X135523I-3802*
G01*
X136376Y252872D02*
X142274D01*
Y247329*
X136376*
Y252872*
Y322372D02*
X142274D01*
Y316829*
X136376*
Y322372*
X135523Y379600D02*
G75*
G02X143127I3802D01*
G01*
G75*
G02X135523I-3802*
G01*
X145523Y369600D02*
G75*
G02X153127I3802D01*
G01*
G75*
G02X145523I-3802*
G01*
Y379600D02*
G75*
G02X153127I3802D01*
G01*
G75*
G02X145523I-3802*
G01*
X259781Y368652D02*
G75*
G02X269127Y367100I4544J-1552D01*
G01*
G75*
G02X259781Y365548I-4802*
G01*
X249968*
X230424Y346005*
G75*
G02X229325Y345548I-1100J1096*
G01*
X180350*
X175759Y340957*
Y337372*
X185450*
Y338278*
G75*
G02X185907Y339377I1552*
G01*
X186725Y340196*
G75*
G02X187825Y340652I1100J-1096*
G01*
X229322*
G75*
G02X230422Y340198I3J-1552*
G01*
X231968Y338652*
X259781*
G75*
G02X269127Y337100I4544J-1552*
G01*
G75*
G02X259781Y335548I-4802*
G01*
X231328*
G75*
G02X230228Y336003I-3J1552*
G01*
X228682Y337548*
X188554*
Y337372*
X188691*
Y329963*
X188554*
Y329778*
G75*
G02X188097Y328678I-1552*
G01*
X187424Y328005*
G75*
G02X186325Y327548I-1100J1096*
G01*
X184825*
G75*
G02X183725Y328005J1552*
G01*
X183348Y328383*
G75*
G02X183284Y328450I1095J1101*
G01*
Y325603*
G75*
G02Y325601I-486J-1*
G01*
G75*
G02Y325600I-594J0*
G01*
G75*
G02X182857Y324569I-1459*
G01*
X180857Y322569*
G75*
G02X180774Y322492I-1033J1030*
G01*
X182803Y320463*
G75*
G02X183186Y319541I-920J-922*
G01*
Y315057*
G75*
G02X183524Y315641I1257J-339*
G01*
X184403Y316520*
G75*
G02X185325Y316902I922J-920*
G01*
X186325*
G75*
G02X187247Y316520J-1302*
G01*
X187921Y315845*
G75*
G02X188304Y314923I-920J-922*
G01*
Y314238*
X188691*
Y306929*
X188968Y306652*
X228182*
X229728Y308198*
G75*
G02X230828Y308652I1098J-1097*
G01*
X259781*
G75*
G02X269127Y307100I4544J-1552*
G01*
G75*
G02X259781Y305548I-4802*
G01*
X231468*
X229922Y304003*
G75*
G02X228822Y303548I-1098J1097*
G01*
X188325*
G75*
G02X187225Y304005J1552*
G01*
X185907Y305324*
G75*
G02X185450Y306423I1096J1100*
G01*
Y306829*
X175759*
Y302861*
X179968Y298652*
X228825*
G75*
G02X229924Y298196J-1552*
G01*
X233420Y294700*
G75*
G02X233877Y293600I-1096J-1100*
G01*
Y280743*
X235968Y278652*
X259781*
G75*
G02X269127Y277100I4544J-1552*
G01*
G75*
G02X259781Y275548I-4802*
G01*
X235325*
G75*
G02X234225Y276005J1552*
G01*
X231230Y279001*
G75*
G02X230773Y280100I1096J1100*
G01*
Y292957*
X228182Y295548*
X179325*
G75*
G02X178225Y296005J1552*
G01*
X173111Y301119*
G75*
G02X172655Y302219I1096J1100*
G01*
Y306829*
X169959*
Y314238*
X170188*
Y314923*
G75*
G02X170618Y315957I1459*
G01*
X171291Y316630*
G75*
G02X172325Y317060I1034J-1030*
G01*
X173524*
X172285Y318298*
X161356*
G75*
G02X160434Y318681J1302*
G01*
X156437Y322678*
G75*
G02X156054Y323600I920J922*
G01*
Y327203*
X153994*
Y334321*
X164656*
Y331195*
G75*
G02X164721Y330762I-1394J-433*
G01*
Y327268*
X164929Y327060*
X172220*
X172802Y327641*
X172325*
G75*
G02X171291Y328070J1459*
G01*
X170618Y328744*
G75*
G02X170188Y329778I1030J1034*
G01*
Y329963*
X169959*
Y337372*
X172655*
Y341597*
G75*
G02Y341600I596J1*
G01*
G75*
G02X173109Y342698I1552J0*
G01*
X178609Y348198*
G75*
G02X179710Y348652I1098J-1097*
G01*
X228682*
X248225Y368196*
G75*
G02X249325Y368652I1100J-1096*
G01*
X259781*
Y348652D02*
G75*
G02X269127Y347100I4544J-1552D01*
G01*
G75*
G02X259781Y345548I-4802*
G01*
X247796*
G75*
G02X240523Y347100I-3471J1552*
G01*
G75*
G02X247796Y348652I3802*
G01*
X259781*
Y318652D02*
G75*
G02X269127Y317100I4544J-1552D01*
G01*
G75*
G02X259781Y315548I-4802*
G01*
X247796*
G75*
G02X240523Y317100I-3471J1552*
G01*
G75*
G02X247796Y318652I3802*
G01*
X259781*
Y288652D02*
G75*
G02X269127Y287100I4544J-1552D01*
G01*
G75*
G02X259781Y285548I-4802*
G01*
X247796*
G75*
G02X240523Y287100I-3471J1552*
G01*
G75*
G02X247796Y288652I3802*
G01*
X259781*
Y258652D02*
G75*
G02X269127Y257100I4544J-1552D01*
G01*
G75*
G02X259781Y255548I-4802*
G01*
X247796*
G75*
G02X240523Y257100I-3471J1552*
G01*
G75*
G02X247796Y258652I3802*
G01*
X259781*
X155523Y369600D02*
G75*
G02X163127I3802D01*
G01*
G75*
G02X155523I-3802*
G01*
Y379600D02*
G75*
G02X163127I3802D01*
G01*
G75*
G02X155523I-3802*
G01*
X190523Y357100D02*
G75*
G02X198127I3802D01*
G01*
G75*
G02X190523I-3802*
G01*
Y377100D02*
G75*
G02X198127I3802D01*
G01*
G75*
G02X190523I-3802*
G01*
X200523Y357100D02*
G75*
G02X208127I3802D01*
G01*
G75*
G02X200523I-3802*
G01*
Y377100D02*
G75*
G02X208127I3802D01*
G01*
G75*
G02X200523I-3802*
G01*
X210523Y357100D02*
G75*
G02X218127I3802D01*
G01*
G75*
G02X210523I-3802*
G01*
Y377100D02*
G75*
G02X218127I3802D01*
G01*
G75*
G02X210523I-3802*
G01*
X220523Y357100D02*
G75*
G02X228127I3802D01*
G01*
G75*
G02X220523I-3802*
G01*
Y377100D02*
G75*
G02X228127I3802D01*
G01*
G75*
G02X220523I-3802*
G01*
X269523Y137100D02*
G75*
G02X279127I4802D01*
G01*
G75*
G02X269523I-4802*
G01*
Y167100D02*
G75*
G02X279127I4802D01*
G01*
G75*
G02X269523I-4802*
G01*
Y197100D02*
G75*
G02X279127I4802D01*
G01*
G75*
G02X269523I-4802*
G01*
Y227100D02*
G75*
G02X279127I4802D01*
G01*
G75*
G02X269523I-4802*
G01*
Y257100D02*
G75*
G02X279127I4802D01*
G01*
G75*
G02X269523I-4802*
G01*
Y287100D02*
G75*
G02X279127I4802D01*
G01*
G75*
G02X269523I-4802*
G01*
Y317100D02*
G75*
G02X279127I4802D01*
G01*
G75*
G02X269523I-4802*
G01*
Y347100D02*
G75*
G02X279127I4802D01*
G01*
G75*
G02X269523I-4802*
G01*
X350636Y348652D02*
G75*
G02X358327Y347100I3689J-1552D01*
G01*
G75*
G02X350636Y345548I-4002*
G01*
X344325*
G75*
G02X343225Y346005J1552*
G01*
X325681Y363549*
G75*
G02X320854Y365548I-1357J3552*
G01*
X308869*
G75*
G02X299523Y367100I-4544J1552*
G01*
G75*
G02X308869Y368652I4802*
G01*
X320854*
G75*
G02X327876Y365744I3471J-1552*
G01*
X344968Y348652*
X350636*
X362134Y182533D02*
G75*
G02X370138I4002D01*
G01*
G75*
G02X362134I-4002*
G01*
Y191195D02*
G75*
G02X370138I4002D01*
G01*
G75*
G02X362134I-4002*
G01*
Y199856D02*
G75*
G02X370138I4002D01*
G01*
G75*
G02X362134I-4002*
G01*
Y208518D02*
G75*
G02X370138I4002D01*
G01*
G75*
G02X362134I-4002*
G01*
Y217179D02*
G75*
G02X370138I4002D01*
G01*
G75*
G02X362134I-4002*
G01*
Y234502D02*
G75*
G02X370138I4002D01*
G01*
G75*
G02X362134I-4002*
G01*
Y243163D02*
G75*
G02X370138I4002D01*
G01*
G75*
G02X362134I-4002*
G01*
Y251825D02*
G75*
G02X370138I4002D01*
G01*
G75*
G02X362134I-4002*
G01*
Y260486D02*
G75*
G02X370138I4002D01*
G01*
G75*
G02X362134I-4002*
G01*
Y269148D02*
G75*
G02X370138I4002D01*
G01*
G75*
G02X362134I-4002*
G01*
Y277809D02*
G75*
G02X370138I4002D01*
G01*
G75*
G02X362134I-4002*
G01*
Y286470D02*
G75*
G02X370138I4002D01*
G01*
G75*
G02X362134I-4002*
G01*
Y295132D02*
G75*
G02X370138I4002D01*
G01*
G75*
G02X362134I-4002*
G01*
Y303793D02*
G75*
G02X370138I4002D01*
G01*
G75*
G02X362134I-4002*
G01*
Y312455D02*
G75*
G02X370138I4002D01*
G01*
G75*
G02X362134I-4002*
G01*
Y321116D02*
G75*
G02X370138I4002D01*
G01*
G75*
G02X362134I-4002*
G01*
Y329778D02*
G75*
G02X370138I4002D01*
G01*
G75*
G02X362134I-4002*
G01*
Y338439D02*
G75*
G02X370138I4002D01*
G01*
G75*
G02X362134I-4002*
G01*
Y347100D02*
G75*
G02X370138I4002D01*
G01*
G75*
G02X362134I-4002*
G01*
X12756Y23350D02*
G36*
X8928D01*
Y16707*
G75*
G02X12756Y23350I12326J-2677*
G01*
G37*
X162773D02*
G36*
X135877D01*
Y19321*
G75*
G02X138127Y15851I-1552J-3470*
G01*
G75*
G02X138046Y15074I-3803J0*
G01*
X139968Y13152*
X166267*
G75*
G02X165725Y13505I559J1450*
G01*
X165681Y13549*
G75*
G02X160523Y17100I-1357J3552*
G01*
G75*
G02X162773Y20571I3802*
G01*
Y23350*
G37*
X233151D02*
G36*
X178534D01*
Y22059*
X179283Y21310*
X231115*
X233151Y23350*
G37*
X366347D02*
G36*
X323778D01*
G75*
G02X312174I-5802*
G01*
X286377*
G75*
G02X274984Y21798I-5802J0*
G01*
X270575*
G75*
G02X269475Y22255I1J1554*
G01*
X268682Y23048*
X257796*
G75*
G02X250734Y23350I-3471J1552*
G01*
X237981*
X233036Y18394*
G75*
G02X231825Y17891I-1211J1208*
G01*
X178577*
G75*
G02X177366Y18392I-1J1711*
G01*
X175616Y20142*
G75*
G02X175115Y21350I1209J1209*
G01*
Y23350*
X165877*
Y20571*
G75*
G02X168127Y17100I-1552J-3471*
G01*
G75*
G02X168007Y16152I-3803*
G01*
X359149*
X366347Y23350*
G37*
X384719Y1704D02*
G36*
G75*
G02X374783Y14029I2676J12325D01*
G01*
G75*
G02Y14030I15038J0*
G01*
G75*
G02X378898Y23350I12613*
G01*
X375230*
X362384Y10505*
G75*
G02X361285Y10048I-1101J1098*
G01*
X139325*
G75*
G02X138225Y10505I1J1554*
G01*
X136192Y12539*
G75*
G02X130523Y15850I-1867J3312*
G01*
G75*
G02X132773Y19321I3803J0*
G01*
Y23350*
X82711*
X81894Y22533*
G75*
G02X81325Y22296I-569J565*
G01*
X74096*
Y17652*
X68553*
Y22296*
X65825*
G75*
G02X65256Y22533I0J802*
G01*
X64438Y23350*
X60825*
Y16100*
X58825Y14100*
X41825*
X32575Y23350*
X29752*
G75*
G02X33867Y14030I-8498J-9321*
G01*
G75*
G02X23931Y1704I-12613*
G01*
X384719*
G37*
X399721Y16707D02*
G36*
Y23350D01*
X395893*
G75*
G02X399721Y16707I-8498J-9321*
G01*
G37*
X23825Y32100D02*
G36*
X8928D01*
Y23350*
X12756*
G75*
G02X29752I8498J-9321*
G01*
X32575*
X23825Y32100*
G37*
X64438Y23350D02*
G36*
X60825Y26963D01*
Y23350*
X64438*
G37*
X129523Y32100D02*
G36*
X121407D01*
Y27608*
X117242*
Y32100*
X116407*
Y27608*
X112242*
Y32100*
X111407*
Y27608*
X107242*
Y32100*
X106407*
Y27608*
X102242*
Y32100*
X101407*
Y27608*
X97242*
Y32100*
X96407*
Y27608*
X92242*
Y32100*
X91407*
Y27608*
X87242*
Y32100*
X86407*
Y27608*
X83129*
Y24100*
Y24100*
G75*
G02X82892Y23531I-802*
G01*
X82711Y23350*
X132773*
Y27556*
G75*
G02X129523Y32100I1552J4544*
G01*
G37*
X159523D02*
G36*
X159127D01*
G75*
G02X149523I-4802*
G01*
X139127*
G75*
G02X135877Y27556I-4802*
G01*
Y23350*
X162773*
Y27556*
G75*
G02X159523Y32100I1552J4544*
G01*
G37*
X175115D02*
G36*
X169127D01*
G75*
G02X165877Y27556I-4802*
G01*
Y23350*
X175115*
Y32100*
G37*
X241881D02*
G36*
X238127D01*
G75*
G02X230854Y30548I-3802J0*
G01*
X218869*
G75*
G02X209523Y32100I-4544J1552*
G01*
X199127*
G75*
G02X189523I-4802*
G01*
X189127*
G75*
G02X179523I-4802*
G01*
X178534*
Y23350*
X233151*
X241881Y32100*
G37*
X366347Y23350D02*
G36*
X373504Y30507D01*
G75*
G02X371825Y30048I-1680J2848*
G01*
X291943*
X286283Y24389*
G75*
G02X286377Y23350I-5709J-1039*
G01*
X312174*
G75*
G02X323778I5802*
G01*
X366347*
G37*
X284655Y32100D02*
G36*
X246713D01*
X245533Y30921*
Y30921*
X237981Y23350*
X250734*
G75*
G02X250523Y24600I3590J1250*
G01*
Y24600*
G75*
G02X257796Y26152I3802J0*
G01*
X269325*
G75*
G02X270424Y25696I-1J-1554*
G01*
X271218Y24902*
X274984*
G75*
G02X281613Y29059I5591J-1552*
G01*
X284655Y32100*
G37*
X395893Y23350D02*
G36*
X399721D01*
Y32100*
X383980*
X375230Y23350*
X378898*
G75*
G02X395893I8498J-9321*
G01*
G37*
X23825Y32100D02*
G36*
X19825Y36100D01*
Y54846*
X8928*
Y32100*
X23825*
G37*
X144876Y54846D02*
G36*
X72629D01*
Y47904*
X75325*
G75*
G02X75894Y47668I0J-802*
G01*
X80158Y43404*
X81825*
G75*
G02X82394Y43168I0J-802*
G01*
X82892Y42670*
G75*
G02X83129Y42101I-565J-569*
G01*
Y42100*
Y36888*
X86407*
Y32100*
X87242*
Y36888*
X91407*
Y32100*
X92242*
Y36888*
X96407*
Y32100*
X97242*
Y36888*
X101407*
Y32100*
X102242*
Y36888*
X102773*
Y37100*
G75*
G02X103230Y38200I1554J-1*
G01*
X114725Y49696*
G75*
G02X115825Y50152I1101J-1098*
G01*
X140182*
X144876Y54846*
G37*
X107242Y32100D02*
G36*
Y36888D01*
X107773*
Y37600*
G75*
G02X108230Y38700I1554J-1*
G01*
X116225Y46696*
G75*
G02X116767Y47048I1100J-1097*
G01*
X116468*
X106307Y36888*
X106407*
Y32100*
X107242*
G37*
X112242D02*
G36*
Y36888D01*
X112773*
Y38097*
Y38100*
Y38100*
G75*
G02X113228Y39198I1551*
G01*
X117728Y43698*
G75*
G02X118267Y44048I1100J-1101*
G01*
X117968*
X110877Y36957*
Y36888*
X111407*
Y32100*
X112242*
G37*
X117242D02*
G36*
Y36888D01*
X117615*
Y38600*
G75*
G02X117808Y39389I1711*
G01*
X115877Y37457*
Y36888*
X116407*
Y32100*
X117242*
G37*
X175115D02*
G36*
Y35142D01*
X172367Y37891*
X121034*
Y36888*
X121407*
Y32100*
X129523*
G75*
G02X139127I4802*
G01*
X149523*
G75*
G02X159127I4802*
G01*
X159523*
G75*
G02X169127I4802*
G01*
X175115*
G37*
X359825Y54846D02*
G36*
X357746D01*
G75*
G02X357863Y53350I-9544J-1496*
G01*
G75*
G02X338543I-9660*
G01*
G75*
G02Y53351I9023J0*
G01*
G75*
G02X338659Y54846I9659J0*
G01*
X285670*
Y49394*
G75*
G02X285213Y48294I-1554J1*
G01*
X280424Y43505*
G75*
G02X279325Y43048I-1101J1098*
G01*
X257796*
G75*
G02X250523Y44600I-3471J1552*
G01*
Y44600*
G75*
G02X257796Y46152I3802J0*
G01*
X278682*
X282566Y50037*
Y54846*
X275775*
G75*
G02X266871I-4452*
G01*
X229016*
X215877Y41707*
Y36644*
G75*
G02X218869Y33652I-1553J-4545*
G01*
X230854*
G75*
G02X238127Y32100I3471J-1552*
G01*
X241881*
X243113Y33335*
X243116Y33339*
X248116Y38339*
G75*
G02X249327Y38839I1209J-1210*
G01*
X267212*
G75*
G02X275775Y37130I4111J-1709*
G01*
G75*
G02X267212Y35420I-4452*
G01*
X250033*
X246713Y32100*
X284655*
X288240Y35685*
G75*
G02X290579Y36652I2335J-2335*
G01*
X370457*
X376149Y42344*
X359825*
Y54846*
G37*
X174876D02*
G36*
X149266D01*
X141922Y47503*
G75*
G02X141383Y47152I-1100J1101*
G01*
X167182*
X174876Y54846*
G37*
X204876D02*
G36*
X179266D01*
X168924Y44505*
G75*
G02X168383Y44152I-1100J1097*
G01*
X194182*
X204876Y54846*
G37*
X224626D02*
G36*
X209266D01*
X195924Y41505*
G75*
G02X194825Y41048I-1101J1098*
G01*
X173983*
G75*
G02X174283Y40809I-926J-1469*
G01*
X178033Y37059*
G75*
G02X178534Y35850I-1209J-1209*
G01*
Y32100*
X179523*
G75*
G02X189127I4802*
G01*
X189523*
G75*
G02X199127I4802*
G01*
X209523*
G75*
G02X212773Y36644I4802*
G01*
Y42350*
G75*
G02X213230Y43450I1554J-1*
G01*
X224626Y54846*
G37*
X394080D02*
G36*
Y42844D01*
G75*
G02X393623Y41744I-1554J1*
G01*
X383980Y32100*
X399721*
Y54846*
X394080*
G37*
X19825D02*
G36*
Y62100D01*
X8928*
Y54846*
X19825*
G37*
X149523Y62100D02*
G36*
X139127D01*
G75*
G02X129523I-4802*
G01*
X71711*
X72392Y61420*
G75*
G02X72629Y60851I-565J-569*
G01*
Y60850*
Y54846*
X144876*
X150014Y59985*
G75*
G02X149523Y62100I4307J2115*
G01*
G37*
X353325Y62100D02*
G36*
X352296D01*
G75*
G02X357746Y54846I-4094J-8750*
G01*
X359825*
Y55600*
X353325Y62100*
G37*
X179523D02*
G36*
X169127D01*
G75*
G02X159523I-4802*
G01*
X159127*
G75*
G02X152209Y57790I-4802*
G01*
X149266Y54846*
X174876*
X180014Y59985*
G75*
G02X179523Y62100I4307J2115*
G01*
G37*
X209523Y62100D02*
G36*
X199127D01*
G75*
G02X189523I-4802*
G01*
X189127*
G75*
G02X182209Y57790I-4802*
G01*
X179266Y54846*
X204876*
X210014Y59985*
G75*
G02X209523Y62100I4307J2115*
G01*
G37*
X231880Y62100D02*
G36*
X219127D01*
G75*
G02X212209Y57790I-4802*
G01*
X209266Y54846*
X224626*
X231880Y62100*
G37*
X277645D02*
G36*
X236270D01*
X229016Y54846*
X266871*
G75*
G02X275775I4452*
G01*
X282566*
Y56749*
G75*
G02X277645Y62100I1552J6365*
G01*
G37*
X338659Y54846D02*
G36*
G75*
G02X339448Y57435I9541J-1495D01*
G01*
X337071Y59812*
X289777*
G75*
G02X285670Y56749I-5661J3304*
G01*
Y54846*
X338659*
G37*
X394080Y62100D02*
G36*
Y54846D01*
X399721*
Y62100*
X394080*
G37*
X19825D02*
G36*
Y66100D01*
X48825*
Y63987*
X53521Y68683*
Y72100*
X8928*
Y62100*
X19825*
G37*
X241880Y72100D02*
G36*
X219127D01*
G75*
G02X209523I-4802*
G01*
X199127*
G75*
G02X189523I-4802*
G01*
X189127*
G75*
G02X179523I-4802*
G01*
X169127*
G75*
G02X159523I-4802*
G01*
X159127*
G75*
G02X149523I-4802*
G01*
X139127*
G75*
G02X129523I-4802*
G01*
X121407*
Y64813*
X117242*
Y72100*
X116407*
Y64813*
X112242*
Y72100*
X111407*
Y64813*
X107242*
Y72100*
X106407*
Y64813*
X102242*
Y72100*
X101407*
Y64813*
X97242*
Y72100*
X96407*
Y64813*
X92242*
Y72100*
X91407*
Y64813*
X87242*
Y72100*
X86407*
Y64813*
X82242*
Y72100*
X81407*
Y64813*
X77242*
Y72100*
X65129*
Y68683*
X71711Y62100*
X129523*
G75*
G02X139127I4802*
G01*
X149523*
G75*
G02X159127I4802*
G01*
X159523*
G75*
G02X169127I4802*
G01*
X179523*
G75*
G02X189127I4802*
G01*
X189523*
G75*
G02X199127I4802*
G01*
X209523*
G75*
G02X219127I4802*
G01*
X231880*
X241880Y72100*
G37*
X353325Y62100D02*
G36*
X345825Y69600D01*
Y72100*
X321222*
G75*
G02X320825Y72048I-398J1503*
G01*
X246218*
X236270Y62100*
X277645*
G75*
G02X277566Y63114I6473J1015*
G01*
G75*
G02X284118Y69666I6552*
G01*
G75*
G02X289777Y66416I0J-6553*
G01*
X338439*
G75*
G02X340777Y65446I0J-3301*
G01*
X344118Y62105*
G75*
G02X352296Y62100I4085J-8755*
G01*
X353325*
G37*
X381523Y72100D02*
G36*
X377794D01*
X381523Y68372*
Y72100*
G37*
X394080D02*
G36*
Y62100D01*
X399721*
Y72100*
X394080*
G37*
X53521Y84600D02*
G36*
X8928D01*
Y72100*
X53521*
Y84600*
G37*
X102242Y72100D02*
G36*
Y74093D01*
X103023*
Y84600*
X65129*
Y72100*
X77242*
Y74093*
X81407*
Y72100*
X82242*
Y74093*
X86407*
Y72100*
X87242*
Y74093*
X91407*
Y72100*
X92242*
Y74093*
X96407*
Y72100*
X97242*
Y74093*
X101407*
Y72100*
X102242*
G37*
X107242D02*
G36*
Y74093D01*
X108023*
Y84600*
X105627*
Y74093*
X106407*
Y72100*
X107242*
G37*
X112242D02*
G36*
Y74093D01*
X113023*
Y84600*
X110627*
Y74093*
X111407*
Y72100*
X112242*
G37*
X117242D02*
G36*
Y74093D01*
X118023*
Y84600*
X115627*
Y74093*
X116407*
Y72100*
X117242*
G37*
X129523D02*
G36*
G75*
G02X132773Y76644I4802D01*
G01*
Y84600*
X120627*
Y74093*
X121407*
Y72100*
X129523*
G37*
X159523D02*
G36*
G75*
G02X162773Y76644I4802D01*
G01*
Y84600*
X135877*
Y76644*
G75*
G02X139127Y72100I-1552J-4544*
G01*
X149523*
G75*
G02X159127I4802*
G01*
X159523*
G37*
X381523Y84600D02*
G36*
X334020D01*
X321924Y72505*
G75*
G02X321222Y72100I-1100J1098*
G01*
X345825*
Y79600*
X348325Y82100*
X367794*
X377794Y72100*
X381523*
Y84600*
G37*
X189523Y72100D02*
G36*
G75*
G02X192773Y76644I4802D01*
G01*
Y84600*
X165877*
Y76644*
G75*
G02X169127Y72100I-1552J-4544*
G01*
X179523*
G75*
G02X189127I4802*
G01*
X189523*
G37*
X329630Y84600D02*
G36*
X321961D01*
X321394Y84033*
G75*
G02X321393Y84032I-2J1*
G01*
G75*
G02X321392Y84031I-2J2*
G01*
X317394Y80033*
G75*
G02X316825Y79796I-569J565*
G01*
X300825*
G75*
G02X300021Y80600J804*
G01*
Y84600*
X277864*
Y82518*
X268581*
Y84600*
X195877*
Y76644*
G75*
G02X199127Y72100I-1552J-4544*
G01*
X209523*
G75*
G02X219127I4802*
G01*
X241880*
X244475Y74696*
G75*
G02X245575Y75152I1101J-1098*
G01*
X320182*
X329630Y84600*
G37*
X394080D02*
G36*
Y72100D01*
X399721*
Y84600*
X394080*
G37*
X53521D02*
G36*
Y89767D01*
X50257Y93031*
G75*
G02X50021Y93600I565J569*
G01*
Y93600*
Y94329*
X48876*
Y97100*
X47774*
Y94329*
X41876*
Y95048*
X40774*
Y94329*
X34876*
Y97100*
X33774*
Y94329*
X27876*
Y97100*
X8928*
Y84600*
X53521*
G37*
X112322Y97100D02*
G36*
X59212D01*
X59658Y96654*
X62325*
G75*
G02X62894Y96418I0J-802*
G01*
X64892Y94420*
G75*
G02X65129Y93851I-565J-569*
G01*
Y93850*
Y84600*
X103023*
Y87262*
G75*
G02X103406Y88184I1304J0*
G01*
X112322Y97100*
G37*
X108023Y84600D02*
G36*
Y89119D01*
X105627Y86722*
Y84600*
X108023*
G37*
X113023D02*
G36*
Y91559D01*
X110627Y89163*
Y84600*
X113023*
G37*
X118023D02*
G36*
Y94000D01*
X115627Y91604*
Y84600*
X118023*
G37*
X300021D02*
G36*
Y87600D01*
Y87601*
G75*
G02X300257Y88170I802*
G01*
X300756Y88668*
G75*
G02X300841Y88743I585J-584*
G01*
X292483Y97100*
X265400*
X266598Y95902*
X268581*
Y96683*
X277864*
Y92518*
X268581*
Y93298*
X266059*
G75*
G02X265137Y93681I0J1304*
G01*
X261718Y97100*
X261591*
X267789Y90902*
X268581*
Y91683*
X277864*
Y87518*
X268581*
Y88298*
X267250*
G75*
G02X266328Y88681I0J1304*
G01*
X258285Y96724*
X157589*
Y96435*
X150470*
Y97100*
X133179*
Y96435*
X126061*
Y97100*
X123666*
X120627Y94061*
Y84600*
X132773*
Y84880*
G75*
G02X130522Y88350I1552J3471*
G01*
G75*
G02X134325Y92152I3802*
G01*
G75*
G02X138127Y88350J-3802*
G01*
G75*
G02X135877Y84880I-3802*
G01*
Y84600*
X162773*
Y84880*
G75*
G02X160522Y88350I1552J3471*
G01*
G75*
G02X164325Y92152I3802*
G01*
G75*
G02X168127Y88350J-3802*
G01*
G75*
G02X165877Y84880I-3802*
G01*
Y84600*
X192773*
Y84880*
G75*
G02X190522Y88350I1552J3471*
G01*
G75*
G02X194325Y92152I3802*
G01*
G75*
G02X198127Y88350J-3802*
G01*
G75*
G02X195877Y84880I-3802*
G01*
Y84600*
X268581*
Y86683*
X277864*
Y84600*
X300021*
G37*
X381523D02*
G36*
Y85233D01*
X369655Y97100*
X345877*
G75*
G02X345420Y96001I-1554J1*
G01*
X334020Y84600*
X381523*
G37*
X316688Y97100D02*
G36*
X301166D01*
X302364Y95902*
X305785*
Y96683*
X315069*
Y95481*
X316688Y97100*
G37*
X342130D02*
G36*
X326629D01*
Y89600*
Y89600*
G75*
G02X326392Y89031I-802*
G01*
X321961Y84600*
X329630*
X342130Y97100*
G37*
X394080Y84600D02*
G36*
X399721D01*
Y97100*
X387392*
X393625Y90867*
G75*
G02X394080Y89770I-1096J-1097*
G01*
Y89769*
Y89767*
Y84600*
G37*
X46021Y110600D02*
G36*
X39498D01*
Y106652*
X14860*
Y110600*
X8928*
Y97100*
X27876*
Y99872*
X33774*
Y97100*
X34876*
Y99872*
X40774*
Y99152*
X41876*
Y99872*
X47774*
Y97100*
X48876*
Y99872*
X50021*
Y100046*
X48326*
G75*
G02X47715Y100327I-1J803*
G01*
X46215Y102077*
G75*
G02X46021Y102600I609J523*
G01*
Y102600*
Y110600*
G37*
X126061D02*
G36*
X63129D01*
Y103100*
Y103100*
G75*
G02X62892Y102531I-802*
G01*
X58629Y98267*
Y97683*
X59212Y97100*
X112322*
X124403Y109181*
G75*
G02X125325Y109564I922J-921*
G01*
X126061*
Y110600*
G37*
Y97100D02*
G36*
Y99283D01*
X125848*
X123666Y97100*
X126061*
G37*
X150470Y110600D02*
G36*
X133179D01*
Y97100*
X150470*
Y110600*
G37*
X369655Y97100D02*
G36*
X356155Y110600D01*
X345877*
Y97100*
X369655*
G37*
X261591D02*
G36*
X261718D01*
X259535Y99283*
X259164*
G75*
G02X259747Y98945I-341J-1261*
G01*
X261591Y97100*
G37*
X265330Y110600D02*
G36*
X262196D01*
X261497Y109902*
G75*
G02X260914Y109564I-924J923*
G01*
X264285*
X265241Y110520*
G75*
G02X265330Y110600I922J-920*
G01*
G37*
X292483Y97100D02*
G36*
X283406Y106178D01*
G75*
G02X283023Y107100I921J922*
G01*
Y110600*
X277864*
Y107518*
X268581*
Y108298*
X266703*
X265747Y107343*
G75*
G02X264825Y106960I-922J921*
G01*
X262914*
G75*
G02X263497Y106622I-341J-1261*
G01*
X264217Y105902*
X268581*
Y106683*
X277864*
Y102518*
X268581*
Y103298*
X263677*
G75*
G02X262755Y103681I0J1304*
G01*
X262035Y104401*
X261664*
G75*
G02X262247Y104063I-341J-1261*
G01*
X265407Y100902*
X268581*
Y101683*
X277864*
Y97518*
X268581*
Y98298*
X264868*
G75*
G02X263946Y98681I0J1304*
G01*
X260785Y101842*
X260414*
G75*
G02X260997Y101504I-341J-1261*
G01*
X265400Y97100*
X292483*
G37*
X342773Y110600D02*
G36*
X324596D01*
Y107652*
X319053*
Y110600*
X315069*
Y107518*
X305785*
Y108298*
X302325*
G75*
G02X301403Y108681I0J1304*
G01*
X299483Y110600*
X297666*
X302364Y105902*
X305785*
Y106683*
X315069*
Y102518*
X305785*
Y103298*
X301825*
G75*
G02X300903Y103681I0J1304*
G01*
X293983Y110600*
X292666*
X302364Y100902*
X305785*
Y101683*
X315069*
Y97518*
X305785*
Y98298*
X301825*
G75*
G02X300903Y98681I0J1304*
G01*
X288983Y110600*
X287666*
X301166Y97100*
X316688*
X317021Y97433*
Y106600*
G75*
G02X317825Y107404I804*
G01*
X325825*
G75*
G02X326629Y106600J-804*
G01*
Y97100*
X342130*
X342773Y97743*
Y110600*
G37*
X370273D02*
G36*
X369524D01*
X370585Y109539*
G75*
G02X370273Y110473I1243J935*
G01*
Y110474*
Y110476*
Y110600*
G37*
X387392Y97100D02*
G36*
X399721D01*
Y110600*
X373892*
X387392Y97100*
G37*
X14860Y122100D02*
G36*
X8928D01*
Y110600*
X14860*
Y122100*
G37*
X126061D02*
G36*
X85629D01*
Y122100*
G75*
G02X85392Y121531I-802*
G01*
X84394Y120533*
G75*
G02X83825Y120296I-569J565*
G01*
X67096*
Y115152*
X61553*
Y120296*
X46325*
G75*
G02X45756Y120533I0J802*
G01*
X45257Y121031*
G75*
G02X45021Y121600I565J569*
G01*
Y121600*
Y122100*
X39498*
Y110600*
X46021*
Y111850*
Y111851*
G75*
G02X46215Y112374I803*
G01*
X47715Y114124*
G75*
G02X48326Y114404I610J-522*
G01*
X60825*
G75*
G02X61394Y114168I0J-802*
G01*
X62892Y112670*
G75*
G02X63129Y112101I-565J-569*
G01*
Y112100*
Y110600*
X126061*
Y122100*
G37*
X150470Y110600D02*
G36*
Y119755D01*
X140868*
G75*
G02X139946Y120138I0J1304*
G01*
X137983Y122100*
X133179*
Y110600*
X150470*
G37*
X174023Y122100D02*
G36*
X166459D01*
X164497Y120138*
G75*
G02X163575Y119755I-922J921*
G01*
X157589*
Y117241*
X175125*
G75*
G02X173173Y119600I450J2359*
G01*
G75*
G02X174023Y121433I2402*
G01*
Y122100*
G37*
X200773D02*
G36*
X177127D01*
Y121433*
G75*
G02X177976Y119600I-1552J-1833*
G01*
G75*
G02X176025Y117241I-2402*
G01*
X201176*
G75*
G02X199922Y119350I1148J2109*
G01*
G75*
G02X200773Y121183I2401J0*
G01*
Y122100*
G37*
X356155Y110600D02*
G36*
X351993Y114763D01*
G75*
G02X351023Y117100I2333J2339*
G01*
Y122100*
X345877*
Y110600*
X356155*
G37*
X262395Y122100D02*
G36*
X215877D01*
Y121933*
G75*
G02X216727Y120100I-1552J-1833*
G01*
G75*
G02X211923I-2402*
G01*
G75*
G02X212773Y121933I2402*
G01*
Y122100*
X203877*
Y121183*
G75*
G02X204727Y119350I-1552J-1833*
G01*
G75*
G02X203474Y117241I-2402*
G01*
X257535*
X262395Y122100*
G37*
X283023D02*
G36*
X266078D01*
X258997Y115020*
G75*
G02X258414Y114682I-924J923*
G01*
X258785*
X264623Y120520*
G75*
G02X265545Y120902I922J-921*
G01*
X268581*
Y121683*
X277864*
Y117518*
X268581*
Y118298*
X266085*
X260247Y112461*
G75*
G02X259664Y112123I-924J923*
G01*
X260035*
X263432Y115520*
G75*
G02X264354Y115902I922J-921*
G01*
X268581*
Y116683*
X277864*
Y112518*
X268581*
Y113298*
X264894*
X262196Y110600*
X265330*
G75*
G02X266163Y110902I834J-1002*
G01*
X268581*
Y111683*
X277864*
Y110600*
X283023*
Y122100*
G37*
X287666Y110600D02*
G36*
X288983D01*
X287627Y111957*
Y110640*
X287666Y110600*
G37*
X292666D02*
G36*
X293983D01*
X289627Y114957*
Y113640*
X292666Y110600*
G37*
X299483D02*
G36*
X291627Y118457D01*
Y116640*
X297666Y110600*
X299483*
G37*
X342773Y122100D02*
G36*
X301166D01*
X302364Y120902*
X305785*
Y121683*
X315069*
Y117518*
X305785*
Y118298*
X301825*
G75*
G02X300903Y118681I0J1304*
G01*
X297483Y122100*
X296166*
X302364Y115902*
X305785*
Y116683*
X315069*
Y112518*
X305785*
Y113298*
X301825*
G75*
G02X300903Y113681I0J1304*
G01*
X293627Y120957*
Y120140*
X302864Y110902*
X305785*
Y111683*
X315069*
Y110600*
X319053*
Y113549*
X324596*
Y110600*
X342773*
Y122100*
G37*
X358652D02*
G36*
X357627D01*
Y118468*
X358684Y117411*
G75*
G02X358652Y117726I1555J319*
G01*
Y122100*
G37*
X370273Y110600D02*
G36*
Y122100D01*
X361756*
Y118369*
X369524Y110600*
X370273*
G37*
X373892D02*
G36*
X399721D01*
Y122100*
X388127*
G75*
G02X380523I-3802*
G01*
X373377*
Y111116*
X373892Y110600*
G37*
X45021Y122100D02*
G36*
Y131600D01*
Y131601*
G75*
G02X45257Y132170I802*
G01*
X45634Y132546*
X42075*
G75*
G02X41506Y132783I0J802*
G01*
X40325Y133963*
X39144Y132783*
G75*
G02X38575Y132546I-569J565*
G01*
X14825*
G75*
G02X14256Y132783I0J802*
G01*
X13757Y133281*
G75*
G02X13521Y133850I565J569*
G01*
Y133850*
Y137100*
X8928*
Y122100*
X14860*
Y127549*
X39498*
Y122100*
X45021*
G37*
X126061D02*
G36*
Y127766D01*
X132318*
X126285Y133798*
X83596*
Y132152*
X78053*
Y137100*
X76596*
Y132152*
X71053*
Y137100*
X70129*
Y129433*
X70158Y129404*
X71053*
Y131049*
X76596*
Y129404*
X78053*
Y131049*
X83596*
Y129404*
X84325*
G75*
G02X84894Y129168I0J-802*
G01*
X85392Y128670*
G75*
G02X85629Y128101I-565J-569*
G01*
Y128100*
Y122100*
X126061*
G37*
X126233Y137100D02*
G36*
X83596D01*
Y136402*
X126825*
G75*
G02X126936Y136398I0J-1309*
G01*
X126233Y137100*
G37*
X142521D02*
G36*
X129916D01*
X142098Y124918*
X142870*
X142757Y125031*
G75*
G02X142521Y125600I565J569*
G01*
Y125600*
Y137100*
G37*
X137983Y122100D02*
G36*
X133179Y126905D01*
Y122100*
X137983*
G37*
X358652Y137100D02*
G36*
X357627D01*
Y122100*
X358652*
Y137100*
G37*
X195273D02*
G36*
X182377D01*
Y135243*
X182656Y134965*
Y135541*
X194494*
Y134519*
X194548*
X195273Y135243*
Y137100*
G37*
X212773D02*
G36*
X198377D01*
Y134600*
G75*
G02X197920Y133501I-1554J1*
G01*
X196291Y131871*
G75*
G02X195191Y131415I-1101J1098*
G01*
X194494*
Y130392*
X182656*
Y131415*
X182459*
G75*
G02X181359Y131871I1J1554*
G01*
X179730Y133501*
G75*
G02X179273Y134600I1098J1101*
G01*
Y137100*
X167627*
Y123807*
G75*
G02X167244Y122885I-1304J0*
G01*
X166459Y122100*
X174023*
Y128797*
X172022*
Y136404*
X179128*
Y128797*
X177127*
Y122100*
X200773*
Y128797*
X198774*
Y136404*
X205876*
Y128797*
X203877*
Y122100*
X212773*
Y137100*
G37*
X296166Y122100D02*
G36*
X297483D01*
X295627Y123957*
Y122640*
X296166Y122100*
G37*
X283023Y137100D02*
G36*
X279127D01*
G75*
G02X269523I-4802*
G01*
X269127*
G75*
G02X259781Y135548I-4802*
G01*
X247796*
G75*
G02X240523Y137100I-3471J1552*
G01*
Y137100*
X215877*
Y122100*
X262395*
X265814Y125520*
G75*
G02X266736Y125902I922J-921*
G01*
X268581*
Y126683*
X277864*
Y122518*
X268581*
Y123298*
X267276*
X266078Y122100*
X283023*
Y137100*
G37*
X342773D02*
G36*
X309127D01*
G75*
G02X299627Y136107I-4802*
G01*
Y128640*
X302364Y125902*
X305785*
Y126683*
X315069*
Y122518*
X305785*
Y123298*
X301825*
G75*
G02X300903Y123681I0J1304*
G01*
X297627Y126957*
Y125640*
X301166Y122100*
X342773*
Y137100*
G37*
X351023D02*
G36*
X345877D01*
Y122100*
X351023*
Y137100*
G37*
X370273D02*
G36*
X361756D01*
Y122100*
X370273*
Y137100*
G37*
X373377D02*
G36*
Y122100D01*
X380523*
G75*
G02X388127I3802*
G01*
X399721*
Y137100*
X373377*
G37*
X13521D02*
G36*
Y147100D01*
X8928*
Y137100*
X13521*
G37*
X40021Y147100D02*
G36*
X38569D01*
Y144856*
X32238*
Y147100*
X30596*
Y144652*
X25053*
Y147100*
X19129*
Y143904*
X25053*
G75*
G02X25720Y143549I0J-804*
G01*
X29930*
G75*
G02X30596Y143904I667J-449*
G01*
X38825*
G75*
G02X39394Y143668I0J-802*
G01*
X40021Y143041*
Y147100*
G37*
X71053Y137100D02*
G36*
Y138049D01*
X72273*
Y139767*
G75*
G02X71423Y141600I1552J1833*
G01*
G75*
G02X72273Y143433I2402*
G01*
Y147100*
X56596*
Y142152*
X51053*
Y147100*
X48411*
Y141404*
X51053*
G75*
G02X51720Y141049I0J-804*
G01*
X55930*
G75*
G02X56596Y141404I667J-449*
G01*
X68825*
G75*
G02X69394Y141168I0J-802*
G01*
X69892Y140670*
G75*
G02X70129Y140101I-565J-569*
G01*
Y140100*
Y137100*
X71053*
G37*
X78053D02*
G36*
Y138049D01*
X79273*
Y147100*
X75377*
Y143433*
G75*
G02X76227Y141600I-1552J-1833*
G01*
G75*
G02X75377Y139767I-2402*
G01*
Y138049*
X76596*
Y137100*
X78053*
G37*
X142521D02*
G36*
Y147100D01*
X82377*
Y138049*
X83596*
Y137100*
X126233*
X123035Y140298*
X88343*
G75*
G02X83923Y141600I-2019J1302*
G01*
G75*
G02X88343Y142902I2402*
G01*
X123575*
G75*
G02X124497Y142520I0J-1304*
G01*
X129916Y137100*
X142521*
G37*
X358652Y147100D02*
G36*
X357627D01*
Y137100*
X358652*
Y147100*
G37*
X190615D02*
G36*
X186534D01*
Y143809*
X190615*
Y147100*
G37*
X212773D02*
G36*
X194034D01*
Y143809*
X194494*
Y138659*
X182656*
Y143809*
X183115*
Y147100*
X165009*
G75*
G02X165227Y146100I-2184J-1000*
G01*
Y146100*
G75*
G02X161870Y143896I-2402*
G01*
X167244Y138522*
G75*
G02X167627Y137600I-921J-922*
G01*
Y137100*
X179273*
Y140048*
X179128*
Y137797*
X172022*
Y145404*
X179128*
Y143152*
X180075*
G75*
G02X181174Y142696I-1J-1554*
G01*
X181920Y141950*
G75*
G02X182377Y140850I-1098J-1101*
G01*
Y137100*
X195273*
Y140597*
Y140600*
Y140600*
G75*
G02X195728Y141698I1551*
G01*
X196728Y142698*
G75*
G02X197828Y143152I1098J-1098*
G01*
X198774*
Y145404*
X205876*
Y137797*
X198774*
Y140048*
X198468*
X198377Y139957*
Y137100*
X212773*
Y147100*
G37*
X283023Y137100D02*
G36*
Y146561D01*
X282483Y147100*
X215877*
Y137100*
X240523*
G75*
G02X247796Y138652I3802J0*
G01*
X259781*
G75*
G02X269127Y137100I4544J-1552*
G01*
X269523*
G75*
G02X279127I4802*
G01*
X283023*
G37*
X342773Y147100D02*
G36*
X299627D01*
Y138094*
G75*
G02X309127Y137100I4698J-994*
G01*
X342773*
Y147100*
G37*
X351023D02*
G36*
X345877D01*
Y137100*
X351023*
Y147100*
G37*
X370273D02*
G36*
X361756D01*
Y137100*
X370273*
Y147100*
G37*
X373377D02*
G36*
Y137100D01*
X399721*
Y147100*
X388127*
G75*
G02X380523I-3802*
G01*
X373377*
G37*
X13521Y151100D02*
G36*
X8928D01*
Y147100*
X13521*
Y151100*
G37*
X72273D02*
G36*
X19129D01*
Y147100*
X25053*
Y150549*
X30596*
Y147100*
X32238*
Y148825*
X38569*
Y147100*
X40021*
Y147600*
Y147601*
G75*
G02X40257Y148170I802*
G01*
X40756Y148668*
G75*
G02X41325Y148904I569J-565*
G01*
X42081*
G75*
G02X42430Y148825J-804*
G01*
X48411*
Y147100*
X51053*
Y148049*
X56596*
Y147100*
X72273*
Y151100*
G37*
X79273D02*
G36*
X75377D01*
Y147100*
X79273*
Y151100*
G37*
X142521Y147100D02*
G36*
Y151100D01*
X93344*
Y148152*
X87805*
Y151100*
X82377*
Y147100*
X142521*
G37*
X358652Y151100D02*
G36*
X357627D01*
Y147100*
X358652*
Y151100*
G37*
X174876D02*
G36*
X173774D01*
Y148081*
X167876*
Y151100*
X159666*
X162318Y148448*
G75*
G02X165009Y147100I506J-2348*
G01*
X183115*
Y147652*
X182053*
Y149048*
X180774*
Y148081*
X174876*
Y151100*
G37*
X189553D02*
G36*
X187596D01*
Y147652*
X186534*
Y147100*
X190615*
Y147652*
X189553*
Y151100*
G37*
X212773D02*
G36*
X209522D01*
Y148081*
X203628*
Y151100*
X202522*
Y148081*
X196628*
Y149298*
X196419*
G75*
G02X195575Y149048I-844J1302*
G01*
X195096*
Y147652*
X194034*
Y147100*
X212773*
Y151100*
G37*
X282483Y147100D02*
G36*
X278483Y151100D01*
X215877*
Y147100*
X282483*
G37*
X285023Y151100D02*
G36*
X282166D01*
X285023Y148244*
Y151100*
G37*
X342773D02*
G36*
X299627D01*
Y147100*
X342773*
Y151100*
G37*
X351023D02*
G36*
X345877D01*
Y147100*
X351023*
Y151100*
G37*
X370273D02*
G36*
X361756D01*
Y147100*
X370273*
Y151100*
G37*
X373377D02*
G36*
Y147100D01*
X380523*
G75*
G02X388127I3802*
G01*
X399721*
Y151100*
X373377*
G37*
X13521Y159277D02*
G36*
X8928D01*
Y151100*
X13521*
Y159277*
G37*
X81316D02*
G36*
X19129D01*
Y151100*
X72273*
Y153600*
G75*
G02X72730Y154700I1554J-1*
G01*
X75725Y157696*
G75*
G02X76825Y158152I1101J-1098*
G01*
X80725*
X81316Y158743*
Y159277*
G37*
X79273Y151100D02*
G36*
Y152350D01*
G75*
G02X79730Y153450I1554J-1*
G01*
X81328Y155048*
X77468*
X75377Y152957*
Y151100*
X79273*
G37*
X142521D02*
G36*
Y159277D01*
X104784*
Y159008*
G75*
G02X105727Y157101I-1459J-1907*
G01*
Y157100*
G75*
G02X100923I-2402*
G01*
Y157101*
G75*
G02X101865Y159008I2401*
G01*
Y159277*
X101829*
G75*
G02X97820I-2004J1324*
G01*
X93344*
Y155152*
X87805*
Y159277*
X86979*
Y156953*
G75*
G02X86522Y155853I-1554J1*
G01*
X82377Y151707*
Y151100*
X87805*
Y154049*
X93344*
Y151100*
X142521*
G37*
X358652Y159277D02*
G36*
X357627D01*
Y151100*
X358652*
Y159277*
G37*
X176820D02*
G36*
X176341D01*
G75*
G02X177343Y158402I-1016J-2176*
G01*
X177856*
G75*
G02X176820Y159277I969J2198*
G01*
G37*
X182053D02*
G36*
X180829D01*
G75*
G02X179793Y158402I-2004J1324*
G01*
X182053*
Y159277*
G37*
X212773D02*
G36*
X195096D01*
Y154652*
X189553*
Y159277*
X187596*
Y154652*
X182053*
Y155798*
X177343*
G75*
G02X172923Y157100I-2019J1302*
G01*
G75*
G02X174309Y159277I2402*
G01*
X157127*
Y153640*
X159666Y151100*
X167876*
Y153620*
X173774*
Y151100*
X174876*
Y153620*
X180774*
Y152152*
X182053*
Y153549*
X187596*
Y151100*
X189553*
Y153549*
X195096*
Y152327*
G75*
G02X195575Y152402I477J-1467*
G01*
X196628*
Y153620*
X202522*
Y151100*
X203628*
Y153620*
X209522*
Y151100*
X212773*
Y159277*
G37*
X260044D02*
G36*
X233343D01*
X233968Y158652*
X259781*
G75*
G02X260044Y159277I4544J-1552*
G01*
G37*
X278483Y151100D02*
G36*
X276672Y152911D01*
G75*
G02X269523Y157100I-2348J4189*
G01*
Y157100*
G75*
G02X270044Y159277I4802J0*
G01*
X268605*
G75*
G02X269127Y157100I-4280J-2177*
G01*
G75*
G02X259781Y155548I-4802*
G01*
X233325*
G75*
G02X232225Y156005I1J1554*
G01*
X229230Y159001*
G75*
G02X229009Y159277I1098J1101*
G01*
X215877*
Y151100*
X278483*
G37*
X285023Y159277D02*
G36*
X278605D01*
G75*
G02X279127Y157100I-4281J-2177*
G01*
G75*
G02X278514Y154753I-4807J1*
G01*
X282166Y151100*
X285023*
Y159277*
G37*
X342773D02*
G36*
X327696D01*
X327543Y159124*
G75*
G02X328127Y157100I-3219J-2024*
G01*
G75*
G02X324325Y153298I-3802*
G01*
G75*
G02X320854Y155548I0J3803*
G01*
X308869*
G75*
G02X299627Y156107I-4544J1552*
G01*
Y151100*
X342773*
Y159277*
G37*
X351023D02*
G36*
X345877D01*
Y151100*
X351023*
Y159277*
G37*
X370273D02*
G36*
X361756D01*
Y151100*
X370273*
Y159277*
G37*
X373377D02*
G36*
Y151100D01*
X399721*
Y159277*
X373377*
G37*
X13521Y167100D02*
G36*
X8928D01*
Y159277*
X13521*
Y167100*
G37*
X81316Y159277D02*
G36*
Y161397D01*
X79924Y160005*
G75*
G02X78825Y159548I-1101J1098*
G01*
X73258*
G75*
G02X72158Y160005I1J1554*
G01*
X70730Y161434*
G75*
G02X70273Y162533I1098J1101*
G01*
Y163652*
X69053*
Y167100*
X19129*
Y159277*
X81316*
G37*
X78620Y167100D02*
G36*
X74596D01*
Y163652*
X73377*
Y163176*
X73901Y162652*
X78182*
X78757Y163228*
Y164329*
X78620*
Y167100*
G37*
X87805Y159277D02*
G36*
Y161049D01*
X88836*
Y164329*
X86979*
Y159277*
X87805*
G37*
X97820D02*
G36*
G75*
G02X97423Y160600I2004J1324D01*
G01*
G75*
G02X99480Y162978I2402*
G01*
Y164329*
X92255*
Y161049*
X93344*
Y159277*
X97820*
G37*
X101865D02*
G36*
Y159333D01*
G75*
G02X101829Y159277I-2041J1264*
G01*
X101865*
G37*
X142521Y167100D02*
G36*
X105030D01*
Y164329*
X104784*
Y159277*
X142521*
Y167100*
G37*
X358652D02*
G36*
X357627D01*
Y159277*
X358652*
Y167100*
G37*
X189553Y159277D02*
G36*
Y160549D01*
X191023*
Y160561*
X190285Y161298*
X181364*
X181173Y161107*
G75*
G02X181227Y160600I-2349J-506*
G01*
G75*
G02X180829Y159277I-2402*
G01*
X182053*
Y160549*
X187596*
Y159277*
X189553*
G37*
X212773Y167100D02*
G36*
X157127D01*
Y159277*
X174309*
G75*
G02X176341I1016J-2177*
G01*
X176820*
G75*
G02X176423Y160600I2004J1324*
G01*
G75*
G02X179331Y162948I2402*
G01*
X179903Y163520*
G75*
G02X180825Y163902I922J-921*
G01*
X190825*
G75*
G02X191747Y163520I0J-1304*
G01*
X193244Y162022*
G75*
G02X193627Y161100I-921J-922*
G01*
Y160549*
X195096*
Y159277*
X212773*
Y167100*
G37*
X229009Y159277D02*
G36*
G75*
G02X228773Y160100I1318J824D01*
G01*
Y167100*
X215877*
Y159277*
X229009*
G37*
X285023Y167100D02*
G36*
X279127D01*
G75*
G02X269523I-4802*
G01*
X269127*
G75*
G02X259781Y165548I-4802*
G01*
X247796*
G75*
G02X240523Y167100I-3471J1552*
G01*
Y167100*
X231877*
Y160743*
X233343Y159277*
X260044*
G75*
G02X268605I4280J-2176*
G01*
X270044*
G75*
G02X278605I4280J-2176*
G01*
X285023*
Y167100*
G37*
X342773D02*
G36*
X335519D01*
X327696Y159277*
X342773*
Y167100*
G37*
X351023D02*
G36*
X345877D01*
Y159277*
X351023*
Y167100*
G37*
X370273D02*
G36*
X361756D01*
Y159277*
X370273*
Y167100*
G37*
X373377D02*
G36*
Y159277D01*
X399721*
Y167100*
X373377*
G37*
X13521Y173600D02*
G36*
X8928D01*
Y167100*
X13521*
Y173600*
G37*
X78620Y167100D02*
G36*
Y171738D01*
X86434*
Y173600*
X74596*
Y170652*
X69053*
Y173600*
X19129*
Y167100*
X69053*
Y169549*
X74596*
Y167100*
X78620*
G37*
X142521Y173600D02*
G36*
X141509D01*
G75*
G02X141727Y172600I-2184J-1000*
G01*
G75*
G02X137306Y171298I-2402*
G01*
X110325*
G75*
G02X109403Y171681I0J1304*
G01*
X107483Y173600*
X93629*
Y172600*
Y172600*
G75*
G02X93392Y172031I-802*
G01*
X93100Y171738*
X105030*
Y167100*
X142521*
Y173600*
G37*
X358652D02*
G36*
X357627D01*
Y167100*
X358652*
Y173600*
G37*
X212773D02*
G36*
X205318D01*
G75*
G02X205627Y172100I-3494J-1501*
G01*
G75*
G02X201825Y168298I-3802*
G01*
G75*
G02X198023Y172100J3802*
G01*
G75*
G02X198331Y173600I3802J-1*
G01*
X190318*
G75*
G02X190627Y172100I-3494J-1501*
G01*
G75*
G02X186825Y168298I-3802*
G01*
G75*
G02X183023Y172100J3802*
G01*
G75*
G02X183331Y173600I3802J-1*
G01*
X175318*
G75*
G02X175627Y172100I-3494J-1501*
G01*
G75*
G02X171825Y168298I-3802*
G01*
G75*
G02X168023Y172100J3802*
G01*
G75*
G02X168331Y173600I3802J-1*
G01*
X157127*
Y167100*
X212773*
Y173600*
G37*
X228773D02*
G36*
X215877D01*
Y167100*
X228773*
Y173600*
G37*
X285023D02*
G36*
X231877D01*
Y167100*
X240523*
G75*
G02X247796Y168652I3802J0*
G01*
X259781*
G75*
G02X269127Y167100I4544J-1552*
G01*
X269523*
G75*
G02X279127I4802*
G01*
X285023*
Y173600*
G37*
X342773D02*
G36*
X342019D01*
X335519Y167100*
X342773*
Y173600*
G37*
X351023D02*
G36*
X345877D01*
Y167100*
X351023*
Y173600*
G37*
X370273D02*
G36*
X361756D01*
Y167100*
X370273*
Y173600*
G37*
X373377D02*
G36*
Y167100D01*
X399721*
Y173600*
X373377*
G37*
X13521Y185289D02*
G36*
X8928D01*
Y173600*
X13521*
Y185289*
G37*
X86434Y173600D02*
G36*
Y174267D01*
G75*
G02X85584Y176101I1553J1833*
G01*
G75*
G02X85903Y177296I2402J0*
G01*
X19658*
X19129Y176767*
Y173600*
X69053*
Y176549*
X74596*
Y173600*
X86434*
G37*
X89021Y185289D02*
G36*
X19129D01*
Y183433*
X19658Y182904*
X87992*
X89021Y183933*
Y185289*
G37*
X107483Y173600D02*
G36*
X102421Y178663D01*
G75*
G02X102039Y179585I921J922*
G01*
Y185289*
X92273*
X93392Y184170*
G75*
G02X93629Y183601I-565J-569*
G01*
Y183600*
Y173600*
X107483*
G37*
X142666Y185289D02*
G36*
X141774D01*
Y184829*
X135876*
Y185289*
X104643*
Y180124*
X110864Y173902*
X137306*
G75*
G02X141509Y173600I2019J-1302*
G01*
X142521*
Y184829*
G75*
G02X142666Y185289I804J0*
G01*
G37*
X358652D02*
G36*
X357227D01*
G75*
G02X358327Y182533I-2902J-2756*
G01*
G75*
G02X357627Y180272I-4004J1*
G01*
Y173600*
X358652*
Y185289*
G37*
X169959D02*
G36*
X164656D01*
Y184880*
X162753*
Y180532*
G75*
G02X163727Y178600I-1430J-1932*
G01*
G75*
G02X158923I-2402*
G01*
G75*
G02X159834Y180483I2402*
G01*
Y180768*
X157127Y178061*
Y173600*
X168331*
G75*
G02X170273Y175571I3494J-1500*
G01*
Y178880*
G75*
G02X170096Y179600I1372J719*
G01*
Y181829*
X169959*
Y185289*
G37*
X183331Y173600D02*
G36*
G75*
G02X185273Y175571I3494J-1500D01*
G01*
Y179423*
G75*
G02Y179424I1880J0*
G01*
G75*
G02X185450Y180143I1549*
G01*
Y181829*
X173200*
Y180143*
G75*
G02X173377Y179424I-1372J-719*
G01*
G75*
G02Y179423I-1880J0*
G01*
Y175571*
G75*
G02X175318Y173600I-1552J-3470*
G01*
X183331*
G37*
X198331D02*
G36*
G75*
G02X200273Y175571I3494J-1500D01*
G01*
Y185289*
X188691*
Y181829*
X188554*
Y179600*
G75*
G02X188377Y178880I-1549J-1*
G01*
Y175571*
G75*
G02X190318Y173600I-1552J-3470*
G01*
X198331*
G37*
X212773D02*
G36*
Y183957D01*
X211441Y185289*
X203377*
Y175571*
G75*
G02X205318Y173600I-1552J-3470*
G01*
X212773*
G37*
X228773D02*
G36*
Y179457D01*
X222941Y185289*
X215715*
G75*
G02X215877Y184600I-1393J-690*
G01*
Y173600*
X228773*
G37*
X285023D02*
G36*
Y174561D01*
X276672Y182911*
G75*
G02X269877Y185289I-2348J4189*
G01*
X268772*
G75*
G02X259877I-4447J1811*
G01*
X227331*
X231420Y181200*
G75*
G02X231877Y180100I-1098J-1101*
G01*
Y173600*
X285023*
G37*
X342773D02*
G36*
Y174542D01*
G75*
G02X342422Y174003I-1452J561*
G01*
X342019Y173600*
X342773*
G37*
X287023Y185289D02*
G36*
X278772D01*
G75*
G02X278514Y184753I-4453J1813*
G01*
X287023Y176244*
Y185289*
G37*
X351023Y173600D02*
G36*
Y180272D01*
G75*
G02X350323Y182533I3304J2262*
G01*
G75*
G02X351423Y185289I4002*
G01*
X345877*
Y173600*
X351023*
G37*
X370273Y185289D02*
G36*
X369038D01*
G75*
G02X370138Y182533I-2902J-2756*
G01*
G75*
G02X362134I-4002*
G01*
G75*
G02X363234Y185289I4002*
G01*
X361756*
Y173600*
X370273*
Y185289*
G37*
X373377D02*
G36*
Y173600D01*
X399721*
Y185289*
X396085*
G75*
G02X380281I-7902*
G01*
X373377*
G37*
X13521Y191195D02*
G36*
X8928D01*
Y185289*
X13521*
Y191195*
G37*
X78620D02*
G36*
X19129D01*
Y185289*
X89021*
Y187463*
X78620*
Y191195*
G37*
X102039Y185289D02*
G36*
Y187463D01*
X92129*
Y185433*
X92273Y185289*
X102039*
G37*
X142521Y191195D02*
G36*
X105030D01*
Y187463*
X104643*
Y185289*
X135876*
Y190372*
X141774*
Y185289*
X142666*
G75*
G02X142876Y185496I659J-461*
G01*
Y189705*
G75*
G02X142521Y190372I449J667*
G01*
Y191195*
G37*
X358652D02*
G36*
X358327D01*
G75*
G02X350323I-4002*
G01*
X345877*
Y185289*
X351423*
G75*
G02X357227I2902J-2756*
G01*
X358652*
Y191195*
G37*
X183724D02*
G36*
X183284D01*
Y190751*
G75*
G02X183348Y190818I1134J-1011*
G01*
X183724Y191195*
G37*
X169959Y185289D02*
G36*
Y189238D01*
X170096*
Y189423*
G75*
G02X170552Y190523I1554J-1*
G01*
X171224Y191195*
X164656*
Y185289*
X169959*
G37*
X200273D02*
G36*
Y185457D01*
X194535Y191195*
X187425*
X188097Y190523*
G75*
G02X188554Y189423I-1098J-1101*
G01*
Y189238*
X188691*
Y185289*
X200273*
G37*
X211441D02*
G36*
X205535Y191195D01*
X198925*
X202920Y187200*
G75*
G02X203377Y186100I-1098J-1101*
G01*
Y185289*
X211441*
G37*
X222941D02*
G36*
X217035Y191195D01*
X209925*
X215420Y185700*
G75*
G02X215715Y185289I-1098J-1101*
G01*
X222941*
G37*
X261816Y191195D02*
G36*
X233425D01*
X235468Y189152*
X259983*
G75*
G02X261816Y191195I4342J-2052*
G01*
G37*
X259877Y185289D02*
G36*
G75*
G02X259639Y186048I4448J1810D01*
G01*
X234828*
G75*
G02X233728Y186503I-3J1552*
G01*
X229036Y191195*
X221425*
X227331Y185289*
X259877*
G37*
X269877D02*
G36*
G75*
G02X269523Y187100I4447J1810D01*
G01*
Y187100*
G75*
G02X271816Y191195I4802*
G01*
X266834*
G75*
G02X269127Y187100I-2509J-4094*
G01*
G75*
G02X268772Y185289I-4802J0*
G01*
X269877*
G37*
X287023Y191195D02*
G36*
X276833D01*
G75*
G02X279127Y187100I-2509J-4094*
G01*
G75*
G02X278772Y185289I-4807J1*
G01*
X287023*
Y191195*
G37*
X370273D02*
G36*
X370138D01*
G75*
G02X362134I-4002*
G01*
X361756*
Y185289*
X363234*
G75*
G02X369038I2902J-2756*
G01*
X370273*
Y191195*
G37*
X380281Y185289D02*
G36*
G75*
G02X382933Y191195I7902D01*
G01*
X373377*
Y185289*
X380281*
G37*
X396085D02*
G36*
X399721D01*
Y191195*
X393433*
G75*
G02X396085Y185289I-5250J-5906*
G01*
G37*
X13521Y197100D02*
G36*
X8928D01*
Y191195*
X13521*
Y197100*
G37*
X78620Y191195D02*
G36*
Y194872D01*
X78757*
Y196473*
X78524Y196707*
G75*
G02X76994Y197100I-199J2393*
G01*
X19129*
Y191195*
X78620*
G37*
X96920Y197100D02*
G36*
X93520D01*
X92097Y195678*
Y194872*
X96920*
Y197100*
G37*
X99598D02*
G36*
X99524D01*
Y196896*
G75*
G02X99598Y197100I1261J-341*
G01*
G37*
X142521Y191195D02*
G36*
Y197100D01*
X103166*
X102083Y196018*
Y194872*
X105030*
Y191195*
X142521*
G37*
X358652Y197100D02*
G36*
X357227D01*
G75*
G02X351423I-2902J2756*
G01*
X345877*
Y191195*
X350323*
G75*
G02X358327I4002*
G01*
X358652*
Y197100*
G37*
X171224Y191195D02*
G36*
X171225Y191196D01*
G75*
G02X172325Y191652I1101J-1098*
G01*
X173325*
G75*
G02X173435Y191648I9J-1291*
G01*
X171785Y193298*
X162325*
G75*
G02X161403Y193681I0J1304*
G01*
X157983Y197100*
X152627*
Y195902*
X157325*
G75*
G02X158247Y195520I0J-1304*
G01*
X160244Y193522*
G75*
G02X160627Y192600I-921J-922*
G01*
Y191998*
X164656*
Y191195*
X171224*
G37*
X194535D02*
G36*
X194230Y191501D01*
G75*
G02X193773Y192600I1098J1101*
G01*
Y197100*
X181889*
X182857Y196132*
G75*
G02X183284Y195101I-1030J-1031*
G01*
G75*
G02Y195100I-1456J0*
G01*
Y195100*
Y195098*
Y191195*
X183724*
X183725Y191196*
G75*
G02X184825Y191652I1101J-1098*
G01*
X186325*
G75*
G02X187424Y191196I-1J-1554*
G01*
X187425Y191195*
X194535*
G37*
X205535D02*
G36*
X202230Y194501D01*
G75*
G02X201773Y195600I1098J1101*
G01*
Y197100*
X196877*
Y193243*
X198925Y191195*
X205535*
G37*
X217035D02*
G36*
X211130Y197100D01*
X204877*
Y196243*
X209925Y191195*
X217035*
G37*
X229036D02*
G36*
X223130Y197100D01*
X215520*
X221425Y191195*
X229036*
G37*
X287023Y197100D02*
G36*
X279127D01*
G75*
G02X269523I-4802*
G01*
X269127*
G75*
G02X259781Y195548I-4802*
G01*
X247796*
G75*
G02X240523Y197100I-3471J1552*
G01*
Y197100*
X227520*
X233425Y191195*
X261816*
G75*
G02X266834I2509J-4094*
G01*
X271816*
G75*
G02X276833I2509J-4094*
G01*
X287023*
Y197100*
G37*
X370273D02*
G36*
X369038D01*
G75*
G02X363234I-2902J2756*
G01*
X361756*
Y191195*
X362134*
G75*
G02X370138I4002*
G01*
X370273*
Y197100*
G37*
X373377D02*
G36*
Y191195D01*
X382933*
G75*
G02X393433I5250J-5906*
G01*
X399721*
Y197100*
X373377*
G37*
X13521Y208518D02*
G36*
X8928D01*
Y197100*
X13521*
Y208518*
G37*
X76994Y197100D02*
G36*
G75*
G02X75923Y199100I1330J2000D01*
G01*
G75*
G02X78824Y201450I2402*
G01*
X75524Y204750*
G75*
G02X72923Y207144I-199J2394*
G01*
G75*
G02X73355Y208518I2402*
G01*
X19129*
Y197100*
X76994*
G37*
X86277Y208518D02*
G36*
X81205D01*
X86277Y203446*
Y208518*
G37*
X100798D02*
G36*
X95596D01*
Y205652*
X90053*
Y208518*
X89696*
Y197666*
X90681Y198652*
X90053*
Y204549*
X95596*
Y198652*
X94377*
Y198600*
G75*
G02X93920Y197501I-1554J1*
G01*
X93520Y197100*
X96920*
Y204100*
G75*
G02X97303Y205022I1304J0*
G01*
X100798Y208518*
G37*
X110901D02*
G36*
X104481D01*
X99524Y203561*
Y197100*
X99598*
G75*
G02X99862Y197479I1187J-546*
G01*
X110901Y208518*
G37*
X142521D02*
G36*
X114583D01*
X103166Y197100*
X142521*
Y208518*
G37*
X358652D02*
G36*
X358327D01*
G75*
G02X350323I-4002*
G01*
X345877*
Y197100*
X351423*
G75*
G02X350323Y199856I2902J2756*
G01*
G75*
G02X358327I4002*
G01*
G75*
G02X357227Y197100I-4002*
G01*
X358652*
Y208518*
G37*
X157983Y197100D02*
G36*
X156437Y198647D01*
G75*
G02X156054Y199569I921J922*
G01*
Y202203*
X153994*
Y208518*
X152627*
Y197100*
X157983*
G37*
X169959Y208518D02*
G36*
X164656D01*
Y203048*
X165801Y201902*
X172285*
X173431Y203048*
X171648*
G75*
G02X170096Y204600J1552*
G01*
Y204963*
X169959*
Y208518*
G37*
X193773D02*
G36*
X188691D01*
Y204963*
X188554*
Y204778*
G75*
G02X188097Y203678I-1554J1*
G01*
X187424Y203005*
G75*
G02X186325Y202548I-1101J1098*
G01*
X184825*
G75*
G02X183725Y203005I1J1554*
G01*
X183348Y203383*
G75*
G02X183186Y203572I1093J1097*
G01*
Y200159*
G75*
G02X182803Y199237I-1304J0*
G01*
X181274Y197709*
G75*
G02X181357Y197632I-1054J-1217*
G01*
X181889Y197100*
X193773*
Y208518*
G37*
X201773D02*
G36*
X196877D01*
Y197100*
X201773*
Y208518*
G37*
X211130Y197100D02*
G36*
X209730Y198501D01*
G75*
G02X209273Y199600I1098J1101*
G01*
Y208518*
X204877*
Y197100*
X211130*
G37*
X223130D02*
G36*
X216728Y203503D01*
G75*
G02X216273Y204600I1096J1097*
G01*
Y204601*
Y204604*
Y208518*
X212377*
Y200243*
X215520Y197100*
X223130*
G37*
X287023D02*
G36*
Y202561D01*
X281066Y208518*
X219377*
Y205243*
X227520Y197100*
X240523*
G75*
G02X247796Y198652I3802J0*
G01*
X259781*
G75*
G02X269127Y197100I4544J-1552*
G01*
X269523*
G75*
G02X279127I4802*
G01*
X287023*
G37*
X289023Y208518D02*
G36*
X284749D01*
X289023Y204244*
Y208518*
G37*
X370273D02*
G36*
X370138D01*
G75*
G02X362134I-4002*
G01*
X361756*
Y197100*
X363234*
G75*
G02X362134Y199856I2902J2756*
G01*
G75*
G02X370138I4002*
G01*
G75*
G02X369038Y197100I-4002*
G01*
X370273*
Y208518*
G37*
X373377D02*
G36*
Y197100D01*
X399721*
Y208518*
X373377*
G37*
X13521Y217179D02*
G36*
X8928D01*
Y208518*
X13521*
Y217179*
G37*
X73355Y208518D02*
G36*
G75*
G02X75844Y209489I1970J-1374D01*
G01*
X68154Y217179*
X19129*
Y208518*
X73355*
G37*
X86277Y217179D02*
G36*
X72543D01*
X81205Y208518*
X86277*
Y217179*
G37*
X109460D02*
G36*
X89696D01*
Y208518*
X90053*
Y211549*
X95596*
Y208518*
X100798*
X109460Y217179*
G37*
X119562D02*
G36*
X113143D01*
X104481Y208518*
X110901*
X119562Y217179*
G37*
X142521D02*
G36*
X123245D01*
X114583Y208518*
X142521*
Y217179*
G37*
X358652D02*
G36*
X358327D01*
G75*
G02X350323I-4002*
G01*
X345877*
Y208518*
X350323*
G75*
G02X358327I4002*
G01*
X358652*
Y217179*
G37*
X169959Y208518D02*
G36*
Y212372D01*
X172655*
Y217179*
X152627*
Y208518*
X153994*
Y209321*
X164656*
Y208518*
X169959*
G37*
X187209Y217179D02*
G36*
X175759D01*
Y212372*
X185450*
Y214778*
G75*
G02X185907Y215877I1554J-1*
G01*
X187209Y217179*
G37*
X193773Y208518D02*
G36*
Y213957D01*
X192182Y215548*
X189968*
X188554Y214135*
Y212372*
X188691*
Y208518*
X193773*
G37*
X201773Y217179D02*
G36*
X194941D01*
X196420Y215700*
G75*
G02X196877Y214600I-1098J-1101*
G01*
Y208518*
X201773*
Y217179*
G37*
X209273D02*
G36*
X204877D01*
Y208518*
X209273*
Y217179*
G37*
X216273D02*
G36*
X212377D01*
Y208518*
X216273*
Y217179*
G37*
X281066Y208518D02*
G36*
X276672Y212911D01*
G75*
G02X269523Y217100I-2348J4189*
G01*
Y217100*
G75*
G02X269524Y217179I4805J-9*
G01*
X269126*
G75*
G02X269127Y217100I-4804J-87*
G01*
G75*
G02X259781Y215548I-4802*
G01*
X228825*
G75*
G02X227725Y216005I1J1554*
G01*
X226551Y217179*
X219377*
Y208518*
X281066*
G37*
X289023Y217179D02*
G36*
X279126D01*
G75*
G02X279127Y217100I-4804J-87*
G01*
G75*
G02X278514Y214753I-4807J1*
G01*
X284749Y208518*
X289023*
Y217179*
G37*
X370273D02*
G36*
X370138D01*
G75*
G02X362134I-4002*
G01*
X361756*
Y208518*
X362134*
G75*
G02X370138I4002*
G01*
X370273*
Y217179*
G37*
X373377D02*
G36*
Y208518D01*
X399721*
Y217179*
X373377*
G37*
X13521Y227100D02*
G36*
X8928D01*
Y217179*
X13521*
Y227100*
G37*
X68154Y217179D02*
G36*
X65808Y219524D01*
G75*
G02X65352Y220624I1098J1101*
G01*
Y227100*
X19129*
Y217179*
X68154*
G37*
X86277Y227100D02*
G36*
X68456D01*
Y221267*
X72543Y217179*
X86277*
Y227100*
G37*
X119381D02*
G36*
X89696D01*
Y217179*
X109460*
X119381Y227100*
G37*
X129483D02*
G36*
X123064D01*
X113143Y217179*
X119562*
X129483Y227100*
G37*
X142521D02*
G36*
X133166D01*
X123245Y217179*
X142521*
Y227100*
G37*
X358652Y217179D02*
G36*
Y219819D01*
X356177Y222293*
G75*
G02X350323Y225841I-1852J3547*
G01*
G75*
G02X350526Y227100I4002J0*
G01*
X345877*
Y217179*
X350323*
G75*
G02X358327I4002*
G01*
X358652*
G37*
X174130Y227100D02*
G36*
X152627D01*
Y217179*
X172655*
Y224982*
G75*
G02X173111Y226082I1554J-1*
G01*
X174130Y227100*
G37*
X201773Y217179D02*
G36*
Y223457D01*
X199182Y226048*
X177468*
X175759Y224339*
Y217179*
X187209*
X188225Y218196*
G75*
G02X189325Y218652I1101J-1098*
G01*
X192825*
G75*
G02X193924Y218196I-1J-1554*
G01*
X194941Y217179*
X201773*
G37*
X209273Y227100D02*
G36*
X202520D01*
X204420Y225200*
G75*
G02X204877Y224100I-1098J-1101*
G01*
Y217179*
X209273*
Y227100*
G37*
X216273D02*
G36*
X212377D01*
Y217179*
X216273*
Y227100*
G37*
X226551Y217179D02*
G36*
X223730Y220001D01*
G75*
G02X223273Y221100I1098J1101*
G01*
Y227100*
X219377*
Y217179*
X226551*
G37*
X289023Y227100D02*
G36*
X279127D01*
G75*
G02X269523I-4802*
G01*
X269127*
G75*
G02X259781Y225548I-4802*
G01*
X247796*
G75*
G02X240523Y227100I-3471J1552*
G01*
Y227100*
X226377*
Y221743*
X229468Y218652*
X259781*
G75*
G02X269126Y217179I4544J-1552*
G01*
X269524*
G75*
G02X279126I4801J-79*
G01*
X289023*
Y227100*
G37*
X370273Y217179D02*
G36*
Y219509D01*
X367647Y222135*
G75*
G02X362134Y225841I-1511J3706*
G01*
G75*
G02X362337Y227100I4002J0*
G01*
X358123*
G75*
G02X358327Y225841I-3798J-1260*
G01*
G75*
G02X358161Y224700I-4000*
G01*
X361299Y221561*
G75*
G02X361756Y220461I-1098J-1101*
G01*
Y217179*
X362134*
G75*
G02X370138I4002*
G01*
X370273*
G37*
X373377D02*
G36*
X399721D01*
Y227100*
X369934*
G75*
G02X370138Y225841I-3798J-1260*
G01*
G75*
G02X369842Y224330I-4007J0*
G01*
X372920Y221251*
G75*
G02X373377Y220152I-1098J-1101*
G01*
Y217179*
G37*
X13521Y234502D02*
G36*
X8928D01*
Y227100*
X13521*
Y234502*
G37*
X65352D02*
G36*
X19129D01*
Y227100*
X65352*
Y234502*
G37*
X86277D02*
G36*
X68456D01*
Y227100*
X86277*
Y234502*
G37*
X126783D02*
G36*
X89696D01*
Y227100*
X119381*
X126783Y234502*
G37*
X135374D02*
G36*
X130465D01*
X123064Y227100*
X129483*
X134977Y232594*
G75*
G02X134923Y233098I2331J504*
G01*
G75*
G02Y233100I2333J1*
G01*
G75*
G02X135374Y234502I2402*
G01*
G37*
X142521D02*
G36*
X139276D01*
G75*
G02X139727Y233100I-1951J-1402*
G01*
G75*
G02X136818Y230752I-2402J0*
G01*
X133166Y227100*
X142521*
Y234502*
G37*
X369934Y227100D02*
G36*
X399721D01*
Y234502*
X370138*
G75*
G02X362134I-4002*
G01*
X358327*
G75*
G02X350323I-4002*
G01*
X345877*
Y227100*
X350526*
G75*
G02X358123I3798J-1260*
G01*
X362337*
G75*
G02X369934I3798J-1260*
G01*
G37*
X209273D02*
G36*
Y228339D01*
X204564Y233048*
X177828*
G75*
G02X176728Y233503I-3J1552*
G01*
X175729Y234502*
X163275*
G75*
G02X163727Y233100I-1952J-1403*
G01*
G75*
G02X158923I-2402*
G01*
G75*
G02X159374Y234502I2402J0*
G01*
X154068*
X152627Y233061*
Y227100*
X174130*
X175725Y228696*
G75*
G02X176825Y229152I1101J-1098*
G01*
X199825*
G75*
G02X200924Y228696I-1J-1554*
G01*
X202520Y227100*
X209273*
G37*
X216273D02*
G36*
Y232957D01*
X214728Y234502*
X207500*
X211920Y230082*
G75*
G02X212377Y228982I-1098J-1101*
G01*
Y227100*
X216273*
G37*
X223273Y234502D02*
G36*
X219088D01*
G75*
G02X219377Y233600I-1266J-903*
G01*
Y227100*
X223273*
Y234502*
G37*
X289023Y227100D02*
G36*
Y230561D01*
X285082Y234502*
X226377*
Y227100*
X240523*
G75*
G02X247796Y228652I3802J0*
G01*
X259781*
G75*
G02X269127Y227100I4544J-1552*
G01*
X269523*
G75*
G02X279127I4802*
G01*
X289023*
G37*
X291023Y234502D02*
G36*
X288765D01*
X291023Y232244*
Y234502*
G37*
X13521Y243163D02*
G36*
X8928D01*
Y234502*
X13521*
Y243163*
G37*
X65352D02*
G36*
X57227D01*
G75*
G02X38273I-9477J1194*
G01*
X19129*
Y234502*
X65352*
Y243163*
G37*
X86277D02*
G36*
X68456D01*
Y234502*
X86277*
Y243163*
G37*
X131523D02*
G36*
X89696D01*
Y234502*
X126783*
X131523Y239242*
Y243163*
G37*
X142521D02*
G36*
X134127D01*
Y238703*
G75*
G02X133744Y237781I-1304J0*
G01*
X130465Y234502*
X135374*
G75*
G02X139276I1951J-1402*
G01*
X142521*
Y243163*
G37*
X159374Y234502D02*
G36*
G75*
G02X159834Y234983I1950J-1402D01*
G01*
Y240268*
X154068Y234502*
X159374*
G37*
X175729D02*
G36*
X173109Y237121D01*
G75*
G02X172655Y238219I1096J1097*
G01*
Y238219*
Y238222*
Y243163*
X162753*
Y235032*
G75*
G02X163275Y234502I-1430J-1932*
G01*
X175729*
G37*
X214728D02*
G36*
X209182Y240048D01*
X188825*
G75*
G02X187725Y240505I1J1554*
G01*
X185907Y242324*
G75*
G02X185472Y243163I1098J1100*
G01*
X175759*
Y238861*
X178468Y236152*
X205207*
G75*
G02X206306Y235696I-1J-1554*
G01*
X207500Y234502*
X214728*
G37*
X223273Y243163D02*
G36*
X189457D01*
X189468Y243152*
X209825*
G75*
G02X210924Y242696I-1J-1554*
G01*
X218920Y234700*
G75*
G02X219088Y234502I-1098J-1100*
G01*
X223273*
Y243163*
G37*
X285082Y234502D02*
G36*
X276672Y242911D01*
G75*
G02X271575Y243163I-2348J4189*
G01*
X267074*
G75*
G02X261576I-2749J3937*
G01*
X226377*
Y234502*
X285082*
G37*
X291023D02*
G36*
Y243163D01*
X280103*
X288765Y234502*
X291023*
G37*
X347130Y243163D02*
G36*
X342877D01*
Y238722*
G75*
G02X343228Y239261I1452J-561*
G01*
X347130Y243163*
G37*
X358327D02*
G36*
G75*
G02X350636Y241611I-4002J0D01*
G01*
X349968*
X345877Y237520*
Y234502*
X350323*
G75*
G02X358327I4002*
G01*
X362134*
G75*
G02X370138I4002*
G01*
X399721*
Y243163*
X370138*
G75*
G02X362134I-4002*
G01*
X358327*
G37*
X13521Y251825D02*
G36*
X8928D01*
Y243163*
X13521*
Y251825*
G37*
X38273Y243163D02*
G36*
G75*
G02X38198Y244357I9478J1193D01*
G01*
G75*
G02X41794Y251825I9552*
G01*
X19129*
Y243163*
X38273*
G37*
X65352Y251825D02*
G36*
X53706D01*
G75*
G02X57302Y244357I-5956J-7468*
G01*
G75*
G02X57227Y243163I-9553J0*
G01*
X65352*
Y251825*
G37*
X86277D02*
G36*
X84443D01*
G75*
G02X81207I-1618J1776*
G01*
X79596*
Y249404*
X74053*
Y251825*
X68456*
Y243163*
X86277*
Y251825*
G37*
X131523D02*
G36*
X89696D01*
Y243163*
X131523*
Y251825*
G37*
X142521D02*
G36*
X142274D01*
Y247329*
X136376*
Y251825*
X134127*
Y243163*
X142521*
Y251825*
G37*
X170148D02*
G36*
X164656D01*
Y247380*
X162753*
Y243163*
X172655*
Y244329*
X169959*
Y251738*
X170128*
G75*
G02X170148Y251825I1520J-314*
G01*
G37*
X185472Y243163D02*
G36*
G75*
G02X185450Y243423I1532J261D01*
G01*
Y244329*
X175759*
Y243163*
X185472*
G37*
X223273Y251825D02*
G36*
X188554D01*
Y251738*
X188691*
Y244329*
X188554*
Y244066*
X189457Y243163*
X223273*
Y251825*
G37*
X261576Y243163D02*
G36*
G75*
G02X259781Y245548I2749J3937D01*
G01*
X235825*
G75*
G02X234725Y246005I1J1554*
G01*
X230730Y250001*
G75*
G02X230273Y251100I1098J1101*
G01*
Y251825*
X226377*
Y243163*
X261576*
G37*
X263466Y251825D02*
G36*
X233377D01*
Y251743*
X236468Y248652*
X259781*
G75*
G02X263466Y251825I4544J-1552*
G01*
G37*
X291023D02*
G36*
X275184D01*
G75*
G02X279127Y247100I-859J-4724*
G01*
G75*
G02X278514Y244753I-4807J1*
G01*
X280103Y243163*
X291023*
Y251825*
G37*
X271575Y243163D02*
G36*
G75*
G02X269523Y247100I2749J3937D01*
G01*
Y247100*
G75*
G02X273465Y251825I4802*
G01*
X265184*
G75*
G02X269127Y247100I-859J-4724*
G01*
G75*
G02X267074Y243163I-4802*
G01*
X271575*
G37*
X342877Y251825D02*
G36*
Y243163D01*
X347130*
X348228Y244261*
G75*
G02X349328Y244715I1098J-1098*
G01*
X350636*
G75*
G02X358327Y243163I3689J-1552*
G01*
X362134*
G75*
G02X370138I4002*
G01*
X399721*
Y251825*
X370138*
G75*
G02X362134I-4002*
G01*
X358327*
G75*
G02X350323I-4002*
G01*
X342877*
G37*
X13521Y260486D02*
G36*
X8928D01*
Y251825*
X13521*
Y260486*
G37*
X65352D02*
G36*
X19129D01*
Y251825*
X41794*
G75*
G02X53706I5956J-7468*
G01*
X65352*
Y260486*
G37*
X74053D02*
G36*
X68456D01*
Y251825*
X74053*
Y255297*
X79596*
Y251825*
X81207*
G75*
G02X80423Y253600I1618J1776*
G01*
G75*
G02X81273Y255433I2402*
G01*
Y255957*
X79596Y257634*
Y256404*
X74053*
Y260486*
G37*
X86277Y251825D02*
G36*
Y255231D01*
X84213Y257295*
G75*
G02X84377Y256600I-1393J-696*
G01*
Y256600*
Y256597*
Y255433*
G75*
G02X85227Y253600I-1552J-1833*
G01*
G75*
G02X84443Y251825I-2402*
G01*
X86277*
G37*
X131523Y260486D02*
G36*
X85857D01*
X89195Y257148*
G75*
G02X89696Y255939I-1209J-1209*
G01*
Y251825*
X131523*
Y260486*
G37*
X142521Y251825D02*
G36*
Y260486D01*
X134127*
Y251825*
X136376*
Y252872*
X142274*
Y251825*
X142521*
G37*
X170148D02*
G36*
G75*
G02X170552Y252523I1500J-402D01*
G01*
X171225Y253196*
G75*
G02X172325Y253652I1101J-1098*
G01*
X173175*
X170216Y256641*
X161356*
G75*
G02X160322Y257070I0J1460*
G01*
X156907Y260486*
X152627*
Y259640*
X152864Y259402*
X156825*
G75*
G02X157747Y259020I0J-1304*
G01*
X160244Y256522*
G75*
G02X160627Y255600I-921J-922*
G01*
Y254498*
X164656*
Y251825*
X170148*
G37*
X223273Y260486D02*
G36*
X182003D01*
X182857Y259632*
G75*
G02X183284Y258601I-1030J-1031*
G01*
G75*
G02Y258600I-1456J0*
G01*
Y258600*
Y258598*
Y253251*
G75*
G02X183348Y253318I1134J-1011*
G01*
X183725Y253696*
G75*
G02X184825Y254152I1101J-1098*
G01*
X186325*
G75*
G02X187424Y253696I-1J-1554*
G01*
X188097Y253023*
G75*
G02X188554Y251923I-1098J-1101*
G01*
Y251825*
X223273*
Y260486*
G37*
X291023Y251825D02*
G36*
Y258561D01*
X289098Y260486*
X277730*
G75*
G02X279127Y257100I-3405J-3386*
G01*
G75*
G02X269523I-4802*
G01*
G75*
G02X270920Y260486I4802*
G01*
X267730*
G75*
G02X269127Y257100I-3405J-3386*
G01*
G75*
G02X259781Y255548I-4802*
G01*
X247796*
G75*
G02X240523Y257100I-3471J1552*
G01*
Y257100*
G75*
G02X242596Y260486I3802J0*
G01*
X233377*
Y251825*
X263466*
G75*
G02X265184I859J-4725*
G01*
X273465*
G75*
G02X275184I859J-4724*
G01*
X291023*
G37*
X230273Y260486D02*
G36*
X226377D01*
Y251825*
X230273*
Y260486*
G37*
X260920D02*
G36*
X246054D01*
G75*
G02X247796Y258652I-1729J-3386*
G01*
X259781*
G75*
G02X260920Y260486I4544J-1552*
G01*
G37*
X293023D02*
G36*
X292780D01*
X293023Y260244*
Y260486*
G37*
X342877D02*
G36*
Y251825D01*
X350323*
G75*
G02X358327I4002*
G01*
X362134*
G75*
G02X370138I4002*
G01*
X399721*
Y260486*
X370138*
G75*
G02X362134I-4002*
G01*
X358327*
G75*
G02X350323I-4002*
G01*
X342877*
G37*
X13521Y269148D02*
G36*
X8928D01*
Y260486*
X13521*
Y269148*
G37*
X64722D02*
G36*
X55312D01*
G75*
G02X50188I-2562J2809*
G01*
X19129*
Y260486*
X65352*
Y263868*
X64722*
Y269148*
G37*
X74053Y260486D02*
G36*
Y262297D01*
X74694*
Y267673*
G75*
G02X74722Y268026I2210*
G01*
Y269148*
X74085*
Y263868*
X69722*
Y269148*
X69085*
Y263868*
X68456*
Y260486*
X74053*
G37*
X79722Y269148D02*
G36*
X79085D01*
Y268026*
G75*
G02X79113Y267673I-2181J-353*
G01*
Y262297*
X79596*
Y260902*
X80072*
G75*
G02X80769Y260738I2J-1556*
G01*
X80616Y260892*
G75*
G02X80115Y262100I1209J1209*
G01*
Y263868*
X79722*
Y269148*
G37*
X131523D02*
G36*
X84085D01*
Y263868*
X83534*
Y262809*
X85857Y260486*
X131523*
Y269148*
G37*
X142521D02*
G36*
X134127D01*
Y260486*
X142521*
Y269148*
G37*
X156907Y260486D02*
G36*
X156326Y261067D01*
G75*
G02X155897Y262100I1031J1034*
G01*
Y264703*
X153994*
Y269148*
X152627*
Y260486*
X156907*
G37*
X169959Y269148D02*
G36*
X164656D01*
Y265611*
X164864Y265402*
X171338*
G75*
G02X171225Y265505I951J1159*
G01*
X170552Y266178*
G75*
G02X170096Y267278I1098J1101*
G01*
Y267463*
X169959*
Y269148*
G37*
X223273Y260486D02*
G36*
Y264457D01*
X218583Y269148*
X188691*
Y267463*
X188554*
Y267278*
G75*
G02X188097Y266178I-1554J1*
G01*
X187424Y265505*
G75*
G02X186325Y265048I-1101J1098*
G01*
X184825*
G75*
G02X183725Y265505I1J1554*
G01*
X183348Y265883*
G75*
G02X183186Y266072I1093J1097*
G01*
Y263659*
G75*
G02X182803Y262737I-1304J0*
G01*
X181274Y261209*
G75*
G02X181357Y261132I-1054J-1217*
G01*
X182003Y260486*
X223273*
G37*
X289098D02*
G36*
X280436Y269148D01*
X233377*
Y260486*
X242596*
G75*
G02X246054I1729J-3386*
G01*
X260920*
G75*
G02X267730I3405J-3386*
G01*
X270920*
G75*
G02X277730I3405J-3386*
G01*
X289098*
G37*
X230273Y269148D02*
G36*
X222972D01*
X225920Y266200*
G75*
G02X226377Y265100I-1098J-1101*
G01*
Y260486*
X230273*
Y269148*
G37*
X293023D02*
G36*
X284119D01*
X292780Y260486*
X293023*
Y269148*
G37*
X342877D02*
G36*
Y260486D01*
X350323*
G75*
G02X358327I4002*
G01*
X362134*
G75*
G02X370138I4002*
G01*
X399721*
Y269148*
X370138*
G75*
G02X362134I-4002*
G01*
X358327*
G75*
G02X350323I-4002*
G01*
X342877*
G37*
X13521Y277809D02*
G36*
X8928D01*
Y269148*
X13521*
Y277809*
G37*
X50188Y269148D02*
G36*
G75*
G02X49178Y270655I2562J2809D01*
G01*
X37825*
G75*
G02X36903Y271038I0J1304*
G01*
X34906Y273035*
G75*
G02X34523Y273957I921J922*
G01*
Y277809*
X19129*
Y269148*
X50188*
G37*
X131523Y277809D02*
G36*
X46525D01*
G75*
G02X46552Y277357I-3775J-450*
G01*
G75*
G02X38948I-3802*
G01*
G75*
G02X38975Y277809I3802J2*
G01*
X37127*
Y274496*
X38364Y273259*
X49178*
G75*
G02X56552Y271957I3572J-1302*
G01*
G75*
G02X55312Y269148I-3802*
G01*
X64722*
Y271478*
X69085*
Y269148*
X69722*
Y271478*
X74085*
Y269148*
X74722*
Y271478*
X79085*
Y269148*
X79722*
Y271478*
X84085*
Y269148*
X131523*
Y277809*
G37*
X142521D02*
G36*
X134127D01*
Y269148*
X142521*
Y277809*
G37*
X169959Y269148D02*
G36*
Y274872D01*
X172655*
Y277809*
X152627*
Y269148*
X153994*
Y271821*
X164656*
Y269148*
X169959*
G37*
X186851Y277809D02*
G36*
X175759D01*
Y274872*
X185450*
Y275778*
G75*
G02X185907Y276877I1554J-1*
G01*
X186725Y277696*
G75*
G02X186851Y277809I1100J-1096*
G01*
G37*
X280436Y269148D02*
G36*
X276672Y272911D01*
G75*
G02X269523Y277100I-2348J4189*
G01*
Y277100*
G75*
G02X269576Y277809I4802J-1*
G01*
X269074*
G75*
G02X269127Y277100I-4750J-710*
G01*
G75*
G02X259781Y275548I-4802*
G01*
X235325*
G75*
G02X234225Y276005I1J1554*
G01*
X232421Y277809*
X226311*
X232920Y271200*
G75*
G02X233377Y270100I-1098J-1101*
G01*
Y269148*
X280436*
G37*
X218583D02*
G36*
X212682Y275048D01*
X188554*
Y274872*
X188691*
Y269148*
X218583*
G37*
X230273D02*
G36*
Y269457D01*
X221921Y277809*
X214298*
G75*
G02X214424Y277696I-974J-1209*
G01*
X222972Y269148*
X230273*
G37*
X293023Y277809D02*
G36*
X279074D01*
G75*
G02X279127Y277100I-4750J-710*
G01*
G75*
G02X278514Y274753I-4807J1*
G01*
X284119Y269148*
X293023*
Y277809*
G37*
X342877D02*
G36*
Y269148D01*
X350323*
G75*
G02X358327I4002*
G01*
X362134*
G75*
G02X370138I4002*
G01*
X399721*
Y277809*
X370138*
G75*
G02X362134I-4002*
G01*
X358327*
G75*
G02X350323I-4002*
G01*
X342877*
G37*
X13521Y282757D02*
G36*
X8928D01*
Y277809*
X13521*
Y282757*
G37*
X34523D02*
G36*
X19129D01*
Y277809*
X34523*
Y282757*
G37*
X131523D02*
G36*
X56552D01*
G75*
G02X48948I-3802*
G01*
X37127*
Y277809*
X38975*
G75*
G02X46525I3775J-452*
G01*
X131523*
Y282757*
G37*
X142521D02*
G36*
X134127D01*
Y277809*
X142521*
Y282757*
G37*
X173787D02*
G36*
X152627D01*
Y277809*
X172655*
Y280979*
Y280981*
Y280982*
G75*
G02X173109Y282080I1551*
G01*
X173787Y282757*
G37*
X221921Y277809D02*
G36*
X216973Y282757D01*
X178176*
X175759Y280339*
Y277809*
X186851*
G75*
G02X187825Y278152I974J-1211*
G01*
X213325*
G75*
G02X214298Y277809I-1J-1555*
G01*
X221921*
G37*
X232421D02*
G36*
X231230Y279001D01*
G75*
G02X230773Y280100I1098J1101*
G01*
Y282757*
X221363*
X226311Y277809*
X232421*
G37*
X293023D02*
G36*
Y282757D01*
X276373*
G75*
G02X272277I-2048J4343*
G01*
X266373*
G75*
G02X262277I-2048J4343*
G01*
X233877*
Y280743*
X235968Y278652*
X259781*
G75*
G02X269074Y277809I4544J-1552*
G01*
X269576*
G75*
G02X279074I4749J-709*
G01*
X293023*
G37*
X327773Y282757D02*
G36*
X306373D01*
G75*
G02X302277I-2048J4343*
G01*
X299627*
Y278094*
G75*
G02X308869Y278652I4698J-993*
G01*
X320854*
G75*
G02X325681Y280652I3470J-1552*
G01*
X327773Y282743*
Y282757*
G37*
X340417D02*
G36*
X339877D01*
Y282029*
G75*
G02X340228Y282568I1452J-561*
G01*
X340417Y282757*
G37*
X367628D02*
G36*
G75*
G02X364644I-1492J3713D01*
G01*
X355817*
G75*
G02X352833I-1492J3714*
G01*
X344806*
X342877Y280828*
Y277809*
X350323*
G75*
G02X358327I4002*
G01*
X362134*
G75*
G02X370138I4002*
G01*
X399721*
Y282757*
X367628*
G37*
X13521Y289028D02*
G36*
X8928D01*
Y282757*
X13521*
Y289028*
G37*
X34523D02*
G36*
X19129D01*
Y282757*
X34523*
Y289028*
G37*
X131523D02*
G36*
X84085D01*
Y285222*
X79722*
Y289028*
X79085*
Y285222*
X74722*
Y289028*
X74085*
Y285222*
X69722*
Y289028*
X69085*
Y285222*
X64722*
Y289028*
X46451*
G75*
G02X46552Y288157I-3701J-871*
G01*
G75*
G02X38948I-3802*
G01*
G75*
G02X39049Y289028I3802J-1*
G01*
X37127*
Y282757*
X48948*
G75*
G02X56552I3802*
G01*
X131523*
Y289028*
G37*
X142521D02*
G36*
X134127D01*
Y282757*
X142521*
Y289028*
G37*
X230773D02*
G36*
X152627D01*
Y282757*
X173787*
X177228Y286198*
G75*
G02X178328Y286652I1098J-1098*
G01*
X216825*
G75*
G02X217924Y286196I-1J-1554*
G01*
X221363Y282757*
X230773*
Y289028*
G37*
X216973Y282757D02*
G36*
X216182Y283548D01*
X178968*
X178176Y282757*
X216973*
G37*
X262277D02*
G36*
G75*
G02X259781Y285548I2048J4344D01*
G01*
X247796*
G75*
G02X240523Y287100I-3471J1552*
G01*
Y287100*
G75*
G02X241048Y289028I3802J0*
G01*
X233877*
Y282757*
X262277*
G37*
X259927Y289028D02*
G36*
X247602D01*
G75*
G02X247796Y288652I-3278J-1926*
G01*
X259781*
G75*
G02X259927Y289028I4544J-1553*
G01*
G37*
X327773Y282757D02*
G36*
Y289028D01*
X308723*
G75*
G02X309127Y287100I-4398J-1927*
G01*
G75*
G02X306373Y282757I-4802*
G01*
X327773*
G37*
X269926Y289028D02*
G36*
X268723D01*
G75*
G02X269127Y287100I-4398J-1927*
G01*
G75*
G02X266373Y282757I-4802*
G01*
X272277*
G75*
G02X269523Y287100I2048J4343*
G01*
G75*
G02X269926Y289028I4802J0*
G01*
G37*
X293023Y282757D02*
G36*
Y286561D01*
X290556Y289028*
X278723*
G75*
G02X279127Y287100I-4398J-1927*
G01*
G75*
G02X276373Y282757I-4802*
G01*
X293023*
G37*
X295023Y289028D02*
G36*
X294239D01*
X295023Y288244*
Y289028*
G37*
X302277Y282757D02*
G36*
G75*
G02X299627Y286107I2048J4343D01*
G01*
Y282757*
X302277*
G37*
X299926Y289028D02*
G36*
X299627D01*
Y288094*
G75*
G02X299926Y289028I4698J-993*
G01*
G37*
X338776D02*
G36*
X336877D01*
Y286940*
G75*
G02X337230Y287481I1450J-559*
G01*
X338776Y289028*
G37*
X351246D02*
G36*
X343165D01*
X339877Y285739*
Y282757*
X340417*
X345228Y287568*
G75*
G02X346328Y288022I1098J-1098*
G01*
X350636*
G75*
G02X351246Y289028I3689J-1552*
G01*
G37*
X352833Y282757D02*
G36*
G75*
G02X350636Y284919I1492J3714D01*
G01*
X346968*
X344806Y282757*
X352833*
G37*
X363057Y289028D02*
G36*
X357403D01*
G75*
G02X358327Y286470I-3078J-2557*
G01*
G75*
G02X355817Y282757I-4002J0*
G01*
X364644*
G75*
G02X362134Y286470I1492J3713*
G01*
G75*
G02X363057Y289028I4002*
G01*
G37*
X369214D02*
G36*
G75*
G02X370138Y286470I-3078J-2557D01*
G01*
G75*
G02X367628Y282757I-4002*
G01*
X399721*
Y289028*
X369214*
G37*
X13521Y293557D02*
G36*
X8928D01*
Y289028*
X13521*
Y293557*
G37*
X34523D02*
G36*
X19129D01*
Y289028*
X34523*
Y293557*
G37*
X64722Y289028D02*
G36*
Y292833D01*
X64898*
X64173Y293557*
X56552*
G75*
G02X48948I-3802*
G01*
X37127*
Y289028*
X39049*
G75*
G02X46451I3701J-870*
G01*
X64722*
G37*
X69722D02*
G36*
Y292833D01*
X70175*
X69450Y293557*
X68360*
G75*
G02X68456Y293022I-1456J-535*
G01*
Y293021*
Y293019*
Y292833*
X69085*
Y289028*
X69722*
G37*
X75194Y293557D02*
G36*
X73613D01*
G75*
G02X73613Y293522I-1710J-37*
G01*
Y292833*
X74085*
Y289028*
X74722*
Y292833*
X75194*
Y293557*
G37*
X131523D02*
G36*
X79199D01*
X78613Y292971*
Y292833*
X79085*
Y289028*
X79722*
Y292833*
X84085*
Y289028*
X131523*
Y293557*
G37*
X142521D02*
G36*
X134127D01*
Y289028*
X142521*
Y293557*
G37*
X230173D02*
G36*
X152627D01*
Y289028*
X230773*
Y292957*
X230173Y293557*
G37*
X290556Y289028D02*
G36*
X286027Y293557D01*
X233877*
Y289028*
X241048*
G75*
G02X247602I3278J-1928*
G01*
X259927*
G75*
G02X268723I4398J-1927*
G01*
X269926*
G75*
G02X278723I4398J-1927*
G01*
X290556*
G37*
X327773D02*
G36*
Y293557D01*
X299627*
Y289028*
X299926*
G75*
G02X308723I4398J-1927*
G01*
X327773*
G37*
X295023Y293557D02*
G36*
X289709D01*
X294239Y289028*
X295023*
Y293557*
G37*
X334894D02*
G36*
X333877D01*
Y292352*
G75*
G02X334230Y292893I1450J-559*
G01*
X334894Y293557*
G37*
X339283D02*
G36*
X336877Y291150D01*
Y289028*
X338776*
X343305Y293557*
X339283*
G37*
X369815D02*
G36*
G75*
G02X362457I-3679J1575D01*
G01*
X358004*
G75*
G02X350646I-3679J1575*
G01*
X347695*
X343165Y289028*
X351246*
G75*
G02X357403I3079J-2557*
G01*
X363057*
G75*
G02X369214I3078J-2557*
G01*
X399721*
Y293557*
X369815*
G37*
X13521Y304357D02*
G36*
X8928D01*
Y293557*
X13521*
Y304357*
G37*
X34523D02*
G36*
X19129D01*
Y293557*
X34523*
Y304357*
G37*
X64173Y293557D02*
G36*
X61728Y296003D01*
G75*
G02X61273Y297100I1096J1097*
G01*
Y297101*
Y297104*
Y304357*
X56552*
G75*
G02X48948I-3802*
G01*
X39284*
Y304335*
X41154Y302408*
G75*
G02X46552Y298957I1596J-3451*
G01*
G75*
G02X38948I-3802*
G01*
G75*
G02Y298958I5013J0*
G01*
G75*
G02X39176Y300254I3795*
G01*
X37127Y302367*
Y293557*
X48948*
G75*
G02X56552I3802*
G01*
X64173*
G37*
X69450D02*
G36*
X68616Y294392D01*
G75*
G02X68115Y295600I1209J1209*
G01*
Y296896*
X66100*
Y303998*
X68352*
Y304357*
X64377*
Y297743*
X68001Y294119*
G75*
G02X68360Y293557I-1096J-1097*
G01*
X69450*
G37*
X77352Y304357D02*
G36*
X71456D01*
Y303998*
X73707*
Y296896*
X71534*
Y296309*
X73112Y294730*
G75*
G02X73613Y293557I-1209J-1209*
G01*
X75194*
Y293679*
G75*
G02X75695Y294888I1710J0*
G01*
X77115Y296309*
Y296896*
X75100*
Y303998*
X77352*
Y304357*
G37*
X142521D02*
G36*
X80456D01*
Y303998*
X82707*
Y296896*
X80534*
Y295600*
G75*
G02X80033Y294392I-1710J0*
G01*
X79199Y293557*
X131523*
Y296082*
G75*
G02X130423Y298100I1303J2019*
G01*
G75*
G02X135227I2402*
G01*
G75*
G02X134127Y296082I-2403J0*
G01*
Y293557*
X142521*
Y304357*
G37*
X230173Y293557D02*
G36*
X228182Y295548D01*
X179325*
G75*
G02X178225Y296005I1J1554*
G01*
X173111Y301119*
G75*
G02X172655Y302219I1098J1101*
G01*
Y304357*
X163715*
G75*
G02X158935I-2389J244*
G01*
X158923*
X152627Y298061*
Y293557*
X230173*
G37*
X286027D02*
G36*
X276672Y302911D01*
G75*
G02X270383Y304357I-2348J4189*
G01*
X268266*
G75*
G02X260384I-3941J2743*
G01*
X230276*
X229922Y304003*
G75*
G02X228822Y303548I-1098J1098*
G01*
X188325*
G75*
G02X187225Y304005I1J1554*
G01*
X186873Y304357*
X175759*
Y302861*
X179968Y298652*
X228825*
G75*
G02X229924Y298196I-1J-1554*
G01*
X233420Y294700*
G75*
G02X233877Y293600I-1098J-1101*
G01*
Y293557*
X286027*
G37*
X330371Y304357D02*
G36*
X326957D01*
G75*
G02X321693I-2632J2743*
G01*
X308266*
G75*
G02X300383I-3941J2743*
G01*
X299627*
Y293557*
X327773*
Y301116*
G75*
G02X328230Y302216I1554J-1*
G01*
X330371Y304357*
G37*
X295023D02*
G36*
X278909D01*
X289709Y293557*
X295023*
Y304357*
G37*
X345694D02*
G36*
X342672D01*
X333877Y295562*
Y293557*
X334894*
X345694Y304357*
G37*
X334761D02*
G36*
X330877Y300473D01*
Y296763*
G75*
G02X331228Y297302I1452J-561*
G01*
X338283Y304357*
X334761*
G37*
X350646Y293557D02*
G36*
G75*
G02X350636Y293580I3680J1600D01*
G01*
X347718*
X347695Y293557*
X350646*
G37*
X358287Y304357D02*
G36*
G75*
G02X358327Y303793I-3962J-563D01*
G01*
G75*
G02X350636Y302241I-4002J0*
G01*
X347968*
X339283Y293557*
X343305*
X345975Y296227*
G75*
G02X347075Y296684I1101J-1098*
G01*
X350636*
G75*
G02X358327Y295132I3689J-1552*
G01*
G75*
G02X358004Y293557I-4002*
G01*
X362457*
G75*
G02X362134Y295132I3679J1575*
G01*
G75*
G02X370138I4002*
G01*
G75*
G02X369815Y293557I-4002*
G01*
X399721*
Y304357*
X370098*
G75*
G02X370138Y303793I-3962J-563*
G01*
G75*
G02X362134I-4002*
G01*
G75*
G02X362174Y304357I4002J1*
G01*
X358287*
G37*
X13521Y315157D02*
G36*
X8928D01*
Y304357*
X13521*
Y315157*
G37*
X34523D02*
G36*
X19129D01*
Y304357*
X34523*
Y315157*
G37*
X68679D02*
G36*
X65596D01*
Y312652*
X60053*
Y315157*
X56552*
G75*
G02X48948I-3802*
G01*
X39284*
Y311320*
G75*
G02X46552Y309757I3466J-1563*
G01*
G75*
G02X39284Y308194I-3802*
G01*
Y304357*
X48948*
G75*
G02X56552I3802*
G01*
X61273*
Y305652*
X60053*
Y311549*
X65596*
Y305652*
X64377*
Y304357*
X68352*
Y305097*
Y305100*
Y305100*
G75*
G02X68806Y306198I1551*
G01*
X69111Y306503*
Y309900*
X68679*
Y315157*
G37*
X77352Y304357D02*
G36*
Y304879D01*
X77046Y305184*
G75*
G02X76592Y306281I1096J1097*
G01*
Y306282*
Y306285*
Y309900*
X76159*
Y315157*
X72648*
Y309900*
X72215*
Y305863*
Y305861*
Y305860*
G75*
G02X71761Y304763I-1551*
G01*
X71456Y304457*
Y304357*
X77352*
G37*
X142521Y315157D02*
G36*
X80128D01*
Y309900*
X79696*
Y306924*
X80001Y306619*
G75*
G02X80456Y305522I-1096J-1097*
G01*
Y305521*
Y305519*
Y304357*
X142521*
Y315157*
G37*
X158935Y304357D02*
G36*
G75*
G02X158934Y304369I2396J254D01*
G01*
X158923Y304357*
X158935*
G37*
X170207Y315157D02*
G36*
X164656D01*
Y309880*
X162753*
Y306532*
G75*
G02X163727Y304600I-1430J-1932*
G01*
G75*
G02X163715Y304357I-2402J-2*
G01*
X172655*
Y306829*
X169959*
Y314238*
X170188*
Y314923*
G75*
G02X170207Y315157I1461J0*
G01*
G37*
X186873Y304357D02*
G36*
X185907Y305324D01*
G75*
G02X185450Y306423I1098J1101*
G01*
Y306829*
X175759*
Y304357*
X186873*
G37*
X183217Y315157D02*
G36*
X183186D01*
Y315057*
G75*
G02X183217Y315157I1261J-339*
G01*
G37*
X294427D02*
G36*
X278716D01*
G75*
G02X269933I-4391J1943*
G01*
X268716*
G75*
G02X259934I-4391J1943*
G01*
X247593*
G75*
G02X241057I-3268J1943*
G01*
X188283*
G75*
G02X188304Y314923I-1282J-235*
G01*
Y314238*
X188691*
Y306929*
X188968Y306652*
X228182*
X229728Y308198*
G75*
G02X230828Y308652I1098J-1098*
G01*
X259781*
G75*
G02X269127Y307100I4544J-1552*
G01*
G75*
G02X268266Y304357I-4802*
G01*
X270383*
G75*
G02X269523Y307100I3941J2743*
G01*
Y307100*
G75*
G02X279127I4802*
G01*
G75*
G02X278514Y304753I-4807J1*
G01*
X278909Y304357*
X295023*
Y314561*
X294427Y315157*
G37*
X260384Y304357D02*
G36*
G75*
G02X259781Y305548I3941J2744D01*
G01*
X231468*
X230276Y304357*
X260384*
G37*
X330187Y315157D02*
G36*
X308716D01*
G75*
G02X299933I-4391J1943*
G01*
X299627*
Y308094*
G75*
G02X308869Y308652I4698J-993*
G01*
X320854*
G75*
G02X325681Y310652I3470J-1552*
G01*
X330187Y315157*
G37*
X300383Y304357D02*
G36*
G75*
G02X299627Y306107I3941J2743D01*
G01*
Y304357*
X300383*
G37*
X321693D02*
G36*
G75*
G02X320854Y305548I2632J2744D01*
G01*
X308869*
G75*
G02X308266Y304357I-4544J1552*
G01*
X321693*
G37*
X341171Y315157D02*
G36*
X334576D01*
X327876Y308457*
G75*
G02X328127Y307100I-3552J-1357*
G01*
G75*
G02X326957Y304357I-3802*
G01*
X330371*
X341171Y315157*
G37*
X351373D02*
G36*
X345561D01*
X334761Y304357*
X338283*
X347478Y313552*
G75*
G02X348578Y314007I1098J-1098*
G01*
X350636*
G75*
G02X351373Y315157I3689J-1552*
G01*
G37*
X357276D02*
G36*
G75*
G02X358327Y312455I-2952J-2703D01*
G01*
G75*
G02X350636Y310903I-4002J0*
G01*
X349218*
X342672Y304357*
X345694*
X346225Y304889*
G75*
G02X347325Y305345I1101J-1098*
G01*
X350636*
G75*
G02X358287Y304357I3689J-1552*
G01*
X362174*
G75*
G02X370098I3962J-564*
G01*
X399721*
Y315157*
X369088*
G75*
G02X370138Y312455I-2952J-2702*
G01*
G75*
G02X362134I-4002*
G01*
G75*
G02X363184Y315157I4002J0*
G01*
X357276*
G37*
X13521Y321431D02*
G36*
X8928D01*
Y315157*
X13521*
Y321431*
G37*
X34523D02*
G36*
X19129D01*
Y315157*
X34523*
Y321431*
G37*
X68679Y315157D02*
G36*
Y315640D01*
X69115*
Y321431*
X39284*
Y315157*
X48948*
G75*
G02X56552I3802*
G01*
X60053*
Y318549*
X65596*
Y315157*
X68679*
G37*
X76159D02*
G36*
Y315640D01*
X76842*
Y321431*
X76388*
Y318561*
X72419*
Y321431*
X72034*
Y315640*
X72648*
Y315157*
X76159*
G37*
X142521D02*
G36*
Y321431D01*
X142274*
Y316829*
X136376*
Y321431*
X79446*
Y315640*
X80128*
Y315157*
X142521*
G37*
X170207D02*
G36*
G75*
G02X170618Y315957I1441J-235D01*
G01*
X171291Y316630*
G75*
G02X172325Y317060I1034J-1031*
G01*
X173524*
X172285Y318298*
X161356*
G75*
G02X160434Y318681I0J1304*
G01*
X157684Y321431*
X153631*
X154892Y320170*
G75*
G02X154893Y320169I-1J-2*
G01*
G75*
G02X154894Y320168I-2J-2*
G01*
X156892Y318170*
G75*
G02X157129Y317601I-565J-569*
G01*
Y317600*
Y316998*
X164656*
Y315157*
X170207*
G37*
X262250Y321431D02*
G36*
X181835D01*
X182803Y320463*
G75*
G02X183186Y319541I-921J-922*
G01*
Y315157*
X183217*
G75*
G02X183524Y315641I1230J-441*
G01*
X184403Y316520*
G75*
G02X185325Y316902I922J-921*
G01*
X186325*
G75*
G02X187247Y316520I0J-1304*
G01*
X187921Y315845*
G75*
G02X188283Y315157I-921J-922*
G01*
X241057*
G75*
G02X240523Y317100I3268J1943*
G01*
Y317100*
G75*
G02X247796Y318652I3802J0*
G01*
X259781*
G75*
G02X262250Y321431I4544J-1552*
G01*
G37*
X259934Y315157D02*
G36*
G75*
G02X259781Y315548I4392J1944D01*
G01*
X247796*
G75*
G02X247593Y315157I-3471J1550*
G01*
X259934*
G37*
X336461Y321431D02*
G36*
X306400D01*
G75*
G02X309127Y317100I-2075J-4331*
G01*
G75*
G02X308716Y315157I-4802J0*
G01*
X330187*
X336461Y321431*
G37*
X269933Y315157D02*
G36*
G75*
G02X269523Y317100I4391J1943D01*
G01*
G75*
G02X272250Y321431I4802*
G01*
X266399*
G75*
G02X269127Y317100I-2074J-4331*
G01*
G75*
G02X268716Y315157I-4802J0*
G01*
X269933*
G37*
X294427D02*
G36*
X288153Y321431D01*
X276399*
G75*
G02X279127Y317100I-2074J-4331*
G01*
G75*
G02X278716Y315157I-4802J0*
G01*
X294427*
G37*
X297023Y321431D02*
G36*
X291835D01*
X297023Y316244*
Y321431*
G37*
X302250D02*
G36*
X299627D01*
Y318094*
G75*
G02X302250Y321431I4698J-994*
G01*
G37*
X299933Y315157D02*
G36*
G75*
G02X299627Y316107I4392J1943D01*
G01*
Y315157*
X299933*
G37*
X347445Y321431D02*
G36*
X340850D01*
X334576Y315157*
X341171*
X347445Y321431*
G37*
X358314D02*
G36*
G75*
G02X358327Y321116I-3990J-317D01*
G01*
G75*
G02X350636Y319564I-4002J0*
G01*
X349968*
X345561Y315157*
X351373*
G75*
G02X357276I2952J-2703*
G01*
X363184*
G75*
G02X369088I2952J-2703*
G01*
X399721*
Y321431*
X370125*
G75*
G02X370138Y321116I-3990J-317*
G01*
G75*
G02X362134I-4002*
G01*
G75*
G02X362146Y321431I4003J-2*
G01*
X358314*
G37*
X13521Y329778D02*
G36*
X8928D01*
Y321431*
X13521*
Y329778*
G37*
X39661D02*
G36*
X19129D01*
Y321431*
X34523*
Y324100*
G75*
G02X34906Y325022I1304J0*
G01*
X39661Y329778*
G37*
X69115Y321431D02*
G36*
Y325246D01*
X67470Y326891*
X43679*
X39284Y322496*
Y321431*
X69115*
G37*
X76842D02*
G36*
Y327242D01*
X74785Y329298*
X69191*
X71605Y326884*
G75*
G02X72034Y325850I-1031J-1034*
G01*
Y321431*
X72419*
Y324301*
X76388*
Y321431*
X76842*
G37*
X157684D02*
G36*
X156437Y322678D01*
G75*
G02X156054Y323600I921J922*
G01*
Y327203*
X153994*
Y329778*
X77989*
X79063Y328704*
G75*
G02X79446Y327781I-921J-922*
G01*
Y321431*
X136376*
Y322372*
X142274*
Y321431*
X142521*
Y322600*
Y322601*
G75*
G02X142757Y323170I802*
G01*
X143756Y324168*
G75*
G02X144325Y324404I569J-565*
G01*
X150325*
G75*
G02X150894Y324168I0J-802*
G01*
X153631Y321431*
X157684*
G37*
X170188Y329778D02*
G36*
X164721D01*
Y327268*
X164929Y327060*
X172220*
X172802Y327641*
X172325*
G75*
G02X171291Y328070I0J1460*
G01*
X170618Y328744*
G75*
G02X170188Y329778I1031J1034*
G01*
G37*
X288153Y321431D02*
G36*
X279806Y329778D01*
X188554*
G75*
G02X188097Y328678I-1554J1*
G01*
X187424Y328005*
G75*
G02X186325Y327548I-1101J1098*
G01*
X184825*
G75*
G02X183725Y328005I1J1554*
G01*
X183348Y328383*
G75*
G02X183284Y328450I1071J1078*
G01*
Y325603*
Y325601*
Y325600*
G75*
G02X182857Y324569I-1457J-1*
G01*
X180857Y322569*
G75*
G02X180774Y322492I-1136J1141*
G01*
X181835Y321431*
X262250*
G75*
G02X266399I2074J-4331*
G01*
X272250*
G75*
G02X276399I2074J-4330*
G01*
X288153*
G37*
X344807Y329778D02*
G36*
X299627D01*
Y321431*
X302250*
G75*
G02X306400I2075J-4331*
G01*
X336461*
X344807Y329778*
G37*
X297023D02*
G36*
X283489D01*
X291835Y321431*
X297023*
Y329778*
G37*
X358327D02*
G36*
G75*
G02X350636Y328226I-4002J0D01*
G01*
X347645*
X340850Y321431*
X347445*
X348225Y322211*
G75*
G02X349325Y322668I1101J-1098*
G01*
X350636*
G75*
G02X358314Y321431I3689J-1552*
G01*
X362146*
G75*
G02X370125I3989J-315*
G01*
X399721*
Y329778*
X370138*
G75*
G02X362134I-4002*
G01*
X358327*
G37*
X16027Y338439D02*
G36*
X8928D01*
Y329778*
X13521*
Y335600*
Y335601*
G75*
G02X13757Y336170I802*
G01*
X16027Y338439*
G37*
X170188Y329778D02*
G36*
Y329963D01*
X169959*
Y337372*
X172655*
Y338439*
X56270*
G75*
G02X39230I-8520J4318*
G01*
X24300*
X19129Y333267*
Y329778*
X39661*
X41403Y331520*
G75*
G02X42325Y331902I922J-921*
G01*
X75325*
G75*
G02X76247Y331520I0J-1304*
G01*
X77989Y329778*
X153994*
Y334321*
X164656*
Y331195*
G75*
G02X164721Y330762I-1395J-433*
G01*
Y329778*
X170188*
G37*
X185459Y338439D02*
G36*
X175759D01*
Y337372*
X185450*
Y338278*
G75*
G02X185459Y338439I1555J-2*
G01*
G37*
X279806Y329778D02*
G36*
X276672Y332911D01*
G75*
G02X269523Y337100I-2348J4189*
G01*
Y337100*
G75*
G02X269713Y338439I4802J1*
G01*
X268937*
G75*
G02X269127Y337100I-4612J-1338*
G01*
G75*
G02X259781Y335548I-4802*
G01*
X231328*
G75*
G02X230228Y336003I-3J1552*
G01*
X228682Y337548*
X188554*
Y337372*
X188691*
Y329963*
X188554*
Y329778*
X279806*
G37*
X297023Y338439D02*
G36*
X278937D01*
G75*
G02X279127Y337100I-4612J-1338*
G01*
G75*
G02X278514Y334753I-4807J1*
G01*
X283489Y329778*
X297023*
Y338439*
G37*
X393433D02*
G36*
G75*
G02X382933I-5250J5906D01*
G01*
X370138*
G75*
G02X362134I-4002*
G01*
X358327*
G75*
G02X350636Y336887I-4002J0*
G01*
X347468*
X346586Y336005*
G75*
G02X345486Y335548I-1101J1098*
G01*
X327796*
G75*
G02X320854I-3471J1552*
G01*
X308869*
G75*
G02X299627Y336107I-4544J1552*
G01*
Y329778*
X344807*
X345902Y330873*
G75*
G02X347002Y331330I1101J-1098*
G01*
X350636*
G75*
G02X358327Y329778I3689J-1552*
G01*
X362134*
G75*
G02X370138I4002*
G01*
X399721*
Y338439*
X393433*
G37*
X299713D02*
G36*
X299627D01*
Y338094*
G75*
G02X299713Y338439I4698J-991*
G01*
G37*
X21932Y344344D02*
G36*
X8928D01*
Y338439*
X16027*
X21932Y344344*
G37*
X38331D02*
G36*
X30206D01*
X24300Y338439*
X39230*
G75*
G02X38198Y342757I8520J4319*
G01*
G75*
G02X38331Y344344I9552J1*
G01*
G37*
X174756D02*
G36*
X57169D01*
G75*
G02X57302Y342757I-9419J-1587*
G01*
G75*
G02X56270Y338439I-9552J0*
G01*
X172655*
Y341597*
Y341600*
Y341600*
G75*
G02X173109Y342698I1551*
G01*
X174756Y344344*
G37*
X297023D02*
G36*
X278257D01*
G75*
G02X270393I-3932J2756*
G01*
X268257*
G75*
G02X260393I-3932J2756*
G01*
X246944*
G75*
G02X241706I-2619J2756*
G01*
X179146*
X175759Y340957*
Y338439*
X185459*
G75*
G02X185907Y339377I1546J-162*
G01*
X186725Y340196*
G75*
G02X187825Y340652I1101J-1098*
G01*
X229322*
G75*
G02X230422Y340198I3J-1552*
G01*
X231968Y338652*
X259781*
G75*
G02X268937Y338439I4544J-1552*
G01*
X269713*
G75*
G02X278937I4612J-1339*
G01*
X297023*
Y344344*
G37*
X380281D02*
G36*
X369038D01*
G75*
G02X363234I-2902J2756*
G01*
X357226*
G75*
G02X351423I-2902J2756*
G01*
X308257*
G75*
G02X300393I-3932J2756*
G01*
X299627*
Y338439*
X299713*
G75*
G02X308869Y338652I4612J-1339*
G01*
X320854*
G75*
G02X327796I3471J-1552*
G01*
X344843*
X345725Y339534*
G75*
G02X346825Y339991I1101J-1098*
G01*
X350636*
G75*
G02X358327Y338439I3689J-1552*
G01*
X362134*
G75*
G02X370138I4002*
G01*
X382933*
G75*
G02X380281Y344344I5250J5906*
G01*
G37*
X396085D02*
G36*
G75*
G02X393433Y338439I-7902D01*
G01*
X399721*
Y344344*
X396085*
G37*
X34688Y357100D02*
G36*
X8928D01*
Y344344*
X21932*
X34688Y357100*
G37*
X237130D02*
G36*
X228127D01*
G75*
G02X220523I-3802*
G01*
X218127*
G75*
G02X210523I-3802*
G01*
X208127*
G75*
G02X200523I-3802*
G01*
X198127*
G75*
G02X190523I-3802*
G01*
X129454*
G75*
G02X129629Y356601I-628J-499*
G01*
Y356600*
Y353600*
Y353600*
G75*
G02X129392Y353031I-802*
G01*
X128894Y352533*
G75*
G02X128325Y352296I-569J565*
G01*
X66825*
G75*
G02X66256Y352533I0J802*
G01*
X63757Y355031*
G75*
G02X63521Y355600I565J569*
G01*
Y355600*
Y357100*
X42962*
X30206Y344344*
X38331*
G75*
G02X57169I9419J-1587*
G01*
X174756*
X178609Y348198*
G75*
G02X179710Y348652I1098J-1098*
G01*
X228682*
X237130Y357100*
G37*
X297023D02*
G36*
X241520D01*
X230424Y346005*
G75*
G02X229325Y345548I-1101J1098*
G01*
X180350*
X179146Y344344*
X241706*
G75*
G02X240523Y347100I2619J2756*
G01*
Y347100*
G75*
G02X247796Y348652I3802J0*
G01*
X259781*
G75*
G02X269127Y347100I4544J-1552*
G01*
G75*
G02X268257Y344344I-4802*
G01*
X270393*
G75*
G02X269523Y347100I3932J2756*
G01*
G75*
G02X279127I4802*
G01*
G75*
G02X278257Y344344I-4802J0*
G01*
X297023*
Y357100*
G37*
X260393Y344344D02*
G36*
G75*
G02X259781Y345548I3933J2756D01*
G01*
X247796*
G75*
G02X246944Y344344I-3471J1552*
G01*
X260393*
G37*
X351423D02*
G36*
G75*
G02X350636Y345548I2902J2756D01*
G01*
X344325*
G75*
G02X343225Y346005I1J1554*
G01*
X332130Y357100*
X299627*
Y348094*
G75*
G02X309127Y347100I4698J-994*
G01*
G75*
G02X308257Y344344I-4802J0*
G01*
X351423*
G37*
X300393D02*
G36*
G75*
G02X299627Y346107I3932J2756D01*
G01*
Y344344*
X300393*
G37*
X357226D02*
G36*
X363234D01*
G75*
G02X362134Y347100I2902J2756*
G01*
G75*
G02X370138I4002*
G01*
G75*
G02X369038Y344344I-4002*
G01*
X380281*
G75*
G02X396085I7902*
G01*
X399721*
Y357100*
X336520*
X344968Y348652*
X350636*
G75*
G02X358327Y347100I3689J-1552*
G01*
G75*
G02X357226Y344344I-4002J0*
G01*
G37*
X47188Y369600D02*
G36*
X28135D01*
G75*
G02X14373I-6881J10571*
G01*
X8928*
Y357100*
X34688*
X47188Y369600*
G37*
X63521Y357100D02*
G36*
Y362267D01*
X59992Y365796*
X51658*
X42962Y357100*
X63521*
G37*
X260225Y369600D02*
G36*
X163127D01*
G75*
G02X155523I-3802*
G01*
X153127*
G75*
G02X145523I-3802*
G01*
X143127*
G75*
G02X135523I-3802*
G01*
X133127*
G75*
G02X125523I-3802*
G01*
X123127*
G75*
G02X115523I-3802*
G01*
X113127*
G75*
G02X105523I-3802*
G01*
X103127*
G75*
G02X95523I-3802*
G01*
X93127*
G75*
G02X85523I-3802*
G01*
X83127*
G75*
G02X75523I-3802*
G01*
X75129*
Y358933*
X76158Y357904*
X128325*
G75*
G02X128894Y357668I0J-802*
G01*
X129392Y357170*
G75*
G02X129454Y357100I-565J-570*
G01*
X190523*
G75*
G02X198127I3802*
G01*
X200523*
G75*
G02X208127I3802*
G01*
X210523*
G75*
G02X218127I3802*
G01*
X220523*
G75*
G02X228127I3802*
G01*
X237130*
X248225Y368196*
G75*
G02X249325Y368652I1101J-1098*
G01*
X259781*
G75*
G02X260225Y369600I4544J-1552*
G01*
G37*
X297023Y357100D02*
G36*
Y361561D01*
X292785Y365798*
X278947*
G75*
G02X269523Y367100I-4622J1302*
G01*
G75*
G02X270225Y369600I4802J0*
G01*
X268425*
G75*
G02X269127Y367100I-4100J-2500*
G01*
G75*
G02X259781Y365548I-4802*
G01*
X249968*
X241520Y357100*
X297023*
G37*
X321460Y369600D02*
G36*
X308424D01*
G75*
G02X308869Y368652I-4100J-2500*
G01*
X320854*
G75*
G02X321460Y369600I3471J-1552*
G01*
G37*
X332130Y357100D02*
G36*
X325681Y363549D01*
G75*
G02X320854Y365548I-1357J3551*
G01*
X308869*
G75*
G02X299523Y367100I-4544J1552*
G01*
G75*
G02X300225Y369600I4802J0*
G01*
X278424*
G75*
G02X278947Y368402I-4100J-2501*
G01*
X293325*
G75*
G02X294247Y368020I0J-1304*
G01*
X299244Y363022*
G75*
G02X299627Y362100I-921J-922*
G01*
Y357100*
X332130*
G37*
X380515Y369600D02*
G36*
X327190D01*
G75*
G02X328127Y367101I-2865J-2500*
G01*
G75*
G02X327876Y365744I-3802J0*
G01*
X336520Y357100*
X399721*
Y369600*
X394276*
G75*
G02X380515I-6881J10571*
G01*
G37*
X14373D02*
G36*
G75*
G02X8928Y377494I6881J10571D01*
G01*
Y369600*
X14373*
G37*
X63521Y379600D02*
G36*
X33854D01*
G75*
G02X28135Y369600I-12600J571*
G01*
X47188*
X48756Y371168*
G75*
G02X49325Y371404I569J-565*
G01*
X59992*
X63521Y374933*
Y379600*
G37*
X374796D02*
G36*
X227189D01*
G75*
G02X228127Y377100I-2865J-2500*
G01*
G75*
G02X220523I-3802*
G01*
G75*
G02X221460Y379600I3802*
G01*
X217189*
G75*
G02X218127Y377100I-2865J-2500*
G01*
G75*
G02X210523I-3802*
G01*
G75*
G02X211460Y379600I3802*
G01*
X207189*
G75*
G02X208127Y377100I-2865J-2500*
G01*
G75*
G02X200523I-3802*
G01*
G75*
G02X201460Y379600I3802*
G01*
X197189*
G75*
G02X198127Y377100I-2865J-2500*
G01*
G75*
G02X190523I-3802*
G01*
G75*
G02X191460Y379600I3802*
G01*
X163127*
G75*
G02X155523I-3802*
G01*
X153127*
G75*
G02X145523I-3802*
G01*
X143127*
G75*
G02X135523I-3802*
G01*
X133127*
G75*
G02X125523I-3802*
G01*
X123127*
G75*
G02X115523I-3802*
G01*
X113127*
G75*
G02X105523I-3802*
G01*
X103127*
G75*
G02X95523I-3802*
G01*
X93127*
G75*
G02X85523I-3802*
G01*
X83127*
G75*
G02X75523I-3802*
G01*
X75129*
Y369600*
X75523*
G75*
G02X83127I3802*
G01*
X85523*
G75*
G02X93127I3802*
G01*
X95523*
G75*
G02X103127I3802*
G01*
X105523*
G75*
G02X113127I3802*
G01*
X115523*
G75*
G02X123127I3802*
G01*
X125523*
G75*
G02X133127I3802*
G01*
X135523*
G75*
G02X143127I3802*
G01*
X145523*
G75*
G02X153127I3802*
G01*
X155523*
G75*
G02X163127I3802*
G01*
X260225*
G75*
G02X268425I4100J-2500*
G01*
X270225*
G75*
G02X278424I4100J-2500*
G01*
X300225*
G75*
G02X308424I4100J-2500*
G01*
X321460*
G75*
G02X327190I2865J-2500*
G01*
X380515*
G75*
G02X374796Y379600I6881J10571*
G01*
G37*
X399721Y377494D02*
G36*
G75*
G02X394276Y369600I-12326J2677D01*
G01*
X399721*
Y377494*
G37*
X384719Y392497D02*
G36*
X23931D01*
G75*
G02X33867Y380172I-2676J-12325*
G01*
G75*
G02Y380171I-15038J0*
G01*
G75*
G02X33854Y379600I-12613J2*
G01*
X63521*
Y386100*
Y386101*
G75*
G02X63757Y386670I802*
G01*
X64756Y387668*
G75*
G02X65325Y387904I569J-565*
G01*
X73325*
G75*
G02X73894Y387668I0J-802*
G01*
X74892Y386670*
G75*
G02X75129Y386101I-565J-569*
G01*
Y386100*
Y379600*
X75523*
G75*
G02X83127I3802*
G01*
X85523*
G75*
G02X93127I3802*
G01*
X95523*
G75*
G02X103127I3802*
G01*
X105523*
G75*
G02X113127I3802*
G01*
X115523*
G75*
G02X123127I3802*
G01*
X125523*
G75*
G02X133127I3802*
G01*
X135523*
G75*
G02X143127I3802*
G01*
X145523*
G75*
G02X153127I3802*
G01*
X155523*
G75*
G02X163127I3802*
G01*
X191460*
G75*
G02X197189I2865J-2500*
G01*
X201460*
G75*
G02X207189I2865J-2500*
G01*
X211460*
G75*
G02X217189I2865J-2500*
G01*
X221460*
G75*
G02X227189I2865J-2500*
G01*
X374796*
G75*
G02X374783Y380171I12600J572*
G01*
G75*
G02X384719Y392497I12613*
G01*
G37*
D02*
D11*
X16163Y117100D02*
X14364D01*
X26210Y138985D02*
X24557Y137333D01*
X26356Y140600D02*
X24557D01*
X26356Y147600D02*
X24557D01*
X26725Y58600D02*
X24925D01*
X26808Y58180D02*
X25146Y57491D01*
X26808Y59021D02*
X25146Y59710D01*
X27047Y57822D02*
X25774Y56550D01*
X27047Y59378D02*
X25774Y60651D01*
X27179Y107955D02*
Y106156D01*
Y126246D02*
Y128045D01*
X27404Y57584D02*
X26715Y55921D01*
X27404Y59617D02*
X26715Y61280D01*
X27825Y57500D02*
Y55700D01*
Y59700D02*
Y61500D01*
Y138955D02*
Y137156D01*
Y145955D02*
Y144156D01*
Y149246D02*
Y151045D01*
X28246Y57584D02*
X28935Y55921D01*
X28246Y59617D02*
X28935Y61280D01*
X28603Y57822D02*
X29876Y56550D01*
X28603Y59378D02*
X29876Y60651D01*
X28841Y58180D02*
X30504Y57491D01*
X28841Y59021D02*
X30504Y59710D01*
X28925Y58600D02*
X30725D01*
X29179Y97100D02*
X27380D01*
X29293Y140600D02*
X31093D01*
X29293Y147600D02*
X31093D01*
X29440Y138985D02*
X31093Y137333D01*
X29628Y48350D02*
X27628D01*
X30189Y45528D02*
X28342Y44763D01*
X30189Y51172D02*
X28342Y51938D01*
X30825Y95632D02*
Y93833D01*
Y98569D02*
Y100368D01*
X31788Y43136D02*
X30374Y41722D01*
X31788Y53565D02*
X30374Y54979D01*
X32470Y97100D02*
X34270D01*
X33541Y139360D02*
X31742D01*
X33541Y146841D02*
X31742D01*
X34180Y41537D02*
X33415Y39690D01*
X34180Y55163D02*
X33415Y57011D01*
X34576Y138533D02*
X32923Y136880D01*
X34576Y140188D02*
X32923Y141841D01*
X35225Y34600D02*
X33425D01*
X35308Y34180D02*
X33646Y33491D01*
X35308Y35021D02*
X33646Y35710D01*
X35404Y138679D02*
Y136880D01*
Y140041D02*
Y141841D01*
Y147522D02*
Y149321D01*
X35547Y33822D02*
X34274Y32550D01*
X35547Y35378D02*
X34274Y36651D01*
X35904Y33584D02*
X35215Y31921D01*
X35904Y35617D02*
X35215Y37280D01*
X36231Y138533D02*
X37884Y136880D01*
X36231Y140188D02*
X37884Y141841D01*
X36325Y33500D02*
Y31700D01*
Y35700D02*
Y37500D01*
X36746Y33584D02*
X37435Y31921D01*
X36746Y35617D02*
X37435Y37280D01*
X37002Y40976D02*
Y38976D01*
Y55724D02*
Y57724D01*
X37103Y33822D02*
X38376Y32550D01*
X37103Y35378D02*
X38376Y36651D01*
X37266Y139360D02*
X39065D01*
X37266Y146841D02*
X39065D01*
X37341Y34180D02*
X39004Y33491D01*
X37341Y35021D02*
X39004Y35710D01*
X37425Y34600D02*
X39225D01*
X38195Y117100D02*
X39994D01*
X39824Y41537D02*
X40589Y39690D01*
X39824Y55163D02*
X40589Y57011D01*
X40250Y277357D02*
X38450D01*
X42216Y43136D02*
X43630Y41722D01*
X42216Y53565D02*
X43630Y54979D01*
X42225Y17100D02*
X40425D01*
X42308Y16680D02*
X40646Y15991D01*
X42308Y17521D02*
X40646Y18210D01*
X42423Y30043D02*
X40423D01*
X42547Y17878D02*
X41274Y19151D01*
X42750Y279857D02*
Y281657D01*
Y298957D02*
Y299100D01*
X42468*
X37825Y303744*
Y323100*
X43075Y328350*
X68075*
X70575Y325850*
Y312858*
X70663Y312770*
X42904Y18117D02*
X42215Y19780D01*
X42985Y27221D02*
X41137Y26456D01*
X42985Y32865D02*
X41137Y33631D01*
X43325Y18200D02*
Y20000D01*
X43384Y139360D02*
X41585D01*
X43384Y146841D02*
X41585D01*
X43746Y18117D02*
X44435Y19780D01*
X43815Y45528D02*
X45663Y44763D01*
X43815Y51172D02*
X45663Y51938D01*
X44103Y16322D02*
X45376Y15050D01*
X44103Y17878D02*
X45376Y19151D01*
X44341Y16680D02*
X46004Y15991D01*
X44341Y17521D02*
X46004Y18210D01*
X44376Y48350D02*
X46376D01*
X44419Y138533D02*
X42766Y136880D01*
X44425Y17100D02*
X46225D01*
X44583Y24829D02*
X43169Y23415D01*
X44583Y35257D02*
X43169Y36672D01*
X44725Y58600D02*
X42925D01*
X44808Y58180D02*
X43146Y57491D01*
X44808Y59021D02*
X43146Y59710D01*
X45047Y57822D02*
X43774Y56550D01*
X45047Y59378D02*
X43774Y60651D01*
X45246Y138679D02*
Y136880D01*
X45250Y277357D02*
X47050D01*
X45404Y57584D02*
X44715Y55921D01*
X45404Y59617D02*
X44715Y61280D01*
X45825Y57500D02*
Y55700D01*
Y59700D02*
Y61500D01*
X46074Y138533D02*
X47726Y136880D01*
X46246Y57584D02*
X46935Y55921D01*
X46246Y59617D02*
X46935Y61280D01*
X46603Y57822D02*
X47876Y56550D01*
X46603Y59378D02*
X47876Y60651D01*
X46975Y23230D02*
X46210Y21383D01*
X46975Y36856D02*
X46210Y38704D01*
X47108Y139360D02*
X48907D01*
X47108Y143100D02*
X48907D01*
X49797Y22669D02*
Y20669D01*
Y37417D02*
Y39417D01*
X50317Y108124D02*
X48518D01*
X50317Y126077D02*
X48518D01*
X51825Y95632D02*
Y93833D01*
Y98569D02*
Y100368D01*
X52210Y136485D02*
X50557Y134833D01*
X52266Y48350D02*
X50266D01*
X52336Y106509D02*
X50683Y104856D01*
X52336Y109739D02*
X50683Y111392D01*
X52336Y124462D02*
X50683Y122809D01*
X52336Y127692D02*
X50683Y129344D01*
X52356Y138100D02*
X50557D01*
X52356Y145100D02*
X50557D01*
X52619Y23230D02*
X53385Y21383D01*
X52750Y271957D02*
X37825D01*
X35825Y273957*
Y324100*
X42325Y330600*
X75325*
X78144Y327781*
Y312770*
X52902Y45152D02*
X51054Y44387D01*
X52902Y51549D02*
X51054Y52314D01*
X53440Y95485D02*
X55093Y93833D01*
X53440Y98715D02*
X55093Y100368D01*
X53470Y97100D02*
X55270D01*
X53825Y136455D02*
Y134656D01*
Y143455D02*
Y141656D01*
Y146746D02*
Y148545D01*
X53951Y106656D02*
Y104856D01*
Y109593D02*
Y111392D01*
Y124608D02*
Y122809D01*
Y127545D02*
Y129344D01*
X54714Y42440D02*
X53300Y41026D01*
X54714Y54261D02*
X53300Y55675D01*
X55011Y24829D02*
X56426Y23415D01*
X55225Y17100D02*
X53425D01*
X55293Y138100D02*
X57093D01*
X55293Y145100D02*
X57093D01*
X55308Y16680D02*
X53646Y15991D01*
X55308Y17521D02*
X53646Y18210D01*
X55440Y136485D02*
X57093Y134833D01*
X55547Y16322D02*
X54274Y15050D01*
X55547Y17878D02*
X54274Y19151D01*
X55566Y106509D02*
X57219Y104856D01*
X55566Y109739D02*
X57219Y111392D01*
X55566Y124462D02*
X57219Y122809D01*
X55566Y127692D02*
X57219Y129344D01*
X55904Y18117D02*
X55215Y19780D01*
X56325Y18200D02*
Y20000D01*
X56610Y27221D02*
X58458Y26456D01*
X56610Y32865D02*
X58458Y33631D01*
X56746Y18117D02*
X57435Y19780D01*
X57103Y16322D02*
X58376Y15050D01*
X57103Y17878D02*
X58376Y19151D01*
X57171Y30043D02*
X59171D01*
X57341Y16680D02*
X59004Y15991D01*
X57341Y17521D02*
X59004Y18210D01*
X57425Y17100D02*
X59225D01*
X57426Y40628D02*
X56660Y38781D01*
X57426Y56072D02*
X56660Y57920D01*
X57585Y108124D02*
X59384D01*
X57585Y126077D02*
X59384D01*
X60624Y39992D02*
Y37992D01*
Y56709D02*
Y58709D01*
X61356Y315600D02*
X59557D01*
X62710Y123485D02*
X61057Y121833D01*
X62710Y126715D02*
X61057Y128368D01*
X62825Y313955D02*
Y312156D01*
Y317246D02*
Y319045D01*
X62856Y118100D02*
X61057D01*
X62856Y125100D02*
X61057D01*
X63823Y40628D02*
X64588Y38780D01*
X63823Y56073D02*
X64588Y57920D01*
X64293Y315600D02*
X66093D01*
X64325Y116455D02*
Y114656D01*
Y123455D02*
Y121656D01*
Y126746D02*
Y128545D01*
X65793Y118100D02*
X67593D01*
X65793Y125100D02*
X67593D01*
X65940Y123485D02*
X67593Y121833D01*
X65940Y126715D02*
X67593Y128368D01*
X66534Y42440D02*
X67948Y41026D01*
X66534Y54261D02*
X67948Y55675D01*
X66825Y369600D02*
X65025D01*
X66825Y379600D02*
X65025D01*
X68346Y45152D02*
X70194Y44386D01*
X68346Y51549D02*
X70194Y52315D01*
X68982Y48350D02*
X70982D01*
X69325Y367100D02*
Y365300D01*
Y372100D02*
Y373900D01*
Y377100D02*
Y375300D01*
Y382100D02*
Y383900D01*
X69856Y20600D02*
X68057D01*
X69856Y27600D02*
X68057D01*
X70356Y173600D02*
X68557D01*
X71325Y18955D02*
Y17156D01*
Y25955D02*
Y24156D01*
Y29246D02*
Y31045D01*
X71825Y171955D02*
Y170156D01*
Y369600D02*
X73625D01*
X71825Y379600D02*
X73625D01*
X71904Y265171D02*
Y263372D01*
Y270175D02*
Y271974D01*
X72210Y126485D02*
X70557Y124833D01*
X72356Y128100D02*
X70557D01*
X72793Y20600D02*
X74593D01*
X72793Y27600D02*
X74593D01*
X73293Y173600D02*
X75093D01*
X73825Y126455D02*
Y124656D01*
X74404Y319864D02*
Y318065D01*
Y322998D02*
Y324797D01*
X75293Y128100D02*
X77093D01*
X75356Y252350D02*
X73557D01*
X75440Y126485D02*
X77093Y124833D01*
X76825Y250705D02*
Y248904D01*
Y253996D02*
Y255797D01*
X78293Y252350D02*
X80093D01*
X78545Y32248D02*
X76746D01*
X78545Y69453D02*
X76746D01*
X79210Y126485D02*
X77557Y124833D01*
X79325Y28909D02*
Y27108D01*
Y35587D02*
Y37388D01*
Y66114D02*
Y64313D01*
Y72791D02*
Y74593D01*
Y377100D02*
Y375300D01*
Y382100D02*
Y383900D01*
X79356Y128100D02*
X77557D01*
X80825Y126455D02*
Y124656D01*
Y135100D02*
X126825D01*
X140868Y121057*
X154030*
X81825Y379600D02*
X83625D01*
X82293Y128100D02*
X84093D01*
X82440Y126485D02*
X84093Y124833D01*
X86825Y379600D02*
X85025D01*
X89106Y151100D02*
X87305D01*
X89325Y377100D02*
Y375300D01*
Y382100D02*
Y383900D01*
X90545Y170437D02*
Y172238D01*
Y188764D02*
Y186963D01*
X90575Y149455D02*
Y147656D01*
Y152746D02*
Y154545D01*
X91825Y379600D02*
X93625D01*
X92043Y151100D02*
X93844D01*
X92825Y206955D02*
Y205156D01*
Y210246D02*
Y212045D01*
X93104Y188764D02*
Y186963D01*
Y193571D02*
Y195372D01*
X94293Y208600D02*
X96093D01*
X96825Y379600D02*
X95025D01*
X98222Y191167D02*
Y204100D01*
X132825Y238703*
Y298100*
X99325Y377100D02*
Y375300D01*
Y382100D02*
Y383900D01*
X99825Y160600D02*
X100781Y161557D01*
Y168033*
Y191167D02*
Y196557D01*
X137325Y233100*
X101825Y379600D02*
X103625D01*
X103325Y157100D02*
X103341Y157116D01*
Y168033*
Y191167D02*
Y179585D01*
X110325Y172600*
X139325*
X106825Y379600D02*
X105025D01*
X109325Y377100D02*
Y375300D01*
Y382100D02*
Y383900D01*
X111825Y379600D02*
X113625D01*
X116825D02*
X115025D01*
X119325Y377100D02*
Y375300D01*
Y382100D02*
Y383900D01*
X121825Y379600D02*
X123625D01*
X126825D02*
X125025D01*
X127364Y98026D02*
X125565D01*
X127364Y121057D02*
X125565D01*
X127364Y123616D02*
X125565D01*
X129325Y377100D02*
Y375300D01*
Y382100D02*
Y383900D01*
X129620Y97738D02*
Y95939D01*
Y100585D02*
X125309D01*
X119325Y94600*
Y69453*
X129620Y103144D02*
X125325D01*
X114325Y92144*
Y69453*
X129620Y105703D02*
X125325D01*
X109325Y89703*
Y69453*
X129620Y108262D02*
X125325D01*
X104325Y87262*
Y69453*
X131825Y379600D02*
X133625D01*
X131876Y98026D02*
X133675D01*
X131876Y121057D02*
X133675D01*
X131876Y123616D02*
X133675D01*
X136825Y379600D02*
X135025D01*
X137179Y187600D02*
X135380D01*
X137679Y250100D02*
X135880D01*
X137679Y319600D02*
X135880D01*
X138825Y186132D02*
Y184333D01*
Y189069D02*
Y190868D01*
X139325Y248632D02*
Y246833D01*
Y251569D02*
Y253368D01*
Y318132D02*
Y316333D01*
Y321069D02*
Y322868D01*
Y377100D02*
Y375300D01*
Y382100D02*
Y383900D01*
X140470Y187600D02*
X142270D01*
X141825Y379600D02*
X143625D01*
X145825Y186132D02*
Y184333D01*
Y189069D02*
Y190868D01*
Y189069D02*
Y190868D01*
X146325Y248632D02*
Y246833D01*
Y248632D02*
Y246833D01*
Y251569D02*
Y253368D01*
Y251569D02*
Y253368D01*
Y318132D02*
Y316333D01*
Y321069D02*
Y322868D01*
X146825Y379600D02*
X145025D01*
X147470Y187600D02*
X149270D01*
X147970Y250100D02*
X149770D01*
X147970Y319600D02*
X149770D01*
X149325Y377100D02*
Y375300D01*
Y382100D02*
Y383900D01*
X151774Y118498D02*
X149974D01*
X151774Y126175D02*
X149974D01*
X151825Y379600D02*
X153625D01*
X152356Y132600D02*
X150557D01*
X152356Y139600D02*
X150557D01*
X153825Y130955D02*
Y129156D01*
Y141246D02*
Y143045D01*
X154030Y98026D02*
X258825D01*
X267250Y89600*
X273222*
X154030Y100585D02*
X260075D01*
X266059Y94600*
X273222*
X154030Y103144D02*
X261325D01*
X264868Y99600*
X273222*
X154030Y105703D02*
X262575D01*
X263677Y104600*
X273222*
X154030Y108262D02*
X264825D01*
X266163Y109600*
X273222*
X154030Y110821D02*
X260575D01*
X264354Y114600*
X273222*
X154030Y113380D02*
X259325D01*
X265545Y119600*
X273222*
X154030Y115939D02*
X258075D01*
X266736Y124600*
X273222*
X154030Y123616D02*
X141559D01*
X123575Y141600*
X86325*
X154030Y126463D02*
Y128262D01*
X155293Y132600D02*
X157093D01*
X155293Y139600D02*
X157093D01*
X155297Y188439D02*
X153498D01*
X155297Y205762D02*
X153498D01*
X155297Y250939D02*
X153498D01*
X155297Y268262D02*
X153498D01*
X155297Y313439D02*
X153498D01*
X155297Y330762D02*
X153498D01*
X155388Y186183D02*
Y184384D01*
Y203506D02*
Y201707D01*
Y208018D02*
Y209817D01*
Y248683D02*
Y246884D01*
Y266006D02*
Y264207D01*
Y270518D02*
Y272317D01*
Y311183D02*
Y309384D01*
Y315695D02*
Y317494D01*
Y328506D02*
Y326707D01*
Y333018D02*
Y334817D01*
X156285Y118498D02*
X158085D01*
X156285Y126175D02*
X158085D01*
X156825Y379600D02*
X155025D01*
X157356Y188439D02*
Y183600D01*
X153325Y179569*
Y150600*
X166325Y137600*
Y123807*
X163575Y121057*
X154030*
X157356Y205762D02*
Y199569D01*
X162325Y194600*
X172325*
X176766Y190159*
Y185533*
X157356Y250939D02*
Y242600D01*
X149325Y234569*
Y194100*
X150825Y192600*
X156356*
X157356Y191600*
Y188439*
Y313439D02*
Y307600D01*
X149325Y299569*
Y258100*
X151325Y256100*
X155825*
X157356Y254569*
Y250939*
Y330762D02*
Y323600D01*
X161356Y319600*
X172825*
X176766Y315659*
Y310533*
X159325Y205762D02*
Y200600D01*
X163325Y196600*
X180325*
X181825Y195100*
Y185593*
X181884Y185533*
X159325Y250939D02*
Y241600D01*
X151325Y233600*
Y195100*
X151825Y194600*
X157325*
X159325Y192600*
Y188439*
Y268262D02*
Y263100D01*
X162325Y260100*
X180325*
X181825Y258600*
Y248093*
X181884Y248033*
X159325Y313439D02*
Y306600D01*
X151325Y298600*
Y259100*
X152325Y258100*
X156825*
X159325Y255600*
Y250939*
Y330762D02*
Y324600D01*
X162325Y321600*
X179825*
X181884Y319541*
Y310533*
X159325Y377100D02*
Y375300D01*
Y382100D02*
Y383900D01*
X161293Y188439D02*
Y183350D01*
X161325Y183319*
Y178600*
X161293Y205762D02*
Y201600D01*
X164293Y198600*
X180325*
X181884Y200159*
Y208667*
X161293Y250939D02*
Y245850D01*
X161325Y245819*
Y233100*
X161293Y268262D02*
Y264100D01*
X163293Y262100*
X180325*
X181884Y263659*
Y271167*
X161293Y313439D02*
Y307100D01*
X161325Y307069*
Y304600*
X161293Y330762D02*
Y325632D01*
X163325Y323600*
X179825*
X181825Y325600*
Y333608*
X181884Y333667*
X161825Y379600D02*
X163625D01*
X162825Y136100D02*
Y125600D01*
X160841Y123616*
X154030*
X162825Y146100D02*
X155825Y153100D01*
Y178600*
X159325Y182100*
Y188439*
X163262Y205762D02*
Y202600D01*
X165262Y200600*
X172825*
X176766Y204541*
Y208667*
X163262Y268262D02*
Y265163D01*
X164325Y264100*
X173825*
X176766Y267041*
Y271167*
X163262Y330762D02*
Y326663D01*
X164325Y325600*
X172825*
X176825Y329600*
Y333608*
X176766Y333667*
X169179Y150850D02*
X167380D01*
X170825Y149382D02*
Y147581D01*
Y152319D02*
Y154120D01*
X171648Y310533D02*
Y314923D01*
X172325Y315600*
X173825*
X174325Y315100*
Y310415*
X174207Y310533*
X171648Y333667D02*
Y329778D01*
X172325Y329100*
X173825*
X174325Y329600*
Y333785*
X174207Y333667*
X172470Y150850D02*
X174270D01*
X176766Y248033D02*
X176825Y248093D01*
Y252100*
X170825Y258100*
X161356*
X157356Y262100*
Y268262*
X179325Y206264D02*
Y204463D01*
Y211071D02*
Y212872D01*
Y268764D02*
Y266963D01*
Y273571D02*
Y275372D01*
Y331264D02*
Y329463D01*
Y336071D02*
Y337872D01*
X184443Y310533D02*
Y314719D01*
X185325Y315600*
X186325*
X187002Y314923*
Y310533*
X184825Y157600D02*
Y157100D01*
X175325*
X188575Y131695D02*
Y129896D01*
Y134238D02*
Y136037D01*
Y139963D02*
Y138163D01*
Y142506D02*
Y144305D01*
X191825Y357100D02*
X190025D01*
X191825Y377100D02*
X190025D01*
X192325Y157600D02*
Y161100D01*
X190825Y162600*
X180825*
X178825Y160600*
X194325Y354600D02*
Y352800D01*
Y359600D02*
Y361400D01*
Y374600D02*
Y372800D01*
Y379600D02*
Y381400D01*
X196825Y357100D02*
X198625D01*
X196825Y377100D02*
X198625D01*
X201825Y357100D02*
X200025D01*
X201825Y377100D02*
X200025D01*
X204325Y354600D02*
Y352800D01*
Y359600D02*
Y361400D01*
Y374600D02*
Y372800D01*
Y379600D02*
Y381400D01*
X204929Y150850D02*
X203128D01*
X206575Y149382D02*
Y147581D01*
Y152319D02*
Y154120D01*
X206825Y357100D02*
X208625D01*
X206825Y377100D02*
X208625D01*
X208220Y150850D02*
X210022D01*
X211825Y357100D02*
X210025D01*
X211825Y377100D02*
X210025D01*
X214325Y354600D02*
Y352800D01*
Y359600D02*
Y361400D01*
Y374600D02*
Y372800D01*
Y379600D02*
Y381400D01*
X216825Y357100D02*
X218625D01*
X216825Y377100D02*
X218625D01*
X221825Y357100D02*
X220025D01*
X221825Y377100D02*
X220025D01*
X224325Y354600D02*
Y352800D01*
Y359600D02*
Y361400D01*
Y374600D02*
Y372800D01*
Y379600D02*
Y381400D01*
X226825Y357100D02*
X228625D01*
X226825Y377100D02*
X228625D01*
X269884Y84600D02*
X268085D01*
X273222Y83821D02*
Y82022D01*
X274325Y157100D02*
X284325Y147100D01*
Y107100*
X301825Y89600*
X310427*
X274325Y187100D02*
X286325Y175100D01*
Y110100*
X301825Y94600*
X310427*
X274325Y217100D02*
X288325Y203100D01*
Y113100*
X301825Y99600*
X310427*
X274325Y247100D02*
X290325Y231100D01*
Y116100*
X301825Y104600*
X310427*
X274325Y277100D02*
X292325Y259100D01*
Y119600*
X302325Y109600*
X310427*
X274325Y307100D02*
X294325Y287100D01*
Y122100*
X301825Y114600*
X310427*
X274325Y337100D02*
X296325Y315100D01*
Y125100*
X301825Y119600*
X310427*
X274325Y367100D02*
X293325D01*
X298325Y362100*
Y128100*
X301825Y124600*
X310427*
X276561Y84600D02*
X278360D01*
X307089D02*
X305289D01*
X310427Y83821D02*
Y82022D01*
X313766Y84600D02*
X315565D01*
X320356Y103600D02*
X318557D01*
X320356Y110600D02*
X318557D01*
X321825Y101955D02*
Y100156D01*
Y112246D02*
Y114045D01*
X323293Y103600D02*
X325093D01*
X323293Y110600D02*
X325093D01*
X351625Y199856D02*
X349825D01*
X351625Y217179D02*
X349825D01*
X351656Y71657D02*
X349656D01*
X352217Y68835D02*
X350369Y68070D01*
X352217Y74480D02*
X350369Y75245D01*
X353815Y66443D02*
X352401Y65029D01*
X353815Y76872D02*
X352401Y78286D01*
X356207Y64844D02*
X355442Y62997D01*
X356207Y78470D02*
X355442Y80318D01*
X359030Y64283D02*
Y62283D01*
Y79031D02*
Y81031D01*
X361852Y64844D02*
X362617Y62997D01*
X361852Y78470D02*
X362617Y80318D01*
X363436Y286470D02*
X361636D01*
X363436Y295132D02*
X361636D01*
X363436Y303793D02*
X361636D01*
X363436Y312455D02*
X361636D01*
X363436Y321116D02*
X361636D01*
X363436Y329778D02*
X361636D01*
X363436Y338439D02*
X361636D01*
X363436Y347100D02*
X361636D01*
X364244Y66443D02*
X365658Y65029D01*
X364244Y76872D02*
X365658Y78286D01*
X364451Y53350D02*
X362451D01*
X365012Y50528D02*
X363165Y49763D01*
X365012Y56172D02*
X363165Y56938D01*
X365404Y41117D02*
X364639Y42965D01*
X365825Y41200D02*
Y43200D01*
X365843Y68835D02*
X367690Y68070D01*
X365843Y74480D02*
X367690Y75245D01*
X366136Y349800D02*
Y351600D01*
X366246Y41117D02*
X367011Y42965D01*
X366404Y71657D02*
X368404D01*
X366611Y48136D02*
X365196Y46722D01*
X366611Y58565D02*
X365196Y59979D01*
X368836Y286470D02*
X370636D01*
X368836Y295132D02*
X370636D01*
X368836Y303793D02*
X370636D01*
X368836Y312455D02*
X370636D01*
X368836Y321116D02*
X370636D01*
X368836Y329778D02*
X370636D01*
X368836Y338439D02*
X370636D01*
X368836Y347100D02*
X370636D01*
X369003Y46537D02*
X368237Y44690D01*
X369003Y60163D02*
X368237Y62011D01*
X371825Y45976D02*
Y43976D01*
Y60724D02*
Y62724D01*
X374647Y46537D02*
X375412Y44690D01*
X374647Y60163D02*
X375412Y62011D01*
X377039Y48136D02*
X378453Y46722D01*
X377039Y58565D02*
X378453Y59979D01*
X378638Y50528D02*
X380485Y49763D01*
X378638Y56172D02*
X380485Y56938D01*
D02*
D12*
X21254Y14030D03*
Y380171D03*
X387396Y14030D03*
Y380171D03*
D02*
D13*
X60624Y48350D03*
X348203Y53350D03*
D02*
D14*
X37002Y48350D03*
X49797Y30043D03*
X359030Y71657D03*
X371825Y53350D03*
D02*
D15*
X53951Y108124D03*
Y126077D03*
D02*
D16*
X27179Y117100D03*
D02*
D17*
X30825Y97100D03*
X37825D03*
X44825D03*
X51825D03*
X138825Y187600D03*
X139325Y250100D03*
Y319600D03*
X145825Y187600D03*
X146325Y250100D03*
Y319600D03*
X170825Y150850D03*
X177825D03*
X199575D03*
X206575D03*
D02*
D18*
X27825Y140600D03*
Y147600D03*
X53825Y138100D03*
Y145100D03*
X62825Y308600D03*
Y315600D03*
X64325Y118100D03*
Y125100D03*
X71325Y20600D03*
Y27600D03*
X71825Y166600D03*
Y173600D03*
X73825Y128100D03*
Y135100D03*
X76825Y252350D03*
Y259350D03*
X80825Y128100D03*
Y135100D03*
X90575Y151100D03*
Y158100D03*
X92825Y201600D03*
Y208600D03*
X153825Y132600D03*
Y139600D03*
X184825Y150600D03*
Y157600D03*
X192325Y150600D03*
Y157600D03*
X321825Y103600D03*
Y110600D03*
D02*
D19*
X80309Y168033D03*
Y191167D03*
X82868Y168033D03*
Y191167D03*
X85427Y168033D03*
Y191167D03*
X87986Y168033D03*
Y191167D03*
X90545Y168033D03*
Y191167D03*
X93104Y168033D03*
Y191167D03*
X95663Y168033D03*
Y191167D03*
X98222Y168033D03*
Y191167D03*
X100781Y168033D03*
Y191167D03*
X103341Y168033D03*
Y191167D03*
X171648Y185533D03*
Y208667D03*
Y248033D03*
Y271167D03*
Y310533D03*
Y333667D03*
X174207Y185533D03*
Y208667D03*
Y248033D03*
Y271167D03*
Y310533D03*
Y333667D03*
X176766Y185533D03*
Y208667D03*
Y248033D03*
Y271167D03*
Y310533D03*
Y333667D03*
X179325Y185533D03*
Y208667D03*
Y248033D03*
Y271167D03*
Y310533D03*
Y333667D03*
X181884Y185533D03*
Y208667D03*
Y248033D03*
Y271167D03*
Y310533D03*
Y333667D03*
X184443Y185533D03*
Y208667D03*
Y248033D03*
Y271167D03*
Y310533D03*
Y333667D03*
X187002Y185533D03*
Y208667D03*
Y248033D03*
Y271167D03*
Y310533D03*
Y333667D03*
D02*
D70*
X42750Y277357D03*
Y288157D03*
Y298957D03*
Y309757D03*
X52750Y271957D03*
Y282757D03*
Y293557D03*
Y304357D03*
Y315157D03*
X69325Y369600D03*
Y379600D03*
X79325Y369600D03*
Y379600D03*
X89325Y369600D03*
Y379600D03*
X99325Y369600D03*
Y379600D03*
X109325Y369600D03*
Y379600D03*
X119325Y369600D03*
Y379600D03*
X129325Y369600D03*
Y379600D03*
X134325Y15850D03*
Y88350D03*
X139325Y369600D03*
Y379600D03*
X149325Y369600D03*
Y379600D03*
X159325Y369600D03*
Y379600D03*
X164325Y17100D03*
Y88350D03*
X171825Y172100D03*
X186825D03*
X194325Y88350D03*
Y357100D03*
Y377100D03*
X201825Y172100D03*
X204325Y357100D03*
Y377100D03*
X214325Y357100D03*
Y377100D03*
X224325Y357100D03*
Y377100D03*
X234325Y32100D03*
X244325Y137100D03*
Y167100D03*
Y197100D03*
Y227100D03*
Y257100D03*
Y287100D03*
Y317100D03*
Y347100D03*
X254325Y24600D03*
Y44600D03*
X324325Y157100D03*
Y187100D03*
Y217100D03*
Y247100D03*
Y277100D03*
Y307100D03*
Y337100D03*
Y367100D03*
X384325Y122100D03*
Y147100D03*
D02*
D71*
X35404Y139360D03*
Y146841D03*
X45246Y139360D03*
Y143100D03*
Y146841D03*
D02*
D20*
X66904Y267673D03*
Y289028D03*
X71904Y267673D03*
Y289028D03*
X76904Y267673D03*
Y289028D03*
X81904Y267673D03*
Y289028D03*
D02*
D21*
X47750Y244357D03*
Y342757D03*
D02*
D22*
X69904Y300447D03*
X78904D03*
D02*
D23*
X70663Y312770D03*
X74404Y321431D03*
X78144Y312770D03*
D02*
D24*
X11325Y247100D03*
Y297100D03*
X11825Y109600D03*
Y117100D03*
Y124600D03*
Y147100D03*
Y164600D03*
Y197100D03*
Y272100D03*
Y322100D03*
Y347100D03*
Y365600D03*
X14325Y37100D03*
Y62100D03*
Y97100D03*
X21825Y147600D03*
Y247100D03*
Y272100D03*
Y297100D03*
Y322100D03*
X22325Y174100D03*
Y185600D03*
X27825Y58600D03*
X29325Y202100D03*
X30325Y168100D03*
X31825Y297100D03*
Y322100D03*
X33825Y239600D03*
X34325Y342100D03*
X36325Y34600D03*
X39325Y7100D03*
Y389100D03*
X41825Y367100D03*
X42325Y322100D03*
X43325Y17100D03*
X45825Y58600D03*
X48325Y266600D03*
X53825Y151100D03*
X55325Y174100D03*
Y185600D03*
Y202100D03*
X56325Y17100D03*
X59325Y362600D03*
Y375600D03*
Y389100D03*
X61825Y132100D03*
Y137100D03*
Y259600D03*
Y289600D03*
X62325Y230600D03*
X64825Y110600D03*
X65825Y216600D03*
X66325Y174100D03*
Y185600D03*
X66825Y132100D03*
Y137100D03*
Y144600D03*
Y324600D03*
X69325Y70100D03*
Y79600D03*
X69825Y6600D03*
X70325Y118100D03*
X70825Y223100D03*
Y238600D03*
Y259600D03*
X73825Y141600D03*
X74325Y307100D03*
Y326600D03*
X75325Y207144D03*
X76825Y245600D03*
X77325Y151100D03*
X78325Y199100D03*
X79325Y61600D03*
Y79600D03*
Y389100D03*
X80825Y278100D03*
X81825Y175100D03*
X82825Y253600D03*
X83825Y210100D03*
X84325Y237600D03*
X84825Y151100D03*
X86325Y42100D03*
Y141600D03*
Y355100D03*
X87325Y184600D03*
X87986Y176100D03*
X89325Y122100D03*
X92825Y218600D03*
X94325Y237100D03*
Y254600D03*
Y271600D03*
Y289600D03*
Y307100D03*
Y324600D03*
Y342100D03*
X95825Y184100D03*
X97325Y151100D03*
X98825Y211600D03*
X99325Y389100D03*
X99825Y160600D03*
X101325Y175600D03*
X101825Y42100D03*
Y202600D03*
X103325Y157100D03*
X104325Y7100D03*
Y237100D03*
Y254600D03*
Y271600D03*
Y289600D03*
Y307100D03*
Y324600D03*
Y342100D03*
X114325Y184600D03*
Y227100D03*
Y237100D03*
Y254600D03*
Y271600D03*
Y289600D03*
Y307100D03*
Y324600D03*
Y342100D03*
X115825Y216600D03*
X119325Y61600D03*
Y122100D03*
Y389600D03*
X124325Y92100D03*
Y237100D03*
Y254600D03*
Y271600D03*
Y289600D03*
Y307100D03*
Y324600D03*
Y342100D03*
Y355100D03*
X124825Y32100D03*
X132825Y298100D03*
X137325Y233100D03*
X138325Y180100D03*
X138825Y197100D03*
X139325Y132600D03*
Y153600D03*
Y164600D03*
Y172600D03*
Y227100D03*
Y242100D03*
Y257100D03*
Y311600D03*
Y326600D03*
Y389600D03*
X141825Y102100D03*
X145825Y137600D03*
Y142600D03*
Y176600D03*
Y181600D03*
Y239600D03*
Y244600D03*
Y308100D03*
Y313600D03*
X146825Y92100D03*
X147325Y62100D03*
X149325Y19600D03*
X150325Y305100D03*
X151825Y242100D03*
X152325Y145600D03*
X154325Y7100D03*
Y263100D03*
Y324100D03*
X154825Y197600D03*
X155325Y218600D03*
X159325Y389100D03*
X160325Y153100D03*
X161325Y178600D03*
Y233100D03*
Y304600D03*
X162825Y136100D03*
Y146100D03*
X165325Y245100D03*
X165825Y182600D03*
Y307600D03*
X167325Y204100D03*
Y269100D03*
Y330100D03*
X167825Y143600D03*
X168825Y120100D03*
X171825Y19600D03*
Y349600D03*
X173825Y231100D03*
X174325Y90600D03*
X175325Y157100D03*
X175575Y119600D03*
X177325Y62100D03*
X178325Y201600D03*
Y255100D03*
Y318600D03*
Y339600D03*
X178825Y160600D03*
Y192600D03*
Y222600D03*
Y265100D03*
Y327100D03*
X181325Y240100D03*
Y280100D03*
Y291100D03*
Y301100D03*
X182825Y23100D03*
X185325Y324600D03*
X185825Y199100D03*
X188825Y120100D03*
X191325Y212600D03*
X192325Y311600D03*
Y334600D03*
X193825Y246600D03*
Y271600D03*
X195325Y182600D03*
X198325Y222100D03*
X199825Y194100D03*
X202325Y119350D03*
X204325Y7100D03*
Y280600D03*
Y291600D03*
Y389100D03*
X204825Y228600D03*
Y301100D03*
X205825Y92600D03*
X207325Y62100D03*
Y198100D03*
X207825Y182600D03*
X208325Y124600D03*
X209825Y143600D03*
Y157600D03*
X210825Y234600D03*
Y271600D03*
X211325Y343100D03*
X214325Y120100D03*
X214825Y202100D03*
X217825Y241100D03*
X219325Y262100D03*
X220325Y182600D03*
X221825Y92600D03*
Y124600D03*
X222825Y37600D03*
X223325Y214100D03*
X227825Y292100D03*
X228325Y266600D03*
X229325Y222100D03*
Y241100D03*
Y389100D03*
X232825Y343100D03*
X233825Y302100D03*
X234325Y162100D03*
Y182600D03*
X235825Y192600D03*
X236325Y252100D03*
Y272100D03*
Y281100D03*
X239325Y19600D03*
X244325Y44600D03*
X251825Y32100D03*
Y361600D03*
X252825Y60600D03*
X254325Y7100D03*
Y212100D03*
Y242100D03*
Y302100D03*
Y379100D03*
Y389100D03*
X254825Y272100D03*
X255325Y340100D03*
X256325Y93100D03*
Y120600D03*
X261825Y77600D03*
Y84600D03*
X266325Y19100D03*
X269825Y77600D03*
X274325Y148100D03*
Y178100D03*
Y208100D03*
Y237600D03*
Y268100D03*
Y298100D03*
Y327600D03*
Y356600D03*
X279325Y379100D03*
Y389100D03*
X284325Y39600D03*
X288325Y94100D03*
X288825Y237600D03*
X289325Y268100D03*
X291825Y54600D03*
X292325Y77600D03*
X292825Y294100D03*
Y362100D03*
X293825Y26600D03*
X294325Y322600D03*
X297325Y68100D03*
X304325Y7100D03*
Y379100D03*
Y389100D03*
X314325Y161600D03*
Y181600D03*
Y192100D03*
Y212100D03*
Y222100D03*
Y242100D03*
Y252100D03*
Y272100D03*
Y282100D03*
Y302100D03*
Y312100D03*
Y341600D03*
X318825Y68100D03*
Y78100D03*
X321825Y90600D03*
Y119100D03*
X324325Y292100D03*
X329325Y379100D03*
Y389100D03*
X330825Y110600D03*
X331325Y230600D03*
X331825Y54600D03*
X332325Y248600D03*
Y309100D03*
X334825Y204100D03*
Y223600D03*
X336325Y81600D03*
X338325Y176600D03*
Y196600D03*
X340325Y99100D03*
Y169100D03*
X348325Y118100D03*
Y147600D03*
Y166100D03*
X348825Y289600D03*
Y298600D03*
Y307100D03*
Y316100D03*
Y325100D03*
Y334100D03*
Y342600D03*
X349325Y97100D03*
Y238100D03*
Y247100D03*
X354325Y7100D03*
Y379100D03*
Y389100D03*
X365825Y27600D03*
Y40100D03*
X366325Y118100D03*
Y147600D03*
Y174100D03*
X369325Y359600D03*
X370325Y13600D03*
X371825Y384600D03*
X375804Y112484D03*
X376825Y162600D03*
X378825Y84100D03*
X384325Y196600D03*
Y222100D03*
Y247100D03*
Y272100D03*
Y297100D03*
Y322100D03*
Y359600D03*
X395325Y97100D03*
X396646Y47100D03*
Y77100D03*
D02*
D25*
X66904Y289028D02*
Y293022D01*
X62825Y297100*
Y308600*
X69904Y300447D02*
Y305100D01*
X70663Y305860*
Y312770*
X71904Y289028D02*
Y293522D01*
X69825Y295600*
Y300368*
X69904Y300447*
X73825Y141600D02*
Y135100D01*
X76825Y259350D02*
X80075D01*
X82825Y256600*
Y253600*
X76904Y289028D02*
Y293679D01*
X78825Y295600*
Y300368*
X78904Y300447*
Y305522*
X78144Y306281*
Y312770*
X80309Y168033D02*
Y162585D01*
X78825Y161100*
X73258*
X71825Y162533*
Y166600*
X80309Y191167D02*
Y197116D01*
X78325Y199100*
X82868Y168033D02*
Y158100D01*
X81368Y156600*
X76825*
X73825Y153600*
Y141600*
X82868Y191167D02*
Y199600D01*
X75325Y207144*
X85427Y168033D02*
Y156953D01*
X80825Y152350*
Y135100*
X85427Y191167D02*
Y202100D01*
X66904Y220624*
Y267673*
X87986Y168033D02*
Y176100D01*
Y191167D02*
Y255939D01*
X81825Y262100*
Y267594*
X81904Y267673*
X90545Y168033D02*
Y158130D01*
X90575Y158100*
X90545Y191167D02*
Y196321D01*
X92825Y198600*
Y201600*
X104325Y32248D02*
Y37100D01*
X115825Y48600*
X140825*
X154325Y62100*
X109325Y32248D02*
Y37600D01*
X117325Y45600*
X167825*
X184325Y62100*
X114325Y32248D02*
Y38100D01*
X118825Y42600*
X194825*
X214325Y62100*
X134325Y15850D02*
X135075D01*
X139325Y11600*
X361285*
X392528Y42844*
Y89770*
X371825Y110473*
Y220152*
X366136Y225841*
X134325Y15850D02*
Y32100D01*
Y72100D02*
Y88350D01*
X164325Y32100D02*
Y17100D01*
Y72100D02*
Y88350D01*
X171648Y185533D02*
Y179600D01*
X171825Y179423*
Y172100*
X171648Y185533D02*
Y189423D01*
X172325Y190100*
X173325*
X174207Y189219*
Y185533*
X171648Y208667D02*
Y204600D01*
X173825*
X174207Y204982*
Y208667*
X171648Y271167D02*
Y267278D01*
X172325Y266600*
X173325*
X174207Y267482*
Y271167*
Y248033D02*
Y238219D01*
X177825Y234600*
X205207*
X210825Y228982*
Y199600*
X230325Y180100*
Y160100*
X233325Y157100*
X264325*
X174207Y248033D02*
Y251719D01*
X173825Y252100*
X172325*
X171648Y251423*
Y248033*
X174207Y271167D02*
Y280982D01*
X178325Y285100*
X216825*
X231825Y270100*
Y251100*
X235825Y247100*
X264325*
X174207Y310533D02*
Y302219D01*
X179325Y297100*
X228825*
X232325Y293600*
Y280100*
X235325Y277100*
X264325*
X174207Y333667D02*
Y341600D01*
X179707Y347100*
X229325*
X249325Y367100*
X264325*
X175575Y119600D02*
Y132600D01*
Y141600D02*
X180075D01*
X180825Y140850*
Y134600*
X182459Y132967*
X184835*
X177825Y150850D02*
X179325D01*
Y150600*
X184825*
X178325Y255100D02*
X179325Y254100D01*
Y248033*
X178825Y192600D02*
X179325Y192100D01*
Y185533*
Y310533D02*
Y317600D01*
X178325Y318600*
X184443Y185533D02*
Y189719D01*
X184825Y190100*
X186325*
X187002Y189423*
Y185533*
X184443Y208667D02*
Y204482D01*
X184825Y204100*
X186325*
X187002Y204778*
Y208667*
X184443Y248033D02*
Y252219D01*
X184825Y252600*
X186325*
X187002Y251923*
Y248033*
X184443Y271167D02*
Y266982D01*
X184825Y266600*
X186325*
X187002Y267278*
Y271167*
X184443Y333667D02*
Y329482D01*
X184825Y329100*
X186325*
X187002Y329778*
Y333667*
X184825Y150600D02*
Y144850D01*
X184835Y144841*
Y141234*
X187002Y185533D02*
Y179600D01*
X186825Y179423*
Y172100*
X187002Y271167D02*
Y275778D01*
X187825Y276600*
X213325*
X224825Y265100*
Y221100*
X228825Y217100*
X264325*
X187002Y310533D02*
Y306423D01*
X188325Y305100*
X228825*
X230825Y307100*
X264325*
X187002Y333667D02*
Y338278D01*
X187825Y339100*
X229325*
X231325Y337100*
X264325*
X192325Y150600D02*
Y148620D01*
X192315Y148610*
Y141234*
X192325Y150600D02*
X195575D01*
Y150850*
X199575*
X194325Y72100D02*
Y88350D01*
X201825Y172100D02*
Y186100D01*
X195325Y192600*
Y214600*
X192825Y217100*
X189325*
X187002Y214778*
Y208667*
X202325Y119350D02*
Y132600D01*
Y141600D02*
X197825D01*
X196825Y140600*
Y134600*
X195191Y132967*
X192315*
X214325Y32100D02*
X234325D01*
X214325Y120100D02*
Y184600D01*
X203325Y195600*
Y224100*
X199825Y227600*
X176825*
X174207Y224982*
Y208667*
X244325Y137100D02*
X264325D01*
X244325Y167100D02*
X264325D01*
X244325Y197100D02*
X264325D01*
X244325Y227100D02*
X264325D01*
X244325Y257100D02*
X264325D01*
X244325Y287100D02*
X264325D01*
X244325Y317100D02*
X264325D01*
X244325Y347100D02*
X264325D01*
X254325Y24600D02*
X269325D01*
X270575Y23350*
X280575*
X254325Y44600D02*
X279325D01*
X284118Y49394*
Y63114*
X264325Y187100D02*
Y187600D01*
X234825*
X217825Y204600*
Y233600*
X209825Y241600*
X188825*
X187002Y243423*
Y248033*
X271323Y37130D02*
X249325D01*
X244325Y32130*
Y32100*
X231825Y19600*
X178575*
X176825Y21350*
Y35850*
X173075Y39600*
X120325*
X119325Y38600*
Y32248*
X304325Y157100D02*
X324325D01*
X304325Y187100D02*
X324325D01*
X304325Y217100D02*
X324325D01*
X304325Y277100D02*
X324325D01*
X304325Y307100D02*
X324325D01*
X304325Y337100D02*
X324325D01*
X304325Y367100D02*
X324325D01*
Y157100D02*
Y158100D01*
X341325Y175100*
Y281470*
X346325Y286470*
X354325*
X324325Y187100D02*
Y188100D01*
X338325Y202100*
Y286382*
X347075Y295132*
X354325*
X324325Y217100D02*
X324825D01*
Y218600*
X335325Y229100*
Y291793*
X347325Y303793*
X354325*
X324325Y247100D02*
X332325Y255850D01*
Y296205*
X348575Y312455*
X354325*
X324325Y247100D02*
X304325D01*
X324325Y277100D02*
X329325Y282100D01*
Y301116*
X349325Y321116*
X354325*
X324325Y307100D02*
X347002Y329778D01*
X354325*
X324325Y337100D02*
X345486D01*
X346825Y338439*
X354325*
X324325Y367100D02*
X344325Y347100D01*
X354325*
Y225841D02*
X354825D01*
X360204Y220461*
Y117726*
X389412Y88518*
Y44220*
X359792Y14600*
X166825*
X164325Y17100*
X354325Y243163D02*
X349325D01*
X344325Y238163*
Y97100*
X320825Y73600*
X245575*
X214325Y42350*
Y32100*
D02*
D26*
X37825Y97100D02*
X44825D01*
X76904Y267673D02*
Y259429D01*
X76825Y259350*
D02*
D27*
X280575Y23350D02*
X290575Y33350D01*
X371825*
X384825Y46350*
Y86600*
X354325Y117100*
Y182533*
X284118Y63114D02*
X338439D01*
X348203Y53350*
D02*
D29*
X280575Y23350D03*
X317976D03*
D02*
D77*
X273222Y84600D03*
Y89600D03*
Y94600D03*
Y99600D03*
Y104600D03*
Y109600D03*
Y114600D03*
Y119600D03*
Y124600D03*
X310427Y84600D03*
Y89600D03*
Y94600D03*
Y99600D03*
Y104600D03*
Y109600D03*
Y114600D03*
Y119600D03*
Y124600D03*
D02*
D78*
X129620Y98026D03*
Y100585D03*
Y103144D03*
Y105703D03*
Y108262D03*
Y110821D03*
Y113380D03*
Y115939D03*
Y118498D03*
Y121057D03*
Y123616D03*
Y126175D03*
X154030Y98026D03*
Y100585D03*
Y103144D03*
Y105703D03*
Y108262D03*
Y110821D03*
Y113380D03*
Y115939D03*
Y118498D03*
Y121057D03*
Y123616D03*
Y126175D03*
D02*
D79*
X134325Y32100D03*
Y62100D03*
Y72100D03*
X154325Y32100D03*
Y62100D03*
Y72100D03*
X164325Y32100D03*
Y62100D03*
Y72100D03*
X184325Y32100D03*
Y62100D03*
Y72100D03*
X194325Y32100D03*
Y62100D03*
Y72100D03*
X214325Y32100D03*
Y62100D03*
Y72100D03*
X264325Y137100D03*
Y157100D03*
Y167100D03*
Y187100D03*
Y197100D03*
Y217100D03*
Y227100D03*
Y247100D03*
Y257100D03*
Y277100D03*
Y287100D03*
Y307100D03*
Y317100D03*
Y337100D03*
Y347100D03*
Y367100D03*
X274325Y137100D03*
Y157100D03*
Y167100D03*
Y187100D03*
Y197100D03*
Y217100D03*
Y227100D03*
Y247100D03*
Y257100D03*
Y277100D03*
Y287100D03*
Y307100D03*
Y317100D03*
Y337100D03*
Y347100D03*
Y367100D03*
X304325Y137100D03*
Y157100D03*
Y167100D03*
Y187100D03*
Y197100D03*
Y217100D03*
Y227100D03*
Y247100D03*
Y257100D03*
Y277100D03*
Y287100D03*
Y307100D03*
Y317100D03*
Y337100D03*
Y347100D03*
Y367100D03*
D02*
D80*
X354325Y182533D03*
Y191195D03*
Y199856D03*
Y208518D03*
Y217179D03*
Y225841D03*
Y234502D03*
Y243163D03*
Y251825D03*
Y260486D03*
Y269148D03*
Y277809D03*
Y286470D03*
Y295132D03*
Y303793D03*
Y312455D03*
Y321116D03*
Y329778D03*
Y338439D03*
Y347100D03*
X366136Y182533D03*
Y191195D03*
Y199856D03*
Y208518D03*
Y217179D03*
Y225841D03*
Y234502D03*
Y243163D03*
Y251825D03*
Y260486D03*
Y269148D03*
Y277809D03*
Y286470D03*
Y295132D03*
Y303793D03*
Y312455D03*
Y321116D03*
Y329778D03*
Y338439D03*
Y347100D03*
D02*
D81*
X155388Y188439D03*
Y205762D03*
Y250939D03*
Y268262D03*
Y313439D03*
Y330762D03*
X157356Y188439D03*
Y205762D03*
Y250939D03*
Y268262D03*
Y313439D03*
Y330762D03*
X159325Y188439D03*
Y205762D03*
Y250939D03*
Y268262D03*
Y313439D03*
Y330762D03*
X161293Y188439D03*
Y205762D03*
Y250939D03*
Y268262D03*
Y313439D03*
Y330762D03*
X163262Y188439D03*
Y205762D03*
Y250939D03*
Y268262D03*
Y313439D03*
Y330762D03*
D02*
D82*
X79325Y32248D03*
Y69453D03*
X84325Y32248D03*
Y69453D03*
X89325Y32248D03*
Y69453D03*
X94325Y32248D03*
Y69453D03*
X99325Y32248D03*
Y69453D03*
X104325Y32248D03*
Y69453D03*
X109325Y32248D03*
Y69453D03*
X114325Y32248D03*
Y69453D03*
X119325Y32248D03*
Y69453D03*
D02*
D83*
X184835Y132967D03*
Y141234D03*
X188575Y132967D03*
Y141234D03*
X192315Y132967D03*
Y141234D03*
D02*
D84*
X175575Y132600D03*
Y141600D03*
X202325Y132600D03*
Y141600D03*
D02*
D85*
X271323Y37130D03*
Y54846D03*
D02*
D86*
X284118Y63114D03*
X0Y0D02*
M02*
