G04 EasyPC Gerber Version 21.0.3 Build 4286 *
%FSLAX35Y35*%
%MOIN*%
%ADD22C,0.00473*%
%ADD21C,0.00757*%
X0Y0D02*
D02*
D21*
X69596Y126135D02*
X191413D01*
Y157753*
X69596*
Y126135*
Y219245D02*
X191413D01*
Y250863*
X69596*
Y219245*
Y312355D02*
X191413D01*
Y343973*
X69596*
Y312355*
Y405465D02*
X191413D01*
Y437083*
X69596*
Y405465*
X87949Y122919D02*
G75*
G03Y121972J-473D01*
G01*
G75*
G03Y122919J473*
G01*
G36*
G75*
G03Y121972J-473*
G01*
G75*
G03Y122919J473*
G01*
G37*
Y216029D02*
G75*
G03Y215083J-473D01*
G01*
G75*
G03Y216029J473*
G01*
G36*
G75*
G03Y215083J-473*
G01*
G75*
G03Y216029J473*
G01*
G37*
Y309139D02*
G75*
G03Y308193J-473D01*
G01*
G75*
G03Y309139J473*
G01*
G36*
G75*
G03Y308193J-473*
G01*
G75*
G03Y309139J473*
G01*
G37*
Y402249D02*
G75*
G03Y401303J-473D01*
G01*
G75*
G03Y402249J473*
G01*
G36*
G75*
G03Y401303J-473*
G01*
G75*
G03Y402249J473*
G01*
G37*
X121059Y129540D02*
X139979D01*
Y126135*
X121059*
Y129540*
Y222650D02*
X139979D01*
Y219245*
X121059*
Y222650*
Y315761D02*
X139979D01*
Y312355*
X121059*
Y315761*
Y408871D02*
X139979D01*
Y405465*
X121059*
Y408871*
X192502Y126135D02*
X314319D01*
Y157753*
X192502*
Y126135*
Y219245D02*
X314319D01*
Y250863*
X192502*
Y219245*
Y312355D02*
X314319D01*
Y343973*
X192502*
Y312355*
Y405465D02*
X314319D01*
Y437083*
X192502*
Y405465*
X210854Y122919D02*
G75*
G03Y121972J-473D01*
G01*
G75*
G03Y122919J473*
G01*
G36*
G75*
G03Y121972J-473*
G01*
G75*
G03Y122919J473*
G01*
G37*
Y216029D02*
G75*
G03Y215083J-473D01*
G01*
G75*
G03Y216029J473*
G01*
G36*
G75*
G03Y215083J-473*
G01*
G75*
G03Y216029J473*
G01*
G37*
Y309139D02*
G75*
G03Y308193J-473D01*
G01*
G75*
G03Y309139J473*
G01*
G36*
G75*
G03Y308193J-473*
G01*
G75*
G03Y309139J473*
G01*
G37*
Y402249D02*
G75*
G03Y401303J-473D01*
G01*
G75*
G03Y402249J473*
G01*
G36*
G75*
G03Y401303J-473*
G01*
G75*
G03Y402249J473*
G01*
G37*
X243964Y129540D02*
X262884D01*
Y126135*
X243964*
Y129540*
Y222650D02*
X262884D01*
Y219245*
X243964*
Y222650*
Y315761D02*
X262884D01*
Y312355*
X243964*
Y315761*
Y408871D02*
X262884D01*
Y405465*
X243964*
Y408871*
X315407Y126135D02*
X437224D01*
Y157753*
X315407*
Y126135*
Y219245D02*
X437224D01*
Y250863*
X315407*
Y219245*
Y312355D02*
X437224D01*
Y343973*
X315407*
Y312355*
Y405465D02*
X437224D01*
Y437083*
X315407*
Y405465*
X333760Y122919D02*
G75*
G03Y121972J-473D01*
G01*
G75*
G03Y122919J473*
G01*
G36*
G75*
G03Y121972J-473*
G01*
G75*
G03Y122919J473*
G01*
G37*
Y216029D02*
G75*
G03Y215083J-473D01*
G01*
G75*
G03Y216029J473*
G01*
G36*
G75*
G03Y215083J-473*
G01*
G75*
G03Y216029J473*
G01*
G37*
Y309139D02*
G75*
G03Y308193J-473D01*
G01*
G75*
G03Y309139J473*
G01*
G36*
G75*
G03Y308193J-473*
G01*
G75*
G03Y309139J473*
G01*
G37*
Y402249D02*
G75*
G03Y401303J-473D01*
G01*
G75*
G03Y402249J473*
G01*
G36*
G75*
G03Y401303J-473*
G01*
G75*
G03Y402249J473*
G01*
G37*
X366870Y129540D02*
X385790D01*
Y126135*
X366870*
Y129540*
Y222650D02*
X385790D01*
Y219245*
X366870*
Y222650*
Y315761D02*
X385790D01*
Y312355*
X366870*
Y315761*
Y408871D02*
X385790D01*
Y405465*
X366870*
Y408871*
D02*
D22*
X166585Y439381D02*
X166289Y439085D01*
X165698Y438790*
X164811*
X164220Y439085*
X163924Y439381*
X163629Y439972*
Y441155*
X163924Y441746*
X164220Y442042*
X164811Y442337*
X165698*
X166289Y442042*
X166585Y441746*
X168359Y438790D02*
Y442337D01*
X171315Y438790*
Y442337*
X173680Y438790D02*
X174863D01*
X174271D02*
Y442337D01*
X173680Y441746*
X180184Y438790D02*
X177819D01*
X179888Y440859*
X180184Y441450*
X179888Y442042*
X179297Y442337*
X178410*
X177819Y442042*
X169118Y160050D02*
X168822Y159755D01*
X168231Y159459*
X167344*
X166753Y159755*
X166457Y160050*
X166161Y160641*
Y161824*
X166457Y162415*
X166753Y162711*
X167344Y163006*
X168231*
X168822Y162711*
X169118Y162415*
X170891Y159459D02*
Y163006D01*
X173848Y159459*
Y163006*
X177986Y159459D02*
X175621D01*
X177691Y161528*
X177986Y162120*
X177691Y162711*
X177100Y163006*
X176213*
X175621Y162711*
X169118Y253161D02*
X168822Y252865D01*
X168231Y252569*
X167344*
X166753Y252865*
X166457Y253161*
X166161Y253752*
Y254934*
X166457Y255526*
X166753Y255821*
X167344Y256117*
X168231*
X168822Y255821*
X169118Y255526*
X170891Y252569D02*
Y256117D01*
X173848Y252569*
Y256117*
X175621Y253456D02*
X175917Y254047D01*
X176508Y254343*
X177100*
X177691Y254047*
X177986Y253456*
X177691Y252865*
X177100Y252569*
X176508*
X175917Y252865*
X175621Y253456*
Y254343*
X175917Y255230*
X176508Y255821*
X177100Y256117*
X169118Y346271D02*
X168822Y345975D01*
X168231Y345680*
X167344*
X166753Y345975*
X166457Y346271*
X166161Y346862*
Y348044*
X166457Y348636*
X166753Y348931*
X167344Y349227*
X168231*
X168822Y348931*
X169118Y348636*
X170891Y345680D02*
Y349227D01*
X173848Y345680*
Y349227*
X176508Y345680D02*
X177100Y345975D01*
X177691Y346567*
X177986Y347453*
Y348340*
X177691Y348931*
X177100Y349227*
X176508*
X175917Y348931*
X175621Y348340*
X175917Y347749*
X176508Y347453*
X177100*
X177691Y347749*
X177986Y348340*
X289565Y160050D02*
X289269Y159755D01*
X288678Y159459*
X287791*
X287200Y159755*
X286904Y160050*
X286609Y160641*
Y161824*
X286904Y162415*
X287200Y162711*
X287791Y163006*
X288678*
X289269Y162711*
X289565Y162415*
X291339Y159459D02*
Y163006D01*
X294295Y159459*
Y163006*
X296660Y159459D02*
X297843D01*
X297251D02*
Y163006D01*
X296660Y162415*
X300799Y159459D02*
X303164Y163006D01*
X300799*
X289565Y253161D02*
X289269Y252865D01*
X288678Y252569*
X287791*
X287200Y252865*
X286904Y253161*
X286609Y253752*
Y254934*
X286904Y255526*
X287200Y255821*
X287791Y256117*
X288678*
X289269Y255821*
X289565Y255526*
X291339Y252569D02*
Y256117D01*
X294295Y252569*
Y256117*
X298434Y252569D02*
X296069D01*
X298138Y254639*
X298434Y255230*
X298138Y255821*
X297547Y256117*
X296660*
X296069Y255821*
X301094Y252865D02*
X301685Y252569D01*
X302277*
X302868Y252865*
X303164Y253456*
Y255230*
X302868Y255821*
X302277Y256117*
X301685*
X301094Y255821*
X300799Y255230*
Y253456*
X301094Y252865*
X302868Y255821*
X289565Y346271D02*
X289269Y345975D01*
X288678Y345680*
X287791*
X287200Y345975*
X286904Y346271*
X286609Y346862*
Y348044*
X286904Y348636*
X287200Y348931*
X287791Y349227*
X288678*
X289269Y348931*
X289565Y348636*
X291339Y345680D02*
Y349227D01*
X294295Y345680*
Y349227*
X298434Y345680D02*
X296069D01*
X298138Y347749*
X298434Y348340*
X298138Y348931*
X297547Y349227*
X296660*
X296069Y348931*
X303164Y345680D02*
X300799D01*
X302868Y347749*
X303164Y348340*
X302868Y348931*
X302277Y349227*
X301390*
X300799Y348931*
X289565Y439660D02*
X289269Y439365D01*
X288678Y439069*
X287791*
X287200Y439365*
X286904Y439660*
X286609Y440252*
Y441434*
X286904Y442025*
X287200Y442321*
X287791Y442617*
X288678*
X289269Y442321*
X289565Y442025*
X291339Y439069D02*
Y442617D01*
X294295Y439069*
Y442617*
X298434Y439069D02*
X296069D01*
X298138Y441139*
X298434Y441730*
X298138Y442321*
X297547Y442617*
X296660*
X296069Y442321*
X302277Y439069D02*
Y442617D01*
X300799Y440252*
X303164*
X412545Y160591D02*
X412250Y160294D01*
X411658Y159999*
X410771*
X410180Y160294*
X409885Y160591*
X409589Y161181*
Y162364*
X409885Y162956*
X410180Y163251*
X410771Y163546*
X411658*
X412250Y163251*
X412545Y162956*
X414319Y159999D02*
Y163546D01*
X417275Y159999*
Y163546*
X421414Y159999D02*
X419049D01*
X421118Y162069*
X421414Y162659*
X421118Y163251*
X420527Y163546*
X419640*
X419049Y163251*
X424665Y159999D02*
X425257Y160294D01*
X425848Y160886*
X426144Y161773*
Y162659*
X425848Y163251*
X425257Y163546*
X424665*
X424074Y163251*
X423779Y162659*
X424074Y162069*
X424665Y161773*
X425257*
X425848Y162069*
X426144Y162659*
X412545Y253161D02*
X412250Y252865D01*
X411658Y252569*
X410771*
X410180Y252865*
X409885Y253161*
X409589Y253752*
Y254934*
X409885Y255526*
X410180Y255821*
X410771Y256117*
X411658*
X412250Y255821*
X412545Y255526*
X414319Y252569D02*
Y256117D01*
X417275Y252569*
Y256117*
X419344Y252865D02*
X419935Y252569D01*
X420527*
X421118Y252865*
X421414Y253456*
X421118Y254047*
X420527Y254343*
X419935*
X420527D02*
X421118Y254639D01*
X421414Y255230*
X421118Y255821*
X420527Y256117*
X419935*
X419344Y255821*
X426144Y252569D02*
X423779D01*
X425848Y254639*
X426144Y255230*
X425848Y255821*
X425257Y256117*
X424370*
X423779Y255821*
X412545Y347425D02*
X412250Y347130D01*
X411658Y346834*
X410771*
X410180Y347130*
X409885Y347425*
X409589Y348017*
Y349199*
X409885Y349791*
X410180Y350086*
X410771Y350381*
X411658*
X412250Y350086*
X412545Y349791*
X414319Y346834D02*
Y350381D01*
X417275Y346834*
Y350381*
X419344Y347130D02*
X419935Y346834D01*
X420527*
X421118Y347130*
X421414Y347721*
X421118Y348312*
X420527Y348608*
X419935*
X420527D02*
X421118Y348904D01*
X421414Y349494*
X421118Y350086*
X420527Y350381*
X419935*
X419344Y350086*
X425257Y346834D02*
Y350381D01*
X423779Y348017*
X426144*
X412545Y439381D02*
X412250Y439085D01*
X411658Y438790*
X410771*
X410180Y439085*
X409885Y439381*
X409589Y439972*
Y441155*
X409885Y441746*
X410180Y442042*
X410771Y442337*
X411658*
X412250Y442042*
X412545Y441746*
X414319Y438790D02*
Y442337D01*
X417275Y438790*
Y442337*
X419344Y439085D02*
X419935Y438790D01*
X420527*
X421118Y439085*
X421414Y439677*
X421118Y440268*
X420527Y440563*
X419935*
X420527D02*
X421118Y440859D01*
X421414Y441450*
X421118Y442042*
X420527Y442337*
X419935*
X419344Y442042*
X423779Y439677D02*
X424074Y440268D01*
X424665Y440563*
X425257*
X425848Y440268*
X426144Y439677*
X425848Y439085*
X425257Y438790*
X424665*
X424074Y439085*
X423779Y439677*
Y440563*
X424074Y441450*
X424665Y442042*
X425257Y442337*
X0Y0D02*
M02*
