G04 EasyPC Gerber Version 21.0.3 Build 4286 *
%FSLAX35Y35*%
%MOIN*%
%ADD21C,0.00757*%
%ADD27C,0.01419*%
%ADD23C,0.01514*%
%ADD25C,0.03973*%
%ADD26C,0.04541*%
%ADD24C,0.05676*%
X0Y0D02*
D02*
D21*
X70921Y186475D02*
Y97149D01*
X190042*
Y186475*
X70921*
X87949Y140609D02*
G75*
G02X91922Y136635J-3973D01*
G01*
G75*
G02X87949Y132662I-3973*
G01*
G75*
G02X83976Y136635J3973*
G01*
G75*
G02X87949Y140609I3973*
G01*
Y150069D02*
G75*
G02X91922Y146095J-3973D01*
G01*
G75*
G02X87949Y142122I-3973*
G01*
G75*
G02X83976Y146095J3973*
G01*
G75*
G02X87949Y150069I3973*
G01*
X97409Y140609D02*
G75*
G02X101382Y136635J-3973D01*
G01*
G75*
G02X97409Y132662I-3973*
G01*
G75*
G02X93435Y136635J3973*
G01*
G75*
G02X97409Y140609I3973*
G01*
Y150069D02*
G75*
G02X101382Y146095J-3973D01*
G01*
G75*
G02X97409Y142122I-3973*
G01*
G75*
G02X93435Y146095J3973*
G01*
G75*
G02X97409Y150069I3973*
G01*
X137614Y113850D02*
G75*
G02X143100Y111812I2365J-2037D01*
G01*
G75*
G02X142017Y109447I-3122*
G01*
G75*
G02X143100Y107082I-2038J-2365*
G01*
G75*
G02X137614Y105044I-3122*
G01*
G75*
G02X132884I-2365J2038*
G01*
G75*
G02X128154I-2365J2038*
G01*
G75*
G02X123424I-2365J2038*
G01*
G75*
G02X117937Y107082I-2365J2038*
G01*
G75*
G02X119021Y109447I3122*
G01*
G75*
G02X117937Y111812I2037J2365*
G01*
G75*
G02X123424Y113850I3122*
G01*
G75*
G02X128154I2365J-2037*
G01*
G75*
G02X132884I2365J-2037*
G01*
G75*
G02X133404Y114331I2365J-2037*
G01*
Y125238*
X132120Y126522*
X109234*
G75*
G02X107930Y127063I0J1845*
G01*
X105565Y129428*
G75*
G02X105024Y130732I1304J1305*
G01*
Y133117*
G75*
G02X106869Y140609I1845J3519*
G01*
G75*
G02X108713Y133117J-3973*
G01*
Y131496*
X109998Y130212*
X132883*
G75*
G02X134188Y129671I0J-1844*
G01*
X136553Y127306*
G75*
G02X137093Y126002I-1304J-1305*
G01*
Y114331*
G75*
G02X137614Y113850I-1845J-2519*
G01*
X106869Y150069D02*
G75*
G02X110842Y146095J-3973D01*
G01*
G75*
G02X106869Y142122I-3973*
G01*
G75*
G02X102896Y146095J3973*
G01*
G75*
G02X106869Y150069I3973*
G01*
X102896Y169745D02*
G75*
G02X110842I3973D01*
G01*
G75*
G02X102896I-3973*
G01*
X116329Y140609D02*
G75*
G02X120302Y136635J-3973D01*
G01*
G75*
G02X116329Y132662I-3973*
G01*
G75*
G02X112356Y136635J3973*
G01*
G75*
G02X116329Y140609I3973*
G01*
Y150069D02*
G75*
G02X120302Y146095J-3973D01*
G01*
G75*
G02X116329Y142122I-3973*
G01*
G75*
G02X112356Y146095J3973*
G01*
G75*
G02X116329Y150069I3973*
G01*
X112356Y169745D02*
G75*
G02X120302I3973D01*
G01*
G75*
G02X112356I-3973*
G01*
X125789Y140609D02*
G75*
G02X129762Y136635J-3973D01*
G01*
G75*
G02X125789Y132662I-3973*
G01*
G75*
G02X121815Y136635J3973*
G01*
G75*
G02X125789Y140609I3973*
G01*
Y150069D02*
G75*
G02X129762Y146095J-3973D01*
G01*
G75*
G02X125789Y142122I-3973*
G01*
G75*
G02X121815Y146095J3973*
G01*
G75*
G02X125789Y150069I3973*
G01*
X121815Y169745D02*
G75*
G02X129762I3973D01*
G01*
G75*
G02X121815I-3973*
G01*
X135249Y140609D02*
G75*
G02X139222Y136635J-3973D01*
G01*
G75*
G02X135249Y132662I-3973*
G01*
G75*
G02X131276Y136635J3973*
G01*
G75*
G02X135249Y140609I3973*
G01*
Y150069D02*
G75*
G02X139222Y146095J-3973D01*
G01*
G75*
G02X135249Y142122I-3973*
G01*
G75*
G02X131276Y146095J3973*
G01*
G75*
G02X135249Y150069I3973*
G01*
X131276Y169745D02*
G75*
G02X139222I3973D01*
G01*
G75*
G02X131276I-3973*
G01*
X144709Y140609D02*
G75*
G02X148682Y136635J-3973D01*
G01*
G75*
G02X144709Y132662I-3973*
G01*
G75*
G02X140735Y136635J3973*
G01*
G75*
G02X144709Y140609I3973*
G01*
Y150069D02*
G75*
G02X148682Y146095J-3973D01*
G01*
G75*
G02X144709Y142122I-3973*
G01*
G75*
G02X140735Y146095J3973*
G01*
G75*
G02X144709Y150069I3973*
G01*
X140735Y169745D02*
G75*
G02X148682I3973D01*
G01*
G75*
G02X140735I-3973*
G01*
X154169Y140609D02*
G75*
G02X158142Y136635J-3973D01*
G01*
G75*
G02X154169Y132662I-3973*
G01*
G75*
G02X150196Y136635J3973*
G01*
G75*
G02X154169Y140609I3973*
G01*
Y150069D02*
G75*
G02X158142Y146095J-3973D01*
G01*
G75*
G02X154169Y142122I-3973*
G01*
G75*
G02X150196Y146095J3973*
G01*
G75*
G02X154169Y150069I3973*
G01*
X150196Y169745D02*
G75*
G02X158142I3973D01*
G01*
G75*
G02X150196I-3973*
G01*
X163629Y140609D02*
G75*
G02X167602Y136635J-3973D01*
G01*
G75*
G02X163629Y132662I-3973*
G01*
G75*
G02X159656Y136635J3973*
G01*
G75*
G02X163629Y140609I3973*
G01*
Y150069D02*
G75*
G02X167602Y146095J-3973D01*
G01*
G75*
G02X163629Y142122I-3973*
G01*
G75*
G02X159656Y146095J3973*
G01*
G75*
G02X163629Y150069I3973*
G01*
X173089Y140609D02*
G75*
G02X177062Y136635J-3973D01*
G01*
G75*
G02X173089Y132662I-3973*
G01*
G75*
G02X169115Y136635J3973*
G01*
G75*
G02X173089Y140609I3973*
G01*
Y150069D02*
G75*
G02Y142122J-3973D01*
G01*
G75*
G02X169115Y146095J3973*
G01*
G75*
G02X173089Y150069I3973*
G01*
X110842Y136635D02*
G36*
G75*
G02X108713Y133117I-3973D01*
G01*
Y131496*
X109998Y130212*
X132883*
G75*
G02X134188Y129671I0J-1844*
G01*
X136553Y127306*
G75*
G02X137093Y126002I-1304J-1304*
G01*
Y114331*
G75*
G02X137614Y113850I-1859J-2533*
G01*
G75*
G02X143100Y111812I2365J-2038*
G01*
G75*
G02X142017Y109447I-3123J1*
G01*
G75*
G02X143100Y107082I-2039J-2366*
G01*
G75*
G02X137614Y105044I-3122J0*
G01*
G75*
G02X132884I-2365J2037*
G01*
G75*
G02X128154I-2365J2037*
G01*
G75*
G02X123424I-2365J2037*
G01*
G75*
G02X117937Y107082I-2365J2038*
G01*
G75*
G02X119021Y109447I3123J-1*
G01*
G75*
G02X117937Y111812I2039J2366*
G01*
G75*
G02X123424Y113850I3122J0*
G01*
G75*
G02X128154I2365J-2037*
G01*
G75*
G02X132884I2365J-2037*
G01*
G75*
G02X133404Y114331I2379J-2052*
G01*
Y125238*
X132120Y126522*
X109234*
G75*
G02X107930Y127063I0J1844*
G01*
X105565Y129428*
G75*
G02X105024Y130732I1304J1304*
G01*
Y133117*
G75*
G02X102896Y136635I1845J3519*
G01*
X101382*
G75*
G02X97409Y132662I-3973*
G01*
G75*
G02X93435Y136635J3973*
G01*
X91922*
G75*
G02X87949Y132662I-3973*
G01*
G75*
G02X83976Y136635J3973*
G01*
X71299*
Y97528*
X189664*
Y136635*
X177062*
G75*
G02X173089Y132662I-3973*
G01*
G75*
G02X169115Y136635J3973*
G01*
X167602*
G75*
G02X163629Y132662I-3973*
G01*
G75*
G02X159656Y136635J3973*
G01*
X158142*
G75*
G02X154169Y132662I-3973*
G01*
G75*
G02X150196Y136635J3973*
G01*
X148682*
G75*
G02X144709Y132662I-3973*
G01*
G75*
G02X140735Y136635J3973*
G01*
X139222*
G75*
G02X135249Y132662I-3973*
G01*
G75*
G02X131276Y136635J3973*
G01*
X129762*
G75*
G02X125789Y132662I-3973*
G01*
G75*
G02X121815Y136635J3973*
G01*
X120302*
G75*
G02X116329Y132662I-3973*
G01*
G75*
G02X112356Y136635J3973*
G01*
X110842*
G37*
G36*
X112356*
G75*
G02X116329Y140609I3973*
G01*
G75*
G02X120302Y136635J-3973*
G01*
X121815*
G75*
G02X125789Y140609I3973*
G01*
G75*
G02X129762Y136635J-3973*
G01*
X131276*
G75*
G02X135249Y140609I3973*
G01*
G75*
G02X139222Y136635J-3973*
G01*
X140735*
G75*
G02X144709Y140609I3973*
G01*
G75*
G02X148682Y136635J-3973*
G01*
X150196*
G75*
G02X154169Y140609I3973*
G01*
G75*
G02X158142Y136635J-3973*
G01*
X159656*
G75*
G02X163629Y140609I3973*
G01*
G75*
G02X167602Y136635J-3973*
G01*
X169115*
G75*
G02X173089Y140609I3973*
G01*
G75*
G02X177062Y136635J-3973*
G01*
X189664*
Y146095*
X177062*
G75*
G02X173089Y142122I-3973*
G01*
G75*
G02X169115Y146095J3973*
G01*
X167602*
G75*
G02X163629Y142122I-3973*
G01*
G75*
G02X159656Y146095J3973*
G01*
X158142*
G75*
G02X154169Y142122I-3973*
G01*
G75*
G02X150196Y146095J3973*
G01*
X148682*
G75*
G02X144709Y142122I-3973*
G01*
G75*
G02X140735Y146095J3973*
G01*
X139222*
G75*
G02X135249Y142122I-3973*
G01*
G75*
G02X131276Y146095J3973*
G01*
X129762*
G75*
G02X125789Y142122I-3973*
G01*
G75*
G02X121815Y146095J3973*
G01*
X120302*
G75*
G02X116329Y142122I-3973*
G01*
G75*
G02X112356Y146095J3973*
G01*
X110842*
G75*
G02X106869Y142122I-3973*
G01*
G75*
G02X102896Y146095J3973*
G01*
X101382*
G75*
G02X97409Y142122I-3973*
G01*
G75*
G02X93435Y146095J3973*
G01*
X91922*
G75*
G02X87949Y142122I-3973*
G01*
G75*
G02X83976Y146095J3973*
G01*
X71299*
Y136635*
X83976*
G75*
G02X87949Y140609I3973*
G01*
G75*
G02X91922Y136635J-3973*
G01*
X93435*
G75*
G02X97409Y140609I3973*
G01*
G75*
G02X101382Y136635J-3973*
G01*
X102896*
G75*
G02X106869Y140609I3973*
G01*
G75*
G02X110842Y136635J-3973*
G01*
G37*
X71299Y169745D02*
G36*
Y146095D01*
X83976*
G75*
G02X87949Y150069I3973*
G01*
G75*
G02X91922Y146095J-3973*
G01*
X93435*
G75*
G02X97409Y150069I3973*
G01*
G75*
G02X101382Y146095J-3973*
G01*
X102896*
G75*
G02X106869Y150069I3973*
G01*
G75*
G02X110842Y146095J-3973*
G01*
X112356*
G75*
G02X116329Y150069I3973*
G01*
G75*
G02X120302Y146095J-3973*
G01*
X121815*
G75*
G02X125789Y150069I3973*
G01*
G75*
G02X129762Y146095J-3973*
G01*
X131276*
G75*
G02X135249Y150069I3973*
G01*
G75*
G02X139222Y146095J-3973*
G01*
X140735*
G75*
G02X144709Y150069I3973*
G01*
G75*
G02X148682Y146095J-3973*
G01*
X150196*
G75*
G02X154169Y150069I3973*
G01*
G75*
G02X158142Y146095J-3973*
G01*
X159656*
G75*
G02X163629Y150069I3973*
G01*
G75*
G02X167602Y146095J-3973*
G01*
X169115*
G75*
G02X173089Y150069I3973*
G01*
G75*
G02X177062Y146095J-3973*
G01*
X189664*
Y169745*
X158142*
G75*
G02X150196I-3973*
G01*
X148682*
G75*
G02X140735I-3973*
G01*
X139222*
G75*
G02X131276I-3973*
G01*
X129762*
G75*
G02X121815I-3973*
G01*
X120302*
G75*
G02X112356I-3973*
G01*
X110842*
G75*
G02X102896I-3973*
G01*
X71299*
G37*
Y186097D02*
G36*
Y169745D01*
X102896*
G75*
G02X110842I3973*
G01*
X112356*
G75*
G02X120302I3973*
G01*
X121815*
G75*
G02X129762I3973*
G01*
X131276*
G75*
G02X139222I3973*
G01*
X140735*
G75*
G02X148682I3973*
G01*
X150196*
G75*
G02X158142I3973*
G01*
X189664*
Y186097*
X71299*
G37*
X70921Y279585D02*
Y190259D01*
X190042*
Y279585*
X70921*
X87949Y233719D02*
G75*
G02X91922Y229746J-3973D01*
G01*
G75*
G02X87949Y225772I-3973*
G01*
G75*
G02X83976Y229746J3973*
G01*
G75*
G02X87949Y233719I3973*
G01*
Y243179D02*
G75*
G02X91922Y239206J-3973D01*
G01*
G75*
G02X87949Y235232I-3973*
G01*
G75*
G02X83976Y239206J3973*
G01*
G75*
G02X87949Y243179I3973*
G01*
X97409Y233719D02*
G75*
G02Y225772J-3973D01*
G01*
G75*
G02X93435Y229746J3973*
G01*
G75*
G02X97409Y233719I3973*
G01*
Y243179D02*
G75*
G02X101382Y239206J-3973D01*
G01*
G75*
G02X97409Y235232I-3973*
G01*
G75*
G02X93435Y239206J3973*
G01*
G75*
G02X97409Y243179I3973*
G01*
X137614Y206960D02*
G75*
G02X143100Y204922I2365J-2037D01*
G01*
G75*
G02X142017Y202557I-3122*
G01*
G75*
G02X143100Y200193I-2038J-2365*
G01*
G75*
G02X137614Y198155I-3122*
G01*
G75*
G02X132884I-2365J2038*
G01*
G75*
G02X128154I-2365J2038*
G01*
G75*
G02X123424I-2365J2038*
G01*
G75*
G02X117937Y200193I-2365J2038*
G01*
G75*
G02X119021Y202557I3122*
G01*
G75*
G02X117937Y204922I2037J2365*
G01*
G75*
G02X123424Y206960I3122*
G01*
G75*
G02X128154I2365J-2037*
G01*
G75*
G02X132884I2365J-2037*
G01*
G75*
G02X133404Y207441I2365J-2037*
G01*
Y218348*
X132120Y219633*
X109234*
G75*
G02X107930Y220173I0J1845*
G01*
X105565Y222538*
G75*
G02X105024Y223843I1304J1305*
G01*
Y226227*
G75*
G02X106869Y233719I1845J3519*
G01*
G75*
G02X108713Y226227J-3973*
G01*
Y224607*
X109998Y223322*
X132883*
G75*
G02X134188Y222781I0J-1844*
G01*
X136553Y220417*
G75*
G02X137093Y219112I-1304J-1305*
G01*
Y207441*
G75*
G02X137614Y206960I-1845J-2519*
G01*
X106869Y243179D02*
G75*
G02X110842Y239206J-3973D01*
G01*
G75*
G02X106869Y235232I-3973*
G01*
G75*
G02X102896Y239206J3973*
G01*
G75*
G02X106869Y243179I3973*
G01*
X102896Y262856D02*
G75*
G02X110842I3973D01*
G01*
G75*
G02X102896I-3973*
G01*
X116329Y233719D02*
G75*
G02X120302Y229746J-3973D01*
G01*
G75*
G02X116329Y225772I-3973*
G01*
G75*
G02X112356Y229746J3973*
G01*
G75*
G02X116329Y233719I3973*
G01*
Y243179D02*
G75*
G02X120302Y239206J-3973D01*
G01*
G75*
G02X116329Y235232I-3973*
G01*
G75*
G02X112356Y239206J3973*
G01*
G75*
G02X116329Y243179I3973*
G01*
X112356Y262856D02*
G75*
G02X120302I3973D01*
G01*
G75*
G02X112356I-3973*
G01*
X125789Y233719D02*
G75*
G02X129762Y229746J-3973D01*
G01*
G75*
G02X125789Y225772I-3973*
G01*
G75*
G02X121815Y229746J3973*
G01*
G75*
G02X125789Y233719I3973*
G01*
Y243179D02*
G75*
G02X129762Y239206J-3973D01*
G01*
G75*
G02X125789Y235232I-3973*
G01*
G75*
G02X121815Y239206J3973*
G01*
G75*
G02X125789Y243179I3973*
G01*
X121815Y262856D02*
G75*
G02X129762I3973D01*
G01*
G75*
G02X121815I-3973*
G01*
X135249Y233719D02*
G75*
G02X139222Y229746J-3973D01*
G01*
G75*
G02X135249Y225772I-3973*
G01*
G75*
G02X131276Y229746J3973*
G01*
G75*
G02X135249Y233719I3973*
G01*
Y243179D02*
G75*
G02X139222Y239206J-3973D01*
G01*
G75*
G02X135249Y235232I-3973*
G01*
G75*
G02X131276Y239206J3973*
G01*
G75*
G02X135249Y243179I3973*
G01*
X131276Y262856D02*
G75*
G02X139222I3973D01*
G01*
G75*
G02X131276I-3973*
G01*
X144709Y233719D02*
G75*
G02Y225772J-3973D01*
G01*
G75*
G02X140735Y229746J3973*
G01*
G75*
G02X144709Y233719I3973*
G01*
Y243179D02*
G75*
G02X148682Y239206J-3973D01*
G01*
G75*
G02X144709Y235232I-3973*
G01*
G75*
G02X140735Y239206J3973*
G01*
G75*
G02X144709Y243179I3973*
G01*
X140735Y262856D02*
G75*
G02X148682I3973D01*
G01*
G75*
G02X140735I-3973*
G01*
X154169Y233719D02*
G75*
G02X158142Y229746J-3973D01*
G01*
G75*
G02X154169Y225772I-3973*
G01*
G75*
G02X150196Y229746J3973*
G01*
G75*
G02X154169Y233719I3973*
G01*
Y243179D02*
G75*
G02X158142Y239206J-3973D01*
G01*
G75*
G02X154169Y235232I-3973*
G01*
G75*
G02X150196Y239206J3973*
G01*
G75*
G02X154169Y243179I3973*
G01*
X150196Y262856D02*
G75*
G02X158142I3973D01*
G01*
G75*
G02X150196I-3973*
G01*
X163629Y233719D02*
G75*
G02X167602Y229746J-3973D01*
G01*
G75*
G02X163629Y225772I-3973*
G01*
G75*
G02X159656Y229746J3973*
G01*
G75*
G02X163629Y233719I3973*
G01*
Y243179D02*
G75*
G02X167602Y239206J-3973D01*
G01*
G75*
G02X163629Y235232I-3973*
G01*
G75*
G02X159656Y239206J3973*
G01*
G75*
G02X163629Y243179I3973*
G01*
X173089Y233719D02*
G75*
G02X177062Y229746J-3973D01*
G01*
G75*
G02X173089Y225772I-3973*
G01*
G75*
G02X169115Y229746J3973*
G01*
G75*
G02X173089Y233719I3973*
G01*
Y243179D02*
G75*
G02X177062Y239206J-3973D01*
G01*
G75*
G02X173089Y235232I-3973*
G01*
G75*
G02X169115Y239206J3973*
G01*
G75*
G02X173089Y243179I3973*
G01*
X110842Y229746D02*
G36*
G75*
G02X108713Y226227I-3973D01*
G01*
Y224607*
X109998Y223322*
X132883*
G75*
G02X134188Y222781I0J-1844*
G01*
X136553Y220417*
G75*
G02X137093Y219112I-1304J-1304*
G01*
Y207441*
G75*
G02X137614Y206960I-1859J-2533*
G01*
G75*
G02X143100Y204922I2365J-2038*
G01*
G75*
G02X142017Y202557I-3123J1*
G01*
G75*
G02X143100Y200193I-2039J-2366*
G01*
G75*
G02X137614Y198155I-3122J0*
G01*
G75*
G02X132884I-2365J2037*
G01*
G75*
G02X128154I-2365J2037*
G01*
G75*
G02X123424I-2365J2037*
G01*
G75*
G02X117937Y200193I-2365J2038*
G01*
G75*
G02X119021Y202557I3123J-1*
G01*
G75*
G02X117937Y204922I2039J2366*
G01*
G75*
G02X123424Y206960I3122J0*
G01*
G75*
G02X128154I2365J-2037*
G01*
G75*
G02X132884I2365J-2037*
G01*
G75*
G02X133404Y207441I2379J-2052*
G01*
Y218348*
X132120Y219633*
X109234*
G75*
G02X107930Y220173I0J1844*
G01*
X105565Y222538*
G75*
G02X105024Y223843I1304J1304*
G01*
Y226227*
G75*
G02X102896Y229746I1845J3519*
G01*
X101382*
G75*
G02X97409Y225772I-3973*
G01*
G75*
G02X93435Y229746J3973*
G01*
X91922*
G75*
G02X87949Y225772I-3973*
G01*
G75*
G02X83976Y229746J3973*
G01*
X71299*
Y190638*
X189664*
Y229746*
X177062*
G75*
G02X173089Y225772I-3973*
G01*
G75*
G02X169115Y229746J3973*
G01*
X167602*
G75*
G02X163629Y225772I-3973*
G01*
G75*
G02X159656Y229746J3973*
G01*
X158142*
G75*
G02X154169Y225772I-3973*
G01*
G75*
G02X150196Y229746J3973*
G01*
X148682*
G75*
G02X144709Y225772I-3973*
G01*
G75*
G02X140735Y229746J3973*
G01*
X139222*
G75*
G02X135249Y225772I-3973*
G01*
G75*
G02X131276Y229746J3973*
G01*
X129762*
G75*
G02X125789Y225772I-3973*
G01*
G75*
G02X121815Y229746J3973*
G01*
X120302*
G75*
G02X116329Y225772I-3973*
G01*
G75*
G02X112356Y229746J3973*
G01*
X110842*
G37*
G36*
X112356*
G75*
G02X116329Y233719I3973*
G01*
G75*
G02X120302Y229746J-3973*
G01*
X121815*
G75*
G02X125789Y233719I3973*
G01*
G75*
G02X129762Y229746J-3973*
G01*
X131276*
G75*
G02X135249Y233719I3973*
G01*
G75*
G02X139222Y229746J-3973*
G01*
X140735*
G75*
G02X144709Y233719I3973*
G01*
G75*
G02X148682Y229746J-3973*
G01*
X150196*
G75*
G02X154169Y233719I3973*
G01*
G75*
G02X158142Y229746J-3973*
G01*
X159656*
G75*
G02X163629Y233719I3973*
G01*
G75*
G02X167602Y229746J-3973*
G01*
X169115*
G75*
G02X173089Y233719I3973*
G01*
G75*
G02X177062Y229746J-3973*
G01*
X189664*
Y239206*
X177062*
G75*
G02X173089Y235232I-3973*
G01*
G75*
G02X169115Y239206J3973*
G01*
X167602*
G75*
G02X163629Y235232I-3973*
G01*
G75*
G02X159656Y239206J3973*
G01*
X158142*
G75*
G02X154169Y235232I-3973*
G01*
G75*
G02X150196Y239206J3973*
G01*
X148682*
G75*
G02X144709Y235232I-3973*
G01*
G75*
G02X140735Y239206J3973*
G01*
X139222*
G75*
G02X135249Y235232I-3973*
G01*
G75*
G02X131276Y239206J3973*
G01*
X129762*
G75*
G02X125789Y235232I-3973*
G01*
G75*
G02X121815Y239206J3973*
G01*
X120302*
G75*
G02X116329Y235232I-3973*
G01*
G75*
G02X112356Y239206J3973*
G01*
X110842*
G75*
G02X106869Y235232I-3973*
G01*
G75*
G02X102896Y239206J3973*
G01*
X101382*
G75*
G02X97409Y235232I-3973*
G01*
G75*
G02X93435Y239206J3973*
G01*
X91922*
G75*
G02X87949Y235232I-3973*
G01*
G75*
G02X83976Y239206J3973*
G01*
X71299*
Y229746*
X83976*
G75*
G02X87949Y233719I3973*
G01*
G75*
G02X91922Y229746J-3973*
G01*
X93435*
G75*
G02X97409Y233719I3973*
G01*
G75*
G02X101382Y229746J-3973*
G01*
X102896*
G75*
G02X106869Y233719I3973*
G01*
G75*
G02X110842Y229746J-3973*
G01*
G37*
X71299Y262856D02*
G36*
Y239206D01*
X83976*
G75*
G02X87949Y243179I3973*
G01*
G75*
G02X91922Y239206J-3973*
G01*
X93435*
G75*
G02X97409Y243179I3973*
G01*
G75*
G02X101382Y239206J-3973*
G01*
X102896*
G75*
G02X106869Y243179I3973*
G01*
G75*
G02X110842Y239206J-3973*
G01*
X112356*
G75*
G02X116329Y243179I3973*
G01*
G75*
G02X120302Y239206J-3973*
G01*
X121815*
G75*
G02X125789Y243179I3973*
G01*
G75*
G02X129762Y239206J-3973*
G01*
X131276*
G75*
G02X135249Y243179I3973*
G01*
G75*
G02X139222Y239206J-3973*
G01*
X140735*
G75*
G02X144709Y243179I3973*
G01*
G75*
G02X148682Y239206J-3973*
G01*
X150196*
G75*
G02X154169Y243179I3973*
G01*
G75*
G02X158142Y239206J-3973*
G01*
X159656*
G75*
G02X163629Y243179I3973*
G01*
G75*
G02X167602Y239206J-3973*
G01*
X169115*
G75*
G02X173089Y243179I3973*
G01*
G75*
G02X177062Y239206J-3973*
G01*
X189664*
Y262856*
X158142*
G75*
G02X150196I-3973*
G01*
X148682*
G75*
G02X140735I-3973*
G01*
X139222*
G75*
G02X131276I-3973*
G01*
X129762*
G75*
G02X121815I-3973*
G01*
X120302*
G75*
G02X112356I-3973*
G01*
X110842*
G75*
G02X102896I-3973*
G01*
X71299*
G37*
Y279207D02*
G36*
Y262856D01*
X102896*
G75*
G02X110842I3973*
G01*
X112356*
G75*
G02X120302I3973*
G01*
X121815*
G75*
G02X129762I3973*
G01*
X131276*
G75*
G02X139222I3973*
G01*
X140735*
G75*
G02X148682I3973*
G01*
X150196*
G75*
G02X158142I3973*
G01*
X189664*
Y279207*
X71299*
G37*
X70921Y372696D02*
Y283370D01*
X190042*
Y372696*
X70921*
X87949Y326829D02*
G75*
G02X91922Y322856J-3973D01*
G01*
G75*
G02X87949Y318883I-3973*
G01*
G75*
G02X83976Y322856J3973*
G01*
G75*
G02X87949Y326829I3973*
G01*
Y336289D02*
G75*
G02X91922Y332316J-3973D01*
G01*
G75*
G02X87949Y328343I-3973*
G01*
G75*
G02X83976Y332316J3973*
G01*
G75*
G02X87949Y336289I3973*
G01*
X97409Y326829D02*
G75*
G02X101382Y322856J-3973D01*
G01*
G75*
G02X97409Y318883I-3973*
G01*
G75*
G02X93435Y322856J3973*
G01*
G75*
G02X97409Y326829I3973*
G01*
Y336289D02*
G75*
G02X101382Y332316J-3973D01*
G01*
G75*
G02X97409Y328343I-3973*
G01*
G75*
G02X93435Y332316J3973*
G01*
G75*
G02X97409Y336289I3973*
G01*
X137614Y300070D02*
G75*
G02X143100Y298033I2365J-2037D01*
G01*
G75*
G02X142017Y295668I-3122*
G01*
G75*
G02X143100Y293303I-2038J-2365*
G01*
G75*
G02X137614Y291265I-3122*
G01*
G75*
G02X132884I-2365J2038*
G01*
G75*
G02X128154I-2365J2038*
G01*
G75*
G02X123424I-2365J2038*
G01*
G75*
G02X117937Y293303I-2365J2038*
G01*
G75*
G02X119021Y295668I3122*
G01*
G75*
G02X117937Y298033I2037J2365*
G01*
G75*
G02X123424Y300070I3122*
G01*
G75*
G02X128154I2365J-2037*
G01*
G75*
G02X132884I2365J-2037*
G01*
G75*
G02X133404Y300551I2365J-2037*
G01*
Y311458*
X132120Y312743*
X109234*
G75*
G02X107930Y313283I0J1845*
G01*
X105565Y315648*
G75*
G02X105024Y316953I1304J1305*
G01*
Y319337*
G75*
G02X106869Y326829I1845J3519*
G01*
G75*
G02X108713Y319337J-3973*
G01*
Y317717*
X109998Y316432*
X132883*
G75*
G02X134188Y315892I0J-1844*
G01*
X136553Y313527*
G75*
G02X137093Y312222I-1304J-1305*
G01*
Y300551*
G75*
G02X137614Y300070I-1845J-2519*
G01*
X106869Y336289D02*
G75*
G02X110842Y332316J-3973D01*
G01*
G75*
G02X106869Y328343I-3973*
G01*
G75*
G02X102896Y332316J3973*
G01*
G75*
G02X106869Y336289I3973*
G01*
X102896Y355966D02*
G75*
G02X110842I3973D01*
G01*
G75*
G02X102896I-3973*
G01*
X116329Y326829D02*
G75*
G02X120302Y322856J-3973D01*
G01*
G75*
G02X116329Y318883I-3973*
G01*
G75*
G02X112356Y322856J3973*
G01*
G75*
G02X116329Y326829I3973*
G01*
Y336289D02*
G75*
G02X120302Y332316J-3973D01*
G01*
G75*
G02X116329Y328343I-3973*
G01*
G75*
G02X112356Y332316J3973*
G01*
G75*
G02X116329Y336289I3973*
G01*
X112356Y355966D02*
G75*
G02X120302I3973D01*
G01*
G75*
G02X112356I-3973*
G01*
X125789Y326829D02*
G75*
G02X129762Y322856J-3973D01*
G01*
G75*
G02X125789Y318883I-3973*
G01*
G75*
G02X121815Y322856J3973*
G01*
G75*
G02X125789Y326829I3973*
G01*
Y336289D02*
G75*
G02X129762Y332316J-3973D01*
G01*
G75*
G02X125789Y328343I-3973*
G01*
G75*
G02X121815Y332316J3973*
G01*
G75*
G02X125789Y336289I3973*
G01*
X121815Y355966D02*
G75*
G02X129762I3973D01*
G01*
G75*
G02X121815I-3973*
G01*
X135249Y326829D02*
G75*
G02X139222Y322856J-3973D01*
G01*
G75*
G02X135249Y318883I-3973*
G01*
G75*
G02X131276Y322856J3973*
G01*
G75*
G02X135249Y326829I3973*
G01*
Y336289D02*
G75*
G02X139222Y332316J-3973D01*
G01*
G75*
G02X135249Y328343I-3973*
G01*
G75*
G02X131276Y332316J3973*
G01*
G75*
G02X135249Y336289I3973*
G01*
X131276Y355966D02*
G75*
G02X139222I3973D01*
G01*
G75*
G02X131276I-3973*
G01*
X144709Y326829D02*
G75*
G02X148682Y322856J-3973D01*
G01*
G75*
G02X144709Y318883I-3973*
G01*
G75*
G02X140735Y322856J3973*
G01*
G75*
G02X144709Y326829I3973*
G01*
Y336289D02*
G75*
G02X148682Y332316J-3973D01*
G01*
G75*
G02X144709Y328343I-3973*
G01*
G75*
G02X140735Y332316J3973*
G01*
G75*
G02X144709Y336289I3973*
G01*
X140735Y355966D02*
G75*
G02X148682I3973D01*
G01*
G75*
G02X140735I-3973*
G01*
X154169Y326829D02*
G75*
G02X158142Y322856J-3973D01*
G01*
G75*
G02X154169Y318883I-3973*
G01*
G75*
G02X150196Y322856J3973*
G01*
G75*
G02X154169Y326829I3973*
G01*
Y336289D02*
G75*
G02X158142Y332316J-3973D01*
G01*
G75*
G02X154169Y328343I-3973*
G01*
G75*
G02X150196Y332316J3973*
G01*
G75*
G02X154169Y336289I3973*
G01*
X150196Y355966D02*
G75*
G02X158142I3973D01*
G01*
G75*
G02X150196I-3973*
G01*
X163629Y326829D02*
G75*
G02X167602Y322856J-3973D01*
G01*
G75*
G02X163629Y318883I-3973*
G01*
G75*
G02X159656Y322856J3973*
G01*
G75*
G02X163629Y326829I3973*
G01*
Y336289D02*
G75*
G02X167602Y332316J-3973D01*
G01*
G75*
G02X163629Y328343I-3973*
G01*
G75*
G02X159656Y332316J3973*
G01*
G75*
G02X163629Y336289I3973*
G01*
X173089Y326829D02*
G75*
G02X177062Y322856J-3973D01*
G01*
G75*
G02X173089Y318883I-3973*
G01*
G75*
G02X169115Y322856J3973*
G01*
G75*
G02X173089Y326829I3973*
G01*
Y336289D02*
G75*
G02X177062Y332316J-3973D01*
G01*
G75*
G02X173089Y328343I-3973*
G01*
G75*
G02X169115Y332316J3973*
G01*
G75*
G02X173089Y336289I3973*
G01*
X110842Y322856D02*
G36*
G75*
G02X108713Y319337I-3973D01*
G01*
Y317717*
X109998Y316432*
X132883*
G75*
G02X134188Y315892I0J-1844*
G01*
X136553Y313527*
G75*
G02X137093Y312222I-1304J-1304*
G01*
Y300551*
G75*
G02X137614Y300070I-1859J-2533*
G01*
G75*
G02X143100Y298033I2365J-2038*
G01*
G75*
G02X142017Y295668I-3123J1*
G01*
G75*
G02X143100Y293303I-2039J-2366*
G01*
G75*
G02X137614Y291265I-3122J0*
G01*
G75*
G02X132884I-2365J2037*
G01*
G75*
G02X128154I-2365J2037*
G01*
G75*
G02X123424I-2365J2037*
G01*
G75*
G02X117937Y293303I-2365J2038*
G01*
G75*
G02X119021Y295668I3123J-1*
G01*
G75*
G02X117937Y298033I2039J2366*
G01*
G75*
G02X123424Y300070I3122J0*
G01*
G75*
G02X128154I2365J-2037*
G01*
G75*
G02X132884I2365J-2037*
G01*
G75*
G02X133404Y300551I2379J-2052*
G01*
Y311458*
X132120Y312743*
X109234*
G75*
G02X107930Y313283I0J1844*
G01*
X105565Y315648*
G75*
G02X105024Y316953I1304J1304*
G01*
Y319337*
G75*
G02X102896Y322856I1845J3519*
G01*
X101382*
G75*
G02X97409Y318883I-3973*
G01*
G75*
G02X93435Y322856J3973*
G01*
X91922*
G75*
G02X87949Y318883I-3973*
G01*
G75*
G02X83976Y322856J3973*
G01*
X71299*
Y283748*
X189664*
Y322856*
X177062*
G75*
G02X173089Y318883I-3973*
G01*
G75*
G02X169115Y322856J3973*
G01*
X167602*
G75*
G02X163629Y318883I-3973*
G01*
G75*
G02X159656Y322856J3973*
G01*
X158142*
G75*
G02X154169Y318883I-3973*
G01*
G75*
G02X150196Y322856J3973*
G01*
X148682*
G75*
G02X144709Y318883I-3973*
G01*
G75*
G02X140735Y322856J3973*
G01*
X139222*
G75*
G02X135249Y318883I-3973*
G01*
G75*
G02X131276Y322856J3973*
G01*
X129762*
G75*
G02X125789Y318883I-3973*
G01*
G75*
G02X121815Y322856J3973*
G01*
X120302*
G75*
G02X116329Y318883I-3973*
G01*
G75*
G02X112356Y322856J3973*
G01*
X110842*
G37*
G36*
X112356*
G75*
G02X116329Y326829I3973*
G01*
G75*
G02X120302Y322856J-3973*
G01*
X121815*
G75*
G02X125789Y326829I3973*
G01*
G75*
G02X129762Y322856J-3973*
G01*
X131276*
G75*
G02X135249Y326829I3973*
G01*
G75*
G02X139222Y322856J-3973*
G01*
X140735*
G75*
G02X144709Y326829I3973*
G01*
G75*
G02X148682Y322856J-3973*
G01*
X150196*
G75*
G02X154169Y326829I3973*
G01*
G75*
G02X158142Y322856J-3973*
G01*
X159656*
G75*
G02X163629Y326829I3973*
G01*
G75*
G02X167602Y322856J-3973*
G01*
X169115*
G75*
G02X173089Y326829I3973*
G01*
G75*
G02X177062Y322856J-3973*
G01*
X189664*
Y332316*
X177062*
G75*
G02X173089Y328343I-3973*
G01*
G75*
G02X169115Y332316J3973*
G01*
X167602*
G75*
G02X163629Y328343I-3973*
G01*
G75*
G02X159656Y332316J3973*
G01*
X158142*
G75*
G02X154169Y328343I-3973*
G01*
G75*
G02X150196Y332316J3973*
G01*
X148682*
G75*
G02X144709Y328343I-3973*
G01*
G75*
G02X140735Y332316J3973*
G01*
X139222*
G75*
G02X135249Y328343I-3973*
G01*
G75*
G02X131276Y332316J3973*
G01*
X129762*
G75*
G02X125789Y328343I-3973*
G01*
G75*
G02X121815Y332316J3973*
G01*
X120302*
G75*
G02X116329Y328343I-3973*
G01*
G75*
G02X112356Y332316J3973*
G01*
X110842*
G75*
G02X106869Y328343I-3973*
G01*
G75*
G02X102896Y332316J3973*
G01*
X101382*
G75*
G02X97409Y328343I-3973*
G01*
G75*
G02X93435Y332316J3973*
G01*
X91922*
G75*
G02X87949Y328343I-3973*
G01*
G75*
G02X83976Y332316J3973*
G01*
X71299*
Y322856*
X83976*
G75*
G02X87949Y326829I3973*
G01*
G75*
G02X91922Y322856J-3973*
G01*
X93435*
G75*
G02X97409Y326829I3973*
G01*
G75*
G02X101382Y322856J-3973*
G01*
X102896*
G75*
G02X106869Y326829I3973*
G01*
G75*
G02X110842Y322856J-3973*
G01*
G37*
X71299Y355966D02*
G36*
Y332316D01*
X83976*
G75*
G02X87949Y336289I3973*
G01*
G75*
G02X91922Y332316J-3973*
G01*
X93435*
G75*
G02X97409Y336289I3973*
G01*
G75*
G02X101382Y332316J-3973*
G01*
X102896*
G75*
G02X106869Y336289I3973*
G01*
G75*
G02X110842Y332316J-3973*
G01*
X112356*
G75*
G02X116329Y336289I3973*
G01*
G75*
G02X120302Y332316J-3973*
G01*
X121815*
G75*
G02X125789Y336289I3973*
G01*
G75*
G02X129762Y332316J-3973*
G01*
X131276*
G75*
G02X135249Y336289I3973*
G01*
G75*
G02X139222Y332316J-3973*
G01*
X140735*
G75*
G02X144709Y336289I3973*
G01*
G75*
G02X148682Y332316J-3973*
G01*
X150196*
G75*
G02X154169Y336289I3973*
G01*
G75*
G02X158142Y332316J-3973*
G01*
X159656*
G75*
G02X163629Y336289I3973*
G01*
G75*
G02X167602Y332316J-3973*
G01*
X169115*
G75*
G02X173089Y336289I3973*
G01*
G75*
G02X177062Y332316J-3973*
G01*
X189664*
Y355966*
X158142*
G75*
G02X150196I-3973*
G01*
X148682*
G75*
G02X140735I-3973*
G01*
X139222*
G75*
G02X131276I-3973*
G01*
X129762*
G75*
G02X121815I-3973*
G01*
X120302*
G75*
G02X112356I-3973*
G01*
X110842*
G75*
G02X102896I-3973*
G01*
X71299*
G37*
Y372317D02*
G36*
Y355966D01*
X102896*
G75*
G02X110842I3973*
G01*
X112356*
G75*
G02X120302I3973*
G01*
X121815*
G75*
G02X129762I3973*
G01*
X131276*
G75*
G02X139222I3973*
G01*
X140735*
G75*
G02X148682I3973*
G01*
X150196*
G75*
G02X158142I3973*
G01*
X189664*
Y372317*
X71299*
G37*
X70921Y465806D02*
Y376480D01*
X190042*
Y465806*
X70921*
X87949Y419939D02*
G75*
G02X91922Y415966J-3973D01*
G01*
G75*
G02X87949Y411993I-3973*
G01*
G75*
G02X83976Y415966J3973*
G01*
G75*
G02X87949Y419939I3973*
G01*
Y429399D02*
G75*
G02X91922Y425426J-3973D01*
G01*
G75*
G02X87949Y421453I-3973*
G01*
G75*
G02X83976Y425426J3973*
G01*
G75*
G02X87949Y429399I3973*
G01*
X97409Y419939D02*
G75*
G02X101382Y415966J-3973D01*
G01*
G75*
G02X97409Y411993I-3973*
G01*
G75*
G02X93435Y415966J3973*
G01*
G75*
G02X97409Y419939I3973*
G01*
Y429399D02*
G75*
G02X101382Y425426J-3973D01*
G01*
G75*
G02X97409Y421453I-3973*
G01*
G75*
G02X93435Y425426J3973*
G01*
G75*
G02X97409Y429399I3973*
G01*
X137614Y393180D02*
G75*
G02X143100Y391143I2365J-2037D01*
G01*
G75*
G02X142017Y388778I-3122*
G01*
G75*
G02X143100Y386413I-2038J-2365*
G01*
G75*
G02X137614Y384375I-3122*
G01*
G75*
G02X132884I-2365J2038*
G01*
G75*
G02X128154I-2365J2038*
G01*
G75*
G02X123424I-2365J2038*
G01*
G75*
G02X117937Y386413I-2365J2038*
G01*
G75*
G02X119021Y388778I3122*
G01*
G75*
G02X117937Y391143I2037J2365*
G01*
G75*
G02X123424Y393180I3122*
G01*
G75*
G02X128154I2365J-2037*
G01*
G75*
G02X132884I2365J-2037*
G01*
G75*
G02X133404Y393661I2365J-2037*
G01*
Y404569*
X132120Y405853*
X109234*
G75*
G02X107930Y406394I0J1845*
G01*
X105565Y408759*
G75*
G02X105024Y410063I1304J1305*
G01*
Y412447*
G75*
G02X106869Y419939I1845J3519*
G01*
G75*
G02X108713Y412447J-3973*
G01*
Y410827*
X109998Y409543*
X132883*
G75*
G02X134188Y409002I0J-1844*
G01*
X136553Y406637*
G75*
G02X137093Y405333I-1304J-1305*
G01*
Y393661*
G75*
G02X137614Y393180I-1845J-2519*
G01*
X106869Y429399D02*
G75*
G02X110842Y425426J-3973D01*
G01*
G75*
G02X106869Y421453I-3973*
G01*
G75*
G02X102896Y425426J3973*
G01*
G75*
G02X106869Y429399I3973*
G01*
X102896Y449076D02*
G75*
G02X110842I3973D01*
G01*
G75*
G02X102896I-3973*
G01*
X116329Y419939D02*
G75*
G02X120302Y415966J-3973D01*
G01*
G75*
G02X116329Y411993I-3973*
G01*
G75*
G02X112356Y415966J3973*
G01*
G75*
G02X116329Y419939I3973*
G01*
Y429399D02*
G75*
G02X120302Y425426J-3973D01*
G01*
G75*
G02X116329Y421453I-3973*
G01*
G75*
G02X112356Y425426J3973*
G01*
G75*
G02X116329Y429399I3973*
G01*
X112356Y449076D02*
G75*
G02X120302I3973D01*
G01*
G75*
G02X112356I-3973*
G01*
X125789Y419939D02*
G75*
G02X129762Y415966J-3973D01*
G01*
G75*
G02X125789Y411993I-3973*
G01*
G75*
G02X121815Y415966J3973*
G01*
G75*
G02X125789Y419939I3973*
G01*
Y429399D02*
G75*
G02X129762Y425426J-3973D01*
G01*
G75*
G02X125789Y421453I-3973*
G01*
G75*
G02X121815Y425426J3973*
G01*
G75*
G02X125789Y429399I3973*
G01*
X121815Y449076D02*
G75*
G02X129762I3973D01*
G01*
G75*
G02X121815I-3973*
G01*
X135249Y419939D02*
G75*
G02X139222Y415966J-3973D01*
G01*
G75*
G02X135249Y411993I-3973*
G01*
G75*
G02X131276Y415966J3973*
G01*
G75*
G02X135249Y419939I3973*
G01*
Y429399D02*
G75*
G02X139222Y425426J-3973D01*
G01*
G75*
G02X135249Y421453I-3973*
G01*
G75*
G02X131276Y425426J3973*
G01*
G75*
G02X135249Y429399I3973*
G01*
X131276Y449076D02*
G75*
G02X139222I3973D01*
G01*
G75*
G02X131276I-3973*
G01*
X144709Y419939D02*
G75*
G02X148682Y415966J-3973D01*
G01*
G75*
G02X144709Y411993I-3973*
G01*
G75*
G02X140735Y415966J3973*
G01*
G75*
G02X144709Y419939I3973*
G01*
Y429399D02*
G75*
G02X148682Y425426J-3973D01*
G01*
G75*
G02X144709Y421453I-3973*
G01*
G75*
G02X140735Y425426J3973*
G01*
G75*
G02X144709Y429399I3973*
G01*
X140735Y449076D02*
G75*
G02X148682I3973D01*
G01*
G75*
G02X140735I-3973*
G01*
X154169Y419939D02*
G75*
G02X158142Y415966J-3973D01*
G01*
G75*
G02X154169Y411993I-3973*
G01*
G75*
G02X150196Y415966J3973*
G01*
G75*
G02X154169Y419939I3973*
G01*
Y429399D02*
G75*
G02X158142Y425426J-3973D01*
G01*
G75*
G02X154169Y421453I-3973*
G01*
G75*
G02X150196Y425426J3973*
G01*
G75*
G02X154169Y429399I3973*
G01*
X150196Y449076D02*
G75*
G02X158142I3973D01*
G01*
G75*
G02X150196I-3973*
G01*
X163629Y419939D02*
G75*
G02X167602Y415966J-3973D01*
G01*
G75*
G02X163629Y411993I-3973*
G01*
G75*
G02X159656Y415966J3973*
G01*
G75*
G02X163629Y419939I3973*
G01*
Y429399D02*
G75*
G02X167602Y425426J-3973D01*
G01*
G75*
G02X163629Y421453I-3973*
G01*
G75*
G02X159656Y425426J3973*
G01*
G75*
G02X163629Y429399I3973*
G01*
X173089Y419939D02*
G75*
G02X177062Y415966J-3973D01*
G01*
G75*
G02X173089Y411993I-3973*
G01*
G75*
G02X169115Y415966J3973*
G01*
G75*
G02X173089Y419939I3973*
G01*
Y429399D02*
G75*
G02X177062Y425426J-3973D01*
G01*
G75*
G02X173089Y421453I-3973*
G01*
G75*
G02X169115Y425426J3973*
G01*
G75*
G02X173089Y429399I3973*
G01*
X110842Y415966D02*
G36*
G75*
G02X108713Y412447I-3973D01*
G01*
Y410827*
X109998Y409543*
X132883*
G75*
G02X134188Y409002I0J-1844*
G01*
X136553Y406637*
G75*
G02X137093Y405333I-1304J-1304*
G01*
Y393661*
G75*
G02X137614Y393180I-1859J-2533*
G01*
G75*
G02X143100Y391143I2365J-2038*
G01*
G75*
G02X142017Y388778I-3123J1*
G01*
G75*
G02X143100Y386413I-2039J-2366*
G01*
G75*
G02X137614Y384375I-3122J0*
G01*
G75*
G02X132884I-2365J2037*
G01*
G75*
G02X128154I-2365J2037*
G01*
G75*
G02X123424I-2365J2037*
G01*
G75*
G02X117937Y386413I-2365J2038*
G01*
G75*
G02X119021Y388778I3123J-1*
G01*
G75*
G02X117937Y391143I2039J2366*
G01*
G75*
G02X123424Y393180I3122J0*
G01*
G75*
G02X128154I2365J-2037*
G01*
G75*
G02X132884I2365J-2037*
G01*
G75*
G02X133404Y393661I2379J-2052*
G01*
Y404569*
X132120Y405853*
X109234*
G75*
G02X107930Y406394I0J1844*
G01*
X105565Y408759*
G75*
G02X105024Y410063I1304J1304*
G01*
Y412447*
G75*
G02X102896Y415966I1845J3519*
G01*
X101382*
G75*
G02X97409Y411993I-3973*
G01*
G75*
G02X93435Y415966J3973*
G01*
X91922*
G75*
G02X87949Y411993I-3973*
G01*
G75*
G02X83976Y415966J3973*
G01*
X71299*
Y376858*
X189664*
Y415966*
X177062*
G75*
G02X173089Y411993I-3973*
G01*
G75*
G02X169115Y415966J3973*
G01*
X167602*
G75*
G02X163629Y411993I-3973*
G01*
G75*
G02X159656Y415966J3973*
G01*
X158142*
G75*
G02X154169Y411993I-3973*
G01*
G75*
G02X150196Y415966J3973*
G01*
X148682*
G75*
G02X144709Y411993I-3973*
G01*
G75*
G02X140735Y415966J3973*
G01*
X139222*
G75*
G02X135249Y411993I-3973*
G01*
G75*
G02X131276Y415966J3973*
G01*
X129762*
G75*
G02X125789Y411993I-3973*
G01*
G75*
G02X121815Y415966J3973*
G01*
X120302*
G75*
G02X116329Y411993I-3973*
G01*
G75*
G02X112356Y415966J3973*
G01*
X110842*
G37*
G36*
X112356*
G75*
G02X116329Y419939I3973*
G01*
G75*
G02X120302Y415966J-3973*
G01*
X121815*
G75*
G02X125789Y419939I3973*
G01*
G75*
G02X129762Y415966J-3973*
G01*
X131276*
G75*
G02X135249Y419939I3973*
G01*
G75*
G02X139222Y415966J-3973*
G01*
X140735*
G75*
G02X144709Y419939I3973*
G01*
G75*
G02X148682Y415966J-3973*
G01*
X150196*
G75*
G02X154169Y419939I3973*
G01*
G75*
G02X158142Y415966J-3973*
G01*
X159656*
G75*
G02X163629Y419939I3973*
G01*
G75*
G02X167602Y415966J-3973*
G01*
X169115*
G75*
G02X173089Y419939I3973*
G01*
G75*
G02X177062Y415966J-3973*
G01*
X189664*
Y425426*
X177062*
G75*
G02X173089Y421453I-3973*
G01*
G75*
G02X169115Y425426J3973*
G01*
X167602*
G75*
G02X163629Y421453I-3973*
G01*
G75*
G02X159656Y425426J3973*
G01*
X158142*
G75*
G02X154169Y421453I-3973*
G01*
G75*
G02X150196Y425426J3973*
G01*
X148682*
G75*
G02X144709Y421453I-3973*
G01*
G75*
G02X140735Y425426J3973*
G01*
X139222*
G75*
G02X135249Y421453I-3973*
G01*
G75*
G02X131276Y425426J3973*
G01*
X129762*
G75*
G02X125789Y421453I-3973*
G01*
G75*
G02X121815Y425426J3973*
G01*
X120302*
G75*
G02X116329Y421453I-3973*
G01*
G75*
G02X112356Y425426J3973*
G01*
X110842*
G75*
G02X106869Y421453I-3973*
G01*
G75*
G02X102896Y425426J3973*
G01*
X101382*
G75*
G02X97409Y421453I-3973*
G01*
G75*
G02X93435Y425426J3973*
G01*
X91922*
G75*
G02X87949Y421453I-3973*
G01*
G75*
G02X83976Y425426J3973*
G01*
X71299*
Y415966*
X83976*
G75*
G02X87949Y419939I3973*
G01*
G75*
G02X91922Y415966J-3973*
G01*
X93435*
G75*
G02X97409Y419939I3973*
G01*
G75*
G02X101382Y415966J-3973*
G01*
X102896*
G75*
G02X106869Y419939I3973*
G01*
G75*
G02X110842Y415966J-3973*
G01*
G37*
X71299Y449076D02*
G36*
Y425426D01*
X83976*
G75*
G02X87949Y429399I3973*
G01*
G75*
G02X91922Y425426J-3973*
G01*
X93435*
G75*
G02X97409Y429399I3973*
G01*
G75*
G02X101382Y425426J-3973*
G01*
X102896*
G75*
G02X106869Y429399I3973*
G01*
G75*
G02X110842Y425426J-3973*
G01*
X112356*
G75*
G02X116329Y429399I3973*
G01*
G75*
G02X120302Y425426J-3973*
G01*
X121815*
G75*
G02X125789Y429399I3973*
G01*
G75*
G02X129762Y425426J-3973*
G01*
X131276*
G75*
G02X135249Y429399I3973*
G01*
G75*
G02X139222Y425426J-3973*
G01*
X140735*
G75*
G02X144709Y429399I3973*
G01*
G75*
G02X148682Y425426J-3973*
G01*
X150196*
G75*
G02X154169Y429399I3973*
G01*
G75*
G02X158142Y425426J-3973*
G01*
X159656*
G75*
G02X163629Y429399I3973*
G01*
G75*
G02X167602Y425426J-3973*
G01*
X169115*
G75*
G02X173089Y429399I3973*
G01*
G75*
G02X177062Y425426J-3973*
G01*
X189664*
Y449076*
X158142*
G75*
G02X150196I-3973*
G01*
X148682*
G75*
G02X140735I-3973*
G01*
X139222*
G75*
G02X131276I-3973*
G01*
X129762*
G75*
G02X121815I-3973*
G01*
X120302*
G75*
G02X112356I-3973*
G01*
X110842*
G75*
G02X102896I-3973*
G01*
X71299*
G37*
Y465428D02*
G36*
Y449076D01*
X102896*
G75*
G02X110842I3973*
G01*
X112356*
G75*
G02X120302I3973*
G01*
X121815*
G75*
G02X129762I3973*
G01*
X131276*
G75*
G02X139222I3973*
G01*
X140735*
G75*
G02X148682I3973*
G01*
X150196*
G75*
G02X158142I3973*
G01*
X189664*
Y465428*
X71299*
G37*
X193826Y186475D02*
Y97149D01*
X312948*
Y186475*
X193826*
X210854Y140609D02*
G75*
G02Y132662J-3973D01*
G01*
G75*
G02X206881Y136635J3973*
G01*
G75*
G02X210854Y140609I3973*
G01*
Y150069D02*
G75*
G02Y142122J-3973D01*
G01*
G75*
G02X206881Y146095J3973*
G01*
G75*
G02X210854Y150069I3973*
G01*
X220314Y140609D02*
G75*
G02X224287Y136635J-3973D01*
G01*
G75*
G02X220314Y132662I-3973*
G01*
G75*
G02X216341Y136635J3973*
G01*
G75*
G02X220314Y140609I3973*
G01*
Y150069D02*
G75*
G02X224287Y146095J-3973D01*
G01*
G75*
G02X220314Y142122I-3973*
G01*
G75*
G02X216341Y146095J3973*
G01*
G75*
G02X220314Y150069I3973*
G01*
X260519Y113850D02*
G75*
G02X266006Y111812I2365J-2037D01*
G01*
G75*
G02X264922Y109447I-3122*
G01*
G75*
G02X266006Y107082I-2038J-2365*
G01*
G75*
G02X260519Y105044I-3122*
G01*
G75*
G02X255789I-2365J2038*
G01*
G75*
G02X251059I-2365J2038*
G01*
G75*
G02X246329I-2365J2038*
G01*
G75*
G02X240843Y107082I-2365J2038*
G01*
G75*
G02X241927Y109447I3122*
G01*
G75*
G02X240843Y111812I2037J2365*
G01*
G75*
G02X246329Y113850I3122*
G01*
G75*
G02X251059I2365J-2037*
G01*
G75*
G02X255789I2365J-2037*
G01*
G75*
G02X256309Y114331I2365J-2037*
G01*
Y125238*
X255025Y126522*
X232140*
G75*
G02X230835Y127063I0J1845*
G01*
X228470Y129428*
G75*
G02X227930Y130732I1304J1305*
G01*
Y133117*
G75*
G02X229774Y140609I1845J3519*
G01*
G75*
G02X231619Y133117J-3973*
G01*
Y131496*
X232904Y130212*
X255789*
G75*
G02X257094Y129671I0J-1844*
G01*
X259459Y127306*
G75*
G02X259999Y126002I-1304J-1305*
G01*
Y114331*
G75*
G02X260519Y113850I-1845J-2519*
G01*
X229774Y150069D02*
G75*
G02X233748Y146095J-3973D01*
G01*
G75*
G02X229774Y142122I-3973*
G01*
G75*
G02X225801Y146095J3973*
G01*
G75*
G02X229774Y150069I3973*
G01*
X225801Y169745D02*
G75*
G02X233748I3973D01*
G01*
G75*
G02X225801I-3973*
G01*
X239234Y140609D02*
G75*
G02X243207Y136635J-3973D01*
G01*
G75*
G02X239234Y132662I-3973*
G01*
G75*
G02X235261Y136635J3973*
G01*
G75*
G02X239234Y140609I3973*
G01*
Y150069D02*
G75*
G02X243207Y146095J-3973D01*
G01*
G75*
G02X239234Y142122I-3973*
G01*
G75*
G02X235261Y146095J3973*
G01*
G75*
G02X239234Y150069I3973*
G01*
X235261Y169745D02*
G75*
G02X243207I3973D01*
G01*
G75*
G02X235261I-3973*
G01*
X248694Y140609D02*
G75*
G02X252667Y136635J-3973D01*
G01*
G75*
G02X248694Y132662I-3973*
G01*
G75*
G02X244721Y136635J3973*
G01*
G75*
G02X248694Y140609I3973*
G01*
Y150069D02*
G75*
G02Y142122J-3973D01*
G01*
G75*
G02X244721Y146095J3973*
G01*
G75*
G02X248694Y150069I3973*
G01*
X244721Y169745D02*
G75*
G02X252667I3973D01*
G01*
G75*
G02X244721I-3973*
G01*
X258154Y140609D02*
G75*
G02X262128Y136635J-3973D01*
G01*
G75*
G02X258154Y132662I-3973*
G01*
G75*
G02X254181Y136635J3973*
G01*
G75*
G02X258154Y140609I3973*
G01*
Y150069D02*
G75*
G02Y142122J-3973D01*
G01*
G75*
G02X254181Y146095J3973*
G01*
G75*
G02X258154Y150069I3973*
G01*
X254181Y169745D02*
G75*
G02X262128I3973D01*
G01*
G75*
G02X254181I-3973*
G01*
X267614Y140609D02*
G75*
G02X271587Y136635J-3973D01*
G01*
G75*
G02X267614Y132662I-3973*
G01*
G75*
G02X263641Y136635J3973*
G01*
G75*
G02X267614Y140609I3973*
G01*
Y150069D02*
G75*
G02X271587Y146095J-3973D01*
G01*
G75*
G02X267614Y142122I-3973*
G01*
G75*
G02X263641Y146095J3973*
G01*
G75*
G02X267614Y150069I3973*
G01*
X263641Y169745D02*
G75*
G02X271587I3973D01*
G01*
G75*
G02X263641I-3973*
G01*
X277074Y140609D02*
G75*
G02X281048Y136635J-3973D01*
G01*
G75*
G02X277074Y132662I-3973*
G01*
G75*
G02X273101Y136635J3973*
G01*
G75*
G02X277074Y140609I3973*
G01*
Y150069D02*
G75*
G02X281048Y146095J-3973D01*
G01*
G75*
G02X277074Y142122I-3973*
G01*
G75*
G02X273101Y146095J3973*
G01*
G75*
G02X277074Y150069I3973*
G01*
X273101Y169745D02*
G75*
G02X281048I3973D01*
G01*
G75*
G02X273101I-3973*
G01*
X286534Y140609D02*
G75*
G02X290507Y136635J-3973D01*
G01*
G75*
G02X286534Y132662I-3973*
G01*
G75*
G02X282561Y136635J3973*
G01*
G75*
G02X286534Y140609I3973*
G01*
Y150069D02*
G75*
G02Y142122J-3973D01*
G01*
G75*
G02X282561Y146095J3973*
G01*
G75*
G02X286534Y150069I3973*
G01*
X295994Y140609D02*
G75*
G02X299967Y136635J-3973D01*
G01*
G75*
G02X295994Y132662I-3973*
G01*
G75*
G02X292021Y136635J3973*
G01*
G75*
G02X295994Y140609I3973*
G01*
Y150069D02*
G75*
G02Y142122J-3973D01*
G01*
G75*
G02X292021Y146095J3973*
G01*
G75*
G02X295994Y150069I3973*
G01*
X233747Y136635D02*
G36*
G75*
G02X231619Y133117I-3973D01*
G01*
Y131496*
X232904Y130212*
X255789*
G75*
G02X257094Y129671I0J-1844*
G01*
X259459Y127306*
G75*
G02X259999Y126002I-1304J-1304*
G01*
Y114331*
G75*
G02X260519Y113850I-1859J-2533*
G01*
G75*
G02X266006Y111812I2365J-2038*
G01*
G75*
G02X264922Y109447I-3123J1*
G01*
G75*
G02X266006Y107082I-2039J-2366*
G01*
G75*
G02X260519Y105044I-3122J0*
G01*
G75*
G02X255789I-2365J2037*
G01*
G75*
G02X251059I-2365J2037*
G01*
G75*
G02X246329I-2365J2037*
G01*
G75*
G02X240843Y107082I-2365J2038*
G01*
G75*
G02X241927Y109447I3123J-1*
G01*
G75*
G02X240843Y111812I2039J2366*
G01*
G75*
G02X246329Y113850I3122J0*
G01*
G75*
G02X251059I2365J-2037*
G01*
G75*
G02X255789I2365J-2037*
G01*
G75*
G02X256309Y114331I2379J-2052*
G01*
Y125238*
X255025Y126522*
X232140*
G75*
G02X230835Y127063I0J1844*
G01*
X228470Y129428*
G75*
G02X227930Y130732I1304J1304*
G01*
Y133117*
G75*
G02X225802Y136635I1845J3519*
G01*
X224287*
G75*
G02X220314Y132662I-3973*
G01*
G75*
G02X216341Y136635J3973*
G01*
X214828*
G75*
G02X210854Y132662I-3973*
G01*
G75*
G02X206881Y136635J3973*
G01*
X194205*
Y97528*
X312569*
Y136635*
X299967*
G75*
G02X295994Y132662I-3973*
G01*
G75*
G02X292021Y136635J3973*
G01*
X290507*
G75*
G02X286534Y132662I-3973*
G01*
G75*
G02X282561Y136635J3973*
G01*
X281048*
G75*
G02X277074Y132662I-3973*
G01*
G75*
G02X273101Y136635J3973*
G01*
X271587*
G75*
G02X267614Y132662I-3973*
G01*
G75*
G02X263641Y136635J3973*
G01*
X262128*
G75*
G02X258154Y132662I-3973*
G01*
G75*
G02X254181Y136635J3973*
G01*
X252667*
G75*
G02X248694Y132662I-3973*
G01*
G75*
G02X244721Y136635J3973*
G01*
X243207*
G75*
G02X239234Y132662I-3973*
G01*
G75*
G02X235261Y136635J3973*
G01*
X233747*
G37*
G36*
X235261*
G75*
G02X239234Y140609I3973*
G01*
G75*
G02X243207Y136635J-3973*
G01*
X244721*
G75*
G02X248694Y140609I3973*
G01*
G75*
G02X252667Y136635J-3973*
G01*
X254181*
G75*
G02X258154Y140609I3973*
G01*
G75*
G02X262128Y136635J-3973*
G01*
X263641*
G75*
G02X267614Y140609I3973*
G01*
G75*
G02X271587Y136635J-3973*
G01*
X273101*
G75*
G02X277074Y140609I3973*
G01*
G75*
G02X281048Y136635J-3973*
G01*
X282561*
G75*
G02X286534Y140609I3973*
G01*
G75*
G02X290507Y136635J-3973*
G01*
X292021*
G75*
G02X295994Y140609I3973*
G01*
G75*
G02X299967Y136635J-3973*
G01*
X312569*
Y146095*
X299967*
G75*
G02X295994Y142122I-3973*
G01*
G75*
G02X292021Y146095J3973*
G01*
X290507*
G75*
G02X286534Y142122I-3973*
G01*
G75*
G02X282561Y146095J3973*
G01*
X281048*
G75*
G02X277074Y142122I-3973*
G01*
G75*
G02X273101Y146095J3973*
G01*
X271587*
G75*
G02X267614Y142122I-3973*
G01*
G75*
G02X263641Y146095J3973*
G01*
X262128*
G75*
G02X258154Y142122I-3973*
G01*
G75*
G02X254181Y146095J3973*
G01*
X252667*
G75*
G02X248694Y142122I-3973*
G01*
G75*
G02X244721Y146095J3973*
G01*
X243207*
G75*
G02X239234Y142122I-3973*
G01*
G75*
G02X235261Y146095J3973*
G01*
X233748*
G75*
G02X229774Y142122I-3973*
G01*
G75*
G02X225801Y146095J3973*
G01*
X224287*
G75*
G02X220314Y142122I-3973*
G01*
G75*
G02X216341Y146095J3973*
G01*
X214828*
G75*
G02X210854Y142122I-3973*
G01*
G75*
G02X206881Y146095J3973*
G01*
X194205*
Y136635*
X206881*
G75*
G02X210854Y140609I3973*
G01*
G75*
G02X214828Y136635J-3973*
G01*
X216341*
G75*
G02X220314Y140609I3973*
G01*
G75*
G02X224287Y136635J-3973*
G01*
X225802*
G75*
G02X229774Y140609I3973*
G01*
G75*
G02X233747Y136635J-3973*
G01*
G37*
X194205Y169745D02*
G36*
Y146095D01*
X206881*
G75*
G02X210854Y150069I3973*
G01*
G75*
G02X214828Y146095J-3973*
G01*
X216341*
G75*
G02X220314Y150069I3973*
G01*
G75*
G02X224287Y146095J-3973*
G01*
X225801*
G75*
G02X229774Y150069I3973*
G01*
G75*
G02X233748Y146095J-3973*
G01*
X235261*
G75*
G02X239234Y150069I3973*
G01*
G75*
G02X243207Y146095J-3973*
G01*
X244721*
G75*
G02X248694Y150069I3973*
G01*
G75*
G02X252667Y146095J-3973*
G01*
X254181*
G75*
G02X258154Y150069I3973*
G01*
G75*
G02X262128Y146095J-3973*
G01*
X263641*
G75*
G02X267614Y150069I3973*
G01*
G75*
G02X271587Y146095J-3973*
G01*
X273101*
G75*
G02X277074Y150069I3973*
G01*
G75*
G02X281048Y146095J-3973*
G01*
X282561*
G75*
G02X286534Y150069I3973*
G01*
G75*
G02X290507Y146095J-3973*
G01*
X292021*
G75*
G02X295994Y150069I3973*
G01*
G75*
G02X299967Y146095J-3973*
G01*
X312569*
Y169745*
X281048*
G75*
G02X273101I-3973*
G01*
X271587*
G75*
G02X263641I-3973*
G01*
X262128*
G75*
G02X254181I-3973*
G01*
X252667*
G75*
G02X244721I-3973*
G01*
X243207*
G75*
G02X235261I-3973*
G01*
X233748*
G75*
G02X225801I-3973*
G01*
X194205*
G37*
Y186097D02*
G36*
Y169745D01*
X225801*
G75*
G02X233748I3973*
G01*
X235261*
G75*
G02X243207I3973*
G01*
X244721*
G75*
G02X252667I3973*
G01*
X254181*
G75*
G02X262128I3973*
G01*
X263641*
G75*
G02X271587I3973*
G01*
X273101*
G75*
G02X281048I3973*
G01*
X312569*
Y186097*
X194205*
G37*
X193826Y279585D02*
Y190259D01*
X312948*
Y279585*
X193826*
X210854Y233719D02*
G75*
G02X214828Y229746J-3973D01*
G01*
G75*
G02X210854Y225772I-3973*
G01*
G75*
G02X206881Y229746J3973*
G01*
G75*
G02X210854Y233719I3973*
G01*
Y243179D02*
G75*
G02X214828Y239206J-3973D01*
G01*
G75*
G02X210854Y235232I-3973*
G01*
G75*
G02X206881Y239206J3973*
G01*
G75*
G02X210854Y243179I3973*
G01*
X220314Y233719D02*
G75*
G02Y225772J-3973D01*
G01*
G75*
G02X216341Y229746J3973*
G01*
G75*
G02X220314Y233719I3973*
G01*
Y243179D02*
G75*
G02X224287Y239206J-3973D01*
G01*
G75*
G02X220314Y235232I-3973*
G01*
G75*
G02X216341Y239206J3973*
G01*
G75*
G02X220314Y243179I3973*
G01*
X260519Y206960D02*
G75*
G02X266006Y204922I2365J-2037D01*
G01*
G75*
G02X264922Y202557I-3122*
G01*
G75*
G02X266006Y200193I-2038J-2365*
G01*
G75*
G02X260519Y198155I-3122*
G01*
G75*
G02X255789I-2365J2038*
G01*
G75*
G02X251059I-2365J2038*
G01*
G75*
G02X246329I-2365J2038*
G01*
G75*
G02X240843Y200193I-2365J2038*
G01*
G75*
G02X241927Y202557I3122*
G01*
G75*
G02X240843Y204922I2037J2365*
G01*
G75*
G02X246329Y206960I3122*
G01*
G75*
G02X251059I2365J-2037*
G01*
G75*
G02X255789I2365J-2037*
G01*
G75*
G02X256309Y207441I2365J-2037*
G01*
Y218348*
X255025Y219633*
X232140*
G75*
G02X230835Y220173I0J1845*
G01*
X228470Y222538*
G75*
G02X227930Y223843I1304J1305*
G01*
Y226227*
G75*
G02X229774Y233719I1845J3519*
G01*
G75*
G02X231619Y226227J-3973*
G01*
Y224607*
X232904Y223322*
X255789*
G75*
G02X257094Y222781I0J-1844*
G01*
X259459Y220417*
G75*
G02X259999Y219112I-1304J-1305*
G01*
Y207441*
G75*
G02X260519Y206960I-1845J-2519*
G01*
X229774Y243179D02*
G75*
G02X233748Y239206J-3973D01*
G01*
G75*
G02X229774Y235232I-3973*
G01*
G75*
G02X225801Y239206J3973*
G01*
G75*
G02X229774Y243179I3973*
G01*
X225801Y262856D02*
G75*
G02X233748I3973D01*
G01*
G75*
G02X225801I-3973*
G01*
X239234Y233719D02*
G75*
G02X243207Y229746J-3973D01*
G01*
G75*
G02X239234Y225772I-3973*
G01*
G75*
G02X235261Y229746J3973*
G01*
G75*
G02X239234Y233719I3973*
G01*
Y243179D02*
G75*
G02X243207Y239206J-3973D01*
G01*
G75*
G02X239234Y235232I-3973*
G01*
G75*
G02X235261Y239206J3973*
G01*
G75*
G02X239234Y243179I3973*
G01*
X235261Y262856D02*
G75*
G02X243207I3973D01*
G01*
G75*
G02X235261I-3973*
G01*
X248694Y233719D02*
G75*
G02X252667Y229746J-3973D01*
G01*
G75*
G02X248694Y225772I-3973*
G01*
G75*
G02X244721Y229746J3973*
G01*
G75*
G02X248694Y233719I3973*
G01*
Y243179D02*
G75*
G02X252667Y239206J-3973D01*
G01*
G75*
G02X248694Y235232I-3973*
G01*
G75*
G02X244721Y239206J3973*
G01*
G75*
G02X248694Y243179I3973*
G01*
X244721Y262856D02*
G75*
G02X252667I3973D01*
G01*
G75*
G02X244721I-3973*
G01*
X258154Y233719D02*
G75*
G02Y225772J-3973D01*
G01*
G75*
G02X254181Y229746J3973*
G01*
G75*
G02X258154Y233719I3973*
G01*
Y243179D02*
G75*
G02X262128Y239206J-3973D01*
G01*
G75*
G02X258154Y235232I-3973*
G01*
G75*
G02X254181Y239206J3973*
G01*
G75*
G02X258154Y243179I3973*
G01*
X254181Y262856D02*
G75*
G02X262128I3973D01*
G01*
G75*
G02X254181I-3973*
G01*
X267614Y233719D02*
G75*
G02Y225772J-3973D01*
G01*
G75*
G02X263641Y229746J3973*
G01*
G75*
G02X267614Y233719I3973*
G01*
Y243179D02*
G75*
G02X271587Y239206J-3973D01*
G01*
G75*
G02X267614Y235232I-3973*
G01*
G75*
G02X263641Y239206J3973*
G01*
G75*
G02X267614Y243179I3973*
G01*
X263641Y262856D02*
G75*
G02X271587I3973D01*
G01*
G75*
G02X263641I-3973*
G01*
X277074Y233719D02*
G75*
G02X281048Y229746J-3973D01*
G01*
G75*
G02X277074Y225772I-3973*
G01*
G75*
G02X273101Y229746J3973*
G01*
G75*
G02X277074Y233719I3973*
G01*
Y243179D02*
G75*
G02X281048Y239206J-3973D01*
G01*
G75*
G02X277074Y235232I-3973*
G01*
G75*
G02X273101Y239206J3973*
G01*
G75*
G02X277074Y243179I3973*
G01*
X273101Y262856D02*
G75*
G02X281048I3973D01*
G01*
G75*
G02X273101I-3973*
G01*
X286534Y233719D02*
G75*
G02X290507Y229746J-3973D01*
G01*
G75*
G02X286534Y225772I-3973*
G01*
G75*
G02X282561Y229746J3973*
G01*
G75*
G02X286534Y233719I3973*
G01*
Y243179D02*
G75*
G02X290507Y239206J-3973D01*
G01*
G75*
G02X286534Y235232I-3973*
G01*
G75*
G02X282561Y239206J3973*
G01*
G75*
G02X286534Y243179I3973*
G01*
X295994Y233719D02*
G75*
G02X299967Y229746J-3973D01*
G01*
G75*
G02X295994Y225772I-3973*
G01*
G75*
G02X292021Y229746J3973*
G01*
G75*
G02X295994Y233719I3973*
G01*
Y243179D02*
G75*
G02X299967Y239206J-3973D01*
G01*
G75*
G02X295994Y235232I-3973*
G01*
G75*
G02X292021Y239206J3973*
G01*
G75*
G02X295994Y243179I3973*
G01*
X233747Y229746D02*
G36*
G75*
G02X231619Y226227I-3973D01*
G01*
Y224607*
X232904Y223322*
X255789*
G75*
G02X257094Y222781I0J-1844*
G01*
X259459Y220417*
G75*
G02X259999Y219112I-1304J-1304*
G01*
Y207441*
G75*
G02X260519Y206960I-1859J-2533*
G01*
G75*
G02X266006Y204922I2365J-2038*
G01*
G75*
G02X264922Y202557I-3123J1*
G01*
G75*
G02X266006Y200193I-2039J-2366*
G01*
G75*
G02X260519Y198155I-3122J0*
G01*
G75*
G02X255789I-2365J2037*
G01*
G75*
G02X251059I-2365J2037*
G01*
G75*
G02X246329I-2365J2037*
G01*
G75*
G02X240843Y200193I-2365J2038*
G01*
G75*
G02X241927Y202557I3123J-1*
G01*
G75*
G02X240843Y204922I2039J2366*
G01*
G75*
G02X246329Y206960I3122J0*
G01*
G75*
G02X251059I2365J-2037*
G01*
G75*
G02X255789I2365J-2037*
G01*
G75*
G02X256309Y207441I2379J-2052*
G01*
Y218348*
X255025Y219633*
X232140*
G75*
G02X230835Y220173I0J1844*
G01*
X228470Y222538*
G75*
G02X227930Y223843I1304J1304*
G01*
Y226227*
G75*
G02X225802Y229746I1845J3519*
G01*
X224287*
G75*
G02X220314Y225772I-3973*
G01*
G75*
G02X216341Y229746J3973*
G01*
X214828*
G75*
G02X210854Y225772I-3973*
G01*
G75*
G02X206881Y229746J3973*
G01*
X194205*
Y190638*
X312569*
Y229746*
X299967*
G75*
G02X295994Y225772I-3973*
G01*
G75*
G02X292021Y229746J3973*
G01*
X290507*
G75*
G02X286534Y225772I-3973*
G01*
G75*
G02X282561Y229746J3973*
G01*
X281048*
G75*
G02X277074Y225772I-3973*
G01*
G75*
G02X273101Y229746J3973*
G01*
X271587*
G75*
G02X267614Y225772I-3973*
G01*
G75*
G02X263641Y229746J3973*
G01*
X262128*
G75*
G02X258154Y225772I-3973*
G01*
G75*
G02X254181Y229746J3973*
G01*
X252667*
G75*
G02X248694Y225772I-3973*
G01*
G75*
G02X244721Y229746J3973*
G01*
X243207*
G75*
G02X239234Y225772I-3973*
G01*
G75*
G02X235261Y229746J3973*
G01*
X233747*
G37*
G36*
X235261*
G75*
G02X239234Y233719I3973*
G01*
G75*
G02X243207Y229746J-3973*
G01*
X244721*
G75*
G02X248694Y233719I3973*
G01*
G75*
G02X252667Y229746J-3973*
G01*
X254181*
G75*
G02X258154Y233719I3973*
G01*
G75*
G02X262128Y229746J-3973*
G01*
X263641*
G75*
G02X267614Y233719I3973*
G01*
G75*
G02X271587Y229746J-3973*
G01*
X273101*
G75*
G02X277074Y233719I3973*
G01*
G75*
G02X281048Y229746J-3973*
G01*
X282561*
G75*
G02X286534Y233719I3973*
G01*
G75*
G02X290507Y229746J-3973*
G01*
X292021*
G75*
G02X295994Y233719I3973*
G01*
G75*
G02X299967Y229746J-3973*
G01*
X312569*
Y239206*
X299967*
G75*
G02X295994Y235232I-3973*
G01*
G75*
G02X292021Y239206J3973*
G01*
X290507*
G75*
G02X286534Y235232I-3973*
G01*
G75*
G02X282561Y239206J3973*
G01*
X281048*
G75*
G02X277074Y235232I-3973*
G01*
G75*
G02X273101Y239206J3973*
G01*
X271587*
G75*
G02X267614Y235232I-3973*
G01*
G75*
G02X263641Y239206J3973*
G01*
X262128*
G75*
G02X258154Y235232I-3973*
G01*
G75*
G02X254181Y239206J3973*
G01*
X252667*
G75*
G02X248694Y235232I-3973*
G01*
G75*
G02X244721Y239206J3973*
G01*
X243207*
G75*
G02X239234Y235232I-3973*
G01*
G75*
G02X235261Y239206J3973*
G01*
X233748*
G75*
G02X229774Y235232I-3973*
G01*
G75*
G02X225801Y239206J3973*
G01*
X224287*
G75*
G02X220314Y235232I-3973*
G01*
G75*
G02X216341Y239206J3973*
G01*
X214828*
G75*
G02X210854Y235232I-3973*
G01*
G75*
G02X206881Y239206J3973*
G01*
X194205*
Y229746*
X206881*
G75*
G02X210854Y233719I3973*
G01*
G75*
G02X214828Y229746J-3973*
G01*
X216341*
G75*
G02X220314Y233719I3973*
G01*
G75*
G02X224287Y229746J-3973*
G01*
X225802*
G75*
G02X229774Y233719I3973*
G01*
G75*
G02X233747Y229746J-3973*
G01*
G37*
X194205Y262856D02*
G36*
Y239206D01*
X206881*
G75*
G02X210854Y243179I3973*
G01*
G75*
G02X214828Y239206J-3973*
G01*
X216341*
G75*
G02X220314Y243179I3973*
G01*
G75*
G02X224287Y239206J-3973*
G01*
X225801*
G75*
G02X229774Y243179I3973*
G01*
G75*
G02X233748Y239206J-3973*
G01*
X235261*
G75*
G02X239234Y243179I3973*
G01*
G75*
G02X243207Y239206J-3973*
G01*
X244721*
G75*
G02X248694Y243179I3973*
G01*
G75*
G02X252667Y239206J-3973*
G01*
X254181*
G75*
G02X258154Y243179I3973*
G01*
G75*
G02X262128Y239206J-3973*
G01*
X263641*
G75*
G02X267614Y243179I3973*
G01*
G75*
G02X271587Y239206J-3973*
G01*
X273101*
G75*
G02X277074Y243179I3973*
G01*
G75*
G02X281048Y239206J-3973*
G01*
X282561*
G75*
G02X286534Y243179I3973*
G01*
G75*
G02X290507Y239206J-3973*
G01*
X292021*
G75*
G02X295994Y243179I3973*
G01*
G75*
G02X299967Y239206J-3973*
G01*
X312569*
Y262856*
X281048*
G75*
G02X273101I-3973*
G01*
X271587*
G75*
G02X263641I-3973*
G01*
X262128*
G75*
G02X254181I-3973*
G01*
X252667*
G75*
G02X244721I-3973*
G01*
X243207*
G75*
G02X235261I-3973*
G01*
X233748*
G75*
G02X225801I-3973*
G01*
X194205*
G37*
Y279207D02*
G36*
Y262856D01*
X225801*
G75*
G02X233748I3973*
G01*
X235261*
G75*
G02X243207I3973*
G01*
X244721*
G75*
G02X252667I3973*
G01*
X254181*
G75*
G02X262128I3973*
G01*
X263641*
G75*
G02X271587I3973*
G01*
X273101*
G75*
G02X281048I3973*
G01*
X312569*
Y279207*
X194205*
G37*
X193826Y372696D02*
Y283370D01*
X312948*
Y372696*
X193826*
X210854Y326829D02*
G75*
G02X214828Y322856J-3973D01*
G01*
G75*
G02X210854Y318883I-3973*
G01*
G75*
G02X206881Y322856J3973*
G01*
G75*
G02X210854Y326829I3973*
G01*
Y336289D02*
G75*
G02X214828Y332316J-3973D01*
G01*
G75*
G02X210854Y328343I-3973*
G01*
G75*
G02X206881Y332316J3973*
G01*
G75*
G02X210854Y336289I3973*
G01*
X220314Y326829D02*
G75*
G02X224287Y322856J-3973D01*
G01*
G75*
G02X220314Y318883I-3973*
G01*
G75*
G02X216341Y322856J3973*
G01*
G75*
G02X220314Y326829I3973*
G01*
Y336289D02*
G75*
G02X224287Y332316J-3973D01*
G01*
G75*
G02X220314Y328343I-3973*
G01*
G75*
G02X216341Y332316J3973*
G01*
G75*
G02X220314Y336289I3973*
G01*
X260519Y300070D02*
G75*
G02X266006Y298033I2365J-2037D01*
G01*
G75*
G02X264922Y295668I-3122*
G01*
G75*
G02X266006Y293303I-2038J-2365*
G01*
G75*
G02X260519Y291265I-3122*
G01*
G75*
G02X255789I-2365J2038*
G01*
G75*
G02X251059I-2365J2038*
G01*
G75*
G02X246329I-2365J2038*
G01*
G75*
G02X240843Y293303I-2365J2038*
G01*
G75*
G02X241927Y295668I3122*
G01*
G75*
G02X240843Y298033I2037J2365*
G01*
G75*
G02X246329Y300070I3122*
G01*
G75*
G02X251059I2365J-2037*
G01*
G75*
G02X255789I2365J-2037*
G01*
G75*
G02X256309Y300551I2365J-2037*
G01*
Y311458*
X255025Y312743*
X232140*
G75*
G02X230835Y313283I0J1845*
G01*
X228470Y315648*
G75*
G02X227930Y316953I1304J1305*
G01*
Y319337*
G75*
G02X229774Y326829I1845J3519*
G01*
G75*
G02X231619Y319337J-3973*
G01*
Y317717*
X232904Y316432*
X255789*
G75*
G02X257094Y315892I0J-1844*
G01*
X259459Y313527*
G75*
G02X259999Y312222I-1304J-1305*
G01*
Y300551*
G75*
G02X260519Y300070I-1845J-2519*
G01*
X229774Y336289D02*
G75*
G02X233748Y332316J-3973D01*
G01*
G75*
G02X229774Y328343I-3973*
G01*
G75*
G02X225801Y332316J3973*
G01*
G75*
G02X229774Y336289I3973*
G01*
X225801Y355966D02*
G75*
G02X233748I3973D01*
G01*
G75*
G02X225801I-3973*
G01*
X239234Y326829D02*
G75*
G02X243207Y322856J-3973D01*
G01*
G75*
G02X239234Y318883I-3973*
G01*
G75*
G02X235261Y322856J3973*
G01*
G75*
G02X239234Y326829I3973*
G01*
Y336289D02*
G75*
G02X243207Y332316J-3973D01*
G01*
G75*
G02X239234Y328343I-3973*
G01*
G75*
G02X235261Y332316J3973*
G01*
G75*
G02X239234Y336289I3973*
G01*
X235261Y355966D02*
G75*
G02X243207I3973D01*
G01*
G75*
G02X235261I-3973*
G01*
X248694Y326829D02*
G75*
G02X252667Y322856J-3973D01*
G01*
G75*
G02X248694Y318883I-3973*
G01*
G75*
G02X244721Y322856J3973*
G01*
G75*
G02X248694Y326829I3973*
G01*
Y336289D02*
G75*
G02X252667Y332316J-3973D01*
G01*
G75*
G02X248694Y328343I-3973*
G01*
G75*
G02X244721Y332316J3973*
G01*
G75*
G02X248694Y336289I3973*
G01*
X244721Y355966D02*
G75*
G02X252667I3973D01*
G01*
G75*
G02X244721I-3973*
G01*
X258154Y326829D02*
G75*
G02X262128Y322856J-3973D01*
G01*
G75*
G02X258154Y318883I-3973*
G01*
G75*
G02X254181Y322856J3973*
G01*
G75*
G02X258154Y326829I3973*
G01*
Y336289D02*
G75*
G02X262128Y332316J-3973D01*
G01*
G75*
G02X258154Y328343I-3973*
G01*
G75*
G02X254181Y332316J3973*
G01*
G75*
G02X258154Y336289I3973*
G01*
X254181Y355966D02*
G75*
G02X262128I3973D01*
G01*
G75*
G02X254181I-3973*
G01*
X267614Y326829D02*
G75*
G02X271587Y322856J-3973D01*
G01*
G75*
G02X267614Y318883I-3973*
G01*
G75*
G02X263641Y322856J3973*
G01*
G75*
G02X267614Y326829I3973*
G01*
Y336289D02*
G75*
G02X271587Y332316J-3973D01*
G01*
G75*
G02X267614Y328343I-3973*
G01*
G75*
G02X263641Y332316J3973*
G01*
G75*
G02X267614Y336289I3973*
G01*
X263641Y355966D02*
G75*
G02X271587I3973D01*
G01*
G75*
G02X263641I-3973*
G01*
X277074Y326829D02*
G75*
G02X281048Y322856J-3973D01*
G01*
G75*
G02X277074Y318883I-3973*
G01*
G75*
G02X273101Y322856J3973*
G01*
G75*
G02X277074Y326829I3973*
G01*
Y336289D02*
G75*
G02X281048Y332316J-3973D01*
G01*
G75*
G02X277074Y328343I-3973*
G01*
G75*
G02X273101Y332316J3973*
G01*
G75*
G02X277074Y336289I3973*
G01*
X273101Y355966D02*
G75*
G02X281048I3973D01*
G01*
G75*
G02X273101I-3973*
G01*
X286534Y326829D02*
G75*
G02X290507Y322856J-3973D01*
G01*
G75*
G02X286534Y318883I-3973*
G01*
G75*
G02X282561Y322856J3973*
G01*
G75*
G02X286534Y326829I3973*
G01*
Y336289D02*
G75*
G02X290507Y332316J-3973D01*
G01*
G75*
G02X286534Y328343I-3973*
G01*
G75*
G02X282561Y332316J3973*
G01*
G75*
G02X286534Y336289I3973*
G01*
X295994Y326829D02*
G75*
G02X299967Y322856J-3973D01*
G01*
G75*
G02X295994Y318883I-3973*
G01*
G75*
G02X292021Y322856J3973*
G01*
G75*
G02X295994Y326829I3973*
G01*
Y336289D02*
G75*
G02X299967Y332316J-3973D01*
G01*
G75*
G02X295994Y328343I-3973*
G01*
G75*
G02X292021Y332316J3973*
G01*
G75*
G02X295994Y336289I3973*
G01*
X233747Y322856D02*
G36*
G75*
G02X231619Y319337I-3973D01*
G01*
Y317717*
X232904Y316432*
X255789*
G75*
G02X257094Y315892I0J-1844*
G01*
X259459Y313527*
G75*
G02X259999Y312222I-1304J-1304*
G01*
Y300551*
G75*
G02X260519Y300070I-1859J-2533*
G01*
G75*
G02X266006Y298033I2365J-2038*
G01*
G75*
G02X264922Y295668I-3123J1*
G01*
G75*
G02X266006Y293303I-2039J-2366*
G01*
G75*
G02X260519Y291265I-3122J0*
G01*
G75*
G02X255789I-2365J2037*
G01*
G75*
G02X251059I-2365J2037*
G01*
G75*
G02X246329I-2365J2037*
G01*
G75*
G02X240843Y293303I-2365J2038*
G01*
G75*
G02X241927Y295668I3123J-1*
G01*
G75*
G02X240843Y298033I2039J2366*
G01*
G75*
G02X246329Y300070I3122J0*
G01*
G75*
G02X251059I2365J-2037*
G01*
G75*
G02X255789I2365J-2037*
G01*
G75*
G02X256309Y300551I2379J-2052*
G01*
Y311458*
X255025Y312743*
X232140*
G75*
G02X230835Y313283I0J1844*
G01*
X228470Y315648*
G75*
G02X227930Y316953I1304J1304*
G01*
Y319337*
G75*
G02X225802Y322856I1845J3519*
G01*
X224287*
G75*
G02X220314Y318883I-3973*
G01*
G75*
G02X216341Y322856J3973*
G01*
X214828*
G75*
G02X210854Y318883I-3973*
G01*
G75*
G02X206881Y322856J3973*
G01*
X194205*
Y283748*
X312569*
Y322856*
X299967*
G75*
G02X295994Y318883I-3973*
G01*
G75*
G02X292021Y322856J3973*
G01*
X290507*
G75*
G02X286534Y318883I-3973*
G01*
G75*
G02X282561Y322856J3973*
G01*
X281048*
G75*
G02X277074Y318883I-3973*
G01*
G75*
G02X273101Y322856J3973*
G01*
X271587*
G75*
G02X267614Y318883I-3973*
G01*
G75*
G02X263641Y322856J3973*
G01*
X262128*
G75*
G02X258154Y318883I-3973*
G01*
G75*
G02X254181Y322856J3973*
G01*
X252667*
G75*
G02X248694Y318883I-3973*
G01*
G75*
G02X244721Y322856J3973*
G01*
X243207*
G75*
G02X239234Y318883I-3973*
G01*
G75*
G02X235261Y322856J3973*
G01*
X233747*
G37*
G36*
X235261*
G75*
G02X239234Y326829I3973*
G01*
G75*
G02X243207Y322856J-3973*
G01*
X244721*
G75*
G02X248694Y326829I3973*
G01*
G75*
G02X252667Y322856J-3973*
G01*
X254181*
G75*
G02X258154Y326829I3973*
G01*
G75*
G02X262128Y322856J-3973*
G01*
X263641*
G75*
G02X267614Y326829I3973*
G01*
G75*
G02X271587Y322856J-3973*
G01*
X273101*
G75*
G02X277074Y326829I3973*
G01*
G75*
G02X281048Y322856J-3973*
G01*
X282561*
G75*
G02X286534Y326829I3973*
G01*
G75*
G02X290507Y322856J-3973*
G01*
X292021*
G75*
G02X295994Y326829I3973*
G01*
G75*
G02X299967Y322856J-3973*
G01*
X312569*
Y332316*
X299967*
G75*
G02X295994Y328343I-3973*
G01*
G75*
G02X292021Y332316J3973*
G01*
X290507*
G75*
G02X286534Y328343I-3973*
G01*
G75*
G02X282561Y332316J3973*
G01*
X281048*
G75*
G02X277074Y328343I-3973*
G01*
G75*
G02X273101Y332316J3973*
G01*
X271587*
G75*
G02X267614Y328343I-3973*
G01*
G75*
G02X263641Y332316J3973*
G01*
X262128*
G75*
G02X258154Y328343I-3973*
G01*
G75*
G02X254181Y332316J3973*
G01*
X252667*
G75*
G02X248694Y328343I-3973*
G01*
G75*
G02X244721Y332316J3973*
G01*
X243207*
G75*
G02X239234Y328343I-3973*
G01*
G75*
G02X235261Y332316J3973*
G01*
X233748*
G75*
G02X229774Y328343I-3973*
G01*
G75*
G02X225801Y332316J3973*
G01*
X224287*
G75*
G02X220314Y328343I-3973*
G01*
G75*
G02X216341Y332316J3973*
G01*
X214828*
G75*
G02X210854Y328343I-3973*
G01*
G75*
G02X206881Y332316J3973*
G01*
X194205*
Y322856*
X206881*
G75*
G02X210854Y326829I3973*
G01*
G75*
G02X214828Y322856J-3973*
G01*
X216341*
G75*
G02X220314Y326829I3973*
G01*
G75*
G02X224287Y322856J-3973*
G01*
X225802*
G75*
G02X229774Y326829I3973*
G01*
G75*
G02X233747Y322856J-3973*
G01*
G37*
X194205Y355966D02*
G36*
Y332316D01*
X206881*
G75*
G02X210854Y336289I3973*
G01*
G75*
G02X214828Y332316J-3973*
G01*
X216341*
G75*
G02X220314Y336289I3973*
G01*
G75*
G02X224287Y332316J-3973*
G01*
X225801*
G75*
G02X229774Y336289I3973*
G01*
G75*
G02X233748Y332316J-3973*
G01*
X235261*
G75*
G02X239234Y336289I3973*
G01*
G75*
G02X243207Y332316J-3973*
G01*
X244721*
G75*
G02X248694Y336289I3973*
G01*
G75*
G02X252667Y332316J-3973*
G01*
X254181*
G75*
G02X258154Y336289I3973*
G01*
G75*
G02X262128Y332316J-3973*
G01*
X263641*
G75*
G02X267614Y336289I3973*
G01*
G75*
G02X271587Y332316J-3973*
G01*
X273101*
G75*
G02X277074Y336289I3973*
G01*
G75*
G02X281048Y332316J-3973*
G01*
X282561*
G75*
G02X286534Y336289I3973*
G01*
G75*
G02X290507Y332316J-3973*
G01*
X292021*
G75*
G02X295994Y336289I3973*
G01*
G75*
G02X299967Y332316J-3973*
G01*
X312569*
Y355966*
X281048*
G75*
G02X273101I-3973*
G01*
X271587*
G75*
G02X263641I-3973*
G01*
X262128*
G75*
G02X254181I-3973*
G01*
X252667*
G75*
G02X244721I-3973*
G01*
X243207*
G75*
G02X235261I-3973*
G01*
X233748*
G75*
G02X225801I-3973*
G01*
X194205*
G37*
Y372317D02*
G36*
Y355966D01*
X225801*
G75*
G02X233748I3973*
G01*
X235261*
G75*
G02X243207I3973*
G01*
X244721*
G75*
G02X252667I3973*
G01*
X254181*
G75*
G02X262128I3973*
G01*
X263641*
G75*
G02X271587I3973*
G01*
X273101*
G75*
G02X281048I3973*
G01*
X312569*
Y372317*
X194205*
G37*
X193826Y465806D02*
Y376480D01*
X312948*
Y465806*
X193826*
X210854Y419939D02*
G75*
G02X214828Y415966J-3973D01*
G01*
G75*
G02X210854Y411993I-3973*
G01*
G75*
G02X206881Y415966J3973*
G01*
G75*
G02X210854Y419939I3973*
G01*
Y429399D02*
G75*
G02X214828Y425426J-3973D01*
G01*
G75*
G02X210854Y421453I-3973*
G01*
G75*
G02X206881Y425426J3973*
G01*
G75*
G02X210854Y429399I3973*
G01*
X220314Y419939D02*
G75*
G02X224287Y415966J-3973D01*
G01*
G75*
G02X220314Y411993I-3973*
G01*
G75*
G02X216341Y415966J3973*
G01*
G75*
G02X220314Y419939I3973*
G01*
Y429399D02*
G75*
G02X224287Y425426J-3973D01*
G01*
G75*
G02X220314Y421453I-3973*
G01*
G75*
G02X216341Y425426J3973*
G01*
G75*
G02X220314Y429399I3973*
G01*
X260519Y393180D02*
G75*
G02X266006Y391143I2365J-2037D01*
G01*
G75*
G02X264922Y388778I-3122*
G01*
G75*
G02X266006Y386413I-2038J-2365*
G01*
G75*
G02X260519Y384375I-3122*
G01*
G75*
G02X255789I-2365J2038*
G01*
G75*
G02X251059I-2365J2038*
G01*
G75*
G02X246329I-2365J2038*
G01*
G75*
G02X240843Y386413I-2365J2038*
G01*
G75*
G02X241927Y388778I3122*
G01*
G75*
G02X240843Y391143I2037J2365*
G01*
G75*
G02X246329Y393180I3122*
G01*
G75*
G02X251059I2365J-2037*
G01*
G75*
G02X255789I2365J-2037*
G01*
G75*
G02X256309Y393661I2365J-2037*
G01*
Y404569*
X255025Y405853*
X232140*
G75*
G02X230835Y406394I0J1845*
G01*
X228470Y408759*
G75*
G02X227930Y410063I1304J1305*
G01*
Y412447*
G75*
G02X229774Y419939I1845J3519*
G01*
G75*
G02X231619Y412447J-3973*
G01*
Y410827*
X232904Y409543*
X255789*
G75*
G02X257094Y409002I0J-1844*
G01*
X259459Y406637*
G75*
G02X259999Y405333I-1304J-1305*
G01*
Y393661*
G75*
G02X260519Y393180I-1845J-2519*
G01*
X229774Y429399D02*
G75*
G02X233748Y425426J-3973D01*
G01*
G75*
G02X229774Y421453I-3973*
G01*
G75*
G02X225801Y425426J3973*
G01*
G75*
G02X229774Y429399I3973*
G01*
X225801Y449076D02*
G75*
G02X233748I3973D01*
G01*
G75*
G02X225801I-3973*
G01*
X239234Y419939D02*
G75*
G02X243207Y415966J-3973D01*
G01*
G75*
G02X239234Y411993I-3973*
G01*
G75*
G02X235261Y415966J3973*
G01*
G75*
G02X239234Y419939I3973*
G01*
Y429399D02*
G75*
G02X243207Y425426J-3973D01*
G01*
G75*
G02X239234Y421453I-3973*
G01*
G75*
G02X235261Y425426J3973*
G01*
G75*
G02X239234Y429399I3973*
G01*
X235261Y449076D02*
G75*
G02X243207I3973D01*
G01*
G75*
G02X235261I-3973*
G01*
X248694Y419939D02*
G75*
G02X252667Y415966J-3973D01*
G01*
G75*
G02X248694Y411993I-3973*
G01*
G75*
G02X244721Y415966J3973*
G01*
G75*
G02X248694Y419939I3973*
G01*
Y429399D02*
G75*
G02X252667Y425426J-3973D01*
G01*
G75*
G02X248694Y421453I-3973*
G01*
G75*
G02X244721Y425426J3973*
G01*
G75*
G02X248694Y429399I3973*
G01*
X244721Y449076D02*
G75*
G02X252667I3973D01*
G01*
G75*
G02X244721I-3973*
G01*
X258154Y419939D02*
G75*
G02X262128Y415966J-3973D01*
G01*
G75*
G02X258154Y411993I-3973*
G01*
G75*
G02X254181Y415966J3973*
G01*
G75*
G02X258154Y419939I3973*
G01*
Y429399D02*
G75*
G02X262128Y425426J-3973D01*
G01*
G75*
G02X258154Y421453I-3973*
G01*
G75*
G02X254181Y425426J3973*
G01*
G75*
G02X258154Y429399I3973*
G01*
X254181Y449076D02*
G75*
G02X262128I3973D01*
G01*
G75*
G02X254181I-3973*
G01*
X267614Y419939D02*
G75*
G02X271587Y415966J-3973D01*
G01*
G75*
G02X267614Y411993I-3973*
G01*
G75*
G02X263641Y415966J3973*
G01*
G75*
G02X267614Y419939I3973*
G01*
Y429399D02*
G75*
G02X271587Y425426J-3973D01*
G01*
G75*
G02X267614Y421453I-3973*
G01*
G75*
G02X263641Y425426J3973*
G01*
G75*
G02X267614Y429399I3973*
G01*
X263641Y449076D02*
G75*
G02X271587I3973D01*
G01*
G75*
G02X263641I-3973*
G01*
X277074Y419939D02*
G75*
G02X281048Y415966J-3973D01*
G01*
G75*
G02X277074Y411993I-3973*
G01*
G75*
G02X273101Y415966J3973*
G01*
G75*
G02X277074Y419939I3973*
G01*
Y429399D02*
G75*
G02X281048Y425426J-3973D01*
G01*
G75*
G02X277074Y421453I-3973*
G01*
G75*
G02X273101Y425426J3973*
G01*
G75*
G02X277074Y429399I3973*
G01*
X273101Y449076D02*
G75*
G02X281048I3973D01*
G01*
G75*
G02X273101I-3973*
G01*
X286534Y419939D02*
G75*
G02X290507Y415966J-3973D01*
G01*
G75*
G02X286534Y411993I-3973*
G01*
G75*
G02X282561Y415966J3973*
G01*
G75*
G02X286534Y419939I3973*
G01*
Y429399D02*
G75*
G02X290507Y425426J-3973D01*
G01*
G75*
G02X286534Y421453I-3973*
G01*
G75*
G02X282561Y425426J3973*
G01*
G75*
G02X286534Y429399I3973*
G01*
X295994Y419939D02*
G75*
G02X299967Y415966J-3973D01*
G01*
G75*
G02X295994Y411993I-3973*
G01*
G75*
G02X292021Y415966J3973*
G01*
G75*
G02X295994Y419939I3973*
G01*
Y429399D02*
G75*
G02X299967Y425426J-3973D01*
G01*
G75*
G02X295994Y421453I-3973*
G01*
G75*
G02X292021Y425426J3973*
G01*
G75*
G02X295994Y429399I3973*
G01*
X233747Y415966D02*
G36*
G75*
G02X231619Y412447I-3973D01*
G01*
Y410827*
X232904Y409543*
X255789*
G75*
G02X257094Y409002I0J-1844*
G01*
X259459Y406637*
G75*
G02X259999Y405333I-1304J-1304*
G01*
Y393661*
G75*
G02X260519Y393180I-1859J-2533*
G01*
G75*
G02X266006Y391143I2365J-2038*
G01*
G75*
G02X264922Y388778I-3123J1*
G01*
G75*
G02X266006Y386413I-2039J-2366*
G01*
G75*
G02X260519Y384375I-3122J0*
G01*
G75*
G02X255789I-2365J2037*
G01*
G75*
G02X251059I-2365J2037*
G01*
G75*
G02X246329I-2365J2037*
G01*
G75*
G02X240843Y386413I-2365J2038*
G01*
G75*
G02X241927Y388778I3123J-1*
G01*
G75*
G02X240843Y391143I2039J2366*
G01*
G75*
G02X246329Y393180I3122J0*
G01*
G75*
G02X251059I2365J-2037*
G01*
G75*
G02X255789I2365J-2037*
G01*
G75*
G02X256309Y393661I2379J-2052*
G01*
Y404569*
X255025Y405853*
X232140*
G75*
G02X230835Y406394I0J1844*
G01*
X228470Y408759*
G75*
G02X227930Y410063I1304J1304*
G01*
Y412447*
G75*
G02X225802Y415966I1845J3519*
G01*
X224287*
G75*
G02X220314Y411993I-3973*
G01*
G75*
G02X216341Y415966J3973*
G01*
X214828*
G75*
G02X210854Y411993I-3973*
G01*
G75*
G02X206881Y415966J3973*
G01*
X194205*
Y376858*
X312569*
Y415966*
X299967*
G75*
G02X295994Y411993I-3973*
G01*
G75*
G02X292021Y415966J3973*
G01*
X290507*
G75*
G02X286534Y411993I-3973*
G01*
G75*
G02X282561Y415966J3973*
G01*
X281048*
G75*
G02X277074Y411993I-3973*
G01*
G75*
G02X273101Y415966J3973*
G01*
X271587*
G75*
G02X267614Y411993I-3973*
G01*
G75*
G02X263641Y415966J3973*
G01*
X262128*
G75*
G02X258154Y411993I-3973*
G01*
G75*
G02X254181Y415966J3973*
G01*
X252667*
G75*
G02X248694Y411993I-3973*
G01*
G75*
G02X244721Y415966J3973*
G01*
X243207*
G75*
G02X239234Y411993I-3973*
G01*
G75*
G02X235261Y415966J3973*
G01*
X233747*
G37*
G36*
X235261*
G75*
G02X239234Y419939I3973*
G01*
G75*
G02X243207Y415966J-3973*
G01*
X244721*
G75*
G02X248694Y419939I3973*
G01*
G75*
G02X252667Y415966J-3973*
G01*
X254181*
G75*
G02X258154Y419939I3973*
G01*
G75*
G02X262128Y415966J-3973*
G01*
X263641*
G75*
G02X267614Y419939I3973*
G01*
G75*
G02X271587Y415966J-3973*
G01*
X273101*
G75*
G02X277074Y419939I3973*
G01*
G75*
G02X281048Y415966J-3973*
G01*
X282561*
G75*
G02X286534Y419939I3973*
G01*
G75*
G02X290507Y415966J-3973*
G01*
X292021*
G75*
G02X295994Y419939I3973*
G01*
G75*
G02X299967Y415966J-3973*
G01*
X312569*
Y425426*
X299967*
G75*
G02X295994Y421453I-3973*
G01*
G75*
G02X292021Y425426J3973*
G01*
X290507*
G75*
G02X286534Y421453I-3973*
G01*
G75*
G02X282561Y425426J3973*
G01*
X281048*
G75*
G02X277074Y421453I-3973*
G01*
G75*
G02X273101Y425426J3973*
G01*
X271587*
G75*
G02X267614Y421453I-3973*
G01*
G75*
G02X263641Y425426J3973*
G01*
X262128*
G75*
G02X258154Y421453I-3973*
G01*
G75*
G02X254181Y425426J3973*
G01*
X252667*
G75*
G02X248694Y421453I-3973*
G01*
G75*
G02X244721Y425426J3973*
G01*
X243207*
G75*
G02X239234Y421453I-3973*
G01*
G75*
G02X235261Y425426J3973*
G01*
X233748*
G75*
G02X229774Y421453I-3973*
G01*
G75*
G02X225801Y425426J3973*
G01*
X224287*
G75*
G02X220314Y421453I-3973*
G01*
G75*
G02X216341Y425426J3973*
G01*
X214828*
G75*
G02X210854Y421453I-3973*
G01*
G75*
G02X206881Y425426J3973*
G01*
X194205*
Y415966*
X206881*
G75*
G02X210854Y419939I3973*
G01*
G75*
G02X214828Y415966J-3973*
G01*
X216341*
G75*
G02X220314Y419939I3973*
G01*
G75*
G02X224287Y415966J-3973*
G01*
X225802*
G75*
G02X229774Y419939I3973*
G01*
G75*
G02X233747Y415966J-3973*
G01*
G37*
X194205Y449076D02*
G36*
Y425426D01*
X206881*
G75*
G02X210854Y429399I3973*
G01*
G75*
G02X214828Y425426J-3973*
G01*
X216341*
G75*
G02X220314Y429399I3973*
G01*
G75*
G02X224287Y425426J-3973*
G01*
X225801*
G75*
G02X229774Y429399I3973*
G01*
G75*
G02X233748Y425426J-3973*
G01*
X235261*
G75*
G02X239234Y429399I3973*
G01*
G75*
G02X243207Y425426J-3973*
G01*
X244721*
G75*
G02X248694Y429399I3973*
G01*
G75*
G02X252667Y425426J-3973*
G01*
X254181*
G75*
G02X258154Y429399I3973*
G01*
G75*
G02X262128Y425426J-3973*
G01*
X263641*
G75*
G02X267614Y429399I3973*
G01*
G75*
G02X271587Y425426J-3973*
G01*
X273101*
G75*
G02X277074Y429399I3973*
G01*
G75*
G02X281048Y425426J-3973*
G01*
X282561*
G75*
G02X286534Y429399I3973*
G01*
G75*
G02X290507Y425426J-3973*
G01*
X292021*
G75*
G02X295994Y429399I3973*
G01*
G75*
G02X299967Y425426J-3973*
G01*
X312569*
Y449076*
X281048*
G75*
G02X273101I-3973*
G01*
X271587*
G75*
G02X263641I-3973*
G01*
X262128*
G75*
G02X254181I-3973*
G01*
X252667*
G75*
G02X244721I-3973*
G01*
X243207*
G75*
G02X235261I-3973*
G01*
X233748*
G75*
G02X225801I-3973*
G01*
X194205*
G37*
Y465428D02*
G36*
Y449076D01*
X225801*
G75*
G02X233748I3973*
G01*
X235261*
G75*
G02X243207I3973*
G01*
X244721*
G75*
G02X252667I3973*
G01*
X254181*
G75*
G02X262128I3973*
G01*
X263641*
G75*
G02X271587I3973*
G01*
X273101*
G75*
G02X281048I3973*
G01*
X312569*
Y465428*
X194205*
G37*
X316732Y186475D02*
Y97149D01*
X435853*
Y186475*
X316732*
X333760Y140609D02*
G75*
G02X337733Y136635J-3973D01*
G01*
G75*
G02X333760Y132662I-3973*
G01*
G75*
G02X329787Y136635J3973*
G01*
G75*
G02X333760Y140609I3973*
G01*
Y150069D02*
G75*
G02Y142122J-3973D01*
G01*
G75*
G02X329787Y146095J3973*
G01*
G75*
G02X333760Y150069I3973*
G01*
X343220Y140609D02*
G75*
G02X347193Y136635J-3973D01*
G01*
G75*
G02X343220Y132662I-3973*
G01*
G75*
G02X339246Y136635J3973*
G01*
G75*
G02X343220Y140609I3973*
G01*
Y150069D02*
G75*
G02X347193Y146095J-3973D01*
G01*
G75*
G02X343220Y142122I-3973*
G01*
G75*
G02X339246Y146095J3973*
G01*
G75*
G02X343220Y150069I3973*
G01*
X383425Y113850D02*
G75*
G02X388911Y111812I2365J-2037D01*
G01*
G75*
G02X387828Y109447I-3122*
G01*
G75*
G02X388911Y107082I-2038J-2365*
G01*
G75*
G02X383425Y105044I-3122*
G01*
G75*
G02X378695I-2365J2038*
G01*
G75*
G02X373965I-2365J2038*
G01*
G75*
G02X369235I-2365J2038*
G01*
G75*
G02X363748Y107082I-2365J2038*
G01*
G75*
G02X364832Y109447I3122*
G01*
G75*
G02X363748Y111812I2037J2365*
G01*
G75*
G02X369235Y113850I3122*
G01*
G75*
G02X373965I2365J-2037*
G01*
G75*
G02X378695I2365J-2037*
G01*
G75*
G02X379215Y114331I2365J-2037*
G01*
Y125238*
X377931Y126522*
X355045*
G75*
G02X353741Y127063I0J1845*
G01*
X351376Y129428*
G75*
G02X350835Y130732I1304J1305*
G01*
Y133117*
G75*
G02X352680Y140609I1845J3519*
G01*
G75*
G02X354524Y133117J-3973*
G01*
Y131496*
X355809Y130212*
X378694*
G75*
G02X379999Y129671I0J-1844*
G01*
X382364Y127306*
G75*
G02X382904Y126002I-1304J-1305*
G01*
Y114331*
G75*
G02X383425Y113850I-1845J-2519*
G01*
X352680Y150069D02*
G75*
G02X356653Y146095J-3973D01*
G01*
G75*
G02X352680Y142122I-3973*
G01*
G75*
G02X348707Y146095J3973*
G01*
G75*
G02X352680Y150069I3973*
G01*
X348707Y169745D02*
G75*
G02X356653I3973D01*
G01*
G75*
G02X348707I-3973*
G01*
X362140Y140609D02*
G75*
G02X366113Y136635J-3973D01*
G01*
G75*
G02X362140Y132662I-3973*
G01*
G75*
G02X358167Y136635J3973*
G01*
G75*
G02X362140Y140609I3973*
G01*
Y150069D02*
G75*
G02Y142122J-3973D01*
G01*
G75*
G02X358167Y146095J3973*
G01*
G75*
G02X362140Y150069I3973*
G01*
X358167Y169745D02*
G75*
G02X366113I3973D01*
G01*
G75*
G02X358167I-3973*
G01*
X371600Y140609D02*
G75*
G02X375573Y136635J-3973D01*
G01*
G75*
G02X371600Y132662I-3973*
G01*
G75*
G02X367626Y136635J3973*
G01*
G75*
G02X371600Y140609I3973*
G01*
Y150069D02*
G75*
G02Y142122J-3973D01*
G01*
G75*
G02X367626Y146095J3973*
G01*
G75*
G02X371600Y150069I3973*
G01*
X367626Y169745D02*
G75*
G02X375573I3973D01*
G01*
G75*
G02X367626I-3973*
G01*
X381060Y140609D02*
G75*
G02X385033Y136635J-3973D01*
G01*
G75*
G02X381060Y132662I-3973*
G01*
G75*
G02X377087Y136635J3973*
G01*
G75*
G02X381060Y140609I3973*
G01*
Y150069D02*
G75*
G02Y142122J-3973D01*
G01*
G75*
G02X377087Y146095J3973*
G01*
G75*
G02X381060Y150069I3973*
G01*
X377087Y169745D02*
G75*
G02X385033I3973D01*
G01*
G75*
G02X377087I-3973*
G01*
X390520Y140609D02*
G75*
G02X394493Y136635J-3973D01*
G01*
G75*
G02X390520Y132662I-3973*
G01*
G75*
G02X386546Y136635J3973*
G01*
G75*
G02X390520Y140609I3973*
G01*
Y150069D02*
G75*
G02X394493Y146095J-3973D01*
G01*
G75*
G02X390520Y142122I-3973*
G01*
G75*
G02X386546Y146095J3973*
G01*
G75*
G02X390520Y150069I3973*
G01*
X386546Y169745D02*
G75*
G02X394493I3973D01*
G01*
G75*
G02X386546I-3973*
G01*
X399980Y140609D02*
G75*
G02X403953Y136635J-3973D01*
G01*
G75*
G02X399980Y132662I-3973*
G01*
G75*
G02X396007Y136635J3973*
G01*
G75*
G02X399980Y140609I3973*
G01*
Y150069D02*
G75*
G02X403953Y146095J-3973D01*
G01*
G75*
G02X399980Y142122I-3973*
G01*
G75*
G02X396007Y146095J3973*
G01*
G75*
G02X399980Y150069I3973*
G01*
X396007Y169745D02*
G75*
G02X403953I3973D01*
G01*
G75*
G02X396007I-3973*
G01*
X409440Y140609D02*
G75*
G02X413413Y136635J-3973D01*
G01*
G75*
G02X409440Y132662I-3973*
G01*
G75*
G02X405467Y136635J3973*
G01*
G75*
G02X409440Y140609I3973*
G01*
Y150069D02*
G75*
G02Y142122J-3973D01*
G01*
G75*
G02X405467Y146095J3973*
G01*
G75*
G02X409440Y150069I3973*
G01*
X418900Y140609D02*
G75*
G02X422873Y136635J-3973D01*
G01*
G75*
G02X418900Y132662I-3973*
G01*
G75*
G02X414926Y136635J3973*
G01*
G75*
G02X418900Y140609I3973*
G01*
Y150069D02*
G75*
G02Y142122J-3973D01*
G01*
G75*
G02X414926Y146095J3973*
G01*
G75*
G02X418900Y150069I3973*
G01*
X356653Y136635D02*
G36*
G75*
G02X354524Y133117I-3973D01*
G01*
Y131496*
X355809Y130212*
X378694*
G75*
G02X379999Y129671I0J-1844*
G01*
X382364Y127306*
G75*
G02X382904Y126002I-1304J-1304*
G01*
Y114331*
G75*
G02X383425Y113850I-1859J-2533*
G01*
G75*
G02X388911Y111812I2365J-2038*
G01*
G75*
G02X387828Y109447I-3123J1*
G01*
G75*
G02X388911Y107082I-2039J-2366*
G01*
G75*
G02X383425Y105044I-3122J0*
G01*
G75*
G02X378695I-2365J2037*
G01*
G75*
G02X373965I-2365J2037*
G01*
G75*
G02X369235I-2365J2037*
G01*
G75*
G02X363748Y107082I-2365J2038*
G01*
G75*
G02X364832Y109447I3123J-1*
G01*
G75*
G02X363748Y111812I2039J2366*
G01*
G75*
G02X369235Y113850I3122J0*
G01*
G75*
G02X373965I2365J-2037*
G01*
G75*
G02X378695I2365J-2037*
G01*
G75*
G02X379215Y114331I2379J-2052*
G01*
Y125238*
X377931Y126522*
X355045*
G75*
G02X353741Y127063I0J1844*
G01*
X351376Y129428*
G75*
G02X350835Y130732I1304J1304*
G01*
Y133117*
G75*
G02X348707Y136635I1845J3519*
G01*
X347193*
G75*
G02X343220Y132662I-3973*
G01*
G75*
G02X339246Y136635J3973*
G01*
X337733*
G75*
G02X333760Y132662I-3973*
G01*
G75*
G02X329787Y136635J3973*
G01*
X317110*
Y97528*
X435475*
Y136635*
X422873*
G75*
G02X418900Y132662I-3973*
G01*
G75*
G02X414926Y136635J3973*
G01*
X413413*
G75*
G02X409440Y132662I-3973*
G01*
G75*
G02X405467Y136635J3973*
G01*
X403953*
G75*
G02X399980Y132662I-3973*
G01*
G75*
G02X396007Y136635J3973*
G01*
X394493*
G75*
G02X390520Y132662I-3973*
G01*
G75*
G02X386546Y136635J3973*
G01*
X385033*
G75*
G02X381060Y132662I-3973*
G01*
G75*
G02X377087Y136635J3973*
G01*
X375573*
G75*
G02X371600Y132662I-3973*
G01*
G75*
G02X367626Y136635J3973*
G01*
X366113*
G75*
G02X362140Y132662I-3973*
G01*
G75*
G02X358167Y136635J3973*
G01*
X356653*
G37*
G36*
X358167*
G75*
G02X362140Y140609I3973*
G01*
G75*
G02X366113Y136635J-3973*
G01*
X367626*
G75*
G02X371600Y140609I3973*
G01*
G75*
G02X375573Y136635J-3973*
G01*
X377087*
G75*
G02X381060Y140609I3973*
G01*
G75*
G02X385033Y136635J-3973*
G01*
X386546*
G75*
G02X390520Y140609I3973*
G01*
G75*
G02X394493Y136635J-3973*
G01*
X396007*
G75*
G02X399980Y140609I3973*
G01*
G75*
G02X403953Y136635J-3973*
G01*
X405467*
G75*
G02X409440Y140609I3973*
G01*
G75*
G02X413413Y136635J-3973*
G01*
X414926*
G75*
G02X418900Y140609I3973*
G01*
G75*
G02X422873Y136635J-3973*
G01*
X435475*
Y146095*
X422873*
G75*
G02X418900Y142122I-3973*
G01*
G75*
G02X414926Y146095J3973*
G01*
X413413*
G75*
G02X409440Y142122I-3973*
G01*
G75*
G02X405467Y146095J3973*
G01*
X403953*
G75*
G02X399980Y142122I-3973*
G01*
G75*
G02X396007Y146095J3973*
G01*
X394493*
G75*
G02X390520Y142122I-3973*
G01*
G75*
G02X386546Y146095J3973*
G01*
X385033*
G75*
G02X381060Y142122I-3973*
G01*
G75*
G02X377087Y146095J3973*
G01*
X375573*
G75*
G02X371600Y142122I-3973*
G01*
G75*
G02X367626Y146095J3973*
G01*
X366113*
G75*
G02X362140Y142122I-3973*
G01*
G75*
G02X358167Y146095J3973*
G01*
X356653*
G75*
G02X352680Y142122I-3973*
G01*
G75*
G02X348707Y146095J3973*
G01*
X347193*
G75*
G02X343220Y142122I-3973*
G01*
G75*
G02X339246Y146095J3973*
G01*
X337733*
G75*
G02X333760Y142122I-3973*
G01*
G75*
G02X329787Y146095J3973*
G01*
X317110*
Y136635*
X329787*
G75*
G02X333760Y140609I3973*
G01*
G75*
G02X337733Y136635J-3973*
G01*
X339246*
G75*
G02X343220Y140609I3973*
G01*
G75*
G02X347193Y136635J-3973*
G01*
X348707*
G75*
G02X352680Y140609I3973*
G01*
G75*
G02X356653Y136635J-3973*
G01*
G37*
X317110Y169745D02*
G36*
Y146095D01*
X329787*
G75*
G02X333760Y150069I3973*
G01*
G75*
G02X337733Y146095J-3973*
G01*
X339246*
G75*
G02X343220Y150069I3973*
G01*
G75*
G02X347193Y146095J-3973*
G01*
X348707*
G75*
G02X352680Y150069I3973*
G01*
G75*
G02X356653Y146095J-3973*
G01*
X358167*
G75*
G02X362140Y150069I3973*
G01*
G75*
G02X366113Y146095J-3973*
G01*
X367626*
G75*
G02X371600Y150069I3973*
G01*
G75*
G02X375573Y146095J-3973*
G01*
X377087*
G75*
G02X381060Y150069I3973*
G01*
G75*
G02X385033Y146095J-3973*
G01*
X386546*
G75*
G02X390520Y150069I3973*
G01*
G75*
G02X394493Y146095J-3973*
G01*
X396007*
G75*
G02X399980Y150069I3973*
G01*
G75*
G02X403953Y146095J-3973*
G01*
X405467*
G75*
G02X409440Y150069I3973*
G01*
G75*
G02X413413Y146095J-3973*
G01*
X414926*
G75*
G02X418900Y150069I3973*
G01*
G75*
G02X422873Y146095J-3973*
G01*
X435475*
Y169745*
X403953*
G75*
G02X396007I-3973*
G01*
X394493*
G75*
G02X386546I-3973*
G01*
X385033*
G75*
G02X377087I-3973*
G01*
X375573*
G75*
G02X367626I-3973*
G01*
X366113*
G75*
G02X358167I-3973*
G01*
X356653*
G75*
G02X348707I-3973*
G01*
X317110*
G37*
Y186097D02*
G36*
Y169745D01*
X348707*
G75*
G02X356653I3973*
G01*
X358167*
G75*
G02X366113I3973*
G01*
X367626*
G75*
G02X375573I3973*
G01*
X377087*
G75*
G02X385033I3973*
G01*
X386546*
G75*
G02X394493I3973*
G01*
X396007*
G75*
G02X403953I3973*
G01*
X435475*
Y186097*
X317110*
G37*
X316732Y279585D02*
Y190259D01*
X435853*
Y279585*
X316732*
X333760Y233719D02*
G75*
G02Y225772J-3973D01*
G01*
G75*
G02X329787Y229746J3973*
G01*
G75*
G02X333760Y233719I3973*
G01*
Y243179D02*
G75*
G02X337733Y239206J-3973D01*
G01*
G75*
G02X333760Y235232I-3973*
G01*
G75*
G02X329787Y239206J3973*
G01*
G75*
G02X333760Y243179I3973*
G01*
X343220Y233719D02*
G75*
G02Y225772J-3973D01*
G01*
G75*
G02X339246Y229746J3973*
G01*
G75*
G02X343220Y233719I3973*
G01*
Y243179D02*
G75*
G02X347193Y239206J-3973D01*
G01*
G75*
G02X343220Y235232I-3973*
G01*
G75*
G02X339246Y239206J3973*
G01*
G75*
G02X343220Y243179I3973*
G01*
X383425Y206960D02*
G75*
G02X388911Y204922I2365J-2037D01*
G01*
G75*
G02X387828Y202557I-3122*
G01*
G75*
G02X388911Y200193I-2038J-2365*
G01*
G75*
G02X383425Y198155I-3122*
G01*
G75*
G02X378695I-2365J2038*
G01*
G75*
G02X373965I-2365J2038*
G01*
G75*
G02X369235I-2365J2038*
G01*
G75*
G02X363748Y200193I-2365J2038*
G01*
G75*
G02X364832Y202557I3122*
G01*
G75*
G02X363748Y204922I2037J2365*
G01*
G75*
G02X369235Y206960I3122*
G01*
G75*
G02X373965I2365J-2037*
G01*
G75*
G02X378695I2365J-2037*
G01*
G75*
G02X379215Y207441I2365J-2037*
G01*
Y218348*
X377931Y219633*
X355045*
G75*
G02X353741Y220173I0J1845*
G01*
X351376Y222538*
G75*
G02X350835Y223843I1304J1305*
G01*
Y226227*
G75*
G02X352680Y233719I1845J3519*
G01*
G75*
G02X354524Y226227J-3973*
G01*
Y224607*
X355809Y223322*
X378694*
G75*
G02X379999Y222781I0J-1844*
G01*
X382364Y220417*
G75*
G02X382904Y219112I-1304J-1305*
G01*
Y207441*
G75*
G02X383425Y206960I-1845J-2519*
G01*
X352680Y243179D02*
G75*
G02X356653Y239206J-3973D01*
G01*
G75*
G02X352680Y235232I-3973*
G01*
G75*
G02X348707Y239206J3973*
G01*
G75*
G02X352680Y243179I3973*
G01*
X348707Y262856D02*
G75*
G02X356653I3973D01*
G01*
G75*
G02X348707I-3973*
G01*
X362140Y233719D02*
G75*
G02X366113Y229746J-3973D01*
G01*
G75*
G02X362140Y225772I-3973*
G01*
G75*
G02X358167Y229746J3973*
G01*
G75*
G02X362140Y233719I3973*
G01*
Y243179D02*
G75*
G02X366113Y239206J-3973D01*
G01*
G75*
G02X362140Y235232I-3973*
G01*
G75*
G02X358167Y239206J3973*
G01*
G75*
G02X362140Y243179I3973*
G01*
X358167Y262856D02*
G75*
G02X366113I3973D01*
G01*
G75*
G02X358167I-3973*
G01*
X371600Y233719D02*
G75*
G02X375573Y229746J-3973D01*
G01*
G75*
G02X371600Y225772I-3973*
G01*
G75*
G02X367626Y229746J3973*
G01*
G75*
G02X371600Y233719I3973*
G01*
Y243179D02*
G75*
G02X375573Y239206J-3973D01*
G01*
G75*
G02X371600Y235232I-3973*
G01*
G75*
G02X367626Y239206J3973*
G01*
G75*
G02X371600Y243179I3973*
G01*
X367626Y262856D02*
G75*
G02X375573I3973D01*
G01*
G75*
G02X367626I-3973*
G01*
X381060Y233719D02*
G75*
G02Y225772J-3973D01*
G01*
G75*
G02X377087Y229746J3973*
G01*
G75*
G02X381060Y233719I3973*
G01*
Y243179D02*
G75*
G02X385033Y239206J-3973D01*
G01*
G75*
G02X381060Y235232I-3973*
G01*
G75*
G02X377087Y239206J3973*
G01*
G75*
G02X381060Y243179I3973*
G01*
X377087Y262856D02*
G75*
G02X385033I3973D01*
G01*
G75*
G02X377087I-3973*
G01*
X390520Y233719D02*
G75*
G02Y225772J-3973D01*
G01*
G75*
G02X386546Y229746J3973*
G01*
G75*
G02X390520Y233719I3973*
G01*
Y243179D02*
G75*
G02X394493Y239206J-3973D01*
G01*
G75*
G02X390520Y235232I-3973*
G01*
G75*
G02X386546Y239206J3973*
G01*
G75*
G02X390520Y243179I3973*
G01*
X386546Y262856D02*
G75*
G02X394493I3973D01*
G01*
G75*
G02X386546I-3973*
G01*
X399980Y233719D02*
G75*
G02X403953Y229746J-3973D01*
G01*
G75*
G02X399980Y225772I-3973*
G01*
G75*
G02X396007Y229746J3973*
G01*
G75*
G02X399980Y233719I3973*
G01*
Y243179D02*
G75*
G02X403953Y239206J-3973D01*
G01*
G75*
G02X399980Y235232I-3973*
G01*
G75*
G02X396007Y239206J3973*
G01*
G75*
G02X399980Y243179I3973*
G01*
X396007Y262856D02*
G75*
G02X403953I3973D01*
G01*
G75*
G02X396007I-3973*
G01*
X409440Y233719D02*
G75*
G02X413413Y229746J-3973D01*
G01*
G75*
G02X409440Y225772I-3973*
G01*
G75*
G02X405467Y229746J3973*
G01*
G75*
G02X409440Y233719I3973*
G01*
Y243179D02*
G75*
G02X413413Y239206J-3973D01*
G01*
G75*
G02X409440Y235232I-3973*
G01*
G75*
G02X405467Y239206J3973*
G01*
G75*
G02X409440Y243179I3973*
G01*
X418900Y233719D02*
G75*
G02X422873Y229746J-3973D01*
G01*
G75*
G02X418900Y225772I-3973*
G01*
G75*
G02X414926Y229746J3973*
G01*
G75*
G02X418900Y233719I3973*
G01*
Y243179D02*
G75*
G02X422873Y239206J-3973D01*
G01*
G75*
G02X418900Y235232I-3973*
G01*
G75*
G02X414926Y239206J3973*
G01*
G75*
G02X418900Y243179I3973*
G01*
X356653Y229746D02*
G36*
G75*
G02X354524Y226227I-3973D01*
G01*
Y224607*
X355809Y223322*
X378694*
G75*
G02X379999Y222781I0J-1844*
G01*
X382364Y220417*
G75*
G02X382904Y219112I-1304J-1304*
G01*
Y207441*
G75*
G02X383425Y206960I-1859J-2533*
G01*
G75*
G02X388911Y204922I2365J-2038*
G01*
G75*
G02X387828Y202557I-3123J1*
G01*
G75*
G02X388911Y200193I-2039J-2366*
G01*
G75*
G02X383425Y198155I-3122J0*
G01*
G75*
G02X378695I-2365J2037*
G01*
G75*
G02X373965I-2365J2037*
G01*
G75*
G02X369235I-2365J2037*
G01*
G75*
G02X363748Y200193I-2365J2038*
G01*
G75*
G02X364832Y202557I3123J-1*
G01*
G75*
G02X363748Y204922I2039J2366*
G01*
G75*
G02X369235Y206960I3122J0*
G01*
G75*
G02X373965I2365J-2037*
G01*
G75*
G02X378695I2365J-2037*
G01*
G75*
G02X379215Y207441I2379J-2052*
G01*
Y218348*
X377931Y219633*
X355045*
G75*
G02X353741Y220173I0J1844*
G01*
X351376Y222538*
G75*
G02X350835Y223843I1304J1304*
G01*
Y226227*
G75*
G02X348707Y229746I1845J3519*
G01*
X347193*
G75*
G02X343220Y225772I-3973*
G01*
G75*
G02X339246Y229746J3973*
G01*
X337733*
G75*
G02X333760Y225772I-3973*
G01*
G75*
G02X329787Y229746J3973*
G01*
X317110*
Y190638*
X435475*
Y229746*
X422873*
G75*
G02X418900Y225772I-3973*
G01*
G75*
G02X414926Y229746J3973*
G01*
X413413*
G75*
G02X409440Y225772I-3973*
G01*
G75*
G02X405467Y229746J3973*
G01*
X403953*
G75*
G02X399980Y225772I-3973*
G01*
G75*
G02X396007Y229746J3973*
G01*
X394493*
G75*
G02X390520Y225772I-3973*
G01*
G75*
G02X386546Y229746J3973*
G01*
X385033*
G75*
G02X381060Y225772I-3973*
G01*
G75*
G02X377087Y229746J3973*
G01*
X375573*
G75*
G02X371600Y225772I-3973*
G01*
G75*
G02X367626Y229746J3973*
G01*
X366113*
G75*
G02X362140Y225772I-3973*
G01*
G75*
G02X358167Y229746J3973*
G01*
X356653*
G37*
G36*
X358167*
G75*
G02X362140Y233719I3973*
G01*
G75*
G02X366113Y229746J-3973*
G01*
X367626*
G75*
G02X371600Y233719I3973*
G01*
G75*
G02X375573Y229746J-3973*
G01*
X377087*
G75*
G02X381060Y233719I3973*
G01*
G75*
G02X385033Y229746J-3973*
G01*
X386546*
G75*
G02X390520Y233719I3973*
G01*
G75*
G02X394493Y229746J-3973*
G01*
X396007*
G75*
G02X399980Y233719I3973*
G01*
G75*
G02X403953Y229746J-3973*
G01*
X405467*
G75*
G02X409440Y233719I3973*
G01*
G75*
G02X413413Y229746J-3973*
G01*
X414926*
G75*
G02X418900Y233719I3973*
G01*
G75*
G02X422873Y229746J-3973*
G01*
X435475*
Y239206*
X422873*
G75*
G02X418900Y235232I-3973*
G01*
G75*
G02X414926Y239206J3973*
G01*
X413413*
G75*
G02X409440Y235232I-3973*
G01*
G75*
G02X405467Y239206J3973*
G01*
X403953*
G75*
G02X399980Y235232I-3973*
G01*
G75*
G02X396007Y239206J3973*
G01*
X394493*
G75*
G02X390520Y235232I-3973*
G01*
G75*
G02X386546Y239206J3973*
G01*
X385033*
G75*
G02X381060Y235232I-3973*
G01*
G75*
G02X377087Y239206J3973*
G01*
X375573*
G75*
G02X371600Y235232I-3973*
G01*
G75*
G02X367626Y239206J3973*
G01*
X366113*
G75*
G02X362140Y235232I-3973*
G01*
G75*
G02X358167Y239206J3973*
G01*
X356653*
G75*
G02X352680Y235232I-3973*
G01*
G75*
G02X348707Y239206J3973*
G01*
X347193*
G75*
G02X343220Y235232I-3973*
G01*
G75*
G02X339246Y239206J3973*
G01*
X337733*
G75*
G02X333760Y235232I-3973*
G01*
G75*
G02X329787Y239206J3973*
G01*
X317110*
Y229746*
X329787*
G75*
G02X333760Y233719I3973*
G01*
G75*
G02X337733Y229746J-3973*
G01*
X339246*
G75*
G02X343220Y233719I3973*
G01*
G75*
G02X347193Y229746J-3973*
G01*
X348707*
G75*
G02X352680Y233719I3973*
G01*
G75*
G02X356653Y229746J-3973*
G01*
G37*
X317110Y262856D02*
G36*
Y239206D01*
X329787*
G75*
G02X333760Y243179I3973*
G01*
G75*
G02X337733Y239206J-3973*
G01*
X339246*
G75*
G02X343220Y243179I3973*
G01*
G75*
G02X347193Y239206J-3973*
G01*
X348707*
G75*
G02X352680Y243179I3973*
G01*
G75*
G02X356653Y239206J-3973*
G01*
X358167*
G75*
G02X362140Y243179I3973*
G01*
G75*
G02X366113Y239206J-3973*
G01*
X367626*
G75*
G02X371600Y243179I3973*
G01*
G75*
G02X375573Y239206J-3973*
G01*
X377087*
G75*
G02X381060Y243179I3973*
G01*
G75*
G02X385033Y239206J-3973*
G01*
X386546*
G75*
G02X390520Y243179I3973*
G01*
G75*
G02X394493Y239206J-3973*
G01*
X396007*
G75*
G02X399980Y243179I3973*
G01*
G75*
G02X403953Y239206J-3973*
G01*
X405467*
G75*
G02X409440Y243179I3973*
G01*
G75*
G02X413413Y239206J-3973*
G01*
X414926*
G75*
G02X418900Y243179I3973*
G01*
G75*
G02X422873Y239206J-3973*
G01*
X435475*
Y262856*
X403953*
G75*
G02X396007I-3973*
G01*
X394493*
G75*
G02X386546I-3973*
G01*
X385033*
G75*
G02X377087I-3973*
G01*
X375573*
G75*
G02X367626I-3973*
G01*
X366113*
G75*
G02X358167I-3973*
G01*
X356653*
G75*
G02X348707I-3973*
G01*
X317110*
G37*
Y279207D02*
G36*
Y262856D01*
X348707*
G75*
G02X356653I3973*
G01*
X358167*
G75*
G02X366113I3973*
G01*
X367626*
G75*
G02X375573I3973*
G01*
X377087*
G75*
G02X385033I3973*
G01*
X386546*
G75*
G02X394493I3973*
G01*
X396007*
G75*
G02X403953I3973*
G01*
X435475*
Y279207*
X317110*
G37*
X316732Y372696D02*
Y283370D01*
X435853*
Y372696*
X316732*
X333760Y326829D02*
G75*
G02X337733Y322856J-3973D01*
G01*
G75*
G02X333760Y318883I-3973*
G01*
G75*
G02X329787Y322856J3973*
G01*
G75*
G02X333760Y326829I3973*
G01*
Y336289D02*
G75*
G02X337733Y332316J-3973D01*
G01*
G75*
G02X333760Y328343I-3973*
G01*
G75*
G02X329787Y332316J3973*
G01*
G75*
G02X333760Y336289I3973*
G01*
X343220Y326829D02*
G75*
G02X347193Y322856J-3973D01*
G01*
G75*
G02X343220Y318883I-3973*
G01*
G75*
G02X339246Y322856J3973*
G01*
G75*
G02X343220Y326829I3973*
G01*
Y336289D02*
G75*
G02X347193Y332316J-3973D01*
G01*
G75*
G02X343220Y328343I-3973*
G01*
G75*
G02X339246Y332316J3973*
G01*
G75*
G02X343220Y336289I3973*
G01*
X383425Y300070D02*
G75*
G02X388911Y298033I2365J-2037D01*
G01*
G75*
G02X387828Y295668I-3122*
G01*
G75*
G02X388911Y293303I-2038J-2365*
G01*
G75*
G02X383425Y291265I-3122*
G01*
G75*
G02X378695I-2365J2038*
G01*
G75*
G02X373965I-2365J2038*
G01*
G75*
G02X369235I-2365J2038*
G01*
G75*
G02X363748Y293303I-2365J2038*
G01*
G75*
G02X364832Y295668I3122*
G01*
G75*
G02X363748Y298033I2037J2365*
G01*
G75*
G02X369235Y300070I3122*
G01*
G75*
G02X373965I2365J-2037*
G01*
G75*
G02X378695I2365J-2037*
G01*
G75*
G02X379215Y300551I2365J-2037*
G01*
Y311458*
X377931Y312743*
X355045*
G75*
G02X353741Y313283I0J1845*
G01*
X351376Y315648*
G75*
G02X350835Y316953I1304J1305*
G01*
Y319337*
G75*
G02X352680Y326829I1845J3519*
G01*
G75*
G02X354524Y319337J-3973*
G01*
Y317717*
X355809Y316432*
X378694*
G75*
G02X379999Y315892I0J-1844*
G01*
X382364Y313527*
G75*
G02X382904Y312222I-1304J-1305*
G01*
Y300551*
G75*
G02X383425Y300070I-1845J-2519*
G01*
X352680Y336289D02*
G75*
G02X356653Y332316J-3973D01*
G01*
G75*
G02X352680Y328343I-3973*
G01*
G75*
G02X348707Y332316J3973*
G01*
G75*
G02X352680Y336289I3973*
G01*
X348707Y355966D02*
G75*
G02X356653I3973D01*
G01*
G75*
G02X348707I-3973*
G01*
X362140Y326829D02*
G75*
G02X366113Y322856J-3973D01*
G01*
G75*
G02X362140Y318883I-3973*
G01*
G75*
G02X358167Y322856J3973*
G01*
G75*
G02X362140Y326829I3973*
G01*
Y336289D02*
G75*
G02X366113Y332316J-3973D01*
G01*
G75*
G02X362140Y328343I-3973*
G01*
G75*
G02X358167Y332316J3973*
G01*
G75*
G02X362140Y336289I3973*
G01*
X358167Y355966D02*
G75*
G02X366113I3973D01*
G01*
G75*
G02X358167I-3973*
G01*
X371600Y326829D02*
G75*
G02X375573Y322856J-3973D01*
G01*
G75*
G02X371600Y318883I-3973*
G01*
G75*
G02X367626Y322856J3973*
G01*
G75*
G02X371600Y326829I3973*
G01*
Y336289D02*
G75*
G02X375573Y332316J-3973D01*
G01*
G75*
G02X371600Y328343I-3973*
G01*
G75*
G02X367626Y332316J3973*
G01*
G75*
G02X371600Y336289I3973*
G01*
X367626Y355966D02*
G75*
G02X375573I3973D01*
G01*
G75*
G02X367626I-3973*
G01*
X381060Y326829D02*
G75*
G02X385033Y322856J-3973D01*
G01*
G75*
G02X381060Y318883I-3973*
G01*
G75*
G02X377087Y322856J3973*
G01*
G75*
G02X381060Y326829I3973*
G01*
Y336289D02*
G75*
G02X385033Y332316J-3973D01*
G01*
G75*
G02X381060Y328343I-3973*
G01*
G75*
G02X377087Y332316J3973*
G01*
G75*
G02X381060Y336289I3973*
G01*
X377087Y355966D02*
G75*
G02X385033I3973D01*
G01*
G75*
G02X377087I-3973*
G01*
X390520Y326829D02*
G75*
G02X394493Y322856J-3973D01*
G01*
G75*
G02X390520Y318883I-3973*
G01*
G75*
G02X386546Y322856J3973*
G01*
G75*
G02X390520Y326829I3973*
G01*
Y336289D02*
G75*
G02X394493Y332316J-3973D01*
G01*
G75*
G02X390520Y328343I-3973*
G01*
G75*
G02X386546Y332316J3973*
G01*
G75*
G02X390520Y336289I3973*
G01*
X386546Y355966D02*
G75*
G02X394493I3973D01*
G01*
G75*
G02X386546I-3973*
G01*
X399980Y326829D02*
G75*
G02X403953Y322856J-3973D01*
G01*
G75*
G02X399980Y318883I-3973*
G01*
G75*
G02X396007Y322856J3973*
G01*
G75*
G02X399980Y326829I3973*
G01*
Y336289D02*
G75*
G02X403953Y332316J-3973D01*
G01*
G75*
G02X399980Y328343I-3973*
G01*
G75*
G02X396007Y332316J3973*
G01*
G75*
G02X399980Y336289I3973*
G01*
X396007Y355966D02*
G75*
G02X403953I3973D01*
G01*
G75*
G02X396007I-3973*
G01*
X409440Y326829D02*
G75*
G02X413413Y322856J-3973D01*
G01*
G75*
G02X409440Y318883I-3973*
G01*
G75*
G02X405467Y322856J3973*
G01*
G75*
G02X409440Y326829I3973*
G01*
Y336289D02*
G75*
G02X413413Y332316J-3973D01*
G01*
G75*
G02X409440Y328343I-3973*
G01*
G75*
G02X405467Y332316J3973*
G01*
G75*
G02X409440Y336289I3973*
G01*
X418900Y326829D02*
G75*
G02X422873Y322856J-3973D01*
G01*
G75*
G02X418900Y318883I-3973*
G01*
G75*
G02X414926Y322856J3973*
G01*
G75*
G02X418900Y326829I3973*
G01*
Y336289D02*
G75*
G02X422873Y332316J-3973D01*
G01*
G75*
G02X418900Y328343I-3973*
G01*
G75*
G02X414926Y332316J3973*
G01*
G75*
G02X418900Y336289I3973*
G01*
X356653Y322856D02*
G36*
G75*
G02X354524Y319337I-3973D01*
G01*
Y317717*
X355809Y316432*
X378694*
G75*
G02X379999Y315892I0J-1844*
G01*
X382364Y313527*
G75*
G02X382904Y312222I-1304J-1304*
G01*
Y300551*
G75*
G02X383425Y300070I-1859J-2533*
G01*
G75*
G02X388911Y298033I2365J-2038*
G01*
G75*
G02X387828Y295668I-3123J1*
G01*
G75*
G02X388911Y293303I-2039J-2366*
G01*
G75*
G02X383425Y291265I-3122J0*
G01*
G75*
G02X378695I-2365J2037*
G01*
G75*
G02X373965I-2365J2037*
G01*
G75*
G02X369235I-2365J2037*
G01*
G75*
G02X363748Y293303I-2365J2038*
G01*
G75*
G02X364832Y295668I3123J-1*
G01*
G75*
G02X363748Y298033I2039J2366*
G01*
G75*
G02X369235Y300070I3122J0*
G01*
G75*
G02X373965I2365J-2037*
G01*
G75*
G02X378695I2365J-2037*
G01*
G75*
G02X379215Y300551I2379J-2052*
G01*
Y311458*
X377931Y312743*
X355045*
G75*
G02X353741Y313283I0J1844*
G01*
X351376Y315648*
G75*
G02X350835Y316953I1304J1304*
G01*
Y319337*
G75*
G02X348707Y322856I1845J3519*
G01*
X347193*
G75*
G02X343220Y318883I-3973*
G01*
G75*
G02X339246Y322856J3973*
G01*
X337733*
G75*
G02X333760Y318883I-3973*
G01*
G75*
G02X329787Y322856J3973*
G01*
X317110*
Y283748*
X435475*
Y322856*
X422873*
G75*
G02X418900Y318883I-3973*
G01*
G75*
G02X414926Y322856J3973*
G01*
X413413*
G75*
G02X409440Y318883I-3973*
G01*
G75*
G02X405467Y322856J3973*
G01*
X403953*
G75*
G02X399980Y318883I-3973*
G01*
G75*
G02X396007Y322856J3973*
G01*
X394493*
G75*
G02X390520Y318883I-3973*
G01*
G75*
G02X386546Y322856J3973*
G01*
X385033*
G75*
G02X381060Y318883I-3973*
G01*
G75*
G02X377087Y322856J3973*
G01*
X375573*
G75*
G02X371600Y318883I-3973*
G01*
G75*
G02X367626Y322856J3973*
G01*
X366113*
G75*
G02X362140Y318883I-3973*
G01*
G75*
G02X358167Y322856J3973*
G01*
X356653*
G37*
G36*
X358167*
G75*
G02X362140Y326829I3973*
G01*
G75*
G02X366113Y322856J-3973*
G01*
X367626*
G75*
G02X371600Y326829I3973*
G01*
G75*
G02X375573Y322856J-3973*
G01*
X377087*
G75*
G02X381060Y326829I3973*
G01*
G75*
G02X385033Y322856J-3973*
G01*
X386546*
G75*
G02X390520Y326829I3973*
G01*
G75*
G02X394493Y322856J-3973*
G01*
X396007*
G75*
G02X399980Y326829I3973*
G01*
G75*
G02X403953Y322856J-3973*
G01*
X405467*
G75*
G02X409440Y326829I3973*
G01*
G75*
G02X413413Y322856J-3973*
G01*
X414926*
G75*
G02X418900Y326829I3973*
G01*
G75*
G02X422873Y322856J-3973*
G01*
X435475*
Y332316*
X422873*
G75*
G02X418900Y328343I-3973*
G01*
G75*
G02X414926Y332316J3973*
G01*
X413413*
G75*
G02X409440Y328343I-3973*
G01*
G75*
G02X405467Y332316J3973*
G01*
X403953*
G75*
G02X399980Y328343I-3973*
G01*
G75*
G02X396007Y332316J3973*
G01*
X394493*
G75*
G02X390520Y328343I-3973*
G01*
G75*
G02X386546Y332316J3973*
G01*
X385033*
G75*
G02X381060Y328343I-3973*
G01*
G75*
G02X377087Y332316J3973*
G01*
X375573*
G75*
G02X371600Y328343I-3973*
G01*
G75*
G02X367626Y332316J3973*
G01*
X366113*
G75*
G02X362140Y328343I-3973*
G01*
G75*
G02X358167Y332316J3973*
G01*
X356653*
G75*
G02X352680Y328343I-3973*
G01*
G75*
G02X348707Y332316J3973*
G01*
X347193*
G75*
G02X343220Y328343I-3973*
G01*
G75*
G02X339246Y332316J3973*
G01*
X337733*
G75*
G02X333760Y328343I-3973*
G01*
G75*
G02X329787Y332316J3973*
G01*
X317110*
Y322856*
X329787*
G75*
G02X333760Y326829I3973*
G01*
G75*
G02X337733Y322856J-3973*
G01*
X339246*
G75*
G02X343220Y326829I3973*
G01*
G75*
G02X347193Y322856J-3973*
G01*
X348707*
G75*
G02X352680Y326829I3973*
G01*
G75*
G02X356653Y322856J-3973*
G01*
G37*
X317110Y355966D02*
G36*
Y332316D01*
X329787*
G75*
G02X333760Y336289I3973*
G01*
G75*
G02X337733Y332316J-3973*
G01*
X339246*
G75*
G02X343220Y336289I3973*
G01*
G75*
G02X347193Y332316J-3973*
G01*
X348707*
G75*
G02X352680Y336289I3973*
G01*
G75*
G02X356653Y332316J-3973*
G01*
X358167*
G75*
G02X362140Y336289I3973*
G01*
G75*
G02X366113Y332316J-3973*
G01*
X367626*
G75*
G02X371600Y336289I3973*
G01*
G75*
G02X375573Y332316J-3973*
G01*
X377087*
G75*
G02X381060Y336289I3973*
G01*
G75*
G02X385033Y332316J-3973*
G01*
X386546*
G75*
G02X390520Y336289I3973*
G01*
G75*
G02X394493Y332316J-3973*
G01*
X396007*
G75*
G02X399980Y336289I3973*
G01*
G75*
G02X403953Y332316J-3973*
G01*
X405467*
G75*
G02X409440Y336289I3973*
G01*
G75*
G02X413413Y332316J-3973*
G01*
X414926*
G75*
G02X418900Y336289I3973*
G01*
G75*
G02X422873Y332316J-3973*
G01*
X435475*
Y355966*
X403953*
G75*
G02X396007I-3973*
G01*
X394493*
G75*
G02X386546I-3973*
G01*
X385033*
G75*
G02X377087I-3973*
G01*
X375573*
G75*
G02X367626I-3973*
G01*
X366113*
G75*
G02X358167I-3973*
G01*
X356653*
G75*
G02X348707I-3973*
G01*
X317110*
G37*
Y372317D02*
G36*
Y355966D01*
X348707*
G75*
G02X356653I3973*
G01*
X358167*
G75*
G02X366113I3973*
G01*
X367626*
G75*
G02X375573I3973*
G01*
X377087*
G75*
G02X385033I3973*
G01*
X386546*
G75*
G02X394493I3973*
G01*
X396007*
G75*
G02X403953I3973*
G01*
X435475*
Y372317*
X317110*
G37*
X316732Y465806D02*
Y376480D01*
X435853*
Y465806*
X316732*
X333760Y419939D02*
G75*
G02X337733Y415966J-3973D01*
G01*
G75*
G02X333760Y411993I-3973*
G01*
G75*
G02X329787Y415966J3973*
G01*
G75*
G02X333760Y419939I3973*
G01*
Y429399D02*
G75*
G02X337733Y425426J-3973D01*
G01*
G75*
G02X333760Y421453I-3973*
G01*
G75*
G02X329787Y425426J3973*
G01*
G75*
G02X333760Y429399I3973*
G01*
X343220Y419939D02*
G75*
G02X347193Y415966J-3973D01*
G01*
G75*
G02X343220Y411993I-3973*
G01*
G75*
G02X339246Y415966J3973*
G01*
G75*
G02X343220Y419939I3973*
G01*
Y429399D02*
G75*
G02X347193Y425426J-3973D01*
G01*
G75*
G02X343220Y421453I-3973*
G01*
G75*
G02X339246Y425426J3973*
G01*
G75*
G02X343220Y429399I3973*
G01*
X383425Y393180D02*
G75*
G02X388911Y391143I2365J-2037D01*
G01*
G75*
G02X387828Y388778I-3122*
G01*
G75*
G02X388911Y386413I-2038J-2365*
G01*
G75*
G02X383425Y384375I-3122*
G01*
G75*
G02X378695I-2365J2038*
G01*
G75*
G02X373965I-2365J2038*
G01*
G75*
G02X369235I-2365J2038*
G01*
G75*
G02X363748Y386413I-2365J2038*
G01*
G75*
G02X364832Y388778I3122*
G01*
G75*
G02X363748Y391143I2037J2365*
G01*
G75*
G02X369235Y393180I3122*
G01*
G75*
G02X373965I2365J-2037*
G01*
G75*
G02X378695I2365J-2037*
G01*
G75*
G02X379215Y393661I2365J-2037*
G01*
Y404569*
X377931Y405853*
X355045*
G75*
G02X353741Y406394I0J1845*
G01*
X351376Y408759*
G75*
G02X350835Y410063I1304J1305*
G01*
Y412447*
G75*
G02X352680Y419939I1845J3519*
G01*
G75*
G02X354524Y412447J-3973*
G01*
Y410827*
X355809Y409543*
X378694*
G75*
G02X379999Y409002I0J-1844*
G01*
X382364Y406637*
G75*
G02X382904Y405333I-1304J-1305*
G01*
Y393661*
G75*
G02X383425Y393180I-1845J-2519*
G01*
X352680Y429399D02*
G75*
G02X356653Y425426J-3973D01*
G01*
G75*
G02X352680Y421453I-3973*
G01*
G75*
G02X348707Y425426J3973*
G01*
G75*
G02X352680Y429399I3973*
G01*
X348707Y449076D02*
G75*
G02X356653I3973D01*
G01*
G75*
G02X348707I-3973*
G01*
X362140Y419939D02*
G75*
G02X366113Y415966J-3973D01*
G01*
G75*
G02X362140Y411993I-3973*
G01*
G75*
G02X358167Y415966J3973*
G01*
G75*
G02X362140Y419939I3973*
G01*
Y429399D02*
G75*
G02X366113Y425426J-3973D01*
G01*
G75*
G02X362140Y421453I-3973*
G01*
G75*
G02X358167Y425426J3973*
G01*
G75*
G02X362140Y429399I3973*
G01*
X358167Y449076D02*
G75*
G02X366113I3973D01*
G01*
G75*
G02X358167I-3973*
G01*
X371600Y419939D02*
G75*
G02X375573Y415966J-3973D01*
G01*
G75*
G02X371600Y411993I-3973*
G01*
G75*
G02X367626Y415966J3973*
G01*
G75*
G02X371600Y419939I3973*
G01*
Y429399D02*
G75*
G02X375573Y425426J-3973D01*
G01*
G75*
G02X371600Y421453I-3973*
G01*
G75*
G02X367626Y425426J3973*
G01*
G75*
G02X371600Y429399I3973*
G01*
X367626Y449076D02*
G75*
G02X375573I3973D01*
G01*
G75*
G02X367626I-3973*
G01*
X381060Y419939D02*
G75*
G02X385033Y415966J-3973D01*
G01*
G75*
G02X381060Y411993I-3973*
G01*
G75*
G02X377087Y415966J3973*
G01*
G75*
G02X381060Y419939I3973*
G01*
Y429399D02*
G75*
G02X385033Y425426J-3973D01*
G01*
G75*
G02X381060Y421453I-3973*
G01*
G75*
G02X377087Y425426J3973*
G01*
G75*
G02X381060Y429399I3973*
G01*
X377087Y449076D02*
G75*
G02X385033I3973D01*
G01*
G75*
G02X377087I-3973*
G01*
X390520Y419939D02*
G75*
G02X394493Y415966J-3973D01*
G01*
G75*
G02X390520Y411993I-3973*
G01*
G75*
G02X386546Y415966J3973*
G01*
G75*
G02X390520Y419939I3973*
G01*
Y429399D02*
G75*
G02X394493Y425426J-3973D01*
G01*
G75*
G02X390520Y421453I-3973*
G01*
G75*
G02X386546Y425426J3973*
G01*
G75*
G02X390520Y429399I3973*
G01*
X386546Y449076D02*
G75*
G02X394493I3973D01*
G01*
G75*
G02X386546I-3973*
G01*
X399980Y419939D02*
G75*
G02X403953Y415966J-3973D01*
G01*
G75*
G02X399980Y411993I-3973*
G01*
G75*
G02X396007Y415966J3973*
G01*
G75*
G02X399980Y419939I3973*
G01*
Y429399D02*
G75*
G02X403953Y425426J-3973D01*
G01*
G75*
G02X399980Y421453I-3973*
G01*
G75*
G02X396007Y425426J3973*
G01*
G75*
G02X399980Y429399I3973*
G01*
X396007Y449076D02*
G75*
G02X403953I3973D01*
G01*
G75*
G02X396007I-3973*
G01*
X409440Y419939D02*
G75*
G02X413413Y415966J-3973D01*
G01*
G75*
G02X409440Y411993I-3973*
G01*
G75*
G02X405467Y415966J3973*
G01*
G75*
G02X409440Y419939I3973*
G01*
Y429399D02*
G75*
G02X413413Y425426J-3973D01*
G01*
G75*
G02X409440Y421453I-3973*
G01*
G75*
G02X405467Y425426J3973*
G01*
G75*
G02X409440Y429399I3973*
G01*
X418900Y419939D02*
G75*
G02X422873Y415966J-3973D01*
G01*
G75*
G02X418900Y411993I-3973*
G01*
G75*
G02X414926Y415966J3973*
G01*
G75*
G02X418900Y419939I3973*
G01*
Y429399D02*
G75*
G02X422873Y425426J-3973D01*
G01*
G75*
G02X418900Y421453I-3973*
G01*
G75*
G02X414926Y425426J3973*
G01*
G75*
G02X418900Y429399I3973*
G01*
X356653Y415966D02*
G36*
G75*
G02X354524Y412447I-3973D01*
G01*
Y410827*
X355809Y409543*
X378694*
G75*
G02X379999Y409002I0J-1844*
G01*
X382364Y406637*
G75*
G02X382904Y405333I-1304J-1304*
G01*
Y393661*
G75*
G02X383425Y393180I-1859J-2533*
G01*
G75*
G02X388911Y391143I2365J-2038*
G01*
G75*
G02X387828Y388778I-3123J1*
G01*
G75*
G02X388911Y386413I-2039J-2366*
G01*
G75*
G02X383425Y384375I-3122J0*
G01*
G75*
G02X378695I-2365J2037*
G01*
G75*
G02X373965I-2365J2037*
G01*
G75*
G02X369235I-2365J2037*
G01*
G75*
G02X363748Y386413I-2365J2038*
G01*
G75*
G02X364832Y388778I3123J-1*
G01*
G75*
G02X363748Y391143I2039J2366*
G01*
G75*
G02X369235Y393180I3122J0*
G01*
G75*
G02X373965I2365J-2037*
G01*
G75*
G02X378695I2365J-2037*
G01*
G75*
G02X379215Y393661I2379J-2052*
G01*
Y404569*
X377931Y405853*
X355045*
G75*
G02X353741Y406394I0J1844*
G01*
X351376Y408759*
G75*
G02X350835Y410063I1304J1304*
G01*
Y412447*
G75*
G02X348707Y415966I1845J3519*
G01*
X347193*
G75*
G02X343220Y411993I-3973*
G01*
G75*
G02X339246Y415966J3973*
G01*
X337733*
G75*
G02X333760Y411993I-3973*
G01*
G75*
G02X329787Y415966J3973*
G01*
X317110*
Y376858*
X435475*
Y415966*
X422873*
G75*
G02X418900Y411993I-3973*
G01*
G75*
G02X414926Y415966J3973*
G01*
X413413*
G75*
G02X409440Y411993I-3973*
G01*
G75*
G02X405467Y415966J3973*
G01*
X403953*
G75*
G02X399980Y411993I-3973*
G01*
G75*
G02X396007Y415966J3973*
G01*
X394493*
G75*
G02X390520Y411993I-3973*
G01*
G75*
G02X386546Y415966J3973*
G01*
X385033*
G75*
G02X381060Y411993I-3973*
G01*
G75*
G02X377087Y415966J3973*
G01*
X375573*
G75*
G02X371600Y411993I-3973*
G01*
G75*
G02X367626Y415966J3973*
G01*
X366113*
G75*
G02X362140Y411993I-3973*
G01*
G75*
G02X358167Y415966J3973*
G01*
X356653*
G37*
G36*
X358167*
G75*
G02X362140Y419939I3973*
G01*
G75*
G02X366113Y415966J-3973*
G01*
X367626*
G75*
G02X371600Y419939I3973*
G01*
G75*
G02X375573Y415966J-3973*
G01*
X377087*
G75*
G02X381060Y419939I3973*
G01*
G75*
G02X385033Y415966J-3973*
G01*
X386546*
G75*
G02X390520Y419939I3973*
G01*
G75*
G02X394493Y415966J-3973*
G01*
X396007*
G75*
G02X399980Y419939I3973*
G01*
G75*
G02X403953Y415966J-3973*
G01*
X405467*
G75*
G02X409440Y419939I3973*
G01*
G75*
G02X413413Y415966J-3973*
G01*
X414926*
G75*
G02X418900Y419939I3973*
G01*
G75*
G02X422873Y415966J-3973*
G01*
X435475*
Y425426*
X422873*
G75*
G02X418900Y421453I-3973*
G01*
G75*
G02X414926Y425426J3973*
G01*
X413413*
G75*
G02X409440Y421453I-3973*
G01*
G75*
G02X405467Y425426J3973*
G01*
X403953*
G75*
G02X399980Y421453I-3973*
G01*
G75*
G02X396007Y425426J3973*
G01*
X394493*
G75*
G02X390520Y421453I-3973*
G01*
G75*
G02X386546Y425426J3973*
G01*
X385033*
G75*
G02X381060Y421453I-3973*
G01*
G75*
G02X377087Y425426J3973*
G01*
X375573*
G75*
G02X371600Y421453I-3973*
G01*
G75*
G02X367626Y425426J3973*
G01*
X366113*
G75*
G02X362140Y421453I-3973*
G01*
G75*
G02X358167Y425426J3973*
G01*
X356653*
G75*
G02X352680Y421453I-3973*
G01*
G75*
G02X348707Y425426J3973*
G01*
X347193*
G75*
G02X343220Y421453I-3973*
G01*
G75*
G02X339246Y425426J3973*
G01*
X337733*
G75*
G02X333760Y421453I-3973*
G01*
G75*
G02X329787Y425426J3973*
G01*
X317110*
Y415966*
X329787*
G75*
G02X333760Y419939I3973*
G01*
G75*
G02X337733Y415966J-3973*
G01*
X339246*
G75*
G02X343220Y419939I3973*
G01*
G75*
G02X347193Y415966J-3973*
G01*
X348707*
G75*
G02X352680Y419939I3973*
G01*
G75*
G02X356653Y415966J-3973*
G01*
G37*
X317110Y449076D02*
G36*
Y425426D01*
X329787*
G75*
G02X333760Y429399I3973*
G01*
G75*
G02X337733Y425426J-3973*
G01*
X339246*
G75*
G02X343220Y429399I3973*
G01*
G75*
G02X347193Y425426J-3973*
G01*
X348707*
G75*
G02X352680Y429399I3973*
G01*
G75*
G02X356653Y425426J-3973*
G01*
X358167*
G75*
G02X362140Y429399I3973*
G01*
G75*
G02X366113Y425426J-3973*
G01*
X367626*
G75*
G02X371600Y429399I3973*
G01*
G75*
G02X375573Y425426J-3973*
G01*
X377087*
G75*
G02X381060Y429399I3973*
G01*
G75*
G02X385033Y425426J-3973*
G01*
X386546*
G75*
G02X390520Y429399I3973*
G01*
G75*
G02X394493Y425426J-3973*
G01*
X396007*
G75*
G02X399980Y429399I3973*
G01*
G75*
G02X403953Y425426J-3973*
G01*
X405467*
G75*
G02X409440Y429399I3973*
G01*
G75*
G02X413413Y425426J-3973*
G01*
X414926*
G75*
G02X418900Y429399I3973*
G01*
G75*
G02X422873Y425426J-3973*
G01*
X435475*
Y449076*
X403953*
G75*
G02X396007I-3973*
G01*
X394493*
G75*
G02X386546I-3973*
G01*
X385033*
G75*
G02X377087I-3973*
G01*
X375573*
G75*
G02X367626I-3973*
G01*
X366113*
G75*
G02X358167I-3973*
G01*
X356653*
G75*
G02X348707I-3973*
G01*
X317110*
G37*
Y465428D02*
G36*
Y449076D01*
X348707*
G75*
G02X356653I3973*
G01*
X358167*
G75*
G02X366113I3973*
G01*
X367626*
G75*
G02X375573I3973*
G01*
X377087*
G75*
G02X385033I3973*
G01*
X386546*
G75*
G02X394493I3973*
G01*
X396007*
G75*
G02X403953I3973*
G01*
X435475*
Y465428*
X317110*
G37*
D02*
D23*
X95328Y146095D02*
X93057D01*
X95328Y239206D02*
X93057D01*
X95328Y332316D02*
X93057D01*
X95328Y425426D02*
X93057D01*
X97409Y144014D02*
Y141744D01*
Y148176D02*
Y150447D01*
Y237124D02*
Y234854D01*
Y241287D02*
Y243557D01*
Y330235D02*
Y327964D01*
Y334397D02*
Y336667D01*
Y423345D02*
Y421074D01*
Y427507D02*
Y429778D01*
X99490Y146095D02*
X101760D01*
X99490Y239206D02*
X101760D01*
X99490Y332316D02*
X101760D01*
X99490Y425426D02*
X101760D01*
X104787Y146095D02*
X102517D01*
X104787Y239206D02*
X102517D01*
X104787Y332316D02*
X102517D01*
X104787Y425426D02*
X102517D01*
X106869Y144014D02*
Y141744D01*
Y148176D02*
Y150447D01*
Y237124D02*
Y234854D01*
Y241287D02*
Y243557D01*
Y330235D02*
Y327964D01*
Y334397D02*
Y336667D01*
Y423345D02*
Y421074D01*
Y427507D02*
Y429778D01*
X108950Y146095D02*
X111220D01*
X108950Y239206D02*
X111220D01*
X108950Y332316D02*
X111220D01*
X108950Y425426D02*
X111220D01*
X114248Y146095D02*
X111977D01*
X114248Y239206D02*
X111977D01*
X114248Y332316D02*
X111977D01*
X114248Y425426D02*
X111977D01*
X116329Y144014D02*
Y141744D01*
Y148176D02*
Y150447D01*
Y237124D02*
Y234854D01*
Y241287D02*
Y243557D01*
Y330235D02*
Y327964D01*
Y334397D02*
Y336667D01*
Y423345D02*
Y421074D01*
Y427507D02*
Y429778D01*
X118410Y146095D02*
X120680D01*
X118410Y239206D02*
X120680D01*
X118410Y332316D02*
X120680D01*
X118410Y425426D02*
X120680D01*
X123707Y146095D02*
X121437D01*
X123707Y169745D02*
X121437D01*
X123707Y239206D02*
X121437D01*
X123707Y262856D02*
X121437D01*
X123707Y332316D02*
X121437D01*
X123707Y355966D02*
X121437D01*
X123707Y425426D02*
X121437D01*
X123707Y449076D02*
X121437D01*
X125789Y105852D02*
Y103582D01*
Y144014D02*
Y141744D01*
Y148176D02*
Y150447D01*
Y167664D02*
Y165394D01*
Y171826D02*
Y174097D01*
Y198963D02*
Y196692D01*
Y237124D02*
Y234854D01*
Y241287D02*
Y243557D01*
Y260774D02*
Y258504D01*
Y264937D02*
Y267207D01*
Y292073D02*
Y289802D01*
Y330235D02*
Y327964D01*
Y334397D02*
Y336667D01*
Y353885D02*
Y351614D01*
Y358047D02*
Y360317D01*
Y385183D02*
Y382913D01*
Y423345D02*
Y421074D01*
Y427507D02*
Y429778D01*
Y446995D02*
Y444724D01*
Y451157D02*
Y453428D01*
X127870Y146095D02*
X130140D01*
X127870Y169745D02*
X130140D01*
X127870Y239206D02*
X130140D01*
X127870Y262856D02*
X130140D01*
X127870Y332316D02*
X130140D01*
X127870Y355966D02*
X130140D01*
X127870Y425426D02*
X130140D01*
X127870Y449076D02*
X130140D01*
X130519Y105852D02*
Y103582D01*
Y198963D02*
Y196692D01*
Y292073D02*
Y289802D01*
Y385183D02*
Y382913D01*
X133168Y146095D02*
X130897D01*
X133168Y239206D02*
X130897D01*
X133168Y332316D02*
X130897D01*
X133168Y425426D02*
X130897D01*
X135249Y144014D02*
Y141744D01*
Y148176D02*
Y150447D01*
Y237124D02*
Y234854D01*
Y241287D02*
Y243557D01*
Y330235D02*
Y327964D01*
Y334397D02*
Y336667D01*
Y423345D02*
Y421074D01*
Y427507D02*
Y429778D01*
X137330Y146095D02*
X139600D01*
X137330Y239206D02*
X139600D01*
X137330Y332316D02*
X139600D01*
X137330Y425426D02*
X139600D01*
X139979Y105852D02*
Y103582D01*
Y198963D02*
Y196692D01*
Y292073D02*
Y289802D01*
Y385183D02*
Y382913D01*
X141209Y107082D02*
X143479D01*
X141209Y200193D02*
X143479D01*
X141209Y293303D02*
X143479D01*
X141209Y386413D02*
X143479D01*
X142628Y146095D02*
X140357D01*
X142628Y239206D02*
X140357D01*
X142628Y332316D02*
X140357D01*
X142628Y425426D02*
X140357D01*
X144709Y144014D02*
Y141744D01*
Y148176D02*
Y150447D01*
Y237124D02*
Y234854D01*
Y241287D02*
Y243557D01*
Y330235D02*
Y327964D01*
Y334397D02*
Y336667D01*
Y423345D02*
Y421074D01*
Y427507D02*
Y429778D01*
X146790Y146095D02*
X149060D01*
X146790Y239206D02*
X149060D01*
X146790Y332316D02*
X149060D01*
X146790Y425426D02*
X149060D01*
X152087Y146095D02*
X149817D01*
X152087Y239206D02*
X149817D01*
X152087Y332316D02*
X149817D01*
X152087Y425426D02*
X149817D01*
X154169Y144014D02*
Y141744D01*
Y148176D02*
Y150447D01*
Y237124D02*
Y234854D01*
Y241287D02*
Y243557D01*
Y330235D02*
Y327964D01*
Y334397D02*
Y336667D01*
Y423345D02*
Y421074D01*
Y427507D02*
Y429778D01*
X156250Y146095D02*
X158520D01*
X156250Y239206D02*
X158520D01*
X156250Y332316D02*
X158520D01*
X156250Y425426D02*
X158520D01*
X161548Y146095D02*
X159277D01*
X161548Y239206D02*
X159277D01*
X161548Y332316D02*
X159277D01*
X161548Y425426D02*
X159277D01*
X163629Y144014D02*
Y141744D01*
Y148176D02*
Y150447D01*
Y237124D02*
Y234854D01*
Y241287D02*
Y243557D01*
Y330235D02*
Y327964D01*
Y334397D02*
Y336667D01*
Y423345D02*
Y421074D01*
Y427507D02*
Y429778D01*
X165710Y146095D02*
X167980D01*
X165710Y239206D02*
X167980D01*
X165710Y332316D02*
X167980D01*
X165710Y425426D02*
X167980D01*
X171007Y146095D02*
X168737D01*
X171007Y239206D02*
X168737D01*
X171007Y332316D02*
X168737D01*
X171007Y425426D02*
X168737D01*
X173089Y144014D02*
Y141744D01*
Y148176D02*
Y150447D01*
Y237124D02*
Y234854D01*
Y241287D02*
Y243557D01*
Y330235D02*
Y327964D01*
Y334397D02*
Y336667D01*
Y423345D02*
Y421074D01*
Y427507D02*
Y429778D01*
X175170Y146095D02*
X177440D01*
X175170Y239206D02*
X177440D01*
X175170Y332316D02*
X177440D01*
X175170Y425426D02*
X177440D01*
X218233Y146095D02*
X215963D01*
X218233Y239206D02*
X215963D01*
X218233Y332316D02*
X215963D01*
X218233Y425426D02*
X215963D01*
X220314Y144014D02*
Y141744D01*
Y148176D02*
Y150447D01*
Y237124D02*
Y234854D01*
Y241287D02*
Y243557D01*
Y330235D02*
Y327964D01*
Y334397D02*
Y336667D01*
Y423345D02*
Y421074D01*
Y427507D02*
Y429778D01*
X222395Y146095D02*
X224666D01*
X222395Y239206D02*
X224666D01*
X222395Y332316D02*
X224666D01*
X222395Y425426D02*
X224666D01*
X227693Y146095D02*
X225423D01*
X227693Y239206D02*
X225423D01*
X227693Y332316D02*
X225423D01*
X227693Y425426D02*
X225423D01*
X229774Y144014D02*
Y141744D01*
Y148176D02*
Y150447D01*
Y237124D02*
Y234854D01*
Y241287D02*
Y243557D01*
Y330235D02*
Y327964D01*
Y334397D02*
Y336667D01*
Y423345D02*
Y421074D01*
Y427507D02*
Y429778D01*
X231856Y146095D02*
X234126D01*
X231856Y239206D02*
X234126D01*
X231856Y332316D02*
X234126D01*
X231856Y425426D02*
X234126D01*
X237153Y146095D02*
X234883D01*
X237153Y239206D02*
X234883D01*
X237153Y332316D02*
X234883D01*
X237153Y425426D02*
X234883D01*
X239234Y144014D02*
Y141744D01*
Y148176D02*
Y150447D01*
Y237124D02*
Y234854D01*
Y241287D02*
Y243557D01*
Y330235D02*
Y327964D01*
Y334397D02*
Y336667D01*
Y423345D02*
Y421074D01*
Y427507D02*
Y429778D01*
X241315Y146095D02*
X243586D01*
X241315Y239206D02*
X243586D01*
X241315Y332316D02*
X243586D01*
X241315Y425426D02*
X243586D01*
X246613Y146095D02*
X244343D01*
X246613Y169745D02*
X244343D01*
X246613Y239206D02*
X244343D01*
X246613Y262856D02*
X244343D01*
X246613Y332316D02*
X244343D01*
X246613Y355966D02*
X244343D01*
X246613Y425426D02*
X244343D01*
X246613Y449076D02*
X244343D01*
X248694Y105852D02*
Y103582D01*
Y144014D02*
Y141744D01*
Y148176D02*
Y150447D01*
Y167664D02*
Y165394D01*
Y171826D02*
Y174097D01*
Y198963D02*
Y196692D01*
Y237124D02*
Y234854D01*
Y241287D02*
Y243557D01*
Y260774D02*
Y258504D01*
Y264937D02*
Y267207D01*
Y292073D02*
Y289802D01*
Y330235D02*
Y327964D01*
Y334397D02*
Y336667D01*
Y353885D02*
Y351614D01*
Y358047D02*
Y360317D01*
Y385183D02*
Y382913D01*
Y423345D02*
Y421074D01*
Y427507D02*
Y429778D01*
Y446995D02*
Y444724D01*
Y451157D02*
Y453428D01*
X250776Y146095D02*
X253046D01*
X250776Y169745D02*
X253046D01*
X250776Y239206D02*
X253046D01*
X250776Y262856D02*
X253046D01*
X250776Y332316D02*
X253046D01*
X250776Y355966D02*
X253046D01*
X250776Y425426D02*
X253046D01*
X250776Y449076D02*
X253046D01*
X253424Y105852D02*
Y103582D01*
Y198963D02*
Y196692D01*
Y292073D02*
Y289802D01*
Y385183D02*
Y382913D01*
X256073Y146095D02*
X253803D01*
X256073Y239206D02*
X253803D01*
X256073Y332316D02*
X253803D01*
X256073Y425426D02*
X253803D01*
X258154Y144014D02*
Y141744D01*
Y148176D02*
Y150447D01*
Y237124D02*
Y234854D01*
Y241287D02*
Y243557D01*
Y330235D02*
Y327964D01*
Y334397D02*
Y336667D01*
Y423345D02*
Y421074D01*
Y427507D02*
Y429778D01*
X260235Y146095D02*
X262506D01*
X260235Y239206D02*
X262506D01*
X260235Y332316D02*
X262506D01*
X260235Y425426D02*
X262506D01*
X262884Y105852D02*
Y103582D01*
Y198963D02*
Y196692D01*
Y292073D02*
Y289802D01*
Y385183D02*
Y382913D01*
X264114Y107082D02*
X266385D01*
X264114Y200193D02*
X266385D01*
X264114Y293303D02*
X266385D01*
X264114Y386413D02*
X266385D01*
X265533Y146095D02*
X263263D01*
X265533Y239206D02*
X263263D01*
X265533Y332316D02*
X263263D01*
X265533Y425426D02*
X263263D01*
X267614Y144014D02*
Y141744D01*
Y148176D02*
Y150447D01*
Y237124D02*
Y234854D01*
Y241287D02*
Y243557D01*
Y330235D02*
Y327964D01*
Y334397D02*
Y336667D01*
Y423345D02*
Y421074D01*
Y427507D02*
Y429778D01*
X269695Y146095D02*
X271966D01*
X269695Y239206D02*
X271966D01*
X269695Y332316D02*
X271966D01*
X269695Y425426D02*
X271966D01*
X274993Y146095D02*
X272723D01*
X274993Y239206D02*
X272723D01*
X274993Y332316D02*
X272723D01*
X274993Y425426D02*
X272723D01*
X277074Y144014D02*
Y141744D01*
Y148176D02*
Y150447D01*
Y237124D02*
Y234854D01*
Y241287D02*
Y243557D01*
Y330235D02*
Y327964D01*
Y334397D02*
Y336667D01*
Y423345D02*
Y421074D01*
Y427507D02*
Y429778D01*
X279156Y146095D02*
X281426D01*
X279156Y239206D02*
X281426D01*
X279156Y332316D02*
X281426D01*
X279156Y425426D02*
X281426D01*
X284453Y146095D02*
X282183D01*
X284453Y239206D02*
X282183D01*
X284453Y332316D02*
X282183D01*
X284453Y425426D02*
X282183D01*
X286534Y144014D02*
Y141744D01*
Y148176D02*
Y150447D01*
Y237124D02*
Y234854D01*
Y241287D02*
Y243557D01*
Y330235D02*
Y327964D01*
Y334397D02*
Y336667D01*
Y423345D02*
Y421074D01*
Y427507D02*
Y429778D01*
X288615Y146095D02*
X290886D01*
X288615Y239206D02*
X290886D01*
X288615Y332316D02*
X290886D01*
X288615Y425426D02*
X290886D01*
X293913Y146095D02*
X291643D01*
X293913Y239206D02*
X291643D01*
X293913Y332316D02*
X291643D01*
X293913Y425426D02*
X291643D01*
X295994Y144014D02*
Y141744D01*
Y148176D02*
Y150447D01*
Y237124D02*
Y234854D01*
Y241287D02*
Y243557D01*
Y330235D02*
Y327964D01*
Y334397D02*
Y336667D01*
Y423345D02*
Y421074D01*
Y427507D02*
Y429778D01*
X298076Y146095D02*
X300346D01*
X298076Y239206D02*
X300346D01*
X298076Y332316D02*
X300346D01*
X298076Y425426D02*
X300346D01*
X341139Y146095D02*
X338868D01*
X341139Y239206D02*
X338868D01*
X341139Y332316D02*
X338868D01*
X341139Y425426D02*
X338868D01*
X343220Y144014D02*
Y141744D01*
Y148176D02*
Y150447D01*
Y237124D02*
Y234854D01*
Y241287D02*
Y243557D01*
Y330235D02*
Y327964D01*
Y334397D02*
Y336667D01*
Y423345D02*
Y421074D01*
Y427507D02*
Y429778D01*
X345301Y146095D02*
X347571D01*
X345301Y239206D02*
X347571D01*
X345301Y332316D02*
X347571D01*
X345301Y425426D02*
X347571D01*
X350598Y146095D02*
X348328D01*
X350598Y239206D02*
X348328D01*
X350598Y332316D02*
X348328D01*
X350598Y425426D02*
X348328D01*
X352680Y144014D02*
Y141744D01*
Y148176D02*
Y150447D01*
Y237124D02*
Y234854D01*
Y241287D02*
Y243557D01*
Y330235D02*
Y327964D01*
Y334397D02*
Y336667D01*
Y423345D02*
Y421074D01*
Y427507D02*
Y429778D01*
X354761Y146095D02*
X357031D01*
X354761Y239206D02*
X357031D01*
X354761Y332316D02*
X357031D01*
X354761Y425426D02*
X357031D01*
X360059Y146095D02*
X357788D01*
X360059Y239206D02*
X357788D01*
X360059Y332316D02*
X357788D01*
X360059Y425426D02*
X357788D01*
X362140Y144014D02*
Y141744D01*
Y148176D02*
Y150447D01*
Y237124D02*
Y234854D01*
Y241287D02*
Y243557D01*
Y330235D02*
Y327964D01*
Y334397D02*
Y336667D01*
Y423345D02*
Y421074D01*
Y427507D02*
Y429778D01*
X364221Y146095D02*
X366491D01*
X364221Y239206D02*
X366491D01*
X364221Y332316D02*
X366491D01*
X364221Y425426D02*
X366491D01*
X369519Y146095D02*
X367248D01*
X369519Y169745D02*
X367248D01*
X369519Y239206D02*
X367248D01*
X369519Y262856D02*
X367248D01*
X369519Y332316D02*
X367248D01*
X369519Y355966D02*
X367248D01*
X369519Y425426D02*
X367248D01*
X369519Y449076D02*
X367248D01*
X371600Y105852D02*
Y103582D01*
Y144014D02*
Y141744D01*
Y148176D02*
Y150447D01*
Y167664D02*
Y165394D01*
Y171826D02*
Y174097D01*
Y198963D02*
Y196692D01*
Y237124D02*
Y234854D01*
Y241287D02*
Y243557D01*
Y260774D02*
Y258504D01*
Y264937D02*
Y267207D01*
Y292073D02*
Y289802D01*
Y330235D02*
Y327964D01*
Y334397D02*
Y336667D01*
Y353885D02*
Y351614D01*
Y358047D02*
Y360317D01*
Y385183D02*
Y382913D01*
Y423345D02*
Y421074D01*
Y427507D02*
Y429778D01*
Y446995D02*
Y444724D01*
Y451157D02*
Y453428D01*
X373681Y146095D02*
X375951D01*
X373681Y169745D02*
X375951D01*
X373681Y239206D02*
X375951D01*
X373681Y262856D02*
X375951D01*
X373681Y332316D02*
X375951D01*
X373681Y355966D02*
X375951D01*
X373681Y425426D02*
X375951D01*
X373681Y449076D02*
X375951D01*
X376330Y105852D02*
Y103582D01*
Y198963D02*
Y196692D01*
Y292073D02*
Y289802D01*
Y385183D02*
Y382913D01*
X378979Y146095D02*
X376708D01*
X378979Y239206D02*
X376708D01*
X378979Y332316D02*
X376708D01*
X378979Y425426D02*
X376708D01*
X381060Y144014D02*
Y141744D01*
Y148176D02*
Y150447D01*
Y237124D02*
Y234854D01*
Y241287D02*
Y243557D01*
Y330235D02*
Y327964D01*
Y334397D02*
Y336667D01*
Y423345D02*
Y421074D01*
Y427507D02*
Y429778D01*
X383141Y146095D02*
X385411D01*
X383141Y239206D02*
X385411D01*
X383141Y332316D02*
X385411D01*
X383141Y425426D02*
X385411D01*
X385790Y105852D02*
Y103582D01*
Y198963D02*
Y196692D01*
Y292073D02*
Y289802D01*
Y385183D02*
Y382913D01*
X387020Y107082D02*
X389290D01*
X387020Y200193D02*
X389290D01*
X387020Y293303D02*
X389290D01*
X387020Y386413D02*
X389290D01*
X388439Y146095D02*
X386168D01*
X388439Y239206D02*
X386168D01*
X388439Y332316D02*
X386168D01*
X388439Y425426D02*
X386168D01*
X390520Y144014D02*
Y141744D01*
Y148176D02*
Y150447D01*
Y237124D02*
Y234854D01*
Y241287D02*
Y243557D01*
Y330235D02*
Y327964D01*
Y334397D02*
Y336667D01*
Y423345D02*
Y421074D01*
Y427507D02*
Y429778D01*
X392601Y146095D02*
X394871D01*
X392601Y239206D02*
X394871D01*
X392601Y332316D02*
X394871D01*
X392601Y425426D02*
X394871D01*
X397898Y146095D02*
X395628D01*
X397898Y239206D02*
X395628D01*
X397898Y332316D02*
X395628D01*
X397898Y425426D02*
X395628D01*
X399980Y144014D02*
Y141744D01*
Y148176D02*
Y150447D01*
Y237124D02*
Y234854D01*
Y241287D02*
Y243557D01*
Y330235D02*
Y327964D01*
Y334397D02*
Y336667D01*
Y423345D02*
Y421074D01*
Y427507D02*
Y429778D01*
X402061Y146095D02*
X404331D01*
X402061Y239206D02*
X404331D01*
X402061Y332316D02*
X404331D01*
X402061Y425426D02*
X404331D01*
X407359Y146095D02*
X405088D01*
X407359Y239206D02*
X405088D01*
X407359Y332316D02*
X405088D01*
X407359Y425426D02*
X405088D01*
X409440Y144014D02*
Y141744D01*
Y148176D02*
Y150447D01*
Y237124D02*
Y234854D01*
Y241287D02*
Y243557D01*
Y330235D02*
Y327964D01*
Y334397D02*
Y336667D01*
Y423345D02*
Y421074D01*
Y427507D02*
Y429778D01*
X411521Y146095D02*
X413791D01*
X411521Y239206D02*
X413791D01*
X411521Y332316D02*
X413791D01*
X411521Y425426D02*
X413791D01*
X416819Y146095D02*
X414548D01*
X416819Y239206D02*
X414548D01*
X416819Y332316D02*
X414548D01*
X416819Y425426D02*
X414548D01*
X418900Y144014D02*
Y141744D01*
Y148176D02*
Y150447D01*
Y237124D02*
Y234854D01*
Y241287D02*
Y243557D01*
Y330235D02*
Y327964D01*
Y334397D02*
Y336667D01*
Y423345D02*
Y421074D01*
Y427507D02*
Y429778D01*
X420981Y146095D02*
X423251D01*
X420981Y239206D02*
X423251D01*
X420981Y332316D02*
X423251D01*
X420981Y425426D02*
X423251D01*
D02*
D24*
X87949Y136635D03*
Y146095D03*
Y229746D03*
Y239206D03*
Y322856D03*
Y332316D03*
Y415966D03*
Y425426D03*
X97409Y136635D03*
Y146095D03*
Y229746D03*
Y239206D03*
Y322856D03*
Y332316D03*
Y415966D03*
Y425426D03*
X106869Y136635D03*
Y146095D03*
Y169745D03*
Y229746D03*
Y239206D03*
Y262856D03*
Y322856D03*
Y332316D03*
Y355966D03*
Y415966D03*
Y425426D03*
Y449076D03*
X116329Y136635D03*
Y146095D03*
Y169745D03*
Y229746D03*
Y239206D03*
Y262856D03*
Y322856D03*
Y332316D03*
Y355966D03*
Y415966D03*
Y425426D03*
Y449076D03*
X125789Y136635D03*
Y146095D03*
Y169745D03*
Y229746D03*
Y239206D03*
Y262856D03*
Y322856D03*
Y332316D03*
Y355966D03*
Y415966D03*
Y425426D03*
Y449076D03*
X135249Y136635D03*
Y146095D03*
Y169745D03*
Y229746D03*
Y239206D03*
Y262856D03*
Y322856D03*
Y332316D03*
Y355966D03*
Y415966D03*
Y425426D03*
Y449076D03*
X144709Y136635D03*
Y146095D03*
Y169745D03*
Y229746D03*
Y239206D03*
Y262856D03*
Y322856D03*
Y332316D03*
Y355966D03*
Y415966D03*
Y425426D03*
Y449076D03*
X154169Y136635D03*
Y146095D03*
Y169745D03*
Y229746D03*
Y239206D03*
Y262856D03*
Y322856D03*
Y332316D03*
Y355966D03*
Y415966D03*
Y425426D03*
Y449076D03*
X163629Y136635D03*
Y146095D03*
Y229746D03*
Y239206D03*
Y322856D03*
Y332316D03*
Y415966D03*
Y425426D03*
X173089Y136635D03*
Y146095D03*
Y229746D03*
Y239206D03*
Y322856D03*
Y332316D03*
Y415966D03*
Y425426D03*
X210854Y136635D03*
Y146095D03*
Y229746D03*
Y239206D03*
Y322856D03*
Y332316D03*
Y415966D03*
Y425426D03*
X220314Y136635D03*
Y146095D03*
Y229746D03*
Y239206D03*
Y322856D03*
Y332316D03*
Y415966D03*
Y425426D03*
X229774Y136635D03*
Y146095D03*
Y169745D03*
Y229746D03*
Y239206D03*
Y262856D03*
Y322856D03*
Y332316D03*
Y355966D03*
Y415966D03*
Y425426D03*
Y449076D03*
X239234Y136635D03*
Y146095D03*
Y169745D03*
Y229746D03*
Y239206D03*
Y262856D03*
Y322856D03*
Y332316D03*
Y355966D03*
Y415966D03*
Y425426D03*
Y449076D03*
X248694Y136635D03*
Y146095D03*
Y169745D03*
Y229746D03*
Y239206D03*
Y262856D03*
Y322856D03*
Y332316D03*
Y355966D03*
Y415966D03*
Y425426D03*
Y449076D03*
X258154Y136635D03*
Y146095D03*
Y169745D03*
Y229746D03*
Y239206D03*
Y262856D03*
Y322856D03*
Y332316D03*
Y355966D03*
Y415966D03*
Y425426D03*
Y449076D03*
X267614Y136635D03*
Y146095D03*
Y169745D03*
Y229746D03*
Y239206D03*
Y262856D03*
Y322856D03*
Y332316D03*
Y355966D03*
Y415966D03*
Y425426D03*
Y449076D03*
X277074Y136635D03*
Y146095D03*
Y169745D03*
Y229746D03*
Y239206D03*
Y262856D03*
Y322856D03*
Y332316D03*
Y355966D03*
Y415966D03*
Y425426D03*
Y449076D03*
X286534Y136635D03*
Y146095D03*
Y229746D03*
Y239206D03*
Y322856D03*
Y332316D03*
Y415966D03*
Y425426D03*
X295994Y136635D03*
Y146095D03*
Y229746D03*
Y239206D03*
Y322856D03*
Y332316D03*
Y415966D03*
Y425426D03*
X333760Y136635D03*
Y146095D03*
Y229746D03*
Y239206D03*
Y322856D03*
Y332316D03*
Y415966D03*
Y425426D03*
X343220Y136635D03*
Y146095D03*
Y229746D03*
Y239206D03*
Y322856D03*
Y332316D03*
Y415966D03*
Y425426D03*
X352680Y136635D03*
Y146095D03*
Y169745D03*
Y229746D03*
Y239206D03*
Y262856D03*
Y322856D03*
Y332316D03*
Y355966D03*
Y415966D03*
Y425426D03*
Y449076D03*
X362140Y136635D03*
Y146095D03*
Y169745D03*
Y229746D03*
Y239206D03*
Y262856D03*
Y322856D03*
Y332316D03*
Y355966D03*
Y415966D03*
Y425426D03*
Y449076D03*
X371600Y136635D03*
Y146095D03*
Y169745D03*
Y229746D03*
Y239206D03*
Y262856D03*
Y322856D03*
Y332316D03*
Y355966D03*
Y415966D03*
Y425426D03*
Y449076D03*
X381060Y136635D03*
Y146095D03*
Y169745D03*
Y229746D03*
Y239206D03*
Y262856D03*
Y322856D03*
Y332316D03*
Y355966D03*
Y415966D03*
Y425426D03*
Y449076D03*
X390520Y136635D03*
Y146095D03*
Y169745D03*
Y229746D03*
Y239206D03*
Y262856D03*
Y322856D03*
Y332316D03*
Y355966D03*
Y415966D03*
Y425426D03*
Y449076D03*
X399980Y136635D03*
Y146095D03*
Y169745D03*
Y229746D03*
Y239206D03*
Y262856D03*
Y322856D03*
Y332316D03*
Y355966D03*
Y415966D03*
Y425426D03*
Y449076D03*
X409440Y136635D03*
Y146095D03*
Y229746D03*
Y239206D03*
Y322856D03*
Y332316D03*
Y415966D03*
Y425426D03*
X418900Y136635D03*
Y146095D03*
Y229746D03*
Y239206D03*
Y322856D03*
Y332316D03*
Y415966D03*
Y425426D03*
D02*
D25*
X121059Y107082D03*
Y111812D03*
Y200193D03*
Y204922D03*
Y293303D03*
Y298033D03*
Y386413D03*
Y391143D03*
X125789Y107082D03*
Y111812D03*
Y200193D03*
Y204922D03*
Y293303D03*
Y298033D03*
Y386413D03*
Y391143D03*
X130519Y107082D03*
Y111812D03*
Y200193D03*
Y204922D03*
Y293303D03*
Y298033D03*
Y386413D03*
Y391143D03*
X135249Y107082D03*
Y111812D03*
Y200193D03*
Y204922D03*
Y293303D03*
Y298033D03*
Y386413D03*
Y391143D03*
X139979Y107082D03*
Y111812D03*
Y200193D03*
Y204922D03*
Y293303D03*
Y298033D03*
Y386413D03*
Y391143D03*
X243964Y107082D03*
Y111812D03*
Y200193D03*
Y204922D03*
Y293303D03*
Y298033D03*
Y386413D03*
Y391143D03*
X248694Y107082D03*
Y111812D03*
Y200193D03*
Y204922D03*
Y293303D03*
Y298033D03*
Y386413D03*
Y391143D03*
X253424Y107082D03*
Y111812D03*
Y200193D03*
Y204922D03*
Y293303D03*
Y298033D03*
Y386413D03*
Y391143D03*
X258154Y107082D03*
Y111812D03*
Y200193D03*
Y204922D03*
Y293303D03*
Y298033D03*
Y386413D03*
Y391143D03*
X262884Y107082D03*
Y111812D03*
Y200193D03*
Y204922D03*
Y293303D03*
Y298033D03*
Y386413D03*
Y391143D03*
X366870Y107082D03*
Y111812D03*
Y200193D03*
Y204922D03*
Y293303D03*
Y298033D03*
Y386413D03*
Y391143D03*
X371600Y107082D03*
Y111812D03*
Y200193D03*
Y204922D03*
Y293303D03*
Y298033D03*
Y386413D03*
Y391143D03*
X376330Y107082D03*
Y111812D03*
Y200193D03*
Y204922D03*
Y293303D03*
Y298033D03*
Y386413D03*
Y391143D03*
X381060Y107082D03*
Y111812D03*
Y200193D03*
Y204922D03*
Y293303D03*
Y298033D03*
Y386413D03*
Y391143D03*
X385790Y107082D03*
Y111812D03*
Y200193D03*
Y204922D03*
Y293303D03*
Y298033D03*
Y386413D03*
Y391143D03*
D02*
D26*
X76478Y102706D03*
Y121328D03*
Y143674D03*
Y162296D03*
Y180919D03*
Y195816D03*
Y214438D03*
Y236785D03*
Y255407D03*
Y274029D03*
Y288926D03*
Y307548D03*
Y329895D03*
Y348517D03*
Y367139D03*
Y382037D03*
Y400659D03*
Y423005D03*
Y441627D03*
Y460249D03*
X94746Y121328D03*
Y214438D03*
Y307548D03*
Y400659D03*
X95100Y102706D03*
Y162296D03*
Y180919D03*
Y195816D03*
Y255407D03*
Y274029D03*
Y288926D03*
Y348517D03*
Y367139D03*
Y382037D03*
Y441627D03*
Y460249D03*
X106571Y161468D03*
Y254578D03*
Y347688D03*
Y440798D03*
X111301Y112985D03*
Y206096D03*
Y299206D03*
Y392316D03*
X116031Y161468D03*
Y254578D03*
Y347688D03*
Y440798D03*
X125491Y161468D03*
Y254578D03*
Y347688D03*
Y440798D03*
X130221Y122445D03*
Y215556D03*
Y308666D03*
Y401776D03*
X139681Y180919D03*
Y274029D03*
Y367139D03*
Y460249D03*
X144709Y118898D03*
Y212008D03*
Y305118D03*
Y398228D03*
X146776Y161468D03*
Y254578D03*
Y347688D03*
Y440798D03*
X147241Y102706D03*
Y195816D03*
Y288926D03*
Y382037D03*
X158601Y161468D03*
Y254578D03*
Y347688D03*
Y440798D03*
X164781Y102706D03*
Y195816D03*
Y288926D03*
Y382037D03*
X165863Y180919D03*
Y274029D03*
Y367139D03*
Y460249D03*
X184485Y102278D03*
Y143674D03*
Y162296D03*
Y180919D03*
Y195388D03*
Y236785D03*
Y255407D03*
Y274029D03*
Y288498D03*
Y329895D03*
Y348517D03*
Y367139D03*
Y381608D03*
Y423005D03*
Y441627D03*
Y460249D03*
X199383Y102706D03*
Y121328D03*
Y143674D03*
Y162296D03*
Y180919D03*
Y195816D03*
Y214438D03*
Y236785D03*
Y255407D03*
Y274029D03*
Y288926D03*
Y307548D03*
Y329895D03*
Y348517D03*
Y367139D03*
Y382037D03*
Y400659D03*
Y423005D03*
Y441627D03*
Y460249D03*
X217651Y121328D03*
Y214438D03*
Y307548D03*
Y400659D03*
X218005Y102706D03*
Y162296D03*
Y180919D03*
Y195816D03*
Y255407D03*
Y274029D03*
Y288926D03*
Y348517D03*
Y367139D03*
Y382037D03*
Y441627D03*
Y460249D03*
X229476Y161468D03*
Y254578D03*
Y347688D03*
Y440798D03*
X234206Y112985D03*
Y206096D03*
Y299206D03*
Y392316D03*
X238936Y161468D03*
Y254578D03*
Y347688D03*
Y440798D03*
X248396Y161468D03*
Y254578D03*
Y347688D03*
Y440798D03*
X253126Y122445D03*
Y215556D03*
Y308666D03*
Y401776D03*
X262586Y180919D03*
Y274029D03*
Y367139D03*
Y460249D03*
X267614Y118898D03*
Y212008D03*
Y305118D03*
Y398228D03*
X269681Y161468D03*
Y254578D03*
Y347688D03*
Y440798D03*
X270147Y102706D03*
Y195816D03*
Y288926D03*
Y382037D03*
X281506Y161468D03*
Y254578D03*
Y347688D03*
Y440798D03*
X307391Y102706D03*
Y143674D03*
Y162296D03*
Y180919D03*
Y195816D03*
Y236785D03*
Y255407D03*
Y274029D03*
Y288926D03*
Y329895D03*
Y348517D03*
Y367139D03*
Y382037D03*
Y423005D03*
Y441627D03*
Y460249D03*
X322289Y102706D03*
Y121328D03*
Y143674D03*
Y162296D03*
Y180919D03*
Y195816D03*
Y214438D03*
Y236785D03*
Y255407D03*
Y274029D03*
Y288926D03*
Y307548D03*
Y329895D03*
Y348517D03*
Y367139D03*
Y382037D03*
Y400659D03*
Y423005D03*
Y441627D03*
Y460249D03*
X340557Y121328D03*
Y214438D03*
Y307548D03*
Y400659D03*
X340911Y102706D03*
Y162296D03*
Y180919D03*
Y195816D03*
Y255407D03*
Y274029D03*
Y288926D03*
Y348517D03*
Y367139D03*
Y382037D03*
Y441627D03*
Y460249D03*
X352382Y161468D03*
Y254578D03*
Y347688D03*
Y440798D03*
X357112Y112985D03*
Y206096D03*
Y299206D03*
Y392316D03*
X361842Y161468D03*
Y254578D03*
Y347688D03*
Y440798D03*
X371302Y161468D03*
Y254578D03*
Y347688D03*
Y440798D03*
X376032Y122445D03*
Y215556D03*
Y308666D03*
Y401776D03*
X385492Y180919D03*
Y274029D03*
Y367139D03*
Y460249D03*
X390520Y118898D03*
Y212008D03*
Y305118D03*
Y398228D03*
X392587Y161468D03*
Y254578D03*
Y347688D03*
Y440798D03*
X393052Y102706D03*
Y195816D03*
Y288926D03*
Y382037D03*
X404412Y161468D03*
Y254578D03*
Y347688D03*
Y440798D03*
X430296Y102706D03*
Y143674D03*
Y162296D03*
Y180919D03*
Y195816D03*
Y236785D03*
Y255407D03*
Y274029D03*
Y288926D03*
Y329895D03*
Y348517D03*
Y367139D03*
Y382037D03*
Y423005D03*
Y441627D03*
Y460249D03*
D02*
D27*
X106869Y136635D02*
Y130732D01*
X109234Y128367*
X132884*
X135249Y126002*
Y111812*
X106869Y229746D02*
Y223843D01*
X109234Y221478*
X132884*
X135249Y219112*
Y204922*
X106869Y322856D02*
Y316953D01*
X109234Y314588*
X132884*
X135249Y312222*
Y298033*
X106869Y415966D02*
Y410063D01*
X109234Y407698*
X132884*
X135249Y405333*
Y391143*
X229774Y136635D02*
Y130732D01*
X232139Y128367*
X255789*
X258154Y126002*
Y111812*
X229774Y229746D02*
Y223843D01*
X232139Y221478*
X255789*
X258154Y219112*
Y204922*
X229774Y322856D02*
Y316953D01*
X232139Y314588*
X255789*
X258154Y312222*
Y298033*
X229774Y415966D02*
Y410063D01*
X232139Y407698*
X255789*
X258154Y405333*
Y391143*
X352680Y136635D02*
Y130732D01*
X355045Y128367*
X378695*
X381060Y126002*
Y111812*
X352680Y229746D02*
Y223843D01*
X355045Y221478*
X378695*
X381060Y219112*
Y204922*
X352680Y322856D02*
Y316953D01*
X355045Y314588*
X378695*
X381060Y312222*
Y298033*
X352680Y415966D02*
Y410063D01*
X355045Y407698*
X378695*
X381060Y405333*
Y391143*
X0Y0D02*
M02*
