G04 EasyPC Gerber Version 21.0.3 Build 4286 *
%FSLAX35Y35*%
%MOIN*%
%ADD29C,0.04919*%
%ADD28C,0.06622*%
X0Y0D02*
D02*
D28*
X87949Y136635D03*
Y146095D03*
Y229746D03*
Y239206D03*
Y322856D03*
Y332316D03*
Y415966D03*
Y425426D03*
X97409Y136635D03*
Y146095D03*
Y229746D03*
Y239206D03*
Y322856D03*
Y332316D03*
Y415966D03*
Y425426D03*
X106869Y136635D03*
Y146095D03*
Y169745D03*
Y229746D03*
Y239206D03*
Y262856D03*
Y322856D03*
Y332316D03*
Y355966D03*
Y415966D03*
Y425426D03*
Y449076D03*
X116329Y136635D03*
Y146095D03*
Y169745D03*
Y229746D03*
Y239206D03*
Y262856D03*
Y322856D03*
Y332316D03*
Y355966D03*
Y415966D03*
Y425426D03*
Y449076D03*
X125789Y136635D03*
Y146095D03*
Y169745D03*
Y229746D03*
Y239206D03*
Y262856D03*
Y322856D03*
Y332316D03*
Y355966D03*
Y415966D03*
Y425426D03*
Y449076D03*
X135249Y136635D03*
Y146095D03*
Y169745D03*
Y229746D03*
Y239206D03*
Y262856D03*
Y322856D03*
Y332316D03*
Y355966D03*
Y415966D03*
Y425426D03*
Y449076D03*
X144709Y136635D03*
Y146095D03*
Y169745D03*
Y229746D03*
Y239206D03*
Y262856D03*
Y322856D03*
Y332316D03*
Y355966D03*
Y415966D03*
Y425426D03*
Y449076D03*
X154169Y136635D03*
Y146095D03*
Y169745D03*
Y229746D03*
Y239206D03*
Y262856D03*
Y322856D03*
Y332316D03*
Y355966D03*
Y415966D03*
Y425426D03*
Y449076D03*
X163629Y136635D03*
Y146095D03*
Y229746D03*
Y239206D03*
Y322856D03*
Y332316D03*
Y415966D03*
Y425426D03*
X173089Y136635D03*
Y146095D03*
Y229746D03*
Y239206D03*
Y322856D03*
Y332316D03*
Y415966D03*
Y425426D03*
X210854Y136635D03*
Y146095D03*
Y229746D03*
Y239206D03*
Y322856D03*
Y332316D03*
Y415966D03*
Y425426D03*
X220314Y136635D03*
Y146095D03*
Y229746D03*
Y239206D03*
Y322856D03*
Y332316D03*
Y415966D03*
Y425426D03*
X229774Y136635D03*
Y146095D03*
Y169745D03*
Y229746D03*
Y239206D03*
Y262856D03*
Y322856D03*
Y332316D03*
Y355966D03*
Y415966D03*
Y425426D03*
Y449076D03*
X239234Y136635D03*
Y146095D03*
Y169745D03*
Y229746D03*
Y239206D03*
Y262856D03*
Y322856D03*
Y332316D03*
Y355966D03*
Y415966D03*
Y425426D03*
Y449076D03*
X248694Y136635D03*
Y146095D03*
Y169745D03*
Y229746D03*
Y239206D03*
Y262856D03*
Y322856D03*
Y332316D03*
Y355966D03*
Y415966D03*
Y425426D03*
Y449076D03*
X258154Y136635D03*
Y146095D03*
Y169745D03*
Y229746D03*
Y239206D03*
Y262856D03*
Y322856D03*
Y332316D03*
Y355966D03*
Y415966D03*
Y425426D03*
Y449076D03*
X267614Y136635D03*
Y146095D03*
Y169745D03*
Y229746D03*
Y239206D03*
Y262856D03*
Y322856D03*
Y332316D03*
Y355966D03*
Y415966D03*
Y425426D03*
Y449076D03*
X277074Y136635D03*
Y146095D03*
Y169745D03*
Y229746D03*
Y239206D03*
Y262856D03*
Y322856D03*
Y332316D03*
Y355966D03*
Y415966D03*
Y425426D03*
Y449076D03*
X286534Y136635D03*
Y146095D03*
Y229746D03*
Y239206D03*
Y322856D03*
Y332316D03*
Y415966D03*
Y425426D03*
X295994Y136635D03*
Y146095D03*
Y229746D03*
Y239206D03*
Y322856D03*
Y332316D03*
Y415966D03*
Y425426D03*
X333760Y136635D03*
Y146095D03*
Y229746D03*
Y239206D03*
Y322856D03*
Y332316D03*
Y415966D03*
Y425426D03*
X343220Y136635D03*
Y146095D03*
Y229746D03*
Y239206D03*
Y322856D03*
Y332316D03*
Y415966D03*
Y425426D03*
X352680Y136635D03*
Y146095D03*
Y169745D03*
Y229746D03*
Y239206D03*
Y262856D03*
Y322856D03*
Y332316D03*
Y355966D03*
Y415966D03*
Y425426D03*
Y449076D03*
X362140Y136635D03*
Y146095D03*
Y169745D03*
Y229746D03*
Y239206D03*
Y262856D03*
Y322856D03*
Y332316D03*
Y355966D03*
Y415966D03*
Y425426D03*
Y449076D03*
X371600Y136635D03*
Y146095D03*
Y169745D03*
Y229746D03*
Y239206D03*
Y262856D03*
Y322856D03*
Y332316D03*
Y355966D03*
Y415966D03*
Y425426D03*
Y449076D03*
X381060Y136635D03*
Y146095D03*
Y169745D03*
Y229746D03*
Y239206D03*
Y262856D03*
Y322856D03*
Y332316D03*
Y355966D03*
Y415966D03*
Y425426D03*
Y449076D03*
X390520Y136635D03*
Y146095D03*
Y169745D03*
Y229746D03*
Y239206D03*
Y262856D03*
Y322856D03*
Y332316D03*
Y355966D03*
Y415966D03*
Y425426D03*
Y449076D03*
X399980Y136635D03*
Y146095D03*
Y169745D03*
Y229746D03*
Y239206D03*
Y262856D03*
Y322856D03*
Y332316D03*
Y355966D03*
Y415966D03*
Y425426D03*
Y449076D03*
X409440Y136635D03*
Y146095D03*
Y229746D03*
Y239206D03*
Y322856D03*
Y332316D03*
Y415966D03*
Y425426D03*
X418900Y136635D03*
Y146095D03*
Y229746D03*
Y239206D03*
Y322856D03*
Y332316D03*
Y415966D03*
Y425426D03*
D02*
D29*
X121059Y107082D03*
Y111812D03*
Y200193D03*
Y204922D03*
Y293303D03*
Y298033D03*
Y386413D03*
Y391143D03*
X125789Y107082D03*
Y111812D03*
Y200193D03*
Y204922D03*
Y293303D03*
Y298033D03*
Y386413D03*
Y391143D03*
X130519Y107082D03*
Y111812D03*
Y200193D03*
Y204922D03*
Y293303D03*
Y298033D03*
Y386413D03*
Y391143D03*
X135249Y107082D03*
Y111812D03*
Y200193D03*
Y204922D03*
Y293303D03*
Y298033D03*
Y386413D03*
Y391143D03*
X139979Y107082D03*
Y111812D03*
Y200193D03*
Y204922D03*
Y293303D03*
Y298033D03*
Y386413D03*
Y391143D03*
X243964Y107082D03*
Y111812D03*
Y200193D03*
Y204922D03*
Y293303D03*
Y298033D03*
Y386413D03*
Y391143D03*
X248694Y107082D03*
Y111812D03*
Y200193D03*
Y204922D03*
Y293303D03*
Y298033D03*
Y386413D03*
Y391143D03*
X253424Y107082D03*
Y111812D03*
Y200193D03*
Y204922D03*
Y293303D03*
Y298033D03*
Y386413D03*
Y391143D03*
X258154Y107082D03*
Y111812D03*
Y200193D03*
Y204922D03*
Y293303D03*
Y298033D03*
Y386413D03*
Y391143D03*
X262884Y107082D03*
Y111812D03*
Y200193D03*
Y204922D03*
Y293303D03*
Y298033D03*
Y386413D03*
Y391143D03*
X366870Y107082D03*
Y111812D03*
Y200193D03*
Y204922D03*
Y293303D03*
Y298033D03*
Y386413D03*
Y391143D03*
X371600Y107082D03*
Y111812D03*
Y200193D03*
Y204922D03*
Y293303D03*
Y298033D03*
Y386413D03*
Y391143D03*
X376330Y107082D03*
Y111812D03*
Y200193D03*
Y204922D03*
Y293303D03*
Y298033D03*
Y386413D03*
Y391143D03*
X381060Y107082D03*
Y111812D03*
Y200193D03*
Y204922D03*
Y293303D03*
Y298033D03*
Y386413D03*
Y391143D03*
X385790Y107082D03*
Y111812D03*
Y200193D03*
Y204922D03*
Y293303D03*
Y298033D03*
Y386413D03*
Y391143D03*
X0Y0D02*
M02*
