G04 EasyPC Gerber Version 21.0.3 Build 4286 *
%FSLAX35Y35*%
%MOIN*%
%ADD21C,0.00757*%
%ADD27C,0.01419*%
%ADD23C,0.01514*%
%ADD25C,0.03973*%
%ADD26C,0.04541*%
%ADD24C,0.05676*%
X0Y0D02*
D02*
D21*
X70921Y186475D02*
Y97149D01*
X190042*
Y186475*
X70921*
X160743Y148827D02*
G75*
G02X167602Y146095I2885J-2731D01*
G01*
G75*
G02X160743Y143364I-3973*
G01*
Y141365*
G75*
G02X160203Y140061I-1844J0*
G01*
X157961Y137819*
G75*
G02X156013Y133117I-3793J-1184*
G01*
Y118013*
G75*
G02X155473Y116709I-1844J0*
G01*
X149272Y110508*
G75*
G02X147967Y109967I-1304J1304*
G01*
X142497*
G75*
G02X142017Y109447I-2519J1845*
G01*
G75*
G02X143100Y107082I-2038J-2365*
G01*
G75*
G02X137614Y105044I-3122*
G01*
G75*
G02X132884I-2365J2038*
G01*
G75*
G02X128154I-2365J2038*
G01*
G75*
G02X123424I-2365J2038*
G01*
G75*
G02X118540Y105237I-2365J2038*
G01*
X93554*
G75*
G02X92250Y105778I0J1845*
G01*
X86644Y111383*
G75*
G02X86104Y112687I1304J1305*
G01*
Y133117*
G75*
G02Y140154I1845J3519*
G01*
Y142576*
G75*
G02Y149615I1845J3519*
G01*
Y165313*
G75*
G02X86644Y166618I1845J0*
G01*
X91076Y171050*
G75*
G02X92381Y171590I1304J-1304*
G01*
X103350*
G75*
G02X109754Y172477I3519J-1845*
G01*
Y175667*
G75*
G02X110294Y176971I1845J0*
G01*
X112659Y179337*
G75*
G02X113964Y179877I1304J-1304*
G01*
X132883*
G75*
G02X134188Y179337I0J-1844*
G01*
X136553Y176971*
G75*
G02X137093Y175667I-1304J-1304*
G01*
Y173264*
G75*
G02X139222Y169745I-1844J-3519*
G01*
G75*
G02X131276I-3973*
G01*
G75*
G02X133404Y173264I3973*
G01*
Y174903*
X132120Y176187*
X114728*
X113443Y174903*
Y172477*
G75*
G02X120187Y168794I2885J-2731*
G01*
X122363Y166618*
G75*
G02X122904Y165313I-1304J-1305*
G01*
Y148827*
G75*
G02X129762Y146095I2885J-2731*
G01*
G75*
G02X122904Y143364I-3973*
G01*
Y142428*
X124838Y140493*
G75*
G02X127633Y133117I951J-3857*
G01*
Y114331*
G75*
G02X128154Y113850I-1845J-2519*
G01*
G75*
G02X128674Y114331I2365J-2037*
G01*
Y116533*
G75*
G02X129215Y117837I1845J0*
G01*
X131580Y120202*
G75*
G02X132884Y120743I1304J-1304*
G01*
X137734*
X142864Y125872*
Y133117*
G75*
G02X146114Y140352I1844J3519*
G01*
X147594Y141831*
Y143364*
G75*
G02X140735Y146095I-2885J2731*
G01*
G75*
G02X147594Y148827I3973*
G01*
Y154382*
G75*
G02X148135Y155687I1844J0*
G01*
X152324Y159876*
Y166226*
G75*
G02X150196Y169745I1845J3519*
G01*
G75*
G02X158142I3973*
G01*
G75*
G02X156013Y166226I-3973*
G01*
Y159112*
G75*
G02X155473Y157808I-1844J0*
G01*
X151283Y153618*
Y148827*
G75*
G02X157054I2885J-2731*
G01*
Y152008*
G75*
G02X157594Y153312I1845J0*
G01*
X161784Y157502*
Y174903*
X160500Y176187*
X147838*
X146554Y174903*
Y173264*
G75*
G02X148682Y169745I-1845J-3519*
G01*
G75*
G02X140735I-3973*
G01*
G75*
G02X142864Y173264I3973*
G01*
Y175667*
G75*
G02X143404Y176971I1844J0*
G01*
X145769Y179337*
G75*
G02X147074Y179877I1304J-1304*
G01*
X161263*
G75*
G02X162568Y179337I0J-1844*
G01*
X164933Y176971*
G75*
G02X165474Y175667I-1304J-1304*
G01*
Y156738*
G75*
G02X164933Y155433I-1845J0*
G01*
X160743Y151244*
Y148827*
X121815Y169745D02*
G75*
G02X129762I3973D01*
G01*
G75*
G02X121815I-3973*
G01*
X135249Y140609D02*
G75*
G02X139222Y136635J-3973D01*
G01*
G75*
G02X135249Y132662I-3973*
G01*
G75*
G02X131276Y136635J3973*
G01*
G75*
G02X135249Y140609I3973*
G01*
Y150069D02*
G75*
G02X139222Y146095J-3973D01*
G01*
G75*
G02X135249Y142122I-3973*
G01*
G75*
G02X131276Y146095J3973*
G01*
G75*
G02X135249Y150069I3973*
G01*
X163629Y140609D02*
G75*
G02X167602Y136635J-3973D01*
G01*
G75*
G02X163629Y132662I-3973*
G01*
G75*
G02X159656Y136635J3973*
G01*
G75*
G02X163629Y140609I3973*
G01*
X173089D02*
G75*
G02X177062Y136635J-3973D01*
G01*
G75*
G02X173089Y132662I-3973*
G01*
G75*
G02X169115Y136635J3973*
G01*
G75*
G02X173089Y140609I3973*
G01*
Y150069D02*
G75*
G02Y142122J-3973D01*
G01*
G75*
G02X169115Y146095J3973*
G01*
G75*
G02X173089Y150069I3973*
G01*
X158142Y136635D02*
G36*
G75*
G02X156013Y133117I-3973D01*
G01*
Y118013*
G75*
G02X155473Y116709I-1844*
G01*
X149272Y110508*
G75*
G02X147967Y109967I-1304J1304*
G01*
X142497*
G75*
G02X142017Y109447I-2533J1859*
G01*
G75*
G02X143100Y107082I-2039J-2366*
G01*
G75*
G02X137614Y105044I-3122J0*
G01*
G75*
G02X132884I-2365J2037*
G01*
G75*
G02X128154I-2365J2037*
G01*
G75*
G02X123424I-2365J2037*
G01*
G75*
G02X118540Y105237I-2365J2038*
G01*
X93554*
G75*
G02X92250Y105778I0J1844*
G01*
X86644Y111383*
G75*
G02X86104Y112687I1304J1304*
G01*
Y133117*
G75*
G02X83976Y136635I1845J3519*
G01*
X71299*
Y97528*
X189664*
Y136635*
X177062*
G75*
G02X173089Y132662I-3973*
G01*
G75*
G02X169115Y136635J3973*
G01*
X167602*
G75*
G02X163629Y132662I-3973*
G01*
G75*
G02X159656Y136635J3973*
G01*
X158142*
G37*
X140735D02*
G36*
X139222D01*
G75*
G02X135249Y132662I-3973*
G01*
G75*
G02X131276Y136635J3973*
G01*
X129761*
G75*
G02X127633Y133117I-3973*
G01*
Y114331*
G75*
G02X128154Y113850I-1859J-2533*
G01*
G75*
G02X128674Y114331I2379J-2052*
G01*
Y116533*
G75*
G02X129215Y117837I1844*
G01*
X131580Y120202*
G75*
G02X132884Y120743I1304J-1304*
G01*
X137734*
X142864Y125872*
Y133117*
G75*
G02X140735Y136635I1844J3519*
G01*
G37*
X83976D02*
G36*
Y136636D01*
G75*
G02X86104Y140154I3973*
G01*
Y141919*
X71299*
Y136635*
X83976*
G37*
X147594Y141919D02*
G36*
X123413D01*
X124838Y140493*
G75*
G02X129761Y136635I950J-3857*
G01*
X131276*
G75*
G02X135249Y140609I3973*
G01*
G75*
G02X139222Y136635J-3973*
G01*
X140735*
G75*
G02X146114Y140352I3973*
G01*
X147594Y141831*
Y141919*
G37*
X160743D02*
G36*
Y141365D01*
G75*
G02X160203Y140061I-1844*
G01*
X157961Y137819*
G75*
G02X158142Y136635I-3792J-1184*
G01*
X159656*
G75*
G02X163629Y140609I3973*
G01*
G75*
G02X167602Y136635J-3973*
G01*
X169115*
G75*
G02X173089Y140609I3973*
G01*
G75*
G02X177062Y136635J-3973*
G01*
X189664*
Y141919*
X160743*
G37*
X83976Y146095D02*
G36*
X71299D01*
Y141919*
X86104*
Y142576*
G75*
G02X83976Y146095I1845J3519*
G01*
G37*
X140735D02*
G36*
X139222D01*
G75*
G02X135249Y142122I-3973*
G01*
G75*
G02X131276Y146095J3973*
G01*
X129762*
G75*
G02X122904Y143364I-3973*
G01*
Y142428*
X123413Y141919*
X147594*
Y143364*
G75*
G02X140735Y146095I-2885J2731*
G01*
G37*
X167602D02*
G36*
G75*
G02X160743Y143364I-3973D01*
G01*
Y141919*
X189664*
Y146095*
X177062*
G75*
G02X173089Y142122I-3973*
G01*
G75*
G02X169115Y146095J3973*
G01*
X167602*
G37*
X83976D02*
G36*
Y146096D01*
G75*
G02X86104Y149615I3973*
G01*
Y165313*
G75*
G02X86644Y166618I1844*
G01*
X89772Y169745*
X71299*
Y146095*
X83976*
G37*
X140735D02*
G36*
G75*
G02X147594Y148827I3973D01*
G01*
Y154382*
G75*
G02X148135Y155687I1844*
G01*
X152324Y159876*
Y166226*
G75*
G02X150196Y169745I1845J3519*
G01*
X148682*
G75*
G02X140735I-3973*
G01*
X139222*
G75*
G02X131276I-3973*
G01*
X129762*
G75*
G02X121815I-3973*
G01*
X120302*
G75*
G02X120187Y168794I-3973*
G01*
X122363Y166618*
G75*
G02X122904Y165313I-1304J-1304*
G01*
Y148827*
G75*
G02X129762Y146095I2885J-2731*
G01*
X131276*
G75*
G02X135249Y150069I3973*
G01*
G75*
G02X139222Y146095J-3973*
G01*
X140735*
G37*
X161784Y169745D02*
G36*
X158142D01*
G75*
G02X156013Y166226I-3973*
G01*
Y159112*
G75*
G02X155473Y157808I-1844*
G01*
X151283Y153618*
Y148827*
G75*
G02X157054I2885J-2731*
G01*
Y152008*
G75*
G02X157594Y153312I1844*
G01*
X161784Y157502*
Y169745*
G37*
X167602Y146095D02*
G36*
X169115D01*
G75*
G02X173089Y150069I3973*
G01*
G75*
G02X177062Y146095J-3973*
G01*
X189664*
Y169745*
X165474*
Y156738*
G75*
G02X164933Y155433I-1844*
G01*
X160743Y151244*
Y148827*
G75*
G02X167602Y146095I2885J-2731*
G01*
G37*
X165474Y169745D02*
G36*
X189664D01*
Y186097*
X71299*
Y169745*
X89772*
X91076Y171050*
G75*
G02X92381Y171590I1304J-1304*
G01*
X103350*
G75*
G02X109754Y172477I3519J-1845*
G01*
Y175667*
G75*
G02X110294Y176971I1844*
G01*
X112659Y179337*
G75*
G02X113964Y179877I1304J-1304*
G01*
X132883*
G75*
G02X134188Y179337I0J-1844*
G01*
X136553Y176971*
G75*
G02X137093Y175667I-1304J-1304*
G01*
Y173264*
G75*
G02X139222Y169745I-1844J-3519*
G01*
X140735*
G75*
G02X142864Y173264I3973*
G01*
Y175667*
G75*
G02X143404Y176971I1844*
G01*
X145769Y179337*
G75*
G02X147074Y179877I1304J-1304*
G01*
X161263*
G75*
G02X162568Y179337I0J-1844*
G01*
X164933Y176971*
G75*
G02X165474Y175667I-1304J-1304*
G01*
Y169745*
G37*
X131276D02*
G36*
G75*
G02X133404Y173264I3973D01*
G01*
Y174903*
X132120Y176187*
X114728*
X113443Y174903*
Y172477*
G75*
G02X120302Y169745I2885J-2731*
G01*
X121815*
G75*
G02X129762I3973*
G01*
X131276*
G37*
X161784D02*
G36*
Y174903D01*
X160500Y176187*
X147838*
X146554Y174903*
Y173264*
G75*
G02X148682Y169745I-1845J-3519*
G01*
X150196*
G75*
G02X158142I3973*
G01*
X161784*
G37*
X70921Y279585D02*
Y190259D01*
X190042*
Y279585*
X70921*
X160743Y241937D02*
G75*
G02X167602Y239206I2885J-2731D01*
G01*
G75*
G02X160743Y236474I-3973*
G01*
Y234476*
G75*
G02X160203Y233171I-1844J0*
G01*
X157961Y230930*
G75*
G02X156013Y226227I-3793J-1184*
G01*
Y211124*
G75*
G02X155473Y209819I-1844J0*
G01*
X149272Y203618*
G75*
G02X147967Y203078I-1304J1304*
G01*
X142497*
G75*
G02X142017Y202557I-2519J1845*
G01*
G75*
G02X143100Y200193I-2038J-2365*
G01*
G75*
G02X137614Y198155I-3122*
G01*
G75*
G02X132884I-2365J2038*
G01*
G75*
G02X128154I-2365J2038*
G01*
G75*
G02X123424I-2365J2038*
G01*
G75*
G02X118540Y198348I-2365J2038*
G01*
X93554*
G75*
G02X92250Y198888I0J1845*
G01*
X86644Y204493*
G75*
G02X86104Y205798I1304J1305*
G01*
Y226227*
G75*
G02Y233265I1845J3519*
G01*
Y235687*
G75*
G02Y242725I1845J3519*
G01*
Y258424*
G75*
G02X86644Y259728I1845J0*
G01*
X91076Y264160*
G75*
G02X92381Y264700I1304J-1304*
G01*
X103350*
G75*
G02X109754Y265587I3519J-1845*
G01*
Y268778*
G75*
G02X110294Y270081I1845J0*
G01*
X112659Y272447*
G75*
G02X113964Y272987I1304J-1304*
G01*
X132883*
G75*
G02X134188Y272447I0J-1844*
G01*
X136553Y270081*
G75*
G02X137093Y268778I-1304J-1304*
G01*
Y266374*
G75*
G02X139222Y262856I-1844J-3519*
G01*
G75*
G02X131276I-3973*
G01*
G75*
G02X133404Y266374I3973*
G01*
Y268013*
X132120Y269298*
X114728*
X113443Y268013*
Y265587*
G75*
G02X120187Y261905I2885J-2731*
G01*
X122363Y259728*
G75*
G02X122904Y258424I-1304J-1305*
G01*
Y241937*
G75*
G02X129762Y239206I2885J-2731*
G01*
G75*
G02X122904Y236474I-3973*
G01*
Y235538*
X124838Y233603*
G75*
G02X127633Y226227I951J-3857*
G01*
Y207441*
G75*
G02X128154Y206960I-1845J-2519*
G01*
G75*
G02X128674Y207441I2365J-2037*
G01*
Y209643*
G75*
G02X129215Y210947I1845J0*
G01*
X131580Y213312*
G75*
G02X132884Y213853I1304J-1304*
G01*
X137734*
X142864Y218983*
Y226227*
G75*
G02X146114Y233462I1844J3519*
G01*
X147594Y234942*
Y236474*
G75*
G02X140735Y239206I-2885J2731*
G01*
G75*
G02X147594Y241937I3973*
G01*
Y247493*
G75*
G02X148135Y248797I1844J0*
G01*
X152324Y252987*
Y259337*
G75*
G02X150196Y262856I1845J3519*
G01*
G75*
G02X158142I3973*
G01*
G75*
G02X156013Y259337I-3973*
G01*
Y252222*
G75*
G02X155473Y250918I-1844J0*
G01*
X151283Y246728*
Y241937*
G75*
G02X157054I2885J-2731*
G01*
Y245118*
G75*
G02X157594Y246422I1845J0*
G01*
X161784Y250612*
Y268013*
X160500Y269298*
X147838*
X146554Y268013*
Y266374*
G75*
G02X148682Y262856I-1845J-3519*
G01*
G75*
G02X140735I-3973*
G01*
G75*
G02X142864Y266374I3973*
G01*
Y268778*
G75*
G02X143404Y270081I1844J0*
G01*
X145769Y272447*
G75*
G02X147074Y272987I1304J-1304*
G01*
X161263*
G75*
G02X162568Y272447I0J-1844*
G01*
X164933Y270081*
G75*
G02X165474Y268778I-1304J-1304*
G01*
Y249848*
G75*
G02X164933Y248544I-1845J0*
G01*
X160743Y244354*
Y241937*
X121815Y262856D02*
G75*
G02X129762I3973D01*
G01*
G75*
G02X121815I-3973*
G01*
X135249Y233719D02*
G75*
G02X139222Y229746J-3973D01*
G01*
G75*
G02X135249Y225772I-3973*
G01*
G75*
G02X131276Y229746J3973*
G01*
G75*
G02X135249Y233719I3973*
G01*
Y243179D02*
G75*
G02X139222Y239206J-3973D01*
G01*
G75*
G02X135249Y235232I-3973*
G01*
G75*
G02X131276Y239206J3973*
G01*
G75*
G02X135249Y243179I3973*
G01*
X163629Y233719D02*
G75*
G02X167602Y229746J-3973D01*
G01*
G75*
G02X163629Y225772I-3973*
G01*
G75*
G02X159656Y229746J3973*
G01*
G75*
G02X163629Y233719I3973*
G01*
X173089D02*
G75*
G02X177062Y229746J-3973D01*
G01*
G75*
G02X173089Y225772I-3973*
G01*
G75*
G02X169115Y229746J3973*
G01*
G75*
G02X173089Y233719I3973*
G01*
Y243179D02*
G75*
G02X177062Y239206J-3973D01*
G01*
G75*
G02X173089Y235232I-3973*
G01*
G75*
G02X169115Y239206J3973*
G01*
G75*
G02X173089Y243179I3973*
G01*
X158142Y229746D02*
G36*
G75*
G02X156013Y226227I-3973D01*
G01*
Y211124*
G75*
G02X155473Y209819I-1844*
G01*
X149272Y203618*
G75*
G02X147967Y203078I-1304J1304*
G01*
X142497*
G75*
G02X142017Y202557I-2533J1859*
G01*
G75*
G02X143100Y200193I-2039J-2366*
G01*
G75*
G02X137614Y198155I-3122J0*
G01*
G75*
G02X132884I-2365J2037*
G01*
G75*
G02X128154I-2365J2037*
G01*
G75*
G02X123424I-2365J2037*
G01*
G75*
G02X118540Y198348I-2365J2038*
G01*
X93554*
G75*
G02X92250Y198888I0J1844*
G01*
X86644Y204493*
G75*
G02X86104Y205798I1304J1304*
G01*
Y226227*
G75*
G02X83976Y229746I1845J3519*
G01*
X71299*
Y190638*
X189664*
Y229746*
X177062*
G75*
G02X173089Y225772I-3973*
G01*
G75*
G02X169115Y229746J3973*
G01*
X167602*
G75*
G02X163629Y225772I-3973*
G01*
G75*
G02X159656Y229746J3973*
G01*
X158142*
G37*
X140735D02*
G36*
X139222D01*
G75*
G02X135249Y225772I-3973*
G01*
G75*
G02X131276Y229746J3973*
G01*
X129761*
G75*
G02X127633Y226227I-3973*
G01*
Y207441*
G75*
G02X128154Y206960I-1859J-2533*
G01*
G75*
G02X128674Y207441I2379J-2052*
G01*
Y209643*
G75*
G02X129215Y210947I1844*
G01*
X131580Y213312*
G75*
G02X132884Y213853I1304J-1304*
G01*
X137734*
X142864Y218983*
Y226227*
G75*
G02X140735Y229746I1844J3519*
G01*
G37*
X83976D02*
G36*
Y229746D01*
G75*
G02X86104Y233265I3973*
G01*
Y235029*
X71299*
Y229746*
X83976*
G37*
X147594Y235029D02*
G36*
X123413D01*
X124838Y233603*
G75*
G02X129761Y229746I950J-3857*
G01*
X131276*
G75*
G02X135249Y233719I3973*
G01*
G75*
G02X139222Y229746J-3973*
G01*
X140735*
G75*
G02X146114Y233462I3973*
G01*
X147594Y234942*
Y235029*
G37*
X160743D02*
G36*
Y234476D01*
G75*
G02X160203Y233171I-1844*
G01*
X157961Y230930*
G75*
G02X158142Y229746I-3792J-1184*
G01*
X159656*
G75*
G02X163629Y233719I3973*
G01*
G75*
G02X167602Y229746J-3973*
G01*
X169115*
G75*
G02X173089Y233719I3973*
G01*
G75*
G02X177062Y229746J-3973*
G01*
X189664*
Y235029*
X160743*
G37*
X83976Y239206D02*
G36*
X71299D01*
Y235029*
X86104*
Y235687*
G75*
G02X83976Y239206I1845J3519*
G01*
G37*
X140735D02*
G36*
X139222D01*
G75*
G02X135249Y235232I-3973*
G01*
G75*
G02X131276Y239206J3973*
G01*
X129762*
G75*
G02X122904Y236474I-3973*
G01*
Y235538*
X123413Y235029*
X147594*
Y236474*
G75*
G02X140735Y239206I-2885J2731*
G01*
G37*
X167602D02*
G36*
G75*
G02X160743Y236474I-3973D01*
G01*
Y235029*
X189664*
Y239206*
X177062*
G75*
G02X173089Y235232I-3973*
G01*
G75*
G02X169115Y239206J3973*
G01*
X167602*
G37*
X83976D02*
G36*
Y239206D01*
G75*
G02X86104Y242725I3973*
G01*
Y258424*
G75*
G02X86644Y259728I1844*
G01*
X89772Y262856*
X71299*
Y239206*
X83976*
G37*
X140735D02*
G36*
G75*
G02X147594Y241937I3973D01*
G01*
Y247493*
G75*
G02X148135Y248797I1844*
G01*
X152324Y252987*
Y259337*
G75*
G02X150196Y262856I1845J3519*
G01*
X148682*
G75*
G02X140735I-3973*
G01*
X139222*
G75*
G02X131276I-3973*
G01*
X129762*
G75*
G02X121815I-3973*
G01*
X120302*
G75*
G02X120187Y261905I-3973*
G01*
X122363Y259728*
G75*
G02X122904Y258424I-1304J-1304*
G01*
Y241937*
G75*
G02X129762Y239206I2885J-2731*
G01*
X131276*
G75*
G02X135249Y243179I3973*
G01*
G75*
G02X139222Y239206J-3973*
G01*
X140735*
G37*
X161784Y262856D02*
G36*
X158142D01*
G75*
G02X156013Y259337I-3973*
G01*
Y252222*
G75*
G02X155473Y250918I-1844*
G01*
X151283Y246728*
Y241937*
G75*
G02X157054I2885J-2731*
G01*
Y245118*
G75*
G02X157594Y246422I1844*
G01*
X161784Y250612*
Y262856*
G37*
X167602Y239206D02*
G36*
X169115D01*
G75*
G02X173089Y243179I3973*
G01*
G75*
G02X177062Y239206J-3973*
G01*
X189664*
Y262856*
X165474*
Y249848*
G75*
G02X164933Y248544I-1844*
G01*
X160743Y244354*
Y241937*
G75*
G02X167602Y239206I2885J-2731*
G01*
G37*
X165474Y262856D02*
G36*
X189664D01*
Y279207*
X71299*
Y262856*
X89772*
X91076Y264160*
G75*
G02X92381Y264700I1304J-1304*
G01*
X103350*
G75*
G02X109754Y265587I3519J-1845*
G01*
Y268778*
G75*
G02X110294Y270081I1844*
G01*
X112659Y272447*
G75*
G02X113964Y272987I1304J-1304*
G01*
X132883*
G75*
G02X134188Y272447I0J-1844*
G01*
X136553Y270081*
G75*
G02X137093Y268778I-1304J-1304*
G01*
Y266374*
G75*
G02X139222Y262856I-1844J-3519*
G01*
X140735*
G75*
G02X142864Y266374I3973*
G01*
Y268778*
G75*
G02X143404Y270081I1844*
G01*
X145769Y272447*
G75*
G02X147074Y272987I1304J-1304*
G01*
X161263*
G75*
G02X162568Y272447I0J-1844*
G01*
X164933Y270081*
G75*
G02X165474Y268778I-1304J-1304*
G01*
Y262856*
G37*
X131276D02*
G36*
G75*
G02X133404Y266374I3973D01*
G01*
Y268013*
X132120Y269298*
X114728*
X113443Y268013*
Y265587*
G75*
G02X120302Y262856I2885J-2731*
G01*
X121815*
G75*
G02X129762I3973*
G01*
X131276*
G37*
X161784D02*
G36*
Y268013D01*
X160500Y269298*
X147838*
X146554Y268013*
Y266374*
G75*
G02X148682Y262856I-1845J-3519*
G01*
X150196*
G75*
G02X158142I3973*
G01*
X161784*
G37*
X70921Y372696D02*
Y283370D01*
X190042*
Y372696*
X70921*
X160743Y335047D02*
G75*
G02X167602Y332316I2885J-2731D01*
G01*
G75*
G02X160743Y329584I-3973*
G01*
Y327586*
G75*
G02X160203Y326281I-1844J0*
G01*
X157961Y324040*
G75*
G02X156013Y319337I-3793J-1184*
G01*
Y304234*
G75*
G02X155473Y302930I-1844J0*
G01*
X149272Y296728*
G75*
G02X147967Y296188I-1304J1304*
G01*
X142497*
G75*
G02X142017Y295668I-2519J1845*
G01*
G75*
G02X143100Y293303I-2038J-2365*
G01*
G75*
G02X137614Y291265I-3122*
G01*
G75*
G02X132884I-2365J2038*
G01*
G75*
G02X128154I-2365J2038*
G01*
G75*
G02X123424I-2365J2038*
G01*
G75*
G02X118540Y291458I-2365J2038*
G01*
X93554*
G75*
G02X92250Y291998I0J1845*
G01*
X86644Y297604*
G75*
G02X86104Y298908I1304J1305*
G01*
Y319337*
G75*
G02Y326375I1845J3519*
G01*
Y328797*
G75*
G02Y335835I1845J3519*
G01*
Y351534*
G75*
G02X86644Y352838I1845J0*
G01*
X91076Y357270*
G75*
G02X92381Y357811I1304J-1304*
G01*
X103350*
G75*
G02X109754Y358697I3519J-1845*
G01*
Y361888*
G75*
G02X110294Y363192I1845J0*
G01*
X112659Y365557*
G75*
G02X113964Y366097I1304J-1304*
G01*
X132883*
G75*
G02X134188Y365557I0J-1844*
G01*
X136553Y363192*
G75*
G02X137093Y361888I-1304J-1304*
G01*
Y359485*
G75*
G02X139222Y355966I-1844J-3519*
G01*
G75*
G02X131276I-3973*
G01*
G75*
G02X133404Y359485I3973*
G01*
Y361123*
X132120Y362408*
X114728*
X113443Y361123*
Y358697*
G75*
G02X120187Y355015I2885J-2731*
G01*
X122363Y352838*
G75*
G02X122904Y351534I-1304J-1305*
G01*
Y335047*
G75*
G02X129762Y332316I2885J-2731*
G01*
G75*
G02X122904Y329584I-3973*
G01*
Y328648*
X124838Y326713*
G75*
G02X127633Y319337I951J-3857*
G01*
Y300551*
G75*
G02X128154Y300070I-1845J-2519*
G01*
G75*
G02X128674Y300551I2365J-2037*
G01*
Y302753*
G75*
G02X129215Y304057I1845J0*
G01*
X131580Y306422*
G75*
G02X132884Y306963I1304J-1304*
G01*
X137734*
X142864Y312093*
Y319337*
G75*
G02X146114Y326572I1844J3519*
G01*
X147594Y328052*
Y329584*
G75*
G02X140735Y332316I-2885J2731*
G01*
G75*
G02X147594Y335047I3973*
G01*
Y340603*
G75*
G02X148135Y341907I1844J0*
G01*
X152324Y346097*
Y352447*
G75*
G02X150196Y355966I1845J3519*
G01*
G75*
G02X158142I3973*
G01*
G75*
G02X156013Y352447I-3973*
G01*
Y345333*
G75*
G02X155473Y344028I-1844J0*
G01*
X151283Y339838*
Y335047*
G75*
G02X157054I2885J-2731*
G01*
Y338228*
G75*
G02X157594Y339533I1845J0*
G01*
X161784Y343722*
Y361123*
X160500Y362408*
X147838*
X146554Y361123*
Y359485*
G75*
G02X148682Y355966I-1845J-3519*
G01*
G75*
G02X140735I-3973*
G01*
G75*
G02X142864Y359485I3973*
G01*
Y361888*
G75*
G02X143404Y363192I1844J0*
G01*
X145769Y365557*
G75*
G02X147074Y366097I1304J-1304*
G01*
X161263*
G75*
G02X162568Y365557I0J-1844*
G01*
X164933Y363192*
G75*
G02X165474Y361888I-1304J-1304*
G01*
Y342958*
G75*
G02X164933Y341654I-1845J0*
G01*
X160743Y337464*
Y335047*
X121815Y355966D02*
G75*
G02X129762I3973D01*
G01*
G75*
G02X121815I-3973*
G01*
X135249Y326829D02*
G75*
G02X139222Y322856J-3973D01*
G01*
G75*
G02X135249Y318883I-3973*
G01*
G75*
G02X131276Y322856J3973*
G01*
G75*
G02X135249Y326829I3973*
G01*
Y336289D02*
G75*
G02X139222Y332316J-3973D01*
G01*
G75*
G02X135249Y328343I-3973*
G01*
G75*
G02X131276Y332316J3973*
G01*
G75*
G02X135249Y336289I3973*
G01*
X163629Y326829D02*
G75*
G02X167602Y322856J-3973D01*
G01*
G75*
G02X163629Y318883I-3973*
G01*
G75*
G02X159656Y322856J3973*
G01*
G75*
G02X163629Y326829I3973*
G01*
X173089D02*
G75*
G02X177062Y322856J-3973D01*
G01*
G75*
G02X173089Y318883I-3973*
G01*
G75*
G02X169115Y322856J3973*
G01*
G75*
G02X173089Y326829I3973*
G01*
Y336289D02*
G75*
G02X177062Y332316J-3973D01*
G01*
G75*
G02X173089Y328343I-3973*
G01*
G75*
G02X169115Y332316J3973*
G01*
G75*
G02X173089Y336289I3973*
G01*
X158142Y322856D02*
G36*
G75*
G02X156013Y319337I-3973D01*
G01*
Y304234*
G75*
G02X155473Y302930I-1844*
G01*
X149272Y296728*
G75*
G02X147967Y296188I-1304J1304*
G01*
X142497*
G75*
G02X142017Y295668I-2533J1859*
G01*
G75*
G02X143100Y293303I-2039J-2366*
G01*
G75*
G02X137614Y291265I-3122J0*
G01*
G75*
G02X132884I-2365J2037*
G01*
G75*
G02X128154I-2365J2037*
G01*
G75*
G02X123424I-2365J2037*
G01*
G75*
G02X118540Y291458I-2365J2038*
G01*
X93554*
G75*
G02X92250Y291998I0J1844*
G01*
X86644Y297604*
G75*
G02X86104Y298908I1304J1304*
G01*
Y319337*
G75*
G02X83976Y322856I1845J3519*
G01*
X71299*
Y283748*
X189664*
Y322856*
X177062*
G75*
G02X173089Y318883I-3973*
G01*
G75*
G02X169115Y322856J3973*
G01*
X167602*
G75*
G02X163629Y318883I-3973*
G01*
G75*
G02X159656Y322856J3973*
G01*
X158142*
G37*
X140735D02*
G36*
X139222D01*
G75*
G02X135249Y318883I-3973*
G01*
G75*
G02X131276Y322856J3973*
G01*
X129761*
G75*
G02X127633Y319337I-3973*
G01*
Y300551*
G75*
G02X128154Y300070I-1859J-2533*
G01*
G75*
G02X128674Y300551I2379J-2052*
G01*
Y302753*
G75*
G02X129215Y304057I1844*
G01*
X131580Y306422*
G75*
G02X132884Y306963I1304J-1304*
G01*
X137734*
X142864Y312093*
Y319337*
G75*
G02X140735Y322856I1844J3519*
G01*
G37*
X83976D02*
G36*
Y322856D01*
G75*
G02X86104Y326375I3973*
G01*
Y328139*
X71299*
Y322856*
X83976*
G37*
X147594Y328139D02*
G36*
X123413D01*
X124838Y326713*
G75*
G02X129761Y322856I950J-3857*
G01*
X131276*
G75*
G02X135249Y326829I3973*
G01*
G75*
G02X139222Y322856J-3973*
G01*
X140735*
G75*
G02X146114Y326572I3973*
G01*
X147594Y328052*
Y328139*
G37*
X160743D02*
G36*
Y327586D01*
G75*
G02X160203Y326281I-1844*
G01*
X157961Y324040*
G75*
G02X158142Y322856I-3792J-1184*
G01*
X159656*
G75*
G02X163629Y326829I3973*
G01*
G75*
G02X167602Y322856J-3973*
G01*
X169115*
G75*
G02X173089Y326829I3973*
G01*
G75*
G02X177062Y322856J-3973*
G01*
X189664*
Y328139*
X160743*
G37*
X83976Y332316D02*
G36*
X71299D01*
Y328139*
X86104*
Y328797*
G75*
G02X83976Y332316I1845J3519*
G01*
G37*
X140735D02*
G36*
X139222D01*
G75*
G02X135249Y328343I-3973*
G01*
G75*
G02X131276Y332316J3973*
G01*
X129762*
G75*
G02X122904Y329584I-3973*
G01*
Y328648*
X123413Y328139*
X147594*
Y329584*
G75*
G02X140735Y332316I-2885J2731*
G01*
G37*
X167602D02*
G36*
G75*
G02X160743Y329584I-3973D01*
G01*
Y328139*
X189664*
Y332316*
X177062*
G75*
G02X173089Y328343I-3973*
G01*
G75*
G02X169115Y332316J3973*
G01*
X167602*
G37*
X83976D02*
G36*
Y332316D01*
G75*
G02X86104Y335835I3973*
G01*
Y351534*
G75*
G02X86644Y352838I1844*
G01*
X89772Y355966*
X71299*
Y332316*
X83976*
G37*
X140735D02*
G36*
G75*
G02X147594Y335047I3973D01*
G01*
Y340603*
G75*
G02X148135Y341907I1844*
G01*
X152324Y346097*
Y352447*
G75*
G02X150196Y355966I1845J3519*
G01*
X148682*
G75*
G02X140735I-3973*
G01*
X139222*
G75*
G02X131276I-3973*
G01*
X129762*
G75*
G02X121815I-3973*
G01*
X120302*
G75*
G02X120187Y355015I-3973*
G01*
X122363Y352838*
G75*
G02X122904Y351534I-1304J-1304*
G01*
Y335047*
G75*
G02X129762Y332316I2885J-2731*
G01*
X131276*
G75*
G02X135249Y336289I3973*
G01*
G75*
G02X139222Y332316J-3973*
G01*
X140735*
G37*
X161784Y355966D02*
G36*
X158142D01*
G75*
G02X156013Y352447I-3973*
G01*
Y345333*
G75*
G02X155473Y344028I-1844*
G01*
X151283Y339838*
Y335047*
G75*
G02X157054I2885J-2731*
G01*
Y338228*
G75*
G02X157594Y339533I1844*
G01*
X161784Y343722*
Y355966*
G37*
X167602Y332316D02*
G36*
X169115D01*
G75*
G02X173089Y336289I3973*
G01*
G75*
G02X177062Y332316J-3973*
G01*
X189664*
Y355966*
X165474*
Y342958*
G75*
G02X164933Y341654I-1844*
G01*
X160743Y337464*
Y335047*
G75*
G02X167602Y332316I2885J-2731*
G01*
G37*
X165474Y355966D02*
G36*
X189664D01*
Y372317*
X71299*
Y355966*
X89772*
X91076Y357270*
G75*
G02X92381Y357811I1304J-1304*
G01*
X103350*
G75*
G02X109754Y358697I3519J-1845*
G01*
Y361888*
G75*
G02X110294Y363192I1844*
G01*
X112659Y365557*
G75*
G02X113964Y366097I1304J-1304*
G01*
X132883*
G75*
G02X134188Y365557I0J-1844*
G01*
X136553Y363192*
G75*
G02X137093Y361888I-1304J-1304*
G01*
Y359485*
G75*
G02X139222Y355966I-1844J-3519*
G01*
X140735*
G75*
G02X142864Y359485I3973*
G01*
Y361888*
G75*
G02X143404Y363192I1844*
G01*
X145769Y365557*
G75*
G02X147074Y366097I1304J-1304*
G01*
X161263*
G75*
G02X162568Y365557I0J-1844*
G01*
X164933Y363192*
G75*
G02X165474Y361888I-1304J-1304*
G01*
Y355966*
G37*
X131276D02*
G36*
G75*
G02X133404Y359485I3973D01*
G01*
Y361123*
X132120Y362408*
X114728*
X113443Y361123*
Y358697*
G75*
G02X120302Y355966I2885J-2731*
G01*
X121815*
G75*
G02X129762I3973*
G01*
X131276*
G37*
X161784D02*
G36*
Y361123D01*
X160500Y362408*
X147838*
X146554Y361123*
Y359485*
G75*
G02X148682Y355966I-1845J-3519*
G01*
X150196*
G75*
G02X158142I3973*
G01*
X161784*
G37*
X70921Y465806D02*
Y376480D01*
X190042*
Y465806*
X70921*
X160743Y428157D02*
G75*
G02X167602Y425426I2885J-2731D01*
G01*
G75*
G02X160743Y422694I-3973*
G01*
Y420696*
G75*
G02X160203Y419392I-1844J0*
G01*
X157961Y417150*
G75*
G02X156013Y412447I-3793J-1184*
G01*
Y397344*
G75*
G02X155473Y396040I-1844J0*
G01*
X149272Y389839*
G75*
G02X147967Y389298I-1304J1304*
G01*
X142497*
G75*
G02X142017Y388778I-2519J1845*
G01*
G75*
G02X143100Y386413I-2038J-2365*
G01*
G75*
G02X137614Y384375I-3122*
G01*
G75*
G02X132884I-2365J2038*
G01*
G75*
G02X128154I-2365J2038*
G01*
G75*
G02X123424I-2365J2038*
G01*
G75*
G02X118540Y384568I-2365J2038*
G01*
X93554*
G75*
G02X92250Y385109I0J1845*
G01*
X86644Y390714*
G75*
G02X86104Y392018I1304J1305*
G01*
Y412447*
G75*
G02Y419485I1845J3519*
G01*
Y421907*
G75*
G02Y428945I1845J3519*
G01*
Y444644*
G75*
G02X86644Y445948I1845J0*
G01*
X91076Y450380*
G75*
G02X92381Y450921I1304J-1304*
G01*
X103350*
G75*
G02X109754Y451807I3519J-1845*
G01*
Y454998*
G75*
G02X110294Y456302I1845J0*
G01*
X112659Y458667*
G75*
G02X113964Y459207I1304J-1304*
G01*
X132883*
G75*
G02X134188Y458667I0J-1844*
G01*
X136553Y456302*
G75*
G02X137093Y454998I-1304J-1304*
G01*
Y452595*
G75*
G02X139222Y449076I-1844J-3519*
G01*
G75*
G02X131276I-3973*
G01*
G75*
G02X133404Y452595I3973*
G01*
Y454233*
X132120Y455518*
X114728*
X113443Y454233*
Y451807*
G75*
G02X120187Y448125I2885J-2731*
G01*
X122363Y445948*
G75*
G02X122904Y444644I-1304J-1305*
G01*
Y428157*
G75*
G02X129762Y425426I2885J-2731*
G01*
G75*
G02X122904Y422694I-3973*
G01*
Y421758*
X124838Y419824*
G75*
G02X127633Y412447I951J-3857*
G01*
Y393661*
G75*
G02X128154Y393180I-1845J-2519*
G01*
G75*
G02X128674Y393661I2365J-2037*
G01*
Y395863*
G75*
G02X129215Y397168I1845J0*
G01*
X131580Y399533*
G75*
G02X132884Y400073I1304J-1304*
G01*
X137734*
X142864Y405203*
Y412447*
G75*
G02X146114Y419682I1844J3519*
G01*
X147594Y421162*
Y422694*
G75*
G02X140735Y425426I-2885J2731*
G01*
G75*
G02X147594Y428157I3973*
G01*
Y433713*
G75*
G02X148135Y435017I1844J0*
G01*
X152324Y439207*
Y445557*
G75*
G02X150196Y449076I1845J3519*
G01*
G75*
G02X158142I3973*
G01*
G75*
G02X156013Y445557I-3973*
G01*
Y438443*
G75*
G02X155473Y437139I-1844J0*
G01*
X151283Y432948*
Y428157*
G75*
G02X157054I2885J-2731*
G01*
Y431339*
G75*
G02X157594Y432643I1845J0*
G01*
X161784Y436833*
Y454233*
X160500Y455518*
X147838*
X146554Y454233*
Y452595*
G75*
G02X148682Y449076I-1845J-3519*
G01*
G75*
G02X140735I-3973*
G01*
G75*
G02X142864Y452595I3973*
G01*
Y454998*
G75*
G02X143404Y456302I1844J0*
G01*
X145769Y458667*
G75*
G02X147074Y459207I1304J-1304*
G01*
X161263*
G75*
G02X162568Y458667I0J-1844*
G01*
X164933Y456302*
G75*
G02X165474Y454998I-1304J-1304*
G01*
Y436069*
G75*
G02X164933Y434764I-1845J0*
G01*
X160743Y430574*
Y428157*
X121815Y449076D02*
G75*
G02X129762I3973D01*
G01*
G75*
G02X121815I-3973*
G01*
X135249Y419939D02*
G75*
G02X139222Y415966J-3973D01*
G01*
G75*
G02X135249Y411993I-3973*
G01*
G75*
G02X131276Y415966J3973*
G01*
G75*
G02X135249Y419939I3973*
G01*
Y429399D02*
G75*
G02X139222Y425426J-3973D01*
G01*
G75*
G02X135249Y421453I-3973*
G01*
G75*
G02X131276Y425426J3973*
G01*
G75*
G02X135249Y429399I3973*
G01*
X163629Y419939D02*
G75*
G02X167602Y415966J-3973D01*
G01*
G75*
G02X163629Y411993I-3973*
G01*
G75*
G02X159656Y415966J3973*
G01*
G75*
G02X163629Y419939I3973*
G01*
X173089D02*
G75*
G02X177062Y415966J-3973D01*
G01*
G75*
G02X173089Y411993I-3973*
G01*
G75*
G02X169115Y415966J3973*
G01*
G75*
G02X173089Y419939I3973*
G01*
Y429399D02*
G75*
G02X177062Y425426J-3973D01*
G01*
G75*
G02X173089Y421453I-3973*
G01*
G75*
G02X169115Y425426J3973*
G01*
G75*
G02X173089Y429399I3973*
G01*
X158142Y415966D02*
G36*
G75*
G02X156013Y412447I-3973D01*
G01*
Y397344*
G75*
G02X155473Y396040I-1844*
G01*
X149272Y389839*
G75*
G02X147967Y389298I-1304J1304*
G01*
X142497*
G75*
G02X142017Y388778I-2533J1859*
G01*
G75*
G02X143100Y386413I-2039J-2366*
G01*
G75*
G02X137614Y384375I-3122J0*
G01*
G75*
G02X132884I-2365J2037*
G01*
G75*
G02X128154I-2365J2037*
G01*
G75*
G02X123424I-2365J2037*
G01*
G75*
G02X118540Y384568I-2365J2038*
G01*
X93554*
G75*
G02X92250Y385109I0J1844*
G01*
X86644Y390714*
G75*
G02X86104Y392018I1304J1304*
G01*
Y412447*
G75*
G02X83976Y415966I1845J3519*
G01*
X71299*
Y376858*
X189664*
Y415966*
X177062*
G75*
G02X173089Y411993I-3973*
G01*
G75*
G02X169115Y415966J3973*
G01*
X167602*
G75*
G02X163629Y411993I-3973*
G01*
G75*
G02X159656Y415966J3973*
G01*
X158142*
G37*
X140735D02*
G36*
X139222D01*
G75*
G02X135249Y411993I-3973*
G01*
G75*
G02X131276Y415966J3973*
G01*
X129761*
G75*
G02X127633Y412447I-3973*
G01*
Y393661*
G75*
G02X128154Y393180I-1859J-2533*
G01*
G75*
G02X128674Y393661I2379J-2052*
G01*
Y395863*
G75*
G02X129215Y397168I1844*
G01*
X131580Y399533*
G75*
G02X132884Y400073I1304J-1304*
G01*
X137734*
X142864Y405203*
Y412447*
G75*
G02X140735Y415966I1844J3519*
G01*
G37*
X83976D02*
G36*
Y415967D01*
G75*
G02X86104Y419485I3973*
G01*
Y421249*
X71299*
Y415966*
X83976*
G37*
X147594Y421249D02*
G36*
X123413D01*
X124838Y419824*
G75*
G02X129761Y415966I950J-3857*
G01*
X131276*
G75*
G02X135249Y419939I3973*
G01*
G75*
G02X139222Y415966J-3973*
G01*
X140735*
G75*
G02X146114Y419682I3973*
G01*
X147594Y421162*
Y421249*
G37*
X160743D02*
G36*
Y420696D01*
G75*
G02X160203Y419392I-1844*
G01*
X157961Y417150*
G75*
G02X158142Y415966I-3792J-1184*
G01*
X159656*
G75*
G02X163629Y419939I3973*
G01*
G75*
G02X167602Y415966J-3973*
G01*
X169115*
G75*
G02X173089Y419939I3973*
G01*
G75*
G02X177062Y415966J-3973*
G01*
X189664*
Y421249*
X160743*
G37*
X83976Y425426D02*
G36*
X71299D01*
Y421249*
X86104*
Y421907*
G75*
G02X83976Y425426I1845J3519*
G01*
G37*
X140735D02*
G36*
X139222D01*
G75*
G02X135249Y421453I-3973*
G01*
G75*
G02X131276Y425426J3973*
G01*
X129762*
G75*
G02X122904Y422694I-3973*
G01*
Y421758*
X123413Y421249*
X147594*
Y422694*
G75*
G02X140735Y425426I-2885J2731*
G01*
G37*
X167602D02*
G36*
G75*
G02X160743Y422694I-3973D01*
G01*
Y421249*
X189664*
Y425426*
X177062*
G75*
G02X173089Y421453I-3973*
G01*
G75*
G02X169115Y425426J3973*
G01*
X167602*
G37*
X83976D02*
G36*
Y425426D01*
G75*
G02X86104Y428945I3973*
G01*
Y444644*
G75*
G02X86644Y445948I1844*
G01*
X89772Y449076*
X71299*
Y425426*
X83976*
G37*
X140735D02*
G36*
G75*
G02X147594Y428157I3973D01*
G01*
Y433713*
G75*
G02X148135Y435017I1844*
G01*
X152324Y439207*
Y445557*
G75*
G02X150196Y449076I1845J3519*
G01*
X148682*
G75*
G02X140735I-3973*
G01*
X139222*
G75*
G02X131276I-3973*
G01*
X129762*
G75*
G02X121815I-3973*
G01*
X120302*
G75*
G02X120187Y448125I-3973*
G01*
X122363Y445948*
G75*
G02X122904Y444644I-1304J-1304*
G01*
Y428157*
G75*
G02X129762Y425426I2885J-2731*
G01*
X131276*
G75*
G02X135249Y429399I3973*
G01*
G75*
G02X139222Y425426J-3973*
G01*
X140735*
G37*
X161784Y449076D02*
G36*
X158142D01*
G75*
G02X156013Y445557I-3973*
G01*
Y438443*
G75*
G02X155473Y437139I-1844*
G01*
X151283Y432948*
Y428157*
G75*
G02X157054I2885J-2731*
G01*
Y431339*
G75*
G02X157594Y432643I1844*
G01*
X161784Y436833*
Y449076*
G37*
X167602Y425426D02*
G36*
X169115D01*
G75*
G02X173089Y429399I3973*
G01*
G75*
G02X177062Y425426J-3973*
G01*
X189664*
Y449076*
X165474*
Y436069*
G75*
G02X164933Y434764I-1844*
G01*
X160743Y430574*
Y428157*
G75*
G02X167602Y425426I2885J-2731*
G01*
G37*
X165474Y449076D02*
G36*
X189664D01*
Y465428*
X71299*
Y449076*
X89772*
X91076Y450380*
G75*
G02X92381Y450921I1304J-1304*
G01*
X103350*
G75*
G02X109754Y451807I3519J-1845*
G01*
Y454998*
G75*
G02X110294Y456302I1844*
G01*
X112659Y458667*
G75*
G02X113964Y459207I1304J-1304*
G01*
X132883*
G75*
G02X134188Y458667I0J-1844*
G01*
X136553Y456302*
G75*
G02X137093Y454998I-1304J-1304*
G01*
Y452595*
G75*
G02X139222Y449076I-1844J-3519*
G01*
X140735*
G75*
G02X142864Y452595I3973*
G01*
Y454998*
G75*
G02X143404Y456302I1844*
G01*
X145769Y458667*
G75*
G02X147074Y459207I1304J-1304*
G01*
X161263*
G75*
G02X162568Y458667I0J-1844*
G01*
X164933Y456302*
G75*
G02X165474Y454998I-1304J-1304*
G01*
Y449076*
G37*
X131276D02*
G36*
G75*
G02X133404Y452595I3973D01*
G01*
Y454233*
X132120Y455518*
X114728*
X113443Y454233*
Y451807*
G75*
G02X120302Y449076I2885J-2731*
G01*
X121815*
G75*
G02X129762I3973*
G01*
X131276*
G37*
X161784D02*
G36*
Y454233D01*
X160500Y455518*
X147838*
X146554Y454233*
Y452595*
G75*
G02X148682Y449076I-1845J-3519*
G01*
X150196*
G75*
G02X158142I3973*
G01*
X161784*
G37*
X89793Y133117D02*
Y113452D01*
X94318Y108927*
X118540*
G75*
G02X119021Y109447I2519J-1845*
G01*
G75*
G02X117974Y112289I2037J2365*
G01*
X115024Y115238*
G75*
G02X114484Y116542I1304J1305*
G01*
Y133117*
G75*
G02X112613Y138041I1845J3519*
G01*
X110294Y140359*
G75*
G02X109754Y141663I1304J1305*
G01*
Y143364*
G75*
G02X102896Y146095I-2885J2731*
G01*
G75*
G02X109754Y148827I3973*
G01*
Y167014*
G75*
G02X103350Y167901I-2885J2731*
G01*
X93145*
X89793Y164549*
Y149615*
G75*
G02Y142576I-1844J-3519*
G01*
Y140154*
G75*
G02Y133117I-1844J-3519*
G01*
X97409Y140609D02*
G75*
G02X101382Y136635J-3973D01*
G01*
G75*
G02X97409Y132662I-3973*
G01*
G75*
G02X93435Y136635J3973*
G01*
G75*
G02X97409Y140609I3973*
G01*
Y150069D02*
G75*
G02X101382Y146095J-3973D01*
G01*
G75*
G02X97409Y142122I-3973*
G01*
G75*
G02X93435Y146095J3973*
G01*
G75*
G02X97409Y150069I3973*
G01*
X106869Y140609D02*
G75*
G02X110842Y136635J-3973D01*
G01*
G75*
G02X106869Y132662I-3973*
G01*
G75*
G02X102896Y136635J3973*
G01*
G75*
G02X106869Y140609I3973*
G01*
X112356Y136635D02*
G36*
X110842D01*
G75*
G02X106869Y132662I-3973*
G01*
G75*
G02X102896Y136635J3973*
G01*
X101382*
G75*
G02X97409Y132662I-3973*
G01*
G75*
G02X93435Y136635J3973*
G01*
X91922*
G75*
G02X90172Y133343I-3973J0*
G01*
Y113073*
X93940Y109305*
X118643*
Y109835*
G75*
G02X117937Y111812I2415J1976*
G01*
G75*
G02X117974Y112289I3119J1*
G01*
X115024Y115238*
G75*
G02X114484Y116542I1304J1304*
G01*
Y133117*
G75*
G02X112356Y136635I1844J3519*
G01*
G37*
X102896Y146095D02*
G36*
X101382D01*
G75*
G02X97409Y142122I-3973*
G01*
G75*
G02X93435Y146095J3973*
G01*
X91922*
G75*
G02X90172Y142803I-3973J0*
G01*
Y139928*
G75*
G02X91922Y136636I-2222J-3293*
G01*
Y136635*
X93435*
G75*
G02X97409Y140609I3973*
G01*
G75*
G02X101382Y136635J-3973*
G01*
X102896*
G75*
G02X106869Y140609I3973*
G01*
G75*
G02X110842Y136635J-3973*
G01*
X112356*
G75*
G02X112613Y138041I3973*
G01*
X110294Y140359*
G75*
G02X109754Y141663I1304J1304*
G01*
Y143364*
G75*
G02X102896Y146095I-2885J2731*
G01*
G37*
X103576Y167522D02*
G36*
X92767D01*
X90172Y164928*
Y149389*
G75*
G02X91922Y146096I-2222J-3293*
G01*
Y146095*
X93435*
G75*
G02X97409Y150069I3973*
G01*
G75*
G02X101382Y146095J-3973*
G01*
X102896*
G75*
G02X109754Y148827I3973*
G01*
Y167014*
G75*
G02X103576Y167522I-2885J2731*
G01*
G37*
X89793Y226227D02*
Y206562D01*
X94318Y202037*
X118540*
G75*
G02X119021Y202557I2519J-1845*
G01*
G75*
G02X117974Y205399I2037J2365*
G01*
X115024Y208348*
G75*
G02X114484Y209652I1304J1305*
G01*
Y226227*
G75*
G02X112613Y231151I1845J3519*
G01*
X110294Y233469*
G75*
G02X109754Y234774I1304J1305*
G01*
Y236474*
G75*
G02X102896Y239206I-2885J2731*
G01*
G75*
G02X109754Y241937I3973*
G01*
Y260124*
G75*
G02X103350Y261011I-2885J2731*
G01*
X93145*
X89793Y257659*
Y242725*
G75*
G02Y235687I-1844J-3519*
G01*
Y233265*
G75*
G02Y226227I-1844J-3519*
G01*
X97409Y233719D02*
G75*
G02Y225772J-3973D01*
G01*
G75*
G02X93435Y229746J3973*
G01*
G75*
G02X97409Y233719I3973*
G01*
Y243179D02*
G75*
G02X101382Y239206J-3973D01*
G01*
G75*
G02X97409Y235232I-3973*
G01*
G75*
G02X93435Y239206J3973*
G01*
G75*
G02X97409Y243179I3973*
G01*
X106869Y233719D02*
G75*
G02Y225772J-3973D01*
G01*
G75*
G02X102896Y229746J3973*
G01*
G75*
G02X106869Y233719I3973*
G01*
X112356Y229746D02*
G36*
X110842D01*
G75*
G02X106869Y225772I-3973*
G01*
G75*
G02X102896Y229746J3973*
G01*
X101382*
G75*
G02X97409Y225772I-3973*
G01*
G75*
G02X93435Y229746J3973*
G01*
X91922*
G75*
G02X90172Y226453I-3973J0*
G01*
Y206183*
X93940Y202415*
X118643*
Y202945*
G75*
G02X117937Y204922I2415J1976*
G01*
G75*
G02X117974Y205399I3119J1*
G01*
X115024Y208348*
G75*
G02X114484Y209652I1304J1304*
G01*
Y226227*
G75*
G02X112356Y229746I1844J3519*
G01*
G37*
X102896Y239206D02*
G36*
X101382D01*
G75*
G02X97409Y235232I-3973*
G01*
G75*
G02X93435Y239206J3973*
G01*
X91922*
G75*
G02X90172Y235913I-3973J0*
G01*
Y233039*
G75*
G02X91922Y229746I-2222J-3293*
G01*
Y229746*
X93435*
G75*
G02X97409Y233719I3973*
G01*
G75*
G02X101382Y229746J-3973*
G01*
X102896*
G75*
G02X106869Y233719I3973*
G01*
G75*
G02X110842Y229746J-3973*
G01*
X112356*
G75*
G02X112613Y231151I3973*
G01*
X110294Y233469*
G75*
G02X109754Y234774I1304J1304*
G01*
Y236474*
G75*
G02X102896Y239206I-2885J2731*
G01*
G37*
X103576Y260632D02*
G36*
X92767D01*
X90172Y258038*
Y242499*
G75*
G02X91922Y239206I-2222J-3293*
G01*
Y239206*
X93435*
G75*
G02X97409Y243179I3973*
G01*
G75*
G02X101382Y239206J-3973*
G01*
X102896*
G75*
G02X109754Y241937I3973*
G01*
Y260124*
G75*
G02X103576Y260632I-2885J2731*
G01*
G37*
X89793Y319337D02*
Y299672D01*
X94318Y295147*
X118540*
G75*
G02X119021Y295668I2519J-1845*
G01*
G75*
G02X117974Y298509I2037J2365*
G01*
X115024Y301458*
G75*
G02X114484Y302763I1304J1305*
G01*
Y319337*
G75*
G02X112613Y324261I1845J3519*
G01*
X110294Y326580*
G75*
G02X109754Y327884I1304J1305*
G01*
Y329584*
G75*
G02X102896Y332316I-2885J2731*
G01*
G75*
G02X109754Y335047I3973*
G01*
Y353234*
G75*
G02X103350Y354121I-2885J2731*
G01*
X93145*
X89793Y350770*
Y335835*
G75*
G02Y328797I-1844J-3519*
G01*
Y326375*
G75*
G02Y319337I-1844J-3519*
G01*
X97409Y326829D02*
G75*
G02X101382Y322856J-3973D01*
G01*
G75*
G02X97409Y318883I-3973*
G01*
G75*
G02X93435Y322856J3973*
G01*
G75*
G02X97409Y326829I3973*
G01*
Y336289D02*
G75*
G02X101382Y332316J-3973D01*
G01*
G75*
G02X97409Y328343I-3973*
G01*
G75*
G02X93435Y332316J3973*
G01*
G75*
G02X97409Y336289I3973*
G01*
X106869Y326829D02*
G75*
G02X110842Y322856J-3973D01*
G01*
G75*
G02X106869Y318883I-3973*
G01*
G75*
G02X102896Y322856J3973*
G01*
G75*
G02X106869Y326829I3973*
G01*
X112356Y322856D02*
G36*
X110842D01*
G75*
G02X106869Y318883I-3973*
G01*
G75*
G02X102896Y322856J3973*
G01*
X101382*
G75*
G02X97409Y318883I-3973*
G01*
G75*
G02X93435Y322856J3973*
G01*
X91922*
G75*
G02X90172Y319563I-3973J0*
G01*
Y299294*
X93940Y295526*
X118643*
Y296056*
G75*
G02X117937Y298032I2415J1976*
G01*
G75*
G02X117974Y298509I3119J1*
G01*
X115024Y301458*
G75*
G02X114484Y302763I1304J1304*
G01*
Y319337*
G75*
G02X112356Y322856I1844J3519*
G01*
G37*
X102896Y332316D02*
G36*
X101382D01*
G75*
G02X97409Y328343I-3973*
G01*
G75*
G02X93435Y332316J3973*
G01*
X91922*
G75*
G02X90172Y329023I-3973J0*
G01*
Y326149*
G75*
G02X91922Y322856I-2222J-3293*
G01*
Y322856*
X93435*
G75*
G02X97409Y326829I3973*
G01*
G75*
G02X101382Y322856J-3973*
G01*
X102896*
G75*
G02X106869Y326829I3973*
G01*
G75*
G02X110842Y322856J-3973*
G01*
X112356*
G75*
G02X112613Y324261I3973*
G01*
X110294Y326580*
G75*
G02X109754Y327884I1304J1304*
G01*
Y329584*
G75*
G02X102896Y332316I-2885J2731*
G01*
G37*
X103576Y353743D02*
G36*
X92767D01*
X90172Y351148*
Y335609*
G75*
G02X91922Y332316I-2222J-3293*
G01*
Y332316*
X93435*
G75*
G02X97409Y336289I3973*
G01*
G75*
G02X101382Y332316J-3973*
G01*
X102896*
G75*
G02X109754Y335047I3973*
G01*
Y353234*
G75*
G02X103576Y353743I-2885J2731*
G01*
G37*
X89793Y412447D02*
Y392782D01*
X94318Y388257*
X118540*
G75*
G02X119021Y388778I2519J-1845*
G01*
G75*
G02X117974Y391619I2037J2365*
G01*
X115024Y394569*
G75*
G02X114484Y395873I1304J1305*
G01*
Y412447*
G75*
G02X112613Y417372I1845J3519*
G01*
X110294Y419690*
G75*
G02X109754Y420994I1304J1305*
G01*
Y422694*
G75*
G02X102896Y425426I-2885J2731*
G01*
G75*
G02X109754Y428157I3973*
G01*
Y446344*
G75*
G02X103350Y447231I-2885J2731*
G01*
X93145*
X89793Y443880*
Y428945*
G75*
G02Y421907I-1844J-3519*
G01*
Y419485*
G75*
G02Y412447I-1844J-3519*
G01*
X97409Y419939D02*
G75*
G02X101382Y415966J-3973D01*
G01*
G75*
G02X97409Y411993I-3973*
G01*
G75*
G02X93435Y415966J3973*
G01*
G75*
G02X97409Y419939I3973*
G01*
Y429399D02*
G75*
G02X101382Y425426J-3973D01*
G01*
G75*
G02X97409Y421453I-3973*
G01*
G75*
G02X93435Y425426J3973*
G01*
G75*
G02X97409Y429399I3973*
G01*
X106869Y419939D02*
G75*
G02X110842Y415966J-3973D01*
G01*
G75*
G02X106869Y411993I-3973*
G01*
G75*
G02X102896Y415966J3973*
G01*
G75*
G02X106869Y419939I3973*
G01*
X112356Y415966D02*
G36*
X110842D01*
G75*
G02X106869Y411993I-3973*
G01*
G75*
G02X102896Y415966J3973*
G01*
X101382*
G75*
G02X97409Y411993I-3973*
G01*
G75*
G02X93435Y415966J3973*
G01*
X91922*
G75*
G02X90172Y412673I-3973J0*
G01*
Y392404*
X93940Y388636*
X118643*
Y389166*
G75*
G02X117937Y391143I2415J1976*
G01*
G75*
G02X117974Y391619I3119J1*
G01*
X115024Y394569*
G75*
G02X114484Y395873I1304J1304*
G01*
Y412447*
G75*
G02X112356Y415966I1844J3519*
G01*
G37*
X102896Y425426D02*
G36*
X101382D01*
G75*
G02X97409Y421453I-3973*
G01*
G75*
G02X93435Y425426J3973*
G01*
X91922*
G75*
G02X90172Y422133I-3973J0*
G01*
Y419259*
G75*
G02X91922Y415967I-2222J-3293*
G01*
Y415966*
X93435*
G75*
G02X97409Y419939I3973*
G01*
G75*
G02X101382Y415966J-3973*
G01*
X102896*
G75*
G02X106869Y419939I3973*
G01*
G75*
G02X110842Y415966J-3973*
G01*
X112356*
G75*
G02X112613Y417372I3973*
G01*
X110294Y419690*
G75*
G02X109754Y420994I1304J1304*
G01*
Y422694*
G75*
G02X102896Y425426I-2885J2731*
G01*
G37*
X103576Y446853D02*
G36*
X92767D01*
X90172Y444258*
Y428719*
G75*
G02X91922Y425426I-2222J-3293*
G01*
Y425426*
X93435*
G75*
G02X97409Y429399I3973*
G01*
G75*
G02X101382Y425426J-3973*
G01*
X102896*
G75*
G02X109754Y428157I3973*
G01*
Y446344*
G75*
G02X103576Y446853I-2885J2731*
G01*
G37*
X113443Y143364D02*
Y142428D01*
X115378Y140493*
G75*
G02X118174Y133117I951J-3857*
G01*
Y117306*
X120582Y114898*
G75*
G02X123424Y113850I476J-3085*
G01*
G75*
G02X123944Y114331I2365J-2037*
G01*
Y133117*
G75*
G02X122072Y138041I1845J3519*
G01*
X119754Y140359*
G75*
G02X119214Y141663I1304J1305*
G01*
Y143364*
G75*
G02X113443I-2885J2731*
G01*
G36*
Y142428*
X115378Y140493*
G75*
G02X118174Y133117I951J-3857*
G01*
Y117306*
X120582Y114898*
G75*
G02X123424Y113850I476J-3085*
G01*
G75*
G02X123944Y114331I2365J-2037*
G01*
Y133117*
G75*
G02X122072Y138041I1845J3519*
G01*
X119754Y140359*
G75*
G02X119214Y141663I1304J1305*
G01*
Y143364*
G75*
G02X113443I-2885J2731*
G01*
G37*
Y167014D02*
Y148827D01*
G75*
G02X119214I2885J-2731*
G01*
Y164549*
X117734Y166029*
G75*
G02X113443Y167014I-1406J3716*
G01*
G36*
Y148827*
G75*
G02X119214I2885J-2731*
G01*
Y164549*
X117734Y166029*
G75*
G02X113443Y167014I-1406J3716*
G01*
G37*
Y236474D02*
Y235538D01*
X115378Y233603*
G75*
G02X118174Y226227I951J-3857*
G01*
Y210417*
X120582Y208008*
G75*
G02X123424Y206960I476J-3085*
G01*
G75*
G02X123944Y207441I2365J-2037*
G01*
Y226227*
G75*
G02X122072Y231151I1845J3519*
G01*
X119754Y233469*
G75*
G02X119214Y234774I1304J1305*
G01*
Y236474*
G75*
G02X113443I-2885J2731*
G01*
G36*
Y235538*
X115378Y233603*
G75*
G02X118174Y226227I951J-3857*
G01*
Y210417*
X120582Y208008*
G75*
G02X123424Y206960I476J-3085*
G01*
G75*
G02X123944Y207441I2365J-2037*
G01*
Y226227*
G75*
G02X122072Y231151I1845J3519*
G01*
X119754Y233469*
G75*
G02X119214Y234774I1304J1305*
G01*
Y236474*
G75*
G02X113443I-2885J2731*
G01*
G37*
Y260124D02*
Y241937D01*
G75*
G02X119214I2885J-2731*
G01*
Y257659*
X117734Y259139*
G75*
G02X113443Y260124I-1406J3716*
G01*
G36*
Y241937*
G75*
G02X119214I2885J-2731*
G01*
Y257659*
X117734Y259139*
G75*
G02X113443Y260124I-1406J3716*
G01*
G37*
Y329584D02*
Y328648D01*
X115378Y326713*
G75*
G02X118174Y319337I951J-3857*
G01*
Y303527*
X120582Y301118*
G75*
G02X123424Y300070I476J-3085*
G01*
G75*
G02X123944Y300551I2365J-2037*
G01*
Y319337*
G75*
G02X122072Y324261I1845J3519*
G01*
X119754Y326580*
G75*
G02X119214Y327884I1304J1305*
G01*
Y329584*
G75*
G02X113443I-2885J2731*
G01*
G36*
Y328648*
X115378Y326713*
G75*
G02X118174Y319337I951J-3857*
G01*
Y303527*
X120582Y301118*
G75*
G02X123424Y300070I476J-3085*
G01*
G75*
G02X123944Y300551I2365J-2037*
G01*
Y319337*
G75*
G02X122072Y324261I1845J3519*
G01*
X119754Y326580*
G75*
G02X119214Y327884I1304J1305*
G01*
Y329584*
G75*
G02X113443I-2885J2731*
G01*
G37*
Y353234D02*
Y335047D01*
G75*
G02X119214I2885J-2731*
G01*
Y350770*
X117734Y352250*
G75*
G02X113443Y353234I-1406J3716*
G01*
G36*
Y335047*
G75*
G02X119214I2885J-2731*
G01*
Y350770*
X117734Y352250*
G75*
G02X113443Y353234I-1406J3716*
G01*
G37*
Y422694D02*
Y421758D01*
X115378Y419824*
G75*
G02X118174Y412447I951J-3857*
G01*
Y396637*
X120582Y394228*
G75*
G02X123424Y393180I476J-3085*
G01*
G75*
G02X123944Y393661I2365J-2037*
G01*
Y412447*
G75*
G02X122072Y417372I1845J3519*
G01*
X119754Y419690*
G75*
G02X119214Y420994I1304J1305*
G01*
Y422694*
G75*
G02X113443I-2885J2731*
G01*
G36*
Y421758*
X115378Y419824*
G75*
G02X118174Y412447I951J-3857*
G01*
Y396637*
X120582Y394228*
G75*
G02X123424Y393180I476J-3085*
G01*
G75*
G02X123944Y393661I2365J-2037*
G01*
Y412447*
G75*
G02X122072Y417372I1845J3519*
G01*
X119754Y419690*
G75*
G02X119214Y420994I1304J1305*
G01*
Y422694*
G75*
G02X113443I-2885J2731*
G01*
G37*
Y446344D02*
Y428157D01*
G75*
G02X119214I2885J-2731*
G01*
Y443880*
X117734Y445360*
G75*
G02X113443Y446344I-1406J3716*
G01*
G36*
Y428157*
G75*
G02X119214I2885J-2731*
G01*
Y443880*
X117734Y445360*
G75*
G02X113443Y446344I-1406J3716*
G01*
G37*
X150743Y139763D02*
X148567Y137586D01*
G75*
G02X146554Y133117I-3858J-951*
G01*
Y125108*
G75*
G02X146013Y123804I-1845J0*
G01*
X139803Y117594*
G75*
G02X138498Y117053I-1304J1304*
G01*
X133648*
X132363Y115769*
Y114331*
G75*
G02X132884Y113850I-1845J-2519*
G01*
G75*
G02X137614I2365J-2037*
G01*
G75*
G02X142497Y113657I2365J-2037*
G01*
X147204*
X152324Y118778*
Y133117*
G75*
G02X155353Y140428I1844J3519*
G01*
X157054Y142130*
Y143364*
G75*
G02X151283I-2885J2731*
G01*
Y141067*
G75*
G02X150743Y139763I-1845J0*
G01*
G36*
X148567Y137586*
G75*
G02X146554Y133117I-3858J-951*
G01*
Y125108*
G75*
G02X146013Y123804I-1845J0*
G01*
X139803Y117594*
G75*
G02X138498Y117053I-1304J1304*
G01*
X133648*
X132363Y115769*
Y114331*
G75*
G02X132884Y113850I-1845J-2519*
G01*
G75*
G02X137614I2365J-2037*
G01*
G75*
G02X142497Y113657I2365J-2037*
G01*
X147204*
X152324Y118778*
Y133117*
G75*
G02X155353Y140428I1844J3519*
G01*
X157054Y142130*
Y143364*
G75*
G02X151283I-2885J2731*
G01*
Y141067*
G75*
G02X150743Y139763I-1845J0*
G01*
G37*
Y232873D02*
X148567Y230696D01*
G75*
G02X146554Y226227I-3858J-951*
G01*
Y218219*
G75*
G02X146013Y216914I-1845J0*
G01*
X139803Y210704*
G75*
G02X138498Y210163I-1304J1304*
G01*
X133648*
X132363Y208879*
Y207441*
G75*
G02X132884Y206960I-1845J-2519*
G01*
G75*
G02X137614I2365J-2037*
G01*
G75*
G02X142497Y206767I2365J-2037*
G01*
X147204*
X152324Y211888*
Y226227*
G75*
G02X155353Y233538I1844J3519*
G01*
X157054Y235240*
Y236474*
G75*
G02X151283I-2885J2731*
G01*
Y234178*
G75*
G02X150743Y232873I-1845J0*
G01*
G36*
X148567Y230696*
G75*
G02X146554Y226227I-3858J-951*
G01*
Y218219*
G75*
G02X146013Y216914I-1845J0*
G01*
X139803Y210704*
G75*
G02X138498Y210163I-1304J1304*
G01*
X133648*
X132363Y208879*
Y207441*
G75*
G02X132884Y206960I-1845J-2519*
G01*
G75*
G02X137614I2365J-2037*
G01*
G75*
G02X142497Y206767I2365J-2037*
G01*
X147204*
X152324Y211888*
Y226227*
G75*
G02X155353Y233538I1844J3519*
G01*
X157054Y235240*
Y236474*
G75*
G02X151283I-2885J2731*
G01*
Y234178*
G75*
G02X150743Y232873I-1845J0*
G01*
G37*
Y325983D02*
X148567Y323807D01*
G75*
G02X146554Y319337I-3858J-951*
G01*
Y311329*
G75*
G02X146013Y310024I-1845J0*
G01*
X139803Y303814*
G75*
G02X138498Y303274I-1304J1304*
G01*
X133648*
X132363Y301989*
Y300551*
G75*
G02X132884Y300070I-1845J-2519*
G01*
G75*
G02X137614I2365J-2037*
G01*
G75*
G02X142497Y299877I2365J-2037*
G01*
X147204*
X152324Y304998*
Y319337*
G75*
G02X155353Y326648I1844J3519*
G01*
X157054Y328350*
Y329584*
G75*
G02X151283I-2885J2731*
G01*
Y327288*
G75*
G02X150743Y325983I-1845J0*
G01*
G36*
X148567Y323807*
G75*
G02X146554Y319337I-3858J-951*
G01*
Y311329*
G75*
G02X146013Y310024I-1845J0*
G01*
X139803Y303814*
G75*
G02X138498Y303274I-1304J1304*
G01*
X133648*
X132363Y301989*
Y300551*
G75*
G02X132884Y300070I-1845J-2519*
G01*
G75*
G02X137614I2365J-2037*
G01*
G75*
G02X142497Y299877I2365J-2037*
G01*
X147204*
X152324Y304998*
Y319337*
G75*
G02X155353Y326648I1844J3519*
G01*
X157054Y328350*
Y329584*
G75*
G02X151283I-2885J2731*
G01*
Y327288*
G75*
G02X150743Y325983I-1845J0*
G01*
G37*
Y419094D02*
X148567Y416917D01*
G75*
G02X146554Y412447I-3858J-951*
G01*
Y404439*
G75*
G02X146013Y403135I-1845J0*
G01*
X139803Y396924*
G75*
G02X138498Y396384I-1304J1304*
G01*
X133648*
X132363Y395099*
Y393661*
G75*
G02X132884Y393180I-1845J-2519*
G01*
G75*
G02X137614I2365J-2037*
G01*
G75*
G02X142497Y392987I2365J-2037*
G01*
X147204*
X152324Y398108*
Y412447*
G75*
G02X155353Y419759I1844J3519*
G01*
X157054Y421460*
Y422694*
G75*
G02X151283I-2885J2731*
G01*
Y420398*
G75*
G02X150743Y419094I-1845J0*
G01*
G36*
X148567Y416917*
G75*
G02X146554Y412447I-3858J-951*
G01*
Y404439*
G75*
G02X146013Y403135I-1845J0*
G01*
X139803Y396924*
G75*
G02X138498Y396384I-1304J1304*
G01*
X133648*
X132363Y395099*
Y393661*
G75*
G02X132884Y393180I-1845J-2519*
G01*
G75*
G02X137614I2365J-2037*
G01*
G75*
G02X142497Y392987I2365J-2037*
G01*
X147204*
X152324Y398108*
Y412447*
G75*
G02X155353Y419759I1844J3519*
G01*
X157054Y421460*
Y422694*
G75*
G02X151283I-2885J2731*
G01*
Y420398*
G75*
G02X150743Y419094I-1845J0*
G01*
G37*
X193826Y186475D02*
Y97149D01*
X312948*
Y186475*
X193826*
X283649Y148827D02*
G75*
G02X290507Y146095I2885J-2731D01*
G01*
G75*
G02X283649Y143364I-3973*
G01*
Y141365*
G75*
G02X283109Y140061I-1844J0*
G01*
X280867Y137819*
G75*
G02X278919Y133117I-3793J-1184*
G01*
Y118013*
G75*
G02X278379Y116709I-1844J0*
G01*
X272178Y110508*
G75*
G02X270873Y109967I-1304J1304*
G01*
X265403*
G75*
G02X264922Y109447I-2519J1845*
G01*
G75*
G02X266006Y107082I-2038J-2365*
G01*
G75*
G02X260519Y105044I-3122*
G01*
G75*
G02X255789I-2365J2038*
G01*
G75*
G02X251059I-2365J2038*
G01*
G75*
G02X246329I-2365J2038*
G01*
G75*
G02X241446Y105237I-2365J2038*
G01*
X216460*
G75*
G02X215155Y105778I0J1845*
G01*
X209550Y111383*
G75*
G02X209009Y112687I1304J1305*
G01*
Y133117*
G75*
G02Y140154I1845J3519*
G01*
Y142576*
G75*
G02Y149615I1845J3519*
G01*
Y165313*
G75*
G02X209550Y166618I1845J0*
G01*
X213982Y171050*
G75*
G02X215287Y171590I1304J-1304*
G01*
X226256*
G75*
G02X232659Y172477I3519J-1845*
G01*
Y175667*
G75*
G02X233200Y176971I1845J0*
G01*
X235565Y179337*
G75*
G02X236870Y179877I1304J-1304*
G01*
X255789*
G75*
G02X257094Y179337I0J-1844*
G01*
X259459Y176971*
G75*
G02X259999Y175667I-1304J-1304*
G01*
Y173264*
G75*
G02X262128Y169745I-1844J-3519*
G01*
G75*
G02X254181I-3973*
G01*
G75*
G02X256309Y173264I3973*
G01*
Y174903*
X255025Y176187*
X237633*
X236349Y174903*
Y172477*
G75*
G02X243092Y168794I2885J-2731*
G01*
X245269Y166618*
G75*
G02X245809Y165313I-1304J-1305*
G01*
Y148827*
G75*
G02X252667Y146095I2885J-2731*
G01*
G75*
G02X245809Y143364I-3973*
G01*
Y142428*
X247743Y140493*
G75*
G02X250539Y133117I951J-3857*
G01*
Y114331*
G75*
G02X251059Y113850I-1845J-2519*
G01*
G75*
G02X251580Y114331I2365J-2037*
G01*
Y116533*
G75*
G02X252120Y117837I1845J0*
G01*
X254485Y120202*
G75*
G02X255790Y120743I1304J-1304*
G01*
X260639*
X265770Y125872*
Y133117*
G75*
G02X269020Y140352I1844J3519*
G01*
X270500Y141831*
Y143364*
G75*
G02X263641Y146095I-2885J2731*
G01*
G75*
G02X270500Y148827I3973*
G01*
Y154382*
G75*
G02X271040Y155687I1844J0*
G01*
X275230Y159876*
Y166226*
G75*
G02X273101Y169745I1845J3519*
G01*
G75*
G02X281048I3973*
G01*
G75*
G02X278919Y166226I-3973*
G01*
Y159112*
G75*
G02X278379Y157808I-1844J0*
G01*
X274189Y153618*
Y148827*
G75*
G02X279959I2885J-2731*
G01*
Y152008*
G75*
G02X280500Y153312I1845J0*
G01*
X284689Y157502*
Y174903*
X283405Y176187*
X270744*
X269459Y174903*
Y173264*
G75*
G02X271587Y169745I-1845J-3519*
G01*
G75*
G02X263641I-3973*
G01*
G75*
G02X265770Y173264I3973*
G01*
Y175667*
G75*
G02X266310Y176971I1844J0*
G01*
X268675Y179337*
G75*
G02X269980Y179877I1304J-1304*
G01*
X284169*
G75*
G02X285474Y179337I0J-1844*
G01*
X287839Y176971*
G75*
G02X288379Y175667I-1304J-1304*
G01*
Y156738*
G75*
G02X287839Y155433I-1845J0*
G01*
X283649Y151244*
Y148827*
X244721Y169745D02*
G75*
G02X252667I3973D01*
G01*
G75*
G02X244721I-3973*
G01*
X258154Y140609D02*
G75*
G02X262128Y136635J-3973D01*
G01*
G75*
G02X258154Y132662I-3973*
G01*
G75*
G02X254181Y136635J3973*
G01*
G75*
G02X258154Y140609I3973*
G01*
Y150069D02*
G75*
G02Y142122J-3973D01*
G01*
G75*
G02X254181Y146095J3973*
G01*
G75*
G02X258154Y150069I3973*
G01*
X286534Y140609D02*
G75*
G02X290507Y136635J-3973D01*
G01*
G75*
G02X286534Y132662I-3973*
G01*
G75*
G02X282561Y136635J3973*
G01*
G75*
G02X286534Y140609I3973*
G01*
X295994D02*
G75*
G02X299967Y136635J-3973D01*
G01*
G75*
G02X295994Y132662I-3973*
G01*
G75*
G02X292021Y136635J3973*
G01*
G75*
G02X295994Y140609I3973*
G01*
Y150069D02*
G75*
G02Y142122J-3973D01*
G01*
G75*
G02X292021Y146095J3973*
G01*
G75*
G02X295994Y150069I3973*
G01*
X281048Y136635D02*
G36*
G75*
G02X278919Y133117I-3973D01*
G01*
Y118013*
G75*
G02X278379Y116709I-1844*
G01*
X272178Y110508*
G75*
G02X270873Y109967I-1304J1304*
G01*
X265403*
G75*
G02X264922Y109447I-2533J1859*
G01*
G75*
G02X266006Y107082I-2039J-2366*
G01*
G75*
G02X260519Y105044I-3122J0*
G01*
G75*
G02X255789I-2365J2037*
G01*
G75*
G02X251059I-2365J2037*
G01*
G75*
G02X246329I-2365J2037*
G01*
G75*
G02X241446Y105237I-2365J2038*
G01*
X216460*
G75*
G02X215155Y105778I0J1844*
G01*
X209550Y111383*
G75*
G02X209009Y112687I1304J1304*
G01*
Y133117*
G75*
G02X206881Y136635I1845J3519*
G01*
X194205*
Y97528*
X312569*
Y136635*
X299967*
G75*
G02X295994Y132662I-3973*
G01*
G75*
G02X292021Y136635J3973*
G01*
X290507*
G75*
G02X286534Y132662I-3973*
G01*
G75*
G02X282561Y136635J3973*
G01*
X281048*
G37*
X263641D02*
G36*
X262128D01*
G75*
G02X258154Y132662I-3973*
G01*
G75*
G02X254181Y136635J3973*
G01*
X252667*
G75*
G02X250539Y133117I-3973*
G01*
Y114331*
G75*
G02X251059Y113850I-1859J-2533*
G01*
G75*
G02X251580Y114331I2379J-2052*
G01*
Y116533*
G75*
G02X252120Y117837I1844*
G01*
X254485Y120202*
G75*
G02X255790Y120743I1304J-1304*
G01*
X260639*
X265770Y125872*
Y133117*
G75*
G02X263641Y136635I1844J3519*
G01*
G37*
X206881D02*
G36*
Y136636D01*
G75*
G02X209009Y140154I3973*
G01*
Y141919*
X194205*
Y136635*
X206881*
G37*
X270500Y141919D02*
G36*
X246318D01*
X247743Y140493*
G75*
G02X252667Y136635I950J-3857*
G01*
X254181*
G75*
G02X258154Y140609I3973*
G01*
G75*
G02X262128Y136635J-3973*
G01*
X263641*
G75*
G02X269020Y140352I3973*
G01*
X270500Y141831*
Y141919*
G37*
X283649D02*
G36*
Y141365D01*
G75*
G02X283109Y140061I-1844*
G01*
X280867Y137819*
G75*
G02X281048Y136635I-3792J-1184*
G01*
X282561*
G75*
G02X286534Y140609I3973*
G01*
G75*
G02X290507Y136635J-3973*
G01*
X292021*
G75*
G02X295994Y140609I3973*
G01*
G75*
G02X299967Y136635J-3973*
G01*
X312569*
Y141919*
X283649*
G37*
X206881Y146095D02*
G36*
X194205D01*
Y141919*
X209009*
Y142576*
G75*
G02X206881Y146095I1845J3519*
G01*
G37*
X263641D02*
G36*
X262128D01*
G75*
G02X258154Y142122I-3973*
G01*
G75*
G02X254181Y146095J3973*
G01*
X252667*
G75*
G02X245809Y143364I-3973*
G01*
Y142428*
X246318Y141919*
X270500*
Y143364*
G75*
G02X263641Y146095I-2885J2731*
G01*
G37*
X290507D02*
G36*
G75*
G02X283649Y143364I-3973D01*
G01*
Y141919*
X312569*
Y146095*
X299967*
G75*
G02X295994Y142122I-3973*
G01*
G75*
G02X292021Y146095J3973*
G01*
X290507*
G37*
X206881D02*
G36*
Y146096D01*
G75*
G02X209009Y149615I3973*
G01*
Y165313*
G75*
G02X209550Y166618I1844*
G01*
X212678Y169745*
X194205*
Y146095*
X206881*
G37*
X263641D02*
G36*
G75*
G02X270500Y148827I3973D01*
G01*
Y154382*
G75*
G02X271040Y155687I1844*
G01*
X275230Y159876*
Y166226*
G75*
G02X273101Y169745I1845J3519*
G01*
X271587*
G75*
G02X263641I-3973*
G01*
X262128*
G75*
G02X254181I-3973*
G01*
X252667*
G75*
G02X244721I-3973*
G01*
X243207*
G75*
G02X243092Y168794I-3973*
G01*
X245269Y166618*
G75*
G02X245809Y165313I-1304J-1304*
G01*
Y148827*
G75*
G02X252667Y146095I2885J-2731*
G01*
X254181*
G75*
G02X258154Y150069I3973*
G01*
G75*
G02X262128Y146095J-3973*
G01*
X263641*
G37*
X284689Y169745D02*
G36*
X281048D01*
G75*
G02X278919Y166226I-3973*
G01*
Y159112*
G75*
G02X278379Y157808I-1844*
G01*
X274189Y153618*
Y148827*
G75*
G02X279959I2885J-2731*
G01*
Y152008*
G75*
G02X280500Y153312I1844*
G01*
X284689Y157502*
Y169745*
G37*
X290507Y146095D02*
G36*
X292021D01*
G75*
G02X295994Y150069I3973*
G01*
G75*
G02X299967Y146095J-3973*
G01*
X312569*
Y169745*
X288379*
Y156738*
G75*
G02X287839Y155433I-1844*
G01*
X283649Y151244*
Y148827*
G75*
G02X290507Y146095I2885J-2731*
G01*
G37*
X288379Y169745D02*
G36*
X312569D01*
Y186097*
X194205*
Y169745*
X212678*
X213982Y171050*
G75*
G02X215287Y171590I1304J-1304*
G01*
X226256*
G75*
G02X232659Y172477I3519J-1845*
G01*
Y175667*
G75*
G02X233200Y176971I1844*
G01*
X235565Y179337*
G75*
G02X236870Y179877I1304J-1304*
G01*
X255789*
G75*
G02X257094Y179337I0J-1844*
G01*
X259459Y176971*
G75*
G02X259999Y175667I-1304J-1304*
G01*
Y173264*
G75*
G02X262128Y169745I-1844J-3519*
G01*
X263641*
G75*
G02X265770Y173264I3973*
G01*
Y175667*
G75*
G02X266310Y176971I1844*
G01*
X268675Y179337*
G75*
G02X269980Y179877I1304J-1304*
G01*
X284169*
G75*
G02X285474Y179337I0J-1844*
G01*
X287839Y176971*
G75*
G02X288379Y175667I-1304J-1304*
G01*
Y169745*
G37*
X254181D02*
G36*
G75*
G02X256309Y173264I3973D01*
G01*
Y174903*
X255025Y176187*
X237633*
X236349Y174903*
Y172477*
G75*
G02X243207Y169745I2885J-2731*
G01*
X244721*
G75*
G02X252667I3973*
G01*
X254181*
G37*
X284689D02*
G36*
Y174903D01*
X283405Y176187*
X270744*
X269459Y174903*
Y173264*
G75*
G02X271587Y169745I-1845J-3519*
G01*
X273101*
G75*
G02X281048I3973*
G01*
X284689*
G37*
X193826Y279585D02*
Y190259D01*
X312948*
Y279585*
X193826*
X283649Y241937D02*
G75*
G02X290507Y239206I2885J-2731D01*
G01*
G75*
G02X283649Y236474I-3973*
G01*
Y234476*
G75*
G02X283109Y233171I-1844J0*
G01*
X280867Y230930*
G75*
G02X278919Y226227I-3793J-1184*
G01*
Y211124*
G75*
G02X278379Y209819I-1844J0*
G01*
X272178Y203618*
G75*
G02X270873Y203078I-1304J1304*
G01*
X265403*
G75*
G02X264922Y202557I-2519J1845*
G01*
G75*
G02X266006Y200193I-2038J-2365*
G01*
G75*
G02X260519Y198155I-3122*
G01*
G75*
G02X255789I-2365J2038*
G01*
G75*
G02X251059I-2365J2038*
G01*
G75*
G02X246329I-2365J2038*
G01*
G75*
G02X241446Y198348I-2365J2038*
G01*
X216460*
G75*
G02X215155Y198888I0J1845*
G01*
X209550Y204493*
G75*
G02X209009Y205798I1304J1305*
G01*
Y226227*
G75*
G02Y233265I1845J3519*
G01*
Y235687*
G75*
G02Y242725I1845J3519*
G01*
Y258424*
G75*
G02X209550Y259728I1845J0*
G01*
X213982Y264160*
G75*
G02X215287Y264700I1304J-1304*
G01*
X226256*
G75*
G02X232659Y265587I3519J-1845*
G01*
Y268778*
G75*
G02X233200Y270081I1845J0*
G01*
X235565Y272447*
G75*
G02X236870Y272987I1304J-1304*
G01*
X255789*
G75*
G02X257094Y272447I0J-1844*
G01*
X259459Y270081*
G75*
G02X259999Y268778I-1304J-1304*
G01*
Y266374*
G75*
G02X262128Y262856I-1844J-3519*
G01*
G75*
G02X254181I-3973*
G01*
G75*
G02X256309Y266374I3973*
G01*
Y268013*
X255025Y269298*
X237633*
X236349Y268013*
Y265587*
G75*
G02X243092Y261905I2885J-2731*
G01*
X245269Y259728*
G75*
G02X245809Y258424I-1304J-1305*
G01*
Y241937*
G75*
G02X252667Y239206I2885J-2731*
G01*
G75*
G02X245809Y236474I-3973*
G01*
Y235538*
X247743Y233603*
G75*
G02X250539Y226227I951J-3857*
G01*
Y207441*
G75*
G02X251059Y206960I-1845J-2519*
G01*
G75*
G02X251580Y207441I2365J-2037*
G01*
Y209643*
G75*
G02X252120Y210947I1845J0*
G01*
X254485Y213312*
G75*
G02X255790Y213853I1304J-1304*
G01*
X260639*
X265770Y218983*
Y226227*
G75*
G02X269020Y233462I1844J3519*
G01*
X270500Y234942*
Y236474*
G75*
G02X263641Y239206I-2885J2731*
G01*
G75*
G02X270500Y241937I3973*
G01*
Y247493*
G75*
G02X271040Y248797I1844J0*
G01*
X275230Y252987*
Y259337*
G75*
G02X273101Y262856I1845J3519*
G01*
G75*
G02X281048I3973*
G01*
G75*
G02X278919Y259337I-3973*
G01*
Y252222*
G75*
G02X278379Y250918I-1844J0*
G01*
X274189Y246728*
Y241937*
G75*
G02X279959I2885J-2731*
G01*
Y245118*
G75*
G02X280500Y246422I1845J0*
G01*
X284689Y250612*
Y268013*
X283405Y269298*
X270744*
X269459Y268013*
Y266374*
G75*
G02X271587Y262856I-1845J-3519*
G01*
G75*
G02X263641I-3973*
G01*
G75*
G02X265770Y266374I3973*
G01*
Y268778*
G75*
G02X266310Y270081I1844J0*
G01*
X268675Y272447*
G75*
G02X269980Y272987I1304J-1304*
G01*
X284169*
G75*
G02X285474Y272447I0J-1844*
G01*
X287839Y270081*
G75*
G02X288379Y268778I-1304J-1304*
G01*
Y249848*
G75*
G02X287839Y248544I-1845J0*
G01*
X283649Y244354*
Y241937*
X244721Y262856D02*
G75*
G02X252667I3973D01*
G01*
G75*
G02X244721I-3973*
G01*
X258154Y233719D02*
G75*
G02Y225772J-3973D01*
G01*
G75*
G02X254181Y229746J3973*
G01*
G75*
G02X258154Y233719I3973*
G01*
Y243179D02*
G75*
G02X262128Y239206J-3973D01*
G01*
G75*
G02X258154Y235232I-3973*
G01*
G75*
G02X254181Y239206J3973*
G01*
G75*
G02X258154Y243179I3973*
G01*
X286534Y233719D02*
G75*
G02X290507Y229746J-3973D01*
G01*
G75*
G02X286534Y225772I-3973*
G01*
G75*
G02X282561Y229746J3973*
G01*
G75*
G02X286534Y233719I3973*
G01*
X295994D02*
G75*
G02X299967Y229746J-3973D01*
G01*
G75*
G02X295994Y225772I-3973*
G01*
G75*
G02X292021Y229746J3973*
G01*
G75*
G02X295994Y233719I3973*
G01*
Y243179D02*
G75*
G02X299967Y239206J-3973D01*
G01*
G75*
G02X295994Y235232I-3973*
G01*
G75*
G02X292021Y239206J3973*
G01*
G75*
G02X295994Y243179I3973*
G01*
X281048Y229746D02*
G36*
G75*
G02X278919Y226227I-3973D01*
G01*
Y211124*
G75*
G02X278379Y209819I-1844*
G01*
X272178Y203618*
G75*
G02X270873Y203078I-1304J1304*
G01*
X265403*
G75*
G02X264922Y202557I-2533J1859*
G01*
G75*
G02X266006Y200193I-2039J-2366*
G01*
G75*
G02X260519Y198155I-3122J0*
G01*
G75*
G02X255789I-2365J2037*
G01*
G75*
G02X251059I-2365J2037*
G01*
G75*
G02X246329I-2365J2037*
G01*
G75*
G02X241446Y198348I-2365J2038*
G01*
X216460*
G75*
G02X215155Y198888I0J1844*
G01*
X209550Y204493*
G75*
G02X209009Y205798I1304J1304*
G01*
Y226227*
G75*
G02X206881Y229746I1845J3519*
G01*
X194205*
Y190638*
X312569*
Y229746*
X299967*
G75*
G02X295994Y225772I-3973*
G01*
G75*
G02X292021Y229746J3973*
G01*
X290507*
G75*
G02X286534Y225772I-3973*
G01*
G75*
G02X282561Y229746J3973*
G01*
X281048*
G37*
X263641D02*
G36*
X262128D01*
G75*
G02X258154Y225772I-3973*
G01*
G75*
G02X254181Y229746J3973*
G01*
X252667*
G75*
G02X250539Y226227I-3973*
G01*
Y207441*
G75*
G02X251059Y206960I-1859J-2533*
G01*
G75*
G02X251580Y207441I2379J-2052*
G01*
Y209643*
G75*
G02X252120Y210947I1844*
G01*
X254485Y213312*
G75*
G02X255790Y213853I1304J-1304*
G01*
X260639*
X265770Y218983*
Y226227*
G75*
G02X263641Y229746I1844J3519*
G01*
G37*
X206881D02*
G36*
Y229746D01*
G75*
G02X209009Y233265I3973*
G01*
Y235029*
X194205*
Y229746*
X206881*
G37*
X270500Y235029D02*
G36*
X246318D01*
X247743Y233603*
G75*
G02X252667Y229746I950J-3857*
G01*
X254181*
G75*
G02X258154Y233719I3973*
G01*
G75*
G02X262128Y229746J-3973*
G01*
X263641*
G75*
G02X269020Y233462I3973*
G01*
X270500Y234942*
Y235029*
G37*
X283649D02*
G36*
Y234476D01*
G75*
G02X283109Y233171I-1844*
G01*
X280867Y230930*
G75*
G02X281048Y229746I-3792J-1184*
G01*
X282561*
G75*
G02X286534Y233719I3973*
G01*
G75*
G02X290507Y229746J-3973*
G01*
X292021*
G75*
G02X295994Y233719I3973*
G01*
G75*
G02X299967Y229746J-3973*
G01*
X312569*
Y235029*
X283649*
G37*
X206881Y239206D02*
G36*
X194205D01*
Y235029*
X209009*
Y235687*
G75*
G02X206881Y239206I1845J3519*
G01*
G37*
X263641D02*
G36*
X262128D01*
G75*
G02X258154Y235232I-3973*
G01*
G75*
G02X254181Y239206J3973*
G01*
X252667*
G75*
G02X245809Y236474I-3973*
G01*
Y235538*
X246318Y235029*
X270500*
Y236474*
G75*
G02X263641Y239206I-2885J2731*
G01*
G37*
X290507D02*
G36*
G75*
G02X283649Y236474I-3973D01*
G01*
Y235029*
X312569*
Y239206*
X299967*
G75*
G02X295994Y235232I-3973*
G01*
G75*
G02X292021Y239206J3973*
G01*
X290507*
G37*
X206881D02*
G36*
Y239206D01*
G75*
G02X209009Y242725I3973*
G01*
Y258424*
G75*
G02X209550Y259728I1844*
G01*
X212678Y262856*
X194205*
Y239206*
X206881*
G37*
X263641D02*
G36*
G75*
G02X270500Y241937I3973D01*
G01*
Y247493*
G75*
G02X271040Y248797I1844*
G01*
X275230Y252987*
Y259337*
G75*
G02X273101Y262856I1845J3519*
G01*
X271587*
G75*
G02X263641I-3973*
G01*
X262128*
G75*
G02X254181I-3973*
G01*
X252667*
G75*
G02X244721I-3973*
G01*
X243207*
G75*
G02X243092Y261905I-3973*
G01*
X245269Y259728*
G75*
G02X245809Y258424I-1304J-1304*
G01*
Y241937*
G75*
G02X252667Y239206I2885J-2731*
G01*
X254181*
G75*
G02X258154Y243179I3973*
G01*
G75*
G02X262128Y239206J-3973*
G01*
X263641*
G37*
X284689Y262856D02*
G36*
X281048D01*
G75*
G02X278919Y259337I-3973*
G01*
Y252222*
G75*
G02X278379Y250918I-1844*
G01*
X274189Y246728*
Y241937*
G75*
G02X279959I2885J-2731*
G01*
Y245118*
G75*
G02X280500Y246422I1844*
G01*
X284689Y250612*
Y262856*
G37*
X290507Y239206D02*
G36*
X292021D01*
G75*
G02X295994Y243179I3973*
G01*
G75*
G02X299967Y239206J-3973*
G01*
X312569*
Y262856*
X288379*
Y249848*
G75*
G02X287839Y248544I-1844*
G01*
X283649Y244354*
Y241937*
G75*
G02X290507Y239206I2885J-2731*
G01*
G37*
X288379Y262856D02*
G36*
X312569D01*
Y279207*
X194205*
Y262856*
X212678*
X213982Y264160*
G75*
G02X215287Y264700I1304J-1304*
G01*
X226256*
G75*
G02X232659Y265587I3519J-1845*
G01*
Y268778*
G75*
G02X233200Y270081I1844*
G01*
X235565Y272447*
G75*
G02X236870Y272987I1304J-1304*
G01*
X255789*
G75*
G02X257094Y272447I0J-1844*
G01*
X259459Y270081*
G75*
G02X259999Y268778I-1304J-1304*
G01*
Y266374*
G75*
G02X262128Y262856I-1844J-3519*
G01*
X263641*
G75*
G02X265770Y266374I3973*
G01*
Y268778*
G75*
G02X266310Y270081I1844*
G01*
X268675Y272447*
G75*
G02X269980Y272987I1304J-1304*
G01*
X284169*
G75*
G02X285474Y272447I0J-1844*
G01*
X287839Y270081*
G75*
G02X288379Y268778I-1304J-1304*
G01*
Y262856*
G37*
X254181D02*
G36*
G75*
G02X256309Y266374I3973D01*
G01*
Y268013*
X255025Y269298*
X237633*
X236349Y268013*
Y265587*
G75*
G02X243207Y262856I2885J-2731*
G01*
X244721*
G75*
G02X252667I3973*
G01*
X254181*
G37*
X284689D02*
G36*
Y268013D01*
X283405Y269298*
X270744*
X269459Y268013*
Y266374*
G75*
G02X271587Y262856I-1845J-3519*
G01*
X273101*
G75*
G02X281048I3973*
G01*
X284689*
G37*
X193826Y372696D02*
Y283370D01*
X312948*
Y372696*
X193826*
X283649Y335047D02*
G75*
G02X290507Y332316I2885J-2731D01*
G01*
G75*
G02X283649Y329584I-3973*
G01*
Y327586*
G75*
G02X283109Y326281I-1844J0*
G01*
X280867Y324040*
G75*
G02X278919Y319337I-3793J-1184*
G01*
Y304234*
G75*
G02X278379Y302930I-1844J0*
G01*
X272178Y296728*
G75*
G02X270873Y296188I-1304J1304*
G01*
X265403*
G75*
G02X264922Y295668I-2519J1845*
G01*
G75*
G02X266006Y293303I-2038J-2365*
G01*
G75*
G02X260519Y291265I-3122*
G01*
G75*
G02X255789I-2365J2038*
G01*
G75*
G02X251059I-2365J2038*
G01*
G75*
G02X246329I-2365J2038*
G01*
G75*
G02X241446Y291458I-2365J2038*
G01*
X216460*
G75*
G02X215155Y291998I0J1845*
G01*
X209550Y297604*
G75*
G02X209009Y298908I1304J1305*
G01*
Y319337*
G75*
G02Y326375I1845J3519*
G01*
Y328797*
G75*
G02Y335835I1845J3519*
G01*
Y351534*
G75*
G02X209550Y352838I1845J0*
G01*
X213982Y357270*
G75*
G02X215287Y357811I1304J-1304*
G01*
X226256*
G75*
G02X232659Y358697I3519J-1845*
G01*
Y361888*
G75*
G02X233200Y363192I1845J0*
G01*
X235565Y365557*
G75*
G02X236870Y366097I1304J-1304*
G01*
X255789*
G75*
G02X257094Y365557I0J-1844*
G01*
X259459Y363192*
G75*
G02X259999Y361888I-1304J-1304*
G01*
Y359485*
G75*
G02X262128Y355966I-1844J-3519*
G01*
G75*
G02X254181I-3973*
G01*
G75*
G02X256309Y359485I3973*
G01*
Y361123*
X255025Y362408*
X237633*
X236349Y361123*
Y358697*
G75*
G02X243092Y355015I2885J-2731*
G01*
X245269Y352838*
G75*
G02X245809Y351534I-1304J-1305*
G01*
Y335047*
G75*
G02X252667Y332316I2885J-2731*
G01*
G75*
G02X245809Y329584I-3973*
G01*
Y328648*
X247743Y326713*
G75*
G02X250539Y319337I951J-3857*
G01*
Y300551*
G75*
G02X251059Y300070I-1845J-2519*
G01*
G75*
G02X251580Y300551I2365J-2037*
G01*
Y302753*
G75*
G02X252120Y304057I1845J0*
G01*
X254485Y306422*
G75*
G02X255790Y306963I1304J-1304*
G01*
X260639*
X265770Y312093*
Y319337*
G75*
G02X269020Y326572I1844J3519*
G01*
X270500Y328052*
Y329584*
G75*
G02X263641Y332316I-2885J2731*
G01*
G75*
G02X270500Y335047I3973*
G01*
Y340603*
G75*
G02X271040Y341907I1844J0*
G01*
X275230Y346097*
Y352447*
G75*
G02X273101Y355966I1845J3519*
G01*
G75*
G02X281048I3973*
G01*
G75*
G02X278919Y352447I-3973*
G01*
Y345333*
G75*
G02X278379Y344028I-1844J0*
G01*
X274189Y339838*
Y335047*
G75*
G02X279959I2885J-2731*
G01*
Y338228*
G75*
G02X280500Y339533I1845J0*
G01*
X284689Y343722*
Y361123*
X283405Y362408*
X270744*
X269459Y361123*
Y359485*
G75*
G02X271587Y355966I-1845J-3519*
G01*
G75*
G02X263641I-3973*
G01*
G75*
G02X265770Y359485I3973*
G01*
Y361888*
G75*
G02X266310Y363192I1844J0*
G01*
X268675Y365557*
G75*
G02X269980Y366097I1304J-1304*
G01*
X284169*
G75*
G02X285474Y365557I0J-1844*
G01*
X287839Y363192*
G75*
G02X288379Y361888I-1304J-1304*
G01*
Y342958*
G75*
G02X287839Y341654I-1845J0*
G01*
X283649Y337464*
Y335047*
X244721Y355966D02*
G75*
G02X252667I3973D01*
G01*
G75*
G02X244721I-3973*
G01*
X258154Y326829D02*
G75*
G02X262128Y322856J-3973D01*
G01*
G75*
G02X258154Y318883I-3973*
G01*
G75*
G02X254181Y322856J3973*
G01*
G75*
G02X258154Y326829I3973*
G01*
Y336289D02*
G75*
G02X262128Y332316J-3973D01*
G01*
G75*
G02X258154Y328343I-3973*
G01*
G75*
G02X254181Y332316J3973*
G01*
G75*
G02X258154Y336289I3973*
G01*
X286534Y326829D02*
G75*
G02X290507Y322856J-3973D01*
G01*
G75*
G02X286534Y318883I-3973*
G01*
G75*
G02X282561Y322856J3973*
G01*
G75*
G02X286534Y326829I3973*
G01*
X295994D02*
G75*
G02X299967Y322856J-3973D01*
G01*
G75*
G02X295994Y318883I-3973*
G01*
G75*
G02X292021Y322856J3973*
G01*
G75*
G02X295994Y326829I3973*
G01*
Y336289D02*
G75*
G02X299967Y332316J-3973D01*
G01*
G75*
G02X295994Y328343I-3973*
G01*
G75*
G02X292021Y332316J3973*
G01*
G75*
G02X295994Y336289I3973*
G01*
X281048Y322856D02*
G36*
G75*
G02X278919Y319337I-3973D01*
G01*
Y304234*
G75*
G02X278379Y302930I-1844*
G01*
X272178Y296728*
G75*
G02X270873Y296188I-1304J1304*
G01*
X265403*
G75*
G02X264922Y295668I-2533J1859*
G01*
G75*
G02X266006Y293303I-2039J-2366*
G01*
G75*
G02X260519Y291265I-3122J0*
G01*
G75*
G02X255789I-2365J2037*
G01*
G75*
G02X251059I-2365J2037*
G01*
G75*
G02X246329I-2365J2037*
G01*
G75*
G02X241446Y291458I-2365J2038*
G01*
X216460*
G75*
G02X215155Y291998I0J1844*
G01*
X209550Y297604*
G75*
G02X209009Y298908I1304J1304*
G01*
Y319337*
G75*
G02X206881Y322856I1845J3519*
G01*
X194205*
Y283748*
X312569*
Y322856*
X299967*
G75*
G02X295994Y318883I-3973*
G01*
G75*
G02X292021Y322856J3973*
G01*
X290507*
G75*
G02X286534Y318883I-3973*
G01*
G75*
G02X282561Y322856J3973*
G01*
X281048*
G37*
X263641D02*
G36*
X262128D01*
G75*
G02X258154Y318883I-3973*
G01*
G75*
G02X254181Y322856J3973*
G01*
X252667*
G75*
G02X250539Y319337I-3973*
G01*
Y300551*
G75*
G02X251059Y300070I-1859J-2533*
G01*
G75*
G02X251580Y300551I2379J-2052*
G01*
Y302753*
G75*
G02X252120Y304057I1844*
G01*
X254485Y306422*
G75*
G02X255790Y306963I1304J-1304*
G01*
X260639*
X265770Y312093*
Y319337*
G75*
G02X263641Y322856I1844J3519*
G01*
G37*
X206881D02*
G36*
Y322856D01*
G75*
G02X209009Y326375I3973*
G01*
Y328139*
X194205*
Y322856*
X206881*
G37*
X270500Y328139D02*
G36*
X246318D01*
X247743Y326713*
G75*
G02X252667Y322856I950J-3857*
G01*
X254181*
G75*
G02X258154Y326829I3973*
G01*
G75*
G02X262128Y322856J-3973*
G01*
X263641*
G75*
G02X269020Y326572I3973*
G01*
X270500Y328052*
Y328139*
G37*
X283649D02*
G36*
Y327586D01*
G75*
G02X283109Y326281I-1844*
G01*
X280867Y324040*
G75*
G02X281048Y322856I-3792J-1184*
G01*
X282561*
G75*
G02X286534Y326829I3973*
G01*
G75*
G02X290507Y322856J-3973*
G01*
X292021*
G75*
G02X295994Y326829I3973*
G01*
G75*
G02X299967Y322856J-3973*
G01*
X312569*
Y328139*
X283649*
G37*
X206881Y332316D02*
G36*
X194205D01*
Y328139*
X209009*
Y328797*
G75*
G02X206881Y332316I1845J3519*
G01*
G37*
X263641D02*
G36*
X262128D01*
G75*
G02X258154Y328343I-3973*
G01*
G75*
G02X254181Y332316J3973*
G01*
X252667*
G75*
G02X245809Y329584I-3973*
G01*
Y328648*
X246318Y328139*
X270500*
Y329584*
G75*
G02X263641Y332316I-2885J2731*
G01*
G37*
X290507D02*
G36*
G75*
G02X283649Y329584I-3973D01*
G01*
Y328139*
X312569*
Y332316*
X299967*
G75*
G02X295994Y328343I-3973*
G01*
G75*
G02X292021Y332316J3973*
G01*
X290507*
G37*
X206881D02*
G36*
Y332316D01*
G75*
G02X209009Y335835I3973*
G01*
Y351534*
G75*
G02X209550Y352838I1844*
G01*
X212678Y355966*
X194205*
Y332316*
X206881*
G37*
X263641D02*
G36*
G75*
G02X270500Y335047I3973D01*
G01*
Y340603*
G75*
G02X271040Y341907I1844*
G01*
X275230Y346097*
Y352447*
G75*
G02X273101Y355966I1845J3519*
G01*
X271587*
G75*
G02X263641I-3973*
G01*
X262128*
G75*
G02X254181I-3973*
G01*
X252667*
G75*
G02X244721I-3973*
G01*
X243207*
G75*
G02X243092Y355015I-3973*
G01*
X245269Y352838*
G75*
G02X245809Y351534I-1304J-1304*
G01*
Y335047*
G75*
G02X252667Y332316I2885J-2731*
G01*
X254181*
G75*
G02X258154Y336289I3973*
G01*
G75*
G02X262128Y332316J-3973*
G01*
X263641*
G37*
X284689Y355966D02*
G36*
X281048D01*
G75*
G02X278919Y352447I-3973*
G01*
Y345333*
G75*
G02X278379Y344028I-1844*
G01*
X274189Y339838*
Y335047*
G75*
G02X279959I2885J-2731*
G01*
Y338228*
G75*
G02X280500Y339533I1844*
G01*
X284689Y343722*
Y355966*
G37*
X290507Y332316D02*
G36*
X292021D01*
G75*
G02X295994Y336289I3973*
G01*
G75*
G02X299967Y332316J-3973*
G01*
X312569*
Y355966*
X288379*
Y342958*
G75*
G02X287839Y341654I-1844*
G01*
X283649Y337464*
Y335047*
G75*
G02X290507Y332316I2885J-2731*
G01*
G37*
X288379Y355966D02*
G36*
X312569D01*
Y372317*
X194205*
Y355966*
X212678*
X213982Y357270*
G75*
G02X215287Y357811I1304J-1304*
G01*
X226256*
G75*
G02X232659Y358697I3519J-1845*
G01*
Y361888*
G75*
G02X233200Y363192I1844*
G01*
X235565Y365557*
G75*
G02X236870Y366097I1304J-1304*
G01*
X255789*
G75*
G02X257094Y365557I0J-1844*
G01*
X259459Y363192*
G75*
G02X259999Y361888I-1304J-1304*
G01*
Y359485*
G75*
G02X262128Y355966I-1844J-3519*
G01*
X263641*
G75*
G02X265770Y359485I3973*
G01*
Y361888*
G75*
G02X266310Y363192I1844*
G01*
X268675Y365557*
G75*
G02X269980Y366097I1304J-1304*
G01*
X284169*
G75*
G02X285474Y365557I0J-1844*
G01*
X287839Y363192*
G75*
G02X288379Y361888I-1304J-1304*
G01*
Y355966*
G37*
X254181D02*
G36*
G75*
G02X256309Y359485I3973D01*
G01*
Y361123*
X255025Y362408*
X237633*
X236349Y361123*
Y358697*
G75*
G02X243207Y355966I2885J-2731*
G01*
X244721*
G75*
G02X252667I3973*
G01*
X254181*
G37*
X284689D02*
G36*
Y361123D01*
X283405Y362408*
X270744*
X269459Y361123*
Y359485*
G75*
G02X271587Y355966I-1845J-3519*
G01*
X273101*
G75*
G02X281048I3973*
G01*
X284689*
G37*
X193826Y465806D02*
Y376480D01*
X312948*
Y465806*
X193826*
X283649Y428157D02*
G75*
G02X290507Y425426I2885J-2731D01*
G01*
G75*
G02X283649Y422694I-3973*
G01*
Y420696*
G75*
G02X283109Y419392I-1844J0*
G01*
X280867Y417150*
G75*
G02X278919Y412447I-3793J-1184*
G01*
Y397344*
G75*
G02X278379Y396040I-1844J0*
G01*
X272178Y389839*
G75*
G02X270873Y389298I-1304J1304*
G01*
X265403*
G75*
G02X264922Y388778I-2519J1845*
G01*
G75*
G02X266006Y386413I-2038J-2365*
G01*
G75*
G02X260519Y384375I-3122*
G01*
G75*
G02X255789I-2365J2038*
G01*
G75*
G02X251059I-2365J2038*
G01*
G75*
G02X246329I-2365J2038*
G01*
G75*
G02X241446Y384568I-2365J2038*
G01*
X216460*
G75*
G02X215155Y385109I0J1845*
G01*
X209550Y390714*
G75*
G02X209009Y392018I1304J1305*
G01*
Y412447*
G75*
G02Y419485I1845J3519*
G01*
Y421907*
G75*
G02Y428945I1845J3519*
G01*
Y444644*
G75*
G02X209550Y445948I1845J0*
G01*
X213982Y450380*
G75*
G02X215287Y450921I1304J-1304*
G01*
X226256*
G75*
G02X232659Y451807I3519J-1845*
G01*
Y454998*
G75*
G02X233200Y456302I1845J0*
G01*
X235565Y458667*
G75*
G02X236870Y459207I1304J-1304*
G01*
X255789*
G75*
G02X257094Y458667I0J-1844*
G01*
X259459Y456302*
G75*
G02X259999Y454998I-1304J-1304*
G01*
Y452595*
G75*
G02X262128Y449076I-1844J-3519*
G01*
G75*
G02X254181I-3973*
G01*
G75*
G02X256309Y452595I3973*
G01*
Y454233*
X255025Y455518*
X237633*
X236349Y454233*
Y451807*
G75*
G02X243092Y448125I2885J-2731*
G01*
X245269Y445948*
G75*
G02X245809Y444644I-1304J-1305*
G01*
Y428157*
G75*
G02X252667Y425426I2885J-2731*
G01*
G75*
G02X245809Y422694I-3973*
G01*
Y421758*
X247743Y419824*
G75*
G02X250539Y412447I951J-3857*
G01*
Y393661*
G75*
G02X251059Y393180I-1845J-2519*
G01*
G75*
G02X251580Y393661I2365J-2037*
G01*
Y395863*
G75*
G02X252120Y397168I1845J0*
G01*
X254485Y399533*
G75*
G02X255790Y400073I1304J-1304*
G01*
X260639*
X265770Y405203*
Y412447*
G75*
G02X269020Y419682I1844J3519*
G01*
X270500Y421162*
Y422694*
G75*
G02X263641Y425426I-2885J2731*
G01*
G75*
G02X270500Y428157I3973*
G01*
Y433713*
G75*
G02X271040Y435017I1844J0*
G01*
X275230Y439207*
Y445557*
G75*
G02X273101Y449076I1845J3519*
G01*
G75*
G02X281048I3973*
G01*
G75*
G02X278919Y445557I-3973*
G01*
Y438443*
G75*
G02X278379Y437139I-1844J0*
G01*
X274189Y432948*
Y428157*
G75*
G02X279959I2885J-2731*
G01*
Y431339*
G75*
G02X280500Y432643I1845J0*
G01*
X284689Y436833*
Y454233*
X283405Y455518*
X270744*
X269459Y454233*
Y452595*
G75*
G02X271587Y449076I-1845J-3519*
G01*
G75*
G02X263641I-3973*
G01*
G75*
G02X265770Y452595I3973*
G01*
Y454998*
G75*
G02X266310Y456302I1844J0*
G01*
X268675Y458667*
G75*
G02X269980Y459207I1304J-1304*
G01*
X284169*
G75*
G02X285474Y458667I0J-1844*
G01*
X287839Y456302*
G75*
G02X288379Y454998I-1304J-1304*
G01*
Y436069*
G75*
G02X287839Y434764I-1845J0*
G01*
X283649Y430574*
Y428157*
X244721Y449076D02*
G75*
G02X252667I3973D01*
G01*
G75*
G02X244721I-3973*
G01*
X258154Y419939D02*
G75*
G02X262128Y415966J-3973D01*
G01*
G75*
G02X258154Y411993I-3973*
G01*
G75*
G02X254181Y415966J3973*
G01*
G75*
G02X258154Y419939I3973*
G01*
Y429399D02*
G75*
G02X262128Y425426J-3973D01*
G01*
G75*
G02X258154Y421453I-3973*
G01*
G75*
G02X254181Y425426J3973*
G01*
G75*
G02X258154Y429399I3973*
G01*
X286534Y419939D02*
G75*
G02X290507Y415966J-3973D01*
G01*
G75*
G02X286534Y411993I-3973*
G01*
G75*
G02X282561Y415966J3973*
G01*
G75*
G02X286534Y419939I3973*
G01*
X295994D02*
G75*
G02X299967Y415966J-3973D01*
G01*
G75*
G02X295994Y411993I-3973*
G01*
G75*
G02X292021Y415966J3973*
G01*
G75*
G02X295994Y419939I3973*
G01*
Y429399D02*
G75*
G02X299967Y425426J-3973D01*
G01*
G75*
G02X295994Y421453I-3973*
G01*
G75*
G02X292021Y425426J3973*
G01*
G75*
G02X295994Y429399I3973*
G01*
X281048Y415966D02*
G36*
G75*
G02X278919Y412447I-3973D01*
G01*
Y397344*
G75*
G02X278379Y396040I-1844*
G01*
X272178Y389839*
G75*
G02X270873Y389298I-1304J1304*
G01*
X265403*
G75*
G02X264922Y388778I-2533J1859*
G01*
G75*
G02X266006Y386413I-2039J-2366*
G01*
G75*
G02X260519Y384375I-3122J0*
G01*
G75*
G02X255789I-2365J2037*
G01*
G75*
G02X251059I-2365J2037*
G01*
G75*
G02X246329I-2365J2037*
G01*
G75*
G02X241446Y384568I-2365J2038*
G01*
X216460*
G75*
G02X215155Y385109I0J1844*
G01*
X209550Y390714*
G75*
G02X209009Y392018I1304J1304*
G01*
Y412447*
G75*
G02X206881Y415966I1845J3519*
G01*
X194205*
Y376858*
X312569*
Y415966*
X299967*
G75*
G02X295994Y411993I-3973*
G01*
G75*
G02X292021Y415966J3973*
G01*
X290507*
G75*
G02X286534Y411993I-3973*
G01*
G75*
G02X282561Y415966J3973*
G01*
X281048*
G37*
X263641D02*
G36*
X262128D01*
G75*
G02X258154Y411993I-3973*
G01*
G75*
G02X254181Y415966J3973*
G01*
X252667*
G75*
G02X250539Y412447I-3973*
G01*
Y393661*
G75*
G02X251059Y393180I-1859J-2533*
G01*
G75*
G02X251580Y393661I2379J-2052*
G01*
Y395863*
G75*
G02X252120Y397168I1844*
G01*
X254485Y399533*
G75*
G02X255790Y400073I1304J-1304*
G01*
X260639*
X265770Y405203*
Y412447*
G75*
G02X263641Y415966I1844J3519*
G01*
G37*
X206881D02*
G36*
Y415967D01*
G75*
G02X209009Y419485I3973*
G01*
Y421249*
X194205*
Y415966*
X206881*
G37*
X270500Y421249D02*
G36*
X246318D01*
X247743Y419824*
G75*
G02X252667Y415966I950J-3857*
G01*
X254181*
G75*
G02X258154Y419939I3973*
G01*
G75*
G02X262128Y415966J-3973*
G01*
X263641*
G75*
G02X269020Y419682I3973*
G01*
X270500Y421162*
Y421249*
G37*
X283649D02*
G36*
Y420696D01*
G75*
G02X283109Y419392I-1844*
G01*
X280867Y417150*
G75*
G02X281048Y415966I-3792J-1184*
G01*
X282561*
G75*
G02X286534Y419939I3973*
G01*
G75*
G02X290507Y415966J-3973*
G01*
X292021*
G75*
G02X295994Y419939I3973*
G01*
G75*
G02X299967Y415966J-3973*
G01*
X312569*
Y421249*
X283649*
G37*
X206881Y425426D02*
G36*
X194205D01*
Y421249*
X209009*
Y421907*
G75*
G02X206881Y425426I1845J3519*
G01*
G37*
X263641D02*
G36*
X262128D01*
G75*
G02X258154Y421453I-3973*
G01*
G75*
G02X254181Y425426J3973*
G01*
X252667*
G75*
G02X245809Y422694I-3973*
G01*
Y421758*
X246318Y421249*
X270500*
Y422694*
G75*
G02X263641Y425426I-2885J2731*
G01*
G37*
X290507D02*
G36*
G75*
G02X283649Y422694I-3973D01*
G01*
Y421249*
X312569*
Y425426*
X299967*
G75*
G02X295994Y421453I-3973*
G01*
G75*
G02X292021Y425426J3973*
G01*
X290507*
G37*
X206881D02*
G36*
Y425426D01*
G75*
G02X209009Y428945I3973*
G01*
Y444644*
G75*
G02X209550Y445948I1844*
G01*
X212678Y449076*
X194205*
Y425426*
X206881*
G37*
X263641D02*
G36*
G75*
G02X270500Y428157I3973D01*
G01*
Y433713*
G75*
G02X271040Y435017I1844*
G01*
X275230Y439207*
Y445557*
G75*
G02X273101Y449076I1845J3519*
G01*
X271587*
G75*
G02X263641I-3973*
G01*
X262128*
G75*
G02X254181I-3973*
G01*
X252667*
G75*
G02X244721I-3973*
G01*
X243207*
G75*
G02X243092Y448125I-3973*
G01*
X245269Y445948*
G75*
G02X245809Y444644I-1304J-1304*
G01*
Y428157*
G75*
G02X252667Y425426I2885J-2731*
G01*
X254181*
G75*
G02X258154Y429399I3973*
G01*
G75*
G02X262128Y425426J-3973*
G01*
X263641*
G37*
X284689Y449076D02*
G36*
X281048D01*
G75*
G02X278919Y445557I-3973*
G01*
Y438443*
G75*
G02X278379Y437139I-1844*
G01*
X274189Y432948*
Y428157*
G75*
G02X279959I2885J-2731*
G01*
Y431339*
G75*
G02X280500Y432643I1844*
G01*
X284689Y436833*
Y449076*
G37*
X290507Y425426D02*
G36*
X292021D01*
G75*
G02X295994Y429399I3973*
G01*
G75*
G02X299967Y425426J-3973*
G01*
X312569*
Y449076*
X288379*
Y436069*
G75*
G02X287839Y434764I-1844*
G01*
X283649Y430574*
Y428157*
G75*
G02X290507Y425426I2885J-2731*
G01*
G37*
X288379Y449076D02*
G36*
X312569D01*
Y465428*
X194205*
Y449076*
X212678*
X213982Y450380*
G75*
G02X215287Y450921I1304J-1304*
G01*
X226256*
G75*
G02X232659Y451807I3519J-1845*
G01*
Y454998*
G75*
G02X233200Y456302I1844*
G01*
X235565Y458667*
G75*
G02X236870Y459207I1304J-1304*
G01*
X255789*
G75*
G02X257094Y458667I0J-1844*
G01*
X259459Y456302*
G75*
G02X259999Y454998I-1304J-1304*
G01*
Y452595*
G75*
G02X262128Y449076I-1844J-3519*
G01*
X263641*
G75*
G02X265770Y452595I3973*
G01*
Y454998*
G75*
G02X266310Y456302I1844*
G01*
X268675Y458667*
G75*
G02X269980Y459207I1304J-1304*
G01*
X284169*
G75*
G02X285474Y458667I0J-1844*
G01*
X287839Y456302*
G75*
G02X288379Y454998I-1304J-1304*
G01*
Y449076*
G37*
X254181D02*
G36*
G75*
G02X256309Y452595I3973D01*
G01*
Y454233*
X255025Y455518*
X237633*
X236349Y454233*
Y451807*
G75*
G02X243207Y449076I2885J-2731*
G01*
X244721*
G75*
G02X252667I3973*
G01*
X254181*
G37*
X284689D02*
G36*
Y454233D01*
X283405Y455518*
X270744*
X269459Y454233*
Y452595*
G75*
G02X271587Y449076I-1845J-3519*
G01*
X273101*
G75*
G02X281048I3973*
G01*
X284689*
G37*
X212699Y133117D02*
Y113452D01*
X217224Y108927*
X241446*
G75*
G02X241927Y109447I2519J-1845*
G01*
G75*
G02X240879Y112289I2037J2365*
G01*
X237930Y115238*
G75*
G02X237389Y116542I1304J1305*
G01*
Y133117*
G75*
G02X235518Y138041I1845J3519*
G01*
X233200Y140359*
G75*
G02X232659Y141663I1304J1305*
G01*
Y143364*
G75*
G02X225801Y146095I-2885J2731*
G01*
G75*
G02X232659Y148827I3973*
G01*
Y167014*
G75*
G02X226256Y167901I-2885J2731*
G01*
X216050*
X212699Y164549*
Y149614*
G75*
G02Y142576I-1844J-3519*
G01*
Y140154*
G75*
G02Y133117I-1844J-3519*
G01*
X220314Y140609D02*
G75*
G02X224287Y136635J-3973D01*
G01*
G75*
G02X220314Y132662I-3973*
G01*
G75*
G02X216341Y136635J3973*
G01*
G75*
G02X220314Y140609I3973*
G01*
Y150069D02*
G75*
G02X224287Y146095J-3973D01*
G01*
G75*
G02X220314Y142122I-3973*
G01*
G75*
G02X216341Y146095J3973*
G01*
G75*
G02X220314Y150069I3973*
G01*
X229774Y140609D02*
G75*
G02X233748Y136635J-3973D01*
G01*
G75*
G02X229774Y132662I-3973*
G01*
G75*
G02X225801Y136635J3973*
G01*
G75*
G02X229774Y140609I3973*
G01*
X235261Y136635D02*
G36*
X233748D01*
G75*
G02X229774Y132662I-3973*
G01*
G75*
G02X225801Y136635J3973*
G01*
X224287*
G75*
G02X220314Y132662I-3973*
G01*
G75*
G02X216341Y136635J3973*
G01*
X214828*
G75*
G02X213077Y133343I-3973J0*
G01*
Y113073*
X216845Y109305*
X241548*
Y109835*
G75*
G02X240843Y111812I2415J1976*
G01*
G75*
G02X240879Y112289I3119J1*
G01*
X237930Y115238*
G75*
G02X237389Y116542I1304J1304*
G01*
Y133117*
G75*
G02X235261Y136635I1844J3519*
G01*
G37*
X225801Y146095D02*
G36*
X224287D01*
G75*
G02X220314Y142122I-3973*
G01*
G75*
G02X216341Y146095J3973*
G01*
X214827*
G75*
G02X213077Y142803I-3973*
G01*
Y139928*
G75*
G02X214828Y136636I-2222J-3293*
G01*
Y136635*
X216341*
G75*
G02X220314Y140609I3973*
G01*
G75*
G02X224287Y136635J-3973*
G01*
X225801*
G75*
G02X229774Y140609I3973*
G01*
G75*
G02X233748Y136635J-3973*
G01*
X235261*
G75*
G02X235518Y138041I3973*
G01*
X233200Y140359*
G75*
G02X232659Y141663I1304J1304*
G01*
Y143364*
G75*
G02X225801Y146095I-2885J2731*
G01*
G37*
X226481Y167522D02*
G36*
X215672D01*
X213077Y164928*
Y149388*
G75*
G02X214827Y146095I-2223J-3293*
G01*
X216341*
G75*
G02X220314Y150069I3973*
G01*
G75*
G02X224287Y146095J-3973*
G01*
X225801*
G75*
G02X232659Y148827I3973*
G01*
Y167014*
G75*
G02X226481Y167522I-2885J2731*
G01*
G37*
X212699Y226227D02*
Y206562D01*
X217224Y202037*
X241446*
G75*
G02X241927Y202557I2519J-1845*
G01*
G75*
G02X240879Y205399I2037J2365*
G01*
X237930Y208348*
G75*
G02X237389Y209652I1304J1305*
G01*
Y226227*
G75*
G02X235518Y231151I1845J3519*
G01*
X233200Y233469*
G75*
G02X232659Y234774I1304J1305*
G01*
Y236474*
G75*
G02X225801Y239206I-2885J2731*
G01*
G75*
G02X232659Y241937I3973*
G01*
Y260124*
G75*
G02X226256Y261011I-2885J2731*
G01*
X216050*
X212699Y257659*
Y242725*
G75*
G02Y235687I-1844J-3519*
G01*
Y233265*
G75*
G02Y226227I-1844J-3519*
G01*
X220314Y233719D02*
G75*
G02Y225772J-3973D01*
G01*
G75*
G02X216341Y229746J3973*
G01*
G75*
G02X220314Y233719I3973*
G01*
Y243179D02*
G75*
G02X224287Y239206J-3973D01*
G01*
G75*
G02X220314Y235232I-3973*
G01*
G75*
G02X216341Y239206J3973*
G01*
G75*
G02X220314Y243179I3973*
G01*
X229774Y233719D02*
G75*
G02Y225772J-3973D01*
G01*
G75*
G02X225801Y229746J3973*
G01*
G75*
G02X229774Y233719I3973*
G01*
X235261Y229746D02*
G36*
X233748D01*
G75*
G02X229774Y225772I-3973*
G01*
G75*
G02X225801Y229746J3973*
G01*
X224287*
G75*
G02X220314Y225772I-3973*
G01*
G75*
G02X216341Y229746J3973*
G01*
X214828*
G75*
G02X213077Y226453I-3973J0*
G01*
Y206183*
X216845Y202415*
X241548*
Y202945*
G75*
G02X240843Y204922I2415J1976*
G01*
G75*
G02X240879Y205399I3119J1*
G01*
X237930Y208348*
G75*
G02X237389Y209652I1304J1304*
G01*
Y226227*
G75*
G02X235261Y229746I1844J3519*
G01*
G37*
X225801Y239206D02*
G36*
X224287D01*
G75*
G02X220314Y235232I-3973*
G01*
G75*
G02X216341Y239206J3973*
G01*
X214828*
G75*
G02X213077Y235913I-3973J0*
G01*
Y233039*
G75*
G02X214828Y229746I-2222J-3293*
G01*
Y229746*
X216341*
G75*
G02X220314Y233719I3973*
G01*
G75*
G02X224287Y229746J-3973*
G01*
X225801*
G75*
G02X229774Y233719I3973*
G01*
G75*
G02X233748Y229746J-3973*
G01*
X235261*
G75*
G02X235518Y231151I3973*
G01*
X233200Y233469*
G75*
G02X232659Y234774I1304J1304*
G01*
Y236474*
G75*
G02X225801Y239206I-2885J2731*
G01*
G37*
X226481Y260632D02*
G36*
X215672D01*
X213077Y258038*
Y242499*
G75*
G02X214828Y239206I-2222J-3293*
G01*
Y239206*
X216341*
G75*
G02X220314Y243179I3973*
G01*
G75*
G02X224287Y239206J-3973*
G01*
X225801*
G75*
G02X232659Y241937I3973*
G01*
Y260124*
G75*
G02X226481Y260632I-2885J2731*
G01*
G37*
X212699Y319337D02*
Y299672D01*
X217224Y295147*
X241446*
G75*
G02X241927Y295668I2519J-1845*
G01*
G75*
G02X240879Y298509I2037J2365*
G01*
X237930Y301458*
G75*
G02X237389Y302763I1304J1305*
G01*
Y319337*
G75*
G02X235518Y324261I1845J3519*
G01*
X233200Y326580*
G75*
G02X232659Y327884I1304J1305*
G01*
Y329584*
G75*
G02X225801Y332316I-2885J2731*
G01*
G75*
G02X232659Y335047I3973*
G01*
Y353234*
G75*
G02X226256Y354121I-2885J2731*
G01*
X216050*
X212699Y350770*
Y335835*
G75*
G02Y328797I-1844J-3519*
G01*
Y326375*
G75*
G02Y319337I-1844J-3519*
G01*
X220314Y326829D02*
G75*
G02X224287Y322856J-3973D01*
G01*
G75*
G02X220314Y318883I-3973*
G01*
G75*
G02X216341Y322856J3973*
G01*
G75*
G02X220314Y326829I3973*
G01*
Y336289D02*
G75*
G02X224287Y332316J-3973D01*
G01*
G75*
G02X220314Y328343I-3973*
G01*
G75*
G02X216341Y332316J3973*
G01*
G75*
G02X220314Y336289I3973*
G01*
X229774Y326829D02*
G75*
G02X233748Y322856J-3973D01*
G01*
G75*
G02X229774Y318883I-3973*
G01*
G75*
G02X225801Y322856J3973*
G01*
G75*
G02X229774Y326829I3973*
G01*
X235261Y322856D02*
G36*
X233748D01*
G75*
G02X229774Y318883I-3973*
G01*
G75*
G02X225801Y322856J3973*
G01*
X224287*
G75*
G02X220314Y318883I-3973*
G01*
G75*
G02X216341Y322856J3973*
G01*
X214828*
G75*
G02X213077Y319563I-3973J0*
G01*
Y299294*
X216845Y295526*
X241548*
Y296056*
G75*
G02X240843Y298032I2415J1976*
G01*
G75*
G02X240879Y298509I3119J1*
G01*
X237930Y301458*
G75*
G02X237389Y302763I1304J1304*
G01*
Y319337*
G75*
G02X235261Y322856I1844J3519*
G01*
G37*
X225801Y332316D02*
G36*
X224287D01*
G75*
G02X220314Y328343I-3973*
G01*
G75*
G02X216341Y332316J3973*
G01*
X214828*
G75*
G02X213077Y329023I-3973J0*
G01*
Y326149*
G75*
G02X214828Y322856I-2222J-3293*
G01*
Y322856*
X216341*
G75*
G02X220314Y326829I3973*
G01*
G75*
G02X224287Y322856J-3973*
G01*
X225801*
G75*
G02X229774Y326829I3973*
G01*
G75*
G02X233748Y322856J-3973*
G01*
X235261*
G75*
G02X235518Y324261I3973*
G01*
X233200Y326580*
G75*
G02X232659Y327884I1304J1304*
G01*
Y329584*
G75*
G02X225801Y332316I-2885J2731*
G01*
G37*
X226481Y353743D02*
G36*
X215672D01*
X213077Y351148*
Y335609*
G75*
G02X214828Y332316I-2222J-3293*
G01*
Y332316*
X216341*
G75*
G02X220314Y336289I3973*
G01*
G75*
G02X224287Y332316J-3973*
G01*
X225801*
G75*
G02X232659Y335047I3973*
G01*
Y353234*
G75*
G02X226481Y353743I-2885J2731*
G01*
G37*
X212699Y412447D02*
Y392782D01*
X217224Y388257*
X241446*
G75*
G02X241927Y388778I2519J-1845*
G01*
G75*
G02X240879Y391619I2037J2365*
G01*
X237930Y394569*
G75*
G02X237389Y395873I1304J1305*
G01*
Y412447*
G75*
G02X235518Y417372I1845J3519*
G01*
X233200Y419690*
G75*
G02X232659Y420994I1304J1305*
G01*
Y422694*
G75*
G02X225801Y425426I-2885J2731*
G01*
G75*
G02X232659Y428157I3973*
G01*
Y446344*
G75*
G02X226256Y447231I-2885J2731*
G01*
X216050*
X212699Y443880*
Y428945*
G75*
G02Y421907I-1844J-3519*
G01*
Y419485*
G75*
G02Y412447I-1844J-3519*
G01*
X220314Y419939D02*
G75*
G02X224287Y415966J-3973D01*
G01*
G75*
G02X220314Y411993I-3973*
G01*
G75*
G02X216341Y415966J3973*
G01*
G75*
G02X220314Y419939I3973*
G01*
Y429399D02*
G75*
G02X224287Y425426J-3973D01*
G01*
G75*
G02X220314Y421453I-3973*
G01*
G75*
G02X216341Y425426J3973*
G01*
G75*
G02X220314Y429399I3973*
G01*
X229774Y419939D02*
G75*
G02X233748Y415966J-3973D01*
G01*
G75*
G02X229774Y411993I-3973*
G01*
G75*
G02X225801Y415966J3973*
G01*
G75*
G02X229774Y419939I3973*
G01*
X235261Y415966D02*
G36*
X233748D01*
G75*
G02X229774Y411993I-3973*
G01*
G75*
G02X225801Y415966J3973*
G01*
X224287*
G75*
G02X220314Y411993I-3973*
G01*
G75*
G02X216341Y415966J3973*
G01*
X214828*
G75*
G02X213077Y412673I-3973J0*
G01*
Y392404*
X216845Y388636*
X241548*
Y389166*
G75*
G02X240843Y391143I2415J1976*
G01*
G75*
G02X240879Y391619I3119J1*
G01*
X237930Y394569*
G75*
G02X237389Y395873I1304J1304*
G01*
Y412447*
G75*
G02X235261Y415966I1844J3519*
G01*
G37*
X225801Y425426D02*
G36*
X224287D01*
G75*
G02X220314Y421453I-3973*
G01*
G75*
G02X216341Y425426J3973*
G01*
X214828*
G75*
G02X213077Y422133I-3973J0*
G01*
Y419259*
G75*
G02X214828Y415967I-2222J-3293*
G01*
Y415966*
X216341*
G75*
G02X220314Y419939I3973*
G01*
G75*
G02X224287Y415966J-3973*
G01*
X225801*
G75*
G02X229774Y419939I3973*
G01*
G75*
G02X233748Y415966J-3973*
G01*
X235261*
G75*
G02X235518Y417372I3973*
G01*
X233200Y419690*
G75*
G02X232659Y420994I1304J1304*
G01*
Y422694*
G75*
G02X225801Y425426I-2885J2731*
G01*
G37*
X226481Y446853D02*
G36*
X215672D01*
X213077Y444258*
Y428719*
G75*
G02X214828Y425426I-2222J-3293*
G01*
Y425426*
X216341*
G75*
G02X220314Y429399I3973*
G01*
G75*
G02X224287Y425426J-3973*
G01*
X225801*
G75*
G02X232659Y428157I3973*
G01*
Y446344*
G75*
G02X226481Y446853I-2885J2731*
G01*
G37*
X236349Y143364D02*
Y142428D01*
X238283Y140493*
G75*
G02X241079Y133117I951J-3857*
G01*
Y117306*
X243488Y114898*
G75*
G02X246329Y113850I476J-3085*
G01*
G75*
G02X246850Y114331I2365J-2037*
G01*
Y133117*
G75*
G02X244978Y138041I1845J3519*
G01*
X242660Y140359*
G75*
G02X242120Y141663I1304J1305*
G01*
Y143364*
G75*
G02X236349I-2885J2731*
G01*
G36*
Y142428*
X238283Y140493*
G75*
G02X241079Y133117I951J-3857*
G01*
Y117306*
X243488Y114898*
G75*
G02X246329Y113850I476J-3085*
G01*
G75*
G02X246850Y114331I2365J-2037*
G01*
Y133117*
G75*
G02X244978Y138041I1845J3519*
G01*
X242660Y140359*
G75*
G02X242120Y141663I1304J1305*
G01*
Y143364*
G75*
G02X236349I-2885J2731*
G01*
G37*
Y167014D02*
Y148827D01*
G75*
G02X242120I2885J-2731*
G01*
Y164549*
X240640Y166029*
G75*
G02X236349Y167014I-1406J3716*
G01*
G36*
Y148827*
G75*
G02X242120I2885J-2731*
G01*
Y164549*
X240640Y166029*
G75*
G02X236349Y167014I-1406J3716*
G01*
G37*
Y236474D02*
Y235538D01*
X238283Y233603*
G75*
G02X241079Y226227I951J-3857*
G01*
Y210417*
X243488Y208008*
G75*
G02X246329Y206960I476J-3085*
G01*
G75*
G02X246850Y207441I2365J-2037*
G01*
Y226227*
G75*
G02X244978Y231151I1845J3519*
G01*
X242660Y233469*
G75*
G02X242120Y234774I1304J1305*
G01*
Y236474*
G75*
G02X236349I-2885J2731*
G01*
G36*
Y235538*
X238283Y233603*
G75*
G02X241079Y226227I951J-3857*
G01*
Y210417*
X243488Y208008*
G75*
G02X246329Y206960I476J-3085*
G01*
G75*
G02X246850Y207441I2365J-2037*
G01*
Y226227*
G75*
G02X244978Y231151I1845J3519*
G01*
X242660Y233469*
G75*
G02X242120Y234774I1304J1305*
G01*
Y236474*
G75*
G02X236349I-2885J2731*
G01*
G37*
Y260124D02*
Y241937D01*
G75*
G02X242120I2885J-2731*
G01*
Y257659*
X240640Y259139*
G75*
G02X236349Y260124I-1406J3716*
G01*
G36*
Y241937*
G75*
G02X242120I2885J-2731*
G01*
Y257659*
X240640Y259139*
G75*
G02X236349Y260124I-1406J3716*
G01*
G37*
Y329584D02*
Y328648D01*
X238283Y326713*
G75*
G02X241079Y319337I951J-3857*
G01*
Y303527*
X243488Y301118*
G75*
G02X246329Y300070I476J-3085*
G01*
G75*
G02X246850Y300551I2365J-2037*
G01*
Y319337*
G75*
G02X244978Y324261I1845J3519*
G01*
X242660Y326580*
G75*
G02X242120Y327884I1304J1305*
G01*
Y329584*
G75*
G02X236349I-2885J2731*
G01*
G36*
Y328648*
X238283Y326713*
G75*
G02X241079Y319337I951J-3857*
G01*
Y303527*
X243488Y301118*
G75*
G02X246329Y300070I476J-3085*
G01*
G75*
G02X246850Y300551I2365J-2037*
G01*
Y319337*
G75*
G02X244978Y324261I1845J3519*
G01*
X242660Y326580*
G75*
G02X242120Y327884I1304J1305*
G01*
Y329584*
G75*
G02X236349I-2885J2731*
G01*
G37*
Y353234D02*
Y335047D01*
G75*
G02X242120I2885J-2731*
G01*
Y350770*
X240640Y352250*
G75*
G02X236349Y353234I-1406J3716*
G01*
G36*
Y335047*
G75*
G02X242120I2885J-2731*
G01*
Y350770*
X240640Y352250*
G75*
G02X236349Y353234I-1406J3716*
G01*
G37*
Y422694D02*
Y421758D01*
X238283Y419824*
G75*
G02X241079Y412447I951J-3857*
G01*
Y396637*
X243488Y394228*
G75*
G02X246329Y393180I476J-3085*
G01*
G75*
G02X246850Y393661I2365J-2037*
G01*
Y412447*
G75*
G02X244978Y417372I1845J3519*
G01*
X242660Y419690*
G75*
G02X242120Y420994I1304J1305*
G01*
Y422694*
G75*
G02X236349I-2885J2731*
G01*
G36*
Y421758*
X238283Y419824*
G75*
G02X241079Y412447I951J-3857*
G01*
Y396637*
X243488Y394228*
G75*
G02X246329Y393180I476J-3085*
G01*
G75*
G02X246850Y393661I2365J-2037*
G01*
Y412447*
G75*
G02X244978Y417372I1845J3519*
G01*
X242660Y419690*
G75*
G02X242120Y420994I1304J1305*
G01*
Y422694*
G75*
G02X236349I-2885J2731*
G01*
G37*
Y446344D02*
Y428157D01*
G75*
G02X242120I2885J-2731*
G01*
Y443880*
X240640Y445360*
G75*
G02X236349Y446344I-1406J3716*
G01*
G36*
Y428157*
G75*
G02X242120I2885J-2731*
G01*
Y443880*
X240640Y445360*
G75*
G02X236349Y446344I-1406J3716*
G01*
G37*
X273648Y139763D02*
X271472Y137586D01*
G75*
G02X269459Y133117I-3858J-951*
G01*
Y125108*
G75*
G02X268919Y123804I-1845J0*
G01*
X262708Y117594*
G75*
G02X261404Y117053I-1304J1304*
G01*
X256554*
X255269Y115769*
Y114331*
G75*
G02X255789Y113850I-1845J-2519*
G01*
G75*
G02X260519I2365J-2037*
G01*
G75*
G02X265403Y113657I2365J-2037*
G01*
X270109*
X275230Y118778*
Y133117*
G75*
G02X278258Y140428I1844J3519*
G01*
X279959Y142130*
Y143364*
G75*
G02X274189I-2885J2731*
G01*
Y141067*
G75*
G02X273648Y139763I-1845J0*
G01*
G36*
X271472Y137586*
G75*
G02X269459Y133117I-3858J-951*
G01*
Y125108*
G75*
G02X268919Y123804I-1845J0*
G01*
X262708Y117594*
G75*
G02X261404Y117053I-1304J1304*
G01*
X256554*
X255269Y115769*
Y114331*
G75*
G02X255789Y113850I-1845J-2519*
G01*
G75*
G02X260519I2365J-2037*
G01*
G75*
G02X265403Y113657I2365J-2037*
G01*
X270109*
X275230Y118778*
Y133117*
G75*
G02X278258Y140428I1844J3519*
G01*
X279959Y142130*
Y143364*
G75*
G02X274189I-2885J2731*
G01*
Y141067*
G75*
G02X273648Y139763I-1845J0*
G01*
G37*
Y232873D02*
X271472Y230696D01*
G75*
G02X269459Y226227I-3858J-951*
G01*
Y218219*
G75*
G02X268919Y216914I-1845J0*
G01*
X262708Y210704*
G75*
G02X261404Y210163I-1304J1304*
G01*
X256554*
X255269Y208879*
Y207441*
G75*
G02X255789Y206960I-1845J-2519*
G01*
G75*
G02X260519I2365J-2037*
G01*
G75*
G02X265403Y206767I2365J-2037*
G01*
X270109*
X275230Y211888*
Y226227*
G75*
G02X278258Y233538I1844J3519*
G01*
X279959Y235240*
Y236474*
G75*
G02X274189I-2885J2731*
G01*
Y234178*
G75*
G02X273648Y232873I-1845J0*
G01*
G36*
X271472Y230696*
G75*
G02X269459Y226227I-3858J-951*
G01*
Y218219*
G75*
G02X268919Y216914I-1845J0*
G01*
X262708Y210704*
G75*
G02X261404Y210163I-1304J1304*
G01*
X256554*
X255269Y208879*
Y207441*
G75*
G02X255789Y206960I-1845J-2519*
G01*
G75*
G02X260519I2365J-2037*
G01*
G75*
G02X265403Y206767I2365J-2037*
G01*
X270109*
X275230Y211888*
Y226227*
G75*
G02X278258Y233538I1844J3519*
G01*
X279959Y235240*
Y236474*
G75*
G02X274189I-2885J2731*
G01*
Y234178*
G75*
G02X273648Y232873I-1845J0*
G01*
G37*
Y325983D02*
X271472Y323807D01*
G75*
G02X269459Y319337I-3858J-951*
G01*
Y311329*
G75*
G02X268919Y310024I-1845J0*
G01*
X262708Y303814*
G75*
G02X261404Y303274I-1304J1304*
G01*
X256554*
X255269Y301989*
Y300551*
G75*
G02X255789Y300070I-1845J-2519*
G01*
G75*
G02X260519I2365J-2037*
G01*
G75*
G02X265403Y299877I2365J-2037*
G01*
X270109*
X275230Y304998*
Y319337*
G75*
G02X278258Y326648I1844J3519*
G01*
X279959Y328350*
Y329584*
G75*
G02X274189I-2885J2731*
G01*
Y327288*
G75*
G02X273648Y325983I-1845J0*
G01*
G36*
X271472Y323807*
G75*
G02X269459Y319337I-3858J-951*
G01*
Y311329*
G75*
G02X268919Y310024I-1845J0*
G01*
X262708Y303814*
G75*
G02X261404Y303274I-1304J1304*
G01*
X256554*
X255269Y301989*
Y300551*
G75*
G02X255789Y300070I-1845J-2519*
G01*
G75*
G02X260519I2365J-2037*
G01*
G75*
G02X265403Y299877I2365J-2037*
G01*
X270109*
X275230Y304998*
Y319337*
G75*
G02X278258Y326648I1844J3519*
G01*
X279959Y328350*
Y329584*
G75*
G02X274189I-2885J2731*
G01*
Y327288*
G75*
G02X273648Y325983I-1845J0*
G01*
G37*
Y419094D02*
X271472Y416917D01*
G75*
G02X269459Y412447I-3858J-951*
G01*
Y404439*
G75*
G02X268919Y403135I-1845J0*
G01*
X262708Y396924*
G75*
G02X261404Y396384I-1304J1304*
G01*
X256554*
X255269Y395099*
Y393661*
G75*
G02X255789Y393180I-1845J-2519*
G01*
G75*
G02X260519I2365J-2037*
G01*
G75*
G02X265403Y392987I2365J-2037*
G01*
X270109*
X275230Y398108*
Y412447*
G75*
G02X278258Y419759I1844J3519*
G01*
X279959Y421460*
Y422694*
G75*
G02X274189I-2885J2731*
G01*
Y420398*
G75*
G02X273648Y419094I-1845J0*
G01*
G36*
X271472Y416917*
G75*
G02X269459Y412447I-3858J-951*
G01*
Y404439*
G75*
G02X268919Y403135I-1845J0*
G01*
X262708Y396924*
G75*
G02X261404Y396384I-1304J1304*
G01*
X256554*
X255269Y395099*
Y393661*
G75*
G02X255789Y393180I-1845J-2519*
G01*
G75*
G02X260519I2365J-2037*
G01*
G75*
G02X265403Y392987I2365J-2037*
G01*
X270109*
X275230Y398108*
Y412447*
G75*
G02X278258Y419759I1844J3519*
G01*
X279959Y421460*
Y422694*
G75*
G02X274189I-2885J2731*
G01*
Y420398*
G75*
G02X273648Y419094I-1845J0*
G01*
G37*
X316732Y186475D02*
Y97149D01*
X435853*
Y186475*
X316732*
X409440Y150069D02*
G75*
G02Y142122J-3973D01*
G01*
G75*
G02X406554Y143364J3973*
G01*
Y141365*
G75*
G02X406014Y140061I-1844J0*
G01*
X403772Y137819*
G75*
G02X401824Y133117I-3793J-1184*
G01*
Y118013*
G75*
G02X401284Y116709I-1844J0*
G01*
X395083Y110508*
G75*
G02X393778Y109967I-1304J1304*
G01*
X388308*
G75*
G02X387828Y109447I-2519J1845*
G01*
G75*
G02X388911Y107082I-2038J-2365*
G01*
G75*
G02X383425Y105044I-3122*
G01*
G75*
G02X378695I-2365J2038*
G01*
G75*
G02X373965I-2365J2038*
G01*
G75*
G02X369235I-2365J2038*
G01*
G75*
G02X364351Y105237I-2365J2038*
G01*
X339365*
G75*
G02X338061Y105778I0J1845*
G01*
X332456Y111383*
G75*
G02X331915Y112687I1304J1305*
G01*
Y133117*
G75*
G02Y140154I1845J3519*
G01*
Y142576*
G75*
G02Y149615I1845J3519*
G01*
Y165313*
G75*
G02X332456Y166618I1845J0*
G01*
X336887Y171050*
G75*
G02X338192Y171590I1304J-1304*
G01*
X349161*
G75*
G02X355565Y172477I3519J-1845*
G01*
Y175667*
G75*
G02X356106Y176971I1845J0*
G01*
X358470Y179337*
G75*
G02X359775Y179877I1304J-1304*
G01*
X378694*
G75*
G02X379999Y179337I0J-1844*
G01*
X382364Y176971*
G75*
G02X382904Y175667I-1304J-1304*
G01*
Y173264*
G75*
G02X385033Y169745I-1844J-3519*
G01*
G75*
G02X377087I-3973*
G01*
G75*
G02X379215Y173264I3973*
G01*
Y174903*
X377931Y176187*
X360539*
X359254Y174903*
Y172477*
G75*
G02X365998Y168794I2885J-2731*
G01*
X368174Y166618*
G75*
G02X368715Y165313I-1304J-1305*
G01*
Y148827*
G75*
G02X375573Y146095I2885J-2731*
G01*
G75*
G02X368715Y143364I-3973*
G01*
Y142428*
X370649Y140493*
G75*
G02X373444Y133117I951J-3857*
G01*
Y114331*
G75*
G02X373965Y113850I-1845J-2519*
G01*
G75*
G02X374485Y114331I2365J-2037*
G01*
Y116533*
G75*
G02X375026Y117837I1845J0*
G01*
X377391Y120202*
G75*
G02X378695Y120743I1304J-1304*
G01*
X383545*
X388675Y125872*
Y133117*
G75*
G02X391925Y140352I1844J3519*
G01*
X393405Y141831*
Y143364*
G75*
G02X386546Y146095I-2885J2731*
G01*
G75*
G02X393405Y148827I3973*
G01*
Y154382*
G75*
G02X393946Y155687I1844J0*
G01*
X398135Y159876*
Y166226*
G75*
G02X396007Y169745I1845J3519*
G01*
G75*
G02X403953I3973*
G01*
G75*
G02X401824Y166226I-3973*
G01*
Y159112*
G75*
G02X401284Y157808I-1844J0*
G01*
X397094Y153618*
Y148827*
G75*
G02X402865I2885J-2731*
G01*
Y152008*
G75*
G02X403406Y153312I1845J0*
G01*
X407595Y157502*
Y174903*
X406311Y176187*
X393649*
X392365Y174903*
Y173264*
G75*
G02X394493Y169745I-1845J-3519*
G01*
G75*
G02X386546I-3973*
G01*
G75*
G02X388675Y173264I3973*
G01*
Y175667*
G75*
G02X389215Y176971I1844J0*
G01*
X391580Y179337*
G75*
G02X392885Y179877I1304J-1304*
G01*
X407074*
G75*
G02X408379Y179337I0J-1844*
G01*
X410744Y176971*
G75*
G02X411285Y175667I-1304J-1304*
G01*
Y156738*
G75*
G02X410744Y155433I-1845J0*
G01*
X406554Y151244*
Y148827*
G75*
G02X409440Y150069I2885J-2731*
G01*
X367626Y169745D02*
G75*
G02X375573I3973D01*
G01*
G75*
G02X367626I-3973*
G01*
X381060Y140609D02*
G75*
G02X385033Y136635J-3973D01*
G01*
G75*
G02X381060Y132662I-3973*
G01*
G75*
G02X377087Y136635J3973*
G01*
G75*
G02X381060Y140609I3973*
G01*
Y150069D02*
G75*
G02Y142122J-3973D01*
G01*
G75*
G02X377087Y146095J3973*
G01*
G75*
G02X381060Y150069I3973*
G01*
X409440Y140609D02*
G75*
G02X413413Y136635J-3973D01*
G01*
G75*
G02X409440Y132662I-3973*
G01*
G75*
G02X405467Y136635J3973*
G01*
G75*
G02X409440Y140609I3973*
G01*
X418900D02*
G75*
G02X422873Y136635J-3973D01*
G01*
G75*
G02X418900Y132662I-3973*
G01*
G75*
G02X414926Y136635J3973*
G01*
G75*
G02X418900Y140609I3973*
G01*
Y150069D02*
G75*
G02Y142122J-3973D01*
G01*
G75*
G02X414926Y146095J3973*
G01*
G75*
G02X418900Y150069I3973*
G01*
X403953Y136635D02*
G36*
G75*
G02X401824Y133117I-3973D01*
G01*
Y118013*
G75*
G02X401284Y116709I-1844*
G01*
X395083Y110508*
G75*
G02X393778Y109967I-1304J1304*
G01*
X388308*
G75*
G02X387828Y109447I-2533J1859*
G01*
G75*
G02X388911Y107082I-2039J-2366*
G01*
G75*
G02X383425Y105044I-3122J0*
G01*
G75*
G02X378695I-2365J2037*
G01*
G75*
G02X373965I-2365J2037*
G01*
G75*
G02X369235I-2365J2037*
G01*
G75*
G02X364351Y105237I-2365J2038*
G01*
X339365*
G75*
G02X338061Y105778I0J1844*
G01*
X332456Y111383*
G75*
G02X331915Y112687I1304J1304*
G01*
Y133117*
G75*
G02X329787Y136635I1845J3519*
G01*
X317110*
Y97528*
X435475*
Y136635*
X422873*
G75*
G02X418900Y132662I-3973*
G01*
G75*
G02X414926Y136635J3973*
G01*
X413413*
G75*
G02X409440Y132662I-3973*
G01*
G75*
G02X405467Y136635J3973*
G01*
X403953*
G37*
X386546D02*
G36*
X385033D01*
G75*
G02X381060Y132662I-3973*
G01*
G75*
G02X377087Y136635J3973*
G01*
X375572*
G75*
G02X373444Y133117I-3973*
G01*
Y114331*
G75*
G02X373965Y113850I-1859J-2533*
G01*
G75*
G02X374485Y114331I2379J-2052*
G01*
Y116533*
G75*
G02X375026Y117837I1844*
G01*
X377391Y120202*
G75*
G02X378695Y120743I1304J-1304*
G01*
X383545*
X388675Y125872*
Y133117*
G75*
G02X386546Y136635I1844J3519*
G01*
G37*
X329787D02*
G36*
Y136636D01*
G75*
G02X331915Y140154I3973*
G01*
Y141919*
X317110*
Y136635*
X329787*
G37*
X393405Y141919D02*
G36*
X369224D01*
X370649Y140493*
G75*
G02X375572Y136635I950J-3857*
G01*
X377087*
G75*
G02X381060Y140609I3973*
G01*
G75*
G02X385033Y136635J-3973*
G01*
X386546*
G75*
G02X391925Y140352I3973*
G01*
X393405Y141831*
Y141919*
G37*
X406554D02*
G36*
Y141365D01*
G75*
G02X406014Y140061I-1844*
G01*
X403772Y137819*
G75*
G02X403953Y136635I-3792J-1184*
G01*
X405467*
G75*
G02X409440Y140609I3973*
G01*
G75*
G02X413413Y136635J-3973*
G01*
X414926*
G75*
G02X418900Y140609I3973*
G01*
G75*
G02X422873Y136635J-3973*
G01*
X435475*
Y141919*
X406554*
G37*
X329787Y146095D02*
G36*
X317110D01*
Y141919*
X331915*
Y142576*
G75*
G02X329787Y146095I1845J3519*
G01*
G37*
X386546D02*
G36*
X385033D01*
G75*
G02X381060Y142122I-3973*
G01*
G75*
G02X377087Y146095J3973*
G01*
X375573*
G75*
G02X368715Y143364I-3973*
G01*
Y142428*
X369224Y141919*
X393405*
Y143364*
G75*
G02X386546Y146095I-2885J2731*
G01*
G37*
X413413D02*
G36*
G75*
G02X409440Y142122I-3973D01*
G01*
G75*
G02X406554Y143364J3974*
G01*
Y141919*
X435475*
Y146095*
X422873*
G75*
G02X418900Y142122I-3973*
G01*
G75*
G02X414926Y146095J3973*
G01*
X413413*
G37*
X329787D02*
G36*
Y146096D01*
G75*
G02X331915Y149615I3973*
G01*
Y165313*
G75*
G02X332456Y166618I1844*
G01*
X335583Y169745*
X317110*
Y146095*
X329787*
G37*
X386546D02*
G36*
G75*
G02X393405Y148827I3973D01*
G01*
Y154382*
G75*
G02X393946Y155687I1844*
G01*
X398135Y159876*
Y166226*
G75*
G02X396007Y169745I1845J3519*
G01*
X394493*
G75*
G02X386546I-3973*
G01*
X385033*
G75*
G02X377087I-3973*
G01*
X375573*
G75*
G02X367626I-3973*
G01*
X366113*
G75*
G02X365998Y168794I-3973*
G01*
X368174Y166618*
G75*
G02X368715Y165313I-1304J-1304*
G01*
Y148827*
G75*
G02X375573Y146095I2885J-2731*
G01*
X377087*
G75*
G02X381060Y150069I3973*
G01*
G75*
G02X385033Y146095J-3973*
G01*
X386546*
G37*
X407595Y169745D02*
G36*
X403953D01*
G75*
G02X401824Y166226I-3973*
G01*
Y159112*
G75*
G02X401284Y157808I-1844*
G01*
X397094Y153618*
Y148827*
G75*
G02X402865I2885J-2731*
G01*
Y152008*
G75*
G02X403406Y153312I1844*
G01*
X407595Y157502*
Y169745*
G37*
X413413Y146095D02*
G36*
X414926D01*
G75*
G02X418900Y150069I3973*
G01*
G75*
G02X422873Y146095J-3973*
G01*
X435475*
Y169745*
X411285*
Y156738*
G75*
G02X410744Y155433I-1844*
G01*
X406554Y151244*
Y148827*
G75*
G02X409440Y150069I2885J-2732*
G01*
G75*
G02X413413Y146095J-3973*
G01*
G37*
X411285Y169745D02*
G36*
X435475D01*
Y186097*
X317110*
Y169745*
X335583*
X336887Y171050*
G75*
G02X338192Y171590I1304J-1304*
G01*
X349161*
G75*
G02X355565Y172477I3519J-1845*
G01*
Y175667*
G75*
G02X356106Y176971I1844*
G01*
X358470Y179337*
G75*
G02X359775Y179877I1304J-1304*
G01*
X378694*
G75*
G02X379999Y179337I0J-1844*
G01*
X382364Y176971*
G75*
G02X382904Y175667I-1304J-1304*
G01*
Y173264*
G75*
G02X385033Y169745I-1844J-3519*
G01*
X386546*
G75*
G02X388675Y173264I3973*
G01*
Y175667*
G75*
G02X389215Y176971I1844*
G01*
X391580Y179337*
G75*
G02X392885Y179877I1304J-1304*
G01*
X407074*
G75*
G02X408379Y179337I0J-1844*
G01*
X410744Y176971*
G75*
G02X411285Y175667I-1304J-1304*
G01*
Y169745*
G37*
X377087D02*
G36*
G75*
G02X379215Y173264I3973D01*
G01*
Y174903*
X377931Y176187*
X360539*
X359254Y174903*
Y172477*
G75*
G02X366113Y169745I2885J-2731*
G01*
X367626*
G75*
G02X375573I3973*
G01*
X377087*
G37*
X407595D02*
G36*
Y174903D01*
X406311Y176187*
X393649*
X392365Y174903*
Y173264*
G75*
G02X394493Y169745I-1845J-3519*
G01*
X396007*
G75*
G02X403953I3973*
G01*
X407595*
G37*
X316732Y279585D02*
Y190259D01*
X435853*
Y279585*
X316732*
X406554Y241937D02*
G75*
G02X413413Y239206I2885J-2731D01*
G01*
G75*
G02X406554Y236474I-3973*
G01*
Y234476*
G75*
G02X406014Y233171I-1844J0*
G01*
X403772Y230930*
G75*
G02X401824Y226227I-3793J-1184*
G01*
Y211124*
G75*
G02X401284Y209819I-1844J0*
G01*
X395083Y203618*
G75*
G02X393778Y203078I-1304J1304*
G01*
X388308*
G75*
G02X387828Y202557I-2519J1845*
G01*
G75*
G02X388911Y200193I-2038J-2365*
G01*
G75*
G02X383425Y198155I-3122*
G01*
G75*
G02X378695I-2365J2038*
G01*
G75*
G02X373965I-2365J2038*
G01*
G75*
G02X369235I-2365J2038*
G01*
G75*
G02X364351Y198348I-2365J2038*
G01*
X339365*
G75*
G02X338061Y198888I0J1845*
G01*
X332456Y204493*
G75*
G02X331915Y205798I1304J1305*
G01*
Y226227*
G75*
G02Y233265I1845J3519*
G01*
Y235687*
G75*
G02Y242725I1845J3519*
G01*
Y258424*
G75*
G02X332456Y259728I1845J0*
G01*
X336887Y264160*
G75*
G02X338192Y264700I1304J-1304*
G01*
X349161*
G75*
G02X355565Y265587I3519J-1845*
G01*
Y268778*
G75*
G02X356106Y270081I1845J0*
G01*
X358470Y272447*
G75*
G02X359775Y272987I1304J-1304*
G01*
X378694*
G75*
G02X379999Y272447I0J-1844*
G01*
X382364Y270081*
G75*
G02X382904Y268778I-1304J-1304*
G01*
Y266374*
G75*
G02X385033Y262856I-1844J-3519*
G01*
G75*
G02X377087I-3973*
G01*
G75*
G02X379215Y266374I3973*
G01*
Y268013*
X377931Y269298*
X360539*
X359254Y268013*
Y265587*
G75*
G02X365998Y261905I2885J-2731*
G01*
X368174Y259728*
G75*
G02X368715Y258424I-1304J-1305*
G01*
Y241937*
G75*
G02X375573Y239206I2885J-2731*
G01*
G75*
G02X368715Y236474I-3973*
G01*
Y235538*
X370649Y233603*
G75*
G02X373444Y226227I951J-3857*
G01*
Y207441*
G75*
G02X373965Y206960I-1845J-2519*
G01*
G75*
G02X374485Y207441I2365J-2037*
G01*
Y209643*
G75*
G02X375026Y210947I1845J0*
G01*
X377391Y213312*
G75*
G02X378695Y213853I1304J-1304*
G01*
X383545*
X388675Y218983*
Y226227*
G75*
G02X391925Y233462I1844J3519*
G01*
X393405Y234942*
Y236474*
G75*
G02X386546Y239206I-2885J2731*
G01*
G75*
G02X393405Y241937I3973*
G01*
Y247493*
G75*
G02X393946Y248797I1844J0*
G01*
X398135Y252987*
Y259337*
G75*
G02X396007Y262856I1845J3519*
G01*
G75*
G02X403953I3973*
G01*
G75*
G02X401824Y259337I-3973*
G01*
Y252222*
G75*
G02X401284Y250918I-1844J0*
G01*
X397094Y246728*
Y241937*
G75*
G02X402865I2885J-2731*
G01*
Y245118*
G75*
G02X403406Y246422I1845J0*
G01*
X407595Y250612*
Y268013*
X406311Y269298*
X393649*
X392365Y268013*
Y266374*
G75*
G02X394493Y262856I-1845J-3519*
G01*
G75*
G02X386546I-3973*
G01*
G75*
G02X388675Y266374I3973*
G01*
Y268778*
G75*
G02X389215Y270081I1844J0*
G01*
X391580Y272447*
G75*
G02X392885Y272987I1304J-1304*
G01*
X407074*
G75*
G02X408379Y272447I0J-1844*
G01*
X410744Y270081*
G75*
G02X411285Y268778I-1304J-1304*
G01*
Y249848*
G75*
G02X410744Y248544I-1845J0*
G01*
X406554Y244354*
Y241937*
X367626Y262856D02*
G75*
G02X375573I3973D01*
G01*
G75*
G02X367626I-3973*
G01*
X381060Y233719D02*
G75*
G02Y225772J-3973D01*
G01*
G75*
G02X377087Y229746J3973*
G01*
G75*
G02X381060Y233719I3973*
G01*
Y243179D02*
G75*
G02X385033Y239206J-3973D01*
G01*
G75*
G02X381060Y235232I-3973*
G01*
G75*
G02X377087Y239206J3973*
G01*
G75*
G02X381060Y243179I3973*
G01*
X409440Y233719D02*
G75*
G02X413413Y229746J-3973D01*
G01*
G75*
G02X409440Y225772I-3973*
G01*
G75*
G02X405467Y229746J3973*
G01*
G75*
G02X409440Y233719I3973*
G01*
X418900D02*
G75*
G02X422873Y229746J-3973D01*
G01*
G75*
G02X418900Y225772I-3973*
G01*
G75*
G02X414926Y229746J3973*
G01*
G75*
G02X418900Y233719I3973*
G01*
Y243179D02*
G75*
G02X422873Y239206J-3973D01*
G01*
G75*
G02X418900Y235232I-3973*
G01*
G75*
G02X414926Y239206J3973*
G01*
G75*
G02X418900Y243179I3973*
G01*
X403953Y229746D02*
G36*
G75*
G02X401824Y226227I-3973D01*
G01*
Y211124*
G75*
G02X401284Y209819I-1844*
G01*
X395083Y203618*
G75*
G02X393778Y203078I-1304J1304*
G01*
X388308*
G75*
G02X387828Y202557I-2533J1859*
G01*
G75*
G02X388911Y200193I-2039J-2366*
G01*
G75*
G02X383425Y198155I-3122J0*
G01*
G75*
G02X378695I-2365J2037*
G01*
G75*
G02X373965I-2365J2037*
G01*
G75*
G02X369235I-2365J2037*
G01*
G75*
G02X364351Y198348I-2365J2038*
G01*
X339365*
G75*
G02X338061Y198888I0J1844*
G01*
X332456Y204493*
G75*
G02X331915Y205798I1304J1304*
G01*
Y226227*
G75*
G02X329787Y229746I1845J3519*
G01*
X317110*
Y190638*
X435475*
Y229746*
X422873*
G75*
G02X418900Y225772I-3973*
G01*
G75*
G02X414926Y229746J3973*
G01*
X413413*
G75*
G02X409440Y225772I-3973*
G01*
G75*
G02X405467Y229746J3973*
G01*
X403953*
G37*
X386546D02*
G36*
X385033D01*
G75*
G02X381060Y225772I-3973*
G01*
G75*
G02X377087Y229746J3973*
G01*
X375572*
G75*
G02X373444Y226227I-3973*
G01*
Y207441*
G75*
G02X373965Y206960I-1859J-2533*
G01*
G75*
G02X374485Y207441I2379J-2052*
G01*
Y209643*
G75*
G02X375026Y210947I1844*
G01*
X377391Y213312*
G75*
G02X378695Y213853I1304J-1304*
G01*
X383545*
X388675Y218983*
Y226227*
G75*
G02X386546Y229746I1844J3519*
G01*
G37*
X329787D02*
G36*
Y229746D01*
G75*
G02X331915Y233265I3973*
G01*
Y235029*
X317110*
Y229746*
X329787*
G37*
X393405Y235029D02*
G36*
X369224D01*
X370649Y233603*
G75*
G02X375572Y229746I950J-3857*
G01*
X377087*
G75*
G02X381060Y233719I3973*
G01*
G75*
G02X385033Y229746J-3973*
G01*
X386546*
G75*
G02X391925Y233462I3973*
G01*
X393405Y234942*
Y235029*
G37*
X406554D02*
G36*
Y234476D01*
G75*
G02X406014Y233171I-1844*
G01*
X403772Y230930*
G75*
G02X403953Y229746I-3792J-1184*
G01*
X405467*
G75*
G02X409440Y233719I3973*
G01*
G75*
G02X413413Y229746J-3973*
G01*
X414926*
G75*
G02X418900Y233719I3973*
G01*
G75*
G02X422873Y229746J-3973*
G01*
X435475*
Y235029*
X406554*
G37*
X329787Y239206D02*
G36*
X317110D01*
Y235029*
X331915*
Y235687*
G75*
G02X329787Y239206I1845J3519*
G01*
G37*
X386546D02*
G36*
X385033D01*
G75*
G02X381060Y235232I-3973*
G01*
G75*
G02X377087Y239206J3973*
G01*
X375573*
G75*
G02X368715Y236474I-3973*
G01*
Y235538*
X369224Y235029*
X393405*
Y236474*
G75*
G02X386546Y239206I-2885J2731*
G01*
G37*
X413413D02*
G36*
G75*
G02X406554Y236474I-3973D01*
G01*
Y235029*
X435475*
Y239206*
X422873*
G75*
G02X418900Y235232I-3973*
G01*
G75*
G02X414926Y239206J3973*
G01*
X413413*
G37*
X329787D02*
G36*
Y239206D01*
G75*
G02X331915Y242725I3973*
G01*
Y258424*
G75*
G02X332456Y259728I1844*
G01*
X335583Y262856*
X317110*
Y239206*
X329787*
G37*
X386546D02*
G36*
G75*
G02X393405Y241937I3973D01*
G01*
Y247493*
G75*
G02X393946Y248797I1844*
G01*
X398135Y252987*
Y259337*
G75*
G02X396007Y262856I1845J3519*
G01*
X394493*
G75*
G02X386546I-3973*
G01*
X385033*
G75*
G02X377087I-3973*
G01*
X375573*
G75*
G02X367626I-3973*
G01*
X366113*
G75*
G02X365998Y261905I-3973*
G01*
X368174Y259728*
G75*
G02X368715Y258424I-1304J-1304*
G01*
Y241937*
G75*
G02X375573Y239206I2885J-2731*
G01*
X377087*
G75*
G02X381060Y243179I3973*
G01*
G75*
G02X385033Y239206J-3973*
G01*
X386546*
G37*
X407595Y262856D02*
G36*
X403953D01*
G75*
G02X401824Y259337I-3973*
G01*
Y252222*
G75*
G02X401284Y250918I-1844*
G01*
X397094Y246728*
Y241937*
G75*
G02X402865I2885J-2731*
G01*
Y245118*
G75*
G02X403406Y246422I1844*
G01*
X407595Y250612*
Y262856*
G37*
X413413Y239206D02*
G36*
X414926D01*
G75*
G02X418900Y243179I3973*
G01*
G75*
G02X422873Y239206J-3973*
G01*
X435475*
Y262856*
X411285*
Y249848*
G75*
G02X410744Y248544I-1844*
G01*
X406554Y244354*
Y241937*
G75*
G02X413413Y239206I2885J-2731*
G01*
G37*
X411285Y262856D02*
G36*
X435475D01*
Y279207*
X317110*
Y262856*
X335583*
X336887Y264160*
G75*
G02X338192Y264700I1304J-1304*
G01*
X349161*
G75*
G02X355565Y265587I3519J-1845*
G01*
Y268778*
G75*
G02X356106Y270081I1844*
G01*
X358470Y272447*
G75*
G02X359775Y272987I1304J-1304*
G01*
X378694*
G75*
G02X379999Y272447I0J-1844*
G01*
X382364Y270081*
G75*
G02X382904Y268778I-1304J-1304*
G01*
Y266374*
G75*
G02X385033Y262856I-1844J-3519*
G01*
X386546*
G75*
G02X388675Y266374I3973*
G01*
Y268778*
G75*
G02X389215Y270081I1844*
G01*
X391580Y272447*
G75*
G02X392885Y272987I1304J-1304*
G01*
X407074*
G75*
G02X408379Y272447I0J-1844*
G01*
X410744Y270081*
G75*
G02X411285Y268778I-1304J-1304*
G01*
Y262856*
G37*
X377087D02*
G36*
G75*
G02X379215Y266374I3973D01*
G01*
Y268013*
X377931Y269298*
X360539*
X359254Y268013*
Y265587*
G75*
G02X366113Y262856I2885J-2731*
G01*
X367626*
G75*
G02X375573I3973*
G01*
X377087*
G37*
X407595D02*
G36*
Y268013D01*
X406311Y269298*
X393649*
X392365Y268013*
Y266374*
G75*
G02X394493Y262856I-1845J-3519*
G01*
X396007*
G75*
G02X403953I3973*
G01*
X407595*
G37*
X316732Y372696D02*
Y283370D01*
X435853*
Y372696*
X316732*
X406554Y335047D02*
G75*
G02X413413Y332316I2885J-2731D01*
G01*
G75*
G02X406554Y329584I-3973*
G01*
Y327586*
G75*
G02X406014Y326281I-1844J0*
G01*
X403772Y324040*
G75*
G02X401824Y319337I-3793J-1184*
G01*
Y304234*
G75*
G02X401284Y302930I-1844J0*
G01*
X395083Y296728*
G75*
G02X393778Y296188I-1304J1304*
G01*
X388308*
G75*
G02X387828Y295668I-2519J1845*
G01*
G75*
G02X388911Y293303I-2038J-2365*
G01*
G75*
G02X383425Y291265I-3122*
G01*
G75*
G02X378695I-2365J2038*
G01*
G75*
G02X373965I-2365J2038*
G01*
G75*
G02X369235I-2365J2038*
G01*
G75*
G02X364351Y291458I-2365J2038*
G01*
X339365*
G75*
G02X338061Y291998I0J1845*
G01*
X332456Y297604*
G75*
G02X331915Y298908I1304J1305*
G01*
Y319337*
G75*
G02Y326375I1845J3519*
G01*
Y328797*
G75*
G02Y335835I1845J3519*
G01*
Y351534*
G75*
G02X332456Y352838I1845J0*
G01*
X336887Y357270*
G75*
G02X338192Y357811I1304J-1304*
G01*
X349161*
G75*
G02X355565Y358697I3519J-1845*
G01*
Y361888*
G75*
G02X356106Y363192I1845J0*
G01*
X358470Y365557*
G75*
G02X359775Y366097I1304J-1304*
G01*
X378694*
G75*
G02X379999Y365557I0J-1844*
G01*
X382364Y363192*
G75*
G02X382904Y361888I-1304J-1304*
G01*
Y359485*
G75*
G02X385033Y355966I-1844J-3519*
G01*
G75*
G02X377087I-3973*
G01*
G75*
G02X379215Y359485I3973*
G01*
Y361123*
X377931Y362408*
X360539*
X359254Y361123*
Y358697*
G75*
G02X365998Y355015I2885J-2731*
G01*
X368174Y352838*
G75*
G02X368715Y351534I-1304J-1305*
G01*
Y335047*
G75*
G02X375573Y332316I2885J-2731*
G01*
G75*
G02X368715Y329584I-3973*
G01*
Y328648*
X370649Y326713*
G75*
G02X373444Y319337I951J-3857*
G01*
Y300551*
G75*
G02X373965Y300070I-1845J-2519*
G01*
G75*
G02X374485Y300551I2365J-2037*
G01*
Y302753*
G75*
G02X375026Y304057I1845J0*
G01*
X377391Y306422*
G75*
G02X378695Y306963I1304J-1304*
G01*
X383545*
X388675Y312093*
Y319337*
G75*
G02X391925Y326572I1844J3519*
G01*
X393405Y328052*
Y329584*
G75*
G02X386546Y332316I-2885J2731*
G01*
G75*
G02X393405Y335047I3973*
G01*
Y340603*
G75*
G02X393946Y341907I1844J0*
G01*
X398135Y346097*
Y352447*
G75*
G02X396007Y355966I1845J3519*
G01*
G75*
G02X403953I3973*
G01*
G75*
G02X401824Y352447I-3973*
G01*
Y345333*
G75*
G02X401284Y344028I-1844J0*
G01*
X397094Y339838*
Y335047*
G75*
G02X402865I2885J-2731*
G01*
Y338228*
G75*
G02X403406Y339533I1845J0*
G01*
X407595Y343722*
Y361123*
X406311Y362408*
X393649*
X392365Y361123*
Y359485*
G75*
G02X394493Y355966I-1845J-3519*
G01*
G75*
G02X386546I-3973*
G01*
G75*
G02X388675Y359485I3973*
G01*
Y361888*
G75*
G02X389215Y363192I1844J0*
G01*
X391580Y365557*
G75*
G02X392885Y366097I1304J-1304*
G01*
X407074*
G75*
G02X408379Y365557I0J-1844*
G01*
X410744Y363192*
G75*
G02X411285Y361888I-1304J-1304*
G01*
Y342958*
G75*
G02X410744Y341654I-1845J0*
G01*
X406554Y337464*
Y335047*
X367626Y355966D02*
G75*
G02X375573I3973D01*
G01*
G75*
G02X367626I-3973*
G01*
X381060Y326829D02*
G75*
G02X385033Y322856J-3973D01*
G01*
G75*
G02X381060Y318883I-3973*
G01*
G75*
G02X377087Y322856J3973*
G01*
G75*
G02X381060Y326829I3973*
G01*
Y336289D02*
G75*
G02X385033Y332316J-3973D01*
G01*
G75*
G02X381060Y328343I-3973*
G01*
G75*
G02X377087Y332316J3973*
G01*
G75*
G02X381060Y336289I3973*
G01*
X409440Y326829D02*
G75*
G02X413413Y322856J-3973D01*
G01*
G75*
G02X409440Y318883I-3973*
G01*
G75*
G02X405467Y322856J3973*
G01*
G75*
G02X409440Y326829I3973*
G01*
X418900D02*
G75*
G02X422873Y322856J-3973D01*
G01*
G75*
G02X418900Y318883I-3973*
G01*
G75*
G02X414926Y322856J3973*
G01*
G75*
G02X418900Y326829I3973*
G01*
Y336289D02*
G75*
G02X422873Y332316J-3973D01*
G01*
G75*
G02X418900Y328343I-3973*
G01*
G75*
G02X414926Y332316J3973*
G01*
G75*
G02X418900Y336289I3973*
G01*
X403953Y322856D02*
G36*
G75*
G02X401824Y319337I-3973D01*
G01*
Y304234*
G75*
G02X401284Y302930I-1844*
G01*
X395083Y296728*
G75*
G02X393778Y296188I-1304J1304*
G01*
X388308*
G75*
G02X387828Y295668I-2533J1859*
G01*
G75*
G02X388911Y293303I-2039J-2366*
G01*
G75*
G02X383425Y291265I-3122J0*
G01*
G75*
G02X378695I-2365J2037*
G01*
G75*
G02X373965I-2365J2037*
G01*
G75*
G02X369235I-2365J2037*
G01*
G75*
G02X364351Y291458I-2365J2038*
G01*
X339365*
G75*
G02X338061Y291998I0J1844*
G01*
X332456Y297604*
G75*
G02X331915Y298908I1304J1304*
G01*
Y319337*
G75*
G02X329787Y322856I1845J3519*
G01*
X317110*
Y283748*
X435475*
Y322856*
X422873*
G75*
G02X418900Y318883I-3973*
G01*
G75*
G02X414926Y322856J3973*
G01*
X413413*
G75*
G02X409440Y318883I-3973*
G01*
G75*
G02X405467Y322856J3973*
G01*
X403953*
G37*
X386546D02*
G36*
X385033D01*
G75*
G02X381060Y318883I-3973*
G01*
G75*
G02X377087Y322856J3973*
G01*
X375572*
G75*
G02X373444Y319337I-3973*
G01*
Y300551*
G75*
G02X373965Y300070I-1859J-2533*
G01*
G75*
G02X374485Y300551I2379J-2052*
G01*
Y302753*
G75*
G02X375026Y304057I1844*
G01*
X377391Y306422*
G75*
G02X378695Y306963I1304J-1304*
G01*
X383545*
X388675Y312093*
Y319337*
G75*
G02X386546Y322856I1844J3519*
G01*
G37*
X329787D02*
G36*
Y322856D01*
G75*
G02X331915Y326375I3973*
G01*
Y328139*
X317110*
Y322856*
X329787*
G37*
X393405Y328139D02*
G36*
X369224D01*
X370649Y326713*
G75*
G02X375572Y322856I950J-3857*
G01*
X377087*
G75*
G02X381060Y326829I3973*
G01*
G75*
G02X385033Y322856J-3973*
G01*
X386546*
G75*
G02X391925Y326572I3973*
G01*
X393405Y328052*
Y328139*
G37*
X406554D02*
G36*
Y327586D01*
G75*
G02X406014Y326281I-1844*
G01*
X403772Y324040*
G75*
G02X403953Y322856I-3792J-1184*
G01*
X405467*
G75*
G02X409440Y326829I3973*
G01*
G75*
G02X413413Y322856J-3973*
G01*
X414926*
G75*
G02X418900Y326829I3973*
G01*
G75*
G02X422873Y322856J-3973*
G01*
X435475*
Y328139*
X406554*
G37*
X329787Y332316D02*
G36*
X317110D01*
Y328139*
X331915*
Y328797*
G75*
G02X329787Y332316I1845J3519*
G01*
G37*
X386546D02*
G36*
X385033D01*
G75*
G02X381060Y328343I-3973*
G01*
G75*
G02X377087Y332316J3973*
G01*
X375573*
G75*
G02X368715Y329584I-3973*
G01*
Y328648*
X369224Y328139*
X393405*
Y329584*
G75*
G02X386546Y332316I-2885J2731*
G01*
G37*
X413413D02*
G36*
G75*
G02X406554Y329584I-3973D01*
G01*
Y328139*
X435475*
Y332316*
X422873*
G75*
G02X418900Y328343I-3973*
G01*
G75*
G02X414926Y332316J3973*
G01*
X413413*
G37*
X329787D02*
G36*
Y332316D01*
G75*
G02X331915Y335835I3973*
G01*
Y351534*
G75*
G02X332456Y352838I1844*
G01*
X335583Y355966*
X317110*
Y332316*
X329787*
G37*
X386546D02*
G36*
G75*
G02X393405Y335047I3973D01*
G01*
Y340603*
G75*
G02X393946Y341907I1844*
G01*
X398135Y346097*
Y352447*
G75*
G02X396007Y355966I1845J3519*
G01*
X394493*
G75*
G02X386546I-3973*
G01*
X385033*
G75*
G02X377087I-3973*
G01*
X375573*
G75*
G02X367626I-3973*
G01*
X366113*
G75*
G02X365998Y355015I-3973*
G01*
X368174Y352838*
G75*
G02X368715Y351534I-1304J-1304*
G01*
Y335047*
G75*
G02X375573Y332316I2885J-2731*
G01*
X377087*
G75*
G02X381060Y336289I3973*
G01*
G75*
G02X385033Y332316J-3973*
G01*
X386546*
G37*
X407595Y355966D02*
G36*
X403953D01*
G75*
G02X401824Y352447I-3973*
G01*
Y345333*
G75*
G02X401284Y344028I-1844*
G01*
X397094Y339838*
Y335047*
G75*
G02X402865I2885J-2731*
G01*
Y338228*
G75*
G02X403406Y339533I1844*
G01*
X407595Y343722*
Y355966*
G37*
X413413Y332316D02*
G36*
X414926D01*
G75*
G02X418900Y336289I3973*
G01*
G75*
G02X422873Y332316J-3973*
G01*
X435475*
Y355966*
X411285*
Y342958*
G75*
G02X410744Y341654I-1844*
G01*
X406554Y337464*
Y335047*
G75*
G02X413413Y332316I2885J-2731*
G01*
G37*
X411285Y355966D02*
G36*
X435475D01*
Y372317*
X317110*
Y355966*
X335583*
X336887Y357270*
G75*
G02X338192Y357811I1304J-1304*
G01*
X349161*
G75*
G02X355565Y358697I3519J-1845*
G01*
Y361888*
G75*
G02X356106Y363192I1844*
G01*
X358470Y365557*
G75*
G02X359775Y366097I1304J-1304*
G01*
X378694*
G75*
G02X379999Y365557I0J-1844*
G01*
X382364Y363192*
G75*
G02X382904Y361888I-1304J-1304*
G01*
Y359485*
G75*
G02X385033Y355966I-1844J-3519*
G01*
X386546*
G75*
G02X388675Y359485I3973*
G01*
Y361888*
G75*
G02X389215Y363192I1844*
G01*
X391580Y365557*
G75*
G02X392885Y366097I1304J-1304*
G01*
X407074*
G75*
G02X408379Y365557I0J-1844*
G01*
X410744Y363192*
G75*
G02X411285Y361888I-1304J-1304*
G01*
Y355966*
G37*
X377087D02*
G36*
G75*
G02X379215Y359485I3973D01*
G01*
Y361123*
X377931Y362408*
X360539*
X359254Y361123*
Y358697*
G75*
G02X366113Y355966I2885J-2731*
G01*
X367626*
G75*
G02X375573I3973*
G01*
X377087*
G37*
X407595D02*
G36*
Y361123D01*
X406311Y362408*
X393649*
X392365Y361123*
Y359485*
G75*
G02X394493Y355966I-1845J-3519*
G01*
X396007*
G75*
G02X403953I3973*
G01*
X407595*
G37*
X316732Y465806D02*
Y376480D01*
X435853*
Y465806*
X316732*
X406554Y428157D02*
G75*
G02X413413Y425426I2885J-2731D01*
G01*
G75*
G02X406554Y422694I-3973*
G01*
Y420696*
G75*
G02X406014Y419392I-1844J0*
G01*
X403772Y417150*
G75*
G02X401824Y412447I-3793J-1184*
G01*
Y397344*
G75*
G02X401284Y396040I-1844J0*
G01*
X395083Y389839*
G75*
G02X393778Y389298I-1304J1304*
G01*
X388308*
G75*
G02X387828Y388778I-2519J1845*
G01*
G75*
G02X388911Y386413I-2038J-2365*
G01*
G75*
G02X383425Y384375I-3122*
G01*
G75*
G02X378695I-2365J2038*
G01*
G75*
G02X373965I-2365J2038*
G01*
G75*
G02X369235I-2365J2038*
G01*
G75*
G02X364351Y384568I-2365J2038*
G01*
X339365*
G75*
G02X338061Y385109I0J1845*
G01*
X332456Y390714*
G75*
G02X331915Y392018I1304J1305*
G01*
Y412447*
G75*
G02Y419485I1845J3519*
G01*
Y421907*
G75*
G02Y428945I1845J3519*
G01*
Y444644*
G75*
G02X332456Y445948I1845J0*
G01*
X336887Y450380*
G75*
G02X338192Y450921I1304J-1304*
G01*
X349161*
G75*
G02X355565Y451807I3519J-1845*
G01*
Y454998*
G75*
G02X356106Y456302I1845J0*
G01*
X358470Y458667*
G75*
G02X359775Y459207I1304J-1304*
G01*
X378694*
G75*
G02X379999Y458667I0J-1844*
G01*
X382364Y456302*
G75*
G02X382904Y454998I-1304J-1304*
G01*
Y452595*
G75*
G02X385033Y449076I-1844J-3519*
G01*
G75*
G02X377087I-3973*
G01*
G75*
G02X379215Y452595I3973*
G01*
Y454233*
X377931Y455518*
X360539*
X359254Y454233*
Y451807*
G75*
G02X365998Y448125I2885J-2731*
G01*
X368174Y445948*
G75*
G02X368715Y444644I-1304J-1305*
G01*
Y428157*
G75*
G02X375573Y425426I2885J-2731*
G01*
G75*
G02X368715Y422694I-3973*
G01*
Y421758*
X370649Y419824*
G75*
G02X373444Y412447I951J-3857*
G01*
Y393661*
G75*
G02X373965Y393180I-1845J-2519*
G01*
G75*
G02X374485Y393661I2365J-2037*
G01*
Y395863*
G75*
G02X375026Y397168I1845J0*
G01*
X377391Y399533*
G75*
G02X378695Y400073I1304J-1304*
G01*
X383545*
X388675Y405203*
Y412447*
G75*
G02X391925Y419682I1844J3519*
G01*
X393405Y421162*
Y422694*
G75*
G02X386546Y425426I-2885J2731*
G01*
G75*
G02X393405Y428157I3973*
G01*
Y433713*
G75*
G02X393946Y435017I1844J0*
G01*
X398135Y439207*
Y445557*
G75*
G02X396007Y449076I1845J3519*
G01*
G75*
G02X403953I3973*
G01*
G75*
G02X401824Y445557I-3973*
G01*
Y438443*
G75*
G02X401284Y437139I-1844J0*
G01*
X397094Y432948*
Y428157*
G75*
G02X402865I2885J-2731*
G01*
Y431339*
G75*
G02X403406Y432643I1845J0*
G01*
X407595Y436833*
Y454233*
X406311Y455518*
X393649*
X392365Y454233*
Y452595*
G75*
G02X394493Y449076I-1845J-3519*
G01*
G75*
G02X386546I-3973*
G01*
G75*
G02X388675Y452595I3973*
G01*
Y454998*
G75*
G02X389215Y456302I1844J0*
G01*
X391580Y458667*
G75*
G02X392885Y459207I1304J-1304*
G01*
X407074*
G75*
G02X408379Y458667I0J-1844*
G01*
X410744Y456302*
G75*
G02X411285Y454998I-1304J-1304*
G01*
Y436069*
G75*
G02X410744Y434764I-1845J0*
G01*
X406554Y430574*
Y428157*
X367626Y449076D02*
G75*
G02X375573I3973D01*
G01*
G75*
G02X367626I-3973*
G01*
X381060Y419939D02*
G75*
G02X385033Y415966J-3973D01*
G01*
G75*
G02X381060Y411993I-3973*
G01*
G75*
G02X377087Y415966J3973*
G01*
G75*
G02X381060Y419939I3973*
G01*
Y429399D02*
G75*
G02X385033Y425426J-3973D01*
G01*
G75*
G02X381060Y421453I-3973*
G01*
G75*
G02X377087Y425426J3973*
G01*
G75*
G02X381060Y429399I3973*
G01*
X409440Y419939D02*
G75*
G02X413413Y415966J-3973D01*
G01*
G75*
G02X409440Y411993I-3973*
G01*
G75*
G02X405467Y415966J3973*
G01*
G75*
G02X409440Y419939I3973*
G01*
X418900D02*
G75*
G02X422873Y415966J-3973D01*
G01*
G75*
G02X418900Y411993I-3973*
G01*
G75*
G02X414926Y415966J3973*
G01*
G75*
G02X418900Y419939I3973*
G01*
Y429399D02*
G75*
G02X422873Y425426J-3973D01*
G01*
G75*
G02X418900Y421453I-3973*
G01*
G75*
G02X414926Y425426J3973*
G01*
G75*
G02X418900Y429399I3973*
G01*
X403953Y415966D02*
G36*
G75*
G02X401824Y412447I-3973D01*
G01*
Y397344*
G75*
G02X401284Y396040I-1844*
G01*
X395083Y389839*
G75*
G02X393778Y389298I-1304J1304*
G01*
X388308*
G75*
G02X387828Y388778I-2533J1859*
G01*
G75*
G02X388911Y386413I-2039J-2366*
G01*
G75*
G02X383425Y384375I-3122J0*
G01*
G75*
G02X378695I-2365J2037*
G01*
G75*
G02X373965I-2365J2037*
G01*
G75*
G02X369235I-2365J2037*
G01*
G75*
G02X364351Y384568I-2365J2038*
G01*
X339365*
G75*
G02X338061Y385109I0J1844*
G01*
X332456Y390714*
G75*
G02X331915Y392018I1304J1304*
G01*
Y412447*
G75*
G02X329787Y415966I1845J3519*
G01*
X317110*
Y376858*
X435475*
Y415966*
X422873*
G75*
G02X418900Y411993I-3973*
G01*
G75*
G02X414926Y415966J3973*
G01*
X413413*
G75*
G02X409440Y411993I-3973*
G01*
G75*
G02X405467Y415966J3973*
G01*
X403953*
G37*
X386546D02*
G36*
X385033D01*
G75*
G02X381060Y411993I-3973*
G01*
G75*
G02X377087Y415966J3973*
G01*
X375572*
G75*
G02X373444Y412447I-3973*
G01*
Y393661*
G75*
G02X373965Y393180I-1859J-2533*
G01*
G75*
G02X374485Y393661I2379J-2052*
G01*
Y395863*
G75*
G02X375026Y397168I1844*
G01*
X377391Y399533*
G75*
G02X378695Y400073I1304J-1304*
G01*
X383545*
X388675Y405203*
Y412447*
G75*
G02X386546Y415966I1844J3519*
G01*
G37*
X329787D02*
G36*
Y415967D01*
G75*
G02X331915Y419485I3973*
G01*
Y421249*
X317110*
Y415966*
X329787*
G37*
X393405Y421249D02*
G36*
X369224D01*
X370649Y419824*
G75*
G02X375572Y415966I950J-3857*
G01*
X377087*
G75*
G02X381060Y419939I3973*
G01*
G75*
G02X385033Y415966J-3973*
G01*
X386546*
G75*
G02X391925Y419682I3973*
G01*
X393405Y421162*
Y421249*
G37*
X406554D02*
G36*
Y420696D01*
G75*
G02X406014Y419392I-1844*
G01*
X403772Y417150*
G75*
G02X403953Y415966I-3792J-1184*
G01*
X405467*
G75*
G02X409440Y419939I3973*
G01*
G75*
G02X413413Y415966J-3973*
G01*
X414926*
G75*
G02X418900Y419939I3973*
G01*
G75*
G02X422873Y415966J-3973*
G01*
X435475*
Y421249*
X406554*
G37*
X329787Y425426D02*
G36*
X317110D01*
Y421249*
X331915*
Y421907*
G75*
G02X329787Y425426I1845J3519*
G01*
G37*
X386546D02*
G36*
X385033D01*
G75*
G02X381060Y421453I-3973*
G01*
G75*
G02X377087Y425426J3973*
G01*
X375573*
G75*
G02X368715Y422694I-3973*
G01*
Y421758*
X369224Y421249*
X393405*
Y422694*
G75*
G02X386546Y425426I-2885J2731*
G01*
G37*
X413413D02*
G36*
G75*
G02X406554Y422694I-3973D01*
G01*
Y421249*
X435475*
Y425426*
X422873*
G75*
G02X418900Y421453I-3973*
G01*
G75*
G02X414926Y425426J3973*
G01*
X413413*
G37*
X329787D02*
G36*
Y425426D01*
G75*
G02X331915Y428945I3973*
G01*
Y444644*
G75*
G02X332456Y445948I1844*
G01*
X335583Y449076*
X317110*
Y425426*
X329787*
G37*
X386546D02*
G36*
G75*
G02X393405Y428157I3973D01*
G01*
Y433713*
G75*
G02X393946Y435017I1844*
G01*
X398135Y439207*
Y445557*
G75*
G02X396007Y449076I1845J3519*
G01*
X394493*
G75*
G02X386546I-3973*
G01*
X385033*
G75*
G02X377087I-3973*
G01*
X375573*
G75*
G02X367626I-3973*
G01*
X366113*
G75*
G02X365998Y448125I-3973*
G01*
X368174Y445948*
G75*
G02X368715Y444644I-1304J-1304*
G01*
Y428157*
G75*
G02X375573Y425426I2885J-2731*
G01*
X377087*
G75*
G02X381060Y429399I3973*
G01*
G75*
G02X385033Y425426J-3973*
G01*
X386546*
G37*
X407595Y449076D02*
G36*
X403953D01*
G75*
G02X401824Y445557I-3973*
G01*
Y438443*
G75*
G02X401284Y437139I-1844*
G01*
X397094Y432948*
Y428157*
G75*
G02X402865I2885J-2731*
G01*
Y431339*
G75*
G02X403406Y432643I1844*
G01*
X407595Y436833*
Y449076*
G37*
X413413Y425426D02*
G36*
X414926D01*
G75*
G02X418900Y429399I3973*
G01*
G75*
G02X422873Y425426J-3973*
G01*
X435475*
Y449076*
X411285*
Y436069*
G75*
G02X410744Y434764I-1844*
G01*
X406554Y430574*
Y428157*
G75*
G02X413413Y425426I2885J-2731*
G01*
G37*
X411285Y449076D02*
G36*
X435475D01*
Y465428*
X317110*
Y449076*
X335583*
X336887Y450380*
G75*
G02X338192Y450921I1304J-1304*
G01*
X349161*
G75*
G02X355565Y451807I3519J-1845*
G01*
Y454998*
G75*
G02X356106Y456302I1844*
G01*
X358470Y458667*
G75*
G02X359775Y459207I1304J-1304*
G01*
X378694*
G75*
G02X379999Y458667I0J-1844*
G01*
X382364Y456302*
G75*
G02X382904Y454998I-1304J-1304*
G01*
Y452595*
G75*
G02X385033Y449076I-1844J-3519*
G01*
X386546*
G75*
G02X388675Y452595I3973*
G01*
Y454998*
G75*
G02X389215Y456302I1844*
G01*
X391580Y458667*
G75*
G02X392885Y459207I1304J-1304*
G01*
X407074*
G75*
G02X408379Y458667I0J-1844*
G01*
X410744Y456302*
G75*
G02X411285Y454998I-1304J-1304*
G01*
Y449076*
G37*
X377087D02*
G36*
G75*
G02X379215Y452595I3973D01*
G01*
Y454233*
X377931Y455518*
X360539*
X359254Y454233*
Y451807*
G75*
G02X366113Y449076I2885J-2731*
G01*
X367626*
G75*
G02X375573I3973*
G01*
X377087*
G37*
X407595D02*
G36*
Y454233D01*
X406311Y455518*
X393649*
X392365Y454233*
Y452595*
G75*
G02X394493Y449076I-1845J-3519*
G01*
X396007*
G75*
G02X403953I3973*
G01*
X407595*
G37*
X335604Y133117D02*
Y113452D01*
X340129Y108927*
X364351*
G75*
G02X364832Y109447I2519J-1845*
G01*
G75*
G02X363785Y112289I2037J2365*
G01*
X360835Y115238*
G75*
G02X360295Y116542I1304J1305*
G01*
Y133117*
G75*
G02X358424Y138041I1845J3519*
G01*
X356106Y140359*
G75*
G02X355565Y141663I1304J1305*
G01*
Y143364*
G75*
G02X348707Y146095I-2885J2731*
G01*
G75*
G02X355565Y148827I3973*
G01*
Y167014*
G75*
G02X349161Y167901I-2885J2731*
G01*
X338956*
X335604Y164549*
Y149614*
G75*
G02Y142576I-1844J-3519*
G01*
Y140154*
G75*
G02Y133117I-1844J-3519*
G01*
X343220Y140609D02*
G75*
G02X347193Y136635J-3973D01*
G01*
G75*
G02X343220Y132662I-3973*
G01*
G75*
G02X339246Y136635J3973*
G01*
G75*
G02X343220Y140609I3973*
G01*
Y150069D02*
G75*
G02X347193Y146095J-3973D01*
G01*
G75*
G02X343220Y142122I-3973*
G01*
G75*
G02X339246Y146095J3973*
G01*
G75*
G02X343220Y150069I3973*
G01*
X352680Y140609D02*
G75*
G02X356653Y136635J-3973D01*
G01*
G75*
G02X352680Y132662I-3973*
G01*
G75*
G02X348707Y136635J3973*
G01*
G75*
G02X352680Y140609I3973*
G01*
X358167Y136635D02*
G36*
X356653D01*
G75*
G02X352680Y132662I-3973*
G01*
G75*
G02X348707Y136635J3973*
G01*
X347193*
G75*
G02X343220Y132662I-3973*
G01*
G75*
G02X339246Y136635J3973*
G01*
X337733*
G75*
G02X335983Y133343I-3973J0*
G01*
Y113073*
X339751Y109305*
X364454*
Y109835*
G75*
G02X363748Y111812I2415J1976*
G01*
G75*
G02X363785Y112289I3119J1*
G01*
X360835Y115238*
G75*
G02X360295Y116542I1304J1304*
G01*
Y133117*
G75*
G02X358167Y136635I1844J3519*
G01*
G37*
X348707Y146095D02*
G36*
X347193D01*
G75*
G02X343220Y142122I-3973*
G01*
G75*
G02X339246Y146095J3973*
G01*
X337733*
G75*
G02X335983Y142803I-3973*
G01*
Y139928*
G75*
G02X337733Y136636I-2222J-3293*
G01*
Y136635*
X339246*
G75*
G02X343220Y140609I3973*
G01*
G75*
G02X347193Y136635J-3973*
G01*
X348707*
G75*
G02X352680Y140609I3973*
G01*
G75*
G02X356653Y136635J-3973*
G01*
X358167*
G75*
G02X358424Y138041I3973*
G01*
X356106Y140359*
G75*
G02X355565Y141663I1304J1304*
G01*
Y143364*
G75*
G02X348707Y146095I-2885J2731*
G01*
G37*
X349387Y167522D02*
G36*
X338578D01*
X335983Y164928*
Y149388*
G75*
G02X337733Y146095I-2223J-3293*
G01*
X339246*
G75*
G02X343220Y150069I3973*
G01*
G75*
G02X347193Y146095J-3973*
G01*
X348707*
G75*
G02X355565Y148827I3973*
G01*
Y167014*
G75*
G02X349387Y167522I-2885J2731*
G01*
G37*
X335604Y226227D02*
Y206562D01*
X340129Y202037*
X364351*
G75*
G02X364832Y202557I2519J-1845*
G01*
G75*
G02X363785Y205399I2037J2365*
G01*
X360835Y208348*
G75*
G02X360295Y209652I1304J1305*
G01*
Y226227*
G75*
G02X358424Y231151I1845J3519*
G01*
X356106Y233469*
G75*
G02X355565Y234774I1304J1305*
G01*
Y236474*
G75*
G02X348707Y239206I-2885J2731*
G01*
G75*
G02X355565Y241937I3973*
G01*
Y260124*
G75*
G02X349161Y261011I-2885J2731*
G01*
X338956*
X335604Y257659*
Y242725*
G75*
G02Y235687I-1844J-3519*
G01*
Y233265*
G75*
G02Y226227I-1844J-3519*
G01*
X343220Y233719D02*
G75*
G02Y225772J-3973D01*
G01*
G75*
G02X339246Y229746J3973*
G01*
G75*
G02X343220Y233719I3973*
G01*
Y243179D02*
G75*
G02X347193Y239206J-3973D01*
G01*
G75*
G02X343220Y235232I-3973*
G01*
G75*
G02X339246Y239206J3973*
G01*
G75*
G02X343220Y243179I3973*
G01*
X352680Y233719D02*
G75*
G02X356653Y229746J-3973D01*
G01*
G75*
G02X352680Y225772I-3973*
G01*
G75*
G02X348707Y229746J3973*
G01*
G75*
G02X352680Y233719I3973*
G01*
X358167Y229746D02*
G36*
X356653D01*
G75*
G02X352680Y225772I-3973*
G01*
G75*
G02X348707Y229746J3973*
G01*
X347193*
G75*
G02X343220Y225772I-3973*
G01*
G75*
G02X339246Y229746J3973*
G01*
X337733*
G75*
G02X335983Y226453I-3973J0*
G01*
Y206183*
X339751Y202415*
X364454*
Y202945*
G75*
G02X363748Y204922I2415J1976*
G01*
G75*
G02X363785Y205399I3119J1*
G01*
X360835Y208348*
G75*
G02X360295Y209652I1304J1304*
G01*
Y226227*
G75*
G02X358167Y229746I1844J3519*
G01*
G37*
X348707Y239206D02*
G36*
X347193D01*
G75*
G02X343220Y235232I-3973*
G01*
G75*
G02X339246Y239206J3973*
G01*
X337733*
G75*
G02X335983Y235913I-3973J0*
G01*
Y233039*
G75*
G02X337733Y229746I-2222J-3293*
G01*
Y229746*
X339246*
G75*
G02X343220Y233719I3973*
G01*
G75*
G02X347193Y229746J-3973*
G01*
X348707*
G75*
G02X352680Y233719I3973*
G01*
G75*
G02X356653Y229746J-3973*
G01*
X358167*
G75*
G02X358424Y231151I3973*
G01*
X356106Y233469*
G75*
G02X355565Y234774I1304J1304*
G01*
Y236474*
G75*
G02X348707Y239206I-2885J2731*
G01*
G37*
X349387Y260632D02*
G36*
X338578D01*
X335983Y258038*
Y242499*
G75*
G02X337733Y239206I-2222J-3293*
G01*
Y239206*
X339246*
G75*
G02X343220Y243179I3973*
G01*
G75*
G02X347193Y239206J-3973*
G01*
X348707*
G75*
G02X355565Y241937I3973*
G01*
Y260124*
G75*
G02X349387Y260632I-2885J2731*
G01*
G37*
X335604Y319337D02*
Y299672D01*
X340129Y295147*
X364351*
G75*
G02X364832Y295668I2519J-1845*
G01*
G75*
G02X363785Y298509I2037J2365*
G01*
X360835Y301458*
G75*
G02X360295Y302763I1304J1305*
G01*
Y319337*
G75*
G02X358424Y324261I1845J3519*
G01*
X356106Y326580*
G75*
G02X355565Y327884I1304J1305*
G01*
Y329584*
G75*
G02X348707Y332316I-2885J2731*
G01*
G75*
G02X355565Y335047I3973*
G01*
Y353234*
G75*
G02X349161Y354121I-2885J2731*
G01*
X338956*
X335604Y350770*
Y335835*
G75*
G02Y328797I-1844J-3519*
G01*
Y326375*
G75*
G02Y319337I-1844J-3519*
G01*
X343220Y326829D02*
G75*
G02X347193Y322856J-3973D01*
G01*
G75*
G02X343220Y318883I-3973*
G01*
G75*
G02X339246Y322856J3973*
G01*
G75*
G02X343220Y326829I3973*
G01*
Y336289D02*
G75*
G02X347193Y332316J-3973D01*
G01*
G75*
G02X343220Y328343I-3973*
G01*
G75*
G02X339246Y332316J3973*
G01*
G75*
G02X343220Y336289I3973*
G01*
X352680Y326829D02*
G75*
G02X356653Y322856J-3973D01*
G01*
G75*
G02X352680Y318883I-3973*
G01*
G75*
G02X348707Y322856J3973*
G01*
G75*
G02X352680Y326829I3973*
G01*
X358167Y322856D02*
G36*
X356653D01*
G75*
G02X352680Y318883I-3973*
G01*
G75*
G02X348707Y322856J3973*
G01*
X347193*
G75*
G02X343220Y318883I-3973*
G01*
G75*
G02X339246Y322856J3973*
G01*
X337733*
G75*
G02X335983Y319563I-3973J0*
G01*
Y299294*
X339751Y295526*
X364454*
Y296056*
G75*
G02X363748Y298032I2415J1976*
G01*
G75*
G02X363785Y298509I3119J1*
G01*
X360835Y301458*
G75*
G02X360295Y302763I1304J1304*
G01*
Y319337*
G75*
G02X358167Y322856I1844J3519*
G01*
G37*
X348707Y332316D02*
G36*
X347193D01*
G75*
G02X343220Y328343I-3973*
G01*
G75*
G02X339246Y332316J3973*
G01*
X337733*
G75*
G02X335983Y329023I-3973J0*
G01*
Y326149*
G75*
G02X337733Y322856I-2222J-3293*
G01*
Y322856*
X339246*
G75*
G02X343220Y326829I3973*
G01*
G75*
G02X347193Y322856J-3973*
G01*
X348707*
G75*
G02X352680Y326829I3973*
G01*
G75*
G02X356653Y322856J-3973*
G01*
X358167*
G75*
G02X358424Y324261I3973*
G01*
X356106Y326580*
G75*
G02X355565Y327884I1304J1304*
G01*
Y329584*
G75*
G02X348707Y332316I-2885J2731*
G01*
G37*
X349387Y353743D02*
G36*
X338578D01*
X335983Y351148*
Y335609*
G75*
G02X337733Y332316I-2222J-3293*
G01*
Y332316*
X339246*
G75*
G02X343220Y336289I3973*
G01*
G75*
G02X347193Y332316J-3973*
G01*
X348707*
G75*
G02X355565Y335047I3973*
G01*
Y353234*
G75*
G02X349387Y353743I-2885J2731*
G01*
G37*
X335604Y412447D02*
Y392782D01*
X340129Y388257*
X364351*
G75*
G02X364832Y388778I2519J-1845*
G01*
G75*
G02X363785Y391619I2037J2365*
G01*
X360835Y394569*
G75*
G02X360295Y395873I1304J1305*
G01*
Y412447*
G75*
G02X358424Y417372I1845J3519*
G01*
X356106Y419690*
G75*
G02X355565Y420994I1304J1305*
G01*
Y422694*
G75*
G02X348707Y425426I-2885J2731*
G01*
G75*
G02X355565Y428157I3973*
G01*
Y446344*
G75*
G02X349161Y447231I-2885J2731*
G01*
X338956*
X335604Y443880*
Y428945*
G75*
G02Y421907I-1844J-3519*
G01*
Y419485*
G75*
G02Y412447I-1844J-3519*
G01*
X343220Y419939D02*
G75*
G02X347193Y415966J-3973D01*
G01*
G75*
G02X343220Y411993I-3973*
G01*
G75*
G02X339246Y415966J3973*
G01*
G75*
G02X343220Y419939I3973*
G01*
Y429399D02*
G75*
G02X347193Y425426J-3973D01*
G01*
G75*
G02X343220Y421453I-3973*
G01*
G75*
G02X339246Y425426J3973*
G01*
G75*
G02X343220Y429399I3973*
G01*
X352680Y419939D02*
G75*
G02X356653Y415966J-3973D01*
G01*
G75*
G02X352680Y411993I-3973*
G01*
G75*
G02X348707Y415966J3973*
G01*
G75*
G02X352680Y419939I3973*
G01*
X358167Y415966D02*
G36*
X356653D01*
G75*
G02X352680Y411993I-3973*
G01*
G75*
G02X348707Y415966J3973*
G01*
X347193*
G75*
G02X343220Y411993I-3973*
G01*
G75*
G02X339246Y415966J3973*
G01*
X337733*
G75*
G02X335983Y412673I-3973J0*
G01*
Y392404*
X339751Y388636*
X364454*
Y389166*
G75*
G02X363748Y391143I2415J1976*
G01*
G75*
G02X363785Y391619I3119J1*
G01*
X360835Y394569*
G75*
G02X360295Y395873I1304J1304*
G01*
Y412447*
G75*
G02X358167Y415966I1844J3519*
G01*
G37*
X348707Y425426D02*
G36*
X347193D01*
G75*
G02X343220Y421453I-3973*
G01*
G75*
G02X339246Y425426J3973*
G01*
X337733*
G75*
G02X335983Y422133I-3973J0*
G01*
Y419259*
G75*
G02X337733Y415967I-2222J-3293*
G01*
Y415966*
X339246*
G75*
G02X343220Y419939I3973*
G01*
G75*
G02X347193Y415966J-3973*
G01*
X348707*
G75*
G02X352680Y419939I3973*
G01*
G75*
G02X356653Y415966J-3973*
G01*
X358167*
G75*
G02X358424Y417372I3973*
G01*
X356106Y419690*
G75*
G02X355565Y420994I1304J1304*
G01*
Y422694*
G75*
G02X348707Y425426I-2885J2731*
G01*
G37*
X349387Y446853D02*
G36*
X338578D01*
X335983Y444258*
Y428719*
G75*
G02X337733Y425426I-2222J-3293*
G01*
Y425426*
X339246*
G75*
G02X343220Y429399I3973*
G01*
G75*
G02X347193Y425426J-3973*
G01*
X348707*
G75*
G02X355565Y428157I3973*
G01*
Y446344*
G75*
G02X349387Y446853I-2885J2731*
G01*
G37*
X359254Y143364D02*
Y142428D01*
X361189Y140493*
G75*
G02X363985Y133117I951J-3857*
G01*
Y117306*
X366393Y114898*
G75*
G02X369235Y113850I476J-3085*
G01*
G75*
G02X369755Y114331I2365J-2037*
G01*
Y133117*
G75*
G02X367883Y138041I1845J3519*
G01*
X365565Y140359*
G75*
G02X365025Y141663I1304J1305*
G01*
Y143364*
G75*
G02X359254I-2885J2731*
G01*
G36*
Y142428*
X361189Y140493*
G75*
G02X363985Y133117I951J-3857*
G01*
Y117306*
X366393Y114898*
G75*
G02X369235Y113850I476J-3085*
G01*
G75*
G02X369755Y114331I2365J-2037*
G01*
Y133117*
G75*
G02X367883Y138041I1845J3519*
G01*
X365565Y140359*
G75*
G02X365025Y141663I1304J1305*
G01*
Y143364*
G75*
G02X359254I-2885J2731*
G01*
G37*
Y167014D02*
Y148827D01*
G75*
G02X365025I2885J-2731*
G01*
Y164549*
X363545Y166029*
G75*
G02X359254Y167014I-1406J3716*
G01*
G36*
Y148827*
G75*
G02X365025I2885J-2731*
G01*
Y164549*
X363545Y166029*
G75*
G02X359254Y167014I-1406J3716*
G01*
G37*
Y236474D02*
Y235538D01*
X361189Y233603*
G75*
G02X363985Y226227I951J-3857*
G01*
Y210417*
X366393Y208008*
G75*
G02X369235Y206960I476J-3085*
G01*
G75*
G02X369755Y207441I2365J-2037*
G01*
Y226227*
G75*
G02X367883Y231151I1845J3519*
G01*
X365565Y233469*
G75*
G02X365025Y234774I1304J1305*
G01*
Y236474*
G75*
G02X359254I-2885J2731*
G01*
G36*
Y235538*
X361189Y233603*
G75*
G02X363985Y226227I951J-3857*
G01*
Y210417*
X366393Y208008*
G75*
G02X369235Y206960I476J-3085*
G01*
G75*
G02X369755Y207441I2365J-2037*
G01*
Y226227*
G75*
G02X367883Y231151I1845J3519*
G01*
X365565Y233469*
G75*
G02X365025Y234774I1304J1305*
G01*
Y236474*
G75*
G02X359254I-2885J2731*
G01*
G37*
Y260124D02*
Y241937D01*
G75*
G02X365025I2885J-2731*
G01*
Y257659*
X363545Y259139*
G75*
G02X359254Y260124I-1406J3716*
G01*
G36*
Y241937*
G75*
G02X365025I2885J-2731*
G01*
Y257659*
X363545Y259139*
G75*
G02X359254Y260124I-1406J3716*
G01*
G37*
Y329584D02*
Y328648D01*
X361189Y326713*
G75*
G02X363985Y319337I951J-3857*
G01*
Y303527*
X366393Y301118*
G75*
G02X369235Y300070I476J-3085*
G01*
G75*
G02X369755Y300551I2365J-2037*
G01*
Y319337*
G75*
G02X367883Y324261I1845J3519*
G01*
X365565Y326580*
G75*
G02X365025Y327884I1304J1305*
G01*
Y329584*
G75*
G02X359254I-2885J2731*
G01*
G36*
Y328648*
X361189Y326713*
G75*
G02X363985Y319337I951J-3857*
G01*
Y303527*
X366393Y301118*
G75*
G02X369235Y300070I476J-3085*
G01*
G75*
G02X369755Y300551I2365J-2037*
G01*
Y319337*
G75*
G02X367883Y324261I1845J3519*
G01*
X365565Y326580*
G75*
G02X365025Y327884I1304J1305*
G01*
Y329584*
G75*
G02X359254I-2885J2731*
G01*
G37*
Y353234D02*
Y335047D01*
G75*
G02X365025I2885J-2731*
G01*
Y350770*
X363545Y352250*
G75*
G02X359254Y353234I-1406J3716*
G01*
G36*
Y335047*
G75*
G02X365025I2885J-2731*
G01*
Y350770*
X363545Y352250*
G75*
G02X359254Y353234I-1406J3716*
G01*
G37*
Y422694D02*
Y421758D01*
X361189Y419824*
G75*
G02X363985Y412447I951J-3857*
G01*
Y396637*
X366393Y394228*
G75*
G02X369235Y393180I476J-3085*
G01*
G75*
G02X369755Y393661I2365J-2037*
G01*
Y412447*
G75*
G02X367883Y417372I1845J3519*
G01*
X365565Y419690*
G75*
G02X365025Y420994I1304J1305*
G01*
Y422694*
G75*
G02X359254I-2885J2731*
G01*
G36*
Y421758*
X361189Y419824*
G75*
G02X363985Y412447I951J-3857*
G01*
Y396637*
X366393Y394228*
G75*
G02X369235Y393180I476J-3085*
G01*
G75*
G02X369755Y393661I2365J-2037*
G01*
Y412447*
G75*
G02X367883Y417372I1845J3519*
G01*
X365565Y419690*
G75*
G02X365025Y420994I1304J1305*
G01*
Y422694*
G75*
G02X359254I-2885J2731*
G01*
G37*
Y446344D02*
Y428157D01*
G75*
G02X365025I2885J-2731*
G01*
Y443880*
X363545Y445360*
G75*
G02X359254Y446344I-1406J3716*
G01*
G36*
Y428157*
G75*
G02X365025I2885J-2731*
G01*
Y443880*
X363545Y445360*
G75*
G02X359254Y446344I-1406J3716*
G01*
G37*
X396554Y139763D02*
X394378Y137586D01*
G75*
G02X392365Y133117I-3858J-951*
G01*
Y125108*
G75*
G02X391824Y123804I-1845J0*
G01*
X385614Y117594*
G75*
G02X384309Y117053I-1304J1304*
G01*
X379459*
X378174Y115769*
Y114331*
G75*
G02X378695Y113850I-1845J-2519*
G01*
G75*
G02X383425I2365J-2037*
G01*
G75*
G02X388308Y113657I2365J-2037*
G01*
X393015*
X398135Y118778*
Y133117*
G75*
G02X401164Y140428I1844J3519*
G01*
X402865Y142130*
Y143364*
G75*
G02X397094I-2885J2731*
G01*
Y141067*
G75*
G02X396554Y139763I-1845J0*
G01*
G36*
X394378Y137586*
G75*
G02X392365Y133117I-3858J-951*
G01*
Y125108*
G75*
G02X391824Y123804I-1845J0*
G01*
X385614Y117594*
G75*
G02X384309Y117053I-1304J1304*
G01*
X379459*
X378174Y115769*
Y114331*
G75*
G02X378695Y113850I-1845J-2519*
G01*
G75*
G02X383425I2365J-2037*
G01*
G75*
G02X388308Y113657I2365J-2037*
G01*
X393015*
X398135Y118778*
Y133117*
G75*
G02X401164Y140428I1844J3519*
G01*
X402865Y142130*
Y143364*
G75*
G02X397094I-2885J2731*
G01*
Y141067*
G75*
G02X396554Y139763I-1845J0*
G01*
G37*
Y232873D02*
X394378Y230696D01*
G75*
G02X392365Y226227I-3858J-951*
G01*
Y218219*
G75*
G02X391824Y216914I-1845J0*
G01*
X385614Y210704*
G75*
G02X384309Y210163I-1304J1304*
G01*
X379459*
X378174Y208879*
Y207441*
G75*
G02X378695Y206960I-1845J-2519*
G01*
G75*
G02X383425I2365J-2037*
G01*
G75*
G02X388308Y206767I2365J-2037*
G01*
X393015*
X398135Y211888*
Y226227*
G75*
G02X401164Y233538I1844J3519*
G01*
X402865Y235240*
Y236474*
G75*
G02X397094I-2885J2731*
G01*
Y234178*
G75*
G02X396554Y232873I-1845J0*
G01*
G36*
X394378Y230696*
G75*
G02X392365Y226227I-3858J-951*
G01*
Y218219*
G75*
G02X391824Y216914I-1845J0*
G01*
X385614Y210704*
G75*
G02X384309Y210163I-1304J1304*
G01*
X379459*
X378174Y208879*
Y207441*
G75*
G02X378695Y206960I-1845J-2519*
G01*
G75*
G02X383425I2365J-2037*
G01*
G75*
G02X388308Y206767I2365J-2037*
G01*
X393015*
X398135Y211888*
Y226227*
G75*
G02X401164Y233538I1844J3519*
G01*
X402865Y235240*
Y236474*
G75*
G02X397094I-2885J2731*
G01*
Y234178*
G75*
G02X396554Y232873I-1845J0*
G01*
G37*
Y325983D02*
X394378Y323807D01*
G75*
G02X392365Y319337I-3858J-951*
G01*
Y311329*
G75*
G02X391824Y310024I-1845J0*
G01*
X385614Y303814*
G75*
G02X384309Y303274I-1304J1304*
G01*
X379459*
X378174Y301989*
Y300551*
G75*
G02X378695Y300070I-1845J-2519*
G01*
G75*
G02X383425I2365J-2037*
G01*
G75*
G02X388308Y299877I2365J-2037*
G01*
X393015*
X398135Y304998*
Y319337*
G75*
G02X401164Y326648I1844J3519*
G01*
X402865Y328350*
Y329584*
G75*
G02X397094I-2885J2731*
G01*
Y327288*
G75*
G02X396554Y325983I-1845J0*
G01*
G36*
X394378Y323807*
G75*
G02X392365Y319337I-3858J-951*
G01*
Y311329*
G75*
G02X391824Y310024I-1845J0*
G01*
X385614Y303814*
G75*
G02X384309Y303274I-1304J1304*
G01*
X379459*
X378174Y301989*
Y300551*
G75*
G02X378695Y300070I-1845J-2519*
G01*
G75*
G02X383425I2365J-2037*
G01*
G75*
G02X388308Y299877I2365J-2037*
G01*
X393015*
X398135Y304998*
Y319337*
G75*
G02X401164Y326648I1844J3519*
G01*
X402865Y328350*
Y329584*
G75*
G02X397094I-2885J2731*
G01*
Y327288*
G75*
G02X396554Y325983I-1845J0*
G01*
G37*
Y419094D02*
X394378Y416917D01*
G75*
G02X392365Y412447I-3858J-951*
G01*
Y404439*
G75*
G02X391824Y403135I-1845J0*
G01*
X385614Y396924*
G75*
G02X384309Y396384I-1304J1304*
G01*
X379459*
X378174Y395099*
Y393661*
G75*
G02X378695Y393180I-1845J-2519*
G01*
G75*
G02X383425I2365J-2037*
G01*
G75*
G02X388308Y392987I2365J-2037*
G01*
X393015*
X398135Y398108*
Y412447*
G75*
G02X401164Y419759I1844J3519*
G01*
X402865Y421460*
Y422694*
G75*
G02X397094I-2885J2731*
G01*
Y420398*
G75*
G02X396554Y419094I-1845J0*
G01*
G36*
X394378Y416917*
G75*
G02X392365Y412447I-3858J-951*
G01*
Y404439*
G75*
G02X391824Y403135I-1845J0*
G01*
X385614Y396924*
G75*
G02X384309Y396384I-1304J1304*
G01*
X379459*
X378174Y395099*
Y393661*
G75*
G02X378695Y393180I-1845J-2519*
G01*
G75*
G02X383425I2365J-2037*
G01*
G75*
G02X388308Y392987I2365J-2037*
G01*
X393015*
X398135Y398108*
Y412447*
G75*
G02X401164Y419759I1844J3519*
G01*
X402865Y421460*
Y422694*
G75*
G02X397094I-2885J2731*
G01*
Y420398*
G75*
G02X396554Y419094I-1845J0*
G01*
G37*
D02*
D23*
X95328Y146095D02*
X93057D01*
X95328Y239206D02*
X93057D01*
X95328Y332316D02*
X93057D01*
X95328Y425426D02*
X93057D01*
X97409Y144014D02*
Y141744D01*
Y148176D02*
Y150447D01*
Y237124D02*
Y234854D01*
Y241287D02*
Y243557D01*
Y330235D02*
Y327964D01*
Y334397D02*
Y336667D01*
Y423345D02*
Y421074D01*
Y427507D02*
Y429778D01*
X99490Y146095D02*
X101760D01*
X99490Y239206D02*
X101760D01*
X99490Y332316D02*
X101760D01*
X99490Y425426D02*
X101760D01*
X104787Y146095D02*
X102517D01*
X104787Y239206D02*
X102517D01*
X104787Y332316D02*
X102517D01*
X104787Y425426D02*
X102517D01*
X106869Y144014D02*
Y141744D01*
Y148176D02*
Y150447D01*
Y237124D02*
Y234854D01*
Y241287D02*
Y243557D01*
Y330235D02*
Y327964D01*
Y334397D02*
Y336667D01*
Y423345D02*
Y421074D01*
Y427507D02*
Y429778D01*
X116329Y144014D02*
Y141744D01*
Y148176D02*
Y150447D01*
Y237124D02*
Y234854D01*
Y241287D02*
Y243557D01*
Y330235D02*
Y327964D01*
Y334397D02*
Y336667D01*
Y423345D02*
Y421074D01*
Y427507D02*
Y429778D01*
X123707Y169745D02*
X121437D01*
X123707Y262856D02*
X121437D01*
X123707Y355966D02*
X121437D01*
X123707Y449076D02*
X121437D01*
X125789Y105852D02*
Y103582D01*
Y144014D02*
Y141744D01*
Y148176D02*
Y150447D01*
Y167664D02*
Y165394D01*
Y171826D02*
Y174097D01*
Y198963D02*
Y196692D01*
Y237124D02*
Y234854D01*
Y241287D02*
Y243557D01*
Y260774D02*
Y258504D01*
Y264937D02*
Y267207D01*
Y292073D02*
Y289802D01*
Y330235D02*
Y327964D01*
Y334397D02*
Y336667D01*
Y353885D02*
Y351614D01*
Y358047D02*
Y360317D01*
Y385183D02*
Y382913D01*
Y423345D02*
Y421074D01*
Y427507D02*
Y429778D01*
Y446995D02*
Y444724D01*
Y451157D02*
Y453428D01*
X127870Y146095D02*
X130140D01*
X127870Y169745D02*
X130140D01*
X127870Y239206D02*
X130140D01*
X127870Y262856D02*
X130140D01*
X127870Y332316D02*
X130140D01*
X127870Y355966D02*
X130140D01*
X127870Y425426D02*
X130140D01*
X127870Y449076D02*
X130140D01*
X130519Y105852D02*
Y103582D01*
Y198963D02*
Y196692D01*
Y292073D02*
Y289802D01*
Y385183D02*
Y382913D01*
X133168Y146095D02*
X130897D01*
X133168Y239206D02*
X130897D01*
X133168Y332316D02*
X130897D01*
X133168Y425426D02*
X130897D01*
X135249Y144014D02*
Y141744D01*
Y148176D02*
Y150447D01*
Y237124D02*
Y234854D01*
Y241287D02*
Y243557D01*
Y330235D02*
Y327964D01*
Y334397D02*
Y336667D01*
Y423345D02*
Y421074D01*
Y427507D02*
Y429778D01*
X137330Y146095D02*
X139600D01*
X137330Y239206D02*
X139600D01*
X137330Y332316D02*
X139600D01*
X137330Y425426D02*
X139600D01*
X139979Y105852D02*
Y103582D01*
Y198963D02*
Y196692D01*
Y292073D02*
Y289802D01*
Y385183D02*
Y382913D01*
X141209Y107082D02*
X143479D01*
X141209Y200193D02*
X143479D01*
X141209Y293303D02*
X143479D01*
X141209Y386413D02*
X143479D01*
X142628Y146095D02*
X140357D01*
X142628Y239206D02*
X140357D01*
X142628Y332316D02*
X140357D01*
X142628Y425426D02*
X140357D01*
X144709Y144014D02*
Y141744D01*
Y148176D02*
Y150447D01*
Y237124D02*
Y234854D01*
Y241287D02*
Y243557D01*
Y330235D02*
Y327964D01*
Y334397D02*
Y336667D01*
Y423345D02*
Y421074D01*
Y427507D02*
Y429778D01*
X154169Y144014D02*
Y141744D01*
Y148176D02*
Y150447D01*
Y237124D02*
Y234854D01*
Y241287D02*
Y243557D01*
Y330235D02*
Y327964D01*
Y334397D02*
Y336667D01*
Y423345D02*
Y421074D01*
Y427507D02*
Y429778D01*
X163629Y144014D02*
Y141744D01*
Y148176D02*
Y150447D01*
Y237124D02*
Y234854D01*
Y241287D02*
Y243557D01*
Y330235D02*
Y327964D01*
Y334397D02*
Y336667D01*
Y423345D02*
Y421074D01*
Y427507D02*
Y429778D01*
X165710Y146095D02*
X167980D01*
X165710Y239206D02*
X167980D01*
X165710Y332316D02*
X167980D01*
X165710Y425426D02*
X167980D01*
X171007Y146095D02*
X168737D01*
X171007Y239206D02*
X168737D01*
X171007Y332316D02*
X168737D01*
X171007Y425426D02*
X168737D01*
X173089Y144014D02*
Y141744D01*
Y148176D02*
Y150447D01*
Y237124D02*
Y234854D01*
Y241287D02*
Y243557D01*
Y330235D02*
Y327964D01*
Y334397D02*
Y336667D01*
Y423345D02*
Y421074D01*
Y427507D02*
Y429778D01*
X175170Y146095D02*
X177440D01*
X175170Y239206D02*
X177440D01*
X175170Y332316D02*
X177440D01*
X175170Y425426D02*
X177440D01*
X218233Y146095D02*
X215963D01*
X218233Y239206D02*
X215963D01*
X218233Y332316D02*
X215963D01*
X218233Y425426D02*
X215963D01*
X220314Y144014D02*
Y141744D01*
Y148176D02*
Y150447D01*
Y237124D02*
Y234854D01*
Y241287D02*
Y243557D01*
Y330235D02*
Y327964D01*
Y334397D02*
Y336667D01*
Y423345D02*
Y421074D01*
Y427507D02*
Y429778D01*
X222395Y146095D02*
X224666D01*
X222395Y239206D02*
X224666D01*
X222395Y332316D02*
X224666D01*
X222395Y425426D02*
X224666D01*
X227693Y146095D02*
X225423D01*
X227693Y239206D02*
X225423D01*
X227693Y332316D02*
X225423D01*
X227693Y425426D02*
X225423D01*
X229774Y144014D02*
Y141744D01*
Y148176D02*
Y150447D01*
Y237124D02*
Y234854D01*
Y241287D02*
Y243557D01*
Y330235D02*
Y327964D01*
Y334397D02*
Y336667D01*
Y423345D02*
Y421074D01*
Y427507D02*
Y429778D01*
X239234Y144014D02*
Y141744D01*
Y148176D02*
Y150447D01*
Y237124D02*
Y234854D01*
Y241287D02*
Y243557D01*
Y330235D02*
Y327964D01*
Y334397D02*
Y336667D01*
Y423345D02*
Y421074D01*
Y427507D02*
Y429778D01*
X246613Y169745D02*
X244343D01*
X246613Y262856D02*
X244343D01*
X246613Y355966D02*
X244343D01*
X246613Y449076D02*
X244343D01*
X248694Y105852D02*
Y103582D01*
Y144014D02*
Y141744D01*
Y148176D02*
Y150447D01*
Y167664D02*
Y165394D01*
Y171826D02*
Y174097D01*
Y198963D02*
Y196692D01*
Y237124D02*
Y234854D01*
Y241287D02*
Y243557D01*
Y260774D02*
Y258504D01*
Y264937D02*
Y267207D01*
Y292073D02*
Y289802D01*
Y330235D02*
Y327964D01*
Y334397D02*
Y336667D01*
Y353885D02*
Y351614D01*
Y358047D02*
Y360317D01*
Y385183D02*
Y382913D01*
Y423345D02*
Y421074D01*
Y427507D02*
Y429778D01*
Y446995D02*
Y444724D01*
Y451157D02*
Y453428D01*
X250776Y146095D02*
X253046D01*
X250776Y169745D02*
X253046D01*
X250776Y239206D02*
X253046D01*
X250776Y262856D02*
X253046D01*
X250776Y332316D02*
X253046D01*
X250776Y355966D02*
X253046D01*
X250776Y425426D02*
X253046D01*
X250776Y449076D02*
X253046D01*
X253424Y105852D02*
Y103582D01*
Y198963D02*
Y196692D01*
Y292073D02*
Y289802D01*
Y385183D02*
Y382913D01*
X256073Y146095D02*
X253803D01*
X256073Y239206D02*
X253803D01*
X256073Y332316D02*
X253803D01*
X256073Y425426D02*
X253803D01*
X258154Y144014D02*
Y141744D01*
Y148176D02*
Y150447D01*
Y237124D02*
Y234854D01*
Y241287D02*
Y243557D01*
Y330235D02*
Y327964D01*
Y334397D02*
Y336667D01*
Y423345D02*
Y421074D01*
Y427507D02*
Y429778D01*
X260235Y146095D02*
X262506D01*
X260235Y239206D02*
X262506D01*
X260235Y332316D02*
X262506D01*
X260235Y425426D02*
X262506D01*
X262884Y105852D02*
Y103582D01*
Y198963D02*
Y196692D01*
Y292073D02*
Y289802D01*
Y385183D02*
Y382913D01*
X264114Y107082D02*
X266385D01*
X264114Y200193D02*
X266385D01*
X264114Y293303D02*
X266385D01*
X264114Y386413D02*
X266385D01*
X265533Y146095D02*
X263263D01*
X265533Y239206D02*
X263263D01*
X265533Y332316D02*
X263263D01*
X265533Y425426D02*
X263263D01*
X267614Y144014D02*
Y141744D01*
Y148176D02*
Y150447D01*
Y237124D02*
Y234854D01*
Y241287D02*
Y243557D01*
Y330235D02*
Y327964D01*
Y334397D02*
Y336667D01*
Y423345D02*
Y421074D01*
Y427507D02*
Y429778D01*
X277074Y144014D02*
Y141744D01*
Y148176D02*
Y150447D01*
Y237124D02*
Y234854D01*
Y241287D02*
Y243557D01*
Y330235D02*
Y327964D01*
Y334397D02*
Y336667D01*
Y423345D02*
Y421074D01*
Y427507D02*
Y429778D01*
X286534Y144014D02*
Y141744D01*
Y148176D02*
Y150447D01*
Y237124D02*
Y234854D01*
Y241287D02*
Y243557D01*
Y330235D02*
Y327964D01*
Y334397D02*
Y336667D01*
Y423345D02*
Y421074D01*
Y427507D02*
Y429778D01*
X288615Y146095D02*
X290886D01*
X288615Y239206D02*
X290886D01*
X288615Y332316D02*
X290886D01*
X288615Y425426D02*
X290886D01*
X293913Y146095D02*
X291643D01*
X293913Y239206D02*
X291643D01*
X293913Y332316D02*
X291643D01*
X293913Y425426D02*
X291643D01*
X295994Y144014D02*
Y141744D01*
Y148176D02*
Y150447D01*
Y237124D02*
Y234854D01*
Y241287D02*
Y243557D01*
Y330235D02*
Y327964D01*
Y334397D02*
Y336667D01*
Y423345D02*
Y421074D01*
Y427507D02*
Y429778D01*
X298076Y146095D02*
X300346D01*
X298076Y239206D02*
X300346D01*
X298076Y332316D02*
X300346D01*
X298076Y425426D02*
X300346D01*
X341139Y146095D02*
X338868D01*
X341139Y239206D02*
X338868D01*
X341139Y332316D02*
X338868D01*
X341139Y425426D02*
X338868D01*
X343220Y144014D02*
Y141744D01*
Y148176D02*
Y150447D01*
Y237124D02*
Y234854D01*
Y241287D02*
Y243557D01*
Y330235D02*
Y327964D01*
Y334397D02*
Y336667D01*
Y423345D02*
Y421074D01*
Y427507D02*
Y429778D01*
X345301Y146095D02*
X347571D01*
X345301Y239206D02*
X347571D01*
X345301Y332316D02*
X347571D01*
X345301Y425426D02*
X347571D01*
X350598Y146095D02*
X348328D01*
X350598Y239206D02*
X348328D01*
X350598Y332316D02*
X348328D01*
X350598Y425426D02*
X348328D01*
X352680Y144014D02*
Y141744D01*
Y148176D02*
Y150447D01*
Y237124D02*
Y234854D01*
Y241287D02*
Y243557D01*
Y330235D02*
Y327964D01*
Y334397D02*
Y336667D01*
Y423345D02*
Y421074D01*
Y427507D02*
Y429778D01*
X362140Y144014D02*
Y141744D01*
Y148176D02*
Y150447D01*
Y237124D02*
Y234854D01*
Y241287D02*
Y243557D01*
Y330235D02*
Y327964D01*
Y334397D02*
Y336667D01*
Y423345D02*
Y421074D01*
Y427507D02*
Y429778D01*
X369519Y169745D02*
X367248D01*
X369519Y262856D02*
X367248D01*
X369519Y355966D02*
X367248D01*
X369519Y449076D02*
X367248D01*
X371600Y105852D02*
Y103582D01*
Y144014D02*
Y141744D01*
Y148176D02*
Y150447D01*
Y167664D02*
Y165394D01*
Y171826D02*
Y174097D01*
Y198963D02*
Y196692D01*
Y237124D02*
Y234854D01*
Y241287D02*
Y243557D01*
Y260774D02*
Y258504D01*
Y264937D02*
Y267207D01*
Y292073D02*
Y289802D01*
Y330235D02*
Y327964D01*
Y334397D02*
Y336667D01*
Y353885D02*
Y351614D01*
Y358047D02*
Y360317D01*
Y385183D02*
Y382913D01*
Y423345D02*
Y421074D01*
Y427507D02*
Y429778D01*
Y446995D02*
Y444724D01*
Y451157D02*
Y453428D01*
X373681Y146095D02*
X375951D01*
X373681Y169745D02*
X375951D01*
X373681Y239206D02*
X375951D01*
X373681Y262856D02*
X375951D01*
X373681Y332316D02*
X375951D01*
X373681Y355966D02*
X375951D01*
X373681Y425426D02*
X375951D01*
X373681Y449076D02*
X375951D01*
X376330Y105852D02*
Y103582D01*
Y198963D02*
Y196692D01*
Y292073D02*
Y289802D01*
Y385183D02*
Y382913D01*
X378979Y146095D02*
X376708D01*
X378979Y239206D02*
X376708D01*
X378979Y332316D02*
X376708D01*
X378979Y425426D02*
X376708D01*
X381060Y144014D02*
Y141744D01*
Y148176D02*
Y150447D01*
Y237124D02*
Y234854D01*
Y241287D02*
Y243557D01*
Y330235D02*
Y327964D01*
Y334397D02*
Y336667D01*
Y423345D02*
Y421074D01*
Y427507D02*
Y429778D01*
X383141Y146095D02*
X385411D01*
X383141Y239206D02*
X385411D01*
X383141Y332316D02*
X385411D01*
X383141Y425426D02*
X385411D01*
X385790Y105852D02*
Y103582D01*
Y198963D02*
Y196692D01*
Y292073D02*
Y289802D01*
Y385183D02*
Y382913D01*
X387020Y107082D02*
X389290D01*
X387020Y200193D02*
X389290D01*
X387020Y293303D02*
X389290D01*
X387020Y386413D02*
X389290D01*
X388439Y146095D02*
X386168D01*
X388439Y239206D02*
X386168D01*
X388439Y332316D02*
X386168D01*
X388439Y425426D02*
X386168D01*
X390520Y144014D02*
Y141744D01*
Y148176D02*
Y150447D01*
Y237124D02*
Y234854D01*
Y241287D02*
Y243557D01*
Y330235D02*
Y327964D01*
Y334397D02*
Y336667D01*
Y423345D02*
Y421074D01*
Y427507D02*
Y429778D01*
X399980Y144014D02*
Y141744D01*
Y148176D02*
Y150447D01*
Y237124D02*
Y234854D01*
Y241287D02*
Y243557D01*
Y330235D02*
Y327964D01*
Y334397D02*
Y336667D01*
Y423345D02*
Y421074D01*
Y427507D02*
Y429778D01*
X409440Y144014D02*
Y141744D01*
Y148176D02*
Y150447D01*
Y237124D02*
Y234854D01*
Y241287D02*
Y243557D01*
Y330235D02*
Y327964D01*
Y334397D02*
Y336667D01*
Y423345D02*
Y421074D01*
Y427507D02*
Y429778D01*
X411521Y146095D02*
X413791D01*
X411521Y239206D02*
X413791D01*
X411521Y332316D02*
X413791D01*
X411521Y425426D02*
X413791D01*
X416819Y146095D02*
X414548D01*
X416819Y239206D02*
X414548D01*
X416819Y332316D02*
X414548D01*
X416819Y425426D02*
X414548D01*
X418900Y144014D02*
Y141744D01*
Y148176D02*
Y150447D01*
Y237124D02*
Y234854D01*
Y241287D02*
Y243557D01*
Y330235D02*
Y327964D01*
Y334397D02*
Y336667D01*
Y423345D02*
Y421074D01*
Y427507D02*
Y429778D01*
X420981Y146095D02*
X423251D01*
X420981Y239206D02*
X423251D01*
X420981Y332316D02*
X423251D01*
X420981Y425426D02*
X423251D01*
D02*
D24*
X87949Y136635D03*
Y146095D03*
Y229746D03*
Y239206D03*
Y322856D03*
Y332316D03*
Y415966D03*
Y425426D03*
X97409Y136635D03*
Y146095D03*
Y229746D03*
Y239206D03*
Y322856D03*
Y332316D03*
Y415966D03*
Y425426D03*
X106869Y136635D03*
Y146095D03*
Y169745D03*
Y229746D03*
Y239206D03*
Y262856D03*
Y322856D03*
Y332316D03*
Y355966D03*
Y415966D03*
Y425426D03*
Y449076D03*
X116329Y136635D03*
Y146095D03*
Y169745D03*
Y229746D03*
Y239206D03*
Y262856D03*
Y322856D03*
Y332316D03*
Y355966D03*
Y415966D03*
Y425426D03*
Y449076D03*
X125789Y136635D03*
Y146095D03*
Y169745D03*
Y229746D03*
Y239206D03*
Y262856D03*
Y322856D03*
Y332316D03*
Y355966D03*
Y415966D03*
Y425426D03*
Y449076D03*
X135249Y136635D03*
Y146095D03*
Y169745D03*
Y229746D03*
Y239206D03*
Y262856D03*
Y322856D03*
Y332316D03*
Y355966D03*
Y415966D03*
Y425426D03*
Y449076D03*
X144709Y136635D03*
Y146095D03*
Y169745D03*
Y229746D03*
Y239206D03*
Y262856D03*
Y322856D03*
Y332316D03*
Y355966D03*
Y415966D03*
Y425426D03*
Y449076D03*
X154169Y136635D03*
Y146095D03*
Y169745D03*
Y229746D03*
Y239206D03*
Y262856D03*
Y322856D03*
Y332316D03*
Y355966D03*
Y415966D03*
Y425426D03*
Y449076D03*
X163629Y136635D03*
Y146095D03*
Y229746D03*
Y239206D03*
Y322856D03*
Y332316D03*
Y415966D03*
Y425426D03*
X173089Y136635D03*
Y146095D03*
Y229746D03*
Y239206D03*
Y322856D03*
Y332316D03*
Y415966D03*
Y425426D03*
X210854Y136635D03*
Y146095D03*
Y229746D03*
Y239206D03*
Y322856D03*
Y332316D03*
Y415966D03*
Y425426D03*
X220314Y136635D03*
Y146095D03*
Y229746D03*
Y239206D03*
Y322856D03*
Y332316D03*
Y415966D03*
Y425426D03*
X229774Y136635D03*
Y146095D03*
Y169745D03*
Y229746D03*
Y239206D03*
Y262856D03*
Y322856D03*
Y332316D03*
Y355966D03*
Y415966D03*
Y425426D03*
Y449076D03*
X239234Y136635D03*
Y146095D03*
Y169745D03*
Y229746D03*
Y239206D03*
Y262856D03*
Y322856D03*
Y332316D03*
Y355966D03*
Y415966D03*
Y425426D03*
Y449076D03*
X248694Y136635D03*
Y146095D03*
Y169745D03*
Y229746D03*
Y239206D03*
Y262856D03*
Y322856D03*
Y332316D03*
Y355966D03*
Y415966D03*
Y425426D03*
Y449076D03*
X258154Y136635D03*
Y146095D03*
Y169745D03*
Y229746D03*
Y239206D03*
Y262856D03*
Y322856D03*
Y332316D03*
Y355966D03*
Y415966D03*
Y425426D03*
Y449076D03*
X267614Y136635D03*
Y146095D03*
Y169745D03*
Y229746D03*
Y239206D03*
Y262856D03*
Y322856D03*
Y332316D03*
Y355966D03*
Y415966D03*
Y425426D03*
Y449076D03*
X277074Y136635D03*
Y146095D03*
Y169745D03*
Y229746D03*
Y239206D03*
Y262856D03*
Y322856D03*
Y332316D03*
Y355966D03*
Y415966D03*
Y425426D03*
Y449076D03*
X286534Y136635D03*
Y146095D03*
Y229746D03*
Y239206D03*
Y322856D03*
Y332316D03*
Y415966D03*
Y425426D03*
X295994Y136635D03*
Y146095D03*
Y229746D03*
Y239206D03*
Y322856D03*
Y332316D03*
Y415966D03*
Y425426D03*
X333760Y136635D03*
Y146095D03*
Y229746D03*
Y239206D03*
Y322856D03*
Y332316D03*
Y415966D03*
Y425426D03*
X343220Y136635D03*
Y146095D03*
Y229746D03*
Y239206D03*
Y322856D03*
Y332316D03*
Y415966D03*
Y425426D03*
X352680Y136635D03*
Y146095D03*
Y169745D03*
Y229746D03*
Y239206D03*
Y262856D03*
Y322856D03*
Y332316D03*
Y355966D03*
Y415966D03*
Y425426D03*
Y449076D03*
X362140Y136635D03*
Y146095D03*
Y169745D03*
Y229746D03*
Y239206D03*
Y262856D03*
Y322856D03*
Y332316D03*
Y355966D03*
Y415966D03*
Y425426D03*
Y449076D03*
X371600Y136635D03*
Y146095D03*
Y169745D03*
Y229746D03*
Y239206D03*
Y262856D03*
Y322856D03*
Y332316D03*
Y355966D03*
Y415966D03*
Y425426D03*
Y449076D03*
X381060Y136635D03*
Y146095D03*
Y169745D03*
Y229746D03*
Y239206D03*
Y262856D03*
Y322856D03*
Y332316D03*
Y355966D03*
Y415966D03*
Y425426D03*
Y449076D03*
X390520Y136635D03*
Y146095D03*
Y169745D03*
Y229746D03*
Y239206D03*
Y262856D03*
Y322856D03*
Y332316D03*
Y355966D03*
Y415966D03*
Y425426D03*
Y449076D03*
X399980Y136635D03*
Y146095D03*
Y169745D03*
Y229746D03*
Y239206D03*
Y262856D03*
Y322856D03*
Y332316D03*
Y355966D03*
Y415966D03*
Y425426D03*
Y449076D03*
X409440Y136635D03*
Y146095D03*
Y229746D03*
Y239206D03*
Y322856D03*
Y332316D03*
Y415966D03*
Y425426D03*
X418900Y136635D03*
Y146095D03*
Y229746D03*
Y239206D03*
Y322856D03*
Y332316D03*
Y415966D03*
Y425426D03*
D02*
D25*
X121059Y107082D03*
Y111812D03*
Y200193D03*
Y204922D03*
Y293303D03*
Y298033D03*
Y386413D03*
Y391143D03*
X125789Y107082D03*
Y111812D03*
Y200193D03*
Y204922D03*
Y293303D03*
Y298033D03*
Y386413D03*
Y391143D03*
X130519Y107082D03*
Y111812D03*
Y200193D03*
Y204922D03*
Y293303D03*
Y298033D03*
Y386413D03*
Y391143D03*
X135249Y107082D03*
Y111812D03*
Y200193D03*
Y204922D03*
Y293303D03*
Y298033D03*
Y386413D03*
Y391143D03*
X139979Y107082D03*
Y111812D03*
Y200193D03*
Y204922D03*
Y293303D03*
Y298033D03*
Y386413D03*
Y391143D03*
X243964Y107082D03*
Y111812D03*
Y200193D03*
Y204922D03*
Y293303D03*
Y298033D03*
Y386413D03*
Y391143D03*
X248694Y107082D03*
Y111812D03*
Y200193D03*
Y204922D03*
Y293303D03*
Y298033D03*
Y386413D03*
Y391143D03*
X253424Y107082D03*
Y111812D03*
Y200193D03*
Y204922D03*
Y293303D03*
Y298033D03*
Y386413D03*
Y391143D03*
X258154Y107082D03*
Y111812D03*
Y200193D03*
Y204922D03*
Y293303D03*
Y298033D03*
Y386413D03*
Y391143D03*
X262884Y107082D03*
Y111812D03*
Y200193D03*
Y204922D03*
Y293303D03*
Y298033D03*
Y386413D03*
Y391143D03*
X366870Y107082D03*
Y111812D03*
Y200193D03*
Y204922D03*
Y293303D03*
Y298033D03*
Y386413D03*
Y391143D03*
X371600Y107082D03*
Y111812D03*
Y200193D03*
Y204922D03*
Y293303D03*
Y298033D03*
Y386413D03*
Y391143D03*
X376330Y107082D03*
Y111812D03*
Y200193D03*
Y204922D03*
Y293303D03*
Y298033D03*
Y386413D03*
Y391143D03*
X381060Y107082D03*
Y111812D03*
Y200193D03*
Y204922D03*
Y293303D03*
Y298033D03*
Y386413D03*
Y391143D03*
X385790Y107082D03*
Y111812D03*
Y200193D03*
Y204922D03*
Y293303D03*
Y298033D03*
Y386413D03*
Y391143D03*
D02*
D26*
X76478Y102706D03*
Y121328D03*
Y143674D03*
Y162296D03*
Y180919D03*
Y195816D03*
Y214438D03*
Y236785D03*
Y255407D03*
Y274029D03*
Y288926D03*
Y307548D03*
Y329895D03*
Y348517D03*
Y367139D03*
Y382037D03*
Y400659D03*
Y423005D03*
Y441627D03*
Y460249D03*
X94746Y121328D03*
Y214438D03*
Y307548D03*
Y400659D03*
X95100Y102706D03*
Y162296D03*
Y180919D03*
Y195816D03*
Y255407D03*
Y274029D03*
Y288926D03*
Y348517D03*
Y367139D03*
Y382037D03*
Y441627D03*
Y460249D03*
X106571Y161468D03*
Y254578D03*
Y347688D03*
Y440798D03*
X111301Y112985D03*
Y206096D03*
Y299206D03*
Y392316D03*
X116031Y161468D03*
Y254578D03*
Y347688D03*
Y440798D03*
X125491Y161468D03*
Y254578D03*
Y347688D03*
Y440798D03*
X130221Y122445D03*
Y215556D03*
Y308666D03*
Y401776D03*
X139681Y180919D03*
Y274029D03*
Y367139D03*
Y460249D03*
X144709Y118898D03*
Y212008D03*
Y305118D03*
Y398228D03*
X146776Y161468D03*
Y254578D03*
Y347688D03*
Y440798D03*
X147241Y102706D03*
Y195816D03*
Y288926D03*
Y382037D03*
X158601Y161468D03*
Y254578D03*
Y347688D03*
Y440798D03*
X164781Y102706D03*
Y195816D03*
Y288926D03*
Y382037D03*
X165863Y180919D03*
Y274029D03*
Y367139D03*
Y460249D03*
X184485Y102278D03*
Y143674D03*
Y162296D03*
Y180919D03*
Y195388D03*
Y236785D03*
Y255407D03*
Y274029D03*
Y288498D03*
Y329895D03*
Y348517D03*
Y367139D03*
Y381608D03*
Y423005D03*
Y441627D03*
Y460249D03*
X199383Y102706D03*
Y121328D03*
Y143674D03*
Y162296D03*
Y180919D03*
Y195816D03*
Y214438D03*
Y236785D03*
Y255407D03*
Y274029D03*
Y288926D03*
Y307548D03*
Y329895D03*
Y348517D03*
Y367139D03*
Y382037D03*
Y400659D03*
Y423005D03*
Y441627D03*
Y460249D03*
X217651Y121328D03*
Y214438D03*
Y307548D03*
Y400659D03*
X218005Y102706D03*
Y162296D03*
Y180919D03*
Y195816D03*
Y255407D03*
Y274029D03*
Y288926D03*
Y348517D03*
Y367139D03*
Y382037D03*
Y441627D03*
Y460249D03*
X229476Y161468D03*
Y254578D03*
Y347688D03*
Y440798D03*
X234206Y112985D03*
Y206096D03*
Y299206D03*
Y392316D03*
X238936Y161468D03*
Y254578D03*
Y347688D03*
Y440798D03*
X248396Y161468D03*
Y254578D03*
Y347688D03*
Y440798D03*
X253126Y122445D03*
Y215556D03*
Y308666D03*
Y401776D03*
X262586Y180919D03*
Y274029D03*
Y367139D03*
Y460249D03*
X267614Y118898D03*
Y212008D03*
Y305118D03*
Y398228D03*
X269681Y161468D03*
Y254578D03*
Y347688D03*
Y440798D03*
X270147Y102706D03*
Y195816D03*
Y288926D03*
Y382037D03*
X281506Y161468D03*
Y254578D03*
Y347688D03*
Y440798D03*
X307391Y102706D03*
Y143674D03*
Y162296D03*
Y180919D03*
Y195816D03*
Y236785D03*
Y255407D03*
Y274029D03*
Y288926D03*
Y329895D03*
Y348517D03*
Y367139D03*
Y382037D03*
Y423005D03*
Y441627D03*
Y460249D03*
X322289Y102706D03*
Y121328D03*
Y143674D03*
Y162296D03*
Y180919D03*
Y195816D03*
Y214438D03*
Y236785D03*
Y255407D03*
Y274029D03*
Y288926D03*
Y307548D03*
Y329895D03*
Y348517D03*
Y367139D03*
Y382037D03*
Y400659D03*
Y423005D03*
Y441627D03*
Y460249D03*
X340557Y121328D03*
Y214438D03*
Y307548D03*
Y400659D03*
X340911Y102706D03*
Y162296D03*
Y180919D03*
Y195816D03*
Y255407D03*
Y274029D03*
Y288926D03*
Y348517D03*
Y367139D03*
Y382037D03*
Y441627D03*
Y460249D03*
X352382Y161468D03*
Y254578D03*
Y347688D03*
Y440798D03*
X357112Y112985D03*
Y206096D03*
Y299206D03*
Y392316D03*
X361842Y161468D03*
Y254578D03*
Y347688D03*
Y440798D03*
X371302Y161468D03*
Y254578D03*
Y347688D03*
Y440798D03*
X376032Y122445D03*
Y215556D03*
Y308666D03*
Y401776D03*
X385492Y180919D03*
Y274029D03*
Y367139D03*
Y460249D03*
X390520Y118898D03*
Y212008D03*
Y305118D03*
Y398228D03*
X392587Y161468D03*
Y254578D03*
Y347688D03*
Y440798D03*
X393052Y102706D03*
Y195816D03*
Y288926D03*
Y382037D03*
X404412Y161468D03*
Y254578D03*
Y347688D03*
Y440798D03*
X430296Y102706D03*
Y143674D03*
Y162296D03*
Y180919D03*
Y195816D03*
Y236785D03*
Y255407D03*
Y274029D03*
Y288926D03*
Y329895D03*
Y348517D03*
Y367139D03*
Y382037D03*
Y423005D03*
Y441627D03*
Y460249D03*
D02*
D27*
X87949Y136635D02*
Y112687D01*
X93554Y107082*
X121059*
X87949Y146095D02*
Y136635D01*
Y229746D02*
Y205798D01*
X93554Y200193*
X121059*
X87949Y239206D02*
Y229746D01*
Y322856D02*
Y298908D01*
X93554Y293303*
X121059*
X87949Y332316D02*
Y322856D01*
Y415966D02*
Y392018D01*
X93554Y386413*
X121059*
X87949Y425426D02*
Y415966D01*
X106869Y169745D02*
X92381D01*
X87949Y165313*
Y146095*
X106869Y262856D02*
X92381D01*
X87949Y258424*
Y239206*
X106869Y355966D02*
X92381D01*
X87949Y351534*
Y332316*
X106869Y449076D02*
X92381D01*
X87949Y444644*
Y425426*
X116329Y136635D02*
Y136933D01*
X111599Y141663*
Y175667*
X113964Y178032*
X132884*
X135249Y175667*
Y169745*
X116329Y136635D02*
Y116542D01*
X121059Y111812*
X116329Y169745D02*
X116627D01*
X121059Y165313*
Y141663*
X125789Y136933*
Y136635*
X116329Y229746D02*
Y230044D01*
X111599Y234774*
Y268778*
X113964Y271143*
X132884*
X135249Y268778*
Y262856*
X116329Y229746D02*
Y209652D01*
X121059Y204922*
X116329Y262856D02*
X116627D01*
X121059Y258424*
Y234774*
X125789Y230044*
Y229746*
X116329Y322856D02*
Y323154D01*
X111599Y327884*
Y361888*
X113964Y364253*
X132884*
X135249Y361888*
Y355966*
X116329Y322856D02*
Y302763D01*
X121059Y298033*
X116329Y355966D02*
X116627D01*
X121059Y351534*
Y327884*
X125789Y323154*
Y322856*
X116329Y415966D02*
Y416264D01*
X111599Y420994*
Y454998*
X113964Y457363*
X132884*
X135249Y454998*
Y449076*
X116329Y415966D02*
Y395873D01*
X121059Y391143*
X116329Y449076D02*
X116627D01*
X121059Y444644*
Y420994*
X125789Y416264*
Y415966*
Y136635D02*
Y111812D01*
Y229746D02*
Y204922D01*
Y322856D02*
Y298033D01*
Y415966D02*
Y391143D01*
X130519Y111812D02*
Y116533D01*
X132884Y118898*
X138498*
X144709Y125108*
Y136635*
X130519Y204922D02*
Y209643D01*
X132884Y212008*
X138498*
X144709Y218219*
Y229746*
X130519Y298033D02*
Y302753D01*
X132884Y305118*
X138498*
X144709Y311329*
Y322856*
X130519Y391143D02*
Y395863D01*
X132884Y398228*
X138498*
X144709Y404439*
Y415966*
X139979Y111812D02*
X147968D01*
X154169Y118013*
Y136635*
X139979Y204922D02*
X147968D01*
X154169Y211124*
Y229746*
X139979Y298033D02*
X147968D01*
X154169Y304234*
Y322856*
X139979Y391143D02*
X147968D01*
X154169Y397344*
Y415966*
X144709Y136635D02*
X145007D01*
X149439Y141067*
Y154382*
X154169Y159112*
Y169745*
X144709D02*
Y175667D01*
X147074Y178032*
X161264*
X163629Y175667*
Y156738*
X158899Y152008*
Y141365*
X154169Y136635*
X144709Y229746D02*
X145007D01*
X149439Y234178*
Y247493*
X154169Y252222*
Y262856*
X144709D02*
Y268778D01*
X147074Y271143*
X161264*
X163629Y268778*
Y249848*
X158899Y245118*
Y234476*
X154169Y229746*
X144709Y322856D02*
X145007D01*
X149439Y327288*
Y340603*
X154169Y345333*
Y355966*
X144709D02*
Y361888D01*
X147074Y364253*
X161264*
X163629Y361888*
Y342958*
X158899Y338228*
Y327586*
X154169Y322856*
X144709Y415966D02*
X145007D01*
X149439Y420398*
Y433713*
X154169Y438443*
Y449076*
X144709D02*
Y454998D01*
X147074Y457363*
X161264*
X163629Y454998*
Y436069*
X158899Y431339*
Y420696*
X154169Y415966*
X210854Y136635D02*
Y112687D01*
X216459Y107082*
X243964*
X210854Y146095D02*
Y136635D01*
Y229746D02*
Y205798D01*
X216459Y200193*
X243964*
X210854Y239206D02*
Y229746D01*
Y322856D02*
Y298908D01*
X216459Y293303*
X243964*
X210854Y332316D02*
Y322856D01*
Y415966D02*
Y392018D01*
X216459Y386413*
X243964*
X210854Y425426D02*
Y415966D01*
X229774Y169745D02*
X215286D01*
X210854Y165313*
Y146095*
X229774Y262856D02*
X215286D01*
X210854Y258424*
Y239206*
X229774Y355966D02*
X215286D01*
X210854Y351534*
Y332316*
X229774Y449076D02*
X215286D01*
X210854Y444644*
Y425426*
X239234Y136635D02*
Y136933D01*
X234504Y141663*
Y175667*
X236869Y178032*
X255789*
X258154Y175667*
Y169745*
X239234Y136635D02*
Y116542D01*
X243964Y111812*
X239234Y169745D02*
X239532D01*
X243964Y165313*
Y141663*
X248694Y136933*
Y136635*
X239234Y229746D02*
Y230044D01*
X234504Y234774*
Y268778*
X236869Y271143*
X255789*
X258154Y268778*
Y262856*
X239234Y229746D02*
Y209652D01*
X243964Y204922*
X239234Y262856D02*
X239532D01*
X243964Y258424*
Y234774*
X248694Y230044*
Y229746*
X239234Y322856D02*
Y323154D01*
X234504Y327884*
Y361888*
X236869Y364253*
X255789*
X258154Y361888*
Y355966*
X239234Y322856D02*
Y302763D01*
X243964Y298033*
X239234Y355966D02*
X239532D01*
X243964Y351534*
Y327884*
X248694Y323154*
Y322856*
X239234Y415966D02*
Y416264D01*
X234504Y420994*
Y454998*
X236869Y457363*
X255789*
X258154Y454998*
Y449076*
X239234Y415966D02*
Y395873D01*
X243964Y391143*
X239234Y449076D02*
X239532D01*
X243964Y444644*
Y420994*
X248694Y416264*
Y415966*
Y136635D02*
Y111812D01*
Y229746D02*
Y204922D01*
Y322856D02*
Y298033D01*
Y415966D02*
Y391143D01*
X253424Y111812D02*
Y116533D01*
X255789Y118898*
X261404*
X267614Y125108*
Y136635*
X253424Y204922D02*
Y209643D01*
X255789Y212008*
X261404*
X267614Y218219*
Y229746*
X253424Y298033D02*
Y302753D01*
X255789Y305118*
X261404*
X267614Y311329*
Y322856*
X253424Y391143D02*
Y395863D01*
X255789Y398228*
X261404*
X267614Y404439*
Y415966*
X262884Y111812D02*
X270873D01*
X277074Y118013*
Y136635*
X262884Y204922D02*
X270873D01*
X277074Y211124*
Y229746*
X262884Y298033D02*
X270873D01*
X277074Y304234*
Y322856*
X262884Y391143D02*
X270873D01*
X277074Y397344*
Y415966*
X267614Y136635D02*
X267912D01*
X272344Y141067*
Y154382*
X277074Y159112*
Y169745*
X267614D02*
Y175667D01*
X269979Y178032*
X284169*
X286534Y175667*
Y156738*
X281804Y152008*
Y141365*
X277074Y136635*
X267614Y229746D02*
X267912D01*
X272344Y234178*
Y247493*
X277074Y252222*
Y262856*
X267614D02*
Y268778D01*
X269979Y271143*
X284169*
X286534Y268778*
Y249848*
X281804Y245118*
Y234476*
X277074Y229746*
X267614Y322856D02*
X267912D01*
X272344Y327288*
Y340603*
X277074Y345333*
Y355966*
X267614D02*
Y361888D01*
X269979Y364253*
X284169*
X286534Y361888*
Y342958*
X281804Y338228*
Y327586*
X277074Y322856*
X267614Y415966D02*
X267912D01*
X272344Y420398*
Y433713*
X277074Y438443*
Y449076*
X267614D02*
Y454998D01*
X269979Y457363*
X284169*
X286534Y454998*
Y436069*
X281804Y431339*
Y420696*
X277074Y415966*
X333760Y136635D02*
Y112687D01*
X339365Y107082*
X366870*
X333760Y146095D02*
Y136635D01*
Y229746D02*
Y205798D01*
X339365Y200193*
X366870*
X333760Y239206D02*
Y229746D01*
Y322856D02*
Y298908D01*
X339365Y293303*
X366870*
X333760Y332316D02*
Y322856D01*
Y415966D02*
Y392018D01*
X339365Y386413*
X366870*
X333760Y425426D02*
Y415966D01*
X352680Y169745D02*
X338192D01*
X333760Y165313*
Y146095*
X352680Y262856D02*
X338192D01*
X333760Y258424*
Y239206*
X352680Y355966D02*
X338192D01*
X333760Y351534*
Y332316*
X352680Y449076D02*
X338192D01*
X333760Y444644*
Y425426*
X362140Y136635D02*
Y136933D01*
X357410Y141663*
Y175667*
X359775Y178032*
X378695*
X381060Y175667*
Y169745*
X362140Y136635D02*
Y116542D01*
X366870Y111812*
X362140Y169745D02*
X362438D01*
X366870Y165313*
Y141663*
X371600Y136933*
Y136635*
X362140Y229746D02*
Y230044D01*
X357410Y234774*
Y268778*
X359775Y271143*
X378695*
X381060Y268778*
Y262856*
X362140Y229746D02*
Y209652D01*
X366870Y204922*
X362140Y262856D02*
X362438D01*
X366870Y258424*
Y234774*
X371600Y230044*
Y229746*
X362140Y322856D02*
Y323154D01*
X357410Y327884*
Y361888*
X359775Y364253*
X378695*
X381060Y361888*
Y355966*
X362140Y322856D02*
Y302763D01*
X366870Y298033*
X362140Y355966D02*
X362438D01*
X366870Y351534*
Y327884*
X371600Y323154*
Y322856*
X362140Y415966D02*
Y416264D01*
X357410Y420994*
Y454998*
X359775Y457363*
X378695*
X381060Y454998*
Y449076*
X362140Y415966D02*
Y395873D01*
X366870Y391143*
X362140Y449076D02*
X362438D01*
X366870Y444644*
Y420994*
X371600Y416264*
Y415966*
Y136635D02*
Y111812D01*
Y229746D02*
Y204922D01*
Y322856D02*
Y298033D01*
Y415966D02*
Y391143D01*
X376330Y111812D02*
Y116533D01*
X378695Y118898*
X384309*
X390520Y125108*
Y136635*
X376330Y204922D02*
Y209643D01*
X378695Y212008*
X384309*
X390520Y218219*
Y229746*
X376330Y298033D02*
Y302753D01*
X378695Y305118*
X384309*
X390520Y311329*
Y322856*
X376330Y391143D02*
Y395863D01*
X378695Y398228*
X384309*
X390520Y404439*
Y415966*
X385790Y111812D02*
X393779D01*
X399980Y118013*
Y136635*
X385790Y204922D02*
X393779D01*
X399980Y211124*
Y229746*
X385790Y298033D02*
X393779D01*
X399980Y304234*
Y322856*
X385790Y391143D02*
X393779D01*
X399980Y397344*
Y415966*
X390520Y136635D02*
X390818D01*
X395250Y141067*
Y154382*
X399980Y159112*
Y169745*
X390520D02*
Y175667D01*
X392885Y178032*
X407075*
X409440Y175667*
Y156738*
X404710Y152008*
Y141365*
X399980Y136635*
X390520Y229746D02*
X390818D01*
X395250Y234178*
Y247493*
X399980Y252222*
Y262856*
X390520D02*
Y268778D01*
X392885Y271143*
X407075*
X409440Y268778*
Y249848*
X404710Y245118*
Y234476*
X399980Y229746*
X390520Y322856D02*
X390818D01*
X395250Y327288*
Y340603*
X399980Y345333*
Y355966*
X390520D02*
Y361888D01*
X392885Y364253*
X407075*
X409440Y361888*
Y342958*
X404710Y338228*
Y327586*
X399980Y322856*
X390520Y415966D02*
X390818D01*
X395250Y420398*
Y433713*
X399980Y438443*
Y449076*
X390520D02*
Y454998D01*
X392885Y457363*
X407075*
X409440Y454998*
Y436069*
X404710Y431339*
Y420696*
X399980Y415966*
X0Y0D02*
M02*
