G04 EasyPC Gerber Version 21.0.3 Build 4286 *
%FSLAX35Y35*%
%MOIN*%
%ADD19C,0.00001*%
%ADD21C,0.00757*%
X0Y0D02*
D02*
D19*
X69029Y95257D02*
X437745D01*
Y467698*
X69029*
Y95257*
D02*
D21*
X191934Y84084D02*
Y504942D01*
X195659Y504244D02*
X199150Y495864D01*
X202642Y504244*
X206832Y498657D02*
X212419D01*
X224989Y497261D02*
X224290Y496562D01*
X222893Y495864*
X220798*
X219402Y496562*
X218704Y497261*
X218005Y498657*
Y501450*
X218704Y502847*
X219402Y503546*
X220798Y504244*
X222893*
X224290Y503546*
X224989Y502847*
X229178Y501450D02*
Y497959D01*
X229877Y496562*
X231273Y495864*
X232670*
X234067Y496562*
X234765Y497959*
Y501450D02*
Y495864D01*
X241748Y501450D02*
X244542D01*
X243145Y502847D02*
Y496562D01*
X243843Y495864*
X244542*
X245240Y496562*
X266190Y495864D02*
X265491D01*
Y504244*
X276665Y495864D02*
Y501450D01*
Y503546D02*
X285044Y495864*
Y501450D01*
Y499356D02*
X285743Y500752D01*
X287139Y501450*
X288536*
X289933Y500752*
X290631Y499356*
Y495864*
X301804Y496562D02*
X301106Y495864D01*
X299709*
X298313*
X296916Y496562*
X296218Y497959*
Y500054*
X296916Y500752*
X298313Y501450*
X299709*
X301106Y500752*
X301804Y500054*
Y499356*
X301106Y498657*
X299709Y497959*
X298313*
X296916Y498657*
X296218Y499356*
X314840Y84084D02*
Y504942D01*
X318564Y504244D02*
X322056Y495864D01*
X325548Y504244*
X329737Y498657D02*
X335324D01*
X347894Y497261D02*
X347196Y496562D01*
X345799Y495864*
X343704*
X342307Y496562*
X341609Y497261*
X340911Y498657*
Y501450*
X341609Y502847*
X342307Y503546*
X343704Y504244*
X345799*
X347196Y503546*
X347894Y502847*
X352084Y501450D02*
Y497959D01*
X352782Y496562*
X354179Y495864*
X355576*
X356972Y496562*
X357670Y497959*
Y501450D02*
Y495864D01*
X364654Y501450D02*
X367447D01*
X366050Y502847D02*
Y496562D01*
X366749Y495864*
X367447*
X368145Y496562*
X389095Y495864D02*
X388397D01*
Y504244*
X399570Y495864D02*
Y501450D01*
Y503546D02*
X407950Y495864*
Y501450D01*
Y499356D02*
X408648Y500752D01*
X410045Y501450*
X411442*
X412838Y500752*
X413537Y499356*
Y495864*
X424710Y496562D02*
X424011Y495864D01*
X422615*
X421218*
X419822Y496562*
X419123Y497959*
Y500054*
X419822Y500752*
X421218Y501450*
X422615*
X424011Y500752*
X424710Y500054*
Y499356*
X424011Y498657*
X422615Y497959*
X421218*
X419822Y498657*
X419123Y499356*
X478714Y198842D02*
X482206Y190462D01*
X485697Y198842*
X489887Y193256D02*
X495474D01*
X508044Y191859D02*
X507345Y191161D01*
X505948Y190462*
X503854*
X502457Y191161*
X501759Y191859*
X501060Y193256*
Y196049*
X501759Y197446*
X502457Y198144*
X503854Y198842*
X505948*
X507345Y198144*
X508044Y197446*
X512233Y196049D02*
Y192557D01*
X512932Y191161*
X514328Y190462*
X515725*
X517122Y191161*
X517820Y192557*
Y196049D02*
Y190462D01*
X524804Y196049D02*
X527597D01*
X526200Y197446D02*
Y191161D01*
X526898Y190462*
X527597*
X528295Y191161*
X549245Y190462D02*
X548546D01*
Y198842*
X559720Y190462D02*
Y196049D01*
Y198144D02*
X568100Y190462*
Y196049D01*
Y193954D02*
X568798Y195351D01*
X570194Y196049*
X571591*
X572988Y195351*
X573686Y193954*
Y190462*
X584859Y191161D02*
X584161Y190462D01*
X582765*
X581368*
X579971Y191161*
X579273Y192557*
Y194652*
X579971Y195351*
X581368Y196049*
X582765*
X584161Y195351*
X584859Y194652*
Y193954*
X584161Y193256*
X582765Y192557*
X581368*
X579971Y193256*
X579273Y193954*
X478714Y291952D02*
X482206Y283572D01*
X485697Y291952*
X489887Y286366D02*
X495474D01*
X508044Y284969D02*
X507345Y284271D01*
X505948Y283572*
X503854*
X502457Y284271*
X501759Y284969*
X501060Y286366*
Y289159*
X501759Y290556*
X502457Y291254*
X503854Y291952*
X505948*
X507345Y291254*
X508044Y290556*
X512233Y289159D02*
Y285668D01*
X512932Y284271*
X514328Y283572*
X515725*
X517122Y284271*
X517820Y285668*
Y289159D02*
Y283572D01*
X524804Y289159D02*
X527597D01*
X526200Y290556D02*
Y284271D01*
X526898Y283572*
X527597*
X528295Y284271*
X549245Y283572D02*
X548546D01*
Y291952*
X559720Y283572D02*
Y289159D01*
Y291254D02*
X568100Y283572*
Y289159D01*
Y287064D02*
X568798Y288461D01*
X570194Y289159*
X571591*
X572988Y288461*
X573686Y287064*
Y283572*
X584859Y284271D02*
X584161Y283572D01*
X582765*
X581368*
X579971Y284271*
X579273Y285668*
Y287763*
X579971Y288461*
X581368Y289159*
X582765*
X584161Y288461*
X584859Y287763*
Y287064*
X584161Y286366*
X582765Y285668*
X581368*
X579971Y286366*
X579273Y287064*
X478714Y385063D02*
X482206Y376683D01*
X485697Y385063*
X489887Y379476D02*
X495474D01*
X508044Y378080D02*
X507345Y377381D01*
X505948Y376683*
X503854*
X502457Y377381*
X501759Y378080*
X501060Y379476*
Y382269*
X501759Y383666*
X502457Y384365*
X503854Y385063*
X505948*
X507345Y384365*
X508044Y383666*
X512233Y382269D02*
Y378778D01*
X512932Y377381*
X514328Y376683*
X515725*
X517122Y377381*
X517820Y378778*
Y382269D02*
Y376683D01*
X524804Y382269D02*
X527597D01*
X526200Y383666D02*
Y377381D01*
X526898Y376683*
X527597*
X528295Y377381*
X549245Y376683D02*
X548546D01*
Y385063*
X559720Y376683D02*
Y382269D01*
Y384365D02*
X568100Y376683*
Y382269D01*
Y380174D02*
X568798Y381571D01*
X570194Y382269*
X571591*
X572988Y381571*
X573686Y380174*
Y376683*
X584859Y377381D02*
X584161Y376683D01*
X582765*
X581368*
X579971Y377381*
X579273Y378778*
Y380873*
X579971Y381571*
X581368Y382269*
X582765*
X584161Y381571*
X584859Y380873*
Y380174*
X584161Y379476*
X582765Y378778*
X581368*
X579971Y379476*
X579273Y380174*
X586722Y188367D02*
X57856D01*
X586722Y281478D02*
X57856D01*
X586722Y374588D02*
X57856D01*
X0Y0D02*
M02*
