G04 EasyPC Gerber Version 21.0.3 Build 4286 *
%FSLAX35Y35*%
%MOIN*%
%ADD11C,0.00500*%
%ADD75C,0.00787*%
X0Y0D02*
D02*
D11*
X137463Y102750D02*
X133713D01*
Y100563*
X134025Y99937*
X134650Y99625*
X135275Y99937*
X135587Y100563*
Y102750*
Y100563D02*
X137463Y99625D01*
X137150Y97437D02*
X137463Y96813D01*
Y96187*
X137150Y95563*
X136525Y95250*
X135900Y95563*
X135587Y96187*
Y96813*
Y96187D02*
X135275Y95563D01*
X134650Y95250*
X134025Y95563*
X133713Y96187*
Y96813*
X134025Y97437*
X148837Y126625D02*
X149150Y126937D01*
X149463Y127563*
Y128500*
X149150Y129125*
X148837Y129437*
X148213Y129750*
X146963*
X146337Y129437*
X146025Y129125*
X145713Y128500*
Y127563*
X146025Y126937*
X146337Y126625*
X149463Y124125D02*
Y122875D01*
Y123500D02*
X145713D01*
X146337Y124125*
X151463Y67750D02*
X147713D01*
Y65563*
X148025Y64937*
X148650Y64625*
X149275Y64937*
X149587Y65563*
Y67750*
Y65563D02*
X151463Y64625D01*
Y62750D02*
X147713Y60250D01*
Y62750*
X173963Y99813D02*
Y98563D01*
Y99187D02*
X170213D01*
Y99813D02*
Y98563D01*
X173337Y92625D02*
X173650Y92937D01*
X173963Y93563*
Y94500*
X173650Y95125*
X173337Y95437*
X172713Y95750*
X171463*
X170837Y95437*
X170525Y95125*
X170213Y94500*
Y93563*
X170525Y92937*
X170837Y92625*
X173963Y90125D02*
Y88875D01*
Y89500D02*
X170213D01*
X170837Y90125*
X259837Y67625D02*
X260150Y67937D01*
X260463Y68563*
Y69500*
X260150Y70125*
X259837Y70437*
X259213Y70750*
X257963*
X257337Y70437*
X257025Y70125*
X256713Y69500*
Y68563*
X257025Y67937*
X257337Y67625*
X260150Y65437D02*
X260463Y64813D01*
Y64187*
X260150Y63563*
X259525Y63250*
X258900Y63563*
X258587Y64187*
Y64813*
Y64187D02*
X258275Y63563D01*
X257650Y63250*
X257025Y63563*
X256713Y64187*
Y64813*
X257025Y65437*
X286463Y83813D02*
Y82563D01*
Y83187D02*
X282713D01*
Y83813D02*
Y82563D01*
X285837Y76625D02*
X286150Y76937D01*
X286463Y77563*
Y78500*
X286150Y79125*
X285837Y79437*
X285213Y79750*
X283963*
X283337Y79437*
X283025Y79125*
X282713Y78500*
Y77563*
X283025Y76937*
X283337Y76625*
X286150Y74437D02*
X286463Y73813D01*
Y73187*
X286150Y72563*
X285525Y72250*
X284900Y72563*
X284587Y73187*
Y73813*
Y73187D02*
X284275Y72563D01*
X283650Y72250*
X283025Y72563*
X282713Y73187*
Y73813*
X283025Y74437*
X323837Y66625D02*
X324150Y66937D01*
X324463Y67563*
Y68500*
X324150Y69125*
X323837Y69437*
X323213Y69750*
X321963*
X321337Y69437*
X321025Y69125*
X320713Y68500*
Y67563*
X321025Y66937*
X321337Y66625*
X324463Y62250D02*
Y64750D01*
X322275Y62563*
X321650Y62250*
X321025Y62563*
X320713Y63187*
Y64125*
X321025Y64750*
D02*
D75*
X141219Y96750D02*
X143581D01*
X148243Y118333D02*
Y112427D01*
X148754Y111049D02*
Y98451D01*
X168046*
Y111049*
X148754*
X157400Y125569D02*
Y127931D01*
X159400Y63569D02*
Y65931D01*
X263581Y77750D02*
X261219D01*
X268494Y82278D02*
Y73222D01*
X280306*
Y82278*
X268494*
Y89167D02*
Y83656D01*
X324581Y77750D02*
X322219D01*
X328494Y82278D02*
Y73222D01*
X340306*
Y82278*
X328494*
Y89167D02*
Y83656D01*
X0Y0D02*
M02*
