G04 EasyPC Gerber Version 21.0.3 Build 4286 *
%FSLAX35Y35*%
%MOIN*%
%ADD79R,0.02362X0.04724*%
%ADD85R,0.03543X0.03740*%
%ADD83R,0.04134X0.07480*%
%ADD19C,0.00001*%
%ADD10C,0.00800*%
%ADD71C,0.01000*%
%ADD16C,0.01500*%
%ADD76C,0.03000*%
%ADD86C,0.03200*%
%ADD13C,0.06000*%
%ADD84C,0.17500*%
%ADD77C,0.23622*%
%ADD80R,0.08858X0.01969*%
%ADD78R,0.03740X0.03543*%
%ADD81R,0.13780X0.08071*%
%ADD82R,0.15748X0.08071*%
X0Y0D02*
D02*
D10*
X395400Y395627D02*
G75*
G02X370460Y400821I-11930J5194D01*
G01*
G75*
G02X378277Y412750I13011*
G01*
X22523*
G75*
G02X30340Y400821I-5194J-11930*
G01*
G75*
G02X5400Y395627I-13011*
G01*
Y39873*
G75*
G02X30340Y34679I11930J-5194*
G01*
G75*
G02X22523Y22750I-13011*
G01*
X378277*
G75*
G02X370460Y34679I5194J11930*
G01*
G75*
G02X395400Y39873I13011*
G01*
Y395627*
X50400Y219450D02*
G75*
G02X54600Y215250J-4200D01*
G01*
G75*
G02X50400Y211050I-4200*
G01*
G75*
G02X46200Y215250J4200*
G01*
G75*
G02X50400Y219450I4200*
G01*
Y229450D02*
G75*
G02X54600Y225250J-4200D01*
G01*
G75*
G02X50400Y221050I-4200*
G01*
G75*
G02X46200Y225250J4200*
G01*
G75*
G02X50400Y229450I4200*
G01*
Y239450D02*
G75*
G02X54600Y235250J-4200D01*
G01*
G75*
G02X50400Y231050I-4200*
G01*
G75*
G02X46200Y235250J4200*
G01*
G75*
G02X50400Y239450I4200*
G01*
Y249450D02*
G75*
G02X54600Y245250J-4200D01*
G01*
G75*
G02X50400Y241050I-4200*
G01*
G75*
G02X46200Y245250J4200*
G01*
G75*
G02X50400Y249450I4200*
G01*
Y259450D02*
G75*
G02X54600Y255250J-4200D01*
G01*
G75*
G02X50400Y251050I-4200*
G01*
G75*
G02X46200Y255250J4200*
G01*
G75*
G02X50400Y259450I4200*
G01*
Y269450D02*
G75*
G02X54600Y265250J-4200D01*
G01*
G75*
G02X50400Y261050I-4200*
G01*
G75*
G02X46200Y265250J4200*
G01*
G75*
G02X50400Y269450I4200*
G01*
Y279450D02*
G75*
G02X54600Y275250J-4200D01*
G01*
G75*
G02X50400Y271050I-4200*
G01*
G75*
G02X46200Y275250J4200*
G01*
G75*
G02X50400Y279450I4200*
G01*
Y289450D02*
G75*
G02X54600Y285250J-4200D01*
G01*
G75*
G02X50400Y281050I-4200*
G01*
G75*
G02X46200Y285250J4200*
G01*
G75*
G02X50400Y289450I4200*
G01*
Y299450D02*
G75*
G02X54600Y295250J-4200D01*
G01*
G75*
G02X50400Y291050I-4200*
G01*
G75*
G02X46200Y295250J4200*
G01*
G75*
G02X50400Y299450I4200*
G01*
Y309450D02*
G75*
G02X54600Y305250J-4200D01*
G01*
G75*
G02X50400Y301050I-4200*
G01*
G75*
G02X46200Y305250J4200*
G01*
G75*
G02X50400Y309450I4200*
G01*
X365248Y117600D02*
G75*
G02X365600Y116750I-848J-850D01*
G01*
Y79750*
G75*
G02X365248Y78900I-1200*
G01*
X363250Y76902*
G75*
G02X362400Y76550I-850J848*
G01*
X254400*
G75*
G02X253550Y76902J1200*
G01*
X251552Y78900*
G75*
G02X251200Y79750I848J850*
G01*
Y127253*
X249903Y128550*
X150400*
G75*
G02X149550Y128902J1200*
G01*
X147552Y130900*
G75*
G02X147200Y131750I848J850*
G01*
Y306253*
X144903Y308550*
X62998*
G75*
G02X60400Y301050I-2598J-3300*
G01*
G75*
G02X57802Y308550J4200*
G01*
X56900*
G75*
G02X56050Y308902J1200*
G01*
X53552Y311400*
G75*
G02X53207Y312125I848J849*
G01*
G75*
G02X46200Y315250I-2807J3125*
G01*
G75*
G02X53207Y318375I4200J0*
G01*
G75*
G02X53552Y319100I1193J-124*
G01*
X56050Y321598*
G75*
G02X56900Y321950I850J-848*
G01*
X57802*
G75*
G02X60400Y329450I2598J3300*
G01*
G75*
G02X62998Y321950J-4200*
G01*
X152400*
G75*
G02X153250Y321598J-1200*
G01*
X157248Y317600*
G75*
G02X157600Y316750I-848J-850*
G01*
Y140247*
X158897Y138950*
X257400*
G75*
G02X258250Y138598J-1200*
G01*
X261248Y135600*
G75*
G02X261600Y134750I-848J-850*
G01*
Y86247*
X262897Y84950*
X353903*
X354200Y85247*
Y87679*
X350278*
Y89050*
X345625*
G75*
G02X341175I-2225J1700*
G01*
X286625*
G75*
G02X281600Y90750I-2225J1700*
G01*
G75*
G02X286625Y92450I2800*
G01*
X341175*
G75*
G02X345625I2225J-1700*
G01*
X350278*
Y93821*
X354200*
Y101679*
X350278*
Y103050*
X343241*
G75*
G02X337886Y100832I-3841J1700*
G01*
X332602Y95548*
G75*
G02X331398Y95050I-1202J1202*
G01*
X273625*
G75*
G02X268600Y96750I-2225J1700*
G01*
G75*
G02X273625Y98450I2800*
G01*
X330696*
X335482Y103236*
G75*
G02X343241Y106450I3918J1514*
G01*
X350278*
Y107821*
X354200*
Y109679*
X350278*
Y111050*
X338104*
X333318Y106264*
G75*
G02X325559Y103050I-3918J-1514*
G01*
X269625*
G75*
G02X264600Y104750I-2225J1700*
G01*
G75*
G02X269625Y106450I2800*
G01*
X325559*
G75*
G02X330914Y108668I3841J-1700*
G01*
X336198Y113952*
G75*
G02X337402Y114450I1202J-1202*
G01*
X350278*
Y115821*
X354200*
Y116750*
G75*
G02X354552Y117600I1200*
G01*
X355550Y118598*
G75*
G02X356400Y118950I850J-848*
G01*
X363400*
G75*
G02X364250Y118598J-1200*
G01*
X365248Y117600*
X256200Y36750D02*
G75*
G02X264600I4200D01*
G01*
G75*
G02X256200I-4200*
G01*
Y46750D02*
G75*
G02X264600I4200D01*
G01*
G75*
G02X256200I-4200*
G01*
X266200Y36750D02*
G75*
G02X274600I4200D01*
G01*
G75*
G02X266200I-4200*
G01*
Y46750D02*
G75*
G02X274600I4200D01*
G01*
G75*
G02X266200I-4200*
G01*
X276200Y36750D02*
G75*
G02X284600I4200D01*
G01*
G75*
G02X276200I-4200*
G01*
Y46750D02*
G75*
G02X284600I4200D01*
G01*
G75*
G02X276200I-4200*
G01*
X286200Y36750D02*
G75*
G02X294600I4200D01*
G01*
G75*
G02X286200I-4200*
G01*
Y46750D02*
G75*
G02X294600I4200D01*
G01*
G75*
G02X286200I-4200*
G01*
X316200Y36750D02*
G75*
G02X324600I4200D01*
G01*
G75*
G02X316200I-4200*
G01*
Y46750D02*
G75*
G02X324600I4200D01*
G01*
G75*
G02X316200I-4200*
G01*
X326200Y36750D02*
G75*
G02X334600I4200D01*
G01*
G75*
G02X326200I-4200*
G01*
Y46750D02*
G75*
G02X334600I4200D01*
G01*
G75*
G02X326200I-4200*
G01*
X336200Y36750D02*
G75*
G02X344600I4200D01*
G01*
G75*
G02X336200I-4200*
G01*
Y46750D02*
G75*
G02X344600I4200D01*
G01*
G75*
G02X336200I-4200*
G01*
X346200Y36750D02*
G75*
G02X354600I4200D01*
G01*
G75*
G02X346200I-4200*
G01*
Y46750D02*
G75*
G02X354600I4200D01*
G01*
G75*
G02X346200I-4200*
G01*
X157787Y52750D02*
G75*
G02X166187I4200D01*
G01*
G75*
G02X157787I-4200*
G01*
X163187Y42750D02*
G75*
G02X171587I4200D01*
G01*
G75*
G02X163187I-4200*
G01*
X158956Y77750D02*
G75*
G02X167356I4200D01*
G01*
G75*
G02X158956I-4200*
G01*
X168587Y52750D02*
G75*
G02X176987I4200D01*
G01*
G75*
G02X168587I-4200*
G01*
X190437Y47750D02*
G75*
G02X210337I9950D01*
G01*
G75*
G02X190437I-9950*
G01*
X148956Y77750D02*
G75*
G02X157356I4200D01*
G01*
G75*
G02X148956I-4200*
G01*
X146987Y52750D02*
G75*
G02X155387I4200D01*
G01*
G75*
G02X146987I-4200*
G01*
X152387Y42750D02*
G75*
G02X160787I4200D01*
G01*
G75*
G02X152387I-4200*
G01*
X70400Y101950D02*
G75*
G02X74600Y97750J-4200D01*
G01*
G75*
G02X70400Y93550I-4200*
G01*
G75*
G02X66200Y97750J4200*
G01*
G75*
G02X70400Y101950I4200*
G01*
Y111950D02*
G75*
G02X74600Y107750J-4200D01*
G01*
G75*
G02X70400Y103550I-4200*
G01*
G75*
G02X66200Y107750J4200*
G01*
G75*
G02X70400Y111950I4200*
G01*
Y121950D02*
G75*
G02X74600Y117750J-4200D01*
G01*
G75*
G02X70400Y113550I-4200*
G01*
G75*
G02X66200Y117750J4200*
G01*
G75*
G02X70400Y121950I4200*
G01*
Y131950D02*
G75*
G02X74600Y127750J-4200D01*
G01*
G75*
G02X70400Y123550I-4200*
G01*
G75*
G02X66200Y127750J4200*
G01*
G75*
G02X70400Y131950I4200*
G01*
Y141950D02*
G75*
G02X74600Y137750J-4200D01*
G01*
G75*
G02X70400Y133550I-4200*
G01*
G75*
G02X66200Y137750J4200*
G01*
G75*
G02X70400Y141950I4200*
G01*
X92037Y47750D02*
G75*
G02X111937I9950D01*
G01*
G75*
G02X92037I-9950*
G01*
X125387Y52750D02*
G75*
G02X133787I4200D01*
G01*
G75*
G02X125387I-4200*
G01*
X130787Y42750D02*
G75*
G02X139187I4200D01*
G01*
G75*
G02X130787I-4200*
G01*
X136187Y52750D02*
G75*
G02X144587I4200D01*
G01*
G75*
G02X136187I-4200*
G01*
X141587Y42750D02*
G75*
G02X149987I4200D01*
G01*
G75*
G02X141587I-4200*
G01*
X60400Y219450D02*
G75*
G02X64600Y215250J-4200D01*
G01*
G75*
G02X60400Y211050I-4200*
G01*
G75*
G02X56200Y215250J4200*
G01*
G75*
G02X60400Y219450I4200*
G01*
Y229450D02*
G75*
G02X64600Y225250J-4200D01*
G01*
G75*
G02X60400Y221050I-4200*
G01*
G75*
G02X56200Y225250J4200*
G01*
G75*
G02X60400Y229450I4200*
G01*
Y239450D02*
G75*
G02X64600Y235250J-4200D01*
G01*
G75*
G02X60400Y231050I-4200*
G01*
G75*
G02X56200Y235250J4200*
G01*
G75*
G02X60400Y239450I4200*
G01*
Y249450D02*
G75*
G02X64600Y245250J-4200D01*
G01*
G75*
G02X60400Y241050I-4200*
G01*
G75*
G02X56200Y245250J4200*
G01*
G75*
G02X60400Y249450I4200*
G01*
Y259450D02*
G75*
G02X64600Y255250J-4200D01*
G01*
G75*
G02X60400Y251050I-4200*
G01*
G75*
G02X56200Y255250J4200*
G01*
G75*
G02X60400Y259450I4200*
G01*
Y269450D02*
G75*
G02X64600Y265250J-4200D01*
G01*
G75*
G02X60400Y261050I-4200*
G01*
G75*
G02X56200Y265250J4200*
G01*
G75*
G02X60400Y269450I4200*
G01*
Y279450D02*
G75*
G02X64600Y275250J-4200D01*
G01*
G75*
G02X60400Y271050I-4200*
G01*
G75*
G02X56200Y275250J4200*
G01*
G75*
G02X60400Y279450I4200*
G01*
Y289450D02*
G75*
G02X64600Y285250J-4200D01*
G01*
G75*
G02X60400Y281050I-4200*
G01*
G75*
G02X56200Y285250J4200*
G01*
G75*
G02X60400Y289450I4200*
G01*
Y299450D02*
G75*
G02X64600Y295250J-4200D01*
G01*
G75*
G02X60400Y291050I-4200*
G01*
G75*
G02X56200Y295250J4200*
G01*
G75*
G02X60400Y299450I4200*
G01*
X50400Y329450D02*
G75*
G02X54600Y325250J-4200D01*
G01*
G75*
G02X50400Y321050I-4200*
G01*
G75*
G02X46200Y325250J4200*
G01*
G75*
G02X50400Y329450I4200*
G01*
Y339450D02*
G75*
G02X54600Y335250J-4200D01*
G01*
G75*
G02X50400Y331050I-4200*
G01*
G75*
G02X46200Y335250J4200*
G01*
G75*
G02X50400Y339450I4200*
G01*
Y349450D02*
G75*
G02X54600Y345250J-4200D01*
G01*
G75*
G02X50400Y341050I-4200*
G01*
G75*
G02X46200Y345250J4200*
G01*
G75*
G02X50400Y349450I4200*
G01*
Y359450D02*
G75*
G02X54600Y355250J-4200D01*
G01*
G75*
G02X50400Y351050I-4200*
G01*
G75*
G02X46200Y355250J4200*
G01*
G75*
G02X50400Y359450I4200*
G01*
Y369450D02*
G75*
G02X54600Y365250J-4200D01*
G01*
G75*
G02X50400Y361050I-4200*
G01*
G75*
G02X46200Y365250J4200*
G01*
G75*
G02X50400Y369450I4200*
G01*
Y379450D02*
G75*
G02X54600Y375250J-4200D01*
G01*
G75*
G02X50400Y371050I-4200*
G01*
G75*
G02X46200Y375250J4200*
G01*
G75*
G02X50400Y379450I4200*
G01*
Y389450D02*
G75*
G02X54600Y385250J-4200D01*
G01*
G75*
G02X50400Y381050I-4200*
G01*
G75*
G02X46200Y385250J4200*
G01*
G75*
G02X50400Y389450I4200*
G01*
Y399450D02*
G75*
G02X54600Y395250J-4200D01*
G01*
G75*
G02X50400Y391050I-4200*
G01*
G75*
G02X46200Y395250J4200*
G01*
G75*
G02X50400Y399450I4200*
G01*
X60400Y339450D02*
G75*
G02X64600Y335250J-4200D01*
G01*
G75*
G02X60400Y331050I-4200*
G01*
G75*
G02X56200Y335250J4200*
G01*
G75*
G02X60400Y339450I4200*
G01*
Y349450D02*
G75*
G02X64600Y345250J-4200D01*
G01*
G75*
G02X60400Y341050I-4200*
G01*
G75*
G02X56200Y345250J4200*
G01*
G75*
G02X60400Y349450I4200*
G01*
Y359450D02*
G75*
G02X64600Y355250J-4200D01*
G01*
G75*
G02X60400Y351050I-4200*
G01*
G75*
G02X56200Y355250J4200*
G01*
G75*
G02X60400Y359450I4200*
G01*
Y369450D02*
G75*
G02X64600Y365250J-4200D01*
G01*
G75*
G02X60400Y361050I-4200*
G01*
G75*
G02X56200Y365250J4200*
G01*
G75*
G02X60400Y369450I4200*
G01*
Y379450D02*
G75*
G02X64600Y375250J-4200D01*
G01*
G75*
G02X60400Y371050I-4200*
G01*
G75*
G02X56200Y375250J4200*
G01*
G75*
G02X60400Y379450I4200*
G01*
Y389450D02*
G75*
G02X64600Y385250J-4200D01*
G01*
G75*
G02X60400Y381050I-4200*
G01*
G75*
G02X56200Y385250J4200*
G01*
G75*
G02X60400Y389450I4200*
G01*
Y399450D02*
G75*
G02X64600Y395250J-4200D01*
G01*
G75*
G02X60400Y391050I-4200*
G01*
G75*
G02X56200Y395250J4200*
G01*
G75*
G02X60400Y399450I4200*
G01*
X342175Y119450D02*
G75*
G02X347200Y117750I2225J-1700D01*
G01*
G75*
G02X342175Y116050I-2800*
G01*
X299402*
G75*
G02X298198Y116548I-2J1700*
G01*
X294198Y120548*
G75*
G02X293700Y121750I1202J1202*
G01*
Y212652*
G75*
G02X286200Y215250I-3300J2598*
G01*
G75*
G02X293700Y217848I4200*
G01*
Y219546*
X291914Y221332*
G75*
G02X286200Y225250I-1514J3918*
G01*
G75*
G02X290400Y229450I4200*
G01*
G75*
G02X294318Y223736I0J-4200*
G01*
X296602Y221452*
G75*
G02X297100Y220250I-1202J-1202*
G01*
Y217848*
G75*
G02X304600Y215250I3300J-2598*
G01*
G75*
G02X297100Y212652I-4200*
G01*
Y122454*
X300104Y119450*
X342175*
X290400Y239450D02*
G75*
G02X294600Y235250J-4200D01*
G01*
G75*
G02X290400Y231050I-4200*
G01*
G75*
G02X286200Y235250J4200*
G01*
G75*
G02X290400Y239450I4200*
G01*
Y249450D02*
G75*
G02X294600Y245250J-4200D01*
G01*
G75*
G02X290400Y241050I-4200*
G01*
G75*
G02X286200Y245250J4200*
G01*
G75*
G02X290400Y249450I4200*
G01*
Y259450D02*
G75*
G02X294600Y255250J-4200D01*
G01*
G75*
G02X290400Y251050I-4200*
G01*
G75*
G02X286200Y255250J4200*
G01*
G75*
G02X290400Y259450I4200*
G01*
Y269450D02*
G75*
G02X294600Y265250J-4200D01*
G01*
G75*
G02X290400Y261050I-4200*
G01*
G75*
G02X286200Y265250J4200*
G01*
G75*
G02X290400Y269450I4200*
G01*
Y279450D02*
G75*
G02X294600Y275250J-4200D01*
G01*
G75*
G02X290400Y271050I-4200*
G01*
G75*
G02X286200Y275250J4200*
G01*
G75*
G02X290400Y279450I4200*
G01*
Y289450D02*
G75*
G02Y281050J-4200D01*
G01*
G75*
G02X286200Y285250J4200*
G01*
G75*
G02X290400Y289450I4200*
G01*
Y299450D02*
G75*
G02X294600Y295250J-4200D01*
G01*
G75*
G02X290400Y291050I-4200*
G01*
G75*
G02X286200Y295250J4200*
G01*
G75*
G02X290400Y299450I4200*
G01*
Y309450D02*
G75*
G02X294600Y305250J-4200D01*
G01*
G75*
G02X290400Y301050I-4200*
G01*
G75*
G02X286200Y305250J4200*
G01*
G75*
G02X290400Y309450I4200*
G01*
Y319450D02*
G75*
G02X294600Y315250J-4200D01*
G01*
G75*
G02X290400Y311050I-4200*
G01*
G75*
G02X286200Y315250J4200*
G01*
G75*
G02X290400Y319450I4200*
G01*
Y329450D02*
G75*
G02X294600Y325250J-4200D01*
G01*
G75*
G02X290400Y321050I-4200*
G01*
G75*
G02X286200Y325250J4200*
G01*
G75*
G02X290400Y329450I4200*
G01*
Y339450D02*
G75*
G02X294600Y335250J-4200D01*
G01*
G75*
G02X290400Y331050I-4200*
G01*
G75*
G02X286200Y335250J4200*
G01*
G75*
G02X290400Y339450I4200*
G01*
Y349450D02*
G75*
G02X294600Y345250J-4200D01*
G01*
G75*
G02X290400Y341050I-4200*
G01*
G75*
G02X286200Y345250J4200*
G01*
G75*
G02X290400Y349450I4200*
G01*
Y359450D02*
G75*
G02X294600Y355250J-4200D01*
G01*
G75*
G02X290400Y351050I-4200*
G01*
G75*
G02X286200Y355250J4200*
G01*
G75*
G02X290400Y359450I4200*
G01*
Y369450D02*
G75*
G02X294600Y365250J-4200D01*
G01*
G75*
G02X290400Y361050I-4200*
G01*
G75*
G02X286200Y365250J4200*
G01*
G75*
G02X290400Y369450I4200*
G01*
Y379450D02*
G75*
G02X294600Y375250J-4200D01*
G01*
G75*
G02X290400Y371050I-4200*
G01*
G75*
G02X286200Y375250J4200*
G01*
G75*
G02X290400Y379450I4200*
G01*
Y389450D02*
G75*
G02X294600Y385250J-4200D01*
G01*
G75*
G02X290400Y381050I-4200*
G01*
G75*
G02X286200Y385250J4200*
G01*
G75*
G02X290400Y389450I4200*
G01*
Y399450D02*
G75*
G02X294600Y395250J-4200D01*
G01*
G75*
G02X290400Y391050I-4200*
G01*
G75*
G02X286200Y395250J4200*
G01*
G75*
G02X290400Y399450I4200*
G01*
X300400Y229450D02*
G75*
G02X304600Y225250J-4200D01*
G01*
G75*
G02X300400Y221050I-4200*
G01*
G75*
G02X296200Y225250J4200*
G01*
G75*
G02X300400Y229450I4200*
G01*
X346329Y201573D02*
X352471D01*
Y195628*
X346329*
Y196900*
X344471*
Y195628*
X338329*
Y197050*
X327902*
G75*
G02X326698Y197548I-2J1700*
G01*
X325198Y199048*
G75*
G02X324700Y200250I1202J1202*
G01*
Y233046*
X324196Y233550*
X304241*
G75*
G02X296200Y235250I-3841J1700*
G01*
G75*
G02X304241Y236950I4200*
G01*
X324898*
G75*
G02X326102Y236452I2J-1700*
G01*
X327602Y234952*
G75*
G02X328100Y233750I-1202J-1202*
G01*
Y200954*
X328604Y200450*
X338329*
Y201573*
X344471*
Y200300*
X346329*
Y201573*
X300400Y249450D02*
G75*
G02X304600Y245250J-4200D01*
G01*
G75*
G02X300400Y241050I-4200*
G01*
G75*
G02X296200Y245250J4200*
G01*
G75*
G02X300400Y249450I4200*
G01*
Y259450D02*
G75*
G02X304600Y255250J-4200D01*
G01*
G75*
G02X300400Y251050I-4200*
G01*
G75*
G02X296200Y255250J4200*
G01*
G75*
G02X300400Y259450I4200*
G01*
Y269450D02*
G75*
G02Y261050J-4200D01*
G01*
G75*
G02X296200Y265250J4200*
G01*
G75*
G02X300400Y269450I4200*
G01*
Y279450D02*
G75*
G02X304600Y275250J-4200D01*
G01*
G75*
G02X300400Y271050I-4200*
G01*
G75*
G02X296200Y275250J4200*
G01*
G75*
G02X300400Y279450I4200*
G01*
Y289450D02*
G75*
G02Y281050J-4200D01*
G01*
G75*
G02X296200Y285250J4200*
G01*
G75*
G02X300400Y289450I4200*
G01*
Y299450D02*
G75*
G02X304600Y295250J-4200D01*
G01*
G75*
G02X300400Y291050I-4200*
G01*
G75*
G02X296200Y295250J4200*
G01*
G75*
G02X300400Y299450I4200*
G01*
Y309450D02*
G75*
G02Y301050J-4200D01*
G01*
G75*
G02X296200Y305250J4200*
G01*
G75*
G02X300400Y309450I4200*
G01*
Y319450D02*
G75*
G02Y311050J-4200D01*
G01*
G75*
G02X296200Y315250J4200*
G01*
G75*
G02X300400Y319450I4200*
G01*
Y329450D02*
G75*
G02X304600Y325250J-4200D01*
G01*
G75*
G02X300400Y321050I-4200*
G01*
G75*
G02X296200Y325250J4200*
G01*
G75*
G02X300400Y329450I4200*
G01*
X333590Y296234D02*
X334022D01*
Y289108*
X321778*
Y296234*
X322450*
Y296750*
G75*
G02X323021Y298129I1950J0*
G01*
X324690Y299798*
Y334702*
X322592Y336800*
X310208*
X307279Y333871*
G75*
G02X305900Y333300I-1379J1379*
G01*
X304120*
G75*
G02X296200Y335250I-3720J1950*
G01*
G75*
G02X304120Y337200I4200*
G01*
X305092*
X307943Y340051*
G75*
G02X307521Y340371I957J1699*
G01*
X304592Y343300*
X304120*
G75*
G02X296200Y345250I-3720J1950*
G01*
G75*
G02X304120Y347200I4200*
G01*
X305400*
G75*
G02X306779Y346629I0J-1950*
G01*
X309708Y343700*
X324400*
G75*
G02X325779Y343129I0J-1950*
G01*
X330779Y338129*
G75*
G02X331350Y336750I-1379J-1379*
G01*
Y299558*
X333019Y297889*
G75*
G02X333590Y296510I-1379J-1379*
G01*
Y296234*
X373248Y249600D02*
G75*
G02X373600Y248750I-848J-850D01*
G01*
Y244750*
G75*
G02X373248Y243900I-1200*
G01*
X372250Y242902*
G75*
G02X371400Y242550I-850J848*
G01*
X354897*
X349600Y237253*
Y236247*
X349897Y235950*
X351400*
G75*
G02X352250Y235598J-1200*
G01*
X353248Y234600*
G75*
G02X353600Y233750I-848J-850*
G01*
Y221750*
G75*
G02X353248Y220900I-1200*
G01*
X352250Y219902*
G75*
G02X351400Y219550I-850J848*
G01*
X351100*
Y207872*
X352471*
Y201927*
X346329*
Y207872*
X347700*
Y219550*
X339400*
G75*
G02X338550Y219902J1200*
G01*
X336552Y221900*
G75*
G02X336200Y222750I848J850*
G01*
Y236750*
G75*
G02X336552Y237600I1200*
G01*
X344753Y245800*
X344120*
G75*
G02X336200Y247750I-3720J1950*
G01*
G75*
G02X336221Y248171I4202J-1*
G01*
X325021Y259371*
G75*
G02X324450Y260750I1379J1379*
G01*
Y264942*
X322781Y266611*
G75*
G02X322210Y267990I1379J1379*
G01*
Y279266*
X321778*
Y286392*
X334022*
Y279266*
X333590*
Y267990*
G75*
G02X333019Y266611I-1950J0*
G01*
X331350Y264942*
Y263558*
X335208Y259700*
X336680*
G75*
G02X344120I3720J-1950*
G01*
X345742*
G75*
G02X347121Y259129I0J-1950*
G01*
X349208Y257043*
X359790*
Y263577*
X371050*
Y250950*
X371400*
G75*
G02X372250Y250598J-1200*
G01*
X373248Y249600*
X357329Y240939D02*
X391227D01*
Y230467*
X357329*
Y240939*
X338329Y207872D02*
X344471D01*
Y201927*
X338329*
Y207872*
X329211Y234691D02*
X335746D01*
Y224809*
X329211*
Y234691*
X300400Y359450D02*
G75*
G02X304600Y355250J-4200D01*
G01*
G75*
G02X300400Y351050I-4200*
G01*
G75*
G02X296200Y355250J4200*
G01*
G75*
G02X300400Y359450I4200*
G01*
Y369450D02*
G75*
G02X304600Y365250J-4200D01*
G01*
G75*
G02X300400Y361050I-4200*
G01*
G75*
G02X296200Y365250J4200*
G01*
G75*
G02X300400Y369450I4200*
G01*
Y379450D02*
G75*
G02X304600Y375250J-4200D01*
G01*
G75*
G02X300400Y371050I-4200*
G01*
G75*
G02X296200Y375250J4200*
G01*
G75*
G02X300400Y379450I4200*
G01*
Y389450D02*
G75*
G02X304600Y385250J-4200D01*
G01*
G75*
G02X300400Y381050I-4200*
G01*
G75*
G02X296200Y385250J4200*
G01*
G75*
G02X300400Y389450I4200*
G01*
Y399450D02*
G75*
G02X304600Y395250J-4200D01*
G01*
G75*
G02X300400Y391050I-4200*
G01*
G75*
G02X296200Y395250J4200*
G01*
G75*
G02X300400Y399450I4200*
G01*
X357329Y279719D02*
X391227D01*
Y269246*
X357329*
Y279719*
X30400Y101950D02*
G75*
G02X34600Y97750J-4200D01*
G01*
G75*
G02X30400Y93550I-4200*
G01*
G75*
G02X26200Y97750J4200*
G01*
G75*
G02X30400Y101950I4200*
G01*
Y111950D02*
G75*
G02X34600Y107750J-4200D01*
G01*
G75*
G02X30400Y103550I-4200*
G01*
G75*
G02X26200Y107750J4200*
G01*
G75*
G02X30400Y111950I4200*
G01*
Y121950D02*
G75*
G02X34600Y117750J-4200D01*
G01*
G75*
G02X30400Y113550I-4200*
G01*
G75*
G02X26200Y117750J4200*
G01*
G75*
G02X30400Y121950I4200*
G01*
Y131950D02*
G75*
G02X34600Y127750J-4200D01*
G01*
G75*
G02X30400Y123550I-4200*
G01*
G75*
G02X26200Y127750J4200*
G01*
G75*
G02X30400Y131950I4200*
G01*
Y141950D02*
G75*
G02X34600Y137750J-4200D01*
G01*
G75*
G02X30400Y133550I-4200*
G01*
G75*
G02X26200Y137750J4200*
G01*
G75*
G02X30400Y141950I4200*
G01*
X370626Y36750D02*
G36*
X354600D01*
G75*
G02X346200I-4200*
G01*
X344600*
G75*
G02X336200I-4200*
G01*
X334600*
G75*
G02X326200I-4200*
G01*
X324600*
G75*
G02X316200I-4200*
G01*
X294600*
G75*
G02X286200I-4200*
G01*
X284600*
G75*
G02X276200I-4200*
G01*
X274600*
G75*
G02X266200I-4200*
G01*
X264600*
G75*
G02X256200I-4200*
G01*
X30174*
G75*
G02X30340Y34679I-12846J-2070*
G01*
G75*
G02X23359Y23150I-13011*
G01*
X377441*
G75*
G02X370460Y34679I6030J11529*
G01*
Y34679*
G75*
G02X370626Y36750I13011J1*
G01*
G37*
X7124Y42750D02*
G36*
X5800D01*
Y40709*
G75*
G02X7124Y42750I11530J-6030*
G01*
G37*
X370626Y36750D02*
G36*
G75*
G02X373265Y42750I12845J-2071D01*
G01*
X351681*
G75*
G02X349119I-1281J4000*
G01*
X341681*
G75*
G02X339119I-1281J4000*
G01*
X331681*
G75*
G02X329119I-1281J4000*
G01*
X321681*
G75*
G02X319119I-1281J4000*
G01*
X291681*
G75*
G02X289119I-1281J4000*
G01*
X281681*
G75*
G02X279119I-1281J4000*
G01*
X271681*
G75*
G02X269119I-1281J4000*
G01*
X261681*
G75*
G02X259119I-1281J4000*
G01*
X208990*
G75*
G02X191785I-8602J5000*
G01*
X171587*
G75*
G02X163187I-4200*
G01*
X160787*
G75*
G02X152387I-4200*
G01*
X149987*
G75*
G02X141587I-4200*
G01*
X139187*
G75*
G02X130787I-4200*
G01*
X110590*
G75*
G02X93385I-8602J5000*
G01*
X27534*
G75*
G02X30174Y36750I-10206J-8072*
G01*
X256200*
G75*
G02X264600I4200*
G01*
X266200*
G75*
G02X274600I4200*
G01*
X276200*
G75*
G02X284600I4200*
G01*
X286200*
G75*
G02X294600I4200*
G01*
X316200*
G75*
G02X324600I4200*
G01*
X326200*
G75*
G02X334600I4200*
G01*
X336200*
G75*
G02X344600I4200*
G01*
X346200*
G75*
G02X354600I4200*
G01*
X370626*
G37*
X395000Y40709D02*
G36*
Y42750D01*
X393676*
G75*
G02X395000Y40709I-10206J-8070*
G01*
G37*
X92088Y46750D02*
G36*
X22185D01*
G75*
G02X27534Y42750I-4856J-12071*
G01*
X93385*
G75*
G02X92088Y46750I8602J5000*
G01*
G37*
X7124Y42750D02*
G36*
G75*
G02X12473Y46750I10206J-8072D01*
G01*
X5800*
Y42750*
X7124*
G37*
X130787D02*
G36*
G75*
G02X133707Y46750I4200D01*
G01*
X111887*
G75*
G02X110590Y42750I-9900J1000*
G01*
X130787*
G37*
X141587D02*
G36*
G75*
G02X144507Y46750I4200D01*
G01*
X136268*
G75*
G02X139187Y42750I-1281J-4000*
G01*
X141587*
G37*
X152387D02*
G36*
G75*
G02X155307Y46750I4200D01*
G01*
X147068*
G75*
G02X149987Y42750I-1281J-4000*
G01*
X152387*
G37*
X163187D02*
G36*
G75*
G02X166107Y46750I4200D01*
G01*
X157868*
G75*
G02X160787Y42750I-1281J-4000*
G01*
X163187*
G37*
X190488Y46750D02*
G36*
X168668D01*
G75*
G02X171587Y42750I-1281J-4000*
G01*
X191785*
G75*
G02X190488Y46750I8602J5000*
G01*
G37*
X256200D02*
G36*
X210287D01*
G75*
G02X208990Y42750I-9900J1000*
G01*
X259119*
G75*
G02X256200Y46750I1281J4000*
G01*
G37*
X266200D02*
G36*
X264600D01*
G75*
G02X261681Y42750I-4200*
G01*
X269119*
G75*
G02X266200Y46750I1281J4000*
G01*
G37*
X276200D02*
G36*
X274600D01*
G75*
G02X271681Y42750I-4200*
G01*
X279119*
G75*
G02X276200Y46750I1281J4000*
G01*
G37*
X286200D02*
G36*
X284600D01*
G75*
G02X281681Y42750I-4200*
G01*
X289119*
G75*
G02X286200Y46750I1281J4000*
G01*
G37*
X316200D02*
G36*
X294600D01*
G75*
G02X291681Y42750I-4200*
G01*
X319119*
G75*
G02X316200Y46750I1281J4000*
G01*
G37*
X326200D02*
G36*
X324600D01*
G75*
G02X321681Y42750I-4200*
G01*
X329119*
G75*
G02X326200Y46750I1281J4000*
G01*
G37*
X336200D02*
G36*
X334600D01*
G75*
G02X331681Y42750I-4200*
G01*
X339119*
G75*
G02X336200Y46750I1281J4000*
G01*
G37*
X346200D02*
G36*
X344600D01*
G75*
G02X341681Y42750I-4200*
G01*
X349119*
G75*
G02X346200Y46750I1281J4000*
G01*
G37*
X373265Y42750D02*
G36*
G75*
G02X378615Y46750I10206J-8071D01*
G01*
X354600*
G75*
G02X351681Y42750I-4200*
G01*
X373265*
G37*
X393676D02*
G36*
X395000D01*
Y46750*
X388327*
G75*
G02X393676Y42750I-4856J-12071*
G01*
G37*
X92088Y46750D02*
G36*
G75*
G02X92037Y47750I9900J1000D01*
G01*
G75*
G02X93385Y52750I9950J0*
G01*
X5800*
Y46750*
X12473*
G75*
G02X22185I4856J-12071*
G01*
X92088*
G37*
X190488D02*
G36*
G75*
G02X190437Y47750I9900J1000D01*
G01*
G75*
G02X191785Y52750I9950J0*
G01*
X176987*
G75*
G02X168587I-4200*
G01*
X166187*
G75*
G02X157787I-4200*
G01*
X155387*
G75*
G02X146987I-4200*
G01*
X144587*
G75*
G02X136187I-4200*
G01*
X133787*
G75*
G02X125387I-4200*
G01*
X110590*
G75*
G02X111937Y47750I-8602J-5000*
G01*
G75*
G02X111887Y46750I-9950*
G01*
X133707*
G75*
G02X136268I1281J-4000*
G01*
X144507*
G75*
G02X147068I1281J-4000*
G01*
X155307*
G75*
G02X157868I1281J-4000*
G01*
X166107*
G75*
G02X168668I1281J-4000*
G01*
X190488*
G37*
X388327D02*
G36*
X395000D01*
Y52750*
X208990*
G75*
G02X210337Y47750I-8602J-5000*
G01*
G75*
G02X210287Y46750I-9950*
G01*
X256200*
G75*
G02X264600I4200*
G01*
X266200*
G75*
G02X274600I4200*
G01*
X276200*
G75*
G02X284600I4200*
G01*
X286200*
G75*
G02X294600I4200*
G01*
X316200*
G75*
G02X324600I4200*
G01*
X326200*
G75*
G02X334600I4200*
G01*
X336200*
G75*
G02X344600I4200*
G01*
X346200*
G75*
G02X354600I4200*
G01*
X378615*
G75*
G02X388327I4856J-12071*
G01*
G37*
X364097Y77750D02*
G36*
X363250Y76902D01*
G75*
G02X362400Y76550I-850J850*
G01*
X254400*
G75*
G02X253550Y76902I1J1202*
G01*
X252703Y77750*
X167356*
G75*
G02X158956I-4200*
G01*
X157356*
G75*
G02X148956I-4200*
G01*
X5800*
Y52750*
X93385*
G75*
G02X110590I8602J-5000*
G01*
X125387*
G75*
G02X133787I4200*
G01*
X136187*
G75*
G02X144587I4200*
G01*
X146987*
G75*
G02X155387I4200*
G01*
X157787*
G75*
G02X166187I4200*
G01*
X168587*
G75*
G02X176987I4200*
G01*
X191785*
G75*
G02X208990I8602J-5000*
G01*
X395000*
Y77750*
X364097*
G37*
X252703D02*
G36*
X251552Y78900D01*
G75*
G02X251200Y79750I850J850*
G01*
Y97750*
X74600*
G75*
G02X70400Y93550I-4200*
G01*
G75*
G02X66200Y97750J4200*
G01*
X34600*
G75*
G02X30400Y93550I-4200*
G01*
G75*
G02X26200Y97750J4200*
G01*
X5800*
Y77750*
X148956*
G75*
G02X157356I4200*
G01*
X158956*
G75*
G02X167356I4200*
G01*
X252703*
G37*
X354200Y97750D02*
G36*
X334804D01*
X332602Y95548*
G75*
G02X331398Y95050I-1202J1202*
G01*
X273625*
G75*
G02X268600Y96750I-2225J1700*
G01*
G75*
G02X268785Y97750I2800*
G01*
X261600*
Y86247*
X262897Y84950*
X353903*
X354200Y85247*
Y87679*
X350278*
Y89050*
X345625*
G75*
G02X341175I-2225J1700*
G01*
X286625*
G75*
G02X281600Y90750I-2225J1700*
G01*
G75*
G02X286625Y92450I2800*
G01*
X341175*
G75*
G02X345625I2225J-1700*
G01*
X350278*
Y93821*
X354200*
Y97750*
G37*
X365600D02*
G36*
Y79750D01*
G75*
G02X365248Y78900I-1202J1*
G01*
X364097Y77750*
X395000*
Y97750*
X365600*
G37*
X251200Y107750D02*
G36*
X74600D01*
G75*
G02X70400Y103550I-4200*
G01*
G75*
G02X66200Y107750J4200*
G01*
X34600*
G75*
G02X30400Y103550I-4200*
G01*
G75*
G02X26200Y107750J4200*
G01*
X5800*
Y97750*
X26200*
G75*
G02X30400Y101950I4200*
G01*
G75*
G02X34600Y97750J-4200*
G01*
X66200*
G75*
G02X70400Y101950I4200*
G01*
G75*
G02X74600Y97750J-4200*
G01*
X251200*
Y107750*
G37*
X354200Y97750D02*
G36*
Y101679D01*
X350278*
Y103050*
X343241*
G75*
G02X337886Y100832I-3841J1700*
G01*
X334804Y97750*
X354200*
G37*
X336461Y107750D02*
G36*
X334804D01*
X333318Y106264*
G75*
G02X333600Y104750I-3918J-1514*
G01*
G75*
G02X325559Y103050I-4200*
G01*
X269625*
G75*
G02X264600Y104750I-2225J1700*
G01*
G75*
G02X269625Y106450I2800*
G01*
X325559*
G75*
G02X326461Y107750I3841J-1700*
G01*
X261600*
Y97750*
X268785*
G75*
G02X273625Y98450I2615J-1000*
G01*
X330696*
X335482Y103236*
G75*
G02X335200Y104750I3918J1514*
G01*
G75*
G02X336461Y107750I4200*
G01*
G37*
X350278D02*
G36*
X342339D01*
G75*
G02X343241Y106450I-2939J-3000*
G01*
X350278*
Y107750*
G37*
X365600D02*
G36*
Y97750D01*
X395000*
Y107750*
X365600*
G37*
X251200Y117750D02*
G36*
X74600D01*
G75*
G02X70400Y113550I-4200*
G01*
G75*
G02X66200Y117750J4200*
G01*
X34600*
G75*
G02X30400Y113550I-4200*
G01*
G75*
G02X26200Y117750J4200*
G01*
X5800*
Y107750*
X26200*
G75*
G02X30400Y111950I4200*
G01*
G75*
G02X34600Y107750J-4200*
G01*
X66200*
G75*
G02X70400Y111950I4200*
G01*
G75*
G02X74600Y107750J-4200*
G01*
X251200*
Y117750*
G37*
X354703D02*
G36*
X347200D01*
G75*
G02X342175Y116050I-2800*
G01*
X299402*
G75*
G02X298198Y116548I-2J1700*
G01*
X296996Y117750*
X261600*
Y107750*
X326461*
G75*
G02X330914Y108668I2939J-3000*
G01*
X336198Y113952*
G75*
G02X337402Y114450I1202J-1202*
G01*
X350278*
Y115821*
X354200*
Y116750*
G75*
G02X354552Y117600I1202J-1*
G01*
X354703Y117750*
G37*
X350278Y107750D02*
G36*
Y107821D01*
X354200*
Y109679*
X350278*
Y111050*
X338104*
X334804Y107750*
X336461*
G75*
G02X342339I2939J-3000*
G01*
X350278*
G37*
X365600D02*
G36*
X395000D01*
Y117750*
X365097*
X365248Y117600*
G75*
G02X365600Y116750I-850J-850*
G01*
Y107750*
G37*
X250703Y127750D02*
G36*
X74600D01*
G75*
G02X70400Y123550I-4200*
G01*
G75*
G02X66200Y127750J4200*
G01*
X34600*
G75*
G02X30400Y123550I-4200*
G01*
G75*
G02X26200Y127750J4200*
G01*
X5800*
Y117750*
X26200*
G75*
G02X30400Y121950I4200*
G01*
G75*
G02X34600Y117750J-4200*
G01*
X66200*
G75*
G02X70400Y121950I4200*
G01*
G75*
G02X74600Y117750J-4200*
G01*
X251200*
Y127253*
X250703Y127750*
G37*
X365097Y117750D02*
G36*
X395000D01*
Y127750*
X297100*
Y122454*
X300104Y119450*
X342175*
G75*
G02X347200Y117750I2225J-1700*
G01*
X354703*
X355550Y118598*
G75*
G02X356400Y118950I850J-850*
G01*
X363400*
G75*
G02X364250Y118598I-1J-1202*
G01*
X365097Y117750*
G37*
X296996D02*
G36*
X294198Y120548D01*
G75*
G02X293700Y121750I1203J1203*
G01*
Y127750*
X261600*
Y117750*
X296996*
G37*
X250703Y127750D02*
G36*
X249903Y128550D01*
X150400*
G75*
G02X149550Y128902I1J1202*
G01*
X147552Y130900*
G75*
G02X147200Y131750I850J850*
G01*
Y137750*
X74600*
G75*
G02X70400Y133550I-4200*
G01*
G75*
G02X66200Y137750J4200*
G01*
X34600*
G75*
G02X30400Y133550I-4200*
G01*
G75*
G02X26200Y137750J4200*
G01*
X5800*
Y127750*
X26200*
G75*
G02X30400Y131950I4200*
G01*
G75*
G02X34600Y127750J-4200*
G01*
X66200*
G75*
G02X70400Y131950I4200*
G01*
G75*
G02X74600Y127750J-4200*
G01*
X250703*
G37*
X293700Y137750D02*
G36*
X259097D01*
X261248Y135600*
G75*
G02X261600Y134750I-850J-850*
G01*
Y127750*
X293700*
Y137750*
G37*
X297100D02*
G36*
Y127750D01*
X395000*
Y137750*
X297100*
G37*
X147200D02*
G36*
Y204900D01*
X5800*
Y137750*
X26200*
G75*
G02X30400Y141950I4200*
G01*
G75*
G02X34600Y137750J-4200*
G01*
X66200*
G75*
G02X70400Y141950I4200*
G01*
G75*
G02X74600Y137750J-4200*
G01*
X147200*
G37*
X293700Y204900D02*
G36*
X157600D01*
Y140247*
X158897Y138950*
X257400*
G75*
G02X258250Y138598I-1J-1202*
G01*
X259097Y137750*
X293700*
Y204900*
G37*
X352471D02*
G36*
Y201927D01*
X346329*
Y204900*
X344471*
Y201927*
X338329*
Y204900*
X328100*
Y200954*
X328604Y200450*
X338329*
Y201573*
X344471*
Y200300*
X346329*
Y201573*
X352471*
Y195628*
X346329*
Y196900*
X344471*
Y195628*
X338329*
Y197050*
X327902*
G75*
G02X326698Y197548I-2J1700*
G01*
X325198Y199048*
G75*
G02X324700Y200250I1203J1203*
G01*
Y204900*
X297100*
Y137750*
X395000*
Y204900*
X352471*
G37*
X147200Y215250D02*
G36*
X64600D01*
G75*
G02X60400Y211050I-4200*
G01*
G75*
G02X56200Y215250J4200*
G01*
X54600*
G75*
G02X50400Y211050I-4200*
G01*
G75*
G02X46200Y215250J4200*
G01*
X5800*
Y204900*
X147200*
Y215250*
G37*
X286200D02*
G36*
X157600D01*
Y204900*
X293700*
Y212652*
G75*
G02X286200Y215250I-3300J2598*
G01*
G37*
X324700D02*
G36*
X304600D01*
G75*
G02X297100Y212652I-4200*
G01*
Y204900*
X324700*
Y215250*
G37*
X346329Y204900D02*
G36*
Y207872D01*
X347700*
Y215250*
X328100*
Y204900*
X338329*
Y207872*
X344471*
Y204900*
X346329*
G37*
X352471D02*
G36*
X395000D01*
Y215250*
X351100*
Y207872*
X352471*
Y204900*
G37*
X147200Y225250D02*
G36*
X64600D01*
G75*
G02X60400Y221050I-4200*
G01*
G75*
G02X56200Y225250J4200*
G01*
X54600*
G75*
G02X50400Y221050I-4200*
G01*
G75*
G02X46200Y225250J4200*
G01*
X5800*
Y215250*
X46200*
G75*
G02X50400Y219450I4200*
G01*
G75*
G02X54600Y215250J-4200*
G01*
X56200*
G75*
G02X60400Y219450I4200*
G01*
G75*
G02X64600Y215250J-4200*
G01*
X147200*
Y225250*
G37*
X286200Y215250D02*
G36*
G75*
G02X293700Y217848I4200D01*
G01*
Y219546*
X291914Y221332*
G75*
G02X286200Y225250I-1514J3917*
G01*
Y225250*
X157600*
Y215250*
X286200*
G37*
X324700Y225250D02*
G36*
X304600D01*
G75*
G02X300400Y221050I-4200*
G01*
G75*
G02X296200Y225250J4200*
G01*
X294600*
Y225250*
G75*
G02X294318Y223736I-4200J0*
G01*
X296602Y221452*
G75*
G02X297100Y220250I-1203J-1203*
G01*
Y217848*
G75*
G02X304600Y215250I3300J-2598*
G01*
X324700*
Y225250*
G37*
X336200D02*
G36*
X335746D01*
Y224809*
X329211*
Y225250*
X328100*
Y215250*
X347700*
Y219550*
X339400*
G75*
G02X338550Y219902I1J1202*
G01*
X336552Y221900*
G75*
G02X336200Y222750I850J850*
G01*
Y225250*
G37*
X353600D02*
G36*
Y221750D01*
G75*
G02X353248Y220900I-1202J1*
G01*
X352250Y219902*
G75*
G02X351400Y219550I-850J850*
G01*
X351100*
Y215250*
X395000*
Y225250*
X353600*
G37*
X147200Y235250D02*
G36*
X64600D01*
G75*
G02X60400Y231050I-4200*
G01*
G75*
G02X56200Y235250J4200*
G01*
X54600*
G75*
G02X50400Y231050I-4200*
G01*
G75*
G02X46200Y235250J4200*
G01*
X5800*
Y225250*
X46200*
G75*
G02X50400Y229450I4200*
G01*
G75*
G02X54600Y225250J-4200*
G01*
X56200*
G75*
G02X60400Y229450I4200*
G01*
G75*
G02X64600Y225250J-4200*
G01*
X147200*
Y235250*
G37*
X324700Y225250D02*
G36*
Y233046D01*
X324196Y233550*
X304241*
G75*
G02X296200Y235250I-3841J1700*
G01*
X294600*
G75*
G02X290400Y231050I-4200*
G01*
G75*
G02X286200Y235250J4200*
G01*
X157600*
Y225250*
X286200*
G75*
G02X290400Y229450I4200*
G01*
G75*
G02X294600Y225250J-4200*
G01*
X296200*
G75*
G02X300400Y229450I4200*
G01*
G75*
G02X304600Y225250J-4200*
G01*
X324700*
G37*
X336200D02*
G36*
Y235250D01*
X327304*
X327602Y234952*
G75*
G02X328100Y233750I-1203J-1203*
G01*
Y225250*
X329211*
Y234691*
X335746*
Y225250*
X336200*
G37*
X391227Y235250D02*
G36*
Y230467D01*
X357329*
Y235250*
X352597*
X353248Y234600*
G75*
G02X353600Y233750I-850J-850*
G01*
Y225250*
X395000*
Y235250*
X391227*
G37*
X147200Y245250D02*
G36*
X64600D01*
G75*
G02X60400Y241050I-4200*
G01*
G75*
G02X56200Y245250J4200*
G01*
X54600*
G75*
G02X50400Y241050I-4200*
G01*
G75*
G02X46200Y245250J4200*
G01*
X5800*
Y235250*
X46200*
G75*
G02X50400Y239450I4200*
G01*
G75*
G02X54600Y235250J-4200*
G01*
X56200*
G75*
G02X60400Y239450I4200*
G01*
G75*
G02X64600Y235250J-4200*
G01*
X147200*
Y245250*
G37*
X344203D02*
G36*
X343775D01*
G75*
G02X337025I-3375J2500*
G01*
X304600*
G75*
G02X300400Y241050I-4200*
G01*
G75*
G02X296200Y245250J4200*
G01*
X294600*
G75*
G02X290400Y241050I-4200*
G01*
G75*
G02X286200Y245250J4200*
G01*
X157600*
Y235250*
X286200*
G75*
G02X290400Y239450I4200*
G01*
G75*
G02X294600Y235250J-4200*
G01*
X296200*
G75*
G02X304241Y236950I4200*
G01*
X324898*
G75*
G02X326102Y236452I2J-1700*
G01*
X327304Y235250*
X336200*
Y236750*
G75*
G02X336552Y237600I1202J-1*
G01*
X344203Y245250*
G37*
X373600D02*
G36*
Y244750D01*
G75*
G02X373248Y243900I-1202J1*
G01*
X372250Y242902*
G75*
G02X371400Y242550I-850J850*
G01*
X354897*
X349600Y237253*
Y236247*
X349897Y235950*
X351400*
G75*
G02X352250Y235598I-1J-1202*
G01*
X352597Y235250*
X357329*
Y240939*
X391227*
Y235250*
X395000*
Y245250*
X373600*
G37*
X147200Y255250D02*
G36*
X64600D01*
G75*
G02X60400Y251050I-4200*
G01*
G75*
G02X56200Y255250J4200*
G01*
X54600*
G75*
G02X50400Y251050I-4200*
G01*
G75*
G02X46200Y255250J4200*
G01*
X5800*
Y245250*
X46200*
G75*
G02X50400Y249450I4200*
G01*
G75*
G02X54600Y245250J-4200*
G01*
X56200*
G75*
G02X60400Y249450I4200*
G01*
G75*
G02X64600Y245250J-4200*
G01*
X147200*
Y255250*
G37*
X329143D02*
G36*
X304600D01*
G75*
G02X300400Y251050I-4200*
G01*
G75*
G02X296200Y255250J4200*
G01*
X294600*
G75*
G02X290400Y251050I-4200*
G01*
G75*
G02X286200Y255250J4200*
G01*
X157600*
Y245250*
X286200*
G75*
G02X290400Y249450I4200*
G01*
G75*
G02X294600Y245250J-4200*
G01*
X296200*
G75*
G02X300400Y249450I4200*
G01*
G75*
G02X304600Y245250J-4200*
G01*
X337025*
G75*
G02X336200Y247750I3375J2500*
G01*
G75*
G02X336221Y248171I4337J-8*
G01*
X329143Y255250*
G37*
X344203Y245250D02*
G36*
X344753Y245800D01*
X344120*
G75*
G02X343775Y245250I-3720J1950*
G01*
X344203*
G37*
X373600D02*
G36*
X395000D01*
Y255250*
X371050*
Y250950*
X371400*
G75*
G02X372250Y250598I-1J-1202*
G01*
X373248Y249600*
G75*
G02X373600Y248750I-850J-850*
G01*
Y245250*
G37*
X147200Y265250D02*
G36*
X64600D01*
G75*
G02X60400Y261050I-4200*
G01*
G75*
G02X56200Y265250J4200*
G01*
X54600*
G75*
G02X50400Y261050I-4200*
G01*
G75*
G02X46200Y265250J4200*
G01*
X5800*
Y255250*
X46200*
G75*
G02X50400Y259450I4200*
G01*
G75*
G02X54600Y255250J-4200*
G01*
X56200*
G75*
G02X60400Y259450I4200*
G01*
G75*
G02X64600Y255250J-4200*
G01*
X147200*
Y265250*
G37*
X329143Y255250D02*
G36*
X325021Y259371D01*
G75*
G02X324450Y260750I1378J1379*
G01*
Y264942*
X324142Y265250*
X304600*
G75*
G02X300400Y261050I-4200*
G01*
G75*
G02X296200Y265250J4200*
G01*
X294600*
G75*
G02X290400Y261050I-4200*
G01*
G75*
G02X286200Y265250J4200*
G01*
X157600*
Y255250*
X286200*
G75*
G02X290400Y259450I4200*
G01*
G75*
G02X294600Y255250J-4200*
G01*
X296200*
G75*
G02X300400Y259450I4200*
G01*
G75*
G02X304600Y255250J-4200*
G01*
X329143*
G37*
X371050D02*
G36*
X395000D01*
Y265250*
X331658*
X331350Y264942*
Y263558*
X335208Y259700*
X336680*
G75*
G02X344120I3720J-1950*
G01*
X345742*
G75*
G02X347121Y259129I0J-1950*
G01*
X349208Y257043*
X359790*
Y263577*
X371050*
Y255250*
G37*
X147200Y275250D02*
G36*
X64600D01*
G75*
G02X60400Y271050I-4200*
G01*
G75*
G02X56200Y275250J4200*
G01*
X54600*
G75*
G02X50400Y271050I-4200*
G01*
G75*
G02X46200Y275250J4200*
G01*
X5800*
Y265250*
X46200*
G75*
G02X50400Y269450I4200*
G01*
G75*
G02X54600Y265250J-4200*
G01*
X56200*
G75*
G02X60400Y269450I4200*
G01*
G75*
G02X64600Y265250J-4200*
G01*
X147200*
Y275250*
G37*
X322210D02*
G36*
X304600D01*
G75*
G02X300400Y271050I-4200*
G01*
G75*
G02X296200Y275250J4200*
G01*
X294600*
G75*
G02X290400Y271050I-4200*
G01*
G75*
G02X286200Y275250J4200*
G01*
X157600*
Y265250*
X286200*
G75*
G02X290400Y269450I4200*
G01*
G75*
G02X294600Y265250J-4200*
G01*
X296200*
G75*
G02X300400Y269450I4200*
G01*
G75*
G02X304600Y265250J-4200*
G01*
X324142*
X322781Y266611*
G75*
G02X322210Y267990I1378J1379*
G01*
Y275250*
G37*
X391227D02*
G36*
Y269246D01*
X357329*
Y275250*
X333590*
Y267990*
G75*
G02X333019Y266611I-1950*
G01*
X331658Y265250*
X395000*
Y275250*
X391227*
G37*
X147200Y285250D02*
G36*
X64600D01*
G75*
G02X60400Y281050I-4200*
G01*
G75*
G02X56200Y285250J4200*
G01*
X54600*
G75*
G02X50400Y281050I-4200*
G01*
G75*
G02X46200Y285250J4200*
G01*
X5800*
Y275250*
X46200*
G75*
G02X50400Y279450I4200*
G01*
G75*
G02X54600Y275250J-4200*
G01*
X56200*
G75*
G02X60400Y279450I4200*
G01*
G75*
G02X64600Y275250J-4200*
G01*
X147200*
Y285250*
G37*
X321778D02*
G36*
X304600D01*
G75*
G02X300400Y281050I-4200*
G01*
G75*
G02X296200Y285250J4200*
G01*
X294600*
G75*
G02X290400Y281050I-4200*
G01*
G75*
G02X286200Y285250J4200*
G01*
X157600*
Y275250*
X286200*
G75*
G02X290400Y279450I4200*
G01*
G75*
G02X294600Y275250J-4200*
G01*
X296200*
G75*
G02X300400Y279450I4200*
G01*
G75*
G02X304600Y275250J-4200*
G01*
X322210*
Y279266*
X321778*
Y285250*
G37*
X334022D02*
G36*
Y279266D01*
X333590*
Y275250*
X357329*
Y279719*
X391227*
Y275250*
X395000*
Y285250*
X334022*
G37*
X147200Y295250D02*
G36*
X64600D01*
G75*
G02X60400Y291050I-4200*
G01*
G75*
G02X56200Y295250J4200*
G01*
X54600*
G75*
G02X50400Y291050I-4200*
G01*
G75*
G02X46200Y295250J4200*
G01*
X5800*
Y285250*
X46200*
G75*
G02X50400Y289450I4200*
G01*
G75*
G02X54600Y285250J-4200*
G01*
X56200*
G75*
G02X60400Y289450I4200*
G01*
G75*
G02X64600Y285250J-4200*
G01*
X147200*
Y295250*
G37*
X334022D02*
G36*
Y289108D01*
X321778*
Y295250*
X304600*
G75*
G02X300400Y291050I-4200*
G01*
G75*
G02X296200Y295250J4200*
G01*
X294600*
G75*
G02X290400Y291050I-4200*
G01*
G75*
G02X286200Y295250J4200*
G01*
X157600*
Y285250*
X286200*
G75*
G02X290400Y289450I4200*
G01*
G75*
G02X294600Y285250J-4200*
G01*
X296200*
G75*
G02X300400Y289450I4200*
G01*
G75*
G02X304600Y285250J-4200*
G01*
X321778*
Y286392*
X334022*
Y285250*
X395000*
Y295250*
X334022*
G37*
X147200Y305250D02*
G36*
X64600D01*
G75*
G02X60400Y301050I-4200*
G01*
G75*
G02X56200Y305250J4200*
G01*
X54600*
G75*
G02X50400Y301050I-4200*
G01*
G75*
G02X46200Y305250J4200*
G01*
X5800*
Y295250*
X46200*
G75*
G02X50400Y299450I4200*
G01*
G75*
G02X54600Y295250J-4200*
G01*
X56200*
G75*
G02X60400Y299450I4200*
G01*
G75*
G02X64600Y295250J-4200*
G01*
X147200*
Y305250*
G37*
X321778Y295250D02*
G36*
Y296234D01*
X322450*
Y296750*
G75*
G02X323021Y298129I1950*
G01*
X324690Y299798*
Y305250*
X304600*
G75*
G02X300400Y301050I-4200*
G01*
G75*
G02X296200Y305250J4200*
G01*
X294600*
G75*
G02X290400Y301050I-4200*
G01*
G75*
G02X286200Y305250J4200*
G01*
X157600*
Y295250*
X286200*
G75*
G02X290400Y299450I4200*
G01*
G75*
G02X294600Y295250J-4200*
G01*
X296200*
G75*
G02X300400Y299450I4200*
G01*
G75*
G02X304600Y295250J-4200*
G01*
X321778*
G37*
X334022D02*
G36*
X395000D01*
Y305250*
X331350*
Y299558*
X333019Y297889*
G75*
G02X333590Y296510I-1378J-1379*
G01*
Y296234*
X334022*
Y295250*
G37*
X46200Y315250D02*
G36*
X5800D01*
Y305250*
X46200*
G75*
G02X50400Y309450I4200*
G01*
G75*
G02X54600Y305250J-4200*
G01*
X56200*
G75*
G02X57802Y308550I4200*
G01*
X56900*
G75*
G02X56050Y308902I1J1202*
G01*
X53552Y311400*
G75*
G02X53207Y312125I846J848*
G01*
G75*
G02X46200Y315250I-2806J3125*
G01*
G37*
X147200Y305250D02*
G36*
Y306253D01*
X144903Y308550*
X62998*
G75*
G02X64600Y305250I-2598J-3300*
G01*
X147200*
G37*
X324690Y315250D02*
G36*
X304600D01*
G75*
G02X300400Y311050I-4200*
G01*
G75*
G02X296200Y315250J4200*
G01*
X294600*
G75*
G02X290400Y311050I-4200*
G01*
G75*
G02X286200Y315250J4200*
G01*
X157600*
Y305250*
X286200*
G75*
G02X290400Y309450I4200*
G01*
G75*
G02X294600Y305250J-4200*
G01*
X296200*
G75*
G02X300400Y309450I4200*
G01*
G75*
G02X304600Y305250J-4200*
G01*
X324690*
Y315250*
G37*
X331350D02*
G36*
Y305250D01*
X395000*
Y315250*
X331350*
G37*
X46200D02*
G36*
G75*
G02X53207Y318375I4200D01*
G01*
G75*
G02X53552Y319100I1191J-123*
G01*
X56050Y321598*
G75*
G02X56900Y321950I850J-850*
G01*
X57802*
G75*
G02X56200Y325250I2598J3300*
G01*
X54600*
G75*
G02X50400Y321050I-4200*
G01*
G75*
G02X46200Y325250J4200*
G01*
X5800*
Y315250*
X46200*
G37*
X324690Y325250D02*
G36*
X304600D01*
G75*
G02X300400Y321050I-4200*
G01*
G75*
G02X296200Y325250J4200*
G01*
X294600*
G75*
G02X290400Y321050I-4200*
G01*
G75*
G02X286200Y325250J4200*
G01*
X64600*
G75*
G02X62998Y321950I-4200*
G01*
X152400*
G75*
G02X153250Y321598I-1J-1202*
G01*
X157248Y317600*
G75*
G02X157600Y316750I-850J-850*
G01*
Y315250*
X286200*
G75*
G02X290400Y319450I4200*
G01*
G75*
G02X294600Y315250J-4200*
G01*
X296200*
G75*
G02X300400Y319450I4200*
G01*
G75*
G02X304600Y315250J-4200*
G01*
X324690*
Y325250*
G37*
X331350D02*
G36*
Y315250D01*
X395000*
Y325250*
X331350*
G37*
X324142Y335250D02*
G36*
X308657D01*
X307279Y333871*
G75*
G02X305900Y333300I-1379J1378*
G01*
X304120*
G75*
G02X296200Y335250I-3720J1950*
G01*
X294600*
G75*
G02X290400Y331050I-4200*
G01*
G75*
G02X286200Y335250J4200*
G01*
X64600*
G75*
G02X60400Y331050I-4200*
G01*
G75*
G02X56200Y335250J4200*
G01*
X54600*
G75*
G02X50400Y331050I-4200*
G01*
G75*
G02X46200Y335250J4200*
G01*
X5800*
Y325250*
X46200*
G75*
G02X50400Y329450I4200*
G01*
G75*
G02X54600Y325250J-4200*
G01*
X56200*
G75*
G02X60400Y329450I4200*
G01*
G75*
G02X64600Y325250J-4200*
G01*
X286200*
G75*
G02X290400Y329450I4200*
G01*
G75*
G02X294600Y325250J-4200*
G01*
X296200*
G75*
G02X300400Y329450I4200*
G01*
G75*
G02X304600Y325250J-4200*
G01*
X324690*
Y334702*
X324142Y335250*
G37*
X331350D02*
G36*
Y325250D01*
X395000*
Y335250*
X331350*
G37*
X296200D02*
G36*
G75*
G02X304120Y337200I4200D01*
G01*
X305092*
X307943Y340051*
G75*
G02X307521Y340371I946J1683*
G01*
X304592Y343300*
X304120*
G75*
G02X296200Y345250I-3720J1950*
G01*
X294600*
G75*
G02X290400Y341050I-4200*
G01*
G75*
G02X286200Y345250J4200*
G01*
X64600*
G75*
G02X60400Y341050I-4200*
G01*
G75*
G02X56200Y345250J4200*
G01*
X54600*
G75*
G02X50400Y341050I-4200*
G01*
G75*
G02X46200Y345250J4200*
G01*
X5800*
Y335250*
X46200*
G75*
G02X50400Y339450I4200*
G01*
G75*
G02X54600Y335250J-4200*
G01*
X56200*
G75*
G02X60400Y339450I4200*
G01*
G75*
G02X64600Y335250J-4200*
G01*
X286200*
G75*
G02X290400Y339450I4200*
G01*
G75*
G02X294600Y335250J-4200*
G01*
X296200*
G37*
X331350D02*
G36*
X395000D01*
Y345250*
X308157*
X309708Y343700*
X324400*
G75*
G02X325779Y343129I0J-1950*
G01*
X330779Y338129*
G75*
G02X331350Y336750I-1378J-1379*
G01*
Y335250*
G37*
X324142D02*
G36*
X322592Y336800D01*
X310208*
X308657Y335250*
X324142*
G37*
X308157Y345250D02*
G36*
X395000D01*
Y355250*
X304600*
G75*
G02X300400Y351050I-4200*
G01*
G75*
G02X296200Y355250J4200*
G01*
X294600*
G75*
G02X290400Y351050I-4200*
G01*
G75*
G02X286200Y355250J4200*
G01*
X64600*
G75*
G02X60400Y351050I-4200*
G01*
G75*
G02X56200Y355250J4200*
G01*
X54600*
G75*
G02X50400Y351050I-4200*
G01*
G75*
G02X46200Y355250J4200*
G01*
X5800*
Y345250*
X46200*
G75*
G02X50400Y349450I4200*
G01*
G75*
G02X54600Y345250J-4200*
G01*
X56200*
G75*
G02X60400Y349450I4200*
G01*
G75*
G02X64600Y345250J-4200*
G01*
X286200*
G75*
G02X290400Y349450I4200*
G01*
G75*
G02X294600Y345250J-4200*
G01*
X296200*
G75*
G02X304120Y347200I4200*
G01*
X305400*
G75*
G02X306779Y346629I0J-1950*
G01*
X308157Y345250*
G37*
X5800Y365250D02*
G36*
Y355250D01*
X46200*
G75*
G02X50400Y359450I4200*
G01*
G75*
G02X54600Y355250J-4200*
G01*
X56200*
G75*
G02X60400Y359450I4200*
G01*
G75*
G02X64600Y355250J-4200*
G01*
X286200*
G75*
G02X290400Y359450I4200*
G01*
G75*
G02X294600Y355250J-4200*
G01*
X296200*
G75*
G02X300400Y359450I4200*
G01*
G75*
G02X304600Y355250J-4200*
G01*
X395000*
Y365250*
X304600*
G75*
G02X300400Y361050I-4200*
G01*
G75*
G02X296200Y365250J4200*
G01*
X294600*
G75*
G02X290400Y361050I-4200*
G01*
G75*
G02X286200Y365250J4200*
G01*
X64600*
G75*
G02X60400Y361050I-4200*
G01*
G75*
G02X56200Y365250J4200*
G01*
X54600*
G75*
G02X50400Y361050I-4200*
G01*
G75*
G02X46200Y365250J4200*
G01*
X5800*
G37*
Y375250D02*
G36*
Y365250D01*
X46200*
G75*
G02X50400Y369450I4200*
G01*
G75*
G02X54600Y365250J-4200*
G01*
X56200*
G75*
G02X60400Y369450I4200*
G01*
G75*
G02X64600Y365250J-4200*
G01*
X286200*
G75*
G02X290400Y369450I4200*
G01*
G75*
G02X294600Y365250J-4200*
G01*
X296200*
G75*
G02X300400Y369450I4200*
G01*
G75*
G02X304600Y365250J-4200*
G01*
X395000*
Y375250*
X304600*
G75*
G02X300400Y371050I-4200*
G01*
G75*
G02X296200Y375250J4200*
G01*
X294600*
G75*
G02X290400Y371050I-4200*
G01*
G75*
G02X286200Y375250J4200*
G01*
X64600*
G75*
G02X60400Y371050I-4200*
G01*
G75*
G02X56200Y375250J4200*
G01*
X54600*
G75*
G02X50400Y371050I-4200*
G01*
G75*
G02X46200Y375250J4200*
G01*
X5800*
G37*
Y385250D02*
G36*
Y375250D01*
X46200*
G75*
G02X50400Y379450I4200*
G01*
G75*
G02X54600Y375250J-4200*
G01*
X56200*
G75*
G02X60400Y379450I4200*
G01*
G75*
G02X64600Y375250J-4200*
G01*
X286200*
G75*
G02X290400Y379450I4200*
G01*
G75*
G02X294600Y375250J-4200*
G01*
X296200*
G75*
G02X300400Y379450I4200*
G01*
G75*
G02X304600Y375250J-4200*
G01*
X395000*
Y385250*
X304600*
G75*
G02X300400Y381050I-4200*
G01*
G75*
G02X296200Y385250J4200*
G01*
X294600*
G75*
G02X290400Y381050I-4200*
G01*
G75*
G02X286200Y385250J4200*
G01*
X64600*
G75*
G02X60400Y381050I-4200*
G01*
G75*
G02X56200Y385250J4200*
G01*
X54600*
G75*
G02X50400Y381050I-4200*
G01*
G75*
G02X46200Y385250J4200*
G01*
X5800*
G37*
X371713Y395250D02*
G36*
X304600D01*
G75*
G02X300400Y391050I-4200*
G01*
G75*
G02X296200Y395250J4200*
G01*
X294600*
G75*
G02X290400Y391050I-4200*
G01*
G75*
G02X286200Y395250J4200*
G01*
X64600*
G75*
G02X60400Y391050I-4200*
G01*
G75*
G02X56200Y395250J4200*
G01*
X54600*
G75*
G02X50400Y391050I-4200*
G01*
G75*
G02X46200Y395250J4200*
G01*
X29087*
G75*
G02X5800Y394791I-11758J5571*
G01*
Y385250*
X46200*
G75*
G02X50400Y389450I4200*
G01*
G75*
G02X54600Y385250J-4200*
G01*
X56200*
G75*
G02X60400Y389450I4200*
G01*
G75*
G02X64600Y385250J-4200*
G01*
X286200*
G75*
G02X290400Y389450I4200*
G01*
G75*
G02X294600Y385250J-4200*
G01*
X296200*
G75*
G02X300400Y389450I4200*
G01*
G75*
G02X304600Y385250J-4200*
G01*
X395000*
Y394791*
G75*
G02X371713Y395250I-11530J6030*
G01*
G37*
X377441Y412350D02*
G36*
X23359D01*
G75*
G02X30340Y400821I-6030J-11529*
G01*
Y400821*
G75*
G02X29087Y395250I-13011J0*
G01*
X46200*
G75*
G02X50400Y399450I4200*
G01*
G75*
G02X54600Y395250J-4200*
G01*
X56200*
G75*
G02X60400Y399450I4200*
G01*
G75*
G02X64600Y395250J-4200*
G01*
X286200*
G75*
G02X290400Y399450I4200*
G01*
G75*
G02X294600Y395250J-4200*
G01*
X296200*
G75*
G02X300400Y399450I4200*
G01*
G75*
G02X304600Y395250J-4200*
G01*
X371713*
G75*
G02X370460Y400821I11758J5571*
G01*
G75*
G02X377441Y412350I13011*
G01*
G37*
D02*
D13*
X30400Y97750D03*
Y107750D03*
Y117750D03*
Y127750D03*
Y137750D03*
X50400Y215250D03*
Y225250D03*
Y235250D03*
Y245250D03*
Y255250D03*
Y265250D03*
Y275250D03*
Y285250D03*
Y295250D03*
Y305250D03*
Y315250D03*
Y325250D03*
Y335250D03*
Y345250D03*
Y355250D03*
Y365250D03*
Y375250D03*
Y385250D03*
Y395250D03*
X60400Y215250D03*
Y225250D03*
Y235250D03*
Y245250D03*
Y255250D03*
Y265250D03*
Y275250D03*
Y285250D03*
Y295250D03*
Y305250D03*
Y315250D03*
Y325250D03*
Y335250D03*
Y345250D03*
Y355250D03*
Y365250D03*
Y375250D03*
Y385250D03*
Y395250D03*
X70400Y97750D03*
Y107750D03*
Y117750D03*
Y127750D03*
Y137750D03*
X129587Y52750D03*
X134987Y42750D03*
X140387Y52750D03*
X145787Y42750D03*
X151187Y52750D03*
X153156Y77750D03*
X156587Y42750D03*
X161987Y52750D03*
X163156Y77750D03*
X167387Y42750D03*
X172787Y52750D03*
X260400Y36750D03*
Y46750D03*
X270400Y36750D03*
Y46750D03*
X280400Y36750D03*
Y46750D03*
X290400Y36750D03*
Y46750D03*
Y215250D03*
Y225250D03*
Y235250D03*
Y245250D03*
Y255250D03*
Y265250D03*
Y275250D03*
Y285250D03*
Y295250D03*
Y305250D03*
Y315250D03*
Y325250D03*
Y335250D03*
Y345250D03*
Y355250D03*
Y365250D03*
Y375250D03*
Y385250D03*
Y395250D03*
X300400Y215250D03*
Y225250D03*
Y235250D03*
Y245250D03*
Y255250D03*
Y265250D03*
Y275250D03*
Y285250D03*
Y295250D03*
Y305250D03*
Y315250D03*
Y325250D03*
Y335250D03*
Y345250D03*
Y355250D03*
Y365250D03*
Y375250D03*
Y385250D03*
Y395250D03*
X320400Y36750D03*
Y46750D03*
X329400Y104750D03*
X330400Y36750D03*
Y46750D03*
X339400Y104750D03*
X340400Y36750D03*
Y46750D03*
Y247750D03*
Y257750D03*
X350400Y36750D03*
Y46750D03*
D02*
D16*
X300400Y345250D02*
X305400D01*
X308900Y341750*
X324400*
X329400Y336750*
Y298750*
X331640Y296510*
Y292671*
X324160D02*
X324400D01*
Y296750*
X326640Y298990*
Y335510*
X323400Y338750*
X309400*
X305900Y335250*
X300400*
X327900Y274750D02*
Y282829D01*
X340400Y247750D02*
X339400D01*
X326400Y260750*
Y265750*
X324160Y267990*
Y282829*
X340400Y257750D02*
X334400D01*
X329400Y262750*
Y265750*
X331640Y267990*
Y282829*
X341250Y198750D02*
X341400Y198600D01*
X365420Y251943D02*
X349400D01*
X345207Y247750*
X340400*
X365420Y255093D02*
X348400D01*
X345743Y257750*
X340400*
D02*
D19*
X330090Y277750D02*
X325710D01*
Y268632*
X327496Y266846*
G75*
G02X327584Y266750I-1097J-1095*
G01*
X328216*
G75*
G02X328304Y266846I1185J-1000*
G01*
X330090Y268632*
Y277750*
G36*
X325710*
Y268632*
X327496Y266846*
G75*
G02X327584Y266750I-1097J-1095*
G01*
X328216*
G75*
G02X328304Y266846I1185J-1000*
G01*
X330090Y268632*
Y277750*
G37*
X353400Y240750D02*
Y220750D01*
X395800*
Y285750*
X392061*
G75*
G02X388739I-1661J2000*
G01*
X353400*
Y266750*
X354400Y265750*
X391400*
X392400Y264750*
Y243750*
X391400Y242750*
X355400*
X353400Y240750*
X357530Y279518D02*
X391026D01*
Y269447*
X357530*
Y279518*
Y240738D02*
X391026D01*
Y230667*
X357530*
Y240738*
X395800Y235703D02*
G36*
X391026D01*
Y230667*
X357530*
Y235703*
X353400*
Y220750*
X395800*
Y235703*
G37*
Y274482D02*
G36*
X391026D01*
Y269447*
X357530*
Y274482*
X353400*
Y266750*
X354400Y265750*
X391400*
X392400Y264750*
Y243750*
X391400Y242750*
X355400*
X353400Y240750*
Y235703*
X357530*
Y240738*
X391026*
Y235703*
X395800*
Y274482*
G37*
X353400D02*
G36*
X357530D01*
Y279518*
X391026*
Y274482*
X395800*
Y285750*
X392061*
G75*
G02X388739I-1661J2000*
G01*
X353400*
Y274482*
G37*
X364400Y116750D02*
X363400Y117750D01*
X356400*
X355400Y116750*
Y115419*
X355821*
Y110081*
X355400*
Y107419*
X355821*
Y102081*
X355400*
Y93419*
X355821*
Y88081*
X355400*
Y84750*
X354400Y83750*
X262400*
X260400Y85750*
Y134750*
X257400Y137750*
X158400*
X156400Y139750*
Y316750*
X152400Y320750*
X56900*
X54400Y318250*
Y312250*
X56900Y309750*
X145400*
X148400Y306750*
Y131750*
X150400Y129750*
X250400*
X252400Y127750*
Y79750*
X254400Y77750*
X362400*
X364400Y79750*
Y116750*
X356979Y93419D02*
X362120D01*
Y88081*
X356979*
Y93419*
Y107419D02*
X362120D01*
Y102081*
X356979*
Y107419*
Y115419D02*
X362120D01*
Y110081*
X356979*
Y115419*
X56600Y315250D02*
G75*
G02X64200I3800D01*
G01*
G75*
G02X56600I-3800*
G01*
X364400Y90750D02*
G36*
X362120D01*
Y88081*
X356979*
Y90750*
X355821*
Y88081*
X355400*
Y84750*
X354400Y83750*
X262400*
X260400Y85750*
Y90750*
X252400*
Y79750*
X254400Y77750*
X362400*
X364400Y79750*
Y90750*
G37*
X260400Y104750D02*
G36*
X252400D01*
Y90750*
X260400*
Y104750*
G37*
X364400D02*
G36*
X362120D01*
Y102081*
X356979*
Y104750*
X355821*
Y102081*
X355400*
Y93419*
X355821*
Y90750*
X356979*
Y93419*
X362120*
Y90750*
X364400*
Y104750*
G37*
X260400Y112750D02*
G36*
X252400D01*
Y104750*
X260400*
Y112750*
G37*
X364400D02*
G36*
X362120D01*
Y110081*
X356979*
Y112750*
X355821*
Y110081*
X355400*
Y107419*
X355821*
Y104750*
X356979*
Y107419*
X362120*
Y104750*
X364400*
Y112750*
G37*
X156400Y315250D02*
G36*
X64200D01*
G75*
G02X56600I-3800*
G01*
X54400*
Y312250*
X56900Y309750*
X145400*
X148400Y306750*
Y131750*
X150400Y129750*
X250400*
X252400Y127750*
Y112750*
X260400*
Y134750*
X257400Y137750*
X158400*
X156400Y139750*
Y315250*
G37*
X364400Y116750D02*
G36*
X363400Y117750D01*
X356400*
X355400Y116750*
Y115419*
X355821*
Y112750*
X356979*
Y115419*
X362120*
Y112750*
X364400*
Y116750*
G37*
X152400Y320750D02*
G36*
X56900D01*
X54400Y318250*
Y315250*
X56600*
G75*
G02X64200I3800*
G01*
X156400*
Y316750*
X152400Y320750*
G37*
X372400Y248750D02*
X371400Y249750D01*
X370648*
Y247010*
X360191*
Y249750*
X350400*
X337400Y236750*
Y222750*
X339400Y220750*
X351400*
X352400Y221750*
Y233750*
X351400Y234750*
X349400*
X348400Y235750*
Y237750*
X354400Y243750*
X371400*
X372400Y244750*
Y248750*
X339455Y234289D02*
X345187D01*
Y225211*
X339455*
Y234289*
X352400Y229750D02*
G36*
X345187D01*
Y225211*
X339455*
Y229750*
X337400*
Y222750*
X339400Y220750*
X351400*
X352400Y221750*
Y229750*
G37*
X371400Y249750D02*
G36*
X370648D01*
Y247010*
X360191*
Y249750*
X350400*
X337400Y236750*
Y229750*
X339455*
Y234289*
X345187*
Y229750*
X352400*
Y233750*
X351400Y234750*
X349400*
X348400Y235750*
Y237750*
X354400Y243750*
X371400*
X372400Y244750*
Y248750*
X371400Y249750*
G37*
D02*
D71*
X27900Y97750D02*
X26100D01*
X27900Y107750D02*
X26100D01*
X27900Y117750D02*
X26100D01*
X27900Y127750D02*
X26100D01*
X27900Y137750D02*
X26100D01*
X30400Y95250D02*
Y93450D01*
Y100250D02*
Y102050D01*
Y105250D02*
Y103450D01*
Y110250D02*
Y112050D01*
Y115250D02*
Y113450D01*
Y120250D02*
Y122050D01*
Y125250D02*
Y123450D01*
Y130250D02*
Y132050D01*
Y135250D02*
Y133450D01*
Y140250D02*
Y142050D01*
X32900Y97750D02*
X34700D01*
X32900Y107750D02*
X34700D01*
X32900Y117750D02*
X34700D01*
X32900Y127750D02*
X34700D01*
X32900Y137750D02*
X34700D01*
X47900Y305250D02*
X46100D01*
X50400Y302750D02*
Y300950D01*
Y307750D02*
Y309550D01*
X52900Y305250D02*
X54700D01*
X57900Y295250D02*
X56100D01*
X57900Y305250D02*
X56100D01*
X57900Y315250D02*
X56100D01*
X57900Y365250D02*
X56100D01*
X60400Y292750D02*
Y290950D01*
Y297750D02*
Y299550D01*
Y302750D02*
Y300950D01*
Y312750D02*
Y310950D01*
Y317750D02*
Y319550D01*
Y362750D02*
Y360950D01*
Y367750D02*
Y369550D01*
X62900Y295250D02*
X64700D01*
X62900Y305250D02*
X64700D01*
X62900Y315250D02*
X64700D01*
X62900Y365250D02*
X64700D01*
X67900Y97750D02*
X66100D01*
X67900Y107750D02*
X66100D01*
X67900Y117750D02*
X66100D01*
X67900Y127750D02*
X66100D01*
X67900Y137750D02*
X66100D01*
X70400Y95250D02*
Y93450D01*
Y100250D02*
Y102050D01*
Y105250D02*
Y103450D01*
Y110250D02*
Y112050D01*
Y115250D02*
Y113450D01*
Y120250D02*
Y122050D01*
Y125250D02*
Y123450D01*
Y130250D02*
Y132050D01*
Y135250D02*
Y133450D01*
Y140250D02*
Y142050D01*
X72900Y97750D02*
X74700D01*
X72900Y107750D02*
X74700D01*
X72900Y117750D02*
X74700D01*
X72900Y127750D02*
X74700D01*
X72900Y137750D02*
X74700D01*
X148687Y52750D02*
X146887D01*
X151187Y50250D02*
Y48450D01*
Y55250D02*
Y57050D01*
X153687Y52750D02*
X155487D01*
X257900Y36750D02*
X256100D01*
X260400Y34250D02*
Y32450D01*
Y39250D02*
Y41050D01*
X262900Y36750D02*
X264700D01*
X267900D02*
X266100D01*
X270400Y34250D02*
Y32450D01*
Y39250D02*
Y41050D01*
X272900Y36750D02*
X274700D01*
X277900D02*
X276100D01*
X280400Y34250D02*
Y32450D01*
Y39250D02*
Y41050D01*
X282900Y36750D02*
X284700D01*
X287900D02*
X286100D01*
X287900Y355250D02*
X286100D01*
X290400Y34250D02*
Y32450D01*
Y39250D02*
Y41050D01*
Y225250D02*
X295400Y220250D01*
Y121750*
X299400Y117750*
X344400*
X290400Y352750D02*
Y350950D01*
Y357750D02*
Y359550D01*
X292900Y36750D02*
X294700D01*
X292900Y355250D02*
X294700D01*
X297900Y245250D02*
X296100D01*
X297900Y305250D02*
X296100D01*
X300400Y235250D02*
X324900D01*
X326400Y233750*
Y200250*
X327900Y198750*
X341250*
X300400Y242750D02*
Y240950D01*
Y247750D02*
Y249550D01*
Y302750D02*
Y300950D01*
Y307750D02*
Y309550D01*
X302900Y245250D02*
X304700D01*
X302900Y305250D02*
X304700D01*
X317900Y36750D02*
X316100D01*
X320400Y34250D02*
Y32450D01*
Y39250D02*
Y41050D01*
X322900Y36750D02*
X324700D01*
X327900D02*
X326100D01*
X327900Y290809D02*
Y289010D01*
X329400Y104750D02*
X267400D01*
X330400Y34250D02*
Y32450D01*
Y39250D02*
Y41050D01*
X330912Y229750D02*
X329113D01*
X332479Y226510D02*
Y224711D01*
Y232990D02*
Y234789D01*
X332900Y36750D02*
X334700D01*
X334046Y229750D02*
X335845D01*
X337900Y36750D02*
X336100D01*
X339400Y104750D02*
X331400Y96750D01*
X271400*
X339400Y104750D02*
X353250D01*
X340030Y204900D02*
X338231D01*
X340400Y34250D02*
Y32450D01*
Y39250D02*
Y41050D01*
X340754Y229750D02*
X338955D01*
X341400Y203628D02*
Y201829D01*
Y206171D02*
Y207970D01*
X342321Y226510D02*
Y224711D01*
Y232990D02*
Y234789D01*
X342770Y204900D02*
X344569D01*
X342900Y36750D02*
X344700D01*
X343400Y90750D02*
X284400D01*
X343400D02*
X353250D01*
X343888Y229750D02*
X345687D01*
X347900Y36750D02*
X346100D01*
X349400Y198600D02*
X341400D01*
X349400Y226750D02*
Y204900D01*
X350400Y34250D02*
Y32450D01*
Y39250D02*
Y41050D01*
X352900Y36750D02*
X354700D01*
X353250Y112750D02*
X337400D01*
X329400Y104750*
X358278Y90750D02*
X356479D01*
X358278Y104750D02*
X356479D01*
X358278Y112750D02*
X356479D01*
X359030Y235703D02*
X357231D01*
X359030Y274482D02*
X357231D01*
X359550Y89380D02*
Y87581D01*
Y92120D02*
Y93919D01*
Y103380D02*
Y101581D01*
Y106120D02*
Y107919D01*
Y111380D02*
Y109581D01*
Y114120D02*
Y115919D01*
X360821Y90750D02*
X362620D01*
X360821Y104750D02*
X362620D01*
X360821Y112750D02*
X362620D01*
X361491Y248793D02*
X359691D01*
X361491Y261392D02*
X359691D01*
X365420Y232167D02*
Y230368D01*
Y239238D02*
Y241037D01*
Y248309D02*
Y246510D01*
Y261876D02*
Y263675D01*
Y270947D02*
Y269148D01*
Y278018D02*
Y279817D01*
X369349Y248793D02*
X371148D01*
X369349Y261392D02*
X371148D01*
X382152Y232167D02*
Y230368D01*
Y239238D02*
Y241037D01*
Y270947D02*
Y269148D01*
Y278018D02*
Y279817D01*
X389526Y235703D02*
X391325D01*
X389526Y274482D02*
X391325D01*
D02*
D76*
X360030Y235703D02*
X356030D01*
X360030Y274482D02*
X356030D01*
X365420Y233167D02*
Y229167D01*
Y271947D02*
Y267947D01*
Y277018D02*
Y281018D01*
X382152Y233167D02*
Y229167D01*
Y271947D02*
Y267947D01*
Y277018D02*
Y281018D01*
X388526Y235703D02*
X392526D01*
X388526Y274482D02*
X392526D01*
X390400Y287650D02*
Y283650D01*
D02*
D77*
X17329Y34679D03*
Y400821D03*
X383471Y34679D03*
Y400821D03*
D02*
D78*
X341400Y198600D03*
Y204900D03*
X349400Y198600D03*
Y204900D03*
D02*
D79*
X324160Y282829D03*
Y292671D03*
X327900Y282829D03*
Y292671D03*
X331640Y282829D03*
Y292671D03*
D02*
D80*
X365420Y248793D03*
Y251943D03*
Y255093D03*
Y258242D03*
Y261392D03*
D02*
D81*
Y235703D03*
Y274482D03*
D02*
D82*
X382152Y235703D03*
Y274482D03*
D02*
D83*
X332479Y229750D03*
X342321D03*
D02*
D84*
X101987Y47750D03*
X200387D03*
D02*
D85*
X353250Y90750D03*
Y104750D03*
Y112750D03*
X359550Y90750D03*
Y104750D03*
Y112750D03*
D02*
D86*
X10400Y67750D03*
Y167750D03*
Y267750D03*
Y367750D03*
X100400Y67750D03*
Y167750D03*
Y267750D03*
Y367750D03*
X139400Y117750D03*
X140400Y167750D03*
Y217750D03*
Y302750D03*
X150400Y327750D03*
Y407750D03*
X155900Y107500D03*
X160400Y132750D03*
X171400Y141750D03*
Y167750D03*
Y197750D03*
Y227750D03*
Y257750D03*
X171900Y107500D03*
X189400Y267750D03*
X190400Y78750D03*
Y117750D03*
Y167750D03*
Y217750D03*
Y292750D03*
X200400Y367750D03*
X220400Y322750D03*
X231400Y217750D03*
X239400Y317750D03*
X240400Y78750D03*
Y117750D03*
X250400Y352750D03*
Y407750D03*
X256400Y80750D03*
X263400Y86750D03*
Y100750D03*
X265400Y64750D03*
X267400Y104750D03*
X270400Y167750D03*
Y217750D03*
X271400Y96750D03*
X275400Y55750D03*
X277400Y379750D03*
X280400Y93750D03*
Y137750D03*
Y197750D03*
Y227750D03*
X283400Y64750D03*
X284400Y90750D03*
X291400Y167750D03*
X294400Y114750D03*
X300400Y122750D03*
Y137750D03*
Y197750D03*
X304400Y73750D03*
Y86750D03*
Y100750D03*
X308400Y258750D03*
X310400Y333750D03*
Y345750D03*
X316400Y139750D03*
Y167750D03*
Y197750D03*
Y227750D03*
Y249750D03*
X317400Y80750D03*
Y263750D03*
X318400Y287750D03*
X321400Y313750D03*
Y333750D03*
Y345750D03*
X323400Y231750D03*
Y240750D03*
X325400Y93750D03*
Y189750D03*
X327400Y63750D03*
Y128750D03*
X327900Y269750D03*
Y274750D03*
X330400Y202750D03*
X333400Y114750D03*
X334400Y313750D03*
Y333750D03*
X335400Y54750D03*
X336400Y239750D03*
X338400Y287750D03*
X343400Y90750D03*
Y217750D03*
X344400Y117750D03*
X345400Y63750D03*
X346400Y86750D03*
X347400Y108750D03*
X349400Y226750D03*
Y231750D03*
X350400Y97750D03*
Y121750D03*
Y407750D03*
X357400Y73750D03*
X360400Y217750D03*
X390400Y57750D03*
Y147750D03*
Y197750D03*
Y217750D03*
Y287750D03*
Y367750D03*
X0Y0D02*
M02*
