G04 EasyPC Gerber Version 21.0.3 Build 4286 *
%FSLAX35Y35*%
%MOIN*%
%ADD11C,0.00500*%
%ADD74C,0.00600*%
%ADD75C,0.00787*%
%ADD10C,0.00800*%
%ADD71C,0.01000*%
X0Y0D02*
D02*
D10*
X37400Y407750D02*
Y202750D01*
X90400*
X98400Y194750*
X220400*
X230400Y204750*
X313400*
Y407750*
X42900Y396250D02*
G75*
G03Y394250J-1000D01*
G01*
G75*
G03Y396250J1000*
G01*
G36*
G75*
G03Y394250J-1000*
G01*
G75*
G03Y396250J1000*
G01*
G37*
X45700Y209250D02*
Y401250D01*
X65200*
Y209250*
X45700*
X282900Y396250D02*
G75*
G03Y394250J-1000D01*
G01*
G75*
G03Y396250J1000*
G01*
G36*
G75*
G03Y394250J-1000*
G01*
G75*
G03Y396250J1000*
G01*
G37*
X285700Y209250D02*
Y401250D01*
X305200*
Y209250*
X285700*
D02*
D11*
X22900Y86813D02*
X23213Y86500D01*
X23837Y86187*
X24463Y86500*
X24775Y86813*
Y89937*
X25400*
X24775D02*
X23525D01*
X28837Y86187D02*
X29463Y86500D01*
X30087Y87125*
X30400Y88063*
Y89000*
X30087Y89625*
X29463Y89937*
X28837*
X28213Y89625*
X27900Y89000*
X28213Y88375*
X28837Y88063*
X29463*
X30087Y88375*
X30400Y89000*
X47587Y408063D02*
X48213Y407750D01*
X48525Y407125*
X48213Y406500*
X47587Y406187*
X45400*
Y409937*
X47587*
X48213Y409625*
X48525Y409000*
X48213Y408375*
X47587Y408063*
X45400*
X50400Y406187D02*
Y409937D01*
X52587*
X53213Y409625*
X53525Y409000*
X53213Y408375*
X52587Y408063*
X50400*
X52587D02*
X53525Y406187D01*
X55400D02*
Y409937D01*
X57275*
X57900Y409625*
X58213Y409313*
X58525Y408687*
Y407437*
X58213Y406813*
X57900Y406500*
X57275Y406187*
X55400*
X61025D02*
X62275D01*
X61650D02*
Y409937D01*
X61025Y409313*
X62900Y86813D02*
X63213Y86500D01*
X63837Y86187*
X64463Y86500*
X64775Y86813*
Y89937*
X65400*
X64775D02*
X63525D01*
X68837Y88063D02*
X69463D01*
X70087Y88375*
X70400Y89000*
X70087Y89625*
X69463Y89937*
X68837*
X68213Y89625*
X67900Y89000*
X68213Y88375*
X68837Y88063*
X68213Y87750*
X67900Y87125*
X68213Y86500*
X68837Y86187*
X69463*
X70087Y86500*
X70400Y87125*
X70087Y87750*
X69463Y88063*
X174837Y73750D02*
X175150Y74063D01*
X175463Y74687*
X175150Y75313*
X174837Y75625*
X171713*
Y76250*
Y75625D02*
Y74375D01*
X175463Y81250D02*
Y78750D01*
X173275Y80937*
X172650Y81250*
X172025Y80937*
X171713Y80313*
Y79375*
X172025Y78750*
X218837Y35875D02*
X219150Y35563D01*
X219463Y34937*
Y34000*
X219150Y33375*
X218837Y33063*
X218213Y32750*
X216963*
X216337Y33063*
X216025Y33375*
X215713Y34000*
Y34937*
X216025Y35563*
X216337Y35875*
X219463Y37750D02*
X215713D01*
X219463Y40875*
X215713*
X219463Y43375D02*
Y44625D01*
Y44000D02*
X215713D01*
X216337Y43375*
X251837Y43750D02*
X252150Y44063D01*
X252463Y44687*
X252150Y45313*
X251837Y45625*
X248713*
Y46250*
Y45625D02*
Y44375D01*
X251525Y48750D02*
X250900Y49063D01*
X250587Y49687*
Y50313*
X250900Y50937*
X251525Y51250*
X252150Y50937*
X252463Y50313*
Y49687*
X252150Y49063*
X251525Y48750*
X250587*
X249650Y49063*
X249025Y49687*
X248713Y50313*
X311837Y43750D02*
X312150Y44063D01*
X312463Y44687*
X312150Y45313*
X311837Y45625*
X308713*
Y46250*
Y45625D02*
Y44375D01*
X312150Y48750D02*
X312463Y49375D01*
Y50313*
X312150Y50937*
X311525Y51250*
X311213*
X310587Y50937*
X310275Y50313*
Y48750*
X308713*
Y51250*
X314837Y107750D02*
X315150Y108063D01*
X315463Y108687*
X315150Y109313*
X314837Y109625*
X311713*
Y110250*
Y109625D02*
Y108375D01*
X315463Y112750D02*
X311713Y115250D01*
Y112750*
X331837Y242750D02*
X332150Y243063D01*
X332463Y243687*
X332150Y244313*
X331837Y244625*
X328713*
Y245250*
Y244625D02*
Y243375D01*
X332150Y248063D02*
X332463Y248687D01*
Y249313*
X332150Y249937*
X331525Y250250*
X330900Y249937*
X330587Y249313*
Y248687*
Y249313D02*
X330275Y249937D01*
X329650Y250250*
X329025Y249937*
X328713Y249313*
Y248687*
X329025Y248063*
X334463Y214750D02*
X330713D01*
Y216625*
X331025Y217250*
X331337Y217563*
X331963Y217875*
X333213*
X333837Y217563*
X334150Y217250*
X334463Y216625*
Y214750*
Y222250D02*
Y219750D01*
X332275Y221937*
X331650Y222250*
X331025Y221937*
X330713Y221313*
Y220375*
X331025Y219750*
X340463Y292750D02*
X336713D01*
Y294625*
X337025Y295250*
X337337Y295563*
X337963Y295875*
X339213*
X339837Y295563*
X340150Y295250*
X340463Y294625*
Y292750*
Y298375D02*
Y299625D01*
Y299000D02*
X336713D01*
X337337Y298375*
X343463Y184750D02*
X339713D01*
Y186937*
X340025Y187563*
X340650Y187875*
X341275Y187563*
X341587Y186937*
Y184750*
Y186937D02*
X343463Y187875D01*
Y192250D02*
Y189750D01*
X341275Y191937*
X340650Y192250*
X340025Y191937*
X339713Y191313*
Y190375*
X340025Y189750*
X351463Y184750D02*
X347713D01*
Y186937*
X348025Y187563*
X348650Y187875*
X349275Y187563*
X349587Y186937*
Y184750*
Y186937D02*
X351463Y187875D01*
Y190375D02*
Y191625D01*
Y191000D02*
X347713D01*
X348337Y190375*
X365400Y88687D02*
Y92437D01*
X367587*
X368213Y92125*
X368525Y91500*
X368213Y90875*
X367587Y90563*
X365400*
X367587D02*
X368525Y88687D01*
X370400Y89625D02*
X370713Y90250D01*
X371337Y90563*
X371963*
X372587Y90250*
X372900Y89625*
X372587Y89000*
X371963Y88687*
X371337*
X370713Y89000*
X370400Y89625*
Y90563*
X370713Y91500*
X371337Y92125*
X371963Y92437*
X365400Y102687D02*
Y106437D01*
X367587*
X368213Y106125*
X368525Y105500*
X368213Y104875*
X367587Y104563*
X365400*
X367587D02*
X368525Y102687D01*
X371963D02*
Y106437D01*
X370400Y103937*
X372900*
X365400Y110687D02*
Y114437D01*
X367587*
X368213Y114125*
X368525Y113500*
X368213Y112875*
X367587Y112563*
X365400*
X367587D02*
X368525Y110687D01*
X370400Y111000D02*
X371025Y110687D01*
X371963*
X372587Y111000*
X372900Y111625*
Y111937*
X372587Y112563*
X371963Y112875*
X370400*
Y114437*
X372900*
X363837Y280750D02*
X364150Y281063D01*
X364463Y281687*
X364150Y282313*
X363837Y282625*
X360713*
Y283250*
Y282625D02*
Y281375D01*
X364463Y286375D02*
Y287625D01*
Y287000D02*
X360713D01*
X361337Y286375*
D02*
D71*
X22900Y138250D02*
G75*
G03Y137250J-500D01*
G01*
G75*
G03Y138250J500*
G01*
X25400Y142750D02*
Y92750D01*
X35400*
Y142750*
X25400*
X62900Y138250D02*
G75*
G03Y137250J-500D01*
G01*
G75*
G03Y138250J500*
G01*
X65400Y142750D02*
Y92750D01*
X75400*
Y142750*
X65400*
X95587Y57750D02*
X206787D01*
G75*
G02X211787Y52750J-5000*
G01*
Y6750*
X90587*
Y52750*
G75*
G02X95587Y57750I5000*
G01*
X118187Y6750D02*
Y2750D01*
X148156Y72750D02*
X168156D01*
Y82750*
X148156*
Y72750*
X152656Y70250D02*
G75*
G03X153656I500D01*
G01*
G75*
G03X152656I-500*
G01*
X184187Y6750D02*
Y2750D01*
X290900Y54250D02*
G75*
G03X289900I-500D01*
G01*
G75*
G03X290900I500*
G01*
X295400Y51750D02*
X255400D01*
Y31750*
X295400*
Y51750*
X324400Y99750D02*
X344400D01*
Y109750*
X324400*
Y99750*
X328900Y97250D02*
G75*
G03X329900I500D01*
G01*
G75*
G03X328900I-500*
G01*
X332900Y258250D02*
G75*
G03Y257250J-500D01*
G01*
G75*
G03Y258250J500*
G01*
X335400Y262750D02*
Y242750D01*
X345400*
Y262750*
X335400*
X350900Y54250D02*
G75*
G03X349900I-500D01*
G01*
G75*
G03X350900I500*
G01*
X355400Y51750D02*
X315400D01*
Y31750*
X355400*
Y51750*
D02*
D74*
X24150Y151750D02*
X24900Y152125D01*
X25275Y152875*
Y154375*
X24900Y155125*
X24150Y155500*
X23400Y155125*
X23025Y154375*
Y152875*
X22650Y152125*
X21900Y151750*
X21150Y152125*
X20775Y152875*
Y154375*
X21150Y155125*
X21900Y155500*
X25275Y159625D02*
X20775D01*
Y157750D02*
Y161500D01*
X25275Y163750D02*
X20775D01*
X23025Y165625*
X20775Y167500*
X25275*
X24900Y170125D02*
X25275Y170875D01*
Y171625*
X24900Y172375*
X24150Y172750*
X23400Y172375*
X23025Y171625*
Y170875*
Y171625D02*
X22650Y172375D01*
X21900Y172750*
X21150Y172375*
X20775Y171625*
Y170875*
X21150Y170125*
X25275Y178750D02*
Y175750D01*
X22650Y178375*
X21900Y178750*
X21150Y178375*
X20775Y177625*
Y176500*
X21150Y175750*
X25275Y181750D02*
X20775D01*
Y185500*
X23025Y184750D02*
Y181750D01*
X24900Y188125D02*
X25275Y188875D01*
Y189625*
X24900Y190375*
X24150Y190750*
X21900*
X21150Y190375*
X20775Y189625*
Y188875*
X21150Y188125*
X21900Y187750*
X24150*
X24900Y188125*
X21150Y190375*
X25275Y193750D02*
X20775Y196750D01*
Y193750*
X25275Y202750D02*
Y199750D01*
X22650Y202375*
X21900Y202750*
X21150Y202375*
X20775Y201625*
Y200500*
X21150Y199750*
X25275Y205750D02*
X20775D01*
Y208375*
X21150Y209125*
X21900Y209500*
X22650Y209125*
X23025Y208375*
Y205750*
Y208375D02*
X25275Y209500D01*
X23025Y214375D02*
X23400Y215125D01*
X24150Y215500*
X24900Y215125*
X25275Y214375*
Y211750*
X20775*
Y214375*
X21150Y215125*
X21900Y215500*
X22650Y215125*
X23025Y214375*
Y211750*
X25275Y219625D02*
X20775D01*
Y217750D02*
Y221500D01*
X24150Y223750D02*
X23400Y224125D01*
X23025Y224875*
Y225625*
X23400Y226375*
X24150Y226750*
X24900Y226375*
X25275Y225625*
Y224875*
X24900Y224125*
X24150Y223750*
X23025*
X21900Y224125*
X21150Y224875*
X20775Y225625*
Y235750D02*
X24150D01*
X24900Y236125*
X25275Y236875*
Y238375*
X24900Y239125*
X24150Y239500*
X20775*
X24150Y241750D02*
X24900Y242125D01*
X25275Y242875*
Y244375*
X24900Y245125*
X24150Y245500*
X23400Y245125*
X23025Y244375*
Y242875*
X22650Y242125*
X21900Y241750*
X21150Y242125*
X20775Y242875*
Y244375*
X21150Y245125*
X21900Y245500*
X23025Y250375D02*
X23400Y251125D01*
X24150Y251500*
X24900Y251125*
X25275Y250375*
Y247750*
X20775*
Y250375*
X21150Y251125*
X21900Y251500*
X22650Y251125*
X23025Y250375*
Y247750*
X25275Y253750D02*
X20775Y257500D01*
X24525Y263500D02*
X24900Y263125D01*
X25275Y262375*
Y261250*
X24900Y260500*
X24525Y260125*
X23775Y259750*
X22275*
X21525Y260125*
X21150Y260500*
X20775Y261250*
Y262375*
X21150Y263125*
X21525Y263500*
X25275Y265750D02*
X20775Y267625D01*
X25275Y269500*
X23400Y266500D02*
Y268750D01*
X25275Y271750D02*
X20775D01*
X25275Y275500*
X20775*
X25275Y283750D02*
X20775D01*
Y286375*
X21150Y287125*
X21900Y287500*
X22650Y287125*
X23025Y286375*
Y283750*
X25275Y289750D02*
X22275D01*
X23400D02*
X22650Y290125D01*
X22275Y290875*
Y291625*
X22650Y292375*
Y295750D02*
X22275Y296500D01*
Y297625*
X22650Y298375*
X23400Y298750*
X24525*
X24900Y298375*
X25275Y297625*
Y296875*
X24900Y296125*
X24525Y295750*
X24150*
X23775Y296125*
X23400Y296875*
Y297625*
X23775Y298375*
X24150Y298750*
X24525D02*
X25275D01*
X22650Y304750D02*
X22275Y304000D01*
Y302875*
X22650Y302125*
X23400Y301750*
X24150*
X24900Y302125*
X25275Y302875*
Y304000*
X24900Y304750*
X22275Y308500D02*
Y310000D01*
X21525Y309250D02*
X24900D01*
X25275Y309625*
Y310000*
X24900Y310375*
X25275Y315250D02*
X22275D01*
X21150D02*
X22650Y322750*
X22275Y322000D01*
Y320875*
X22650Y320125*
X23400Y319750*
X24150*
X24900Y320125*
X25275Y320875*
Y322000*
X24900Y322750*
Y328750D02*
X25275Y328375D01*
Y327625*
Y326875*
X24900Y326125*
X24150Y325750*
X23025*
X22650Y326125*
X22275Y326875*
Y327625*
X22650Y328375*
X23025Y328750*
X23400*
X23775Y328375*
X24150Y327625*
Y326875*
X23775Y326125*
X23400Y325750*
X25275Y337750D02*
X20775D01*
Y340375*
X21150Y341125*
X21900Y341500*
X22650Y341125*
X23025Y340375*
Y337750*
Y340375D02*
X25275Y341500D01*
X24900Y346750D02*
X25275Y346375D01*
Y345625*
Y344875*
X24900Y344125*
X24150Y343750*
X23025*
X22650Y344125*
X22275Y344875*
Y345625*
X22650Y346375*
X23025Y346750*
X23400*
X23775Y346375*
X24150Y345625*
Y344875*
X23775Y344125*
X23400Y343750*
X22275Y349750D02*
X25275Y351250D01*
X22275Y352750*
X25275Y356125D02*
X24900Y356500D01*
X24525Y356125*
X24900Y355750*
X25275Y356125*
Y361750D02*
X20775Y363625D01*
X25275Y365500*
X23400Y362500D02*
Y364750D01*
X44025Y115750D02*
X45150D01*
Y115375*
X44775Y114625*
X44400Y114250*
X43650Y113875*
X42900*
X42150Y114250*
X41775Y114625*
X41400Y115375*
Y116875*
X41775Y117625*
X42150Y118000*
X42900Y118375*
X43650*
X44400Y118000*
X44775Y117625*
X45150Y116875*
X47400Y113875D02*
Y118375D01*
X51150Y113875*
Y118375*
X53400Y113875D02*
Y118375D01*
X55650*
X56400Y118000*
X56775Y117625*
X57150Y116875*
Y115375*
X56775Y114625*
X56400Y114250*
X55650Y113875*
X53400*
X54400Y41875D02*
X51400D01*
X54025Y44500*
X54400Y45250*
X54025Y46000*
X53275Y46375*
X52150*
X51400Y46000*
X59275Y41875D02*
X59650Y42250D01*
X59275Y42625*
X58900Y42250*
X59275Y41875*
Y43750D02*
X59650Y44125D01*
X59275Y44500*
X58900Y44125*
X59275Y43750*
X67150Y42625D02*
X66775Y42250D01*
X66025Y41875*
X64900*
X64150Y42250*
X63775Y42625*
X63400Y43375*
Y44875*
X63775Y45625*
X64150Y46000*
X64900Y46375*
X66025*
X66775Y46000*
X67150Y45625*
X69400Y41875D02*
X71275Y46375D01*
X73150Y41875*
X70150Y43750D02*
X72400D01*
X75400Y41875D02*
Y46375D01*
X79150Y41875*
Y46375*
X81400D02*
Y41875D01*
X85150*
X51775Y35050D02*
X52525Y34675D01*
X53275*
X54025Y35050*
X54400Y35800*
X54025Y36550*
X53275Y36925*
X52525*
X53275D02*
X54025Y37300D01*
X54400Y38050*
X54025Y38800*
X53275Y39175*
X52525*
X51775Y38800*
X59275Y34675D02*
X59650Y35050D01*
X59275Y35425*
X58900Y35050*
X59275Y34675*
Y36550D02*
X59650Y36925D01*
X59275Y37300*
X58900Y36925*
X59275Y36550*
X66025D02*
X67150D01*
Y36175*
X66775Y35425*
X66400Y35050*
X65650Y34675*
X64900*
X64150Y35050*
X63775Y35425*
X63400Y36175*
Y37675*
X63775Y38425*
X64150Y38800*
X64900Y39175*
X65650*
X66400Y38800*
X66775Y38425*
X67150Y37675*
X69400Y34675D02*
Y39175D01*
X73150Y34675*
Y39175*
X75400Y34675D02*
Y39175D01*
X77650*
X78400Y38800*
X78775Y38425*
X79150Y37675*
Y36175*
X78775Y35425*
X78400Y35050*
X77650Y34675*
X75400*
X51400Y27475D02*
X54400Y31975D01*
X51400*
X59275Y27475D02*
X59650Y27850D01*
X59275Y28225*
X58900Y27850*
X59275Y27475*
Y29350D02*
X59650Y29725D01*
X59275Y30100*
X58900Y29725*
X59275Y29350*
X67150Y28225D02*
X66775Y27850D01*
X66025Y27475*
X64900*
X64150Y27850*
X63775Y28225*
X63400Y28975*
Y30475*
X63775Y31225*
X64150Y31600*
X64900Y31975*
X66025*
X66775Y31600*
X67150Y31225*
X69400Y27475D02*
X71275Y31975D01*
X73150Y27475*
X70150Y29350D02*
X72400D01*
X75400Y27475D02*
Y31975D01*
X79150Y27475*
Y31975*
X81400Y27475D02*
Y31975D01*
Y29725D02*
X85150D01*
Y27475D02*
Y31975D01*
X126400Y187875D02*
Y192375D01*
X130150Y187875*
Y192375*
X132400D02*
Y189000D01*
X132775Y188250*
X133525Y187875*
X135025*
X135775Y188250*
X136150Y189000*
Y192375*
X142150Y188625D02*
X141775Y188250D01*
X141025Y187875*
X139900*
X139150Y188250*
X138775Y188625*
X138400Y189375*
Y190875*
X138775Y191625*
X139150Y192000*
X139900Y192375*
X141025*
X141775Y192000*
X142150Y191625*
X144400Y192375D02*
Y187875D01*
X148150*
X150400D02*
Y192375D01*
X154150*
X153400Y190125D02*
X150400D01*
Y187875D02*
X154150D01*
X156400Y189375D02*
Y190875D01*
X156775Y191625*
X157150Y192000*
X157900Y192375*
X158650*
X159400Y192000*
X159775Y191625*
X160150Y190875*
Y189375*
X159775Y188625*
X159400Y188250*
X158650Y187875*
X157900*
X157150Y188250*
X156775Y188625*
X156400Y189375*
X162400D02*
X165400D01*
X168400Y187875D02*
Y192375D01*
X172150*
X171400Y190125D02*
X168400D01*
X174775Y188250D02*
X175525Y187875D01*
X176275*
X177025Y188250*
X177400Y189000*
Y191250*
X177025Y192000*
X176275Y192375*
X175525*
X174775Y192000*
X174400Y191250*
Y189000*
X174775Y188250*
X177025Y192000*
X180400Y187875D02*
X183400Y192375D01*
X180400*
X189400Y187875D02*
X186400D01*
X189025Y190500*
X189400Y191250*
X189025Y192000*
X188275Y192375*
X187150*
X186400Y192000*
X192400Y187875D02*
Y192375D01*
X195025*
X195775Y192000*
X196150Y191250*
X195775Y190500*
X195025Y190125*
X192400*
X195025D02*
X196150Y187875D01*
X201025Y190125D02*
X201775Y189750D01*
X202150Y189000*
X201775Y188250*
X201025Y187875*
X198400*
Y192375*
X201025*
X201775Y192000*
X202150Y191250*
X201775Y190500*
X201025Y190125*
X198400*
X138275Y74500D02*
Y76000D01*
Y75250D02*
X133775D01*
X134525Y74500*
X138275Y81625D02*
X137900Y82000D01*
X137525Y81625*
X137900Y81250*
X138275Y81625*
X136400D02*
X136025Y82000D01*
X135650Y81625*
X136025Y81250*
X136400Y81625*
X137525Y89500D02*
X137900Y89125D01*
X138275Y88375*
Y87250*
X137900Y86500*
X137525Y86125*
X136775Y85750*
X135275*
X134525Y86125*
X134150Y86500*
X133775Y87250*
Y88375*
X134150Y89125*
X134525Y89500*
X138275Y91750D02*
X133775Y93625D01*
X138275Y95500*
X136400Y92500D02*
Y94750D01*
X138275Y97750D02*
X133775D01*
X138275Y101500*
X133775*
X138275Y103750D02*
X133775D01*
X136025D02*
Y107500D01*
X138275D02*
X133775D01*
X145475Y76750D02*
Y73750D01*
X142850Y76375*
X142100Y76750*
X141350Y76375*
X140975Y75625*
Y74500*
X141350Y73750*
X145475Y81625D02*
X145100Y82000D01*
X144725Y81625*
X145100Y81250*
X145475Y81625*
X143600D02*
X143225Y82000D01*
X142850Y81625*
X143225Y81250*
X143600Y81625*
X144725Y89500D02*
X145100Y89125D01*
X145475Y88375*
Y87250*
X145100Y86500*
X144725Y86125*
X143975Y85750*
X142475*
X141725Y86125*
X141350Y86500*
X140975Y87250*
Y88375*
X141350Y89125*
X141725Y89500*
X145475Y91750D02*
X140975Y93625D01*
X145475Y95500*
X143600Y92500D02*
Y94750D01*
X145475Y97750D02*
X140975D01*
X145475Y101500*
X140975*
Y103750D02*
X145475D01*
Y107500*
X256400Y54875D02*
Y59375D01*
X258650*
X259400Y59000*
X259775Y58625*
X260150Y57875*
Y56375*
X259775Y55625*
X259400Y55250*
X258650Y54875*
X256400*
X271025Y57125D02*
X271775Y56750D01*
X272150Y56000*
X271775Y55250*
X271025Y54875*
X268400*
Y59375*
X271025*
X271775Y59000*
X272150Y58250*
X271775Y57500*
X271025Y57125*
X268400*
X284150Y55625D02*
X283775Y55250D01*
X283025Y54875*
X281900*
X281150Y55250*
X280775Y55625*
X280400Y56375*
Y57875*
X280775Y58625*
X281150Y59000*
X281900Y59375*
X283025*
X283775Y59000*
X284150Y58625*
X292400Y54875D02*
X294275Y59375D01*
X296150Y54875*
X293150Y56750D02*
X295400D01*
X265400Y24875D02*
Y29375D01*
X267650*
X268400Y29000*
X268775Y28625*
X269150Y27875*
Y26375*
X268775Y25625*
X268400Y25250*
X267650Y24875*
X265400*
X271400D02*
X273275Y29375D01*
X275150Y24875*
X272150Y26750D02*
X274400D01*
X281150Y25625D02*
X280775Y25250D01*
X280025Y24875*
X278900*
X278150Y25250*
X277775Y25625*
X277400Y26375*
Y27875*
X277775Y28625*
X278150Y29000*
X278900Y29375*
X280025*
X280775Y29000*
X281150Y28625*
X286400Y24875D02*
X283400D01*
X286025Y27500*
X286400Y28250*
X286025Y29000*
X285275Y29375*
X284150*
X283400Y29000*
X300025Y35750D02*
X301150D01*
Y35375*
X300775Y34625*
X300400Y34250*
X299650Y33875*
X298900*
X298150Y34250*
X297775Y34625*
X297400Y35375*
Y36875*
X297775Y37625*
X298150Y38000*
X298900Y38375*
X299650*
X300400Y38000*
X300775Y37625*
X301150Y36875*
X303400Y33875D02*
Y38375D01*
X307150Y33875*
Y38375*
X309400Y33875D02*
Y38375D01*
X311650*
X312400Y38000*
X312775Y37625*
X313150Y36875*
Y35375*
X312775Y34625*
X312400Y34250*
X311650Y33875*
X309400*
X316400Y54875D02*
Y59375D01*
X318650*
X319400Y59000*
X319775Y58625*
X320150Y57875*
Y56375*
X319775Y55625*
X319400Y55250*
X318650Y54875*
X316400*
X331025Y57125D02*
X331775Y56750D01*
X332150Y56000*
X331775Y55250*
X331025Y54875*
X328400*
Y59375*
X331025*
X331775Y59000*
X332150Y58250*
X331775Y57500*
X331025Y57125*
X328400*
X344150Y55625D02*
X343775Y55250D01*
X343025Y54875*
X341900*
X341150Y55250*
X340775Y55625*
X340400Y56375*
Y57875*
X340775Y58625*
X341150Y59000*
X341900Y59375*
X343025*
X343775Y59000*
X344150Y58625*
X352400Y54875D02*
X354275Y59375D01*
X356150Y54875*
X353150Y56750D02*
X355400D01*
X325400Y24875D02*
Y29375D01*
X327650*
X328400Y29000*
X328775Y28625*
X329150Y27875*
Y26375*
X328775Y25625*
X328400Y25250*
X327650Y24875*
X325400*
X331400D02*
X333275Y29375D01*
X335150Y24875*
X332150Y26750D02*
X334400D01*
X341150Y25625D02*
X340775Y25250D01*
X340025Y24875*
X338900*
X338150Y25250*
X337775Y25625*
X337400Y26375*
Y27875*
X337775Y28625*
X338150Y29000*
X338900Y29375*
X340025*
X340775Y29000*
X341150Y28625*
X344150Y24875D02*
X345650D01*
X344900D02*
Y29375D01*
X344150Y28625*
X335150Y271875D02*
X336650D01*
X335900D02*
Y276375D01*
X335150Y275625*
X342275Y271875D02*
X342650Y272250D01*
X342275Y272625*
X341900Y272250*
X342275Y271875*
Y273750D02*
X342650Y274125D01*
X342275Y274500*
X341900Y274125*
X342275Y273750*
X346400Y271875D02*
Y276375D01*
X348650*
X349400Y276000*
X349775Y275625*
X350150Y274875*
Y273375*
X349775Y272625*
X349400Y272250*
X348650Y271875*
X346400*
X352400Y273375D02*
X355400D01*
X353900Y271875D02*
Y274875D01*
X337400Y264675D02*
X334400D01*
X337025Y267300*
X337400Y268050*
X337025Y268800*
X336275Y269175*
X335150*
X334400Y268800*
X342275Y264675D02*
X342650Y265050D01*
X342275Y265425*
X341900Y265050*
X342275Y264675*
Y266550D02*
X342650Y266925D01*
X342275Y267300*
X341900Y266925*
X342275Y266550*
X346400Y264675D02*
Y269175D01*
X348650*
X349400Y268800*
X349775Y268425*
X350150Y267675*
Y266175*
X349775Y265425*
X349400Y265050*
X348650Y264675*
X346400*
X352400Y266175D02*
X355400D01*
X337275Y123500D02*
Y125000D01*
Y124250D02*
X332775D01*
X333525Y123500*
X337275Y130625D02*
X336900Y131000D01*
X336525Y130625*
X336900Y130250*
X337275Y130625*
X335400D02*
X335025Y131000D01*
X334650Y130625*
X335025Y130250*
X335400Y130625*
X336150Y134750D02*
X336900Y135125D01*
X337275Y135875*
Y137375*
X336900Y138125*
X336150Y138500*
X335400Y138125*
X335025Y137375*
Y135875*
X334650Y135125*
X333900Y134750*
X333150Y135125*
X332775Y135875*
Y137375*
X333150Y138125*
X333900Y138500*
X336525Y144500D02*
X336900Y144125D01*
X337275Y143375*
Y142250*
X336900Y141500*
X336525Y141125*
X335775Y140750*
X334275*
X333525Y141125*
X333150Y141500*
X332775Y142250*
Y143375*
X333150Y144125*
X333525Y144500*
X332775Y146750D02*
X337275D01*
Y150500*
X344475Y125750D02*
Y122750D01*
X341850Y125375*
X341100Y125750*
X340350Y125375*
X339975Y124625*
Y123500*
X340350Y122750*
X344475Y130625D02*
X344100Y131000D01*
X343725Y130625*
X344100Y130250*
X344475Y130625*
X342600D02*
X342225Y131000D01*
X341850Y130625*
X342225Y130250*
X342600Y130625*
X343350Y134750D02*
X344100Y135125D01*
X344475Y135875*
Y137375*
X344100Y138125*
X343350Y138500*
X342600Y138125*
X342225Y137375*
Y135875*
X341850Y135125*
X341100Y134750*
X340350Y135125*
X339975Y135875*
Y137375*
X340350Y138125*
X341100Y138500*
X344475Y140750D02*
X339975D01*
Y143000*
X340350Y143750*
X340725Y144125*
X341475Y144500*
X342975*
X343725Y144125*
X344100Y143750*
X344475Y143000*
Y140750*
Y146750D02*
X339975Y148625D01*
X344475Y150500*
X342600Y147500D02*
Y149750D01*
D02*
D75*
X332479Y224632D02*
X345766D01*
Y234868*
X332479*
X333656Y288931D02*
Y286569D01*
X322144*
Y288931*
X333656*
X334199Y295033D02*
Y290309D01*
X342581Y201750D02*
X340219D01*
X348219D02*
X350581D01*
X356400Y91931D02*
Y89569D01*
Y105931D02*
Y103569D01*
Y113931D02*
Y111569D01*
X357470Y245254D02*
G75*
G02X360118I1324D01*
G01*
X357470D02*
G75*
G02X360118I1324D01*
G01*
G75*
G02X357470I-1324*
G01*
X391002Y270250D02*
X397900D01*
Y239935*
X391235*
X0Y0D02*
M02*
